<?xml version="1.0" encoding="utf-8"?>
<!-- Generator: Adobe Illustrator 27.4.0, SVG Export Plug-In . SVG Version: 6.00 Build 0)  -->
<svg version="1.1" id="Capa_2_00000093167308696009341520000014327310604116361104_"
	 xmlns="http://www.w3.org/2000/svg" xmlns:xlink="http://www.w3.org/1999/xlink" x="0px" y="0px" viewBox="0 0 57.9 352.5"
	 style="enable-background:new 0 0 57.9 352.5;" xml:space="preserve">
<style type="text/css">
	.st0{fill:#96D5ED;}
	.st1{fill:none;stroke:#022791;stroke-width:1.33;stroke-linecap:round;stroke-linejoin:round;}
	.st2{fill:none;stroke:#FFD125;stroke-width:1.33;stroke-linecap:round;stroke-linejoin:round;}
</style>
<path class="st0" d="M49,95.3H14.1v29.3H49V95.3z"/>
<path class="st0" d="M54.9,325.1L38,325V131.4h16.9V325.1z"/>
<path class="st1" d="M0.7,303.8V87.7l50.8-44.1V26.9l5.8-2.2"/>
<path class="st1" d="M57.2,0.7V95h-8.3v30.2h6v199.6H7.9"/>
<path class="st1" d="M48.9,95H13.3v30.2h35.6"/>
<path class="st1" d="M38.6,299.7h16.3V132.1H38.6V299.7z"/>
<path class="st1" d="M22.5,299.7h-11"/>
<path class="st1" d="M38.6,299.7H28.2"/>
<path class="st1" d="M33.9,291.7H11.4"/>
<path class="st1" d="M11.3,321.3"/>
<path class="st1" d="M38.5,321.3"/>
<path class="st1" d="M11.3,313.4"/>
<path class="st1" d="M38.5,313.4"/>
<path class="st1" d="M28.5,283.7H15.6"/>
<path class="st1" d="M33.9,275.7H17.4"/>
<path class="st1" d="M38.6,267.7H11.4"/>
<path class="st1" d="M33.4,259.8h-22"/>
<path class="st1" d="M29.2,251.8H16.6"/>
<path class="st1" d="M38.6,243.8H11.4"/>
<path class="st1" d="M21.2,235.8h-9.8"/>
<path class="st1" d="M38.6,235.8H25.8"/>
<path class="st1" d="M25,227.9H11.4"/>
<path class="st1" d="M38.6,227.9h-6.4"/>
<path class="st1" d="M21.2,219.9h-9.8"/>
<path class="st1" d="M38.6,211.9H11.4"/>
<path class="st1" d="M38.6,203.9h-8.2"/>
<path class="st1" d="M38.6,195.9H11.4"/>
<path class="st1" d="M29.9,172H11.4"/>
<path class="st1" d="M23.1,164H11.4"/>
<path class="st1" d="M38.6,164h-9.6"/>
<path class="st1" d="M38.6,156H11.4"/>
<path class="st2" d="M38.6,219.9H27.2"/>
<path class="st2" d="M21.6,203.9H11.4"/>
<path class="st2" d="M32.4,187.9h-21"/>
<path class="st2" d="M34,180H11.4"/>
<path class="st2" d="M33.9,148.1H11.4"/>
<path class="st1" d="M38.6,140.1H11.4"/>
<path class="st1" d="M38.6,132.1H11.4"/>
<path class="st1" d="M11.4,304.3"/>
<path class="st1" d="M48.9,304.3"/>
<path class="st1" d="M20.7,95v30.2"/>
<path class="st1" d="M27.9,95v30.2"/>
<path class="st1" d="M35,95v30.2"/>
</svg>
