<svg width="119" height="620" viewBox="0 0 119 620" fill="none" xmlns="http://www.w3.org/2000/svg">
<path d="M106.418 485.124V370.976H94.7053V261.018H83.3062L82.9921 197.292H71.279V101H59.5658L59.0855 164.375H47.8527V210.134H36.1395L37.1464 340.861H24.4263V454.778H12.7132V546.287H1V619.117H118.132V485.124H106.418Z" fill="#4D75FE"/>
<path d="M59.5659 100.799H71.2791V197.091" stroke="#022791" stroke-width="1.33" stroke-linecap="round" stroke-linejoin="round"/>
<path d="M47.8528 313.737V164.173H59.5659" stroke="#022791" stroke-width="1.33" stroke-linecap="round" stroke-linejoin="round"/>
<path d="M47.8528 340.66V327.994" stroke="#022791" stroke-width="1.33" stroke-linecap="round" stroke-linejoin="round"/>
<path d="M12.7131 618.916V454.577H24.4263" stroke="#022791" stroke-width="1.33" stroke-linecap="round" stroke-linejoin="round"/>
<path d="M24.4263 454.577V340.66" stroke="#022791" stroke-width="1.33" stroke-linecap="round" stroke-linejoin="round"/>
<path d="M118.132 484.922H106.418V618.916H118.132V484.922Z" stroke="#022791" stroke-width="1.33" stroke-linecap="round" stroke-linejoin="round"/>
<path d="M12.7131 546.086V618.916" stroke="#022791" stroke-width="1.33" stroke-linecap="round" stroke-linejoin="round"/>
<path d="M24.4263 618.916V340.66H36.1394" stroke="#022791" stroke-width="1.33" stroke-linecap="round" stroke-linejoin="round"/>
<path d="M36.1394 359.811V340.66V209.932H47.8526" stroke="#022791" stroke-width="1.33" stroke-linecap="round" stroke-linejoin="round"/>
<path d="M36.1394 410.316V370.774" stroke="#022791" stroke-width="1.33" stroke-linecap="round" stroke-linejoin="round"/>
<path d="M36.1394 459.813V430.309" stroke="#96D5ED" stroke-width="1.33" stroke-linecap="round" stroke-linejoin="round"/>
<path d="M47.8528 470.175V618.916" stroke="#96D5ED" stroke-width="1.33" stroke-linecap="round" stroke-linejoin="round"/>
<path d="M47.8528 401.425V454.567" stroke="#022791" stroke-width="1.33" stroke-linecap="round" stroke-linejoin="round"/>
<path d="M47.8528 340.66V387.057" stroke="#96D5ED" stroke-width="1.33" stroke-linecap="round" stroke-linejoin="round"/>
<path d="M59.5659 409.206V573.036" stroke="#022791" stroke-width="1.33" stroke-linecap="round" stroke-linejoin="round"/>
<path d="M59.5659 370.774V418.023" stroke="#022791" stroke-width="1.33" stroke-linecap="round" stroke-linejoin="round"/>
<path d="M59.5659 303.199V359.811" stroke="#022791" stroke-width="1.33" stroke-linecap="round" stroke-linejoin="round"/>
<path d="M59.5659 275.019V288.239" stroke="#96D5ED" stroke-width="1.33" stroke-linecap="round" stroke-linejoin="round"/>
<path d="M59.5659 1V185.239V197.091V254.091" stroke="#022791" stroke-width="1.33" stroke-linecap="round" stroke-linejoin="round"/>
<path d="M71.2791 502.307V530.913" stroke="#022791" stroke-width="1.33" stroke-linecap="round" stroke-linejoin="round"/>
<path d="M71.2791 391.989V490.261" stroke="#96D5ED" stroke-width="1.33" stroke-linecap="round" stroke-linejoin="round"/>
<path d="M71.2791 220.729V291.135V340.66V380.951" stroke="#96D5ED" stroke-width="1.33" stroke-linecap="round" stroke-linejoin="round"/>
<path d="M82.9922 324.506V197.091V291.135V197.091H71.2791V209.933" stroke="#022791" stroke-width="1.33" stroke-linecap="round" stroke-linejoin="round"/>
<path d="M82.9922 422.27V346.026" stroke="#022791" stroke-width="1.33" stroke-linecap="round" stroke-linejoin="round"/>
<path d="M82.9922 458.527V434.972" stroke="#022791" stroke-width="1.33" stroke-linecap="round" stroke-linejoin="round"/>
<path d="M82.9922 518.09V472.932" stroke="#022791" stroke-width="1.33" stroke-linecap="round" stroke-linejoin="round"/>
<path d="M94.7053 394.394V370.774H106.418V484.922" stroke="#022791" stroke-width="1.33" stroke-linecap="round" stroke-linejoin="round"/>
<path d="M94.7053 470.175V446.574V405.006" stroke="#022791" stroke-width="1.33" stroke-linecap="round" stroke-linejoin="round"/>
<path d="M94.7053 618.916V484.922" stroke="#96D5ED" stroke-width="1.33" stroke-linecap="round" stroke-linejoin="round"/>
<path d="M106.418 484.922V618.916" stroke="#022791" stroke-width="1.33" stroke-linecap="round" stroke-linejoin="round"/>
<path d="M12.7131 618.916H112.275" stroke="#022791" stroke-width="1.33" stroke-linecap="round" stroke-linejoin="round"/>
<path d="M12.7132 546.086H1V618.916H12.7132V546.086Z" stroke="#022791" stroke-width="1.33" stroke-linecap="round" stroke-linejoin="round"/>
<path d="M94.7052 370.774V260.817H83.3062" stroke="#022791" stroke-width="1.33" stroke-linecap="round" stroke-linejoin="round"/>
<path d="M36.1394 473.08V540.47" stroke="#022791" stroke-width="1.33" stroke-linecap="round" stroke-linejoin="round"/>
<path d="M83.3062 536.751V580.243" stroke="#022791" stroke-width="1.33" stroke-linecap="round" stroke-linejoin="round"/>
</svg>
