<?xml version="1.0" encoding="UTF-8"?><svg id="Capa_2" xmlns="http://www.w3.org/2000/svg" viewBox="0 0 59.23 135.23"><defs><style>.cls-1{stroke-miterlimit:10;}.cls-1,.cls-2,.cls-3{fill:#fff;}.cls-1,.cls-3{stroke:#1d4fc6;}.cls-2{stroke:#ffd125;}.cls-2,.cls-3{stroke-linecap:round;stroke-linejoin:round;stroke-width:1.33px;}</style></defs><g id="_02"><path class="cls-3" d="m58.56,134.56V62.63h-7.5v-13.95h-2.95v-9.31h-.23s-2.22-11.85-13.74-14.41c-.24-.11-2.26-.49-4.29-.49s-4.06.37-4.29.49c-11.52,2.56-13.74,14.41-13.74,14.41h-.14v9.31h-2.95v13.95H.67v71.93h57.9Z"/><path class="cls-1" d="m51.06,62.63v-13.95h-2.95v-9.31h-.23s-2.22-11.85-13.74-14.41c-.24-.11-2.26-.49-4.29-.49s-4.05.37-4.29.49c-11.52,2.56-13.74,14.41-13.74,14.41h-.14v9.31h-2.95v13.95h42.32,0Z"/><path class="cls-3" d="m8.75,48.68h40.71"/><path class="cls-3" d="m11.83,39.37h36.29"/><path class="cls-3" d="m29.85,24.48V.67"/><path class="cls-3" d="m8.75,62.63h43.96"/><path class="cls-2" d="m16.49,124.43h9.97"/><path class="cls-2" d="m9.75,116.09h16.7"/><path class="cls-2" d="m9.75,107.75h9.94"/><path class="cls-2" d="m9.75,99.4h16.7"/><path class="cls-2" d="m9.75,91.06h16.7"/><path class="cls-2" d="m9.75,82.71h16.7"/><path class="cls-2" d="m9.75,74.37h16.7"/><path class="cls-2" d="m33.26,124.43h16.69"/><path class="cls-2" d="m33.26,116.09h16.69"/><path class="cls-2" d="m33.26,107.75h16.69"/><path class="cls-2" d="m33.26,99.4h8.35"/><path class="cls-2" d="m33.26,91.06h16.69"/><path class="cls-2" d="m40.78,82.71h9.17"/><path class="cls-2" d="m33.26,74.37h16.69"/></g></svg>