<?xml version="1.0" encoding="UTF-8"?><svg id="Capa_2" xmlns="http://www.w3.org/2000/svg" xmlns:xlink="http://www.w3.org/1999/xlink" viewBox="0 0 57.89 352.44"><defs><style>.cls-1{mask:url(#mask);}.cls-2{fill:#fff;}.cls-3{fill:#96d5ed;}.cls-4{stroke:#ffd125;}.cls-4,.cls-5{fill:none;stroke-linecap:round;stroke-linejoin:round;stroke-width:1.33px;}.cls-5{stroke:#022791;}</style><mask id="mask" x="-224.16" y="-65.47" width="310.61" height="417.91" maskUnits="userSpaceOnUse"><g id="mask3_378_1176"><path class="cls-2" d="m86.45-65.47V227.83h-30.12v-7.86c1.05-1.52,1.66-3.35,1.66-5.28,0-2.91-1.36-5.52-3.48-7.22l-7.01-25.36c-.89-3.22-3.45-5.66-6.57-6.48l-4.6-.02c-3.12.8-5.7,3.23-6.62,6.45l-7.2,25.54c-.06.05-.11.09-.16.14-.1.08-.18.17-.28.25-.32.3-.55.56-.73.77l-.23.28-.44.65s-.06.09-.08.15c-.18-.1-.36-.2-.55-.29l-5.27-2.56c-.08-.18-.16-.37-.26-.57-.22-.43-.46-.84-.72-1.23l-3.4-4.6c-1.74-2.37-4.52-3.77-7.45-3.77s-5.72,1.41-7.44,3.76l-1.81,2.46h-1.89l-.85,4.04-5.1,2.48c-.18.09-.35.18-.53.28-.52-.85-1.18-1.61-1.94-2.25l-7.19-25.48c-1.11-3.99-4.77-6.77-8.9-6.77s-7.79,2.79-8.9,6.78l-7,25.35c-2.12,1.69-3.48,4.3-3.48,7.23,0,1.93.61,3.76,1.66,5.28v7.86h-35.64c-.62-1.31-1.54-2.47-2.68-3.36l-6.98-19.03c-1.15-3.13-3.9-5.37-7.11-5.92l-1.57-4.28-1.57,4.28c-3.2.57-5.94,2.8-7.09,5.92l-6.98,19.02c-.12.1-.23.19-.33.28-.17.14-.35.3-.54.5-.18.19-.37.4-.55.62l-.33.42c-.07.09-.14.2-.21.31-.27.39-.45.74-.55.95-.04.07-.08.15-.12.23l-.23.51c-.13.33-.22.62-.29.85-.07.22-.15.52-.22.88-.11.58-.17,1.17-.17,1.75,0,.5.04,1,.13,1.52.04.22.08.44.14.67.11.5.28.99.48,1.44.16.38.34.76.54,1.1l.19.35v6.85h-14.59c-5.1,0-9.24,4.15-9.24,9.25v3.15h-19.63c-5.1,0-9.24,4.15-9.24,9.25v46.18c-2.23,1.68-3.66,4.36-3.66,7.36v17.62c0,.79.1,1.57.29,2.31h-46V-65.47H86.45Z"/></g></mask></defs><g id="Capa_13"><path class="cls-3" d="m43.41,95.73H8.53v29.33h34.88v-29.33Z"/><path class="cls-3" d="m2.96,337.3l16.91-.12v-204.69H2.96v204.82Z"/><g class="cls-1"><path class="cls-5" d="m57.23,350.78V87.68L6.47,43.54v-16.69l-5.81-2.23"/><path class="cls-5" d="m.67.67v94.29h8.29v30.21H2.97v182.16h5.99v43.46"/><path class="cls-5" d="m8.96,94.95h35.64v30.21H8.96"/><path class="cls-5" d="m19.29,132.09H2.97v167.58h16.31v-167.58Z"/><path class="cls-5" d="m35.43,299.66h11.03"/><path class="cls-5" d="m19.3,299.66h10.41"/><path class="cls-5" d="m24,291.68h22.46"/><path class="cls-5" d="m19.43,321.32h27.17"/><path class="cls-5" d="m19.43,313.34h27.17"/><path class="cls-5" d="m29.43,283.7h12.87"/><path class="cls-5" d="m24,275.72h16.48"/><path class="cls-5" d="m19.3,267.74h27.16"/><path class="cls-5" d="m24.46,259.76h21.99"/><path class="cls-5" d="m28.7,251.78h12.59"/><path class="cls-5" d="m19.3,243.8h27.16"/><path class="cls-5" d="m36.64,235.83h9.81"/><path class="cls-5" d="m19.3,235.83h12.75"/><path class="cls-5" d="m32.88,227.84h13.58"/><path class="cls-5" d="m19.3,227.84h6.42"/><path class="cls-5" d="m36.64,219.87h9.81"/><path class="cls-5" d="m19.3,219.87h11.44"/><path class="cls-5" d="m19.3,211.88h27.16"/><path class="cls-5" d="m36.27,203.91h10.19"/><path class="cls-5" d="m19.3,203.91h8.23"/><path class="cls-5" d="m19.3,195.92h27.16"/><path class="cls-5" d="m25.46,187.95h21"/><path class="cls-4" d="m28.03,171.99h18.43"/><path class="cls-5" d="m34.78,164h11.68"/><path class="cls-5" d="m19.3,164h9.65"/><path class="cls-5" d="m19.3,156.02h27.16"/><path class="cls-4" d="m23.96,148.05h22.49"/><path class="cls-5" d="m19.3,140.06h27.16"/><path class="cls-4" d="m23.92,132.09h22.54"/><path class="cls-5" d="m8.96,307.31h37.52v44.46"/><path class="cls-5" d="m19.3,307.31v44.46"/><path class="cls-5" d="m37.17,94.95v30.21"/><path class="cls-5" d="m30.02,94.95v30.21"/><path class="cls-5" d="m22.87,94.95v30.21"/></g></g></svg>