<?xml version="1.0" encoding="UTF-8"?><svg id="Capa_2" xmlns="http://www.w3.org/2000/svg" xmlns:xlink="http://www.w3.org/1999/xlink" viewBox="0 0 1049.49 619.44"><defs><style>.cls-1{mask:url(#mask);}.cls-2{fill:#022791;}.cls-3,.cls-4,.cls-5,.cls-6,.cls-7{fill:#fff;}.cls-8,.cls-9{fill:#96d5ed;}.cls-10{fill:#1d4fc6;}.cls-11,.cls-12{fill:#4d75fe;}.cls-4{stroke-width:2.67px;}.cls-4,.cls-12,.cls-9,.cls-5,.cls-6,.cls-7,.cls-13,.cls-14,.cls-15,.cls-16,.cls-17,.cls-18,.cls-19{stroke-linecap:round;stroke-linejoin:round;}.cls-4,.cls-19{stroke:#4d75fe;}.cls-12,.cls-9,.cls-5,.cls-6,.cls-7,.cls-13,.cls-14,.cls-15,.cls-16,.cls-17,.cls-18,.cls-19{stroke-width:1.33px;}.cls-12,.cls-9,.cls-7,.cls-16{stroke:#022791;}.cls-5,.cls-13{stroke:#ffd125;}.cls-6,.cls-15{stroke:#1d4fc6;}.cls-13,.cls-14,.cls-15,.cls-16,.cls-17,.cls-18,.cls-19{fill:none;}.cls-14{stroke:#fff;}.cls-17{stroke:#96d5ed;}.cls-18{stroke:#848484;}.cls-20{mask:url(#mask-3);}.cls-21{mask:url(#mask-2);}.cls-22{mask:url(#mask-1);}</style><mask id="mask" x="641.35" y="298.75" width="64.88" height="322.09" maskUnits="userSpaceOnUse"><g id="mask4_378_1176"><path class="cls-3" d="m706.24,298.75v322.09h-42.79c.2-.77.31-1.57.31-2.41,0-.53-.05-1.06-.15-1.59l.14-318.09h42.48Z"/></g></mask><mask id="mask-1" x="127.39" y="283.37" width="73.14" height="343.81" maskUnits="userSpaceOnUse"><g id="mask0_378_1176"><path class="cls-3" d="m200.53,283.37v343.81h-55.67c4.8,0,8.7-3.91,8.7-8.72,0-3.92-2.6-7.24-6.16-8.34,2.9-11.63,4.6-24.39,5.09-38.05.52-14.93-.66-25.56-.79-26.69-.68-7.17-1.78-14.34-3.23-21.31-.07-.5-.18-.97-.32-1.42-2.53-11.59-6.18-22.94-10.85-33.79l3.97-4.4c2.34-2.55,2.94-6.24,1.55-9.39-1.4-3.15-4.52-5.2-7.97-5.2h-7.09c-.13-.22-.25-.43-.38-.66v-185.85h73.14,0Z"/></g></mask><mask id="mask-2" x="232.2" y="196.76" width="120.02" height="420.89" maskUnits="userSpaceOnUse"><g id="mask1_378_1176"><path class="cls-3" d="m352.23,196.76v361.55c-.08-.09-.18-.18-.26-.27-1.24-1.25-2.38-2.46-3.51-3.72-1.13-1.25-2.19-2.5-3.27-3.84-1.07-1.32-2.04-2.57-2.87-3.72-.86-1.17-1.77-2.46-2.69-3.83l-.42-.63c-.08-.14-.17-.27-.25-.4-6.86-10.63-8.86-18.65-8.86-18.66-.7-3.1-2.91-5.6-5.98-6.7-2.97-1.03-6.24-.49-8.72,1.45l-.05.05c-.8.63-3.46,2.69-7.18,5.42h-8.51c-5.09,0-9.24,4.14-9.24,9.25v1.1c-4.52,2.02-8.95,3.84-13.24,5.46l-.36.14c-3.47,1.31-6.98,2.83-10.43,4.5-1.52.73-3.04,1.51-4.73,2.41-.92.32-1.78.79-2.56,1.38-.35.19-.69.39-1.03.58-1.66.94-3.39,1.98-5.28,3.16l-.28.18c-.6.37-1.2.75-1.74,1.1-2.11,1.35-4.24,2.8-6.37,4.31-2.14,1.54-4.14,3.03-5.89,4.4-.93.72-1.87,1.45-2.7,2.13-.88.71-1.75,1.43-2.64,2.17-.33.28-.66.55-.98.82V196.76h120.02Z"/></g></mask><mask id="mask-3" x="232.2" y="250.83" width="72.18" height="370.01" maskUnits="userSpaceOnUse"><g id="mask2_378_1176"><path class="cls-3" d="m304.39,250.83l-.48.43c-.18.18-.56.56-.95,1.1l-.15.22c-.25.35-.46.71-.66,1.08l-.17.35c-.08.18-.15.35-.19.48l-21.25,57.8c-.37,1.03-.55,2.08-.55,3.14v1c0,.12,0,.24,0,.37v69.86c-.03.37-.05.74-.05,1.13v2.69c0,.37.03.74.06,1.11v131.01l-.06,95.94c0,.78.1,1.54.3,2.28h-48.03V250.83h72.18Z"/></g></mask></defs><g id="_01"><path class="cls-16" d="m475.11,618.58h99.56"/><path class="cls-16" d="m144.87,618.52h-74.93"/><path class="cls-10" d="m235.36,230.84c-4.26,0-8.14,2.1-10.5,5.63-.7-.12-1.42-.2-2.15-.2-5.1,0-9.68,3.04-11.67,7.73-.14.34.01.73.35.87.08.04.17.05.26.05.26,0,.51-.15.61-.41,1.78-4.21,5.88-6.92,10.44-6.92.8,0,1.58.08,2.32.24,0,0,.01,0,.02,0,.04,0,.08,0,.12,0,.05,0,.1,0,.15,0,.02,0,.04-.02.06-.02.06-.02.12-.04.17-.08.02-.01.04-.04.06-.05.04-.04.09-.08.12-.13,0,0,0,0,.01-.01,2.08-3.36,5.68-5.37,9.63-5.37,6.25,0,11.34,5.1,11.34,11.36,0,.22,0,.44-.02.66-.04.36.22.69.59.73.02,0,.05,0,.07,0,.33,0,.62-.25.66-.59.03-.26.03-.53.03-.81,0-7-5.69-12.69-12.67-12.69Z"/><path class="cls-14" d="m240.42,610.75h-36.37"/><path class="cls-14" d="m337.01,555.06h-72.28"/><path class="cls-14" d="m282.65,547.09h48.66"/><path class="cls-15" d="m29.99,618.53h982.35"/><path class="cls-15" d="m1035.84,618.53h12.98"/><path class="cls-15" d="m.67,618.53h10"/><path class="cls-10" d="m895.21,308.57c-1.99-4.7-6.57-7.73-11.67-7.73-.73,0-1.45.08-2.15.2-2.36-3.52-6.24-5.63-10.5-5.63-6.99,0-12.67,5.69-12.67,12.69,0,.27,0,.53.03.78.03.35.32.61.66.61.02,0,.04,0,.05,0,.37-.03.64-.35.61-.72-.02-.22-.03-.45-.03-.68,0-6.27,5.09-11.36,11.34-11.36,3.95,0,7.55,2.01,9.63,5.37,0,0,0,0,.01.01.02.04.06.06.09.09.03.03.06.07.09.09.03.02.07.03.11.05.04.02.08.04.12.05.04,0,.08,0,.12,0,.05,0,.09,0,.14,0,0,0,.01,0,.02,0,.74-.16,1.52-.24,2.32-.24,4.56,0,8.66,2.72,10.45,6.92.11.25.35.41.61.41.09,0,.17-.02.26-.05.34-.14.5-.53.35-.87Z"/><g class="cls-1"><path class="cls-12" d="m695.22,372.97v-28.39h-3.51v-5.44h-3.97c0-.07,0-.15,0-.22,0-9.14-7.4-16.54-16.52-16.54s-16.52,7.41-16.52,16.54c0,.07.01.15.01.22h-3.97v5.44h-3.51v28.39h-5.23v245.81h58.43v-245.81h-5.23,0Z"/><path class="cls-16" d="m671.23,322.38v-12.56"/><path class="cls-16" d="m650.26,344.58h42.72"/><path class="cls-16" d="m654.76,353.63h32.95"/><path class="cls-16" d="m669.54,364.58h18.17"/><path class="cls-17" d="m665.16,375.55h22.56"/><path class="cls-16" d="m659.42,386.5h23.64"/><path class="cls-16" d="m666.38,397.46h16.68"/><path class="cls-16" d="m659.42,408.42h23.64"/><path class="cls-17" d="m666.38,419.38h16.68"/><path class="cls-16" d="m659.42,430.34h23.64"/><path class="cls-16" d="m673.12,441.3h9.94"/><path class="cls-16" d="m659.42,441.3h4.86"/><path class="cls-16" d="m659.42,452.25h23.64"/><path class="cls-16" d="m659.42,463.22h23.64"/><path class="cls-16" d="m659.42,474.17h13.47"/><path class="cls-17" d="m667.93,485.13h15.13"/><path class="cls-16" d="m659.42,496.09h14.74"/><path class="cls-16" d="m659.42,507.04h18.98"/><path class="cls-16" d="m659.42,518h23.64"/><path class="cls-17" d="m668.5,528.96h14.56"/><path class="cls-16" d="m678.4,539.92h4.66"/><path class="cls-16" d="m659.42,539.92h9.08"/><path class="cls-16" d="m665.5,550.88h17.56"/><path class="cls-16" d="m674.16,561.84h8.9"/><path class="cls-16" d="m659.42,572.79h11.93"/><path class="cls-17" d="m693.99,397.46h-2.08"/><path class="cls-17" d="m693.99,408.42h-2.08"/><path class="cls-17" d="m693.99,419.38h-2.08"/><path class="cls-17" d="m693.99,441.3h-2.08"/><path class="cls-17" d="m693.99,452.25h-2.08"/><path class="cls-17" d="m693.99,463.22h-2.08"/><path class="cls-17" d="m693.99,485.13h-2.08"/><path class="cls-17" d="m693.99,507.04h-2.08"/><path class="cls-17" d="m693.99,518h-2.08"/><path class="cls-17" d="m693.99,528.96h-2.08"/><path class="cls-17" d="m693.99,539.92h-2.08"/><path class="cls-17" d="m693.99,572.79h-2.08"/></g><path class="cls-7" d="m653.44,271.07v20.85l-.13,326.53v-263.55.77c-.02.89-.05,2.54-.12,4.85-.03,1.21-.07,2.61-.1,4.16-.03.84-.05,1.72-.08,2.65-.02.71-.04,1.43-.06,2.18-.04,1.31-.08,2.7-.12,4.17-.03.87-.07,1.76-.09,2.68-.03.7-.05,1.42-.07,2.16-.05,1.34-.09,2.73-.14,4.16-.03.89-.07,1.8-.1,2.73-.03.69-.05,1.4-.08,2.11-.05,1.36-.1,2.75-.16,4.17-.04.91-.07,1.83-.12,2.77-.02.68-.05,1.37-.07,2.07-.06,1.36-.11,2.76-.18,4.17-.05.92-.08,1.86-.12,2.8-.04.67-.06,1.36-.09,2.03-.07,1.37-.13,2.76-.18,4.16-.05.94-.09,1.88-.13,2.84-.04.66-.07,1.32-.1,2-.07,1.37-.14,2.77-.2,4.17-.05.95-.1,1.91-.15,2.88-.03.65-.06,1.31-.09,1.96-.08,1.37-.16,2.77-.21,4.16-.06.97-.11,1.94-.17,2.92-.04.64-.07,1.28-.11,1.92-.08,1.38-.16,2.78-.23,4.17-.05.98-.11,1.97-.17,2.95-.04.62-.07,1.25-.11,1.89-.08,1.38-.17,2.77-.24,4.17-.06.98-.13,1.98-.19,2.98-.05.61-.08,1.24-.12,1.86-.1,1.38-.19,2.77-.28,4.16-.07,1.01-.14,2.02-.2,3.02-.05.6-.08,1.21-.13,1.81-.1,1.39-.19,2.79-.29,4.17-.07,1.02-.15,2.04-.21,3.05-.05.59-.09,1.19-.14,1.78-.1,1.39-.2,2.79-.31,4.16-.08,1.04-.17,2.07-.24,3.1-.04.59-.09,1.17-.14,1.75-.12,1.38-.21,2.77-.34,4.16-.09,1.05-.18,2.09-.26,3.14-.05.57-.1,1.14-.15,1.7-.13,1.39-.24,2.79-.37,4.17-.09,1.06-.19,2.12-.29,3.17-.05.56-.1,1.11-.16,1.67-.13,1.39-.26,2.78-.4,4.16-.11,1.08-.21,2.15-.31,3.21-.05.55-.11,1.09-.17,1.63-.16,1.4-.29,2.79-.44,4.17-.12,1.09-.22,2.15-.35,3.24-.06.54-.11,1.06-.18,1.6-.16,1.4-.31,2.79-.48,4.17-.13,1.1-.25,2.19-.39,3.28-.07.53-.13,1.04-.19,1.56-.18,1.4-.34,2.79-.52,4.16-.15,1.11-.29,2.22-.44,3.32-.06.51-.13,1.02-.2,1.52-.19,1.41-.39,2.8-.59,4.17-.17,1.13-.32,2.25-.49,3.35-.07.5-.16.99-.22,1.49-.21,1.41-.43,2.8-.66,4.16-.18,1.15-.37,2.28-.56,3.4-.08.48-.17.97-.24,1.44-.25,1.42-.5,2.81-.75,4.17-.3,1.66-.62,3.27-.94,4.84-.29,1.41-.58,2.8-.88,4.17-.37,1.67-.73,3.28-1.12,4.84-.34,1.44-.7,2.82-1.07,4.16-.16.61-.32,1.22-.5,1.8v44.84h-28.77l.05-347.38s-.4-13.95,4.96-21.3c5.06-6.94,17.83-18.3,19.24-19.55v-.12s.03.03.06.06c.05-.04.07-.06.07-.06v.12c1.41,1.24,14.18,12.61,19.23,19.55,5.36,7.35,4.96,21.3,4.96,21.3l.05-.04Z"/><path class="cls-9" d="m624.67,573.6v44.84h-19.67v-263.55s0,.27.02.77c.02.89.05,2.54.11,4.84.02,1.21.07,2.61.1,4.17.05,1.47.09,3.09.14,4.84.04,1.31.08,2.7.12,4.17.06,1.54.11,3.15.16,4.84.05,1.34.09,2.74.14,4.17.05,1.55.11,3.17.17,4.84.05,1.35.1,2.74.16,4.17.07,1.57.12,3.19.19,4.84.06,1.37.11,2.76.17,4.17.06,1.58.14,3.2.2,4.84.06,1.37.12,2.76.18,4.17.07,1.59.15,3.2.22,4.84.07,1.38.14,2.77.2,4.17.07,1.59.16,3.2.24,4.84.07,1.38.15,2.77.21,4.17.09,1.59.18,3.21.27,4.84.07,1.38.16,2.77.23,4.17.09,1.6.18,3.21.29,4.84.08,1.38.16,2.78.25,4.17.11,1.6.2,3.22.3,4.84.09,1.38.18,2.78.28,4.17.1,1.61.21,3.22.32,4.84.1,1.39.19,2.77.3,4.17.11,1.61.23,3.23.35,4.84.1,1.39.2,2.77.31,4.17.12,1.61.25,3.23.38,4.84.11,1.39.22,2.78.34,4.17.13,1.62.27,3.23.41,4.84.12,1.39.24,2.78.37,4.17.15,1.62.3,3.23.44,4.84.12,1.39.26,2.78.39,4.17.16,1.62.32,3.24.48,4.84.15,1.4.29,2.78.43,4.17.17,1.63.34,3.24.53,4.84.16,1.4.31,2.78.48,4.17.19,1.63.39,3.24.58,4.84.17,1.41.34,2.79.52,4.17.21,1.63.42,3.24.64,4.84.19,1.41.39,2.79.58,4.17.24,1.64.48,3.25.71,4.84.21,1.42.43,2.8.66,4.17.26,1.64.53,3.26.8,4.84.25,1.41.49,2.81.75,4.17.3,1.66.62,3.27.94,4.84.3,1.41.58,2.81.88,4.17.37,1.67.74,3.28,1.13,4.84.34,1.44.71,2.83,1.08,4.17.16.6.31,1.19.48,1.77v.03l.03-.12Z"/><path class="cls-9" d="m633.63,573.6v44.84h19.68v-263.55s0,.27-.02.77c-.02.89-.05,2.54-.11,4.84-.02,1.21-.06,2.61-.1,4.17-.05,1.47-.09,3.09-.14,4.84-.04,1.31-.08,2.7-.12,4.17-.05,1.54-.11,3.15-.16,4.84-.05,1.34-.09,2.74-.14,4.17-.06,1.55-.11,3.17-.18,4.84-.05,1.35-.1,2.74-.16,4.17-.07,1.57-.12,3.19-.19,4.84-.06,1.37-.11,2.76-.17,4.17-.07,1.58-.14,3.2-.2,4.84-.06,1.37-.12,2.76-.18,4.17-.07,1.59-.15,3.2-.22,4.84-.07,1.38-.14,2.77-.2,4.17-.07,1.59-.16,3.2-.24,4.84-.07,1.38-.15,2.77-.21,4.17-.09,1.59-.17,3.21-.27,4.84-.07,1.38-.16,2.77-.23,4.17-.09,1.6-.18,3.21-.29,4.84-.08,1.38-.16,2.78-.25,4.17-.11,1.6-.2,3.22-.3,4.84-.09,1.38-.18,2.78-.28,4.17-.1,1.61-.21,3.22-.32,4.84-.1,1.39-.19,2.77-.3,4.17-.11,1.61-.23,3.23-.35,4.84-.1,1.39-.2,2.77-.31,4.17-.12,1.61-.25,3.23-.38,4.84-.11,1.39-.22,2.78-.34,4.17-.13,1.62-.27,3.23-.41,4.84-.12,1.39-.24,2.78-.37,4.17-.15,1.62-.3,3.23-.44,4.84-.12,1.39-.26,2.78-.39,4.17-.16,1.62-.32,3.24-.48,4.84-.15,1.4-.29,2.78-.43,4.17-.17,1.63-.34,3.24-.53,4.84-.16,1.4-.31,2.78-.48,4.17-.19,1.63-.39,3.24-.58,4.84-.17,1.41-.34,2.79-.52,4.17-.21,1.63-.42,3.24-.64,4.84-.19,1.41-.39,2.79-.58,4.17-.24,1.64-.48,3.25-.71,4.84-.21,1.42-.43,2.8-.67,4.17-.26,1.64-.53,3.26-.8,4.84-.25,1.41-.49,2.81-.75,4.17-.3,1.66-.62,3.27-.94,4.84-.3,1.41-.58,2.81-.88,4.17-.37,1.67-.74,3.28-1.13,4.84-.34,1.44-.71,2.83-1.08,4.17-.16.6-.31,1.19-.48,1.77v.03l-.03-.12Z"/><path class="cls-8" d="m605.53,294.94h47.67c0-29.5-24.18-51.83-24.18-51.83h.03s-24.18,22.32-24.18,51.83h47.67"/><path class="cls-16" d="m605.53,294.94h47.67c0-29.5-24.18-51.83-24.18-51.83h.03s-24.18,22.32-24.18,51.83h47.67"/><path class="cls-16" d="m635.21,304.03h17.99"/><path class="cls-13" d="m635.21,313.07h11.46"/><path class="cls-13" d="m635.21,340.2h11.7"/><path class="cls-13" d="m635.21,367.32h11.05"/><path class="cls-13" d="m635.21,403.5h11.46"/><path class="cls-13" d="m635.21,430.62h9.79"/><path class="cls-13" d="m640.54,466.79h-5.32"/><path class="cls-13" d="m638.49,512h-8.82"/><path class="cls-13" d="m638.87,530.09h-6.63"/><path class="cls-16" d="m635.21,322.11h17.99"/><path class="cls-16" d="m635.21,331.16h7.51"/><path class="cls-16" d="m643.36,349.24h9.84"/><path class="cls-16" d="m635.21,358.28h17.99"/><path class="cls-16" d="m641.64,376.37h11.57"/><path class="cls-16" d="m635.21,385.41h17.99"/><path class="cls-16" d="m642.72,394.45h10.48"/><path class="cls-16" d="m635.21,412.53h17.99"/><path class="cls-16" d="m635.21,421.58h5.42"/><path class="cls-16" d="m640.63,439.66h12.57"/><path class="cls-16" d="m644.04,448.7h-8.82"/><path class="cls-16" d="m648.73,457.75h-13.51"/><path class="cls-16" d="m641.97,475.84h-6.75"/><path class="cls-16" d="m646.66,484.87h-11.45"/><path class="cls-16" d="m645.86,493.92h-10.64"/><path class="cls-16" d="m645,502.96h-9.78"/><path class="cls-16" d="m642.99,521.04h-7.78"/><path class="cls-16" d="m635.21,539.13h-5.37"/><path class="cls-16" d="m639.13,548.17h-3.92"/><path class="cls-16" d="m622.94,304.03h-3.73"/><path class="cls-16" d="m622.94,313.07h-17.99"/><path class="cls-16" d="m622.94,322.11h-17.99"/><path class="cls-13" d="m622.94,331.16h-7.21"/><path class="cls-16" d="m622.94,340.2h-17.99"/><path class="cls-16" d="m622.94,349.24h-17.99"/><path class="cls-13" d="m622.44,358.28h-12.97"/><path class="cls-16" d="m622.94,367.32h-17.99"/><path class="cls-16" d="m622.94,376.37h-17.99"/><path class="cls-13" d="m621.74,385.41h-10.34"/><path class="cls-16" d="m622.94,394.45h-17.99"/><path class="cls-16" d="m622.94,403.5h-17.99"/><path class="cls-16" d="m622.94,412.53h-17.99"/><path class="cls-13" d="m622.94,421.58h-12.74"/><path class="cls-16" d="m622.94,430.62h-17.99"/><path class="cls-16" d="m604.99,439.66h-.04"/><path class="cls-13" d="m628.24,439.21h-14.51"/><path class="cls-16" d="m604.99,448.7h-.04"/><path class="cls-16" d="m622.94,448.7h-13.96"/><path class="cls-16" d="m604.99,457.75h-.04"/><path class="cls-16" d="m616.56,457.75h-6.99"/><path class="cls-16" d="m604.99,466.79h-.04"/><path class="cls-16" d="m622.94,466.79h-12.74"/><path class="cls-16" d="m604.99,475.84h-.04"/><path class="cls-13" d="m622.94,475.84h-3.59"/><path class="cls-16" d="m604.99,484.87h-.04"/><path class="cls-16" d="m622.94,484.87h-11.31"/><path class="cls-16" d="m604.99,493.92h-.04"/><path class="cls-13" d="m621.22,493.92h-5.25"/><path class="cls-16" d="m604.99,502.96h-.04"/><path class="cls-16" d="m622.94,502.96h-9.62"/><path class="cls-16" d="m604.99,512h-.04"/><path class="cls-16" d="m622.94,512.01h-8.67"/><path class="cls-16" d="m604.99,521.04h-.04"/><path class="cls-13" d="m626.74,521.04h-7.62"/><path class="cls-16" d="m604.99,530.09h-.04"/><path class="cls-16" d="m622.94,530.09h-6.49"/><path class="cls-16" d="m604.99,539.13h-.04"/><path class="cls-16" d="m622.94,539.13h-5.21"/><path class="cls-16" d="m604.99,548.17h-.04"/><path class="cls-16" d="m622.94,548.17h-3.77"/><path class="cls-16" d="m625.58,285.35h25.95"/><path class="cls-16" d="m630.9,276.72h-23.07"/><path class="cls-16" d="m618.26,268.1h-6.99"/><path class="cls-16" d="m646.79,268.1h-17.15"/><path class="cls-16" d="m642.06,259.46h-26.07"/><path class="cls-16" d="m632.7,618.44h20.75"/><path class="cls-3" d="m993.63,617.87h-343.09v-16.29h2.99s0,0,0,0c0,0,0,0,0,0h141.29c.07,0,.14-.01.21-.04l27.02-9.24,27.01,9.24c.07.02.14.04.21.04h19.88c.37,0,.67-.3.67-.67s-.3-.67-.67-.67h-19.77l-5.69-1.95s.02-.06.02-.1v-17.91c0-3.47-.76-5.94-2.27-7.33-.75-.69-1.53-.96-2.07-1.06v-4.33c1.27-.94,5.94-4.9,5.94-12.87s-5.45-16.21-14.58-21.94c-5.82-3.65-7.78-4.53-8.44-4.73-.06-.02-.12-.02-.19-.02-.02,0-.03,0-.05,0-.02,0-.04,0-.05,0-.06,0-.12,0-.18.02-.66.2-2.62,1.07-8.44,4.73-9.13,5.73-14.57,13.94-14.57,21.94s4.67,11.93,5.94,12.87v4.33c-.54.1-1.32.37-2.07,1.06-1.51,1.39-2.27,3.86-2.27,7.33v17.91s.01.06.02.09l-5.72,1.96h-140.53v-52.21h28.2c.37,0,.67-.3.67-.67v-11.75h23.16c.37,0,.67-.3.67-.67v-21.05l7.82-21.31,7.82,21.31v5.2c0,.37.3.67.67.67h54.72c.37,0,.67-.3.67-.67v-21.96c.07-.07.12-.16.14-.26l7.69-27.81,7.82,27.72v6.38c0,.37.3.67.67.67h14.12c.37,0,.67-.3.67-.67v-2.87l9.38-4.56c.23-.11.37-.34.37-.6v-2.39l2.62-3.55,2.58,3.49v2.05c0,.13.04.24.1.34-.03.27.11.54.37.66l9.38,4.56v2.87c0,.37.3.67.67.67h14.12c.37,0,.67-.3.67-.67v-6.38l7.82-27.72,7.69,27.81c.03.1.08.19.14.26v21.96c0,.37.3.67.67.67h54.72c.37,0,.67-.3.67-.67v-5.2l7.82-21.31,7.82,21.31v21.05c0,.37.3.67.67.67h23.16v11.75c0,.37.3.67.67.67h28.2v52.88c0,.37.3.67.67.67h2.99v16.29Z"/><path class="cls-8" d="m838.68,572.49h-.01s0-5.27,0-5.27c0,0,5.94-3.76,5.94-12.52s-6.46-16.48-14.26-21.38c-5.88-3.69-7.72-4.49-8.28-4.65v1.22s-.01-1.21-.01-1.21c-.55.17-2.4.96-8.28,4.65-7.82,4.9-14.26,12.62-14.26,21.38h-.01c0,8.75,5.94,12.51,5.94,12.51v5.28s-4.34-.35-4.34,7.79v18.91l20.95-7.61,20.96,7.6v-18.91c0-8.13-4.34-7.79-4.34-7.79Z"/><path class="cls-11" d="m794.83,498.38l-8.45-29.69-8.45,29.69v102.57h16.9v-102.57Z"/><path class="cls-11" d="m865.95,498.38l-8.45-29.69-8.45,29.69v102.57h16.9v-102.57Z"/><path class="cls-11" d="m937.89,512.3l-8.49-20.89-8.48,20.89v87.65h16.97v-87.65Z"/><path class="cls-11" d="m723.46,512.3l-8.49-20.89-8.48,20.89v87.65h16.97v-87.65Z"/><path class="cls-16" d="m706.24,534.95v65.96"/><path class="cls-16" d="m723.2,600.91v-81.8"/><path class="cls-16" d="m777.93,519.11v81.8"/><path class="cls-16" d="m794.83,502.62v98.29"/><path class="cls-16" d="m937.89,534.95v65.96"/><path class="cls-16" d="m920.92,600.91v-81.8"/><path class="cls-16" d="m849.29,502.62v98.29"/><path class="cls-16" d="m728.96,526.28h4.47"/><path class="cls-13" d="m738.57,526.33h4.46"/><path class="cls-16" d="m748.16,526.39h4.47"/><path class="cls-16" d="m757.77,526.44h4.47"/><path class="cls-16" d="m767.38,526.5h4.47"/><path class="cls-16" d="m738.57,534.9h4.46"/><path class="cls-16" d="m748.16,534.95h4.47"/><path class="cls-13" d="m757.77,535.01h4.47"/><path class="cls-16" d="m767.38,535.07h4.47"/><path class="cls-16" d="m738.57,543.47h4.46"/><path class="cls-16" d="m748.16,543.52h4.47"/><path class="cls-16" d="m757.77,543.58h4.47"/><path class="cls-13" d="m728.96,551.98h4.47"/><path class="cls-16" d="m738.57,552.03h4.46"/><path class="cls-16" d="m748.16,552.08h4.47"/><path class="cls-16" d="m757.77,552.13h4.47"/><path class="cls-16" d="m728.96,560.54h4.47"/><path class="cls-16" d="m738.57,560.59h4.46"/><path class="cls-17" d="m748.16,560.65h4.47"/><path class="cls-16" d="m757.77,560.7h4.47"/><path class="cls-16" d="m767.38,560.76h4.47"/><path class="cls-17" d="m738.57,569.16h4.46"/><path class="cls-16" d="m757.77,569.27h4.47"/><path class="cls-16" d="m767.38,569.32h4.47"/><path class="cls-16" d="m728.96,577.67h4.47"/><path class="cls-16" d="m738.57,577.72h4.46"/><path class="cls-16" d="m748.16,577.78h4.47"/><path class="cls-13" d="m757.77,577.84h4.47"/><path class="cls-16" d="m767.38,577.88h4.47"/><path class="cls-13" d="m728.96,586.23h4.47"/><path class="cls-16" d="m738.57,586.28h4.46"/><path class="cls-16" d="m748.16,586.34h4.47"/><path class="cls-16" d="m757.77,586.39h4.47"/><path class="cls-16" d="m767.38,586.45h4.47"/><path class="cls-16" d="m748.16,594.91h4.47"/><path class="cls-16" d="m757.77,594.96h4.47"/><path class="cls-13" d="m767.38,595.02h4.47"/><path class="cls-16" d="m660.58,552.91h2.47"/><path class="cls-16" d="m667.84,552.91h2.47"/><path class="cls-16" d="m675.11,552.91h2.47"/><path class="cls-16" d="m682.37,552.91h2.47"/><path class="cls-16" d="m689.63,552.91h2.47"/><path class="cls-16" d="m696.89,552.91h2.47"/><path class="cls-16" d="m660.58,558.93h2.47"/><path class="cls-16" d="m667.84,558.93h2.47"/><path class="cls-16" d="m675.11,558.93h2.47"/><path class="cls-16" d="m682.37,558.93h2.47"/><path class="cls-16" d="m689.63,558.93h2.47"/><path class="cls-16" d="m696.89,558.93h2.47"/><path class="cls-16" d="m660.58,564.95h2.47"/><path class="cls-16" d="m667.84,564.95h2.47"/><path class="cls-16" d="m675.11,564.95h2.47"/><path class="cls-16" d="m689.63,564.95h2.47"/><path class="cls-16" d="m667.84,570.96h2.47"/><path class="cls-16" d="m675.11,570.96h2.47"/><path class="cls-16" d="m689.63,570.96h2.47"/><path class="cls-16" d="m696.89,570.96h2.47"/><path class="cls-16" d="m660.58,576.98h2.47"/><path class="cls-16" d="m675.11,576.98h2.47"/><path class="cls-16" d="m682.37,576.98h2.47"/><path class="cls-16" d="m689.63,576.98h2.47"/><path class="cls-16" d="m696.89,576.98h2.47"/><path class="cls-16" d="m660.58,582.99h2.47"/><path class="cls-16" d="m675.11,582.99h2.47"/><path class="cls-16" d="m682.37,582.99h2.47"/><path class="cls-16" d="m689.63,582.99h2.47"/><path class="cls-16" d="m660.58,589h2.47"/><path class="cls-16" d="m667.84,589h2.47"/><path class="cls-16" d="m675.11,589h2.47"/><path class="cls-16" d="m682.37,589h2.47"/><path class="cls-16" d="m689.63,589h2.47"/><path class="cls-16" d="m696.89,589h2.47"/><path class="cls-16" d="m660.58,595.02h2.47"/><path class="cls-16" d="m667.84,595.02h2.47"/><path class="cls-16" d="m675.11,595.02h2.47"/><path class="cls-16" d="m689.63,595.02h2.47"/><path class="cls-13" d="m872.27,526.28h4.47"/><path class="cls-16" d="m881.88,526.33h4.47"/><path class="cls-16" d="m891.48,526.39h4.46"/><path class="cls-16" d="m872.27,534.84h4.47"/><path class="cls-13" d="m881.88,534.9h4.47"/><path class="cls-16" d="m891.48,534.95h4.46"/><path class="cls-16" d="m901.09,535.01h4.46"/><path class="cls-16" d="m872.27,543.41h4.47"/><path class="cls-16" d="m881.88,543.47h4.47"/><path class="cls-16" d="m891.48,543.52h4.46"/><path class="cls-17" d="m901.09,543.58h4.46"/><path class="cls-16" d="m872.27,551.98h4.47"/><path class="cls-17" d="m881.88,552.03h4.47"/><path class="cls-16" d="m891.48,552.08h4.46"/><path class="cls-13" d="m901.09,552.13h4.46"/><path class="cls-13" d="m910.69,552.19h4.47"/><path class="cls-16" d="m872.27,560.54h4.47"/><path class="cls-13" d="m881.88,560.59h4.47"/><path class="cls-16" d="m891.48,560.65h4.46"/><path class="cls-16" d="m901.09,560.7h4.46"/><path class="cls-16" d="m910.69,560.76h4.47"/><path class="cls-16" d="m872.27,569.1h4.47"/><path class="cls-16" d="m881.88,569.16h4.47"/><path class="cls-16" d="m901.09,569.27h4.46"/><path class="cls-13" d="m872.27,577.67h4.47"/><path class="cls-16" d="m881.88,577.72h4.47"/><path class="cls-16" d="m891.48,577.78h4.46"/><path class="cls-13" d="m901.09,577.84h4.46"/><path class="cls-13" d="m910.69,577.88h4.47"/><path class="cls-16" d="m872.27,586.23h4.47"/><path class="cls-16" d="m881.88,586.28h4.47"/><path class="cls-17" d="m901.09,586.39h4.46"/><path class="cls-17" d="m910.69,586.45h4.47"/><path class="cls-17" d="m872.27,594.79h4.47"/><path class="cls-16" d="m910.69,595.02h4.47"/><path class="cls-16" d="m822.06,603.26v8.23"/><path class="cls-16" d="m811.15,603.26v8.23"/><path class="cls-16" d="m832.97,603.26v8.23"/><path class="cls-16" d="m706.24,513.79h16.97-18.46"/><path class="cls-16" d="m778.68,496.73h16.97-18.46"/><path class="cls-16" d="m849.76,496.73h16.97-18.46"/><path class="cls-16" d="m920.92,513.79h17.71"/><path class="cls-16" d="m983.6,552.91h-2.47"/><path class="cls-16" d="m976.34,552.91h-2.47"/><path class="cls-16" d="m969.08,552.91h-2.47"/><path class="cls-16" d="m961.83,552.91h-2.48"/><path class="cls-16" d="m983.6,558.93h-2.47"/><path class="cls-16" d="m976.34,558.93h-2.47"/><path class="cls-16" d="m969.08,558.93h-2.47"/><path class="cls-16" d="m961.83,558.93h-2.48"/><path class="cls-16" d="m954.57,558.93h-2.47"/><path class="cls-16" d="m947.31,558.93h-2.47"/><path class="cls-16" d="m976.34,564.95h-2.47"/><path class="cls-16" d="m969.08,564.95h-2.47"/><path class="cls-16" d="m961.83,564.95h-2.48"/><path class="cls-16" d="m961.83,570.96h-2.48"/><path class="cls-16" d="m954.57,564.95h-2.47"/><path class="cls-16" d="m976.34,570.96h-2.47"/><path class="cls-16" d="m969.08,570.96h-2.47"/><path class="cls-16" d="m954.57,570.96h-2.47"/><path class="cls-16" d="m947.31,570.96h-2.47"/><path class="cls-16" d="m983.6,576.98h-2.47"/><path class="cls-16" d="m969.08,576.98h-2.47"/><path class="cls-16" d="m961.83,576.98h-2.48"/><path class="cls-16" d="m954.57,576.98h-2.47"/><path class="cls-16" d="m947.31,576.98h-2.47"/><path class="cls-16" d="m969.08,582.99h-2.47"/><path class="cls-16" d="m961.83,582.99h-2.48"/><path class="cls-16" d="m954.57,582.99h-2.47"/><path class="cls-16" d="m983.6,589h-2.47"/><path class="cls-16" d="m969.08,589h-2.47"/><path class="cls-16" d="m961.83,589h-2.48"/><path class="cls-16" d="m954.57,589h-2.47"/><path class="cls-16" d="m947.31,589h-2.47"/><path class="cls-16" d="m983.6,595.02h-2.47"/><path class="cls-16" d="m976.34,595.02h-2.47"/><path class="cls-16" d="m969.08,595.02h-2.47"/><path class="cls-16" d="m954.57,595.02h-2.47"/><path class="cls-16" d="m713.98,519.11v75.91"/><path class="cls-16" d="m929.4,519.11v75.91"/><path class="cls-16" d="m786.42,502.62v92.4"/><path class="cls-16" d="m857.74,502.62v92.4"/><path class="cls-2" d="m994.29,600.24h-2.99v-52.88c0-.37-.3-.67-.67-.67h-28.2v-11.75c0-.37-.3-.67-.67-.67h-23.16v-19.84h.82c.37,0,.67-.3.67-.67s-.3-.67-.67-.67h-1.02l-8.33-22.69c-.19-.52-1.06-.52-1.25,0l-8.33,22.69h-1.02c-.37,0-.67.3-.67.67s.3.67.67.67h.82v3.99h-53.39v-21.07h1c.37,0,.67-.3.67-.67s-.3-.67-.67-.67h-1.32l-8.19-29.62c-.08-.29-.34-.49-.64-.49h0c-.3,0-.56.2-.64.48l-8.35,29.62h-1.16c-.37,0-.67.3-.67.67s.3.67.67.67h1v5.14h-12.79v-2.62c0-.25-.15-.49-.37-.6l-9.48-4.61v-1.9c.08-.21.05-.45-.08-.64l-3.29-4.45c-.25-.34-.82-.34-1.07,0l-3.29,4.45c-.08.12-.13.25-.13.4v2.19l-9.38,4.56c-.23.11-.37.34-.37.6v2.62h-12.79v-5.14h1c.37,0,.67-.3.67-.67s-.3-.67-.67-.67h-1.16l-8.35-29.62c-.08-.29-.34-.48-.64-.48h0c-.3,0-.56.2-.64.49l-8.19,29.62h-1.32c-.37,0-.67.3-.67.67s.3.67.67.67h1v21.07h-53.39v-3.99h.82c.37,0,.67-.3.67-.67s-.3-.67-.67-.67h-1.02l-8.33-22.69c-.19-.52-1.06-.52-1.25,0l-8.33,22.69h-1.02c-.37,0-.67.3-.67.67s.3.67.67.67h.82v19.84h-23.16c-.37,0-.67.3-.67.67v11.75h-28.2c-.37,0-.67.3-.67.67v52.88h-2.99c-.37,0-.67.3-.67.67v17.62c0,.37.3.67.67.67h344.42c.37,0,.67-.3.67-.67v-17.62c0-.37-.3-.67-.67-.67Zm-73.33-80.47c.37,0,.67-.3.67-.67v-5.2l7.82-21.31,7.82,21.31v21.05c0,.37.3.67.67.67h23.16v11.75c0,.37.3.67.67.67h28.2v52.21h-123.11v-80.47h54.11Zm-266.77,28.26h28.2c.37,0,.67-.3.67-.67v-11.75h23.16c.37,0,.67-.3.67-.67v-21.05l7.82-21.31,7.82,21.31v5.2c0,.37.3.67.67.67h54.72c.37,0,.67-.3.67-.67v-21.96c.07-.07.12-.16.14-.26l7.69-27.81,7.82,27.72v6.38c0,.37.3.67.67.67h14.12c.37,0,.67-.3.67-.67v-2.87l9.38-4.56c.23-.11.37-.34.37-.6v-2.39l2.62-3.55,2.58,3.49v2.05c0,.13.04.24.1.34-.03.27.11.54.37.66l9.38,4.56v2.87c0,.37.3.67.67.67h14.12c.37,0,.67-.3.67-.67v-6.38l7.82-27.72,7.69,27.81c.03.1.08.19.14.26v21.71c-.03.08-.05.16-.05.25v81.14h-16.13l-5.69-1.95s.02-.06.02-.1v-17.91c0-3.47-.76-5.94-2.27-7.33-.75-.69-1.53-.96-2.07-1.06v-4.33c1.27-.94,5.94-4.9,5.94-12.87s-5.45-16.21-14.58-21.94c-5.82-3.65-7.78-4.53-8.44-4.73-.06-.02-.12-.02-.19-.02-.02,0-.03,0-.05,0-.02,0-.04,0-.05,0-.06,0-.12,0-.18.02-.66.2-2.62,1.07-8.44,4.73-9.13,5.73-14.57,13.94-14.57,21.94s4.67,11.93,5.94,12.87v4.33c-.54.1-1.32.37-2.07,1.06-1.51,1.39-2.27,3.86-2.27,7.33v17.91s.01.06.02.09l-5.72,1.96h-140.53v-52.21Zm151.6,18.62c-.23-.15-5.63-3.69-5.63-11.96,0-7.55,5.22-15.33,13.95-20.82,5.49-3.45,7.38-4.31,7.97-4.53.59.22,2.48,1.08,7.97,4.53,8.74,5.49,13.95,13.27,13.95,20.82,0,8.26-5.4,11.81-5.63,11.96-.19.12-.31.33-.31.56v5.28c0,.18.08.36.21.48.13.13.33.2.5.18.04,0,.93-.04,1.82.8.83.78,1.81,2.52,1.81,6.33v17.56l-20.12-6.88c-.14-.05-.29-.05-.43,0l-20.09,6.87v-17.55c0-3.81.99-5.54,1.81-6.33.88-.84,1.78-.8,1.81-.8.17.01.37-.05.5-.17.14-.13.21-.3.21-.49v-5.28c0-.23-.12-.44-.31-.56Zm187.83,51.22h-343.09v-16.29h2.99s0,0,0,0c0,0,0,0,0,0h141.29c.07,0,.14-.01.21-.04l27.02-9.24,27.01,9.24c.07.02.14.04.21.04h144.34v16.29Z"/><path class="cls-16" d="m874.51,611.47v-4.1"/><path class="cls-16" d="m884.45,611.47v-4.1"/><path class="cls-16" d="m894.39,611.47v-4.1"/><path class="cls-16" d="m749.74,611.48v-4.09"/><path class="cls-16" d="m759.67,611.48v-4.09"/><path class="cls-16" d="m769.61,611.48v-4.09"/><g class="cls-22"><path class="cls-7" d="m193.23,618.55s-.04-2.74-.06-4.68c0-1.16-.04-2.51-.05-4.04-.02-1.23-.04-2.59-.05-4.05-.02-1.27-.04-2.62-.06-4.05-.02-1.28-.04-2.64-.06-4.04-.02-1.3-.04-2.65-.06-4.04-.02-1.3-.05-2.66-.06-4.05-.02-1.31-.05-2.66-.07-4.05-.02-1.31-.05-2.67-.06-4.05-.02-1.31-.04-2.67-.07-4.05-.02-1.32-.05-2.67-.06-4.04-.03-1.33-.05-2.68-.07-4.05-.02-1.33-.05-2.68-.07-4.05-.02-1.33-.05-2.68-.07-4.05-.02-1.33-.05-2.68-.07-4.04-.02-1.34-.05-2.69-.08-4.05-.03-1.34-.05-2.68-.07-4.05-.03-1.34-.06-2.68-.08-4.05-.03-1.34-.05-2.68-.08-4.05-.04-1.33-.06-2.68-.08-4.04-.03-1.34-.06-2.7-.09-4.05-.02-1.34-.06-2.69-.08-4.05-.03-1.34-.05-2.69-.08-4.05-.04-1.34-.07-2.68-.1-4.04-.04-1.34-.06-2.7-.09-4.05-.04-1.34-.07-2.69-.1-4.05-.04-1.34-.07-2.69-.1-4.05-.04-1.34-.07-2.69-.1-4.05-.04-1.35-.07-2.7-.11-4.04-.04-1.35-.07-2.7-.11-4.05-.03-1.35-.07-2.7-.1-4.05,0-.17,0-.33-.02-.5-.04-1.18-.07-2.37-.1-3.55v-.06c-.04-1.32-.07-2.65-.11-3.99l-.11-4.04c-.05-1.35-.08-2.7-.12-4.05-.05-1.35-.08-2.7-.13-4.05-.02-1-.06-1.99-.08-2.99-.01-.35-.03-.7-.04-1.05-.05-1.35-.08-2.7-.12-4.05-.06-1.35-.1-2.7-.14-4.05-.05-1.35-.09-2.7-.14-4.05-.05-1.35-.1-2.7-.14-4.05-.05-1.35-.09-2.7-.15-4.04-.05-1.35-.09-2.7-.15-4.04-.05-1.36-.09-2.71-.15-4.05-.06-1.35-.1-2.71-.15-4.05-.06-1.35-.11-2.7-.16-4.04-.06-1.36-.11-2.71-.17-4.05-.05-1.36-.11-2.71-.17-4.05-.05-1.35-.11-2.71-.18-4.05-.06-1.35-.11-2.71-.18-4.05-.07-1.35-.13-2.7-.18-4.04-.06-1.37-.13-2.71-.18-4.05-.07-1.37-.14-2.71-.2-4.04-.06-1.36-.14-2.71-.2-4.05-.07-1.36-.14-2.72-.21-4.04-.07-1.37-.15-2.72-.23-4.05-.07-1.37-.16-2.72-.23-4.05-.08-1.37-.17-2.72-.24-4.05-.08-1.37-.18-2.72-.26-4.05-.09-1.38-.18-2.73-.27-4.04-.1-1.38-.19-2.73-.29-4.05-.11-1.38-.21-2.73-.32-4.04-.11-1.38-.21-2.74-.32-4.05-.12-1.39-.24-2.74-.36-4.04-.12-1.4-.26-2.75-.39-4.05-.14-1.41-.28-2.76-.43-4.05-.16-1.42-.32-2.78-.49-4.05-.11-.81-.22-1.61-.33-2.37,0,0-.45-.02-1.24,0h-1.11c-.17,0-.33,0-.52.02-.09,0-.18,0-.28.01-.13,0-.27,0-.41.02-.13,0-.26,0-.39.02-.17,0-.34.02-.52.03-.12,0-.24.02-.37.03-.17,0-.33.03-.51.04-.19,0-.37.03-.56.05-.15,0-.29.03-.44.04-.15.01-.3.03-.45.05-.24.03-.48.05-.73.07-.16.02-.32.04-.49.05-.16.02-.31.04-.47.06-.26.03-.53.07-.79.1-.17.02-.33.05-.5.06-.18.03-.37.06-.56.08-.19.03-.4.06-.59.09-.27.05-.54.08-.8.14-.17.03-.33.05-.51.09-.24.05-.49.09-.74.14-.24.05-.49.09-.74.15-.2.04-.41.08-.61.13-.18.04-.38.08-.57.13-.31.07-.61.14-.92.21-.19.05-.39.09-.59.15-.2.06-.42.1-.62.16-.31.08-.64.18-.95.26-.27.07-.54.16-.8.24-.2.07-.41.12-.61.18-.2.07-.41.13-.62.19-.27.08-.53.18-.8.27-.18.06-.35.12-.53.18-.31.11-.61.22-.91.33-.15.05-.31.11-.45.17-.34.13-.68.28-1.04.42-.11.05-.23.09-.34.14-.93.4-1.87.83-2.79,1.3-.06.03-.11.07-.17.09-.32.17-.65.33-.96.51-.07.04-.12.07-.18.11-.24.13-.47.28-.71.42-.26.15-.51.3-.77.45-.28.17-.54.35-.81.53-.2.14-.42.26-.62.4-.47.32-.94.66-1.4,1-.13.1-.26.2-.38.31-.32.25-.65.51-.97.77-.04.03-.07.05-.1.08-.38.32-.75.65-1.12.99v38.69l-10.29-4.21c-.06.11-.13.24-.19.38-.03.07-.07.15-.09.22-.03.07-.06.15-.09.23-.04.1-.07.21-.11.32-.02.06-.05.13-.07.2-.04.13-.08.26-.12.4-.02.07-.04.13-.06.19-.05.15-.08.31-.13.46-.02.07-.04.14-.06.21-.04.16-.08.32-.12.5-.02.1-.05.2-.07.31-.04.15-.06.3-.1.45-.05.24-.1.5-.15.76v.05c-.35,1.84-.68,4.13-1,6.81-.03.24-.06.48-.08.72,0,.09-.02.17-.03.27-.05.43-.09.86-.14,1.3,0,.09-.02.2-.03.3-.05.47-.09.95-.15,1.43-.02.17-.04.34-.05.51-.05.49-.09.98-.14,1.49,0,.11-.02.2-.03.32v.09c-.2,2.27-.4,4.72-.58,7.32-.02.23-.04.45-.05.68,0,.08,0,.17-.02.26-.2,2.99-.4,6.17-.58,9.53-.03.46-.05.93-.07,1.4,0,.18-.02.34-.03.52,0,.15-.02.3-.03.44,0,.16-.02.32-.03.47-.02.43-.05.85-.06,1.29,0,.13,0,.27-.02.4-2.49,49.5-2.97,130.8-3.06,167.95h0v20.25h63.18l-.03-.06Z"/><path class="cls-16" d="m182.95,344.18v-35.29"/><path class="cls-16" d="m147.91,394.35l.18,123.14"/><path class="cls-16" d="m180.06,364.79h-27.58"/><path class="cls-16" d="m179.35,356.69h-20.15"/><path class="cls-16" d="m175.04,380.98h-17.03"/><path class="cls-16" d="m181.71,389.07h-29.24"/><path class="cls-16" d="m166.14,397.17h-13.66"/><path class="cls-16" d="m182.16,397.17h-6.72"/><path class="cls-16" d="m147.74,401.88h-6.22"/><path class="cls-16" d="m143.69,409.98h-2.96"/><path class="cls-16" d="m147.74,418.09h-7.6"/><path class="cls-16" d="m143.02,426.19h-3.38"/><path class="cls-16" d="m147.74,434.29h-8.5"/><path class="cls-16" d="m147.74,442.39h-8.85"/><path class="cls-16" d="m147.74,450.49h-9.16"/><path class="cls-16" d="m147.74,458.59h-6.22"/><path class="cls-16" d="m147.74,466.69h-9.67"/><path class="cls-16" d="m147.74,474.79h-9.89"/><path class="cls-16" d="m140.66,482.89h-3.01"/><path class="cls-16" d="m147.74,491h-10.25"/><path class="cls-16" d="m147.74,499.1h-10.41"/><path class="cls-16" d="m140.15,507.2h-2.96"/><path class="cls-16" d="m142.61,515.29h-5.55"/><path class="cls-16" d="m147.74,523.4h-10.8"/><path class="cls-16" d="m147.74,531.5h-10.9"/><path class="cls-16" d="m140.66,539.61h-3.92"/><path class="cls-16" d="m147.74,547.7h-11.07"/><path class="cls-16" d="m147.74,555.81h-11.14"/><path class="cls-16" d="m142.07,563.91h-5.54"/><path class="cls-16" d="m139.58,572.02h-3.09"/><path class="cls-16" d="m142.07,580.11h-5.63"/><path class="cls-16" d="m147.74,588.21h-11.33"/><path class="cls-16" d="m182.97,413.36h-19.91"/><path class="cls-16" d="m159.04,421.45h-6.57"/><path class="cls-16" d="m183.33,421.45h-16.72"/><path class="cls-16" d="m176.62,445.74h-24.15"/><path class="cls-16" d="m184.57,453.83h-21.82"/><path class="cls-16" d="m184.84,461.93h-32.37"/><path class="cls-16" d="m167.56,470.03h-9.46"/><path class="cls-16" d="m185.09,470.03h-5.87"/><path class="cls-16" d="m185.57,486.22h-33.1"/><path class="cls-16" d="m173.15,494.3h-13.16"/><path class="cls-16" d="m185.79,494.3h-5.31"/><path class="cls-16" d="m171.49,502.41h-19.02"/><path class="cls-16" d="m186.4,518.6h-21.8"/><path class="cls-16" d="m186.59,526.69h-28.6"/><path class="cls-16" d="m186.94,542.88h-27.03"/><path class="cls-16" d="m187.11,550.98h-8.28"/><path class="cls-16" d="m187.26,559.07h-26.17"/><path class="cls-16" d="m173.3,567.16h-20.83"/><path class="cls-16" d="m159.74,575.25h-7.26"/><path class="cls-16" d="m183.08,583.35h-22.78"/><path class="cls-16" d="m187.81,591.45h-6.77"/><path class="cls-16" d="m187.94,599.55h-35.46"/><path class="cls-16" d="m160.3,607.65h-7.82"/><path class="cls-13" d="m167.19,372.88h-14.71"/><path class="cls-13" d="m182.58,405.26h-30.1"/><path class="cls-13" d="m183.67,429.55h-31.19"/><path class="cls-13" d="m183.98,437.64h-31.51"/><path class="cls-13" d="m185.34,478.12h-32.87"/><path class="cls-13" d="m186.21,510.5h-33.74"/><path class="cls-13" d="m186.76,534.79h-34.29"/><path class="cls-13" d="m165.38,550.98h-12.9"/><path class="cls-13" d="m187.55,575.25h-8.8"/><path class="cls-13" d="m173.78,591.45h-14.04"/><path class="cls-13" d="m188.05,607.65h-8.19"/><path class="cls-16" d="m148.09,596.28h-11.68"/></g><path class="cls-8" d="m135.92,618.52c11.57-34.23,7.14-72.18,7.14-72.18-7.88-82.5-65.5-120.67-65.5-120.67v192.86"/><path class="cls-16" d="m135.92,618.52c11.57-34.23,7.14-72.18,7.14-72.18-7.88-82.5-65.5-120.67-65.5-120.67v192.86"/><path class="cls-16" d="m77.56,397.8c.18.66,0,29.59,0,29.59"/><path class="cls-16" d="m77.64,525.26h62.21"/><path class="cls-16" d="m77.64,571.89h65.85"/><path class="cls-16" d="m131.8,580.58h4.9"/><path class="cls-16" d="m84.53,580.58h40.18"/><path class="cls-16" d="m130.68,587.88h5.31"/><path class="cls-16" d="m101.52,587.89h22.96"/><path class="cls-16" d="m84.53,587.89h9.91"/><path class="cls-16" d="m105.18,595.2h29.81"/><path class="cls-16" d="m84.53,595.2h12.87"/><path class="cls-16" d="m84.53,609.82h47.42"/><path class="cls-16" d="m115.25,602.5h18.41"/><path class="cls-16" d="m84.53,602.51h22.6"/><path class="cls-16" d="m84.53,533.95h50.36"/><path class="cls-16" d="m130.78,541.26h5.15"/><path class="cls-16" d="m84.53,541.26h38.24"/><path class="cls-16" d="m105.95,548.56h30.76"/><path class="cls-16" d="m84.53,548.57h10.78"/><path class="cls-16" d="m84.53,563.18h52.79"/><path class="cls-16" d="m84.71,509.25h44.22"/><path class="cls-16" d="m127.39,555.88h9.78"/><path class="cls-16" d="m84.53,555.88h27.66"/><path class="cls-16" d="m112.49,487.32h8.01"/><path class="cls-16" d="m84.17,487.32h22.19"/><path class="cls-16" d="m84.18,494.63h39.59"/><path class="cls-16" d="m119.66,501.94h6.94"/><path class="cls-16" d="m84.71,501.94h28.65"/><path class="cls-16" d="m111.03,516.56h20.14"/><path class="cls-16" d="m96.57,516.56h6.79"/><path class="cls-16" d="m85.52,516.56h5.35"/><path class="cls-16" d="m77.56,478.62h57.31l-7.81,8.61"/><g class="cls-21"><g class="cls-20"><path class="cls-11" d="m289.49,332.79v-3.69h0v-11.4s-10.99-6.61-10.99-32.14h-5.76c.02-.16.03-.32.03-.49,0-2.7-2.19-4.89-4.89-4.89s-4.89,2.19-4.89,4.89c0,.17,0,.33.03.49h-5.88c0,25.54-10.99,32.14-10.99,32.14h.11v299.28h43.23v-256.58h0v-3.69h0v-3.21h0v-3.69h0v-3.21h0v-3.69h0v-3.21h0v-3.69h0v-3.21h0Z"/><path class="cls-16" d="m289.49,332.79v-3.69h0v-11.4s-10.99-6.61-10.99-32.14h-21.25c0,25.54-10.99,32.14-10.99,32.14v299.28h43.23v-256.58h0v-3.69h0v-3.21h0v-3.69h0v-3.21h0v-3.69h0v-3.21h0v-3.69h0v-3.21h0Z"/><path class="cls-16" d="m263.09,293.32h9.31"/><path class="cls-16" d="m267.75,280.19v-19.73"/><path class="cls-16" d="m272.72,285.57c.02-.16.03-.33.03-.5,0-2.7-2.19-4.89-4.89-4.89s-4.89,2.19-4.89,4.89c0,.17,0,.33.03.5"/><path class="cls-16" d="m246.27,421.18h43.18"/><path class="cls-16" d="m247.17,530.82h41.83"/><path class="cls-16" d="m289.37,317.71h-.42c-3.1-3.21-12.9-5.45-21.2-5.45s-18.1,2.24-21.2,5.45h-.42s10.99-6.61,10.99-32.14h21.25c0,25.54,10.99,32.14,10.99,32.14Z"/><path class="cls-16" d="m262.63,341.32h10.23"/><path class="cls-16" d="m259.83,348.22h15.83"/><path class="cls-16" d="m259.83,355.12h13.01"/><path class="cls-16" d="m259.83,362.02h11.56"/><path class="cls-16" d="m259.83,368.91h15.83"/><path class="cls-16" d="m259.83,375.81h15.83"/><path class="cls-16" d="m264.25,382.72h11.42"/><path class="cls-16" d="m259.83,389.62h15.83"/><path class="cls-16" d="m259.83,396.51h8.66"/><path class="cls-16" d="m259.83,403.41h15.83"/><path class="cls-16" d="m272.17,410.31h3.49"/><path class="cls-16" d="m259.83,410.31h6.36"/><path class="cls-16" d="m259.83,431.01h15.83"/><path class="cls-16" d="m272.45,437.91h3.21"/><path class="cls-16" d="m259.83,437.91h6.36"/><path class="cls-16" d="m259.83,444.81h15.83"/><path class="cls-16" d="m259.83,451.71h8.32"/><path class="cls-16" d="m259.83,458.61h15.83"/><path class="cls-16" d="m266.14,465.5h9.52"/><path class="cls-16" d="m264.3,472.4h11.36"/><path class="cls-16" d="m259.83,479.3h15.83"/><path class="cls-16" d="m259.83,486.21h15.83"/><path class="cls-16" d="m270.89,493.1h4.78"/><path class="cls-16" d="m259.83,493.1h4.86"/><path class="cls-16" d="m262.29,500h5.57"/><path class="cls-16" d="m259.83,506.9h15.83"/><path class="cls-16" d="m259.83,513.8h15.83"/><path class="cls-16" d="m259.83,520.7h15.83"/><path class="cls-16" d="m271.17,541.39h4.5"/><path class="cls-16" d="m259.83,541.39h5.98"/><path class="cls-16" d="m271.55,548.3h4.11"/><path class="cls-16" d="m259.83,548.3h5.08"/><path class="cls-16" d="m259.83,555.2h15.83"/><path class="cls-16" d="m259.83,562.09h12.45"/><path class="cls-16" d="m246.24,330.95h4.91"/><path class="cls-16" d="m246.24,337.85h4.91"/><path class="cls-16" d="m246.24,344.75h4.91"/><path class="cls-16" d="m246.24,351.65h4.91"/><path class="cls-16" d="m284.28,330.97h4.8"/><path class="cls-16" d="m284.28,337.87h4.8"/><path class="cls-16" d="m284.28,344.77h4.8"/><path class="cls-16" d="m284.28,351.67h4.8"/><path class="cls-16" d="m252.12,404.91v-30.68"/><path class="cls-16" d="m252.12,410.96v1.23"/><path class="cls-16" d="m252.12,368.08v-1.23"/><path class="cls-16" d="m252.12,604.98v-57.04"/><path class="cls-16" d="m252.12,542v-1.23"/><path class="cls-16" d="m252.12,430.39v1.23"/><path class="cls-16" d="m252.12,437.29v1.23"/><path class="cls-16" d="m252.12,444.19v1.23"/><path class="cls-16" d="m252.12,457.99v1.23"/><path class="cls-16" d="m252.12,471.79v1.23"/><path class="cls-16" d="m252.12,478.68v1.23"/><path class="cls-16" d="m252.12,492.49v1.23"/><path class="cls-16" d="m252.12,499.39v1.22"/><path class="cls-16" d="m252.12,513.18v1.23"/><path class="cls-16" d="m252.12,520.09v1.23"/><path class="cls-16" d="m283.31,405.14v-30.68"/><path class="cls-16" d="m283.31,411.19v1.23"/><path class="cls-16" d="m283.31,368.31v-1.23"/><path class="cls-16" d="m283.31,604.98v-56.8"/><path class="cls-16" d="m283.31,542.24v-1.23"/><path class="cls-16" d="m283.31,430.63v1.22"/><path class="cls-16" d="m283.31,444.43v1.23"/><path class="cls-16" d="m283.31,458.22v1.23"/><path class="cls-16" d="m283.31,451.1v1.22"/><path class="cls-16" d="m283.31,464.89v1.23"/><path class="cls-16" d="m283.31,472.02v1.23"/><path class="cls-16" d="m283.31,478.93v1.22"/><path class="cls-16" d="m283.31,492.72v1.23"/><path class="cls-16" d="m283.31,499.62v1.23"/><path class="cls-16" d="m283.31,513.42v1.23"/><path class="cls-16" d="m283.31,520.32v1.23"/></g><path class="cls-16" d="m340.34,553.65h-50.47"/></g><path class="cls-8" d="m305.5,364.27h-16.27v23.72h16.27v-23.72Z"/><path class="cls-8" d="m340.57,340.87h-16.27v23.72h16.27v-23.72Z"/><path class="cls-8" d="m324.16,317.14h-17.65l3.69-59.67h8.88l5.08,59.67Z"/><path class="cls-8" d="m305.5,317.14h-16.27v23.72h16.27v-23.72Z"/><path class="cls-8" d="m340.57,387.99h-16.27v23.72h16.27v-23.72Z"/><path class="cls-8" d="m305.49,421.81h-16.24v100.11h16.24v-100.11Z"/><path class="cls-8" d="m340.55,521.93h-10.75s-3.29-5.38-5.49-5.38v-94.73h16.24v100.11h0Z"/><path class="cls-16" d="m297.31,521.92h35.3m0,10.09h-35.3m43.45,21.16v-2.7h-.03v-19.16h.02v-8.68l-.02-207.17-7.68-20.89-.49-1.35-.49-1.35-12.5-34.02h-9.16l-12.51,34.02-.49,1.35-.49,1.35-7.68,20.87v72.36h-.07v2.7h.07v132.13l-.07,95.93h51.55v-21.8h.03v-2.7h-.03v-19.1h.03v-2.7h-.03v-19.1h.03,0Z"/><path class="cls-16" d="m314.98,257.47v-28.45"/><path class="cls-16" d="m340.73,316.82h-51.51"/><path class="cls-16" d="m289.23,340.54h16.27"/><path class="cls-16" d="m340.73,340.54h-16.17"/><path class="cls-16" d="m305.49,364.27h-16.26"/><path class="cls-16" d="m340.73,364.27h-16.17"/><path class="cls-16" d="m305.49,387.99h-16.24"/><path class="cls-16" d="m340.73,387.99h-16.17"/><path class="cls-16" d="m340.73,411.72h-51.47"/><path class="cls-16" d="m340.73,421.81h-51.47"/><path class="cls-16" d="m289.74,521.93h50.97"/><path class="cls-16" d="m289.74,532.01h50.97"/><path class="cls-16" d="m340.49,482.72h-50.92"/><path class="cls-16" d="m340.49,502.57h-50.96"/><path class="cls-16" d="m289.24,462.84h51.2"/><path class="cls-16" d="m289.24,442.38h51.2"/><path class="cls-16" d="m305.49,521.93v-100.11"/><path class="cls-16" d="m324.55,411.72v-94.9l-4.99-58.96h-9.16l-4.91,58.96v94.9"/><path class="cls-16" d="m305.49,618.56v-86.55"/><path class="cls-16" d="m324.55,521.93v-100.11"/><path class="cls-16" d="m324.55,618.56v-86.55"/><path class="cls-16" d="m310.96,406.48h8.12"/><path class="cls-16" d="m310.96,400.09h8.12"/><path class="cls-16" d="m310.96,393.7h8.12"/><path class="cls-16" d="m310.96,387.31h8.12"/><path class="cls-16" d="m310.96,380.91h8.12"/><path class="cls-16" d="m310.96,374.53h8.12"/><path class="cls-16" d="m310.96,368.14h8.12"/><path class="cls-16" d="m310.96,361.74h8.12"/><path class="cls-16" d="m310.96,355.35h8.12"/><path class="cls-16" d="m310.96,348.96h8.12"/><path class="cls-16" d="m310.96,342.56h8.12"/><path class="cls-16" d="m310.96,336.18h8.12"/><path class="cls-16" d="m310.96,329.79h8.12"/><path class="cls-16" d="m310.96,323.39h8.12"/><path class="cls-16" d="m297.3,521.93v-100.11"/><path class="cls-16" d="m297.3,616.82v-84.81"/><path class="cls-16" d="m332.6,521.93v-100.11"/><path class="cls-16" d="m332.6,618.56v-86.54"/><path class="cls-16" d="m317.32,515.77h7.23"/><path class="cls-16" d="m305.49,509.01h19.06"/><path class="cls-16" d="m313.36,495.84h3.46"/><path class="cls-16" d="m305.49,489.08h18.75"/><path class="cls-16" d="m305.49,476.26h11.33"/><path class="cls-16" d="m305.49,469.51h18.75"/><path class="cls-16" d="m305.59,455.57h18.75"/><path class="cls-16" d="m305.59,448.82h18.75"/><path class="cls-16" d="m305.49,435.16h11.33"/><path class="cls-16" d="m305.49,428.4h18.75"/><path class="cls-16" d="m297.4,293.22h35.15"/><rect class="cls-6" x="376.56" y="320.53" width="63.83" height="295.27"/><path class="cls-5" d="m417.76,600.86h8.19"/><path class="cls-5" d="m390.96,600.86h17.85"/><path class="cls-5" d="m420.08,592.28h5.88"/><path class="cls-5" d="m398.09,592.28h11.39"/><path class="cls-5" d="m399.35,583.71h26.61"/><path class="cls-5" d="m390.96,575.14h35"/><path class="cls-5" d="m390.96,566.56h24.89"/><path class="cls-5" d="m390.96,557.99h35"/><path class="cls-5" d="m412.46,549.41h13.5"/><path class="cls-5" d="m390.96,549.41h11.19"/><path class="cls-5" d="m390.96,540.83h35"/><path class="cls-5" d="m403.59,532.26h22.36"/><path class="cls-5" d="m390.96,532.26h4.43"/><path class="cls-5" d="m420.08,523.68h5.88"/><path class="cls-5" d="m390.96,523.68h19.33"/><path class="cls-5" d="m390.96,515.1h35"/><path class="cls-5" d="m390.96,506.53h35"/><path class="cls-5" d="m390.96,497.96h35"/><path class="cls-5" d="m400.31,489.38h25.65"/><path class="cls-5" d="m390.96,480.81h28.26"/><path class="cls-5" d="m390.96,472.23h35"/><path class="cls-5" d="m390.96,463.65h35"/><path class="cls-5" d="m390.96,455.08h35"/><path class="cls-5" d="m390.96,446.5h35"/><path class="cls-5" d="m417.48,437.93h8.48"/><path class="cls-5" d="m390.96,437.93h15.82"/><path class="cls-5" d="m390.96,429.35h35"/><path class="cls-5" d="m390.96,420.78h35"/><path class="cls-5" d="m390.96,412.21h28.17"/><path class="cls-5" d="m390.96,403.63h35"/><path class="cls-5" d="m390.96,395.05h35"/><path class="cls-5" d="m390.96,386.48h35"/><path class="cls-5" d="m399.53,377.9h26.43"/><path class="cls-5" d="m406.1,369.32h19.86"/><path class="cls-5" d="m390.96,369.32h5.6"/><path class="cls-5" d="m390.96,360.75h35"/><path class="cls-5" d="m390.96,352.17h35"/><path class="cls-5" d="m390.96,343.59h35"/><path class="cls-5" d="m390.96,335.03h35"/><path class="cls-5" d="m390.96,326.45h35"/><path class="cls-4" d="m433.41,330.74h2.01"/><path class="cls-4" d="m433.41,605.16h2.01"/><path class="cls-4" d="m433.41,339.32h2.01"/><path class="cls-4" d="m433.41,347.9h2.01"/><path class="cls-4" d="m433.41,356.47h2.01"/><path class="cls-4" d="m433.41,365.05h2.01"/><path class="cls-4" d="m433.41,373.63h2.01"/><path class="cls-4" d="m433.41,382.2h2.01"/><path class="cls-4" d="m433.41,390.78h2.01"/><path class="cls-4" d="m433.41,416.5h2.01"/><path class="cls-4" d="m433.41,433.65h2.01"/><path class="cls-4" d="m433.41,450.8h2.01"/><path class="cls-4" d="m433.41,459.38h2.01"/><path class="cls-4" d="m433.41,467.96h2.01"/><path class="cls-4" d="m433.41,485.11h2.01"/><path class="cls-4" d="m433.41,502.25h2.01"/><path class="cls-4" d="m433.41,510.83h2.01"/><path class="cls-4" d="m433.41,519.41h2.01"/><path class="cls-4" d="m433.41,527.98h2.01"/><path class="cls-4" d="m433.41,545.13h2.01"/><path class="cls-4" d="m433.41,553.71h2.01"/><path class="cls-4" d="m433.41,562.29h2.01"/><path class="cls-4" d="m433.41,570.86h2.01"/><path class="cls-4" d="m433.41,579.43h2.01"/><path class="cls-4" d="m433.41,588.01h2.01"/><path class="cls-4" d="m433.41,596.58h2.01"/><path class="cls-4" d="m381.57,330.74h2.01"/><path class="cls-4" d="m381.57,339.32h2.01"/><path class="cls-4" d="m381.57,356.47h2.01"/><path class="cls-4" d="m381.57,365.05h2.01"/><path class="cls-4" d="m381.57,373.63h2.01"/><path class="cls-4" d="m381.57,382.2h2.01"/><path class="cls-4" d="m381.57,390.78h2.01"/><path class="cls-4" d="m381.57,416.5h2.01"/><path class="cls-4" d="m381.57,425.07h2.01"/><path class="cls-4" d="m381.57,433.65h2.01"/><path class="cls-4" d="m381.57,442.23h2.01"/><path class="cls-4" d="m381.57,476.53h2.01"/><path class="cls-4" d="m381.57,485.11h2.01"/><path class="cls-4" d="m381.57,493.69h2.01"/><path class="cls-4" d="m381.57,502.25h2.01"/><path class="cls-4" d="m381.57,519.41h2.01"/><path class="cls-4" d="m381.57,527.98h2.01"/><path class="cls-4" d="m381.57,553.71h2.01"/><path class="cls-4" d="m381.57,562.29h2.01"/><path class="cls-4" d="m381.57,570.86h2.01"/><path class="cls-4" d="m381.57,579.43h2.01"/><path class="cls-8" d="m457.87,618.56H198.69c.06-.08.11-.17.17-.26.49-.76,1.14-1.75,1.95-2.93.27-.4.56-.81.87-1.26.21-.3.43-.61.66-.93.31-.44.66-.92.99-1.39.4-.56.81-1.13,1.26-1.73.47-.66.98-1.33,1.5-2.03.53-.7,1.08-1.42,1.65-2.17.64-.83,1.31-1.69,2.01-2.58.38-.49.77-.98,1.18-1.49,1.09-1.35,2.25-2.76,3.47-4.19,1.12-1.32,2.3-2.68,3.53-4.06,1.23-1.38,2.5-2.78,3.83-4.19,1.26-1.34,2.56-2.7,3.91-4.06,1.39-1.39,2.8-2.79,4.26-4.19,1.42-1.36,2.88-2.71,4.38-4.06,1.57-1.4,3.18-2.8,4.83-4.19.81-.68,1.64-1.37,2.49-2.04.83-.67,1.69-1.36,2.54-2.02,1.82-1.42,3.71-2.83,5.63-4.2,1.95-1.39,3.94-2.74,5.99-4.06.63-.41,1.26-.8,1.9-1.18,1.65-1.04,3.32-2.04,5.02-3.01.8-.46,1.64-.91,2.47-1.36,1.73-.93,3.47-1.85,5.26-2.71,3.16-1.53,6.4-2.93,9.72-4.19,1.29-.49,9.03-3.34,19.54-8.3v-7.04h11.5c5.86-4.21,9.92-7.43,9.92-7.43,0,0,2.21,9.75,10.84,22.77.9,1.36,1.89,2.76,2.93,4.19.98,1.33,2.02,2.68,3.14,4.06,1.12,1.38,2.31,2.78,3.58,4.19,1.2,1.34,2.48,2.7,3.82,4.06,1.37,1.4,2.82,2.79,4.34,4.2,1.48,1.35,3.03,2.71,4.66,4.06,1.69,1.41,3.45,2.81,5.31,4.19,1.82,1.37,3.74,2.73,5.73,4.06.9.6,1.82,1.2,2.76,1.8,1.27.8,2.53,1.61,3.79,2.39,2.27,1.41,4.5,2.76,6.72,4.06,2.47,1.46,4.91,2.86,7.32,4.19,2.57,1.42,5.09,2.79,7.58,4.06,2.88,1.49,5.7,2.89,8.47,4.19,3.09,1.46,6.12,2.82,9.08,4.06,3.68,1.54,7.26,2.94,10.74,4.19,4.41,1.58,8.67,2.93,12.79,4.06,5.38,1.48,10.5,2.6,15.41,3.41,2.3.38,5.27.76,7.76,1.04h0Z"/><path class="cls-14" d="m388.41,594.84h-59.68"/><path class="cls-14" d="m268.7,594.84h-51.93"/><path class="cls-14" d="m224.08,586.88h150.54"/><path class="cls-14" d="m423.93,610.75h-69.92"/><path class="cls-14" d="m404.24,602.81h-64.58"/><path class="cls-14" d="m252.22,602.81h-42.11"/><path class="cls-14" d="m232.2,578.93h130.13"/><path class="cls-14" d="m241.39,570.97h110.84"/><path class="cls-14" d="m252.42,563.01h91.49"/><path class="cls-19" d="m457.87,618.56H198.69c.06-.08.11-.17.17-.26.49-.76,1.14-1.75,1.95-2.93.27-.4.56-.81.87-1.26.21-.3.43-.61.66-.93.31-.44.66-.92.99-1.39.4-.56.81-1.13,1.26-1.73.47-.66.98-1.33,1.5-2.03.53-.7,1.08-1.43,1.65-2.17.64-.83,1.31-1.69,2.01-2.58.38-.49.77-.98,1.18-1.49,1.09-1.35,2.25-2.76,3.47-4.19,1.12-1.32,2.3-2.68,3.53-4.06,1.23-1.38,2.5-2.78,3.83-4.19,1.26-1.34,2.56-2.7,3.91-4.06,1.39-1.39,2.8-2.79,4.26-4.19,1.42-1.36,2.88-2.71,4.38-4.06,1.57-1.4,3.18-2.8,4.83-4.19.81-.68,1.64-1.37,2.49-2.04.83-.67,1.69-1.36,2.54-2.02,1.82-1.42,3.71-2.83,5.63-4.2,1.95-1.39,3.94-2.74,5.99-4.06.63-.41,1.26-.8,1.9-1.18,1.65-1.04,3.32-2.03,5.02-3.01.8-.46,1.64-.91,2.47-1.36,1.73-.93,3.47-1.85,5.26-2.71,3.16-1.53,6.4-2.93,9.72-4.19,1.29-.49,9.03-3.34,19.54-8.3v-7.04h11.5c5.86-4.21,9.92-7.43,9.92-7.43,0,0,2.21,9.75,10.84,22.77.9,1.36,1.89,2.76,2.93,4.19.98,1.33,2.02,2.68,3.14,4.06,1.12,1.38,2.31,2.78,3.58,4.19,1.2,1.34,2.48,2.7,3.82,4.06,1.37,1.4,2.82,2.79,4.34,4.2,1.48,1.35,3.03,2.71,4.66,4.06,1.69,1.41,3.45,2.81,5.31,4.19,1.82,1.37,3.74,2.73,5.73,4.06.9.6,1.82,1.2,2.76,1.8,1.27.81,2.53,1.61,3.79,2.39,2.27,1.41,4.5,2.76,6.72,4.06,2.47,1.46,4.91,2.86,7.32,4.19,2.57,1.42,5.09,2.79,7.58,4.06,2.88,1.49,5.7,2.89,8.47,4.19,3.09,1.46,6.12,2.82,9.08,4.06,3.68,1.54,7.26,2.94,10.74,4.19,4.41,1.58,8.67,2.93,12.79,4.06,5.38,1.48,10.5,2.6,15.41,3.41,2.3.38,5.27.76,7.76,1.04h0Z"/><path class="cls-3" d="m380.96,618.56c-35.09-4.03-61.04-31.68-61.04-31.68h-3.31c-49.71-.77-74.35,22.36-85.95,31.68h150.29Z"/><path class="cls-19" d="m319.91,618.18v-79.06l-20.02.07"/><path class="cls-19" d="m319.91,527.47v13.47"/><path class="cls-18" d="m293.45,614.11h2.68"/><path class="cls-17" d="m311.86,614.1h2.68"/><path class="cls-17" d="m256.63,607.4h2.69"/><path class="cls-17" d="m265.84,607.4h2.68"/><path class="cls-17" d="m284.25,607.4h2.68"/><path class="cls-17" d="m293.45,607.4h2.68"/><path class="cls-17" d="m302.65,607.4h2.68"/><path class="cls-17" d="m247.81,614.11h2.68"/><path class="cls-17" d="m265.84,614.11h2.68"/><path class="cls-17" d="m275.04,614.11h2.68"/><path class="cls-17" d="m293.45,614.11h2.68"/><path class="cls-17" d="m302.65,614.11h2.68"/><path class="cls-17" d="m275.04,600.7h2.68"/><path class="cls-17" d="m284.25,600.7h2.68"/><path class="cls-17" d="m293.45,600.7h2.68"/><path class="cls-17" d="m293.45,593.98h2.68"/><path class="cls-17" d="m302.65,593.98h2.68"/><path class="cls-17" d="m334.28,607.4h2.68"/><path class="cls-17" d="m333.91,614.11h2.68"/><path class="cls-17" d="m325.08,614.11h2.68"/><path class="cls-17" d="m343.11,614.11h2.68"/><path class="cls-17" d="m325.08,600.7h2.68"/><path class="cls-17" d="m311.86,607.4h2.68"/><path class="cls-17" d="m311.86,600.7h2.68"/><path class="cls-17" d="m311.86,594h2.68"/><path class="cls-11" d="m568.82,484.59v-114.15h-11.71v-109.96h-11.4l-.31-63.73h-11.71v-96.29h-11.71l-.48,63.38h-11.23v45.76h-11.71l1.01,130.73h-12.72v113.92h-11.71v91.51h-11.71v72.83h117.13v-133.99h-11.71Z"/><path class="cls-16" d="m521.97,100.46h11.71v96.29"/><path class="cls-16" d="m510.25,313.4v-149.56h11.71"/><path class="cls-16" d="m510.25,340.32v-12.67"/><path class="cls-16" d="m475.11,618.58v-164.34h11.71"/><path class="cls-16" d="m486.83,454.24v-113.92"/><path class="cls-16" d="m580.53,484.59h-11.71v133.99h11.71v-133.99Z"/><path class="cls-16" d="m475.11,545.75v72.83"/><path class="cls-16" d="m486.83,618.58v-278.26h11.71"/><path class="cls-16" d="m498.54,359.48v-149.88h11.71"/><path class="cls-16" d="m498.54,409.98v-39.54"/><path class="cls-17" d="m498.54,459.48v-29.5"/><path class="cls-17" d="m510.25,469.84v148.74"/><path class="cls-16" d="m510.25,401.09v53.14"/><path class="cls-17" d="m510.25,340.32v46.4"/><path class="cls-16" d="m521.97,408.87v163.83"/><path class="cls-16" d="m521.97,370.44v47.25"/><path class="cls-16" d="m521.97,302.86v56.61"/><path class="cls-17" d="m521.97,274.68v13.22"/><path class="cls-16" d="m521.97.67v253.09"/><path class="cls-16" d="m533.68,501.97v28.61"/><path class="cls-17" d="m533.68,391.65v98.27"/><path class="cls-17" d="m533.68,220.39v160.22"/><path class="cls-16" d="m545.39,324.17v-127.41,94.04-94.04h-11.71v12.84"/><path class="cls-16" d="m545.39,421.93v-76.24"/><path class="cls-16" d="m545.39,458.19v-23.55"/><path class="cls-16" d="m545.39,517.76v-45.16"/><path class="cls-16" d="m557.1,394.06v-23.62h11.71v114.15"/><path class="cls-16" d="m557.1,469.84v-65.17"/><path class="cls-17" d="m557.1,618.58v-133.99"/><path class="cls-16" d="m568.82,484.59v133.99"/><path class="cls-16" d="m475.11,545.75h-11.71v72.83h11.71v-72.83Z"/><path class="cls-16" d="m557.1,370.44v-109.96h-11.4"/><path class="cls-16" d="m498.54,472.75v67.39"/><path class="cls-16" d="m545.71,536.42v43.49"/></g></svg>