<svg width="239" height="92" viewBox="0 0 239 92" fill="none" xmlns="http://www.w3.org/2000/svg">
<g clip-path="url(#clip0_316_2618)">
<path d="M63.3681 0H71.6604C71.6647 10.539 71.6517 21.0854 71.6661 31.6229C71.1077 31.0023 70.382 30.5262 69.6692 30.1027C68.0055 29.1346 66.1255 28.6468 64.2122 28.6001C61.413 28.5796 58.6124 28.6118 55.8132 28.584C55.8132 22.366 55.8118 16.1481 55.8132 9.93008C55.819 9.04659 55.7815 8.18209 55.8695 7.30153C56.0383 5.06872 57.2402 2.93521 59.0164 1.6078C60.2731 0.643995 61.7997 0.106602 63.3681 0Z" fill="#4D75FE"/>
<path d="M87.6201 0H95.9701C97.9093 0.122666 99.7822 0.925834 101.166 2.31751C102.672 3.78949 103.583 5.90694 103.561 8.03168C103.563 14.8703 103.563 21.7104 103.561 28.5504C102.564 28.5738 101.566 28.5869 100.569 28.5972C98.6466 28.7038 96.7204 28.6556 94.797 28.7169C92.145 28.8454 89.5738 29.945 87.6244 31.766C87.6129 21.1774 87.6245 10.5887 87.6201 0Z" fill="#4D75FE"/>
<path d="M111.507 0H131.859C131.875 5.62802 131.863 11.2648 131.863 16.8943C131.001 17.3616 130.213 17.9399 129.556 18.6788C128.245 20.1143 127.493 22.0404 127.467 23.9943C127.448 25.5115 127.454 27.0303 127.444 28.5475C122.133 28.5592 116.82 28.5504 111.509 28.5519C111.506 19.0351 111.509 9.51681 111.507 0Z" fill="#4D75FE"/>
<path d="M135.426 0H136.609C141.812 0.626471 146.768 2.98048 150.51 6.69988C153.957 10.0673 156.355 14.5081 157.287 19.2644C157.91 22.3982 157.905 25.6459 157.278 28.7782C156.377 33.3651 154.111 37.6481 150.857 40.966C147.526 44.3933 143.165 46.7736 138.501 47.6994C137.136 47.9711 135.726 48.1536 134.332 48.1142C124.076 48.1171 113.819 48.1054 103.563 48.12C103.561 53.4983 103.564 58.8752 103.561 64.2535C103.59 67.6531 102.456 71.0497 100.453 73.7747C97.5474 77.773 92.7902 80.2905 87.8714 80.2891C82.4361 80.2935 77.0022 80.292 71.5669 80.2905C69.1198 80.3227 66.6582 79.6962 64.4766 78.5864C61.3816 77.018 58.8161 74.3924 57.3055 71.2396C56.2363 69.0272 55.6938 66.571 55.7096 64.1074C55.7096 53.472 55.7082 42.8352 55.7096 32.1997C58.301 32.1997 60.8939 32.1997 63.4853 32.1997C64.4059 32.1939 65.3207 32.3209 66.1922 32.6247C68.5383 33.4162 70.4443 35.3745 71.1932 37.7591C71.4702 38.6309 71.5828 39.5378 71.5784 40.4519C71.5784 45.7572 71.577 51.0654 71.5799 56.3722C71.5755 57.3082 71.7285 58.2282 72.0474 59.1073C72.8352 61.3168 74.6128 63.1115 76.7944 63.9103C78.2099 64.4564 79.7437 64.4404 81.2342 64.3849C82.5328 64.455 83.8285 64.4156 85.1271 64.4039C85.9567 64.4185 86.7907 64.4258 87.6175 64.3659C87.6204 56.8322 87.6175 49.2999 87.6189 41.7662C87.629 40.614 87.5482 39.5392 87.8224 38.406C88.3966 35.8125 90.3142 33.6206 92.7772 32.7079C93.6992 32.3575 94.6761 32.191 95.6615 32.1997C109.08 32.1997 122.499 32.1997 135.919 32.1997C138.463 32.0815 140.867 30.5963 142.196 28.4044C143.282 26.6506 143.646 24.4733 143.206 22.4507C142.776 20.3961 141.509 18.5634 139.773 17.4171C138.48 16.5482 136.971 16.1276 135.426 16.0897C135.423 10.7274 135.426 5.3637 135.424 0.00146031L135.426 0Z" fill="#022791"/>
<path d="M183.038 0H186.45C184.421 2.14373 183.254 5.05996 183.263 8.03168C183.259 14.8703 183.264 21.7104 183.261 28.5504C181.908 28.5928 180.557 28.565 179.207 28.6497C177.715 28.6746 176.223 28.6775 174.733 28.7125C172.036 28.8118 169.453 29.929 167.459 31.7573C167.46 26.5265 167.458 21.2942 167.46 16.0634C167.469 13.9211 167.885 11.7905 168.72 9.82202C170.086 6.55385 172.547 3.78511 175.608 2.05757C177.875 0.766661 180.441 0.0730153 183.038 0Z" fill="#4D75FE"/>
<path d="M194.626 0.00146031H199.951C202.821 0.172316 205.622 1.0558 208.017 2.67674C211.073 4.72263 213.398 7.84184 214.455 11.3962C214.936 12.9602 215.136 14.5753 215.146 16.2094C215.151 21.1248 215.145 26.0446 215.148 30.9599C215.154 32.391 215.136 33.8922 214.836 35.2956C214.341 37.8774 213.185 40.3278 211.538 42.3591C208.575 46.0551 203.97 48.2733 199.266 48.2689C188.664 48.2762 178.061 48.2719 167.459 48.2704C167.458 45.6652 167.461 43.0586 167.458 40.4519C167.452 39.4808 167.567 38.5185 167.889 37.6C168.655 35.3321 170.45 33.495 172.677 32.6831C173.573 32.356 174.502 32.1968 175.454 32.2012C180.696 32.2012 185.94 32.1983 191.182 32.2012C192.118 32.2304 193.033 32.2362 193.945 31.9895C196.079 31.4696 197.957 30.0312 199.025 28.089C199.957 26.414 200.286 24.3696 199.872 22.4887C199.471 20.5129 198.283 18.6934 196.644 17.5456C195.317 16.5993 193.675 16.059 192.047 16.0999C190.423 16.1057 188.796 16.1028 187.172 16.1028C187.17 13.3633 187.169 10.6223 187.172 7.88273C187.157 5.44548 188.4 3.06226 190.323 1.61364C191.564 0.654217 193.073 0.115364 194.626 0V0.00146031Z" fill="#022791"/>
<path d="M230.689 0H238.972V70.6788C238.963 72.0296 239.055 73.2679 238.67 74.588C237.996 77.0282 236.148 79.0551 233.799 79.9284C232.859 80.2876 231.864 80.4453 230.861 80.4395C228.287 80.4395 225.711 80.4395 223.137 80.438C223.137 56.3006 223.136 32.1632 223.137 8.02584C223.123 5.93322 223.957 3.86397 225.424 2.3876C226.808 0.949199 228.714 0.110983 230.689 0Z" fill="#4D75FE"/>
<path d="M47.7896 63.5233C47.7868 47.752 47.7896 31.9807 47.7896 16.2094C47.7666 14.1562 47.4246 12.1176 46.67 10.2061C45.4074 6.94959 43.0613 4.15457 40.1077 2.34087C37.8222 0.927294 35.189 0.137269 32.5153 0.0102221L32.4028 0.00438092L32.2657 0H0V80.257C10.5806 80.2555 21.1627 80.2599 31.7419 80.254C34.6335 80.2788 37.5062 79.5049 39.9923 78.0095C43.0527 76.1768 45.4738 73.2898 46.7363 69.9224C47.5184 67.8794 47.8214 65.7079 47.7896 63.5233ZM31.247 59.2183C30.4145 61.4745 28.5647 63.259 26.3008 63.9994C24.6083 64.601 22.571 64.3338 20.7775 64.3995C20.1051 64.4418 19.437 64.3455 18.7647 64.4024C17.7864 64.4725 16.8312 64.3688 15.8544 64.3659C15.8529 48.2806 15.8529 32.1939 15.8544 16.1086C18.5064 16.094 21.1584 16.1086 23.8104 16.1013C25.236 16.0926 26.6558 16.4635 27.8837 17.198C29.4275 18.1122 30.6237 19.5506 31.2513 21.2431C31.6885 22.3982 31.8011 23.5985 31.7766 24.8252C31.7737 35.0955 31.7737 45.3673 31.7766 55.6376C31.8025 56.8658 31.6842 58.0647 31.247 59.2183Z" fill="#4D75FE"/>
<path d="M155.498 42.9519C158.425 47.4862 159.79 53.0105 159.256 58.4063C158.858 62.7712 157.238 66.9973 154.651 70.5093C152.039 74.0666 148.443 76.866 144.376 78.5074C141.51 79.6771 138.43 80.2613 135.342 80.2554C130.099 80.2583 124.854 80.2569 119.61 80.2554C118.049 80.2656 116.495 79.8232 115.184 78.9616C112.956 77.5232 111.523 74.9691 111.509 72.2865C111.506 65.4815 111.507 58.6706 111.509 51.8656C116.867 51.8642 122.225 51.8642 127.584 51.8656C127.591 53.415 127.574 54.9658 127.592 56.5152C127.647 59.2737 129.197 61.8921 131.565 63.2516C133.088 64.1424 134.902 64.5031 136.645 64.2505C138.715 63.9715 140.669 62.8179 141.913 61.1181C142.953 59.725 143.533 57.9697 143.504 56.2217C143.5 54.3861 142.832 52.6089 141.694 51.188C146.617 50.0358 151.199 47.5285 154.809 43.9464C154.905 43.8325 154.948 43.6821 154.941 43.4951C155.12 43.3068 155.304 43.1242 155.498 42.9519Z" fill="#4D75FE"/>
<path d="M215.145 43.6816C215.151 55.0661 215.145 66.4492 215.148 77.8337C215.142 78.7172 215.164 79.5978 215.129 80.4813C212.438 80.4711 209.744 80.493 207.053 80.4696C204.699 80.4229 202.418 79.2941 200.957 77.4219C199.841 76.0157 199.223 74.2341 199.211 72.4306C199.214 65.5803 199.213 58.73 199.213 51.8797L199.439 51.8564C199.457 51.9454 199.474 52.0331 199.491 52.1221C201.664 52.1046 203.824 51.6884 205.866 50.9349C209.473 49.606 212.648 47.1688 214.897 44.0218C214.979 43.9094 215.061 43.7955 215.145 43.6816Z" fill="#4D75FE"/>
<path d="M131.112 51.7408C132.712 51.7467 134.315 51.7291 135.915 51.7481C137.99 51.8474 139.761 53.6772 139.788 55.783C139.888 57.4565 138.938 59.0818 137.488 59.8674C135.953 60.7159 133.957 60.5757 132.611 59.4206C131.678 58.6393 131.125 57.4477 131.112 56.2225C131.106 54.7286 131.112 53.2347 131.112 51.7408Z" fill="#022791"/>
<path d="M167.459 51.8654C172.762 51.864 178.063 51.864 183.365 51.864V71.4087C183.361 72.152 183.399 72.8705 183.263 73.5977C182.895 75.7852 181.589 77.7683 179.744 78.9643C178.432 79.8303 176.878 80.2669 175.314 80.2552C172.695 80.2581 170.078 80.2567 167.459 80.2552C167.459 70.791 167.458 61.3282 167.459 51.8654Z" fill="#4D75FE"/>
<path d="M69.1486 83.5768C70.4356 83.5578 71.7227 83.5782 73.0097 83.5665C73.6417 83.5578 74.2622 83.6133 74.8537 83.8528C76.0513 84.3171 76.9878 85.3437 77.3514 86.5894C77.8116 88.0541 77.3716 89.7246 76.2923 90.795C75.6459 91.4522 74.8032 91.8509 73.9043 91.9998H72.7962C71.766 91.8523 70.8079 91.3397 70.1355 90.5322C69.4877 89.7655 69.137 88.7784 69.1428 87.7693C69.1428 86.3718 69.1327 84.9743 69.1486 83.5768Z" fill="#022791"/>
<path d="M80.9341 83.5698C82.3351 83.5698 83.7361 83.5654 85.1372 83.5698C86.4689 83.561 87.7762 84.2371 88.5424 85.3411C89.6563 86.8992 89.5639 89.0941 88.3144 90.5427C87.6391 91.3503 86.6738 91.8584 85.6407 91.9986H84.5672C82.6208 91.7256 81.0365 90.0579 80.9485 88.0544C80.911 86.5619 80.9427 85.0637 80.9341 83.5698Z" fill="#022791"/>
</g>
<defs>
<clipPath id="clip0_316_2618">
<rect width="238.976" height="92" fill="white"/>
</clipPath>
</defs>
</svg>
