<svg width="56" height="109" viewBox="0 0 56 109" fill="none" xmlns="http://www.w3.org/2000/svg">
<path fill-rule="evenodd" clip-rule="evenodd" d="M53.2578 30.0543L53.7212 30.4662C54.9414 31.5577 55.0496 33.4473 53.9581 34.6676L49.2109 39.9862C48.4489 40.8409 47.2956 41.1344 46.2555 40.8718C46.1783 40.9387 46.132 40.9799 46.132 40.9799L38.6766 59.0571L35.1389 107.936H1.2793L12.933 57.3323L19.5645 24.3855C20.2133 21.1779 22.0411 18.3255 24.6875 16.3999L45.8642 1C45.8642 1 50.5496 4.24371 44.7109 10.0824C41.2149 13.5784 36.8025 17.7849 33.8214 20.6012C33.3271 21.0698 33.9037 21.8627 34.5061 21.5331L41.4827 17.6973L43.192 16.5183C44.7778 15.4268 46.9712 15.8335 48.0628 17.4193C48.8711 18.5984 48.8556 20.107 48.1451 21.2551C49.4889 20.4777 51.2395 20.6476 52.3825 21.7906C53.6028 23.0108 53.7161 24.9313 52.743 26.2957C52.7367 26.3082 52.7307 26.3204 52.7248 26.3325C52.7013 26.3804 52.679 26.4256 52.6503 26.4708L50.7864 29.3592C51.6463 29.2151 52.5628 29.4313 53.2578 30.0543Z" fill="white"/>
<path d="M53.7212 30.4662L54.0546 30.0935L54.0534 30.0925L53.7212 30.4662ZM53.2578 30.0543L52.9241 30.4266L52.9256 30.428L53.2578 30.0543ZM53.9581 34.6676L53.5854 34.3342L53.585 34.3346L53.9581 34.6676ZM49.2109 39.9862L48.8379 39.6533L48.8377 39.6535L49.2109 39.9862ZM46.2555 40.8718L46.3779 40.387L46.1251 40.3232L45.9281 40.4939L46.2555 40.8718ZM46.132 40.9799L45.7997 40.6063L45.7137 40.6828L45.6697 40.7893L46.132 40.9799ZM38.6766 59.0571L38.2144 58.8665L38.1837 58.9408L38.1779 59.021L38.6766 59.0571ZM35.1389 107.936V108.436H35.604L35.6376 107.972L35.1389 107.936ZM1.2793 107.936L0.79205 107.824L0.651063 108.436H1.2793V107.936ZM12.933 57.3323L13.4204 57.4446L13.4231 57.431L12.933 57.3323ZM19.5645 24.3855L19.0745 24.2864L19.0744 24.2869L19.5645 24.3855ZM24.6875 16.3999L24.3934 15.9955L24.3933 15.9956L24.6875 16.3999ZM45.8642 1L46.1488 0.588904L45.8571 0.386944L45.5702 0.595619L45.8642 1ZM44.7109 10.0824L44.3574 9.72882L44.3574 9.72882L44.7109 10.0824ZM33.8214 20.6012L33.478 20.2378L33.4774 20.2384L33.8214 20.6012ZM34.5061 21.5331L34.7461 21.9718L34.747 21.9713L34.5061 21.5331ZM41.4827 17.6973L41.7236 18.1355L41.7458 18.1233L41.7666 18.1089L41.4827 17.6973ZM43.192 16.5183L42.9085 16.1064L42.9081 16.1067L43.192 16.5183ZM48.0628 17.4193L48.4751 17.1366L48.4746 17.1358L48.0628 17.4193ZM48.1451 21.2551L47.7199 20.992L46.6724 22.6848L48.3955 21.6879L48.1451 21.2551ZM52.3825 21.7906L52.029 22.1441L52.029 22.1441L52.3825 21.7906ZM52.743 26.2957L52.3359 26.0054L52.3132 26.0372L52.2958 26.0721L52.743 26.2957ZM52.7248 26.3325L52.2761 26.1119L52.2761 26.112L52.7248 26.3325ZM52.6503 26.4708L53.0704 26.7419L53.0721 26.7392L52.6503 26.4708ZM50.7864 29.3592L50.3663 29.0881L49.7523 30.0396L50.8691 29.8523L50.7864 29.3592ZM54.0534 30.0925L53.59 29.6806L52.9256 30.428L53.389 30.8399L54.0534 30.0925ZM54.3307 35.0009C55.6069 33.5742 55.4799 31.3686 54.0545 30.0935L53.3878 30.8388C54.403 31.7469 54.4922 33.3205 53.5854 34.3342L54.3307 35.0009ZM49.5839 40.3192L54.3311 35.0005L53.585 34.3346L48.8379 39.6533L49.5839 40.3192ZM46.1331 41.3566C47.3398 41.6612 48.6888 41.3231 49.5841 40.319L48.8377 39.6535C48.209 40.3587 47.2513 40.6075 46.3779 40.387L46.1331 41.3566ZM46.132 40.9799C46.4643 41.3535 46.4642 41.3535 46.4642 41.3535C46.4642 41.3535 46.4642 41.3536 46.4642 41.3536C46.4642 41.3536 46.4642 41.3536 46.4642 41.3536C46.4642 41.3536 46.4642 41.3536 46.4642 41.3536C46.4642 41.3536 46.4642 41.3536 46.4643 41.3535C46.4643 41.3535 46.4644 41.3534 46.4645 41.3533C46.4648 41.353 46.4653 41.3526 46.4659 41.3521C46.4671 41.351 46.4691 41.3493 46.4717 41.347C46.4769 41.3424 46.4847 41.3355 46.4949 41.3265C46.5153 41.3085 46.5454 41.2823 46.583 41.2496L45.9281 40.4939C45.8885 40.5282 45.8567 40.5561 45.8347 40.5754C45.8237 40.5851 45.8151 40.5927 45.8092 40.5979C45.8062 40.6005 45.8039 40.6025 45.8024 40.6039C45.8016 40.6047 45.8009 40.6052 45.8005 40.6056C45.8003 40.6058 45.8001 40.6059 45.8 40.6061C45.7999 40.6061 45.7998 40.6062 45.7998 40.6062C45.7998 40.6062 45.7998 40.6062 45.7997 40.6063C45.7997 40.6063 45.7997 40.6063 45.7997 40.6063C45.7997 40.6063 45.7997 40.6063 45.7997 40.6063C45.7997 40.6063 45.7997 40.6063 46.132 40.9799ZM39.1389 59.2477L46.5942 41.1706L45.6697 40.7893L38.2144 58.8665L39.1389 59.2477ZM35.6376 107.972L39.1753 59.0932L38.1779 59.021L34.6402 107.9L35.6376 107.972ZM1.2793 108.436H35.1389V107.436H1.2793V108.436ZM12.4457 57.2201L0.79205 107.824L1.76654 108.048L13.4202 57.4445L12.4457 57.2201ZM19.0744 24.2869L12.4428 57.2336L13.4231 57.431L20.0547 24.4842L19.0744 24.2869ZM24.3933 15.9956C21.6454 17.995 19.7479 20.9564 19.0745 24.2864L20.0546 24.4847C20.6786 21.3994 22.4367 18.656 24.9817 16.8042L24.3933 15.9956ZM45.5702 0.595619L24.3934 15.9955L24.9816 16.8043L46.1583 1.40438L45.5702 0.595619ZM45.0645 10.4359C48.0693 7.43108 48.4641 4.98093 47.9577 3.21396C47.7112 2.35363 47.2626 1.70187 46.8804 1.26767C46.6886 1.04987 46.5112 0.884097 46.3797 0.771251C46.3138 0.714739 46.2591 0.671233 46.2194 0.640856C46.1995 0.62566 46.1834 0.613725 46.1715 0.605067C46.1656 0.600737 46.1607 0.597224 46.1569 0.59453C46.155 0.593183 46.1533 0.592041 46.152 0.591103C46.1513 0.590634 46.1507 0.590217 46.1502 0.58985C46.1499 0.589667 46.1496 0.58943 46.1495 0.589339C46.1491 0.589115 46.1488 0.588904 45.8642 1C45.5796 1.4111 45.5794 1.41091 45.5791 1.41074C45.579 1.41069 45.5788 1.41053 45.5787 1.41045C45.5785 1.41028 45.5783 1.41016 45.5782 1.41008C45.578 1.40994 45.578 1.40998 45.5784 1.41022C45.579 1.41069 45.5807 1.41191 45.5835 1.4139C45.5889 1.41787 45.5984 1.42486 45.6115 1.43485C45.6376 1.45484 45.6778 1.48673 45.7286 1.53031C45.8305 1.61766 45.9735 1.75092 46.1298 1.92844C46.4436 2.2849 46.8014 2.80899 46.9964 3.48942C47.3731 4.80397 47.1912 6.89501 44.3574 9.72882L45.0645 10.4359ZM34.1647 20.9647C37.1465 18.1478 41.5632 13.9372 45.0645 10.4359L44.3574 9.72882C40.8667 13.2195 36.4585 17.422 33.478 20.2378L34.1647 20.9647ZM34.2662 21.0945C34.2434 21.107 34.2288 21.1099 34.2223 21.1107C34.2155 21.1115 34.2105 21.111 34.2056 21.1097C34.1944 21.1066 34.1741 21.096 34.1561 21.0713C34.138 21.0466 34.1341 21.0242 34.1346 21.0132C34.1348 21.0084 34.1358 21.004 34.1383 20.9986C34.1407 20.9933 34.1474 20.9812 34.1653 20.9641L33.4774 20.2384C32.5511 21.1164 33.6381 22.5779 34.7461 21.9718L34.2662 21.0945ZM41.2418 17.2592L34.2652 21.095L34.747 21.9713L41.7236 18.1355L41.2418 17.2592ZM42.9081 16.1067L41.1988 17.2858L41.7666 18.1089L43.4759 16.9299L42.9081 16.1067ZM48.4746 17.1358C47.2268 15.3229 44.7222 14.8581 42.9085 16.1064L43.4755 16.9302C44.8335 15.9955 46.7157 16.3441 47.6509 17.7028L48.4746 17.1358ZM48.5703 21.5182C49.3804 20.2091 49.4003 18.4861 48.4751 17.1366L47.6504 17.702C48.3419 18.7107 48.3308 20.0048 47.7199 20.992L48.5703 21.5182ZM52.7361 21.437C51.4252 20.1261 49.4249 19.9371 47.8947 20.8223L48.3955 21.6879C49.553 21.0183 51.0539 21.169 52.029 22.1441L52.7361 21.437ZM53.15 26.5861C54.2602 25.0294 54.1348 22.8358 52.7361 21.437L52.029 22.1441C53.0708 23.1859 53.1719 24.8332 52.3359 26.0054L53.15 26.5861ZM53.1735 26.5531C53.1796 26.5407 53.1848 26.53 53.1902 26.5193L52.2958 26.0721C52.2886 26.0864 52.2819 26.1002 52.2761 26.1119L53.1735 26.5531ZM53.0721 26.7392C53.1179 26.6672 53.1516 26.5976 53.1735 26.5531L52.2761 26.112C52.2509 26.1632 52.2401 26.184 52.2284 26.2024L53.0721 26.7392ZM51.2065 29.6303L53.0704 26.7419L52.2301 26.1997L50.3663 29.0881L51.2065 29.6303ZM53.5916 29.682C52.7727 28.948 51.699 28.6992 50.7037 28.8661L50.8691 29.8523C51.5935 29.7309 52.3528 29.9146 52.9241 30.4266L53.5916 29.682Z" fill="#022791"/>
<path d="M17.8706 32.8139L36.576 25.5388C36.576 25.5388 40.5044 30.842 34.12 33.8849C27.7356 36.9278 26.953 37.2213 26.953 37.2213C26.953 37.2213 31.9576 43.8013 25.3826 51.2619" fill="white"/>
<path d="M17.8706 32.8139L36.576 25.5388C36.576 25.5388 40.5044 30.842 34.12 33.8849C27.7356 36.9278 26.953 37.2213 26.953 37.2213C26.953 37.2213 31.9576 43.8013 25.3826 51.2619" stroke="#022791" stroke-miterlimit="10" stroke-linecap="round"/>
<path d="M17.8706 32.8139L36.576 25.5388C36.576 25.5388 40.5044 30.842 34.12 33.8849C27.7356 36.9278 26.953 37.2213 26.953 37.2213C26.953 37.2213 31.9576 43.8013 25.3826 51.2619" fill="white"/>
<path d="M17.8706 32.8139L36.576 25.5388C36.576 25.5388 40.5044 30.842 34.12 33.8849C27.7356 36.9278 26.953 37.2213 26.953 37.2213C26.953 37.2213 31.9576 43.8013 25.3826 51.2619" stroke="#022791" stroke-miterlimit="10" stroke-linecap="round"/>
</svg>
