<svg width="78" height="78" viewBox="0 0 78 78" fill="none" xmlns="http://www.w3.org/2000/svg">
<path d="M38.9811 77.9621C60.5097 77.9621 77.9621 60.5097 77.9621 38.9811C77.9621 17.4524 60.5097 0 38.9811 0C17.4525 0 0 17.4524 0 38.9811C0 60.5097 17.4525 77.9621 38.9811 77.9621Z" fill="#4D75FE"/>
<path d="M52.9868 32.5863C53.7849 31.6853 54.2895 30.5165 54.2895 29.2242V25.028C54.2895 24.5388 53.893 24.1372 53.3988 24.1372H49.9182C46.7209 21.7585 42.9262 20.4919 38.9154 20.4919C34.9045 20.4919 31.1151 21.7585 27.9125 24.1372H24.432C23.9429 24.1372 23.5413 24.5337 23.5413 25.028V29.2242C23.5413 30.5217 24.0407 31.6904 24.8439 32.5863C22.496 32.8643 20.6631 34.8466 20.6631 37.2717V43.687C20.6631 44.1761 21.0596 44.5777 21.5539 44.5777H35.7077C36.1969 44.5777 36.5984 44.1813 36.5984 43.687V37.2717C36.5984 34.8466 34.7655 32.8695 32.4177 32.5863C33.2157 31.6853 33.7203 30.5165 33.7203 29.2242V25.028C33.7203 24.5388 33.3238 24.1372 32.8295 24.1372H31.2438C33.5967 22.9118 36.202 22.2682 38.9154 22.2682C41.6288 22.2682 44.234 22.9118 46.587 24.1372H45.0012C44.512 24.1372 44.1156 24.5337 44.1156 25.028V29.2242C44.1156 30.5217 44.615 31.6904 45.4182 32.5863C43.0704 32.8643 41.2375 34.8466 41.2375 37.2717V43.687C41.2375 44.1761 41.6339 44.5777 42.1282 44.5777H56.282C56.7712 44.5777 57.1728 44.1813 57.1728 43.687V37.2717C57.1728 34.8466 55.3398 32.8695 52.992 32.5863H52.9868ZM34.8273 37.2717V42.7962H22.4497V37.2717C22.4497 35.6344 23.7781 34.306 25.4154 34.306H31.8616C33.4989 34.306 34.8273 35.6344 34.8273 37.2717ZM31.944 29.2242C31.944 31.0468 30.4612 32.5297 28.6385 32.5297C26.8159 32.5297 25.333 31.0468 25.333 29.2242V25.9187H31.9491V29.2242H31.944ZM45.897 25.9187H52.5132V29.2242C52.5132 31.0468 51.0303 32.5297 49.2077 32.5297C47.385 32.5297 45.9022 31.0468 45.9022 29.2242V25.9187H45.897ZM55.3913 42.8014H43.0137V37.2768C43.0137 35.6395 44.3421 34.3111 45.9794 34.3111H52.4256C54.0629 34.3111 55.3913 35.6395 55.3913 37.2768V42.8014Z" fill="#FDFDFD"/>
<path d="M46.937 53.6087C46.5405 53.8249 46.1338 54.0309 45.727 54.2111C45.2791 54.4119 45.0783 54.937 45.2791 55.385C45.4284 55.7145 45.7527 55.9101 46.0926 55.9101C46.211 55.9101 46.3346 55.8844 46.453 55.8329C46.9009 55.6321 47.3489 55.4107 47.7917 55.1687C48.2242 54.9319 48.3786 54.3913 48.1417 53.9639C47.9049 53.5314 47.3643 53.377 46.937 53.6138V53.6087Z" fill="#FDFDFD"/>
<path d="M50.9998 50.4834C50.6085 50.8953 50.1863 51.2918 49.7538 51.6625C49.3831 51.9817 49.3368 52.5429 49.656 52.9136C49.8311 53.1196 50.0782 53.2225 50.3305 53.2225C50.5364 53.2225 50.7373 53.1505 50.9072 53.0115C51.386 52.5996 51.8493 52.1619 52.2818 51.7088C52.6217 51.3536 52.6062 50.7923 52.251 50.4525C51.8957 50.1127 51.3345 50.1282 50.9947 50.4834H50.9998Z" fill="#FDFDFD"/>
<path d="M54.9634 46.2201C54.5258 45.9987 53.9903 46.1686 53.7689 46.6011C53.563 47.0027 53.3364 47.3992 53.1047 47.775C52.8473 48.1921 52.9709 48.7379 53.3879 49.0004C53.5321 49.0931 53.6969 49.1343 53.8565 49.1343C54.1551 49.1343 54.4434 48.985 54.6133 48.7173C54.8759 48.3002 55.123 47.8626 55.3496 47.4198C55.5761 46.9821 55.4011 46.4467 54.9686 46.2201H54.9634Z" fill="#FDFDFD"/>
<path d="M32.1135 54.211C31.7119 54.0308 31.3051 53.83 30.9035 53.6086C30.4761 53.3718 29.9355 53.5314 29.6987 53.9587C29.4618 54.3912 29.6215 54.9267 30.0488 55.1635C30.4916 55.4055 30.9395 55.6269 31.3875 55.8277C31.5059 55.8792 31.6294 55.9049 31.7479 55.9049C32.0877 55.9049 32.4121 55.7093 32.5614 55.3798C32.7622 54.9318 32.5614 54.4067 32.1135 54.2059V54.211Z" fill="#FDFDFD"/>
<path d="M26.8354 50.4834C26.4956 50.1281 25.9343 50.1178 25.5791 50.4525C25.2238 50.7923 25.2135 51.3535 25.5482 51.7088C25.9859 52.1619 26.4492 52.6047 26.9229 53.0114C27.0928 53.1556 27.2936 53.2225 27.4995 53.2225C27.7518 53.2225 27.999 53.1144 28.1741 52.9136C28.4933 52.5377 28.4469 51.9817 28.0762 51.6624C27.6437 51.2917 27.2215 50.8953 26.8302 50.4834H26.8354Z" fill="#FDFDFD"/>
<path d="M24.0711 46.6064C23.8497 46.1688 23.3092 45.9988 22.8767 46.2202C22.439 46.4468 22.2691 46.9771 22.4905 47.4147C22.7171 47.8524 22.9642 48.29 23.2268 48.7122C23.3967 48.98 23.685 49.1293 23.9785 49.1293C24.1381 49.1293 24.3029 49.0881 24.447 48.9954C24.8641 48.738 24.9928 48.187 24.7302 47.77C24.4934 47.3838 24.2668 46.9925 24.066 46.5961L24.0711 46.6064Z" fill="#FDFDFD"/>
<path d="M62.9804 38.9604C62.9804 25.6921 52.1886 14.9004 38.9204 14.9004C25.6521 14.9004 14.8604 25.6921 14.8604 38.9604C14.8604 49.2424 21.3066 58.2682 30.9553 61.6509V66.5782C30.9553 67.0673 31.3517 67.4689 31.8409 67.4689H45.9947C46.4838 67.4689 46.8854 67.0725 46.8854 66.5782V61.6509C56.5342 58.2682 62.9804 49.2424 62.9804 38.9604ZM45.1092 65.6926H32.7316V60.168C32.7316 58.5359 34.06 57.2024 35.6973 57.2024H42.1435C43.7808 57.2024 45.1092 58.5308 45.1092 60.168V65.6926ZM42.2258 52.1206C42.2258 53.9432 40.743 55.4261 38.9204 55.4261C37.0977 55.4261 35.6149 53.9432 35.6149 52.1206V48.8151H42.231V52.1206H42.2258ZM46.87 59.787C46.8597 59.6841 46.8288 59.5811 46.8134 59.4781C46.7928 59.3391 46.7722 59.2001 46.7413 59.0611C46.7001 58.9015 46.6486 58.747 46.5971 58.5925C46.5507 58.4638 46.5044 58.33 46.4478 58.2064C46.3809 58.0571 46.2985 57.918 46.2161 57.779C46.1491 57.6606 46.0823 57.5422 46.005 57.4341C45.9123 57.3002 45.8042 57.1818 45.6961 57.0582C45.6085 56.9552 45.5262 56.8523 45.4284 56.7596C45.31 56.6412 45.1761 56.5433 45.0422 56.4404C44.9392 56.3631 44.8465 56.2756 44.7384 56.2035C44.5891 56.1057 44.4347 56.0336 44.2751 55.9512C44.1669 55.8946 44.064 55.8328 43.9507 55.7865C43.7653 55.7092 43.5748 55.6629 43.3791 55.6114C43.2761 55.5857 43.1835 55.5445 43.0805 55.5239C42.9621 55.4981 42.8334 55.4981 42.7098 55.4827C43.5079 54.5868 44.0073 53.4129 44.0073 52.1206V47.9244C44.0073 47.4352 43.6109 47.0388 43.1166 47.0388H34.7241C34.235 47.0388 33.8334 47.4352 33.8334 47.9244V52.1206C33.8334 53.4129 34.3329 54.5817 35.1309 55.4827C35.0073 55.4981 34.8786 55.4981 34.7602 55.5239C34.6572 55.5445 34.5645 55.5857 34.4615 55.6114C34.2659 55.6629 34.0703 55.7144 33.89 55.7916C33.7768 55.838 33.6738 55.9049 33.5657 55.9564C33.4061 56.0388 33.2464 56.1108 33.1023 56.2087C32.9942 56.2808 32.8963 56.3631 32.7985 56.4455C32.6646 56.5485 32.5308 56.6463 32.4124 56.7647C32.3145 56.8574 32.2321 56.9604 32.1446 57.0634C32.0365 57.1869 31.9284 57.3053 31.8357 57.4392C31.7585 57.5473 31.6915 57.6658 31.6246 57.7842C31.5422 57.9232 31.4599 58.0622 31.3929 58.2115C31.3363 58.3351 31.2899 58.469 31.2436 58.5977C31.187 58.7521 31.1355 58.9066 31.0994 59.0662C31.0685 59.2052 31.0479 59.3442 31.0273 59.4833C31.0119 59.5862 30.981 59.6841 30.9707 59.7922C22.3466 56.5124 16.6366 48.2899 16.6366 38.9707C16.6366 26.6807 26.6355 16.687 38.9204 16.687C51.2052 16.687 61.2041 26.6858 61.2041 38.9707C61.2041 48.2899 55.4941 56.5124 46.87 59.7922V59.787Z" fill="#FDFDFD"/>
</svg>
