<svg width="387" height="292" viewBox="0 0 387 292" fill="none" xmlns="http://www.w3.org/2000/svg">
<path d="M32.2544 71L19 83.4116L32.2544 95.8232" stroke="#4D75FE" stroke-width="3" stroke-linecap="round" stroke-linejoin="round"/>
<path d="M50.04 161.973L63.2988 149.562L50.04 137.15" stroke="#4D75FE" stroke-width="3" stroke-linecap="round" stroke-linejoin="round"/>
<path d="M50.04 83.4116H129.075" stroke="#96D5ED" stroke-width="3" stroke-miterlimit="10" stroke-linecap="round"/>
<path d="M50.04 95.823H129.075" stroke="#96D5ED" stroke-width="3" stroke-miterlimit="10" stroke-linecap="round"/>
<path d="M50.04 109.49H129.075" stroke="#96D5ED" stroke-width="3" stroke-miterlimit="10" stroke-linecap="round"/>
<path d="M385.603 24.9478V283.306C385.603 287.176 382.709 290.326 379.154 290.326H7.54539C3.99005 290.326 1.09661 287.176 1.09661 283.306V24.9478H385.603ZM386.35 24.1345H0.349609V283.301C0.349609 287.624 3.56927 291.135 7.54539 291.135H379.154C383.125 291.135 386.35 287.629 386.35 283.301V24.1345Z" fill="#022791"/>
<path d="M6.37353 12.1345H379.626C383.144 12.1345 386 15.1602 386 18.8859V36.1345H0V18.8859C0 15.1602 2.85629 12.1345 6.37353 12.1345Z" fill="#435ED8"/>
<path d="M159.402 127.301L216.924 129.669L219.611 154.455L155.932 151.278L159.402 127.301Z" fill="#022791"/>
<path d="M167.761 99.1886H163.926C163.926 99.1886 163.689 88.8653 155.93 78.2847C148.171 67.704 139.232 60.6451 139.938 44.4215C140.643 28.1978 155.224 27.2556 162.515 24.429C169.805 21.6023 178.507 12.6693 180.623 9.61091C182.739 6.55256 187.739 2.78884 193.119 4.90497C198.499 7.0211 201.553 11.2534 201.553 11.2534C201.553 11.2534 205.553 7.43299 208.843 4.28712C212.133 1.14124 217.545 -1.21172 222.482 0.672714C227.42 2.55715 232.357 7.14466 229.536 18.6057C226.714 30.072 223.296 38.346 223.296 38.346L178.265 99.1886H167.756H167.761Z" fill="#4D75FE"/>
<path d="M229.25 64.666C226.603 36.7032 213.906 19.0791 212.315 18.6106L159.695 36.1884L164.128 60.65C159.598 60.6654 155.932 64.3468 155.932 68.8777C155.932 73.4086 159.618 77.1105 164.164 77.1105C165.122 77.1105 166.039 76.9406 166.898 76.6368L167.727 88.3708C168.175 94.7191 167.882 101.098 166.852 107.38L160.993 143.179L217.876 149.1L214.967 137.881L205.838 107.601C205.838 107.601 211.79 107.977 220.785 105.248C229.78 102.519 231.896 92.6339 229.25 64.666Z" fill="white" stroke="#022791" stroke-width="0.622997" stroke-miterlimit="10" stroke-linecap="round"/>
<path d="M160.4 57.8235L164.128 60.6451L168.159 68.1674H170.744C170.744 68.1674 168.391 52.4122 172.86 45.3533C177.329 38.2996 186.03 36.4151 191.673 37.1205C197.316 37.8259 215.193 38.0627 221.304 26.7715C227.421 15.4855 215.424 13.3643 215.424 13.3643L151.22 35.2361L153.336 53.3442L160.39 57.8133L160.4 57.8235Z" fill="#4D75FE"/>
<path d="M198.501 58.3642C200.506 58.3642 202.131 56.7391 202.131 54.7343C202.131 52.7296 200.506 51.1045 198.501 51.1045C196.496 51.1045 194.871 52.7296 194.871 54.7343C194.871 56.7391 196.496 58.3642 198.501 58.3642Z" fill="#022791"/>
<path d="M223.05 54.7343C225.055 54.7343 226.68 53.1092 226.68 51.1045C226.68 49.0997 225.055 47.4746 223.05 47.4746C221.045 47.4746 219.42 49.0997 219.42 51.1045C219.42 53.1092 221.045 54.7343 223.05 54.7343Z" fill="#022791"/>
<path d="M212.428 49.8689L220.903 64.9186C222.133 67.1068 221.031 69.8717 218.627 70.608L213.823 72.0805" stroke="#022791" stroke-width="0.622997" stroke-miterlimit="10" stroke-linecap="round"/>
<path d="M202.13 74.9895C202.13 74.9895 203.546 82.9855 216.922 82.9855" stroke="#022791" stroke-width="0.622997" stroke-miterlimit="10" stroke-linecap="round"/>
<path d="M159.401 127.301C159.401 127.301 190.308 147.133 216.922 129.669H246.182C246.182 129.669 265.233 130.235 274.228 146.093C283.222 161.951 312.869 225.729 312.869 225.729L275.17 248.553L257.438 209.443L266.468 291.586H119.585C117.814 291.586 116.579 289.82 117.191 288.157L145.345 219.453L99.7988 217.151L112.31 154.362C112.31 154.362 115.456 142.633 126.423 138.489C134.244 135.528 159.406 127.301 159.406 127.301H159.401Z" fill="#4D75FE"/>
<path d="M356.695 105.897L356.231 105.485C355.536 104.862 354.62 104.646 353.76 104.79L355.624 101.902C355.66 101.845 355.686 101.789 355.716 101.727C356.69 100.362 356.576 98.442 355.356 97.2217C354.213 96.0787 352.462 95.9088 351.119 96.6863C351.829 95.5381 351.845 94.0295 351.036 92.8505C349.945 91.2647 347.751 90.8579 346.166 91.9494L344.456 93.1285L337.48 96.9643C336.877 97.2938 336.301 96.5009 336.795 96.0324C339.776 93.216 344.188 89.0095 347.684 85.5135C353.523 79.6749 348.838 76.4312 348.838 76.4312L327.661 91.831C325.015 93.7567 323.187 96.609 322.538 99.8167L315.906 132.763L300.218 200.886L294.802 189.389C287.902 203.188 258.781 212.425 258.781 212.425L275.165 248.558C289.071 277.201 331.919 268.963 334.215 237.211L341.65 134.488L349.105 116.411C349.105 116.411 349.152 116.37 349.229 116.303C350.269 116.566 351.422 116.272 352.184 115.417L356.932 110.099C358.023 108.878 357.915 106.989 356.695 105.897Z" fill="white" stroke="#022791" stroke-width="0.622997" stroke-miterlimit="10" stroke-linecap="round"/>
<path d="M320.844 108.245L339.55 100.97C339.55 100.97 343.478 106.273 337.094 109.316C330.709 112.359 329.927 112.652 329.927 112.652C329.927 112.652 334.931 119.233 328.356 126.693" fill="white"/>
<path d="M320.844 108.245L339.55 100.97C339.55 100.97 343.478 106.273 337.094 109.316C330.709 112.359 329.927 112.652 329.927 112.652C329.927 112.652 334.931 119.233 328.356 126.693" stroke="#022791" stroke-width="0.622997" stroke-miterlimit="10" stroke-linecap="round"/>
<path d="M302.057 192.895L300.219 200.881L294.803 189.384L291.894 237.437L302.057 192.895Z" fill="#022791" stroke="#022791" stroke-width="0.622997" stroke-miterlimit="10" stroke-linecap="round"/>
<path d="M257.438 209.449L250.771 190.851C250.451 189.961 249.128 190.203 249.149 191.15L250.982 291.597H266.469L257.438 209.454V209.449Z" fill="#1D4FC6"/>
<path d="M215.589 140.301C219.033 138.133 221.186 135.662 222.504 133.592" stroke="white" stroke-width="0.622997" stroke-miterlimit="10" stroke-linecap="round"/>
<path d="M207.825 143.725C208.948 143.396 209.993 143.03 210.976 142.634" stroke="white" stroke-width="0.622997" stroke-miterlimit="10" stroke-linecap="round"/>
<path d="M169.662 141.099C175.66 143.663 183.414 145.625 193.12 145.625C197.738 145.625 201.687 145.182 205.065 144.441" stroke="white" stroke-width="0.622997" stroke-miterlimit="10" stroke-linecap="round"/>
<path d="M163.608 138C164.623 138.612 165.719 139.22 166.893 139.807" stroke="white" stroke-width="0.622997" stroke-miterlimit="10" stroke-linecap="round"/>
<path d="M160.849 136.203C161.219 136.465 161.605 136.728 162.002 136.99" stroke="white" stroke-width="0.622997" stroke-miterlimit="10" stroke-linecap="round"/>
<path d="M153.196 129.128C153.196 129.128 154.844 131.44 158.381 134.329" stroke="white" stroke-width="0.622997" stroke-miterlimit="10" stroke-linecap="round"/>
<path d="M142.786 228.396L153.882 177.156L152.656 228.396H142.786Z" fill="#022791"/>
<path d="M205.316 107.272C205.316 107.272 196.883 107.504 190.262 104.332C189.314 103.879 188.377 104.981 188.959 105.856L207.819 134.231L212.978 132.063L205.311 107.272H205.316Z" fill="#96D5ED"/>
<path d="M341.208 272.309H210.93L230.366 161.936H360.645L341.208 272.309Z" fill="#022791"/>
<path d="M223.132 272.309H210.93L230.366 161.936H242.569L223.132 272.309Z" fill="#96D5ED"/>
<path d="M101.714 216.935L97.4101 245.222C95.3403 258.835 108.382 269.833 121.45 265.493L198.639 243.312C201.039 242.514 203.546 242.097 206.074 242.066C210.981 242.009 219.533 241.479 222.462 238.621C226.659 234.533 231.318 231.094 231.318 231.094L237.79 232.345L240.612 238.621C240.612 238.621 241.616 243.672 246.631 242.782L244.324 229.498C244.144 228.468 243.511 227.577 242.599 227.073L237.847 223.273C237.528 223.016 237.708 222.506 238.115 222.506H242.167L249.257 227.685C254.065 231.326 257.263 231.176 258.952 229.544L259.719 228.463L248.824 217.893L255.095 222.156C258.128 224.22 262.036 224.519 265.346 222.933L265.851 222.691C266.17 222.537 266.216 222.099 265.933 221.883L250.307 210.097L257.783 210.777C260.172 210.993 262.463 209.778 263.621 207.678L264.404 206.262C264.718 205.69 264.347 204.985 263.699 204.913L233.563 201.72C229.377 201.278 225.181 202.431 221.809 204.949L200.277 221.038C199.262 221.8 198.063 222.274 196.801 222.418L143.27 227.593L145.093 219.169L101.72 216.919L101.714 216.935Z" fill="white" stroke="#022791" stroke-width="0.566361" stroke-miterlimit="10" stroke-linecap="round"/>
<path d="M14.2406 29.0061C16.6775 29.0061 18.6531 27.0306 18.6531 24.5936C18.6531 22.1567 16.6775 20.1812 14.2406 20.1812C11.8037 20.1812 9.82812 22.1567 9.82812 24.5936C9.82812 27.0306 11.8037 29.0061 14.2406 29.0061Z" fill="#96D5ED"/>
<path d="M27.2982 29.0061C29.7351 29.0061 31.7107 27.0306 31.7107 24.5936C31.7107 22.1567 29.7351 20.1812 27.2982 20.1812C24.8613 20.1812 22.8857 22.1567 22.8857 24.5936C22.8857 27.0306 24.8613 29.0061 27.2982 29.0061Z" fill="#96D5ED"/>
<path d="M40.35 29.0061C42.7869 29.0061 44.7624 27.0306 44.7624 24.5936C44.7624 22.1567 42.7869 20.1812 40.35 20.1812C37.913 20.1812 35.9375 22.1567 35.9375 24.5936C35.9375 27.0306 37.913 29.0061 40.35 29.0061Z" fill="#96D5ED"/>
</svg>
