<svg width="273" height="283" viewBox="0 0 273 283" fill="none" xmlns="http://www.w3.org/2000/svg">
<path d="M271.643 39.3671V276.245C271.643 279.221 269.223 281.641 266.247 281.641H6.02497C3.049 281.641 0.629107 279.221 0.629107 276.245V39.3671H271.643ZM272.266 38.7441H0.000976562V276.245C0.000976562 279.571 2.69888 282.264 6.01981 282.264H266.242C269.568 282.264 272.261 279.566 272.261 276.245V38.7441H272.266Z" fill="#022791"/>
<path d="M10.6939 17.418H261.571C267.471 17.418 272.265 22.2114 272.265 28.1119V39.0787H0V28.1119C0 22.2114 4.79348 17.418 10.6939 17.418Z" fill="#022791"/>
<path d="M17.1871 32.0261C18.5684 30.6447 18.5684 28.4051 17.1871 27.0237C15.8057 25.6424 13.5661 25.6424 12.1848 27.0237C10.8034 28.4051 10.8034 30.6447 12.1848 32.0261C13.5661 33.4074 15.8057 33.4074 17.1871 32.0261Z" fill="#96D5ED"/>
<path d="M47.5015 32.0275C48.8829 30.6462 48.8829 28.4066 47.5015 27.0252C46.1202 25.6439 43.8806 25.6439 42.4992 27.0252C41.1179 28.4066 41.1179 30.6462 42.4992 32.0275C43.8806 33.4089 46.1202 33.4089 47.5015 32.0275Z" fill="#96D5ED"/>
<path d="M32.7202 30.3314C33.1689 28.4301 31.9914 26.525 30.0901 26.0763C28.1888 25.6275 26.2837 26.805 25.835 28.7063C25.3862 30.6076 26.5638 32.5127 28.465 32.9615C30.3663 33.4102 32.2714 32.2327 32.7202 30.3314Z" fill="#96D5ED"/>
<path d="M189.002 58.3968C179.909 47.152 177.149 30.0222 177.149 30.0222L135.754 19.5857V19.2974L135.177 19.4415L134.6 19.2974V19.5857L93.2044 30.0222C93.2044 30.0222 90.4447 47.1572 81.352 58.3968C72.2593 69.6365 61.6787 77.6994 61.6787 101.528C61.6787 125.356 76.0643 159.75 125.832 148.175H144.527C194.295 159.75 208.68 125.356 208.68 101.528C208.68 77.6994 198.099 69.6365 189.002 58.3968Z" fill="#98AFED"/>
<path d="M116.419 101.528L110.024 137.873H159.741L151.889 101.528H116.419Z" fill="white" stroke="#022791" stroke-width="0.597253" stroke-miterlimit="10" stroke-linecap="round"/>
<path d="M103.918 140.2L107.697 127.117H164.102L166.429 140.2V243.998C166.429 243.998 107.115 256.211 107.115 243.998C107.115 231.786 103.918 140.2 103.918 140.2Z" fill="#FFD125"/>
<path d="M241.735 194.571C241.735 194.571 239.408 170.438 215.569 160.259C191.725 150.086 166.723 140.2 166.723 140.2L135.321 221.426L103.919 140.2C103.919 140.2 78.9165 150.086 55.0727 160.259C31.2289 170.433 28.9069 194.571 28.9069 194.571L18.4395 282.387H252.202L241.735 194.571Z" fill="#4D75FE"/>
<path d="M156.352 204.827H123.359C121.686 204.827 120.331 206.182 120.331 207.854V273.516C120.331 275.188 121.686 276.543 123.359 276.543H156.352C158.024 276.543 159.379 275.188 159.379 273.516V207.854C159.379 206.182 158.024 204.827 156.352 204.827Z" fill="#022791"/>
<path d="M183.851 245.857L160.254 223.141L161.263 222.224C163.333 220.345 166.484 220.33 168.569 222.188L171.602 224.891C172.107 225.339 172.843 224.721 172.488 224.145L163.596 209.811L149.571 195.188C149.061 194.658 149.318 193.772 150.029 193.597L151.867 193.139C153.968 192.614 156.197 193.057 157.937 194.344L170.181 206.881L172.93 203.735C173.909 202.618 175.541 202.355 176.818 203.112L179.263 204.559L181.282 202.433C182.311 201.346 183.98 201.156 185.226 201.99L187.501 203.509L190.807 201.253C191.646 200.682 192.712 200.558 193.659 200.929C195.085 201.485 196.125 202.731 196.414 204.229L201.892 236.316C202.68 240.919 200.399 245.507 196.254 247.659C192.161 249.785 187.172 249.059 183.851 245.862V245.857Z" fill="white" stroke="#022791" stroke-width="0.622997" stroke-miterlimit="10" stroke-linecap="round"/>
<path d="M180.308 203.457L177.548 206.505C176.786 207.344 176.591 208.549 177.044 209.589L183.011 219.969" stroke="#022791" stroke-width="0.622997" stroke-miterlimit="10" stroke-linecap="round"/>
<path d="M187.496 203.503L184.829 205.856C184.18 206.428 183.953 207.339 184.257 208.148L186.497 214.089" stroke="#022791" stroke-width="0.622997" stroke-miterlimit="10" stroke-linecap="round"/>
<path d="M170.18 206.881C169.552 207.525 169.433 208.508 169.892 209.28L177.718 222.554" stroke="#022791" stroke-width="0.622997" stroke-miterlimit="10" stroke-linecap="round"/>
<path d="M140.643 232.198L123.539 231.152" stroke="#022791" stroke-width="0.622997" stroke-miterlimit="10" stroke-linecap="round"/>
<path d="M138.626 237.31L128.138 236.667" stroke="#022791" stroke-width="0.622997" stroke-miterlimit="10" stroke-linecap="round"/>
<path d="M86.9213 266.869L113.35 240.837C116.079 238.144 119.683 236.522 123.508 236.255L145.787 234.695C145.787 234.695 146.873 242.253 138.625 242.546L128.142 242.835L122.772 245.785C122.139 246.135 122.406 247.098 123.132 247.067L136.478 246.475C138.723 246.377 140.973 246.542 143.176 246.964L148.402 247.968C150.91 248.452 152.47 250.97 151.785 253.431L150.055 259.63C149.602 261.257 148.217 262.446 146.544 262.657L128.142 264.933L97.5586 281.311C92.7548 283.886 86.7823 281.661 84.8257 276.58C83.5334 273.217 84.3572 269.402 86.9213 266.874V266.869Z" fill="white" stroke="#022791" stroke-width="0.622997" stroke-miterlimit="10"/>
<path d="M111.913 127.117C111.913 127.117 149.473 119.703 153.443 108.731L115.939 105.59L111.913 127.117Z" fill="#96D5ED"/>
<path d="M162.927 6.99712C156.599 3.10983 147.697 0.28318 135.17 0C122.643 0.28318 113.741 3.10983 107.413 6.99712C95.7617 14.1539 90.5769 28.4158 94.5003 41.5194L98.542 55.0091H171.803L175.845 41.5194C179.768 28.4158 174.584 14.1539 162.932 6.99712H162.927Z" fill="#98AFED"/>
<path d="M102.173 55.009H98.5427C94.1921 55.009 91.0101 59.1074 92.0914 63.3242L94.7996 73.8997C95.5462 76.8139 98.172 78.8528 101.184 78.8528H105.082L102.173 55.009Z" fill="white" stroke="#022791" stroke-width="0.597253" stroke-miterlimit="10" stroke-linecap="round"/>
<path d="M168.72 55.009H172.349C176.7 55.009 179.882 59.1074 178.801 63.3242L176.093 73.8997C175.346 76.8139 172.72 78.8528 169.708 78.8528H165.811L168.72 55.009Z" fill="white" stroke="#022791" stroke-width="0.597253" stroke-miterlimit="10" stroke-linecap="round"/>
<path d="M135.751 23.751L99.9883 28.9821L101.862 81.0152C102.521 99.2571 117.499 113.704 135.751 113.704C154.004 113.704 168.981 99.2571 169.64 81.0152L171.514 28.9821L135.751 23.751Z" fill="white" stroke="#022791" stroke-width="0.597253" stroke-miterlimit="10" stroke-linecap="round"/>
<path d="M135.747 19.2974V19.1121L135.181 19.2047L134.609 19.1121V19.2974L97.2344 25.4553L98.4701 49.4896L98.5319 55.2716L101.132 55.529L107.933 44.2842C111.986 36.7465 121.058 33.4616 128.997 36.6538L135.165 39.1303L135.175 38.7493L135.186 39.1303L141.354 36.6538C149.293 33.4616 158.365 36.7516 162.417 44.2842L170.249 55.2716H171.819L171.881 49.4896L173.116 25.4553L135.737 19.2974H135.747Z" fill="#98AFED"/>
<path d="M119.301 73.8687C121.218 73.8687 122.772 72.315 122.772 70.3985C122.772 68.4819 121.218 66.9282 119.301 66.9282C117.385 66.9282 115.831 68.4819 115.831 70.3985C115.831 72.315 117.385 73.8687 119.301 73.8687Z" fill="#022791"/>
<path d="M151.811 73.8687C153.728 73.8687 155.281 72.315 155.281 70.3985C155.281 68.4819 153.728 66.9282 151.811 66.9282C149.894 66.9282 148.341 68.4819 148.341 70.3985C148.341 72.315 149.894 73.8687 151.811 73.8687Z" fill="#022791"/>
<path d="M130.3 99.7926C130.3 99.7926 139.882 100.956 145.952 93.2434" stroke="#022791" stroke-width="0.597253" stroke-miterlimit="10" stroke-linecap="round"/>
<path d="M138.126 144.432C138.126 144.432 112.424 147.521 103.918 140.195" stroke="#022791" stroke-width="0.597253" stroke-miterlimit="10" stroke-linecap="round"/>
<path d="M201.893 236.311L231.086 282.387" stroke="#022791" stroke-width="0.597253" stroke-miterlimit="10" stroke-linecap="round"/>
<path d="M181.88 243.962L190.314 282.387" stroke="#022791" stroke-width="0.597253" stroke-miterlimit="10" stroke-linecap="round"/>
<path d="M89.0535 264.768L59.0879 282.387" stroke="#022791" stroke-width="0.597253" stroke-miterlimit="10" stroke-linecap="round"/>
<path d="M134.31 69.6055L131.267 83.5122C130.824 85.5357 132.363 87.4458 134.433 87.4458H138.573" fill="white"/>
<path d="M134.31 69.6055L131.267 83.5122C130.824 85.5357 132.363 87.4458 134.433 87.4458H138.573" stroke="#022791" stroke-width="0.514873" stroke-miterlimit="10" stroke-linecap="round"/>
</svg>
