<svg width="81" height="80" viewBox="0 0 81 80" fill="none" xmlns="http://www.w3.org/2000/svg">
<path d="M40.0211 79.5273C62.1241 79.5273 80.0422 61.7245 80.0422 39.7637C80.0422 17.8028 62.1241 0 40.0211 0C17.9181 0 0 17.8028 0 39.7637C0 61.7245 17.9181 79.5273 40.0211 79.5273Z" fill="#FFD125"/>
<path d="M40.8358 51.0239C40.7019 51.0239 40.5629 50.9879 40.4394 50.9158L29.833 44.7939C29.591 44.6549 29.4365 44.3923 29.4365 44.1092V31.8655C29.4365 31.5823 29.5858 31.3248 29.833 31.1807L40.4394 25.0589C40.6814 24.9198 40.9851 24.9198 41.2271 25.0589L51.8335 31.1807C52.0755 31.3197 52.23 31.5823 52.23 31.8655V44.1092C52.23 44.3923 52.0806 44.6498 51.8335 44.7939L41.2271 50.9158C41.1035 50.9879 40.9697 51.0239 40.8307 51.0239H40.8358ZM31.0172 43.6561L40.8358 49.3248L50.6544 43.6561V32.3186L40.8358 26.6498L31.0172 32.3186V43.6561Z" fill="white"/>
<path d="M40.8355 38.8008C40.7017 38.8008 40.5626 38.7648 40.4391 38.6979L29.8327 32.576C29.4568 32.3598 29.3281 31.8758 29.5444 31.4999C29.7606 31.1241 30.2446 30.9953 30.6204 31.2116L40.8304 37.1069L51.0403 31.2116C51.4162 30.9953 51.9001 31.1241 52.1164 31.4999C52.3326 31.8758 52.2039 32.3598 51.8281 32.576L41.2217 38.6979C41.0981 38.7699 40.9642 38.8008 40.8252 38.8008H40.8355Z" fill="white"/>
<path d="M40.8366 45.5302C40.3989 45.5302 40.0488 45.175 40.0488 44.7425V38.0131C40.0488 37.5755 40.4041 37.2253 40.8366 37.2253C41.2691 37.2253 41.6243 37.5806 41.6243 38.0131V44.7425C41.6243 45.1801 41.2691 45.5302 40.8366 45.5302Z" fill="white"/>
<path d="M50.057 55.6167C49.7789 55.6167 49.5112 55.4674 49.367 55.21C49.1559 54.829 49.295 54.3501 49.6811 54.139C50.0364 53.9434 50.3813 53.7374 50.7212 53.5212C51.0867 53.2895 51.5758 53.3925 51.8075 53.7632C52.0392 54.1287 51.9363 54.6179 51.5655 54.8495C51.2 55.0812 50.819 55.3078 50.438 55.5189C50.3196 55.5858 50.1857 55.6167 50.057 55.6167Z" fill="white"/>
<path d="M54.928 51.8117C54.7375 51.8117 54.5418 51.7396 54.3925 51.6006C54.0733 51.3071 54.0527 50.8076 54.3513 50.4884C54.8868 49.9118 55.3914 49.2939 55.8496 48.6452C56.1019 48.2899 56.5962 48.2075 56.9514 48.4598C57.3067 48.7121 57.3891 49.2064 57.1368 49.5617C56.6374 50.2619 56.0916 50.9312 55.5098 51.5594C55.3553 51.7293 55.1442 51.8117 54.9331 51.8117H54.928ZM58.805 45.5353C58.7123 45.5353 58.6196 45.5199 58.527 45.4839C58.1202 45.3294 57.9142 44.8763 58.0687 44.4696C58.3467 43.7281 58.5784 42.9661 58.7586 42.199C58.8565 41.7768 59.2838 41.5142 59.706 41.612C60.1282 41.7098 60.3908 42.1372 60.293 42.5594C60.0973 43.3935 59.845 44.2224 59.5464 45.0205C59.428 45.3345 59.1293 45.5302 58.8101 45.5302L58.805 45.5353ZM60.0201 38.2602C59.5927 38.2602 59.2426 37.9204 59.2323 37.493C59.2117 36.7053 59.1396 35.9072 59.0161 35.1298C58.9491 34.6973 59.2426 34.2957 59.6751 34.2287C60.1025 34.1618 60.5092 34.4553 60.5761 34.8878C60.7049 35.7322 60.7872 36.592 60.8078 37.4518C60.8181 37.8895 60.4783 38.2499 60.0407 38.2602C60.0355 38.2602 60.0252 38.2602 60.0201 38.2602ZM58.4137 31.0623C58.1099 31.0623 57.8216 30.8872 57.6929 30.5886C57.3736 29.8678 57.0081 29.1572 56.6013 28.4828C56.3748 28.112 56.4983 27.6281 56.8691 27.4015C57.2398 27.175 57.7238 27.2934 57.9503 27.6692C58.3931 28.4004 58.7947 29.1727 59.1345 29.9553C59.3096 30.3517 59.1293 30.8203 58.7329 30.9953C58.6299 31.0417 58.5218 31.0623 58.4137 31.0623Z" fill="white"/>
<path d="M54.1923 24.9921C53.9967 24.9921 53.7959 24.92 53.6465 24.7707C53.3582 24.4875 53.0596 24.2198 52.7507 23.9572C52.4212 23.674 52.38 23.1797 52.6631 22.845C52.9463 22.5155 53.4406 22.4743 53.7753 22.7524C54.1048 23.0304 54.4292 23.329 54.7484 23.6328C55.0625 23.9366 55.0676 24.436 54.769 24.7449C54.6145 24.9045 54.4086 24.9869 54.2026 24.9869L54.1923 24.9921Z" fill="white"/>
<path d="M40.8357 57.9747C29.8175 57.9747 20.8535 49.0108 20.8535 37.9925C20.8535 26.9742 29.8175 18.0103 40.8357 18.0103C41.2734 18.0103 41.6235 18.3655 41.6235 18.798C41.6235 19.2305 41.2682 19.5858 40.8357 19.5858C30.6876 19.5858 22.429 27.8443 22.429 37.9925C22.429 48.1406 30.6876 56.3992 40.8357 56.3992C43.925 56.3992 46.9833 55.6166 49.6761 54.1389C50.0571 53.9278 50.536 54.0668 50.7471 54.453C50.9582 54.834 50.814 55.3128 50.433 55.5239C47.5085 57.1303 44.1876 57.9747 40.8306 57.9747H40.8357Z" fill="white"/>
<path d="M40.837 62.2431C35.2094 62.2431 29.726 60.2711 25.3959 56.6928C25.0612 56.4147 25.0149 55.9205 25.2878 55.5807C25.5658 55.246 26.0601 55.1945 26.3999 55.4725C30.4468 58.8192 35.575 60.6573 40.837 60.6573C53.3432 60.6573 63.5171 50.4834 63.5171 37.9771C63.5171 25.4709 53.3432 15.297 40.837 15.297C37.341 15.297 33.984 16.0693 30.869 17.5984C30.4777 17.789 30.004 17.6293 29.8135 17.238C29.623 16.8467 29.7826 16.3731 30.1739 16.1825C33.5103 14.5504 37.099 13.7163 40.837 13.7163C54.2134 13.7163 65.0926 24.5956 65.0926 37.972C65.0926 51.3484 54.2134 62.2277 40.837 62.2277V62.2431Z" fill="white"/>
<path d="M23.0673 23.4524C22.8871 23.4524 22.7017 23.3906 22.5524 23.2619C22.2229 22.9787 22.1868 22.4793 22.47 22.1498C22.7532 21.8203 23.0467 21.501 23.3453 21.187C23.6491 20.8729 24.1433 20.8626 24.4574 21.1664C24.7715 21.4701 24.7818 21.9644 24.478 22.2785C24.1948 22.572 23.9219 22.8706 23.6542 23.1795C23.4998 23.3597 23.2784 23.4524 23.057 23.4524H23.0673Z" fill="white"/>
<path d="M21.5538 52.1568C21.3066 52.1568 21.0595 52.0383 20.905 51.8169C20.4004 51.091 19.9268 50.3238 19.5046 49.5515C19.2986 49.1705 19.4376 48.6917 19.8186 48.4806C20.1997 48.2746 20.6785 48.4136 20.8896 48.7946C21.2809 49.5206 21.7237 50.2311 22.1974 50.9159C22.4445 51.2712 22.357 51.7654 22.0017 52.0126C21.8627 52.1104 21.7082 52.1516 21.5538 52.1516V52.1568ZM18.2586 45.1957C17.9136 45.1957 17.5995 44.9691 17.5017 44.6242C17.2597 43.7746 17.0641 42.8993 16.9199 42.024C16.8478 41.5967 17.1361 41.19 17.5686 41.1179C17.9908 41.0458 18.4027 41.3341 18.4748 41.7666C18.6138 42.5853 18.794 43.4039 19.0206 44.1968C19.139 44.6139 18.897 45.0515 18.48 45.1699C18.4079 45.1905 18.3358 45.2008 18.2637 45.2008L18.2586 45.1957ZM17.4039 37.5395C16.9302 37.5138 16.5955 37.143 16.6161 36.7106C16.6625 35.825 16.7551 34.9343 16.8993 34.0641C16.9714 33.6316 17.3781 33.3433 17.8055 33.4102C18.2328 33.4823 18.5263 33.8839 18.4542 34.3164C18.3204 35.135 18.2328 35.964 18.1916 36.7929C18.1711 37.2151 17.8209 37.5395 17.4039 37.5395ZM19.0618 30.0224C18.964 30.0224 18.8661 30.0018 18.7683 29.9657C18.3667 29.801 18.171 29.3427 18.3307 28.9411C18.6602 28.1225 19.0412 27.309 19.4582 26.5264C19.6642 26.1402 20.143 25.996 20.524 26.2071C20.9102 26.4131 21.0492 26.8919 20.8432 27.2729C20.4519 28.0041 20.0967 28.7609 19.7878 29.5281C19.6642 29.837 19.3707 30.0224 19.0566 30.0224H19.0618Z" fill="white"/>
<path d="M25.8947 56.8782C25.7196 56.8782 25.5394 56.8215 25.3952 56.698C25.0606 56.4199 24.731 56.1368 24.4118 55.8433C24.0926 55.5498 24.072 55.0504 24.3655 54.7312C24.6641 54.4119 25.1584 54.3913 25.4776 54.6848C25.7762 54.9577 26.0852 55.2254 26.3941 55.488C26.7288 55.7661 26.7751 56.2603 26.4971 56.6001C26.3426 56.7907 26.116 56.8885 25.8895 56.8885L25.8947 56.8782Z" fill="white"/>
</svg>
