<svg width="102" height="101" viewBox="0 0 102 101" fill="none" xmlns="http://www.w3.org/2000/svg">
<path d="M50.9684 90.4128C73.0714 90.4128 90.9895 72.61 90.9895 50.6492C90.9895 28.6883 73.0714 10.8855 50.9684 10.8855C28.8653 10.8855 10.9473 28.6883 10.9473 50.6492C10.9473 72.61 28.8653 90.4128 50.9684 90.4128Z" fill="#FFD125"/>
<path d="M51.7831 61.9094C51.6492 61.9094 51.5102 61.8734 51.3866 61.8013L40.7802 55.6794C40.5382 55.5404 40.3838 55.2778 40.3838 54.9947V42.751C40.3838 42.4678 40.5331 42.2103 40.7802 42.0662L51.3866 35.9443C51.6286 35.8053 51.9324 35.8053 52.1744 35.9443L62.7808 42.0662C63.0228 42.2052 63.1772 42.4678 63.1772 42.751V54.9947C63.1772 55.2778 63.0279 55.5353 62.7808 55.6794L52.1744 61.8013C52.0508 61.8734 51.917 61.9094 51.7779 61.9094H51.7831ZM41.9645 54.5416L51.7831 60.2103L61.6017 54.5416V43.204L51.7831 37.5353L41.9645 43.204V54.5416Z" fill="white"/>
<path d="M51.7828 49.6863C51.6489 49.6863 51.5099 49.6503 51.3863 49.5833L40.7799 43.4615C40.4041 43.2453 40.2754 42.7613 40.4916 42.3854C40.7079 42.0096 41.1918 41.8808 41.5677 42.0971L51.7776 47.9924L61.9876 42.0971C62.3634 41.8808 62.8474 42.0096 63.0637 42.3854C63.2799 42.7613 63.1512 43.2453 62.7753 43.4615L52.1689 49.5833C52.0454 49.6554 51.9115 49.6863 51.7725 49.6863H51.7828Z" fill="white"/>
<path d="M51.7838 56.4157C51.3462 56.4157 50.9961 56.0605 50.9961 55.628V48.8986C50.9961 48.461 51.3514 48.1108 51.7838 48.1108C52.2163 48.1108 52.5716 48.4661 52.5716 48.8986V55.628C52.5716 56.0656 52.2163 56.4157 51.7838 56.4157Z" fill="white"/>
<path d="M61.0042 66.5022C60.7262 66.5022 60.4585 66.3529 60.3143 66.0955C60.1032 65.7145 60.2422 65.2356 60.6284 65.0245C60.9836 64.8289 61.3286 64.6229 61.6684 64.4067C62.034 64.175 62.5231 64.278 62.7548 64.6487C62.9865 65.0142 62.8835 65.5034 62.5128 65.735C62.1472 65.9667 61.7663 66.1933 61.3853 66.4044C61.2668 66.4713 61.133 66.5022 61.0042 66.5022Z" fill="white"/>
<path d="M65.8753 62.6974C65.6848 62.6974 65.4891 62.6253 65.3398 62.4863C65.0206 62.1928 65 61.6934 65.2986 61.3742C65.8341 60.7975 66.3386 60.1797 66.7969 59.5309C67.0492 59.1757 67.5434 59.0933 67.8987 59.3456C68.254 59.5979 68.3363 60.0921 68.0841 60.4474C67.5846 61.1476 67.0389 61.817 66.4571 62.4451C66.3026 62.615 66.0915 62.6974 65.8804 62.6974H65.8753ZM69.7523 56.4211C69.6596 56.4211 69.5669 56.4056 69.4742 56.3696C69.0675 56.2151 68.8615 55.762 69.016 55.3553C69.294 54.6139 69.5257 53.8519 69.7059 53.0847C69.8037 52.6625 70.2311 52.3999 70.6533 52.4978C71.0755 52.5956 71.3381 53.0229 71.2402 53.4451C71.0446 54.2792 70.7923 55.1082 70.4937 55.9062C70.3752 56.2203 70.0766 56.4159 69.7574 56.4159L69.7523 56.4211ZM70.9673 49.1459C70.54 49.1459 70.1899 48.8061 70.1796 48.3788C70.159 47.591 70.0869 46.793 69.9633 46.0155C69.8964 45.583 70.1899 45.1814 70.6224 45.1145C71.0497 45.0475 71.4565 45.341 71.5234 45.7735C71.6521 46.6179 71.7345 47.4777 71.7551 48.3376C71.7654 48.7752 71.4256 49.1356 70.9879 49.1459C70.9828 49.1459 70.9725 49.1459 70.9673 49.1459ZM69.3609 41.948C69.0572 41.948 68.7688 41.7729 68.6401 41.4743C68.3209 40.7535 67.9553 40.043 67.5486 39.3685C67.3221 38.9978 67.4456 38.5138 67.8163 38.2873C68.187 38.0607 68.671 38.1791 68.8976 38.555C69.3404 39.2861 69.7419 40.0584 70.0818 40.841C70.2568 41.2375 70.0766 41.706 69.6802 41.8811C69.5772 41.9274 69.4691 41.948 69.3609 41.948Z" fill="white"/>
<path d="M65.1396 35.8776C64.9439 35.8776 64.7431 35.8055 64.5938 35.6562C64.3055 35.373 64.0069 35.1053 63.6979 34.8427C63.3684 34.5595 63.3272 34.0652 63.6104 33.7305C63.8936 33.401 64.3879 33.3598 64.7225 33.6379C65.052 33.9159 65.3764 34.2145 65.6956 34.5183C66.0097 34.8221 66.0149 35.3215 65.7162 35.6304C65.5618 35.79 65.3558 35.8724 65.1499 35.8724L65.1396 35.8776Z" fill="white"/>
<path d="M51.783 68.8602C40.7647 68.8602 31.8008 59.8963 31.8008 48.878C31.8008 37.8597 40.7647 28.8958 51.783 28.8958C52.2207 28.8958 52.5708 29.251 52.5708 29.6835C52.5708 30.116 52.2155 30.4713 51.783 30.4713C41.6349 30.4713 33.3763 38.7298 33.3763 48.878C33.3763 59.0261 41.6349 67.2847 51.783 67.2847C54.8722 67.2847 57.9306 66.5021 60.6234 65.0244C61.0044 64.8133 61.4832 64.9523 61.6943 65.3385C61.9054 65.7195 61.7613 66.1983 61.3803 66.4094C58.4558 68.0158 55.1348 68.8602 51.7779 68.8602H51.783Z" fill="white"/>
<path d="M51.7842 73.1286C46.1567 73.1286 40.6733 71.1566 36.3432 67.5783C36.0085 67.3002 35.9622 66.806 36.2351 66.4662C36.5131 66.1315 37.0074 66.08 37.3472 66.358C41.3941 69.7047 46.5222 71.5428 51.7842 71.5428C64.2905 71.5428 74.4644 61.3689 74.4644 48.8626C74.4644 36.3564 64.2905 26.1825 51.7842 26.1825C48.2882 26.1825 44.9313 26.9548 41.8163 28.4839C41.425 28.6745 40.9513 28.5148 40.7608 28.1235C40.5703 27.7322 40.7299 27.2585 41.1212 27.068C44.4576 25.4359 48.0462 24.6018 51.7842 24.6018C65.1606 24.6018 76.0399 35.4811 76.0399 48.8575C76.0399 62.2339 65.1606 73.1132 51.7842 73.1132V73.1286Z" fill="white"/>
<path d="M34.0145 34.3381C33.8343 34.3381 33.649 34.2764 33.4997 34.1476C33.1701 33.8645 33.1341 33.365 33.4173 33.0355C33.7005 32.706 33.9939 32.3868 34.2926 32.0727C34.5963 31.7586 35.0906 31.7483 35.4047 32.0521C35.7188 32.3559 35.7291 32.8502 35.4253 33.1642C35.1421 33.4577 34.8692 33.7563 34.6015 34.0653C34.447 34.2455 34.2256 34.3381 34.0042 34.3381H34.0145Z" fill="white"/>
<path d="M32.501 63.0422C32.2539 63.0422 32.0067 62.9238 31.8523 62.7024C31.3477 61.9765 30.874 61.2093 30.4518 60.437C30.2459 60.056 30.3849 59.5772 30.7659 59.3661C31.1469 59.1601 31.6257 59.2991 31.8368 59.6801C32.2281 60.4061 32.6709 61.1166 33.1446 61.8014C33.3918 62.1567 33.3042 62.6509 32.949 62.8981C32.81 62.9959 32.6555 63.0371 32.501 63.0371V63.0422ZM29.2058 56.0812C28.8609 56.0812 28.5468 55.8546 28.449 55.5097C28.207 54.6601 28.0113 53.7848 27.8672 52.9095C27.7951 52.4822 28.0834 52.0754 28.5159 52.0034C28.9381 51.9313 29.35 52.2196 29.4221 52.6521C29.5611 53.4708 29.7413 54.2894 29.9678 55.0823C30.0863 55.4994 29.8443 55.937 29.4272 56.0554C29.3552 56.076 29.2831 56.0863 29.211 56.0863L29.2058 56.0812ZM28.3512 48.425C27.8775 48.3993 27.5428 48.0285 27.5634 47.5961C27.6097 46.7105 27.7024 45.8197 27.8466 44.9496C27.9187 44.5171 28.3254 44.2288 28.7528 44.2957C29.1801 44.3678 29.4736 44.7694 29.4015 45.2019C29.2676 46.0205 29.1801 46.8495 29.1389 47.6784C29.1183 48.1006 28.7682 48.425 28.3512 48.425ZM30.009 40.9079C29.9112 40.9079 29.8134 40.8873 29.7156 40.8512C29.314 40.6865 29.1183 40.2282 29.2779 39.8266C29.6074 39.008 29.9884 38.1945 30.4055 37.4119C30.6114 37.0257 31.0903 36.8815 31.4713 37.0926C31.8574 37.2986 31.9965 37.7774 31.7905 38.1584C31.3992 38.8896 31.0439 39.6464 30.735 40.4136C30.6115 40.7225 30.318 40.9079 30.0039 40.9079H30.009Z" fill="white"/>
<path d="M36.8419 67.7637C36.6669 67.7637 36.4867 67.707 36.3425 67.5835C36.0078 67.3054 35.6783 67.0223 35.3591 66.7288C35.0399 66.4353 35.0193 65.9359 35.3127 65.6167C35.6114 65.2974 36.1057 65.2768 36.4249 65.5703C36.7235 65.8432 37.0324 66.1109 37.3413 66.3735C37.676 66.6515 37.7224 67.1458 37.4443 67.4856C37.2899 67.6761 37.0633 67.774 36.8368 67.774L36.8419 67.7637Z" fill="white"/>
<path d="M10.1387 29.7555C17.7691 15.0662 33.1895 5.021 50.9733 5.021" stroke="#FFD125" stroke-width="0.458237" stroke-miterlimit="10"/>
<path d="M9.50541 70.2811C6.64786 64.3343 5.05176 57.677 5.05176 50.649C5.05176 46.1335 5.71079 41.7674 6.94133 37.6484" stroke="#4D75FE" stroke-width="0.458237" stroke-miterlimit="10"/>
<path d="M50.9691 96.2824C38.2878 96.2824 26.8061 91.1748 18.4961 82.9163" stroke="#FFD125" stroke-width="0.458237" stroke-miterlimit="10"/>
<path d="M75.2451 11.9102C88.2405 19.9679 96.8904 34.3071 96.8904 50.6492C96.8904 68.3609 86.7371 83.7144 71.8984 91.2727" stroke="#4D75FE" stroke-width="0.458237" stroke-miterlimit="10"/>
<path d="M21.3838 90.6703C9.02172 81.6291 1 67.0737 1 50.6492C1 35.3111 8.00227 21.5949 19 12.4868" stroke="#FFD125" stroke-width="0.499427" stroke-miterlimit="10"/>
<path d="M99.4651 38.6372C100.428 42.4833 100.938 46.5096 100.938 50.6543C100.938 78.0765 78.5664 100.309 50.9692 100.309C43.7867 100.309 36.9543 98.8001 30.7861 96.0919" stroke="#4D75FE" stroke-width="0.499427" stroke-miterlimit="10"/>
<path d="M72.2686 5.72119C82.1387 10.3499 90.2376 18.0936 95.2834 27.6805" stroke="#FFD125" stroke-width="0.499427" stroke-miterlimit="10"/>
<path d="M40.8203 2.02459C44.1001 1.35011 47.4931 1 50.9685 1C54.4439 1 57.7854 1.34496 61.0394 2.00915" stroke="#4D75FE" stroke-width="0.499427" stroke-miterlimit="10"/>
<path d="M23.252 9.33055C26.7891 6.98273 30.6404 5.0777 34.7336 3.67725" stroke="#4D75FE" stroke-width="0.499427" stroke-miterlimit="10"/>
</svg>
