<svg width="103" height="103" viewBox="0 0 103 103" fill="none" xmlns="http://www.w3.org/2000/svg">
<path d="M51.4285 93.5453C74.6532 93.5453 93.4806 74.7113 93.4806 51.4783C93.4806 28.2454 74.6532 9.41138 51.4285 9.41138C28.2037 9.41138 9.37634 28.2454 9.37634 51.4783C9.37634 74.7113 28.2037 93.5453 51.4285 93.5453Z" fill="#4D75FE"/>
<path d="M66.5371 44.5744C67.4044 43.6041 67.9453 42.3446 67.9453 40.9452V36.4204C67.9453 35.8886 67.5163 35.4594 66.9847 35.4594H63.2356C59.7849 32.8938 55.6906 31.5223 51.3726 31.5223C47.0545 31.5223 42.9603 32.8845 39.5002 35.4594H35.7511C35.2195 35.4594 34.7905 35.8886 34.7905 36.4204V40.9452C34.7905 42.3446 35.3314 43.6041 36.1987 44.5744C33.662 44.8729 31.6848 47.0187 31.6848 49.631V56.5535C31.6848 57.0853 32.1138 57.5145 32.6454 57.5145H47.9125C48.4441 57.5145 48.8731 57.0853 48.8731 56.5535V49.631C48.8731 47.0187 46.896 44.8823 44.3592 44.5744C45.2266 43.6041 45.7675 42.3446 45.7675 40.9452V36.4204C45.7675 35.8886 45.3385 35.4594 44.8069 35.4594H43.1002C45.6369 34.1346 48.4534 33.4442 51.3819 33.4442C54.3103 33.4442 57.1176 34.1439 59.6636 35.4594H57.9569C57.4253 35.4594 56.9963 35.8886 56.9963 36.4204V40.9452C56.9963 42.3446 57.5372 43.6041 58.4046 44.5744C55.8678 44.8729 53.8907 47.0187 53.8907 49.631V56.5535C53.8907 57.0853 54.3197 57.5145 54.8513 57.5145H70.1184C70.65 57.5145 71.079 57.0853 71.079 56.5535V49.631C71.079 47.0187 69.1018 44.8823 66.5651 44.5744H66.5371ZM46.9426 49.631V55.5926H33.5874V49.631C33.5874 47.8677 35.0236 46.431 36.7863 46.431H43.7437C45.5063 46.431 46.9426 47.8677 46.9426 49.631ZM43.8369 40.9452C43.8369 42.9137 42.2328 44.5184 40.265 44.5184C38.2971 44.5184 36.693 42.9137 36.693 40.9452V37.372H43.8276V40.9452H43.8369ZM58.8895 37.372H66.0241V40.9452C66.0241 42.9137 64.42 44.5184 62.4522 44.5184C60.4843 44.5184 58.8802 42.9137 58.8802 40.9452V37.372H58.8895ZM69.1298 55.5926H55.7746V49.631C55.7746 47.8677 57.2108 46.431 58.9735 46.431H65.9309C67.6935 46.431 69.1298 47.8677 69.1298 49.631V55.5926Z" fill="#FDFDFD"/>
<path d="M60.0086 67.2639C59.5796 67.4971 59.1413 67.721 58.703 67.9076C58.218 68.1222 58.0035 68.6913 58.218 69.1764C58.3765 69.531 58.7309 69.7455 59.0947 69.7455C59.2252 69.7455 59.3558 69.7176 59.4864 69.6616C59.9713 69.447 60.4563 69.2044 60.9319 68.9432C61.3983 68.6913 61.5661 68.1035 61.3143 67.6371C61.0625 67.1706 60.475 67.0027 60.0086 67.2546V67.2639Z" fill="#FDFDFD"/>
<path d="M64.3919 63.8959C63.9723 64.3437 63.5153 64.7636 63.049 65.1647C62.6479 65.5099 62.6013 66.1164 62.9464 66.5175C63.1329 66.7414 63.4034 66.8534 63.6738 66.8534C63.8977 66.8534 64.1122 66.7788 64.2987 66.6202C64.8116 66.1817 65.3152 65.7058 65.7816 65.2114C66.1453 64.8289 66.136 64.2224 65.7536 63.8586C65.3712 63.4947 64.765 63.5041 64.4013 63.8866L64.3919 63.8959Z" fill="#FDFDFD"/>
<path d="M68.6728 59.2964C68.2065 59.0538 67.6283 59.2404 67.3858 59.7069C67.1619 60.1361 66.9195 60.5652 66.6677 60.9757C66.3879 61.4236 66.5278 62.0206 66.9754 62.3005C67.134 62.4032 67.3112 62.4498 67.479 62.4498C67.7961 62.4498 68.1132 62.2912 68.2904 62.002C68.5702 61.5542 68.8407 61.0784 69.0832 60.6025C69.3256 60.1361 69.1391 59.5576 68.6728 59.3151V59.2964Z" fill="#FDFDFD"/>
<path d="M44.0141 67.917C43.5757 67.7211 43.1374 67.5065 42.7084 67.2732C42.2421 67.0213 41.6638 67.1893 41.4027 67.6557C41.1509 68.1222 41.3188 68.7007 41.7851 68.9619C42.2607 69.2231 42.7457 69.4657 43.2307 69.6803C43.3612 69.7362 43.4918 69.7642 43.6224 69.7642C43.9861 69.7642 44.3405 69.5496 44.499 69.1951C44.7135 68.71 44.499 68.1409 44.0141 67.9263V67.917Z" fill="#FDFDFD"/>
<path d="M38.325 63.8959C37.9613 63.5134 37.3551 63.504 36.9727 63.8679C36.5903 64.2317 36.5717 64.8382 36.9447 65.2207C37.4111 65.7151 37.9147 66.1816 38.4276 66.6294C38.6048 66.788 38.8286 66.8627 39.0525 66.8627C39.3229 66.8627 39.5934 66.7507 39.7799 66.5268C40.125 66.1256 40.0784 65.5192 39.6773 65.174C39.211 64.7729 38.754 64.3437 38.3343 63.9052L38.325 63.8959Z" fill="#FDFDFD"/>
<path d="M35.35 59.7069C35.1075 59.2311 34.5292 59.0445 34.0629 59.2964C33.5966 59.539 33.4101 60.1174 33.6526 60.5839C33.8951 61.0597 34.1655 61.5262 34.4453 61.9834C34.6225 62.2726 34.9396 62.4312 35.2567 62.4312C35.4339 62.4312 35.6018 62.3845 35.7603 62.2819C36.208 62.002 36.3479 61.4142 36.0681 60.9571C35.8069 60.5466 35.5645 60.1174 35.35 59.6883V59.7069Z" fill="#FDFDFD"/>
<path d="M77.3182 51.4596C77.3182 37.1388 65.6697 25.4955 51.3632 25.4955C37.0567 25.4955 25.4082 37.1481 25.4082 51.4596C25.4082 62.5525 32.3656 72.2925 42.7737 75.9497V81.2676C42.7737 81.7994 43.2027 82.2285 43.7343 82.2285H59.0014C59.533 82.2285 59.962 81.7994 59.962 81.2676V75.9497C70.3701 72.3019 77.3275 62.5618 77.3275 51.4596H77.3182ZM58.0408 80.3066H44.6856V74.345C44.6856 72.5818 46.1218 71.145 47.8845 71.145H54.8419C56.6046 71.145 58.0408 72.5818 58.0408 74.345V80.3066ZM54.9352 65.6592C54.9352 67.6278 53.3311 69.2324 51.3632 69.2324C49.3954 69.2324 47.7912 67.6278 47.7912 65.6592V62.086H54.9258V65.6592H54.9352ZM59.9434 73.9345C59.9434 73.8226 59.8967 73.7106 59.8874 73.5987C59.8688 73.4494 59.8408 73.3001 59.8035 73.1509C59.7662 72.9736 59.7009 72.815 59.6449 72.6471C59.5983 72.5071 59.5517 72.3672 59.4864 72.2272C59.4118 72.0686 59.3278 71.9193 59.2346 71.7701C59.16 71.6395 59.0854 71.5182 59.0014 71.3969C58.8988 71.257 58.7869 71.1263 58.6657 70.9957C58.5724 70.8838 58.4791 70.7718 58.3766 70.6785C58.246 70.5572 58.1061 70.4453 57.9569 70.3333C57.845 70.2494 57.7424 70.1561 57.6305 70.0814C57.4719 69.9788 57.304 69.8948 57.1268 69.8109C57.0056 69.7549 56.8937 69.6803 56.7724 69.6336C56.5766 69.5496 56.3621 69.503 56.1569 69.4377C56.045 69.4097 55.9424 69.3631 55.8398 69.3444C55.7092 69.3164 55.5694 69.3164 55.4388 69.2977C56.2968 68.3275 56.8377 67.068 56.8377 65.6686V61.1437C56.8377 60.6119 56.4087 60.1828 55.8771 60.1828H46.8213C46.2897 60.1828 45.8607 60.6119 45.8607 61.1437V65.6686C45.8607 67.068 46.4016 68.3275 47.2596 69.2977C47.1291 69.3164 46.9892 69.3164 46.8586 69.3444C46.7467 69.3631 46.6441 69.4097 46.5415 69.4377C46.3364 69.4937 46.1218 69.5496 45.926 69.6336C45.8048 69.6803 45.6928 69.7549 45.5716 69.8109C45.4037 69.8948 45.2265 69.9788 45.068 70.0814C44.9467 70.1561 44.8441 70.2494 44.7416 70.3333C44.6017 70.4453 44.4524 70.5479 44.3219 70.6785C44.2193 70.7811 44.126 70.8931 44.0328 70.9957C43.9208 71.1263 43.7996 71.2569 43.697 71.4062C43.6131 71.5275 43.5385 71.6488 43.4639 71.7794C43.3706 71.9287 43.2867 72.0779 43.212 72.2366C43.1468 72.3765 43.1001 72.5164 43.0535 72.6564C42.9975 72.8243 42.9416 72.9923 42.895 73.1602C42.8576 73.3095 42.839 73.4587 42.811 73.608C42.7924 73.72 42.7644 73.8226 42.7551 73.9345C33.4568 70.3893 27.2921 61.5262 27.2921 51.4596C27.2921 38.2023 38.0733 27.408 51.3352 27.408C64.5972 27.408 75.3784 38.193 75.3784 51.4596C75.3784 61.5169 69.2137 70.3893 59.9154 73.9345H59.9434Z" fill="#FDFDFD"/>
<path d="M1.46765 51.4783C1.46765 23.8815 23.832 1.49988 51.4285 1.49988C60.904 1.49988 69.7732 4.14014 77.3182 8.73028" stroke="#4D75FE" stroke-width="1.33332" stroke-miterlimit="10" stroke-linecap="round"/>
<path d="M6.39197 73.1322C5.54328 71.3689 4.79718 69.5496 4.15367 67.6744C3.87388 66.8627 3.62207 66.051 3.38892 65.2207" stroke="#4D75FE" stroke-width="1.33332" stroke-miterlimit="10" stroke-linecap="round"/>
<path d="M72.5991 96.7639C66.1733 99.7774 59.0014 101.457 51.4284 101.457C34.8557 101.457 20.1761 93.3866 11.083 80.969" stroke="#4D75FE" stroke-width="1.33332" stroke-miterlimit="10" stroke-linecap="round"/>
<path d="M90.0765 19.8044C97.1458 28.425 101.389 39.4525 101.389 51.4783C101.389 68.7286 92.6505 83.9358 79.3606 92.9202" stroke="#4D75FE" stroke-width="1.33332" stroke-miterlimit="10" stroke-linecap="round"/>
</svg>
