<svg width="601" height="375" viewBox="0 0 601 375" fill="none" xmlns="http://www.w3.org/2000/svg">
<path d="M537.44 248.939L546.944 211.201C547.969 207.124 550.45 203.551 553.92 201.172L597.958 170.879C597.958 170.879 602.855 177.811 596 184.341C589.145 190.872 579.921 197.99 579.921 197.99L583.176 232.79L556.68 260.47L537.449 248.939H537.44Z" fill="white" stroke="#022791" stroke-width="1.33" stroke-miterlimit="10" stroke-linecap="round"/>
<path d="M579.912 197.99L590.665 217.013C592.083 219.523 592.195 222.564 590.954 225.167L585.732 236.158C584.678 238.378 581.6 238.593 580.248 236.54L571.285 222.938C570.492 221.743 570.362 220.232 570.931 218.907L579.912 197.99Z" fill="white" stroke="#022791" stroke-width="1.33" stroke-miterlimit="10" stroke-linecap="round"/>
<path d="M582.691 211.014L574.363 227.612" stroke="#022791" stroke-width="1.33" stroke-miterlimit="10" stroke-linecap="round"/>
<path d="M586.851 217.163L578.532 233.76" stroke="#022791" stroke-width="1.33" stroke-miterlimit="10" stroke-linecap="round"/>
<path d="M559.422 233.228C559.422 233.228 567.592 222.462 560.83 211.005L572.983 199.371C572.983 199.371 578.709 194.268 572.983 188.054" fill="white"/>
<path d="M559.422 233.228C559.422 233.228 567.592 222.462 560.83 211.005L572.983 199.371C572.983 199.371 578.709 194.268 572.983 188.054" stroke="#022791" stroke-width="1.33" stroke-miterlimit="10" stroke-linecap="round"/>
<path d="M317.723 228.834C343.6 228.834 364.578 207.849 364.578 181.962C364.578 156.076 343.6 135.09 317.723 135.09C291.845 135.09 270.867 156.076 270.867 181.962C270.867 207.849 291.845 228.834 317.723 228.834Z" fill="#022791"/>
<path d="M411.741 68.2069C411.741 68.2069 447.031 88.4427 439.654 142.293C436.782 161.848 429.069 176.141 423.436 184.369C420.004 189.388 413.821 191.73 407.908 190.312L394.879 187.187L401.407 209.121C401.939 210.893 403.319 212.293 405.082 212.834L418.316 217.722L422.27 250.404L337.476 244.433L334.314 211.416L345.375 208.785L354.328 149.505L346.681 142.787C341.812 138.505 341.477 131.041 345.925 126.339C349.805 122.244 356.091 121.591 360.726 124.809L365.081 127.832L411.722 68.2162L411.741 68.2069Z" fill="white" stroke="#022791" stroke-width="1.33" stroke-miterlimit="10" stroke-linecap="round"/>
<path d="M365.091 127.832C365.091 127.832 388.183 134.493 392.939 120.331C397.686 106.169 409.335 95.0014 422.391 92.8649C435.448 90.7285 441.631 76.7061 434.506 62.208C427.381 47.7099 412.888 50.798 403.151 53.4196C393.415 56.0412 377.737 62.4506 366.564 57.4593C355.391 52.468 331.88 54.847 319.289 84.7855C306.699 114.724 332.356 144.905 332.356 144.905L352.715 160.178L354.328 149.514L346.308 142.545C342.465 139.205 341.467 133.644 343.911 129.176C346.634 124.194 352.752 122.169 357.909 124.539L365.091 127.832Z" fill="#022791"/>
<path d="M421.132 115.797L426.224 142.461C426.532 144.093 425.292 145.595 423.632 145.595H414.996" stroke="#022791" stroke-width="1.33" stroke-miterlimit="10" stroke-linecap="round"/>
<path d="M436.222 130.696C438.674 130.696 440.661 128.708 440.661 126.255C440.661 123.803 438.674 121.814 436.222 121.814C433.77 121.814 431.783 123.803 431.783 126.255C431.783 128.708 433.77 130.696 436.222 130.696Z" fill="#022791"/>
<path d="M405.343 130.696C407.795 130.696 409.782 128.708 409.782 126.255C409.782 123.803 407.795 121.814 405.343 121.814C402.891 121.814 400.904 123.803 400.904 126.255C400.904 128.708 402.891 130.696 405.343 130.696Z" fill="#022791"/>
<path d="M423.091 160.486C423.091 160.486 408.281 161.148 404.867 148.805" stroke="#022791" stroke-width="1.33" stroke-miterlimit="10" stroke-linecap="round"/>
<path d="M291.077 223.264L334.323 211.434C334.323 211.434 364.662 253.455 417.859 216.808L452.012 229.515C460.862 233.704 468.034 240.748 472.389 249.517L487.451 279.923C488.608 282.255 491.732 282.74 493.541 280.855L537.496 234.87C537.496 234.87 543.679 249.06 565.149 255.61L499.473 349.642C494.744 356.416 486.994 360.446 478.731 360.427L273.031 359.914L291.105 223.264H291.077Z" fill="#98AFED"/>
<path d="M305.207 265.975L284.959 359.811L204.931 360.455L305.207 265.975Z" fill="#4D75FE"/>
<path d="M246.89 177.708L164.156 184.733L163.158 208.794L250.751 204.754L246.89 177.708Z" fill="#022791"/>
<path d="M234.56 142.302H240.053C240.053 142.302 240.389 127.515 251.506 112.354C262.623 97.1938 275.419 87.0899 274.411 63.8407C273.404 40.5914 252.523 39.2479 242.077 35.1989C231.641 31.1592 219.172 18.3497 216.141 13.9742C213.11 9.59862 205.947 4.20613 198.244 7.23824C190.54 10.2703 186.166 16.3346 186.166 16.3346C186.166 16.3346 180.44 10.8581 175.73 6.35192C171.011 1.84574 163.27 -1.52222 156.201 1.17403C149.132 3.87027 142.053 10.4383 146.101 26.8676C150.148 43.297 155.035 55.1455 155.035 55.1455L219.517 142.302H234.57H234.56Z" fill="#4D75FE"/>
<path d="M146.511 92.8369C150.297 52.7758 168.484 27.53 170.759 26.8583L246.116 52.0387L239.764 87.0806C246.255 87.1086 251.506 92.3704 251.506 98.8731C251.506 105.376 246.227 110.666 239.718 110.666C238.347 110.666 237.032 110.423 235.81 109.985L234.626 126.787C233.982 135.883 234.402 145.017 235.875 154.02L244.269 205.305L162.804 213.785L166.973 197.72L180.048 154.337C180.048 154.337 171.524 154.869 158.644 150.96C145.765 147.051 142.734 132.889 146.52 92.8276L146.511 92.8369Z" fill="white" stroke="#022791" stroke-width="1.33" stroke-miterlimit="10" stroke-linecap="round"/>
<path d="M245.099 83.0409L239.755 87.0899L233.982 97.8656H230.279C230.279 97.8656 233.646 75.2974 227.248 65.1842C220.851 55.0803 208.391 52.384 200.305 53.3916C192.219 54.3992 166.628 54.7351 157.87 38.5669C149.113 22.3988 166.292 19.3667 166.292 19.3667L258.24 50.6954L255.209 76.6409L245.108 83.0409H245.099Z" fill="#4D75FE"/>
<path d="M190.54 83.806C193.409 83.806 195.735 81.4794 195.735 78.6094C195.735 75.7394 193.409 73.4128 190.54 73.4128C187.671 73.4128 185.346 75.7394 185.346 78.6094C185.346 81.4794 187.671 83.806 190.54 83.806Z" fill="#022791"/>
<path d="M155.39 78.6093C158.259 78.6093 160.584 76.2827 160.584 73.4127C160.584 70.5427 158.259 68.2162 155.39 68.2162C152.521 68.2162 150.195 70.5427 150.195 73.4127C150.195 76.2827 152.521 78.6093 155.39 78.6093Z" fill="#022791"/>
<path d="M170.591 71.6401L158.449 93.2008C156.686 96.3355 158.271 100.301 161.703 101.355L168.586 103.463" stroke="#022791" stroke-width="1.33" stroke-miterlimit="10" stroke-linecap="round"/>
<path d="M185.346 107.634C185.346 107.634 183.322 119.09 164.156 119.09" stroke="#022791" stroke-width="1.33" stroke-miterlimit="10" stroke-linecap="round"/>
<path d="M180.776 153.871C180.776 153.871 192.853 154.197 202.329 149.663C203.681 149.01 205.024 150.596 204.194 151.846L177.185 192.495L169.789 189.389L180.766 153.871H180.776Z" fill="#96D5ED"/>
<path d="M246.89 177.708C246.89 177.708 202.553 213.179 164.156 184.733L130.498 190.349C130.498 190.349 103.638 192.458 85.7317 216.164C77.3007 227.332 42.1127 271.806 7.2418 315.729C-13.5931 341.973 14.0966 378.769 45.0785 365.997L76.2562 353.141L173.511 373.479C182.072 375.27 190.979 372.891 197.516 367.06L293.745 281.229C317.21 260.302 314.58 222.844 288.419 205.398L246.89 177.698V177.708Z" fill="#4D75FE"/>
<path d="M76.2562 353.15L132.605 315.748L122.598 282.553L17.7991 302.444" stroke="#022791" stroke-width="1.33" stroke-miterlimit="10" stroke-linecap="round"/>
<path d="M125.49 292.116L181.242 289.933L164.156 307.314L132.605 315.748L125.49 292.116Z" fill="white" stroke="#022791" stroke-width="1.33" stroke-miterlimit="10" stroke-linecap="round"/>
<path d="M164.156 307.314L240.576 230.131" stroke="#022791" stroke-width="1.33" stroke-miterlimit="10" stroke-linecap="round"/>
<path d="M155.968 290.922L181.242 289.933L243.374 227.976C244.185 227.164 243.084 225.886 242.161 226.576L155.968 290.922Z" fill="#022791"/>
<path d="M83.7358 289.933L104.272 268.895C105.746 267.393 108.152 269.231 107.079 271.041L97.4641 287.33L83.7358 289.933Z" fill="#022791"/>
<path d="M157.544 233.275V267.038L137.791 277.114L118.038 267.038V233.275H157.544Z" stroke="#022791" stroke-width="1.33" stroke-miterlimit="10" stroke-linecap="round"/>
<path d="M157.544 244.442H111.015" stroke="#022791" stroke-width="1.33" stroke-miterlimit="10" stroke-linecap="round"/>
<path d="M205.798 359.681L293.745 281.238" stroke="#022791" stroke-width="1.33" stroke-miterlimit="10" stroke-linecap="round"/>
<path d="M394.31 186.608L372.981 180.395C372.179 180.162 371.405 180.843 371.544 181.664C372.477 187 377.252 203.122 401.193 209.848L394.31 186.608Z" fill="#96D5ED"/>
<path d="M599.646 359.681H206.955" stroke="#022791" stroke-width="1.33" stroke-miterlimit="10" stroke-linecap="round"/>
<path d="M470.226 359.681L450.762 307.267C449.428 303.666 444.149 304.291 443.692 308.107L437.509 359.681H470.226Z" fill="#022791"/>
<path d="M336.935 230.131C331.535 225.578 327.31 220.017 324.018 214.242" stroke="#022791" stroke-width="1.33" stroke-miterlimit="10" stroke-linecap="round"/>
<path d="M361.183 240.748C359.896 240.58 358.646 240.365 357.425 240.113C353.983 239.395 350.803 238.341 347.865 237.025" stroke="#022791" stroke-width="1.33" stroke-miterlimit="10" stroke-linecap="round"/>
<path d="M426.28 219.933C426.28 219.933 419.388 241.214 368.56 241.214" stroke="#022791" stroke-width="1.33" stroke-miterlimit="10" stroke-linecap="round"/>
</svg>
