<svg width="296" height="700" viewBox="0 0 296 700" fill="none" xmlns="http://www.w3.org/2000/svg">
<path d="M124.48 101.638H136.306V198.74" stroke="#022791" stroke-width="1.33" stroke-linecap="round" stroke-linejoin="round"/>
<path d="M112.654 316.367V165.545H124.48" stroke="#022791" stroke-width="1.33" stroke-linecap="round" stroke-linejoin="round"/>
<path d="M112.654 343.516V330.744" stroke="#022791" stroke-width="1.33" stroke-linecap="round" stroke-linejoin="round"/>
<path d="M77.177 624.112V458.391H89.0027" stroke="#022791" stroke-width="1.33" stroke-linecap="round" stroke-linejoin="round"/>
<path d="M89.0027 458.391V343.516" stroke="#022791" stroke-width="1.33" stroke-linecap="round" stroke-linejoin="round"/>
<path d="M183.599 488.992H171.773V624.112H183.599V488.992Z" stroke="#022791" stroke-width="1.33" stroke-linecap="round" stroke-linejoin="round"/>
<path d="M77.177 550.669V624.112" stroke="#022791" stroke-width="1.33" stroke-linecap="round" stroke-linejoin="round"/>
<path d="M89.0027 624.112V343.516H100.828" stroke="#022791" stroke-width="1.33" stroke-linecap="round" stroke-linejoin="round"/>
<path d="M100.828 362.828V343.516V211.689H112.654" stroke="#022791" stroke-width="1.33" stroke-linecap="round" stroke-linejoin="round"/>
<path d="M100.828 413.758V373.884" stroke="#022791" stroke-width="1.33" stroke-linecap="round" stroke-linejoin="round"/>
<path d="M100.828 463.671V433.919" stroke="#96D5ED" stroke-width="1.33" stroke-linecap="round" stroke-linejoin="round"/>
<path d="M112.654 474.12V624.112" stroke="#96D5ED" stroke-width="1.33" stroke-linecap="round" stroke-linejoin="round"/>
<path d="M112.654 404.792V458.381" stroke="#022791" stroke-width="1.33" stroke-linecap="round" stroke-linejoin="round"/>
<path d="M112.654 343.516V390.304" stroke="#96D5ED" stroke-width="1.33" stroke-linecap="round" stroke-linejoin="round"/>
<path d="M124.48 412.639V577.846" stroke="#022791" stroke-width="1.33" stroke-linecap="round" stroke-linejoin="round"/>
<path d="M124.48 373.884V421.53" stroke="#022791" stroke-width="1.33" stroke-linecap="round" stroke-linejoin="round"/>
<path d="M124.48 305.741V362.828" stroke="#022791" stroke-width="1.33" stroke-linecap="round" stroke-linejoin="round"/>
<path d="M124.48 277.323V290.655" stroke="#96D5ED" stroke-width="1.33" stroke-linecap="round" stroke-linejoin="round"/>
<path d="M124.48 1V186.789V198.74V256.219" stroke="#022791" stroke-width="1.33" stroke-linecap="round" stroke-linejoin="round"/>
<path d="M136.306 506.522V535.369" stroke="#022791" stroke-width="1.33" stroke-linecap="round" stroke-linejoin="round"/>
<path d="M136.306 395.276V494.375" stroke="#96D5ED" stroke-width="1.33" stroke-linecap="round" stroke-linejoin="round"/>
<path d="M136.306 222.577V293.575V343.516V384.146" stroke="#96D5ED" stroke-width="1.33" stroke-linecap="round" stroke-linejoin="round"/>
<path d="M148.131 327.227V198.74V293.575V198.74H136.306V211.689" stroke="#022791" stroke-width="1.33" stroke-linecap="round" stroke-linejoin="round"/>
<path d="M148.131 425.812V348.927" stroke="#022791" stroke-width="1.33" stroke-linecap="round" stroke-linejoin="round"/>
<path d="M148.131 462.375V438.622" stroke="#022791" stroke-width="1.33" stroke-linecap="round" stroke-linejoin="round"/>
<path d="M148.131 522.438V476.901" stroke="#022791" stroke-width="1.33" stroke-linecap="round" stroke-linejoin="round"/>
<path d="M159.948 397.702V373.884H171.773V488.992" stroke="#022791" stroke-width="1.33" stroke-linecap="round" stroke-linejoin="round"/>
<path d="M159.948 474.12V450.321V408.403" stroke="#022791" stroke-width="1.33" stroke-linecap="round" stroke-linejoin="round"/>
<path d="M159.948 624.112V488.992" stroke="#96D5ED" stroke-width="1.33" stroke-linecap="round" stroke-linejoin="round"/>
<path d="M171.773 488.992V624.112" stroke="#022791" stroke-width="1.33" stroke-linecap="round" stroke-linejoin="round"/>
<path d="M77.177 624.112H177.686" stroke="#022791" stroke-width="1.33" stroke-linecap="round" stroke-linejoin="round"/>
<path d="M77.177 550.669H65.3513V624.112H77.177V550.669Z" stroke="#022791" stroke-width="1.33" stroke-linecap="round" stroke-linejoin="round"/>
<path d="M159.948 373.884V263.002H148.439" stroke="#022791" stroke-width="1.33" stroke-linecap="round" stroke-linejoin="round"/>
<path d="M100.828 477.05V545.006" stroke="#022791" stroke-width="1.33" stroke-linecap="round" stroke-linejoin="round"/>
<path d="M148.439 541.256V585.114" stroke="#022791" stroke-width="1.33" stroke-linecap="round" stroke-linejoin="round"/>
<mask id="mask0_527_1405" style="mask-type:luminance" maskUnits="userSpaceOnUse" x="251" y="301" width="45" height="326">
<path d="M295.132 301.589V626.388H251.933C252.138 625.614 252.25 624.802 252.25 623.962C252.25 623.431 252.203 622.889 252.1 622.358L252.24 301.589H295.132Z" fill="white"/>
</mask>
<g mask="url(#mask0_527_1405)">
<path d="M284.006 376.431V347.808H280.462V342.322H276.451C276.451 342.247 276.461 342.172 276.461 342.098C276.461 332.88 268.99 325.417 259.785 325.417C250.58 325.417 243.11 332.89 243.11 342.098C243.11 342.172 243.119 342.247 243.119 342.322H239.109V347.808H235.565V376.431H230.286V624.308H289.275V587.409V376.44H283.996L284.006 376.431Z" stroke="#022791" stroke-width="1.33" stroke-linecap="round" stroke-linejoin="round"/>
<path d="M259.795 325.417V312.747" stroke="#022791" stroke-width="1.33" stroke-linecap="round" stroke-linejoin="round"/>
<path d="M238.605 347.808H281.739" stroke="#022791" stroke-width="1.33" stroke-linecap="round" stroke-linejoin="round"/>
<path d="M243.157 356.932H276.423" stroke="#022791" stroke-width="1.33" stroke-linecap="round" stroke-linejoin="round"/>
<path d="M258.079 367.978H276.423" stroke="#022791" stroke-width="1.33" stroke-linecap="round" stroke-linejoin="round"/>
<path d="M253.649 379.034H276.423" stroke="#96D5ED" stroke-width="1.33" stroke-linecap="round" stroke-linejoin="round"/>
<path d="M247.857 390.08H271.723" stroke="#022791" stroke-width="1.33" stroke-linecap="round" stroke-linejoin="round"/>
<path d="M254.88 401.135H271.723" stroke="#022791" stroke-width="1.33" stroke-linecap="round" stroke-linejoin="round"/>
<path d="M247.857 412.182H271.723" stroke="#022791" stroke-width="1.33" stroke-linecap="round" stroke-linejoin="round"/>
<path d="M254.88 423.237H271.723" stroke="#96D5ED" stroke-width="1.33" stroke-linecap="round" stroke-linejoin="round"/>
<path d="M247.857 434.283H263.087H271.723" stroke="#022791" stroke-width="1.33" stroke-linecap="round" stroke-linejoin="round"/>
<path d="M261.697 445.339H271.723" stroke="#022791" stroke-width="1.33" stroke-linecap="round" stroke-linejoin="round"/>
<path d="M247.857 445.339H252.763" stroke="#022791" stroke-width="1.33" stroke-linecap="round" stroke-linejoin="round"/>
<path d="M247.857 456.385H271.723" stroke="#022791" stroke-width="1.33" stroke-linecap="round" stroke-linejoin="round"/>
<path d="M247.857 467.44H271.723" stroke="#022791" stroke-width="1.33" stroke-linecap="round" stroke-linejoin="round"/>
<path d="M247.857 478.487H261.464" stroke="#022791" stroke-width="1.33" stroke-linecap="round" stroke-linejoin="round"/>
<path d="M256.446 489.542H271.723" stroke="#96D5ED" stroke-width="1.33" stroke-linecap="round" stroke-linejoin="round"/>
<path d="M247.857 500.588H262.742" stroke="#022791" stroke-width="1.33" stroke-linecap="round" stroke-linejoin="round"/>
<path d="M247.857 511.635H254.227H267.022" stroke="#022791" stroke-width="1.33" stroke-linecap="round" stroke-linejoin="round"/>
<path d="M247.857 522.69H271.723" stroke="#022791" stroke-width="1.33" stroke-linecap="round" stroke-linejoin="round"/>
<path d="M257.034 533.736H271.723" stroke="#96D5ED" stroke-width="1.33" stroke-linecap="round" stroke-linejoin="round"/>
<path d="M267.022 544.792H271.723" stroke="#022791" stroke-width="1.33" stroke-linecap="round" stroke-linejoin="round"/>
<path d="M247.857 544.792H257.034" stroke="#022791" stroke-width="1.33" stroke-linecap="round" stroke-linejoin="round"/>
<path d="M254.003 555.838H271.723" stroke="#022791" stroke-width="1.33" stroke-linecap="round" stroke-linejoin="round"/>
<path d="M262.742 566.894H271.723" stroke="#022791" stroke-width="1.33" stroke-linecap="round" stroke-linejoin="round"/>
<path d="M247.857 577.94H259.897" stroke="#022791" stroke-width="1.33" stroke-linecap="round" stroke-linejoin="round"/>
<path d="M282.756 401.135H280.657" stroke="#96D5ED" stroke-width="1.33" stroke-linecap="round" stroke-linejoin="round"/>
<path d="M282.756 412.181H280.657" stroke="#96D5ED" stroke-width="1.33" stroke-linecap="round" stroke-linejoin="round"/>
<path d="M282.756 423.237H280.657" stroke="#96D5ED" stroke-width="1.33" stroke-linecap="round" stroke-linejoin="round"/>
<path d="M282.756 445.339H280.657" stroke="#96D5ED" stroke-width="1.33" stroke-linecap="round" stroke-linejoin="round"/>
<path d="M282.756 456.385H280.657" stroke="#96D5ED" stroke-width="1.33" stroke-linecap="round" stroke-linejoin="round"/>
<path d="M282.756 467.44H280.657" stroke="#96D5ED" stroke-width="1.33" stroke-linecap="round" stroke-linejoin="round"/>
<path d="M282.756 489.542H280.657" stroke="#96D5ED" stroke-width="1.33" stroke-linecap="round" stroke-linejoin="round"/>
<path d="M282.756 511.635H280.657" stroke="#96D5ED" stroke-width="1.33" stroke-linecap="round" stroke-linejoin="round"/>
<path d="M282.756 522.69H280.657" stroke="#96D5ED" stroke-width="1.33" stroke-linecap="round" stroke-linejoin="round"/>
<path d="M282.756 533.736H280.657" stroke="#96D5ED" stroke-width="1.33" stroke-linecap="round" stroke-linejoin="round"/>
<path d="M282.756 544.792H280.657" stroke="#96D5ED" stroke-width="1.33" stroke-linecap="round" stroke-linejoin="round"/>
<path d="M282.756 577.94H280.657" stroke="#96D5ED" stroke-width="1.33" stroke-linecap="round" stroke-linejoin="round"/>
</g>
<path d="M242.83 273.675V294.704L242.7 623.981V358.21C242.7 358.21 242.7 358.481 242.7 358.984C242.681 359.88 242.644 361.541 242.578 363.873C242.55 365.095 242.513 366.504 242.476 368.071C242.448 368.92 242.42 369.807 242.392 370.749C242.373 371.467 242.354 372.195 242.326 372.951C242.289 374.275 242.243 375.675 242.205 377.158C242.177 378.035 242.14 378.931 242.112 379.864C242.084 380.573 242.065 381.291 242.037 382.028C241.991 383.381 241.944 384.781 241.897 386.227C241.869 387.122 241.832 388.046 241.795 388.979C241.767 389.679 241.739 390.388 241.711 391.106C241.664 392.477 241.608 393.877 241.552 395.314C241.515 396.228 241.478 397.161 241.431 398.103C241.412 398.794 241.385 399.484 241.357 400.193C241.301 401.564 241.245 402.973 241.179 404.401C241.133 405.334 241.095 406.276 241.058 407.227C241.021 407.909 240.993 408.599 240.965 409.28C240.9 410.661 240.834 412.06 240.778 413.478C240.732 414.43 240.685 415.372 240.648 416.342C240.61 417.005 240.582 417.677 240.545 418.358C240.471 419.738 240.405 421.147 240.34 422.565C240.293 423.526 240.237 424.487 240.191 425.467C240.163 426.12 240.125 426.782 240.097 427.445C240.014 428.825 239.939 430.234 239.883 431.643C239.827 432.623 239.771 433.602 239.715 434.591C239.678 435.235 239.641 435.879 239.603 436.522C239.519 437.912 239.445 439.321 239.37 440.73C239.314 441.719 239.258 442.717 239.193 443.706C239.156 444.331 239.118 444.966 239.081 445.609C238.997 446.999 238.913 448.408 238.838 449.817C238.773 450.806 238.708 451.813 238.643 452.821C238.596 453.437 238.559 454.071 238.521 454.696C238.419 456.086 238.326 457.495 238.242 458.895C238.176 459.911 238.102 460.928 238.036 461.945C237.99 462.552 237.952 463.167 237.906 463.774C237.803 465.173 237.71 466.582 237.617 467.982C237.542 469.008 237.467 470.034 237.402 471.06C237.356 471.657 237.309 472.264 237.262 472.852C237.16 474.251 237.057 475.66 236.945 477.05C236.861 478.095 236.777 479.14 236.703 480.175C236.665 480.772 236.609 481.351 236.563 481.939C236.442 483.329 236.348 484.737 236.218 486.137C236.125 487.191 236.041 488.245 235.957 489.3C235.91 489.878 235.854 490.447 235.807 491.016C235.677 492.416 235.565 493.824 235.434 495.224C235.341 496.297 235.239 497.36 235.145 498.424C235.099 498.984 235.043 499.543 234.987 500.103C234.856 501.503 234.726 502.902 234.586 504.301C234.474 505.393 234.371 506.466 234.269 507.539C234.213 508.089 234.157 508.64 234.101 509.181C233.942 510.59 233.812 511.998 233.653 513.389C233.532 514.489 233.429 515.562 233.299 516.654C233.243 517.195 233.187 517.727 233.121 518.268C232.963 519.677 232.804 521.085 232.636 522.475C232.506 523.586 232.385 524.687 232.245 525.778C232.179 526.31 232.114 526.832 232.049 527.355C231.872 528.764 231.704 530.172 231.527 531.553C231.377 532.673 231.238 533.792 231.079 534.902C231.014 535.416 230.948 535.929 230.874 536.432C230.678 537.851 230.482 539.259 230.277 540.64C230.109 541.778 229.951 542.907 229.783 544.017C229.708 544.521 229.624 545.016 229.559 545.52C229.344 546.938 229.12 548.346 228.897 549.718C228.71 550.875 228.524 552.013 228.328 553.142C228.244 553.627 228.16 554.121 228.085 554.597C227.833 556.025 227.582 557.433 227.33 558.805C227.022 560.475 226.705 562.098 226.379 563.684C226.089 565.112 225.791 566.511 225.493 567.892C225.12 569.571 224.756 571.194 224.364 572.771C224.019 574.227 223.655 575.617 223.282 576.969C223.124 577.585 222.956 578.201 222.779 578.789V624.009H193.727L193.783 273.703C193.783 273.703 193.382 259.634 198.791 252.226C203.902 245.229 216.791 233.772 218.218 232.513V232.392C218.218 232.392 218.246 232.42 218.283 232.457C218.33 232.42 218.358 232.392 218.358 232.392V232.513C219.785 233.763 232.674 245.229 237.775 252.226C243.185 259.634 242.783 273.703 242.783 273.703L242.83 273.675Z" fill="white" stroke="#022791" stroke-width="1.33" stroke-linecap="round" stroke-linejoin="round"/>
<path d="M213.779 578.751V623.972H193.914V358.201C193.914 358.201 193.914 358.471 193.932 358.975C193.951 359.871 193.988 361.531 194.044 363.854C194.063 365.077 194.11 366.485 194.147 368.062C194.194 369.545 194.24 371.178 194.287 372.941C194.324 374.266 194.371 375.666 194.408 377.149C194.464 378.698 194.52 380.321 194.567 382.028C194.613 383.381 194.66 384.79 194.707 386.236C194.762 387.803 194.818 389.436 194.884 391.115C194.93 392.477 194.986 393.877 195.042 395.323C195.108 396.909 195.164 398.542 195.238 400.202C195.294 401.583 195.35 402.983 195.406 404.41C195.471 406.005 195.546 407.638 195.611 409.289C195.676 410.67 195.732 412.07 195.798 413.497C195.872 415.102 195.947 416.725 196.022 418.376C196.087 419.766 196.161 421.166 196.227 422.584C196.301 424.189 196.385 425.812 196.469 427.463C196.544 428.853 196.618 430.253 196.684 431.671C196.777 433.276 196.861 434.908 196.954 436.55C197.029 437.94 197.113 439.349 197.187 440.758C197.281 442.372 197.374 443.995 197.476 445.637C197.56 447.027 197.635 448.436 197.728 449.845C197.84 451.459 197.933 453.092 198.036 454.724C198.129 456.114 198.223 457.523 198.316 458.932C198.418 460.555 198.53 462.179 198.642 463.811C198.745 465.211 198.838 466.61 198.941 468.019C199.053 469.642 199.174 471.275 199.295 472.898C199.398 474.298 199.5 475.697 199.612 477.106C199.733 478.729 199.864 480.362 199.995 481.985C200.106 483.385 200.218 484.784 200.34 486.193C200.47 487.826 200.61 489.449 200.75 491.072C200.871 492.472 200.992 493.871 201.123 495.28C201.272 496.913 201.421 498.536 201.571 500.159C201.692 501.559 201.832 502.958 201.962 504.367C202.121 505.999 202.289 507.632 202.447 509.246C202.597 510.655 202.736 512.054 202.886 513.454C203.054 515.096 203.231 516.719 203.417 518.333C203.576 519.742 203.734 521.141 203.902 522.541C204.098 524.183 204.294 525.806 204.49 527.42C204.658 528.838 204.835 530.238 205.012 531.628C205.227 533.27 205.441 534.893 205.656 536.507C205.851 537.925 206.047 539.325 206.243 540.715C206.486 542.366 206.728 543.989 206.961 545.594C207.176 547.022 207.4 548.421 207.633 549.802C207.894 551.453 208.164 553.086 208.444 554.681C208.696 556.109 208.938 557.517 209.2 558.889C209.507 560.559 209.824 562.182 210.151 563.768C210.449 565.196 210.738 566.604 211.037 567.976C211.41 569.655 211.783 571.278 212.175 572.855C212.52 574.311 212.893 575.71 213.266 577.063C213.424 577.669 213.583 578.266 213.751 578.845C213.751 578.845 213.751 578.863 213.751 578.873L213.779 578.751Z" stroke="#022791" stroke-width="1.33" stroke-linecap="round" stroke-linejoin="round"/>
<path d="M222.835 578.751V623.972H242.7V358.201C242.7 358.201 242.699 358.471 242.681 358.975C242.662 359.871 242.625 361.531 242.569 363.854C242.55 365.077 242.504 366.485 242.466 368.062C242.42 369.545 242.373 371.178 242.326 372.941C242.289 374.266 242.243 375.666 242.205 377.149C242.149 378.698 242.093 380.321 242.047 382.028C242 383.381 241.953 384.79 241.907 386.236C241.851 387.803 241.795 389.436 241.73 391.115C241.683 392.477 241.627 393.877 241.571 395.323C241.506 396.909 241.45 398.542 241.375 400.202C241.319 401.583 241.263 402.983 241.207 404.41C241.142 406.005 241.067 407.638 241.002 409.289C240.937 410.67 240.881 412.07 240.816 413.497C240.741 415.102 240.666 416.725 240.592 418.376C240.526 419.766 240.452 421.166 240.387 422.584C240.312 424.189 240.228 425.812 240.144 427.463C240.069 428.853 239.995 430.253 239.93 431.671C239.836 433.276 239.752 434.908 239.659 436.55C239.585 437.94 239.501 439.349 239.426 440.758C239.333 442.372 239.239 443.995 239.137 445.637C239.053 447.027 238.978 448.436 238.885 449.845C238.773 451.459 238.68 453.092 238.577 454.724C238.484 456.114 238.391 457.523 238.298 458.932C238.195 460.555 238.083 462.179 237.971 463.811C237.868 465.211 237.775 466.61 237.673 468.019C237.561 469.642 237.439 471.275 237.318 472.898C237.216 474.298 237.113 475.697 237.001 477.106C236.88 478.729 236.749 480.362 236.619 481.985C236.507 483.385 236.395 484.784 236.274 486.193C236.143 487.826 236.003 489.449 235.863 491.072C235.742 492.472 235.621 493.871 235.49 495.28C235.341 496.913 235.192 498.536 235.043 500.159C234.921 501.559 234.781 502.958 234.651 504.367C234.492 505.999 234.324 507.632 234.166 509.246C234.017 510.655 233.877 512.054 233.728 513.454C233.56 515.096 233.383 516.719 233.196 518.333C233.037 519.742 232.879 521.141 232.711 522.541C232.515 524.183 232.319 525.806 232.123 527.42C231.956 528.838 231.778 530.238 231.601 531.628C231.387 533.27 231.172 534.893 230.958 536.507C230.762 537.925 230.566 539.325 230.37 540.715C230.128 542.366 229.885 543.989 229.652 545.594C229.438 547.022 229.214 548.421 228.981 549.802C228.719 551.453 228.449 553.086 228.169 554.681C227.917 556.109 227.675 557.517 227.414 558.889C227.106 560.559 226.789 562.182 226.462 563.768C226.164 565.196 225.875 566.604 225.576 567.976C225.203 569.655 224.83 571.278 224.439 572.855C224.094 574.311 223.721 575.71 223.347 577.063C223.189 577.669 223.03 578.266 222.863 578.845C222.863 578.845 222.863 578.863 222.863 578.873L222.835 578.751Z" stroke="#022791" stroke-width="1.33" stroke-linecap="round" stroke-linejoin="round"/>
<path d="M194.455 297.755H242.588C242.588 268.003 218.171 245.49 218.171 245.49H218.199C218.199 245.49 193.783 267.993 193.783 297.755H241.916" stroke="#022791" stroke-width="1.33" stroke-linecap="round" stroke-linejoin="round"/>
<path d="M224.42 306.916H242.588" stroke="#022791" stroke-width="1.33" stroke-linecap="round" stroke-linejoin="round"/>
<path d="M224.42 316.031H235.994" stroke="#FFD125" stroke-width="1.33" stroke-linecap="round" stroke-linejoin="round"/>
<path d="M224.42 343.385H236.246" stroke="#FFD125" stroke-width="1.33" stroke-linecap="round" stroke-linejoin="round"/>
<path d="M224.42 370.74H235.574" stroke="#FFD125" stroke-width="1.33" stroke-linecap="round" stroke-linejoin="round"/>
<path d="M224.42 407.218H235.994" stroke="#FFD125" stroke-width="1.33" stroke-linecap="round" stroke-linejoin="round"/>
<path d="M224.42 434.573H234.306" stroke="#FFD125" stroke-width="1.33" stroke-linecap="round" stroke-linejoin="round"/>
<path d="M229.801 471.042H224.429" stroke="#FFD125" stroke-width="1.33" stroke-linecap="round" stroke-linejoin="round"/>
<path d="M227.74 516.635H218.834" stroke="#FFD125" stroke-width="1.33" stroke-linecap="round" stroke-linejoin="round"/>
<path d="M228.132 534.875H221.426" stroke="#FFD125" stroke-width="1.33" stroke-linecap="round" stroke-linejoin="round"/>
<path d="M224.42 325.146H242.588" stroke="#022791" stroke-width="1.33" stroke-linecap="round" stroke-linejoin="round"/>
<path d="M224.42 334.27H232.002" stroke="#022791" stroke-width="1.33" stroke-linecap="round" stroke-linejoin="round"/>
<path d="M232.664 352.51H242.588" stroke="#022791" stroke-width="1.33" stroke-linecap="round" stroke-linejoin="round"/>
<path d="M224.42 361.625H242.588" stroke="#022791" stroke-width="1.33" stroke-linecap="round" stroke-linejoin="round"/>
<path d="M230.911 379.864H242.588" stroke="#022791" stroke-width="1.33" stroke-linecap="round" stroke-linejoin="round"/>
<path d="M224.42 388.979H242.588" stroke="#022791" stroke-width="1.33" stroke-linecap="round" stroke-linejoin="round"/>
<path d="M232.002 398.094H242.588" stroke="#022791" stroke-width="1.33" stroke-linecap="round" stroke-linejoin="round"/>
<path d="M224.42 416.333H230.911H242.588" fill="white"/>
<path d="M224.42 416.333H230.911H242.588" stroke="#022791" stroke-width="1.33" stroke-linecap="round" stroke-linejoin="round"/>
<path d="M224.42 425.458H229.895" stroke="#022791" stroke-width="1.33" stroke-linecap="round" stroke-linejoin="round"/>
<path d="M229.895 443.687H242.588" stroke="#022791" stroke-width="1.33" stroke-linecap="round" stroke-linejoin="round"/>
<path d="M233.336 452.802H224.429" stroke="#022791" stroke-width="1.33" stroke-linecap="round" stroke-linejoin="round"/>
<path d="M238.083 461.927H224.429" stroke="#022791" stroke-width="1.33" stroke-linecap="round" stroke-linejoin="round"/>
<path d="M231.256 480.166H224.429" stroke="#022791" stroke-width="1.33" stroke-linecap="round" stroke-linejoin="round"/>
<path d="M235.994 489.281H224.429" stroke="#022791" stroke-width="1.33" stroke-linecap="round" stroke-linejoin="round"/>
<path d="M235.183 498.405H224.429" stroke="#022791" stroke-width="1.33" stroke-linecap="round" stroke-linejoin="round"/>
<path d="M234.306 507.52H224.429" stroke="#022791" stroke-width="1.33" stroke-linecap="round" stroke-linejoin="round"/>
<path d="M232.291 525.75H224.429" stroke="#022791" stroke-width="1.33" stroke-linecap="round" stroke-linejoin="round"/>
<path d="M224.429 543.99H219.011" stroke="#022791" stroke-width="1.33" stroke-linecap="round" stroke-linejoin="round"/>
<path d="M228.384 553.114H224.429" stroke="#022791" stroke-width="1.33" stroke-linecap="round" stroke-linejoin="round"/>
<path d="M212.035 306.916H208.267" stroke="#022791" stroke-width="1.33" stroke-linecap="round" stroke-linejoin="round"/>
<path d="M212.035 316.031H193.867" stroke="#022791" stroke-width="1.33" stroke-linecap="round" stroke-linejoin="round"/>
<path d="M212.035 325.146H193.867" stroke="#022791" stroke-width="1.33" stroke-linecap="round" stroke-linejoin="round"/>
<path d="M212.035 334.27H204.76" stroke="#FFD125" stroke-width="1.33" stroke-linecap="round" stroke-linejoin="round"/>
<path d="M212.035 343.385H204.984H193.867" fill="white"/>
<path d="M212.035 343.385H204.984H193.867" stroke="#022791" stroke-width="1.33" stroke-linecap="round" stroke-linejoin="round"/>
<path d="M212.035 352.51H193.867" stroke="#022791" stroke-width="1.33" stroke-linecap="round" stroke-linejoin="round"/>
<path d="M211.531 361.625H198.437" stroke="#FFD125" stroke-width="1.33" stroke-linecap="round" stroke-linejoin="round"/>
<path d="M212.035 370.74H203.744H193.867" fill="white"/>
<path d="M212.035 370.74H203.744H193.867" stroke="#022791" stroke-width="1.33" stroke-linecap="round" stroke-linejoin="round"/>
<path d="M212.035 379.864H193.867" stroke="#022791" stroke-width="1.33" stroke-linecap="round" stroke-linejoin="round"/>
<path d="M210.822 388.979H200.386" stroke="#FFD125" stroke-width="1.33" stroke-linecap="round" stroke-linejoin="round"/>
<path d="M212.035 398.094H193.867" stroke="#022791" stroke-width="1.33" stroke-linecap="round" stroke-linejoin="round"/>
<path d="M212.035 407.218H193.867" stroke="#022791" stroke-width="1.33" stroke-linecap="round" stroke-linejoin="round"/>
<path d="M212.035 416.333H204.714H193.867" fill="white"/>
<path d="M212.035 416.333H204.714H193.867" stroke="#022791" stroke-width="1.33" stroke-linecap="round" stroke-linejoin="round"/>
<path d="M212.035 425.458H199.174" stroke="#FFD125" stroke-width="1.33" stroke-linecap="round" stroke-linejoin="round"/>
<path d="M212.035 434.573H193.867" stroke="#022791" stroke-width="1.33" stroke-linecap="round" stroke-linejoin="round"/>
<path d="M193.923 443.687H193.867" stroke="#022791" stroke-width="1.33" stroke-linecap="round" stroke-linejoin="round"/>
<path d="M217.388 443.23L202.736 443.221" stroke="#FFD125" stroke-width="1.33" stroke-linecap="round" stroke-linejoin="round"/>
<path d="M193.923 452.802H193.867" stroke="#022791" stroke-width="1.33" stroke-linecap="round" stroke-linejoin="round"/>
<path d="M212.035 452.802H197.943" stroke="#022791" stroke-width="1.33" stroke-linecap="round" stroke-linejoin="round"/>
<path d="M193.923 461.927H193.867" stroke="#022791" stroke-width="1.33" stroke-linecap="round" stroke-linejoin="round"/>
<path d="M205.6 461.927H198.54" stroke="#022791" stroke-width="1.33" stroke-linecap="round" stroke-linejoin="round"/>
<path d="M193.923 471.042H193.867" stroke="#022791" stroke-width="1.33" stroke-linecap="round" stroke-linejoin="round"/>
<path d="M212.035 471.042H199.174" stroke="#022791" stroke-width="1.33" stroke-linecap="round" stroke-linejoin="round"/>
<path d="M193.923 480.166H193.867" stroke="#022791" stroke-width="1.33" stroke-linecap="round" stroke-linejoin="round"/>
<path d="M212.035 480.166H208.407" stroke="#FFD125" stroke-width="1.33" stroke-linecap="round" stroke-linejoin="round"/>
<path d="M193.923 489.281H193.867" stroke="#022791" stroke-width="1.33" stroke-linecap="round" stroke-linejoin="round"/>
<path d="M212.035 489.281H207.269H200.619" fill="white"/>
<path d="M212.035 489.281H207.269H200.619" stroke="#022791" stroke-width="1.33" stroke-linecap="round" stroke-linejoin="round"/>
<path d="M193.923 498.405H193.867" stroke="#022791" stroke-width="1.33" stroke-linecap="round" stroke-linejoin="round"/>
<path d="M210.3 498.405H205.012" stroke="#FFD125" stroke-width="1.33" stroke-linecap="round" stroke-linejoin="round"/>
<path d="M193.923 507.52H193.867" stroke="#022791" stroke-width="1.33" stroke-linecap="round" stroke-linejoin="round"/>
<path d="M212.035 507.52H202.317" stroke="#022791" stroke-width="1.33" stroke-linecap="round" stroke-linejoin="round"/>
<path d="M193.923 516.635H193.867" stroke="#022791" stroke-width="1.33" stroke-linecap="round" stroke-linejoin="round"/>
<path d="M212.035 516.645H203.277" stroke="#022791" stroke-width="1.33" stroke-linecap="round" stroke-linejoin="round"/>
<path d="M193.923 525.75H193.867" stroke="#022791" stroke-width="1.33" stroke-linecap="round" stroke-linejoin="round"/>
<path d="M215.887 525.75H208.183" stroke="#FFD125" stroke-width="1.33" stroke-linecap="round" stroke-linejoin="round"/>
<path d="M193.923 534.875H193.867" stroke="#022791" stroke-width="1.33" stroke-linecap="round" stroke-linejoin="round"/>
<path d="M212.035 534.875H205.488" stroke="#022791" stroke-width="1.33" stroke-linecap="round" stroke-linejoin="round"/>
<path d="M193.923 543.99H193.867" stroke="#022791" stroke-width="1.33" stroke-linecap="round" stroke-linejoin="round"/>
<path d="M212.035 543.99H206.775" stroke="#022791" stroke-width="1.33" stroke-linecap="round" stroke-linejoin="round"/>
<path d="M193.923 553.114H193.867" stroke="#022791" stroke-width="1.33" stroke-linecap="round" stroke-linejoin="round"/>
<path d="M212.035 553.114H208.23" stroke="#022791" stroke-width="1.33" stroke-linecap="round" stroke-linejoin="round"/>
<path d="M214.711 288.08H240.9" stroke="#022791" stroke-width="1.33" stroke-linecap="round" stroke-linejoin="round"/>
<path d="M220.074 279.375H196.796" stroke="#022791" stroke-width="1.33" stroke-linecap="round" stroke-linejoin="round"/>
<path d="M207.306 270.68H200.246" stroke="#022791" stroke-width="1.33" stroke-linecap="round" stroke-linejoin="round"/>
<path d="M236.115 270.68H218.806" stroke="#022791" stroke-width="1.33" stroke-linecap="round" stroke-linejoin="round"/>
<path d="M231.34 261.976H205.031" stroke="#022791" stroke-width="1.33" stroke-linecap="round" stroke-linejoin="round"/>
<path d="M221.902 623.972H242.839" stroke="#022791" stroke-width="1.33" stroke-linecap="round" stroke-linejoin="round"/>
<path d="M62.4601 355.262V282.697H54.8872V268.628H51.9121V259.242H51.679C51.679 259.242 49.4407 247.291 37.8108 244.707C37.5683 244.595 35.5259 244.212 33.4834 244.212C31.441 244.212 29.3892 244.585 29.156 244.707C17.5262 247.291 15.2879 259.242 15.2879 259.242H15.148V268.628H12.1729V282.697H4.00309V355.262H1.01868V698.692H65.4632V361.28V355.262H62.4788H62.4601Z" stroke="#1D4FC6" stroke-width="1.33" stroke-linecap="round" stroke-linejoin="round"/>
<path d="M1 355.262H62.4601" stroke="#1D4FC6" stroke-width="1.33" stroke-linecap="round" stroke-linejoin="round"/>
<path d="M12.1636 268.628H53.2644" stroke="#1D4FC6" stroke-width="1.33" stroke-linecap="round" stroke-linejoin="round"/>
<path d="M15.2786 259.242H51.9122" stroke="#1D4FC6" stroke-width="1.33" stroke-linecap="round" stroke-linejoin="round"/>
<path d="M33.4741 244.222V220.207" stroke="#1D4FC6" stroke-width="1.33" stroke-linecap="round" stroke-linejoin="round"/>
<path d="M12.1636 282.697H56.5473" stroke="#1D4FC6" stroke-width="1.33" stroke-linecap="round" stroke-linejoin="round"/>
<path d="M48.1816 647.034H50.8956" stroke="#FFD125" stroke-width="1.33" stroke-linecap="round" stroke-linejoin="round"/>
<path d="M24.3251 647.034H37.9508" stroke="#FFD125" stroke-width="1.33" stroke-linecap="round" stroke-linejoin="round"/>
<path d="M42.6324 638.386H50.8955" stroke="#FFD125" stroke-width="1.33" stroke-linecap="round" stroke-linejoin="round"/>
<path d="M15.5583 638.386H33.5767" stroke="#FFD125" stroke-width="1.33" stroke-linecap="round" stroke-linejoin="round"/>
<path d="M44.9641 629.747H50.8956" stroke="#FFD125" stroke-width="1.33" stroke-linecap="round" stroke-linejoin="round"/>
<path d="M22.7582 629.747H34.2575" stroke="#FFD125" stroke-width="1.33" stroke-linecap="round" stroke-linejoin="round"/>
<path d="M24.0266 621.098H50.8956" stroke="#FFD125" stroke-width="1.33" stroke-linecap="round" stroke-linejoin="round"/>
<path d="M15.5583 612.45H50.8956" stroke="#FFD125" stroke-width="1.33" stroke-linecap="round" stroke-linejoin="round"/>
<path d="M15.5583 603.801H40.6833" stroke="#FFD125" stroke-width="1.33" stroke-linecap="round" stroke-linejoin="round"/>
<path d="M15.5583 595.153H50.8956" stroke="#FFD125" stroke-width="1.33" stroke-linecap="round" stroke-linejoin="round"/>
<path d="M37.2699 586.504H50.8956" stroke="#FFD125" stroke-width="1.33" stroke-linecap="round" stroke-linejoin="round"/>
<path d="M15.5583 586.504H26.8525" stroke="#FFD125" stroke-width="1.33" stroke-linecap="round" stroke-linejoin="round"/>
<path d="M15.5583 577.856H50.8956" stroke="#FFD125" stroke-width="1.33" stroke-linecap="round" stroke-linejoin="round"/>
<path d="M28.3167 569.207H50.8955" stroke="#FFD125" stroke-width="1.33" stroke-linecap="round" stroke-linejoin="round"/>
<path d="M15.5583 569.207H20.035" stroke="#FFD125" stroke-width="1.33" stroke-linecap="round" stroke-linejoin="round"/>
<path d="M44.9641 560.559H50.8956" stroke="#FFD125" stroke-width="1.33" stroke-linecap="round" stroke-linejoin="round"/>
<path d="M15.5583 560.559H35.0782" stroke="#FFD125" stroke-width="1.33" stroke-linecap="round" stroke-linejoin="round"/>
<path d="M15.5583 551.91H50.8956" stroke="#FFD125" stroke-width="1.33" stroke-linecap="round" stroke-linejoin="round"/>
<path d="M15.5583 543.271H50.8956" stroke="#FFD125" stroke-width="1.33" stroke-linecap="round" stroke-linejoin="round"/>
<path d="M15.5583 534.623H50.8956" stroke="#FFD125" stroke-width="1.33" stroke-linecap="round" stroke-linejoin="round"/>
<path d="M24.9966 525.974H50.8956" stroke="#FFD125" stroke-width="1.33" stroke-linecap="round" stroke-linejoin="round"/>
<path d="M15.5583 517.326H44.0874" stroke="#FFD125" stroke-width="1.33" stroke-linecap="round" stroke-linejoin="round"/>
<path d="M15.5583 508.677H50.8956" stroke="#FFD125" stroke-width="1.33" stroke-linecap="round" stroke-linejoin="round"/>
<path d="M15.5583 500.029H50.8956" stroke="#FFD125" stroke-width="1.33" stroke-linecap="round" stroke-linejoin="round"/>
<path d="M15.5583 491.38H50.8956" stroke="#FFD125" stroke-width="1.33" stroke-linecap="round" stroke-linejoin="round"/>
<path d="M15.5583 482.732H50.8956" stroke="#FFD125" stroke-width="1.33" stroke-linecap="round" stroke-linejoin="round"/>
<path d="M42.3341 474.083H50.8956" stroke="#FFD125" stroke-width="1.33" stroke-linecap="round" stroke-linejoin="round"/>
<path d="M15.5583 474.083H31.5249" stroke="#FFD125" stroke-width="1.33" stroke-linecap="round" stroke-linejoin="round"/>
<path d="M15.5583 465.444H50.8956" stroke="#FFD125" stroke-width="1.33" stroke-linecap="round" stroke-linejoin="round"/>
<path d="M15.5583 456.795H50.8956" stroke="#FFD125" stroke-width="1.33" stroke-linecap="round" stroke-linejoin="round"/>
<path d="M15.5583 448.147H43.9941" stroke="#FFD125" stroke-width="1.33" stroke-linecap="round" stroke-linejoin="round"/>
<path d="M15.5583 439.498H50.8956" stroke="#FFD125" stroke-width="1.33" stroke-linecap="round" stroke-linejoin="round"/>
<path d="M15.5583 430.85H50.8956" stroke="#FFD125" stroke-width="1.33" stroke-linecap="round" stroke-linejoin="round"/>
<path d="M15.5583 422.201H50.8956" stroke="#FFD125" stroke-width="1.33" stroke-linecap="round" stroke-linejoin="round"/>
<path d="M24.2131 413.553H50.8956" stroke="#FFD125" stroke-width="1.33" stroke-linecap="round" stroke-linejoin="round"/>
<path d="M30.8441 404.904H50.8956" stroke="#FFD125" stroke-width="1.33" stroke-linecap="round" stroke-linejoin="round"/>
<path d="M15.5583 404.904H21.2101" stroke="#FFD125" stroke-width="1.33" stroke-linecap="round" stroke-linejoin="round"/>
<path d="M15.5583 396.256H50.8956" stroke="#FFD125" stroke-width="1.33" stroke-linecap="round" stroke-linejoin="round"/>
<path d="M15.5583 387.617H50.8956" stroke="#FFD125" stroke-width="1.33" stroke-linecap="round" stroke-linejoin="round"/>
<path d="M15.5583 378.968H50.8956" stroke="#FFD125" stroke-width="1.33" stroke-linecap="round" stroke-linejoin="round"/>
<path d="M15.5583 370.32H50.8956" stroke="#FFD125" stroke-width="1.33" stroke-linecap="round" stroke-linejoin="round"/>
<path d="M15.5583 361.671H50.8956" stroke="#FFD125" stroke-width="1.33" stroke-linecap="round" stroke-linejoin="round"/>
<path d="M19.9789 345.027H30.0419" stroke="#FFD125" stroke-width="1.33" stroke-linecap="round" stroke-linejoin="round"/>
<path d="M13.1801 336.612H30.0419" stroke="#FFD125" stroke-width="1.33" stroke-linecap="round" stroke-linejoin="round"/>
<path d="M13.1801 328.197H23.2151" stroke="#FFD125" stroke-width="1.33" stroke-linecap="round" stroke-linejoin="round"/>
<path d="M13.1801 319.782H30.0419" stroke="#FFD125" stroke-width="1.33" stroke-linecap="round" stroke-linejoin="round"/>
<path d="M13.1801 311.366H30.0419" stroke="#FFD125" stroke-width="1.33" stroke-linecap="round" stroke-linejoin="round"/>
<path d="M13.1801 302.951H30.0419" stroke="#FFD125" stroke-width="1.33" stroke-linecap="round" stroke-linejoin="round"/>
<path d="M13.1801 294.536H30.0419" stroke="#FFD125" stroke-width="1.33" stroke-linecap="round" stroke-linejoin="round"/>
<path d="M36.9154 345.027H53.7773" stroke="#FFD125" stroke-width="1.33" stroke-linecap="round" stroke-linejoin="round"/>
<path d="M36.9154 336.612H53.7773" stroke="#FFD125" stroke-width="1.33" stroke-linecap="round" stroke-linejoin="round"/>
<path d="M36.9154 328.197H53.7773" stroke="#FFD125" stroke-width="1.33" stroke-linecap="round" stroke-linejoin="round"/>
<path d="M36.9154 319.782H45.3463" stroke="#FFD125" stroke-width="1.33" stroke-linecap="round" stroke-linejoin="round"/>
<path d="M36.9154 311.366H53.7773" stroke="#FFD125" stroke-width="1.33" stroke-linecap="round" stroke-linejoin="round"/>
<path d="M44.507 302.951H53.7773" stroke="#FFD125" stroke-width="1.33" stroke-linecap="round" stroke-linejoin="round"/>
<path d="M36.9154 294.536H53.7773" stroke="#FFD125" stroke-width="1.33" stroke-linecap="round" stroke-linejoin="round"/>
</svg>
