<svg width="215" height="414" viewBox="0 0 215 414" fill="none" xmlns="http://www.w3.org/2000/svg">
<path d="M196.309 0H26.8504C16.8837 0 8.80405 8.08246 8.80405 18.0527V395.685C8.80405 405.655 16.8837 413.738 26.8504 413.738H196.309C206.275 413.738 214.355 405.655 214.355 395.685V18.0527C214.355 8.08246 206.275 0 196.309 0Z" fill="#1D4FC6"/>
<path d="M214.103 26.1881H9.37296V372.296H214.103V26.1881Z" fill="white"/>
<path d="M213.684 26.5986V371.886H9.78327V26.5986H213.684ZM214.504 25.7776H8.95325V372.716H214.504V25.7776Z" fill="#022791"/>
<path d="M135.846 11.5873H87.3033C86.5049 11.5873 85.8577 12.2347 85.8577 13.0334V13.0427C85.8577 13.8413 86.5049 14.4888 87.3033 14.4888H135.846C136.645 14.4888 137.292 13.8413 137.292 13.0427V13.0334C137.292 12.2347 136.645 11.5873 135.846 11.5873Z" fill="#022791"/>
<path d="M11.0423 118.121C17.1408 118.121 22.0846 113.176 22.0846 107.075C22.0846 100.975 17.1408 96.0291 11.0423 96.0291C4.9438 96.0291 0 100.975 0 107.075C0 113.176 4.9438 118.121 11.0423 118.121Z" fill="#FFD125"/>
<path d="M88.9073 211.436L78.3034 221.362L88.9073 231.289" stroke="#4D75FE" stroke-width="1.33" stroke-linecap="round" stroke-linejoin="round"/>
<path d="M165.336 298.294L175.94 288.358L165.336 278.431" stroke="#4D75FE" stroke-width="1.33" stroke-linecap="round" stroke-linejoin="round"/>
<path d="M99.7818 221.409H190.713" stroke="#4D75FE" stroke-width="1.33" stroke-linecap="round" stroke-linejoin="round"/>
<path d="M99.7818 255.303H190.713" stroke="#4D75FE" stroke-width="1.33" stroke-linecap="round" stroke-linejoin="round"/>
<path d="M136.052 237.045H190.713" stroke="#4D75FE" stroke-width="1.33" stroke-linecap="round" stroke-linejoin="round"/>
</svg>
