<svg width="178" height="128" viewBox="0 0 178 128" fill="none" xmlns="http://www.w3.org/2000/svg">
<path d="M4.84033 0.363892H172.228C174.7 0.363892 176.714 2.36974 176.714 4.85141V122.898C176.714 125.371 174.709 127.386 172.228 127.386H4.84033C2.36887 127.386 0.354401 125.371 0.354401 122.898V4.85141C0.354401 2.37907 2.36887 0.363892 4.84033 0.363892Z" fill="white"/>
<path d="M172.228 0.709027C174.504 0.709027 176.36 2.56563 176.36 4.84204V122.889C176.36 125.165 174.504 127.022 172.228 127.022H4.84034C2.56473 127.022 0.708806 125.165 0.708806 122.889V4.84204C0.708806 2.56563 2.56473 0.709027 4.84034 0.709027H172.228ZM172.228 0H4.84034C2.1637 0 0 2.16446 0 4.84204V122.889C0 125.566 2.1637 127.731 4.84034 127.731H172.228C174.905 127.731 177.069 125.566 177.069 122.889V4.84204C177.069 2.16446 174.905 0 172.228 0Z" fill="#022791"/>
<path d="M177.069 16.3734H0V1.73528C0 0.77434 0.774067 0 1.73467 0H175.334C176.294 0 177.069 0.77434 177.069 1.73528V16.3734Z" fill="#022791"/>
<path d="M157.856 29.1642H15.1552C13.476 29.1642 12.1148 30.5238 12.1148 32.201C12.1148 33.8781 13.476 35.2377 15.1552 35.2377H157.856C159.536 35.2377 160.897 33.8781 160.897 32.201C160.897 30.5238 159.536 29.1642 157.856 29.1642Z" fill="#FFD125"/>
<path d="M47.0324 48.0193H15.1552C13.476 48.0193 12.1148 49.3789 12.1148 51.056C12.1148 52.7332 13.476 54.0928 15.1552 54.0928H47.0324C48.7115 54.0928 50.0727 52.7332 50.0727 51.056C50.0727 49.3789 48.7115 48.0193 47.0324 48.0193Z" fill="#FFD125"/>
<path d="M91.0617 48.0193H59.1845C57.5054 48.0193 56.1441 49.3789 56.1441 51.056C56.1441 52.7332 57.5054 54.0928 59.1845 54.0928H91.0617C92.7408 54.0928 94.1021 52.7332 94.1021 51.056C94.1021 49.3789 92.7408 48.0193 91.0617 48.0193Z" fill="#FFD125"/>
<path d="M135.082 48.0193H103.204C101.525 48.0193 100.164 49.3789 100.164 51.056C100.164 52.7332 101.525 54.0928 103.204 54.0928H135.082C136.761 54.0928 138.122 52.7332 138.122 51.056C138.122 49.3789 136.761 48.0193 135.082 48.0193Z" fill="#FFD125"/>
<path d="M77.8371 66.8837H15.1552C13.476 66.8837 12.1148 68.2433 12.1148 69.9204C12.1148 71.5976 13.476 72.9572 15.1552 72.9572H77.8371C79.5162 72.9572 80.8774 71.5976 80.8774 69.9204C80.8774 68.2433 79.5162 66.8837 77.8371 66.8837Z" fill="#FFD125"/>
<path d="M155.124 66.8837H87.8068C86.1277 66.8837 84.7664 68.2433 84.7664 69.9204C84.7664 71.5976 86.1277 72.9572 87.8068 72.9572H155.124C156.803 72.9572 158.164 71.5976 158.164 69.9204C158.164 68.2433 156.803 66.8837 155.124 66.8837Z" fill="#FFD125"/>
<path d="M157.856 85.748H15.1552C13.476 85.748 12.1148 87.1076 12.1148 88.7848C12.1148 90.462 13.476 91.8216 15.1552 91.8216H157.856C159.536 91.8216 160.897 90.462 160.897 88.7848C160.897 87.1076 159.536 85.748 157.856 85.748Z" fill="#FFD125"/>
<path d="M50.0634 104.612H15.1552C13.476 104.612 12.1148 105.972 12.1148 107.649C12.1148 109.326 13.476 110.686 15.1552 110.686H50.0634C51.7425 110.686 53.1038 109.326 53.1038 107.649C53.1038 105.972 51.7425 104.612 50.0634 104.612Z" fill="#FFD125"/>
<path d="M156.635 104.612H63.4186C61.7395 104.612 60.3783 105.972 60.3783 107.649C60.3783 109.326 61.7395 110.686 63.4186 110.686H156.635C158.314 110.686 159.675 109.326 159.675 107.649C159.675 105.972 158.314 104.612 156.635 104.612Z" fill="#FFD125"/>
<path d="M12.9915 11.0836C14.3976 11.0836 15.5375 9.94326 15.5375 8.5366C15.5375 7.12995 14.3976 5.98962 12.9915 5.98962C11.5853 5.98962 10.4454 7.12995 10.4454 8.5366C10.4454 9.94326 11.5853 11.0836 12.9915 11.0836Z" fill="#96D5ED"/>
<path d="M24.5281 11.0836C25.9342 11.0836 27.0741 9.94326 27.0741 8.5366C27.0741 7.12995 25.9342 5.98962 24.5281 5.98962C23.1219 5.98962 21.982 7.12995 21.982 8.5366C21.982 9.94326 23.1219 11.0836 24.5281 11.0836Z" fill="#96D5ED"/>
<path d="M36.0647 11.0836C37.4708 11.0836 38.6108 9.94326 38.6108 8.5366C38.6108 7.12995 37.4708 5.98962 36.0647 5.98962C34.6585 5.98962 33.5186 7.12995 33.5186 8.5366C33.5186 9.94326 34.6585 11.0836 36.0647 11.0836Z" fill="#96D5ED"/>
</svg>
