<svg width="122" height="122" viewBox="0 0 122 122" fill="none" xmlns="http://www.w3.org/2000/svg">
<path d="M61.4153 121.904H61.4247C94.8737 121.904 121.989 94.7783 121.989 61.3175V61.3081C121.989 27.8473 94.8737 0.721977 61.4247 0.721977H61.4153C27.9663 0.721977 0.850525 27.8473 0.850525 61.3081V61.3175C0.850525 94.7783 27.9663 121.904 61.4153 121.904Z" fill="#FFD125"/>
<path d="M73.9591 60.2911C73.9591 59.9459 73.8193 59.6101 73.5768 59.3675L68.1582 53.9471C67.6453 53.4339 66.8245 53.4339 66.3209 53.9471C65.8173 54.4602 65.808 55.2812 66.3209 55.7849L70.8162 60.2818L69.4079 61.6906C69.0535 62.0451 68.9323 62.5768 69.1002 63.0527C69.2681 63.5285 69.7064 63.8644 70.21 63.9017L82.2875 64.9839C82.2875 64.9839 82.3621 64.9839 82.3995 64.9839C82.7445 64.9839 83.0709 64.844 83.3227 64.6014C83.5932 64.3308 83.7331 63.9483 83.6958 63.5658L82.6139 51.484C82.5673 50.9802 82.2409 50.5511 81.7652 50.3738C81.2896 50.1966 80.758 50.3179 80.4036 50.6817L78.9953 52.0904L75.8711 48.965C75.3581 48.4519 74.5374 48.4519 74.0338 48.965C73.5301 49.4782 73.5208 50.2991 74.0338 50.8029L78.0814 54.852C78.5943 55.3651 79.415 55.3651 79.9186 54.852L80.2824 54.4881L80.9725 62.241L73.2224 61.5506L73.5861 61.1867C73.8286 60.9442 73.9685 60.6083 73.9685 60.2631L73.9591 60.2911Z" fill="white"/>
<path d="M99.5691 64.6107H93.7961V63.0713C95.8759 62.4929 97.424 60.599 97.424 58.3413C97.424 55.6264 95.2137 53.4153 92.4997 53.4153C89.7858 53.4153 87.5755 55.6264 87.5755 58.3413C87.5755 60.6083 89.1143 62.4929 91.2034 63.0713V64.6107H85.4305C84.7123 64.6107 84.1248 65.1985 84.1248 65.9168V71.6918H82.5859C82.0077 69.6114 80.1144 68.0626 77.8575 68.0626C75.6005 68.0626 73.7073 69.602 73.1291 71.6918H62.7396V51.6893H69.8649C70.583 51.6893 71.1706 51.1015 71.1706 50.3832V42.7423C71.1706 39.9341 69.1934 37.5923 66.5634 37.0046C67.2908 36.0156 67.7385 34.8028 67.7385 33.478V28.1602C67.7385 27.4418 67.1602 26.854 66.4328 26.854H56.4444C55.7263 26.854 55.1387 27.4418 55.1387 28.1602V33.478C55.1387 34.8028 55.5864 36.0156 56.3138 37.0046C53.6838 37.5923 51.7066 39.9341 51.7066 42.7423V50.3832C51.7066 51.1015 52.2849 51.6893 53.0123 51.6893H60.1376V71.6918H49.7481C49.1699 69.6114 47.2767 68.0626 45.0197 68.0626C42.7628 68.0626 40.8695 69.602 40.2913 71.6918H38.7432V65.9168C38.7432 65.1985 38.1649 64.6107 37.4375 64.6107H31.6645V63.0713C33.7443 62.4929 35.2924 60.599 35.2924 58.3413C35.2924 55.6264 33.0821 53.4153 30.3681 53.4153C27.6542 53.4153 25.4439 55.6264 25.4439 58.3413C25.4439 60.6083 26.9827 62.4929 29.0718 63.0713V64.6107H23.2988C22.5807 64.6107 21.9932 65.1985 21.9932 65.9168V80.0791C21.9932 80.7975 22.5807 81.3853 23.2988 81.3853H37.4561C38.1743 81.3853 38.7618 80.7975 38.7618 80.0791V74.3041H40.31C40.8882 76.3846 42.7814 77.9333 45.0384 77.9333C47.2954 77.9333 49.1885 76.3939 49.7668 74.3041H73.1384C73.7166 76.3846 75.6099 77.9333 77.8668 77.9333C80.1238 77.9333 82.017 76.3939 82.5952 74.3041H84.1341V80.0791C84.1341 80.7975 84.7123 81.3853 85.4397 81.3853H99.5971C100.315 81.3853 100.903 80.7975 100.903 80.0791V65.9168C100.903 65.1985 100.325 64.6107 99.5971 64.6107H99.5691ZM90.1682 58.3319C90.1682 57.0538 91.2127 56.0089 92.4904 56.0089C93.7681 56.0089 94.8127 57.0538 94.8127 58.3319C94.8127 59.6101 93.7681 60.655 92.4904 60.655C91.2127 60.655 90.1682 59.6101 90.1682 58.3319ZM57.7314 29.4663H65.1178V33.478C65.1178 35.3346 63.607 36.8553 61.7417 36.8553H61.0982C59.2423 36.8553 57.7221 35.3439 57.7221 33.478V29.4663H57.7314ZM54.2994 42.7423C54.2994 40.9323 55.7729 39.4582 57.5822 39.4582H65.2577C67.067 39.4582 68.5405 40.9323 68.5405 42.7423V49.077H54.2994V42.7423ZM28.0272 58.3319C28.0272 57.0538 29.0718 56.0089 30.3495 56.0089C31.6272 56.0089 32.6718 57.0538 32.6718 58.3319C32.6718 59.6101 31.6272 60.655 30.3495 60.655C29.0718 60.655 28.0272 59.6101 28.0272 58.3319ZM36.1224 78.7637H24.5766V67.2137H36.1224V78.7637ZM45.0011 75.3117C43.7234 75.3117 42.6788 74.2668 42.6788 72.9887C42.6788 71.7105 43.7234 70.6656 45.0011 70.6656C46.2788 70.6656 47.3233 71.7105 47.3233 72.9887C47.3233 74.2668 46.2788 75.3117 45.0011 75.3117ZM77.8389 75.3117C76.5612 75.3117 75.5166 74.2668 75.5166 72.9887C75.5166 71.7105 76.5612 70.6656 77.8389 70.6656C79.1166 70.6656 80.1611 71.7105 80.1611 72.9887C80.1611 74.2668 79.1166 75.3117 77.8389 75.3117ZM98.2634 78.7637H86.7174V67.2137H98.2634V78.7637Z" fill="white"/>
<path d="M40.4592 65.0025C40.4592 65.0025 40.5338 65.0025 40.5711 65.0025L52.6486 63.9203C53.1522 63.8737 53.5812 63.5471 53.7584 63.0713C53.9356 62.5955 53.8144 62.0637 53.46 61.7092L52.0517 60.3005L56.547 55.8036C57.0599 55.2905 57.0599 54.4695 56.547 53.9657C56.034 53.4619 55.2134 53.4525 54.7097 53.9657L49.2912 59.3861C49.0487 59.6287 48.9088 59.9646 48.9088 60.3098C48.9088 60.6549 49.0487 60.9909 49.2912 61.2334L49.6549 61.5972L41.9047 62.2877L42.5949 54.5348L42.9586 54.8986C43.4716 55.4117 44.2923 55.4117 44.7959 54.8986L48.8435 50.8496C49.3564 50.3365 49.3564 49.5155 48.8435 49.0117C48.3305 48.4985 47.5099 48.4985 47.0062 49.0117L43.8819 52.1371L42.4737 50.7283C42.1193 50.3738 41.5783 50.2525 41.112 50.4204C40.6364 50.5884 40.3006 51.0269 40.2633 51.5307L39.1815 63.6125C39.1442 63.995 39.2841 64.3775 39.5546 64.648C39.797 64.8906 40.1328 65.0305 40.4778 65.0305L40.4592 65.0025Z" fill="white"/>
</svg>
