<svg width="178" height="56" viewBox="0 0 178 56" fill="none" xmlns="http://www.w3.org/2000/svg">
<g clip-path="url(#clip0_642_3028)">
<path d="M86.2851 12.32V31.36C86.2851 43.4 77.1586 47.32 73.0102 48.44C71.9039 48.72 70.2445 48.16 69.6914 46.48C69.4148 45.08 70.2445 43.68 71.6273 43.12C75.7758 42 80.7539 38.92 80.7539 31.36V12.32C80.7539 10.92 81.8602 9.51997 83.5195 9.51997C84.9023 9.51997 86.2851 10.64 86.2851 12.32ZM40.0992 35.56C41.2055 37.8 38.993 40.88 36.2273 39.2C36.2273 39.2 25.718 32.2 17.9742 29.12L13.2727 38.08C12.9961 38.92 11.0602 40.32 9.40078 39.2C-3.59766 31.64 -1.1086 16.8 15.2086 21.84L21.8461 8.95997C23.2289 6.71997 25.9945 7.27997 26.8242 8.95997L40.0992 35.56ZM12.7195 27.16C2.21015 24.08 7.7414 31.36 9.9539 32.76L12.7195 27.16ZM30.6961 29.12L24.0586 16.52L20.4633 24.08C22.9523 24.92 28.4836 28 30.6961 29.12ZM72.1805 24.36C72.1805 32.76 65.543 39.48 57.2461 39.48H48.3961C46.7367 39.48 45.6305 38.08 45.6305 36.68V12.32C45.6305 10.64 47.0133 9.51997 48.3961 9.51997H57.2461C65.543 9.51997 72.1805 16.24 72.1805 24.36ZM66.6492 24.36C66.6492 19.32 62.5008 15.12 57.5227 15.12H51.4383V33.88H57.5227C62.5008 33.88 66.6492 29.68 66.6492 24.36ZM115.324 12.32V26.32C115.324 30.8 112.282 33.88 107.857 33.88C103.432 33.88 100.39 30.8 100.39 26.32V12.32C100.39 8.67997 94.8586 8.67997 94.8586 12.32V26.32C94.8586 33.88 100.39 39.48 107.857 39.48C115.324 39.48 120.855 33.88 120.855 26.32V12.32C120.855 8.67997 115.324 8.67997 115.324 12.32ZM174.509 9.51997H154.043C150.448 9.51997 150.448 15.12 154.043 15.12H161.51V36.68C161.51 40.32 167.041 40.32 167.041 36.68V15.12H174.509C178.38 15.12 178.38 9.51997 174.509 9.51997ZM131.918 16.8C132.195 14.28 137.173 12.88 141.321 16.52C144.087 18.76 147.682 15.4 145.193 12.32C140.491 6.99997 126.387 7.27997 126.387 17.36C126.387 28 142.704 25.76 141.045 31.92C140.215 34.72 133.854 35.84 130.812 31.64C128.323 28 123.898 31.64 126.11 34.72C132.471 43.96 146.852 40.04 146.852 31.08C146.852 20.72 131.641 22.68 131.918 16.8Z" fill="#022791"/>
</g>
<defs>
<clipPath id="clip0_642_3028">
<rect width="177" height="56" fill="white" transform="translate(0.550781)"/>
</clipPath>
</defs>
</svg>
