<svg width="170" height="62" viewBox="0 0 170 62" fill="none" xmlns="http://www.w3.org/2000/svg">
<g clip-path="url(#clip0_642_3117)">
<path fill-rule="evenodd" clip-rule="evenodd" d="M40.1737 13.6582C37.0556 10.6361 29.521 3.2183 27.7986 1.86817C20.2212 -4.06219 10.6221 5.40833 9.80957 12.4062C9.80957 12.4062 17.9041 2.42549 26.7995 10.6283C34.8201 18.0226 43.5794 25.1657 43.6999 31.9517C43.6999 31.9517 49.0613 22.2771 40.1737 13.6622V13.6582Z" fill="#022791"/>
<path fill-rule="evenodd" clip-rule="evenodd" d="M19.486 11.3152C19.486 11.3152 10.5439 10.3537 7.53083 21.7434C4.49053 33.2273 1.39581 45.245 0.462725 49.2208C-1.34512 56.9174 1.69517 66.639 17.6431 59.5313C17.6431 59.5313 5.77741 56.6505 8.80216 43.6005C11.7919 30.6841 14.0352 21.657 14.6767 19.2158C15.3221 16.7746 16.1502 13.1324 19.486 11.3192V11.3152Z" fill="#022791"/>
<path fill-rule="evenodd" clip-rule="evenodd" d="M11.2012 47.6548C11.2012 47.6548 13.7166 51.6621 19.9838 48.8794C26.251 46.0967 30.6637 44.1382 35.403 42.0345C43.1748 38.5847 51.071 33.2587 47.8713 21.1272C47.8713 21.1272 66.3386 37.9096 44.7611 47.49C26.9975 55.3749 27.915 54.9667 25.0886 56.2227C20.3259 58.3381 13.0401 57.8789 11.2051 47.6548H11.2012Z" fill="#022791"/>
<path d="M84.1486 42.529C83.8725 42.529 83.5809 42.3014 83.4993 42.0188L82.6595 39.1027C82.5779 38.824 82.2863 38.5924 82.0103 38.5924H74.1801C73.9041 38.5924 73.5542 38.7926 73.4026 39.0399L71.5247 42.0816C71.3731 42.3249 71.0232 42.529 70.7472 42.529H68.1034C67.8274 42.529 67.7263 42.3288 67.8779 42.0855L78.4917 25.0716C78.6434 24.8282 78.9933 24.6281 79.2693 24.6281H81.2949C81.5709 24.6281 81.8625 24.8557 81.9442 25.1383L86.8001 42.0188C86.8817 42.2974 86.7223 42.529 86.4463 42.529H84.1369H84.1486ZM75.6147 35.4722C75.4631 35.7195 75.5642 35.9197 75.8402 35.9197H81.1977C81.4737 35.9197 81.6331 35.6881 81.5554 35.4094L79.8564 29.3496C79.7786 29.067 79.5881 29.0395 79.4365 29.2829L75.6147 35.4722Z" fill="#022791"/>
<path d="M89.0586 42.529C88.7826 42.529 88.596 42.2935 88.6387 42.0031L91.298 25.154C91.3447 24.8635 91.6052 24.6281 91.8812 24.6281H94.0312C94.3072 24.6281 94.7582 24.6398 95.0342 24.6555C95.0342 24.6555 100.007 24.946 101.515 25.5778C103.008 26.2058 104.237 27.1988 105.17 28.5411C106.099 29.8755 106.569 31.4336 106.569 33.1802C106.569 34.9267 106.068 36.6536 105.073 38.1568C104.077 39.6678 102.806 40.7825 101.294 41.4732C99.7657 42.1719 95.3686 42.4898 95.3686 42.4898C95.0926 42.5094 94.6416 42.5251 94.3694 42.5251H89.0625L89.0586 42.529ZM92.5382 39.3656C92.4916 39.6561 92.6821 39.8916 92.9581 39.8916H93.6035C93.8795 39.8916 94.3305 39.8837 94.6066 39.8719C94.6066 39.8719 97.6508 39.7463 98.5955 39.4402C99.9213 39.0045 100.998 38.251 101.807 37.1952C102.619 36.1316 103.028 34.805 103.028 33.2508C103.028 31.9713 102.736 30.8802 102.161 30.005C101.589 29.1376 100.773 28.4586 99.7385 27.9916C98.716 27.5285 96.1734 27.3322 96.1734 27.3322C95.8973 27.3126 95.4463 27.293 95.1742 27.293H94.9293C94.6532 27.293 94.3927 27.5285 94.3461 27.8189L92.5382 39.3656Z" fill="#022791"/>
<path d="M111.752 42.529C111.476 42.529 111.185 42.3014 111.107 42.0188L106.274 25.1383C106.193 24.8596 106.352 24.6281 106.628 24.6281H108.957C109.233 24.6281 109.525 24.8557 109.602 25.1383L113.245 37.8624C113.327 38.1411 113.517 38.1725 113.665 37.9252L121.624 25.0716C121.775 24.8282 122.125 24.6281 122.401 24.6281H125.049C125.325 24.6281 125.426 24.8282 125.274 25.0716L114.758 42.0816C114.606 42.3249 114.256 42.5251 113.98 42.5251H111.752V42.529Z" fill="#022791"/>
<path d="M124.497 42.529C124.221 42.529 124.034 42.2935 124.077 42.0031L126.736 25.154C126.783 24.8635 127.044 24.6281 127.32 24.6281H129.676C129.952 24.6281 130.138 24.8635 130.092 25.154L127.366 42.0031C127.32 42.2935 127.055 42.529 126.779 42.529H124.493H124.497Z" fill="#022791"/>
<path d="M130.943 42.529C130.667 42.529 130.48 42.2935 130.527 42.0031L133.186 25.154C133.233 24.8635 133.493 24.6281 133.769 24.6281H143.691C143.967 24.6281 144.157 24.8635 144.115 25.154L143.87 26.7906C143.827 27.081 143.567 27.3165 143.29 27.3165H136.841C136.565 27.3165 136.3 27.552 136.253 27.8425L135.713 31.206C135.666 31.4964 135.853 31.7319 136.129 31.7319H142.622C142.898 31.7319 143.088 31.9674 143.046 32.2578L142.805 33.867C142.762 34.1574 142.501 34.3929 142.225 34.3929H135.705C135.429 34.3929 135.165 34.6284 135.118 34.9188L134.407 39.3617C134.36 39.6521 134.547 39.8876 134.823 39.8876H141.401C141.677 39.8876 141.868 40.1231 141.825 40.4136L141.588 41.9992C141.545 42.2896 141.284 42.5251 141.008 42.5251H130.943V42.529Z" fill="#022791"/>
<path d="M160.471 42.529C160.195 42.529 159.919 42.2935 159.857 42.0109L157.291 30.3072C157.229 30.0207 157.066 29.9972 156.926 30.2483L150.483 42.0698C150.343 42.3249 150.005 42.5329 149.729 42.5329H147.645C147.369 42.5329 147.12 42.2935 147.089 42.0031L145.328 25.1618C145.297 24.8714 145.499 24.632 145.775 24.632H147.875C148.151 24.632 148.4 24.8714 148.431 25.1618L149.624 36.7125C149.655 37.0029 149.791 37.0343 149.931 36.7831L156.304 25.0951C156.444 24.84 156.782 24.632 157.058 24.632H158.695C158.971 24.632 159.247 24.8675 159.309 25.15L161.766 36.422C161.828 36.7086 161.968 36.7203 162.081 36.4534L166.7 25.1187C166.809 24.8478 167.123 24.6281 167.399 24.6281H169.67C169.946 24.6281 170.082 24.8478 169.969 25.1187L163.049 42.0423C162.94 42.3131 162.625 42.5329 162.349 42.5329H160.475L160.471 42.529Z" fill="#022791"/>
</g>
<defs>
<clipPath id="clip0_642_3117">
<rect width="170" height="62" fill="white"/>
</clipPath>
</defs>
</svg>
