<svg width="213" height="63" viewBox="0 0 213 63" fill="none" xmlns="http://www.w3.org/2000/svg">
<path d="M0.281751 19.6839L9.46583 37.2954C10.1126 38.4608 11.6648 39.4968 12.9584 39.4968H31.7146C33.0081 39.4968 33.5255 38.4608 32.8788 37.2954L23.6947 19.6839C23.0479 18.5184 21.4957 17.4824 20.2021 17.4824H1.44593C1.44593 17.4824 1.44593 17.4824 1.31658 17.4824C0.152397 17.6119 -0.365015 18.5184 0.281751 19.6839Z" fill="#022791"/>
<path d="M35.983 40.2731L41.5452 50.6328C41.9332 51.2803 42.8387 51.9278 43.6148 51.9278L54.8685 51.7983C55.6447 51.7983 55.9034 51.1508 55.5153 50.5033L49.9531 40.1436C49.5651 39.4961 48.6596 38.8486 47.8835 38.8486H36.6297C35.8536 38.9781 35.5949 39.4961 35.983 40.2731Z" fill="#022791"/>
<path d="M36.1121 0.647482L24.8584 15.0216C24.0822 16.0576 23.9529 17.741 24.5997 18.9065L33.9131 36.3885C34.5599 37.554 35.724 37.813 36.5002 36.777L47.7539 22.4029C48.53 21.3669 48.6594 19.6835 48.0126 18.518L38.6992 1.03597C38.3111 0.388488 37.7937 0 37.2763 0C36.7589 0 36.3708 0.258993 36.1121 0.647482Z" fill="#022791"/>
<path d="M33.396 40.4031L26.6696 48.9499C26.1522 49.5974 26.1522 50.6334 26.5403 51.2808L32.1025 61.6405C32.4905 62.288 33.1373 62.4175 33.6547 61.8995L40.3811 53.3528C40.8985 52.7053 40.8985 51.6693 40.5104 51.0218L34.9482 40.6621C34.6895 40.2736 34.4308 40.0146 34.0428 40.0146C33.9134 40.0146 33.6547 40.1441 33.396 40.4031Z" fill="#022791"/>
<path d="M155.894 43.381H159.645V15.2803H155.894V43.381Z" fill="#022791"/>
<path d="M88.889 24.2158C83.5855 24.2158 79.1875 28.6187 79.1875 33.928V51.7986H82.9387V33.928C82.9387 30.5611 85.6552 27.9712 88.889 27.9712C92.2522 27.9712 94.8392 30.6906 94.8392 33.928C94.8392 37.295 92.1228 39.8849 88.889 39.8849C87.078 39.8849 85.3965 38.9784 84.2323 37.6834V42.4748C85.6552 43.2518 87.2074 43.6403 88.889 43.6403C94.1925 43.6403 98.5905 39.2374 98.5905 33.928C98.5905 28.4892 94.1925 24.2158 88.889 24.2158Z" fill="#022791"/>
<path d="M109.973 24.2158C104.669 24.2158 100.271 28.6187 100.271 33.928V51.7986H104.023V33.928C104.023 30.5611 106.739 27.9712 109.973 27.9712C113.336 27.9712 115.923 30.6906 115.923 33.928C115.923 37.295 113.207 39.8849 109.973 39.8849C108.162 39.8849 106.48 38.9784 105.316 37.6834V42.4748C106.739 43.2518 108.291 43.6403 109.973 43.6403C115.276 43.6403 119.674 39.2374 119.674 33.928C119.674 28.4892 115.276 24.2158 109.973 24.2158Z" fill="#022791"/>
<path d="M67.1574 15.2803C61.8539 15.2803 57.4559 19.6832 57.4559 24.9925V43.5105H61.2072V24.9925C61.2072 21.7551 63.9236 19.0357 67.1574 19.0357C70.3913 19.0357 73.1077 21.7551 73.1077 24.9925V27.0644H63.5355V30.8198H73.1077V43.381H76.8589V24.9925C76.8589 19.5537 72.5903 15.2803 67.1574 15.2803Z" fill="#022791"/>
<path d="M143.347 24.9925C143.347 21.7551 146.063 19.0357 149.297 19.0357H153.954V15.2803H149.297C143.994 15.2803 139.596 19.6832 139.596 24.9925V43.5105H143.347V31.3378H153.695V27.5824H143.347V24.9925Z" fill="#022791"/>
<path d="M175.297 24.3453V36.1295C175.297 38.4604 173.357 40.4029 170.899 40.4029C168.571 40.4029 166.631 38.4604 166.501 36.1295V24.3453H162.75V36.1295C162.75 39.8849 165.466 43.1223 168.959 43.8993V51.7986H172.71V43.7698C176.203 42.9928 178.919 39.7554 178.919 36V24.2158H175.297" fill="#022791"/>
<path d="M196.252 35.3521C195.864 36.9061 194.958 38.201 193.406 39.1075C190.56 40.791 186.938 39.755 185.257 36.9061C183.575 34.0572 184.61 30.4312 187.456 28.7478C189.784 27.4528 192.501 27.8413 194.441 29.5248L186.033 34.3161L187.844 37.5536L191.725 35.3521L199.615 30.8197C199.356 30.1723 199.098 29.6543 198.839 29.1363C196.123 24.4744 190.172 22.9205 185.516 25.6399C180.859 28.3593 179.307 34.3161 182.023 38.978C184.739 43.6399 190.69 45.1938 195.346 42.4744C198.063 40.9205 199.615 38.3305 200.133 35.4816H196.252" fill="#022791"/>
<path d="M211.775 24.2158C209.576 24.2158 207.506 24.9928 205.824 26.2878V24.3453H202.073V43.5108H205.824V33.928C205.824 30.6906 208.541 27.9712 211.775 27.9712H212.551V24.2158H211.775Z" fill="#022791"/>
<path d="M133.775 34.5751L124.461 30.1723C124.073 29.9133 123.814 29.3953 124.073 29.0068C124.202 28.6183 124.591 28.4888 124.849 28.4888H135.456V24.7334H124.849C123.038 24.7334 121.357 25.7694 120.581 27.4528C119.546 29.7838 120.451 32.5032 122.78 33.6687L132.093 38.0715C132.61 38.3305 132.74 38.8485 132.481 39.237C132.352 39.6255 131.964 39.755 131.705 39.755H120.839V43.5104H131.705C133.516 43.5104 135.197 42.4744 135.974 40.791C137.138 38.46 136.232 35.6111 133.775 34.5751Z" fill="#022791"/>
</svg>
