<svg width="211" height="159" viewBox="0 0 211 159" fill="none" xmlns="http://www.w3.org/2000/svg">
<path d="M84.5508 93.6876H89.6787V81.5792H100.423V77.0538H89.6787V69.9599H101.4V65.3123H84.5508V93.6876Z" fill="#022791"/>
<path d="M120.69 73.0176L114.219 88.0614L107.992 73.0176H102.742L111.533 93.9322L108.114 101.515H113.242L125.94 73.0176H120.69Z" fill="#022791"/>
<path d="M142.423 87.6946C141.202 88.9177 139.981 89.4069 138.15 89.4069C136.44 89.4069 134.853 88.7954 133.754 87.6946C132.533 86.4715 131.923 85.1261 131.923 83.4138C131.923 81.7015 132.533 80.1115 133.754 79.133C134.975 77.91 136.44 77.4207 138.15 77.4207C139.859 77.4207 141.202 78.0323 142.423 79.133C143.644 80.3561 144.132 81.7015 144.132 83.4138C144.132 85.0038 143.644 86.4715 142.423 87.6946ZM138.882 73.0177C135.464 73.0177 133.144 74.4854 132.533 76.4423V65.8015H127.772V93.3207H132.533V90.5077C133.144 92.4646 135.586 93.9323 138.882 93.9323C141.69 93.9323 144.01 92.9538 145.964 90.9969C147.917 88.9177 148.772 86.5938 148.772 83.6584C148.772 80.7231 147.917 78.1546 145.964 76.32C144.132 73.8738 141.69 73.0177 138.882 73.0177Z" fill="#022791"/>
<path d="M156.22 81.2124C156.342 79.9894 156.952 79.0109 158.051 78.1547C159.028 77.4209 160.371 76.8094 161.958 76.8094C163.423 76.8094 164.522 77.1763 165.499 78.1547C166.475 78.8886 167.086 79.9894 167.086 81.0901H156.342V81.2124H156.22ZM161.836 72.8955C158.784 72.8955 156.22 73.7517 154.388 75.7086C152.435 77.6655 151.458 80.1117 151.458 83.414V83.5363C151.458 86.594 152.435 89.1624 154.388 90.8747C156.342 92.7094 158.906 93.6878 162.08 93.6878C165.499 93.6878 168.307 92.4647 170.505 90.1409L167.696 87.4501C166.109 89.0401 164.278 89.774 162.202 89.774C158.661 89.774 156.342 87.6947 156.098 84.637H171.603C171.603 84.1478 171.725 83.6586 171.725 82.9247C171.725 80.1117 170.871 77.7878 168.917 75.8309C167.208 73.7517 164.766 72.8955 161.836 72.8955Z" fill="#022791"/>
<path d="M185.644 73.0177C182.836 73.0177 180.638 74.3631 179.661 76.4423V73.3846H174.9V93.1985H179.661V82.68C179.661 79.3777 181.737 77.4208 185.155 77.4208C185.888 77.4208 186.621 77.5431 187.109 77.6654V73.14C186.743 73.0177 186.132 73.0177 185.644 73.0177Z" fill="#022791"/>
<path d="M23.748 56.2615V100.904H33.8818C33.8818 87.3276 40.1085 80.723 51.9515 80.723H61.719V89.8961H56.469H53.4167C47.312 89.8961 43.0387 91.7307 43.2829 100.904H72.8294V56.2615H23.748ZM61.719 76.4422H34.8585V67.2692H61.719V76.4422Z" fill="#022791"/>
</svg>
