<svg width="234" height="33" viewBox="0 0 234 33" fill="none" xmlns="http://www.w3.org/2000/svg">
<g clip-path="url(#clip0_642_3071)">
<path d="M34.6759 5.80465e-05H28.24C23.7737 5.80465e-05 20.0981 1.17598 17.6063 3.52289C14.9802 5.8698 13.6672 9.39263 13.6672 13.8295V32.6147H21.1525V13.1724C21.1525 11.0873 21.8091 9.52109 22.9928 8.34517C24.3058 7.16924 26.0118 6.65045 28.245 6.65045H34.6809C36.9141 6.65045 38.62 7.17419 39.9331 8.34517C41.2461 9.51615 41.7733 11.0824 41.7733 13.1724V32.6097H49.2587V13.8246C49.2587 9.38769 47.9457 5.8698 45.3196 3.51795C42.6935 1.17104 39.1472 -0.00488281 34.6859 -0.00488281" fill="#022791"/>
<path d="M104.263 5.80465e-05H97.8269C93.3606 5.80465e-05 89.685 1.17598 87.1932 3.52289L87.0639 3.65135L86.9346 3.52289C84.3085 1.17598 80.7623 5.80465e-05 76.3009 5.80465e-05H69.865C65.3987 5.80465e-05 61.7231 1.17598 59.2313 3.52289C56.6052 5.8698 55.2922 9.39263 55.2922 13.8295V32.6147H62.7775V13.1724C62.7775 11.0873 63.4341 9.52109 64.6178 8.34517C65.9308 7.16924 67.6368 6.65045 69.87 6.65045H76.3059C78.5391 6.65045 80.245 7.17419 81.5581 8.34517C82.8711 9.51615 83.3983 11.0824 83.3983 13.1724V32.6097H90.8837V13.1724C90.8837 11.0873 91.5402 9.52109 92.724 8.34517C94.037 7.16924 95.743 6.65045 97.9761 6.65045H104.412C106.645 6.65045 108.351 7.17419 109.664 8.34517C110.977 9.51615 111.505 11.0824 111.505 13.1724V32.6097H118.99V13.8246C118.99 9.38769 117.677 5.8698 115.051 3.51795C112.295 1.17104 108.749 -0.00488281 104.283 -0.00488281" fill="#022791"/>
<path d="M208.52 15.1289C209.047 14.4767 209.44 13.6961 209.704 12.782C209.967 11.8679 210.097 10.4351 210.097 8.74038C210.097 5.47941 208.913 2.9991 206.685 1.56625C204.979 0.523731 202.353 0 199.07 0H175.306V32.7381H201.04C204.586 32.7381 207.341 31.9575 209.047 30.3912C210.753 28.825 211.673 26.2162 211.673 22.6934C211.673 19.0421 210.624 16.5618 208.52 15.1289ZM199.199 12.2583H182.916V6.77886H199.199C202.353 6.77886 202.746 8.08325 202.746 9.5161C202.746 10.9489 202.218 12.2533 199.199 12.2533M182.786 19.0371H200.119C203.666 19.0371 204.188 20.7318 204.188 22.2981C204.188 24.7784 203.004 25.8209 200.378 25.8209H182.781V19.0371H182.786Z" fill="#022791"/>
<path d="M227.296 0.12854H230.186V0.652271H229.136V3.65137H228.48V0.652271H227.43V0.12854H227.301H227.296Z" fill="#022791"/>
<path d="M230.445 0.128418H231.365L232.285 2.86565L233.205 0.128418H233.991V3.65125H233.464V0.914015L232.544 3.65125H232.016L231.096 0.914015V3.65125H230.569V0.128418H230.44H230.445Z" fill="#022791"/>
<path d="M217.448 0H225.063V32.7381H217.448V0Z" fill="#022791"/>
<path d="M123.829 11.2158L123.958 10.9539C124.088 10.8254 124.088 10.692 124.222 10.5636C124.222 10.5636 124.222 10.4351 124.351 10.4351C124.481 10.1733 124.744 10.0448 125.008 9.78293L125.137 9.65447C125.266 9.526 125.401 9.3926 125.53 9.26414C125.659 9.26414 125.659 9.13568 125.794 9.13568C126.187 8.87381 126.58 8.48348 127.107 8.22162L127.236 8.09315C127.629 7.96469 127.893 7.70283 128.286 7.56942C128.415 7.44096 128.678 7.44096 128.813 7.30756C128.899 7.30756 128.987 7.26474 129.076 7.17909C129.34 7.05063 129.733 6.91723 130.126 6.78877C130.255 6.78877 130.389 6.6603 130.519 6.6603H130.912C131.568 6.53184 132.095 6.39844 132.618 6.26998C132.881 6.26998 133.145 6.14151 133.403 6.14151H133.667C133.931 6.14151 134.06 6.14151 134.194 6.01305H158.093C159.799 6.01305 161.375 6.79371 162.425 8.09809L162.295 7.70777C162.295 7.5793 162.166 7.4459 162.166 7.18404V7.05557C162.166 6.92711 162.037 6.66525 162.037 6.53184L161.907 6.14151C161.778 5.87965 161.778 5.75119 161.644 5.48932C160.724 3.27088 158.888 0.923967 155.342 0.271774H155.213C155.084 0.271774 154.949 0.271774 154.686 0.143311H136.432C129.604 0.0148489 123.958 4.97053 123.829 11.2306" fill="#022791"/>
<path d="M163.35 22.6983V22.9602C163.35 23.0458 163.306 23.1331 163.22 23.222C163.22 23.3077 163.177 23.395 163.091 23.4839C163.091 23.6124 162.962 23.7458 162.962 23.7458C162.698 24.398 162.305 25.1786 161.778 25.9642C161.649 26.0927 161.649 26.2261 161.514 26.3545C161.385 26.483 161.385 26.6164 161.251 26.7449C160.987 27.1352 160.594 27.5255 160.201 27.9208C160.072 28.0493 159.938 28.1827 159.808 28.3111L159.679 28.4396C159.55 28.568 159.415 28.7014 159.286 28.7014C159.286 28.7014 159.157 28.7014 159.157 28.8299C159.027 28.9584 158.893 29.0918 158.764 29.0918C158.764 29.0918 158.635 29.0918 158.635 29.2202C158.505 29.3487 158.371 29.4821 158.242 29.4821C158.242 29.4821 158.112 29.4821 158.112 29.6106C157.983 29.739 157.719 29.8724 157.585 30.0009C157.192 30.2628 156.799 30.5246 156.272 30.7815C156.272 30.7815 156.143 30.7816 156.143 30.91C156.013 31.0385 155.75 31.0385 155.615 31.1719C155.486 31.1719 155.486 31.3003 155.352 31.3003C155.223 31.4288 155.088 31.4288 154.825 31.5622C154.695 31.5622 154.695 31.6907 154.561 31.6907C154.432 31.8191 154.168 31.8191 154.034 31.9525C153.905 31.9525 153.905 32.081 153.77 32.081C153.641 32.2095 153.377 32.2095 153.243 32.3429C153.114 32.3429 153.114 32.4713 152.979 32.4713C152.716 32.5998 152.587 32.5998 152.323 32.7332H152.194C151.93 32.8616 151.666 32.8616 151.273 32.9951H156.262C164.011 32.9951 170.178 27.7775 170.178 21.384V11.6011C170.178 5.60293 164.663 0.513843 157.575 -0.0098877C157.704 0.118575 157.839 0.118575 157.968 0.251978L158.097 0.38044C158.227 0.508903 158.361 0.508903 158.49 0.642306H158.62C158.749 0.770768 158.883 0.770768 159.013 0.904171L159.142 1.03263C159.271 1.1611 159.405 1.1611 159.535 1.2945L159.664 1.42296C159.793 1.55142 159.928 1.55142 159.928 1.68483L160.057 1.81329L160.321 2.07516C160.321 2.07516 160.321 2.20362 160.45 2.20362L160.714 2.46548L160.843 2.59395C160.843 2.72241 160.972 2.72241 160.972 2.85581C160.972 2.85581 160.972 2.98427 161.101 2.98427C161.231 3.11274 161.231 3.24614 161.365 3.24614L161.494 3.3746C161.494 3.50306 161.624 3.50306 161.624 3.63647L161.753 3.76493C161.753 3.89339 161.882 4.02679 161.882 4.02679L162.012 4.15526C162.012 4.28372 162.141 4.41712 162.141 4.41712L162.27 4.80745C162.27 4.80745 162.27 4.93591 162.4 4.93591C162.4 5.06438 162.529 5.19778 162.529 5.19778V5.32624C162.529 5.4547 162.658 5.4547 162.658 5.58811V5.71657C162.658 5.80221 162.701 5.8895 162.788 5.97843L162.917 6.2403C162.917 6.36876 163.046 6.50217 163.046 6.63063L163.175 7.02096V7.14942C163.175 7.27788 163.175 7.41128 163.305 7.41128V7.53975L163.434 8.19194V8.3204C163.434 8.58227 163.434 8.71073 163.563 8.9726V21.1024C163.434 21.7546 163.434 22.1449 163.3 22.6687" fill="#022791"/>
<path d="M125.669 10.4352C125.405 10.697 125.276 10.8255 125.142 11.0873V11.3492C125.013 11.4777 125.013 11.6111 124.878 11.7395L124.749 11.868C124.62 11.9965 124.62 12.1299 124.485 12.2583V12.3868C124.485 12.5153 124.356 12.6487 124.356 12.7771C124.356 12.9056 124.227 13.039 124.227 13.1674C124.227 13.2959 124.097 13.4293 124.097 13.4293V13.5578V13.6862V21.2507C124.097 27.6442 129.743 32.8617 136.701 32.8617H147.076C155.347 31.8192 159.42 28.6867 161.256 26.0779C160.47 26.6016 159.415 26.8586 158.5 26.8586H136.308C133.289 26.8586 130.926 24.3783 130.926 21.5126V11.6012C130.926 10.0349 131.583 8.46869 132.767 7.55957L131.453 7.82144H131.19C131.061 7.82144 130.926 7.82144 130.926 7.9499C130.533 8.07836 130.27 8.21176 130.006 8.21176C129.92 8.21176 129.832 8.25458 129.743 8.34023C129.613 8.46869 129.35 8.46869 129.215 8.60209C128.952 8.73055 128.559 8.86396 128.295 9.12582L128.166 9.25428C127.773 9.51615 127.246 9.77802 126.982 10.0349H126.853C126.067 10.0349 125.933 10.1634 125.669 10.4253V10.4352Z" fill="#022791"/>
<path d="M0.00952148 0H7.6242V32.7381H0.00952148V0Z" fill="#022791"/>
</g>
<defs>
<clipPath id="clip0_642_3071">
<rect width="234" height="33" fill="white"/>
</clipPath>
</defs>
</svg>
