<svg width="193" height="76" viewBox="0 0 193 76" fill="none" xmlns="http://www.w3.org/2000/svg">
<g clip-path="url(#clip0_642_3037)">
<path d="M82.8644 47.0418C82.4462 47.2569 82.0309 47.481 81.6098 47.6902C79.5893 48.6895 77.4864 49.4441 75.2687 49.8656C74.5589 50.0012 73.8432 50.1456 73.1245 50.1751C70.0674 50.3048 67.4402 49.3763 65.5199 46.8855C64.336 45.3498 63.6586 43.5724 63.3729 41.6653C63.2433 40.8105 63.314 39.9291 63.2816 39.0596C63.2168 37.3795 62.9782 35.7376 62.1329 34.2402C61.5144 33.1437 60.622 32.3184 59.5588 31.6699C59.4469 31.6021 59.3143 31.5638 59.1199 31.4783C59.1612 31.6758 59.17 31.8143 59.2201 31.9381C59.9269 33.7598 60.2598 35.6551 60.1567 37.5976C59.9004 42.4612 57.9124 46.3343 53.5593 48.7868C52.1662 49.5708 50.6288 49.9363 49.0796 50.2724C46.3465 50.8648 43.5809 51.0299 40.8124 50.7705C36.9894 50.4109 33.411 49.3114 30.3774 46.8266C29.9032 46.4405 29.4702 46.0013 29.0461 45.5591C28.8459 45.3498 28.7015 45.3233 28.4571 45.4795C26.8195 46.5289 25.0789 47.3689 23.2175 47.9437C21.7007 48.4124 20.1545 48.7396 18.567 48.7897C17.3683 48.8251 16.1607 48.8634 14.9708 48.7455C12.8621 48.5421 10.8917 47.814 9.03324 46.806C6.0615 45.1936 3.47264 43.1214 1.52583 40.3212C1.17241 39.8142 0.91028 39.2365 0.668771 38.6646C0.412535 38.0545 0.59514 37.4767 1.00158 36.9845C1.26665 36.6632 1.56118 36.3625 1.88221 36.1002C2.53311 35.5637 2.98962 35.5578 3.61695 36.1149C4.26785 36.6927 4.87457 37.3205 5.49601 37.9307C6.64466 39.0566 7.74029 40.2357 9.07153 41.1583C10.4558 42.1163 11.9255 42.9033 13.5748 43.26C16.9883 43.9998 20.2841 43.5665 23.4237 42.0603C24.4251 41.5798 25.3616 40.9608 26.3336 40.4126C26.5338 40.3006 26.5456 40.1591 26.5014 39.9527C26.0243 37.6624 25.5001 35.381 25.1113 33.0759C24.8286 31.4105 24.696 29.7186 24.5576 28.0325C24.4545 26.7503 24.3838 25.4593 24.4221 24.1741C24.4692 22.5588 24.6165 20.9435 24.7638 19.3311C24.9935 16.7844 25.4824 14.2848 26.1775 11.8265C26.9756 9.00561 28.0212 6.2879 29.7147 3.86496C30.6601 2.512 31.7705 1.3241 33.2873 0.598988C36.0558 -0.727444 39.4458 0.201058 41.1717 2.75075C42.1407 4.18035 42.6355 5.7927 42.93 7.47285C43.5014 10.7241 43.4572 13.993 43.2392 17.2708C43.0331 20.3599 42.6001 23.4136 41.8314 26.4143C41.2453 28.6957 40.5532 30.9448 39.4782 33.0523C37.8966 36.1562 35.8526 38.9063 33.2696 41.2526C33.1695 41.3411 33.0752 41.4354 32.9839 41.5209C34.2386 44.4036 41.9639 47.4574 44.5852 46.1015C44.5528 46.0278 44.5322 45.9453 44.4821 45.8834C43.1067 44.1885 42.4087 42.2312 42.229 40.0765C41.9875 37.1613 42.553 34.3817 43.8047 31.7554C44.7531 29.7657 46.3494 28.3686 48.1725 27.1866C49.4713 26.3465 50.9145 26.0105 52.4048 25.8424C55.2911 25.5153 58.0773 25.9515 60.7457 27.0834C62.4952 27.8262 64.0149 28.9109 65.302 30.3169C65.3933 30.4142 65.4846 30.5115 65.6083 30.6412C65.7261 30.5056 65.8321 30.3936 65.9293 30.2757C67.5963 28.2389 69.658 26.8211 72.2469 26.2197C75.2628 25.5212 77.9606 26.656 79.6895 29.3295C80.7203 30.9242 81.221 32.6809 81.3653 34.5586C81.545 36.9226 81.1061 39.2011 80.4258 41.4413C80.1637 42.3049 79.7955 43.1362 79.4774 43.9821C79.4333 44.1 79.4008 44.2238 79.339 44.4272C79.66 44.3241 79.8986 44.2445 80.1372 44.1708C81.8572 43.6314 83.2797 42.6528 84.4519 41.2851C84.9084 40.7515 85.0763 40.1767 85.041 39.4605C84.988 38.3227 85.041 37.179 85.0881 36.0383C85.1323 34.9241 85.1912 33.8069 85.2943 32.6957C85.4887 30.6323 85.7125 28.5719 85.9452 26.5145C86.0424 25.6567 86.5754 25.1321 87.3736 24.8609C88.1335 24.6044 88.911 24.5543 89.6945 24.7165C90.5928 24.9022 91.0228 25.4357 90.9992 26.3494C90.9874 26.827 90.9256 27.3015 90.8902 27.779C90.8784 27.9205 90.8755 28.0591 90.8637 28.2978C91.0552 28.1652 91.1759 28.0915 91.2849 28.006C92.9195 26.6973 94.8103 26.1372 96.869 26.2109C98.1915 26.2581 99.5109 26.4673 100.698 27.1247C102.462 28.1003 103.472 29.6626 103.935 31.5756C104.491 33.8924 104.412 36.2063 103.602 38.4612C102.913 40.386 101.629 41.8952 100.094 43.201C98.0442 44.949 95.6792 46.1545 93.2081 47.1715C92.3805 47.5104 91.55 47.8435 90.7165 48.1648C90.4308 48.2739 90.3483 48.4242 90.3777 48.7455C90.4661 49.7094 90.5073 50.6791 90.5427 51.6489C90.6487 54.5936 90.7901 57.5353 90.8343 60.48C90.8784 63.6398 90.5869 66.7791 89.8977 69.8711C89.4323 71.9669 88.4192 73.7296 86.5519 74.8644C84.019 76.4031 81.4154 76.2999 78.8501 74.9469C76.5734 73.7472 75.3924 71.7222 74.8298 69.2845C74.4087 67.4452 74.3969 65.5912 74.6355 63.7253C75.1273 59.914 76.597 56.4624 78.4054 53.1198C79.5363 51.0299 80.9589 49.167 82.6171 47.478C82.726 47.369 82.8173 47.2422 82.9145 47.1214C82.891 47.0919 82.8703 47.0624 82.8468 47.0329L82.8644 47.0418ZM30.5718 37.3234C30.719 37.1879 30.8044 37.1201 30.8751 37.0405C32.5392 35.2129 33.7556 33.1054 34.6951 30.8357C36.8127 25.7304 37.767 20.3893 37.7935 14.8743C37.7994 13.4654 37.7316 12.0535 37.6462 10.6445C37.5726 9.43892 37.3105 8.26281 36.7685 7.17219C36.2885 6.20242 35.4962 6.00788 34.6804 6.71236C34.215 7.11324 33.7939 7.60549 33.464 8.12427C32.3949 9.81621 31.7204 11.6938 31.1667 13.598C29.912 17.9192 29.2876 22.3289 29.3672 26.8446C29.4172 29.6508 29.6263 32.4304 30.13 35.1864C30.2566 35.8791 30.4127 36.5659 30.5718 37.3205V37.3234ZM76.3879 36C76.3879 35.6079 76.4144 35.2129 76.382 34.8209C76.3025 33.8158 76.1611 32.8195 75.6574 31.9205C74.9683 30.6883 73.6724 30.2963 72.4619 31.0214C71.9906 31.3044 71.5695 31.7141 71.2131 32.1386C70.4473 33.0464 69.979 34.1341 69.5372 35.2306C68.6772 37.3706 68.3798 39.5813 68.7126 41.8657C68.9541 43.5311 69.8583 44.6365 71.5106 45.0993C72.1762 45.285 72.7976 45.2172 73.3013 44.7544C73.7401 44.3535 74.1878 43.9202 74.4823 43.4132C75.8194 41.1318 76.4762 38.6558 76.3879 36ZM47.2654 39.5666C47.2389 40.5069 47.2978 41.5091 47.6512 42.47C48.4346 44.5952 50.8851 45.1641 52.4755 43.5783C53.3149 42.7441 53.7331 41.6565 54.1484 40.5806C55.0437 38.2637 55.1998 35.8526 54.9465 33.409C54.8582 32.566 54.6255 31.7465 54.1072 31.0421C53.4945 30.2079 52.4431 29.8158 51.589 30.1106C50.9027 30.3464 50.3608 30.7915 49.9455 31.3663C48.1931 33.7892 47.2035 36.4686 47.2683 39.5636L47.2654 39.5666ZM85.3532 52.0822C85.1824 52.2679 85.0586 52.3829 84.9585 52.5155C83.4358 54.5199 82.2754 56.7277 81.2799 59.0327C80.1489 61.6561 79.4185 64.3502 79.6718 67.2448C79.7631 68.3 80.0135 69.2963 80.8411 70.0185C82.025 71.0531 83.6656 71.2771 84.6817 69.3612C84.8525 69.0399 84.9703 68.6832 85.0763 68.3325C85.5947 66.6199 85.6565 64.8425 85.6477 63.0827C85.6271 59.5839 85.4975 56.088 85.4121 52.5892C85.4091 52.4477 85.3826 52.3092 85.3561 52.0793L85.3532 52.0822ZM90.3365 43.4575C90.4956 43.428 90.5928 43.425 90.6782 43.3926C93.6028 42.2814 96.1386 40.6218 98.0471 38.1046C98.916 36.9609 99.5728 35.7111 99.6935 34.2343C99.8143 32.7753 98.8217 31.5166 97.3697 31.3987C95.6203 31.2572 94.2979 32.0737 93.27 33.4061C92.3069 34.6529 91.7355 36.109 91.2289 37.5828C90.743 38.9947 90.5486 40.4656 90.4249 41.9453C90.3836 42.4317 90.366 42.918 90.3336 43.4545L90.3365 43.4575Z" fill="#022791"/>
<path d="M140.382 22.6443C140.502 22.3466 140.638 22.0519 140.741 21.7453C141.701 18.9745 142.655 16.2038 144.231 13.6983C145.489 11.6969 147.029 9.9725 149.102 8.77871C150.169 8.16855 151.302 7.7382 152.531 7.64682C153.874 7.5466 155.034 8.05359 156.027 8.92609C157.314 10.058 158.035 11.5406 158.524 13.1471C159.119 15.1073 159.34 17.1323 159.411 19.172C159.496 21.6805 159.24 24.1742 158.992 26.6649C158.789 28.7017 158.589 30.7415 158.377 32.7783C158.197 34.5115 157.991 36.2388 157.823 37.972C157.646 39.8143 157.461 41.6595 157.361 43.5076C157.302 44.5894 157.944 45.1937 159.037 45.2939C159.944 45.3764 160.827 45.229 161.679 44.949C162.527 44.6719 163.354 44.3271 164.194 44.0205C164.459 43.9232 164.488 43.7641 164.429 43.5047C164.091 42.0132 163.681 40.5305 163.472 39.0213C163.343 38.0781 163.463 37.0847 163.584 36.1268C163.926 33.3678 164.898 30.8476 166.653 28.6722C168.058 26.9272 169.852 25.7747 172.105 25.4888C173.742 25.2825 175.268 25.7099 176.673 26.5617C178.49 27.6641 179.839 29.1556 180.416 31.2426C180.884 32.9404 180.625 34.594 180.016 36.2152C179.379 37.9042 178.272 39.2748 177.106 40.6101C175.769 42.1429 174.219 43.4457 172.652 44.7279C172.493 44.8576 172.382 45.0463 172.249 45.2055C172.449 45.2762 172.644 45.3882 172.847 45.4118C173.984 45.5562 175.1 45.4118 176.19 45.0905C179.603 44.0913 182.625 42.4082 185.17 39.9027C185.977 39.1068 186.648 39.0154 187.549 39.7081C188.206 40.2122 188.81 40.8047 189.343 41.4384C189.965 42.1753 189.894 42.6882 189.202 43.3691C187.77 44.7781 186.162 45.9659 184.463 47.03C182.163 48.4655 179.733 49.618 177.106 50.3107C175.633 50.6998 174.14 50.9769 172.599 50.803C170.712 50.5878 169.065 49.8391 167.666 48.5569C167.481 48.3859 167.354 48.3565 167.13 48.4862C165.198 49.6151 163.11 50.2901 160.898 50.5583C159.926 50.6762 158.945 50.7971 157.97 50.7735C155.081 50.6998 152.975 49.338 151.756 46.7058C151.099 45.288 151.037 43.7582 151.152 42.2284C151.279 40.5895 151.461 38.9565 151.638 37.3235C151.841 35.4223 152.065 33.5211 152.274 31.6199C152.46 29.925 152.651 28.2301 152.81 26.5352C152.99 24.6428 153.167 22.7475 153.288 20.8522C153.399 19.0954 153.364 17.3386 152.799 15.6437C152.38 14.391 151.503 13.8457 150.381 14.052C149.509 14.2112 148.82 14.6916 148.207 15.2871C147.167 16.2981 146.41 17.5184 145.715 18.78C144.075 21.76 143.227 25.0083 142.57 28.3097C141.966 31.3369 141.398 34.3729 140.903 37.4208C140.52 39.7907 140.267 42.1841 139.975 44.5688C139.828 45.7743 139.731 46.9858 139.601 48.1914C139.463 49.4795 138.608 50.1722 137.513 50.6261C135.702 51.3748 133.996 50.3785 133.675 48.4007C133.625 48.1 133.605 47.7905 133.596 47.484C133.513 44.5069 133.778 41.5534 134.155 38.6028C134.485 36.0236 134.78 33.4415 135.071 30.8594C135.325 28.6162 135.587 26.376 135.775 24.127C135.958 21.9516 136.108 19.7645 135.799 17.5862C135.678 16.7343 135.472 15.8972 134.992 15.1633C134.073 13.7572 132.689 13.6423 131.561 14.8773C130.709 15.8088 130.064 16.8817 129.487 17.993C127.797 21.2413 126.557 24.6752 125.296 28.1063C123.865 32.006 123.099 36.0619 122.31 40.1149C121.782 42.8208 121.305 45.5385 120.822 48.2533C120.613 49.4235 119.965 50.2164 118.864 50.6232C117.883 50.9857 116.873 51.1567 115.839 50.8531C114.705 50.52 114.013 49.6505 114.022 48.4655C114.028 47.6107 114.098 46.75 114.204 45.8981C114.569 42.9417 115.147 40.0147 115.35 37.0376C115.538 34.2845 115.842 31.5373 115.986 28.7813C116.169 25.2884 116.248 21.7895 116.351 18.2936C116.366 17.7837 116.301 17.262 116.207 16.7609C116.06 15.9886 115.485 15.7292 114.773 16.0564C114.11 16.3629 113.698 16.9436 113.265 17.486C112.484 18.4646 111.733 19.4668 110.97 20.4572C110.888 20.5633 110.797 20.6635 110.708 20.7638C109.984 21.5714 109.677 21.6598 108.688 21.2324C108.287 21.0585 107.916 20.8109 107.557 20.5574C107.177 20.2892 107.086 19.8971 107.198 19.4432C107.563 17.9724 108.246 16.643 109.024 15.3637C109.648 14.3379 110.296 13.3181 111.038 12.3748C112.537 10.4736 114.508 9.44487 116.967 9.5333C118.725 9.5952 119.962 10.4795 120.687 12.0889C121.249 13.3357 121.488 14.6563 121.635 16.0033C121.888 18.3379 121.679 20.6606 121.441 22.9804C121.288 24.4689 121.137 25.9575 120.972 27.4431C120.896 28.124 120.787 28.799 120.76 29.5005C120.781 29.471 120.813 29.4445 120.819 29.4121C121.835 24.4512 123.576 19.7468 126.026 15.3254C127.369 12.8995 129.022 10.6799 131.34 9.05873C132.429 8.2953 133.596 7.70577 134.977 7.76473C136.921 7.84726 138.302 8.79934 139.18 10.5178C139.704 11.5436 139.854 12.6637 139.963 13.7867C140.208 16.2804 140.37 18.7771 140.331 21.2855C140.326 21.7217 140.284 22.155 140.258 22.5913C140.296 22.606 140.337 22.6178 140.376 22.6325L140.382 22.6443ZM169.036 40.6926C169.209 40.5924 169.333 40.5423 169.433 40.4627C170.944 39.263 172.39 37.9985 173.636 36.5159C174.293 35.7347 174.914 34.9359 175.168 33.9102C175.415 32.905 175.071 32.0178 174.14 31.3693C173.327 30.8063 172.493 30.8063 171.651 31.4194C171.318 31.6611 171.021 31.9647 170.738 32.2683C170.008 33.0524 169.695 34.0546 169.333 35.0332C168.659 36.8607 168.656 38.7207 169.036 40.6926Z" fill="#022791"/>
<path d="M191.449 32.625C191.293 32.8962 191.143 33.1733 190.978 33.4356C190.61 34.0193 190.242 34.0163 189.874 33.4297C189.703 33.1585 189.544 32.8785 189.382 32.6014L189.258 32.6309C189.258 32.9168 189.258 33.2028 189.258 33.4857C189.258 33.7687 189.258 34.0487 189.249 34.3317C189.238 34.6117 189.061 34.7621 188.802 34.7738C188.534 34.7856 188.333 34.6206 188.33 34.3582C188.313 33.2912 188.313 32.2271 188.33 31.1601C188.336 30.8712 188.56 30.6472 188.825 30.656C189.046 30.6649 189.335 30.8004 189.461 30.9744C189.75 31.3664 189.953 31.8203 190.195 32.2448C190.251 32.345 190.324 32.4364 190.433 32.5926C190.672 32.174 190.875 31.8174 191.081 31.4607C191.19 31.2691 191.273 31.0451 191.429 30.9036C191.576 30.771 191.82 30.6383 191.991 30.6708C192.18 30.7061 192.342 30.9213 192.492 31.0805C192.548 31.1424 192.554 31.2662 192.554 31.3605C192.557 32.3037 192.557 33.2499 192.554 34.1932C192.554 34.2669 192.56 34.3671 192.519 34.4054C192.365 34.541 192.206 34.7267 192.027 34.7562C191.788 34.7945 191.62 34.6088 191.611 34.3464C191.597 33.9043 191.594 33.4651 191.582 33.023C191.579 32.8933 191.564 32.7665 191.555 32.6368C191.52 32.6309 191.488 32.625 191.452 32.6191L191.449 32.625Z" fill="#022791"/>
<path d="M185.965 30.6766C186.442 30.6766 186.919 30.6678 187.396 30.6796C187.682 30.6855 187.838 30.8299 187.847 31.1424C187.856 31.4872 187.641 31.5462 187.376 31.5727C187.314 31.5786 187.255 31.5845 187.193 31.5845C186.46 31.5845 186.551 31.5639 186.551 32.2448C186.551 32.8933 186.533 33.5447 186.516 34.1932C186.504 34.5764 186.327 34.7856 186.047 34.7797C185.768 34.7738 185.52 34.5174 185.514 34.1814C185.5 33.5683 185.508 32.9552 185.508 32.3421C185.508 32.1829 185.5 32.0237 185.508 31.8645C185.523 31.6494 185.411 31.5816 185.223 31.5816C185.052 31.5816 184.878 31.5816 184.71 31.5698C184.439 31.5491 184.233 31.4489 184.236 31.1276C184.236 30.8093 184.439 30.7002 184.716 30.6943C185.131 30.6855 185.55 30.6943 185.965 30.6943C185.965 30.6884 185.965 30.6855 185.965 30.6796V30.6766Z" fill="#022791"/>
<path d="M30.5713 37.3235C30.4152 36.5689 30.2562 35.8821 30.1296 35.1894C29.6259 32.4304 29.4168 29.6508 29.3667 26.8476C29.2872 22.3319 29.9116 17.9222 31.1663 13.601C31.72 11.6969 32.3915 9.81922 33.4636 8.12728C33.7934 7.60555 34.2117 7.11625 34.6799 6.71537C35.4958 6.01089 36.288 6.20838 36.7681 7.1752C37.31 8.26582 37.5722 9.44192 37.6458 10.6475C37.7312 12.0565 37.8019 13.4684 37.7931 14.8773C37.7666 20.3894 36.8123 25.7305 34.6947 30.8387C33.7551 33.1084 32.5388 35.216 30.8747 37.0435C30.8011 37.1231 30.7186 37.1909 30.5713 37.3265V37.3235Z" fill="white"/>
<path d="M76.3845 36C76.4699 38.6558 75.8131 41.1289 74.4789 43.4133C74.1815 43.9203 73.7338 44.3507 73.2979 44.7545C72.7943 45.2173 72.1728 45.2851 71.5072 45.0994C69.8549 44.6395 68.9537 43.5312 68.7092 41.8658C68.3764 39.5814 68.6739 37.3707 69.5339 35.2307C69.9757 34.1342 70.441 33.0495 71.2097 32.1386C71.5661 31.7142 71.9873 31.3045 72.4585 31.0215C73.669 30.2934 74.9649 30.6884 75.6541 31.9205C76.1577 32.8225 76.2961 33.8158 76.3786 34.821C76.411 35.2101 76.3845 35.6051 76.3845 36Z" fill="white"/>
<path d="M47.262 39.5667C47.1972 36.4717 48.1868 33.7923 49.9392 31.3694C50.3545 30.7946 50.8964 30.3495 51.5827 30.1137C52.4368 29.8189 53.4882 30.211 54.1008 31.0451C54.6192 31.7496 54.8519 32.5661 54.9402 33.4121C55.1935 35.8557 55.0374 38.2639 54.1421 40.5836C53.7268 41.6595 53.3086 42.7443 52.4692 43.5814C50.8788 45.1643 48.4283 44.5954 47.6449 42.4731C47.2915 41.5121 47.2326 40.51 47.2591 39.5697L47.262 39.5667Z" fill="white"/>
<path d="M85.3527 52.0852C85.3792 52.3122 85.4057 52.4537 85.4087 52.5951C85.4941 56.091 85.6266 59.5899 85.6443 63.0887C85.6531 64.8484 85.5942 66.6258 85.0729 68.3384C84.9669 68.6892 84.8491 69.0429 84.6783 69.3671C83.6622 71.2831 82.0217 71.0591 80.8377 70.0245C80.0101 69.3023 79.7597 68.306 79.6684 67.2507C79.4151 64.3562 80.1426 61.6591 81.2765 59.0387C82.272 56.7336 83.4324 54.5258 84.9551 52.5215C85.0552 52.3888 85.179 52.2768 85.3498 52.0882L85.3527 52.0852Z" fill="white"/>
<path d="M90.3357 43.4604C90.3681 42.9239 90.3887 42.4376 90.427 41.9512C90.5507 40.4715 90.7451 39.0006 91.231 37.5887C91.7376 36.1149 92.309 34.6588 93.2721 33.4119C94.3 32.0796 95.6224 31.2602 97.3719 31.4046C98.8209 31.5225 99.8135 32.7812 99.6957 34.2402C99.5749 35.717 98.9181 36.9668 98.0493 38.1105C96.1378 40.6248 93.602 42.2872 90.6803 43.3985C90.5949 43.4309 90.5006 43.4339 90.3386 43.4633L90.3357 43.4604Z" fill="white"/>
<path d="M169.036 40.6897C168.656 38.7178 168.659 36.8578 169.333 35.0303C169.695 34.0517 170.008 33.0495 170.738 32.2654C171.021 31.9618 171.315 31.6611 171.651 31.4165C172.491 30.8034 173.327 30.8034 174.14 31.3664C175.071 32.0119 175.412 32.9021 175.168 33.9072C174.914 34.933 174.293 35.7318 173.636 36.5129C172.39 37.9956 170.944 39.2601 169.433 40.4598C169.333 40.5394 169.212 40.5895 169.036 40.6897Z" fill="white"/>
</g>
<defs>
<clipPath id="clip0_642_3037">
<rect width="192" height="76" fill="white" transform="translate(0.550537)"/>
</clipPath>
</defs>
</svg>
