<svg width="334" height="292" viewBox="0 0 334 292" fill="none" xmlns="http://www.w3.org/2000/svg">
<path d="M332.213 139.378L331.778 138.789C331.12 137.902 330.119 137.429 329.089 137.39L331.937 134.499C331.991 134.442 332.037 134.382 332.085 134.322C333.542 132.979 333.872 130.734 332.751 129.024C331.704 127.425 329.72 126.808 327.985 127.385C329.083 126.23 329.464 124.489 328.813 122.933C327.934 120.836 325.498 119.84 323.401 120.719L321.139 121.666L312.151 124.421C311.377 124.657 310.899 123.601 311.584 123.177C315.707 120.639 321.822 116.835 326.702 113.637C334.856 108.293 330.218 103.414 330.218 103.414L302.033 116.124C298.507 117.714 295.707 120.568 294.188 124.125L278.596 160.619L264.765 190.654L257.555 228.858L249.647 225.609C258.832 262.063 291.533 190.688 291.533 190.688L307.945 168.808L320.914 149.704C320.914 149.704 320.977 149.67 321.085 149.61C322.226 150.165 323.629 150.1 324.713 149.297L331.476 144.292C333.03 143.143 333.36 140.932 332.21 139.381L332.213 139.378Z" fill="white" stroke="#022791" stroke-miterlimit="10" stroke-linecap="round"/>
<path d="M290.199 133.466L313.574 129.557C313.574 129.557 316.837 136.63 308.728 138.613C300.619 140.596 299.64 140.747 299.64 140.747C299.64 140.747 303.845 149.556 294.447 156.599" fill="white"/>
<path d="M290.199 133.466L313.574 129.557C313.574 129.557 316.837 136.63 308.728 138.613C300.619 140.596 299.64 140.747 299.64 140.747C299.64 140.747 303.845 149.556 294.447 156.599" stroke="#022791" stroke-miterlimit="10" stroke-linecap="round"/>
<path d="M34.7431 193.212C43.4612 169.636 63.8991 152.356 88.5965 147.678L117.556 142.193L142.968 147.735L193.04 142.193L218.076 155.574C231.252 162.616 240.295 175.503 242.437 190.29L243.849 200.035L278.314 145.325C278.314 145.325 294.945 168.222 312.663 170.398C312.996 172.726 278.507 226.334 255.201 263.13C246.014 277.636 225.65 279.67 213.774 267.267L204.321 257.397L193.037 291.62L6.73093 291.589C1.99916 291.589 -1.25303 286.832 0.46554 282.421C8.13368 262.76 26.1474 216.444 34.7403 193.209L34.7431 193.212Z" fill="#4D75FE"/>
<path d="M159.31 49.9501C163.608 49.9501 167.092 46.466 167.092 42.1682C167.092 37.8703 163.608 34.3862 159.31 34.3862C155.012 34.3862 151.528 37.8703 151.528 42.1682C151.528 46.466 155.012 49.9501 159.31 49.9501Z" fill="#4D75FE"/>
<path d="M192.92 16.7852L132.775 26.519L130.405 62.3501C125.394 61.5506 120.683 65.0361 120.02 70.1093C119.456 74.4057 122.108 78.5514 126.231 79.883C127.71 80.361 129.184 80.4151 130.57 80.1675L131.7 147.189L173.642 147.735L179.248 146.273L176.235 111.742L188.213 111.338C190.692 111.344 192.962 109.964 194.106 107.764C197.483 101.274 201.999 83.7697 195.344 38.7567L192.92 16.7852Z" fill="white" stroke="#022791" stroke-miterlimit="10" stroke-linecap="round"/>
<path d="M191.36 64.0885C193.562 64.0885 195.347 62.3038 195.347 60.1022C195.347 57.9006 193.562 56.1159 191.36 56.1159C189.159 56.1159 187.374 57.9006 187.374 60.1022C187.374 62.3038 189.159 64.0885 191.36 64.0885Z" fill="#022791"/>
<path d="M156.346 64.0885C158.547 64.0885 160.332 62.3038 160.332 60.1022C160.332 57.9006 158.547 56.1159 156.346 56.1159C154.144 56.1159 152.359 57.9006 152.359 60.1022C152.359 62.3038 154.144 64.0885 156.346 64.0885Z" fill="#022791"/>
<path d="M174.134 60.5376L176.294 79.385C176.607 82.125 174.311 84.4525 171.568 84.1737L166.079 83.616" stroke="#022791" stroke-miterlimit="10" stroke-linecap="round"/>
<path d="M158.97 87.4088C158.97 87.4088 160.626 96.7727 176.295 96.7727" stroke="#022791" stroke-miterlimit="10" stroke-linecap="round"/>
<path d="M130.406 62.35L131.743 67.5569H135.337L141.326 38.5119C141.326 38.5119 163.13 48.9485 195.345 38.7537C195.345 38.7537 196.773 47.4775 197.08 51.9958L207.281 24.3308C208.57 16.233 203.152 8.58761 195.086 7.11658L160.652 0.842645C144.869 -2.03397 128.645 2.54131 116.689 13.2397L111.832 17.5845C105.629 23.1357 103.549 31.9705 106.63 39.704L121.085 75.723C121.085 75.723 115.94 63.0897 130.409 62.3443L130.406 62.35Z" fill="#4D75FE"/>
<path d="M123.796 78.9269L127.148 95.0997H130.824L130.571 80.1674C130.571 80.1674 127.361 82.1222 123.793 78.9269H123.796Z" fill="#4D75FE"/>
<path d="M190.948 72.3655C198.335 72.3655 204.324 66.377 204.324 58.9897C204.324 51.6024 198.335 45.6138 190.948 45.6138C183.561 45.6138 177.572 51.6024 177.572 58.9897C177.572 66.377 183.561 72.3655 190.948 72.3655Z" stroke="#022791" stroke-miterlimit="10" stroke-linecap="round"/>
<path d="M156.346 72.3655C163.733 72.3655 169.721 66.377 169.721 58.9897C169.721 51.6024 163.733 45.6138 156.346 45.6138C148.958 45.6138 142.97 51.6024 142.97 58.9897C142.97 66.377 148.958 72.3655 156.346 72.3655Z" stroke="#022791" stroke-miterlimit="10" stroke-linecap="round"/>
<path d="M169.723 58.9897H177.57" stroke="#022791" stroke-width="0.685722" stroke-miterlimit="10" stroke-linecap="round"/>
<path d="M130.733 58.9897H142.971" stroke="#022791" stroke-miterlimit="10" stroke-linecap="round"/>
<path d="M117.56 142.193L131.388 128.455L156.347 147.493L141.42 164.363L117.56 142.193Z" fill="#022791"/>
<path d="M193.039 142.193L179.211 128.455L154.252 147.493L169.178 164.363L193.039 142.193Z" fill="#022791"/>
<path d="M155.396 148.871L151.247 191.084C150.855 195.067 153.984 198.521 157.988 198.521H161.473" stroke="#022791" stroke-miterlimit="10" stroke-linecap="round"/>
<path d="M162.538 176.897C164.494 176.897 166.08 175.311 166.08 173.355C166.08 171.398 164.494 169.812 162.538 169.812C160.581 169.812 158.995 171.398 158.995 173.355C158.995 175.311 160.581 176.897 162.538 176.897Z" fill="#022791"/>
<path d="M161.476 190.688C163.432 190.688 165.018 189.102 165.018 187.146C165.018 185.189 163.432 183.603 161.476 183.603C159.52 183.603 157.934 185.189 157.934 187.146C157.934 189.102 159.52 190.688 161.476 190.688Z" fill="#022791"/>
<path d="M48.8447 291.62C48.8447 291.62 76.5866 291.64 76.5866 291.62C76.5866 291.606 84.1096 242.072 88.1813 215.272C88.5853 212.606 84.8807 211.513 83.7739 213.974L48.8447 291.62Z" fill="#022791"/>
<path d="M204.324 257.397L209.164 244.667C210.051 242.334 206.833 240.698 205.47 242.789L173.648 291.62H193.042L204.327 257.4L204.324 257.397Z" fill="#022791"/>
<path d="M175.666 111.739L148.169 104.449C148.169 104.449 153.675 118.892 177.57 130.854L175.666 111.739Z" fill="#96D5ED"/>
</svg>
