<svg width="49" height="49" viewBox="0 0 49 49" fill="none" xmlns="http://www.w3.org/2000/svg">
<path d="M24.767 1C12.0086 1 1.60324 11.0525 1.02848 23.6687H1V48.5339H24.767C37.8924 48.5339 48.5339 37.8924 48.5339 24.767C48.5339 11.6415 37.8924 1 24.767 1Z" fill="white" stroke="#022791" stroke-width="0.736938" stroke-miterlimit="10" stroke-linecap="round"/>
<path d="M11.9654 30.0623C13.4284 30.0623 14.6144 28.8763 14.6144 27.4133C14.6144 25.9503 13.4284 24.7643 11.9654 24.7643C10.5024 24.7643 9.31641 25.9503 9.31641 27.4133C9.31641 28.8763 10.5024 30.0623 11.9654 30.0623Z" fill="#1D4FC6"/>
<path d="M23.8502 30.0622C25.3132 30.0622 26.4992 28.8763 26.4992 27.4133C26.4992 25.9503 25.3132 24.7643 23.8502 24.7643C22.3872 24.7643 21.2012 25.9503 21.2012 27.4133C21.2012 28.8763 22.3872 30.0622 23.8502 30.0622Z" fill="#1D4FC6"/>
<path d="M35.7379 30.0622C37.2009 30.0622 38.3869 28.8763 38.3869 27.4133C38.3869 25.9503 37.2009 24.7643 35.7379 24.7643C34.2749 24.7643 33.0889 25.9503 33.0889 27.4133C33.0889 28.8763 34.2749 30.0622 35.7379 30.0622Z" fill="#1D4FC6"/>
</svg>
