<svg width="381" height="317" viewBox="0 0 381 317" fill="none" xmlns="http://www.w3.org/2000/svg">
<path d="M206.918 160.63L253.69 149.402L257.406 158.439L313.066 177.494C326.8 181.901 334.813 196.157 331.433 210.178L311.302 293.728C309.108 302.839 300.956 309.258 291.584 309.258H217.608L96.1074 311.383L132.246 215.584C143.55 194.432 163.357 179.122 186.671 173.511L200.778 170.116L206.918 160.63Z" fill="#98AFED"/>
<path d="M155.834 104.398L165.773 86.2019C166.615 84.6569 167.417 83.0493 167.707 81.3136C172.832 50.7407 187.613 45.2378 187.613 45.2378L230.475 58.2551L254.495 158.706C240.209 175.576 208.082 168.116 208.082 168.116L203.746 140.155C203.746 140.155 190.419 140.843 173.745 137.859C163.528 136.029 161.678 124.582 162.802 110.8L158.605 110.097C155.97 109.656 154.556 106.748 155.837 104.403L155.834 104.398Z" fill="white" stroke="#022791" stroke-miterlimit="10" stroke-linecap="round"/>
<path d="M204.144 139.74C204.144 139.74 213.328 138.857 218.012 134.518L208.483 167.701L204.146 139.74H204.144Z" fill="#96D5ED"/>
<path d="M187.468 116.405C187.468 116.405 184.756 123.888 175.054 122.474Z" fill="white"/>
<path d="M187.468 116.405C187.468 116.405 184.756 123.888 175.054 122.474" stroke="#022791" stroke-miterlimit="10" stroke-linecap="round"/>
<path d="M179.128 96.115C181.241 96.115 182.955 94.4016 182.955 92.288C182.955 90.1745 181.241 88.4611 179.128 88.4611C177.014 88.4611 175.301 90.1745 175.301 92.288C175.301 94.4016 177.014 96.115 179.128 96.115Z" fill="#022791"/>
<path d="M192.185 85.7351C192.185 85.7351 185.535 77.8393 174.644 81.4756Z" fill="white"/>
<path d="M192.185 85.7351C192.185 85.7351 185.535 77.8393 174.644 81.4756" stroke="#022791" stroke-miterlimit="10" stroke-linecap="round"/>
<path d="M268.764 64.512C267.6 43.9716 248.998 40.0963 223.808 34.6703C209.533 31.5945 197.088 33.3757 188.984 35.4954C183.171 37.0148 179.131 42.2815 179.131 48.2908C186.81 79.0857 206.992 94.6781 214.666 97.3157C214.413 91.1243 219.839 87.2063 223.41 87.2205C229.564 87.2433 234.646 92.3051 234.689 98.4567C234.717 102.406 232.722 105.892 229.678 107.94L248.597 135.739C275.943 116.189 269.931 85.0581 268.767 64.5177L268.764 64.512Z" fill="#1D4FC6"/>
<path d="M271.423 72.2769C291.381 72.2769 307.561 56.0971 307.561 36.1384C307.561 16.1797 291.381 0 271.423 0C251.464 0 235.284 16.1797 235.284 36.1384C235.284 56.0971 251.464 72.2769 271.423 72.2769Z" fill="#1D4FC6"/>
<path d="M192.262 311.378L178.85 234.583C178.383 231.905 174.661 231.592 173.754 234.156L147.167 309.258L192.262 311.378Z" fill="#1D4FC6"/>
<path d="M201.188 284.601L194.313 286.476L185.994 277.291C182.54 273.475 177.478 271.526 172.359 272.036L140.011 275.257C140.011 275.257 140.011 282.313 147.571 282.481C155.131 282.649 164.372 282.145 164.372 282.145L137.993 294.24C137.993 294.24 142.025 301.129 149.417 297.769C156.809 294.408 164.369 290.041 164.369 290.041L148.407 303.146C148.407 303.146 152.439 308.692 157.817 305.332C163.194 301.971 172.433 295.418 172.433 295.418C172.433 295.418 179.321 311.717 192.259 311.381L217.605 309.261C217.605 309.261 218.675 287.56 201.182 284.601H201.188Z" fill="white" stroke="#022791" stroke-miterlimit="10" stroke-linecap="round"/>
<path d="M201.188 284.6L262.561 271.956L277.175 222.35" stroke="#022791" stroke-miterlimit="10" stroke-linecap="round"/>
<path d="M179.128 305.34H96.1074V316.912H179.128V305.34Z" fill="#E2AF0A"/>
<path d="M137.618 316.912H23.9471L0.191522 229.188C-0.741744 225.742 1.85319 222.35 5.42407 222.35H107.864C110.311 222.35 112.456 223.992 113.097 226.354L137.621 316.912H137.618Z" fill="#FFD125"/>
<path d="M340.752 237.897C362.841 237.897 380.748 219.99 380.748 197.901C380.748 175.811 362.841 157.904 340.752 157.904C318.662 157.904 300.755 175.811 300.755 197.901C300.755 219.99 318.662 237.897 340.752 237.897Z" fill="#4D75FE"/>
<path d="M355.12 191.339C355.943 190.418 356.455 189.217 356.455 187.888V183.583C356.455 183.079 356.048 182.673 355.544 182.673H351.973C348.69 180.231 344.798 178.934 340.686 178.934C336.575 178.934 332.682 180.231 329.399 182.673H325.831C325.327 182.673 324.92 183.079 324.92 183.583V187.888C324.92 189.217 325.435 190.418 326.255 191.339C323.845 191.627 321.964 193.661 321.964 196.145V202.726C321.964 203.23 322.371 203.637 322.874 203.637H337.397C337.901 203.637 338.307 203.23 338.307 202.726V196.145C338.307 193.658 336.427 191.627 334.017 191.339C334.839 190.418 335.351 189.217 335.351 187.888V183.583C335.351 183.079 334.944 182.673 334.441 182.673H332.813C335.229 181.418 337.901 180.755 340.686 180.755C343.472 180.755 346.143 181.415 348.559 182.673H346.934C346.431 182.673 346.024 183.079 346.024 183.583V187.888C346.024 189.217 346.539 190.418 347.358 191.339C344.948 191.627 343.068 193.661 343.068 196.145V202.726C343.068 203.23 343.474 203.637 343.978 203.637H358.501C359.004 203.637 359.411 203.23 359.411 202.726V196.145C359.411 193.658 357.53 191.627 355.12 191.339ZM336.486 196.145V201.816H323.788V196.145C323.788 194.469 325.151 193.104 326.829 193.104H333.445C335.123 193.104 336.486 194.466 336.486 196.145ZM333.53 187.888C333.53 189.76 332.008 191.283 330.136 191.283C328.263 191.283 326.741 189.76 326.741 187.888V184.494H333.527V187.888H333.53ZM347.845 184.494H354.631V187.888C354.631 189.76 353.109 191.283 351.236 191.283C349.364 191.283 347.842 189.76 347.842 187.888V184.494H347.845ZM357.587 201.816H344.889V196.145C344.889 194.469 346.252 193.104 347.93 193.104H354.546C356.222 193.104 357.587 194.466 357.587 196.145V201.816Z" fill="#FDFDFD"/>
<path d="M348.915 212.91C348.506 213.135 348.09 213.342 347.675 213.524C347.217 213.729 347.009 214.267 347.214 214.728C347.365 215.067 347.697 215.269 348.047 215.269C348.173 215.269 348.298 215.243 348.417 215.189C348.875 214.984 349.336 214.754 349.789 214.509C350.23 214.267 350.392 213.712 350.15 213.271C349.908 212.83 349.353 212.668 348.912 212.91H348.915Z" fill="#FDFDFD"/>
<path d="M353.083 209.703C352.682 210.124 352.249 210.531 351.806 210.912C351.424 211.24 351.379 211.814 351.706 212.199C351.885 212.409 352.141 212.517 352.4 212.517C352.611 212.517 352.819 212.446 352.992 212.298C353.484 211.877 353.959 211.427 354.403 210.961C354.75 210.597 354.736 210.019 354.372 209.672C354.011 209.325 353.43 209.339 353.083 209.703Z" fill="#FDFDFD"/>
<path d="M357.15 205.327C356.703 205.1 356.154 205.273 355.92 205.72C355.71 206.132 355.479 206.536 355.237 206.923C354.97 207.35 355.101 207.914 355.528 208.178C355.678 208.272 355.844 208.318 356.009 208.318C356.313 208.318 356.609 208.164 356.782 207.888C357.05 207.458 357.303 207.012 357.539 206.556C357.77 206.11 357.593 205.558 357.147 205.327H357.15Z" fill="#FDFDFD"/>
<path d="M333.704 213.524C333.291 213.339 332.873 213.132 332.463 212.91C332.022 212.668 331.467 212.83 331.225 213.271C330.984 213.712 331.146 214.267 331.587 214.509C332.039 214.756 332.5 214.984 332.958 215.189C333.081 215.243 333.206 215.269 333.328 215.269C333.678 215.269 334.008 215.067 334.162 214.728C334.367 214.267 334.162 213.729 333.701 213.524H333.704Z" fill="#FDFDFD"/>
<path d="M328.295 209.7C327.945 209.336 327.371 209.325 327.006 209.669C326.642 210.016 326.628 210.594 326.975 210.958C327.422 211.424 327.897 211.874 328.389 212.295C328.563 212.443 328.77 212.514 328.981 212.514C329.24 212.514 329.493 212.406 329.675 212.196C330.002 211.811 329.957 211.237 329.576 210.909C329.132 210.528 328.699 210.121 328.298 209.7H328.295Z" fill="#FDFDFD"/>
<path d="M325.458 205.723C325.227 205.273 324.678 205.097 324.231 205.33C323.785 205.56 323.608 206.109 323.839 206.556C324.069 207.006 324.322 207.452 324.595 207.891C324.769 208.167 325.065 208.32 325.369 208.32C325.534 208.32 325.699 208.275 325.85 208.181C326.277 207.916 326.408 207.353 326.14 206.926C325.896 206.533 325.665 206.129 325.458 205.723Z" fill="#FDFDFD"/>
<path d="M365.378 197.881C365.378 184.269 354.304 173.195 340.692 173.195C327.08 173.195 316.006 184.269 316.006 197.881C316.006 208.428 322.618 217.69 332.52 221.161V226.217C332.52 226.721 332.927 227.128 333.431 227.128H347.953C348.457 227.128 348.864 226.721 348.864 226.217V221.161C358.765 217.693 365.378 208.431 365.378 197.881ZM347.04 225.307H334.338V219.636C334.338 217.96 335.704 216.595 337.38 216.595H343.995C345.674 216.595 347.037 217.96 347.037 219.636V225.307H347.04ZM344.083 211.379C344.083 213.251 342.561 214.774 340.689 214.774C338.817 214.774 337.295 213.251 337.295 211.379V207.985H344.083V211.379ZM348.847 219.244C348.838 219.135 348.807 219.036 348.79 218.928C348.77 218.783 348.747 218.64 348.713 218.501C348.673 218.336 348.619 218.177 348.562 218.02C348.514 217.886 348.468 217.753 348.411 217.625C348.343 217.474 348.258 217.331 348.172 217.186C348.101 217.067 348.036 216.944 347.953 216.831C347.856 216.694 347.745 216.572 347.634 216.447C347.543 216.344 347.458 216.236 347.361 216.142C347.239 216.023 347.102 215.92 346.966 215.815C346.86 215.732 346.764 215.644 346.653 215.573C346.502 215.473 346.34 215.397 346.178 215.314C346.067 215.257 345.959 215.192 345.842 215.143C345.654 215.067 345.455 215.015 345.256 214.961C345.153 214.933 345.057 214.893 344.951 214.87C344.829 214.845 344.698 214.845 344.57 214.828C345.389 213.906 345.904 212.705 345.904 211.379V207.074C345.904 206.57 345.498 206.164 344.994 206.164H336.384C335.88 206.164 335.474 206.57 335.474 207.074V211.379C335.474 212.708 335.989 213.906 336.805 214.828C336.677 214.842 336.549 214.845 336.424 214.87C336.319 214.89 336.222 214.933 336.119 214.961C335.92 215.015 335.721 215.067 335.533 215.143C335.417 215.192 335.311 215.257 335.2 215.314C335.038 215.397 334.873 215.473 334.722 215.573C334.611 215.647 334.512 215.735 334.409 215.815C334.273 215.92 334.136 216.023 334.014 216.142C333.914 216.236 333.832 216.344 333.741 216.447C333.63 216.572 333.519 216.697 333.422 216.834C333.342 216.947 333.274 217.07 333.203 217.189C333.118 217.331 333.035 217.474 332.964 217.627C332.904 217.755 332.861 217.889 332.813 218.023C332.756 218.182 332.702 218.339 332.662 218.504C332.628 218.643 332.608 218.788 332.586 218.931C332.571 219.036 332.537 219.138 332.529 219.246C323.682 215.88 317.821 207.447 317.821 197.884C317.821 185.276 328.079 175.019 340.686 175.019C353.294 175.019 363.551 185.276 363.551 197.884C363.551 207.447 357.69 215.88 348.844 219.246L348.847 219.244Z" fill="#FDFDFD"/>
</svg>
