<svg width="91" height="59" viewBox="0 0 91 59" fill="none" xmlns="http://www.w3.org/2000/svg">
<path d="M82.2738 1H9.1177C4.63442 1 1 4.63443 1 9.11771V49.5639C1 54.0472 4.63442 57.6817 9.1177 57.6817H82.2738C86.757 57.6817 90.3915 54.0472 90.3915 49.5639V9.11771C90.3915 4.63443 86.757 1 82.2738 1Z" stroke="#4D75FE" stroke-miterlimit="10"/>
<path d="M10.731 11.7497H19.6483C21.1819 11.7497 22.4253 12.9931 22.4253 14.5267V49.823H7.95117V14.5267C7.95117 12.9931 9.19458 11.7497 10.7282 11.7497H10.731Z" fill="#4D75FE"/>
<path d="M31.3512 22.0327H40.2684C41.802 22.0327 43.0454 23.2761 43.0454 24.8097V49.8201H28.5713V24.8097C28.5713 23.2761 29.8147 22.0327 31.3483 22.0327H31.3512Z" fill="#4D75FE"/>
<path d="M51.9742 29.3422H60.8914C62.4251 29.3422 63.6685 30.5856 63.6685 32.1193V49.8229H49.1943V32.1193C49.1943 30.5856 50.4377 29.3422 51.9714 29.3422H51.9742Z" fill="#4D75FE"/>
<path d="M72.5973 35.3488H81.5145C83.0481 35.3488 84.2915 36.5922 84.2915 38.1258V49.8229H69.8174V38.1258C69.8174 36.5922 71.0608 35.3488 72.5944 35.3488H72.5973Z" fill="#4D75FE"/>
</svg>
