<svg width="179" height="106" viewBox="0 0 179 106" fill="none" xmlns="http://www.w3.org/2000/svg">
<path d="M171.77 18.3081H54.2209C50.495 18.3081 47.4746 21.3285 47.4746 25.0543V25.0572C47.4746 28.783 50.495 31.8034 54.2209 31.8034H171.77C175.495 31.8034 178.516 28.783 178.516 25.0572V25.0543C178.516 21.3285 175.495 18.3081 171.77 18.3081Z" fill="#4D75FE"/>
<path d="M16.8811 41.2841C25.8445 41.2841 33.1108 34.0178 33.1108 25.0543C33.1108 16.0909 25.8445 8.82463 16.8811 8.82463C7.91767 8.82463 0.651367 16.0909 0.651367 25.0543C0.651367 34.0178 7.91767 41.2841 16.8811 41.2841Z" fill="#FFD125"/>
<path d="M9.08789 22.3769L17.7861 30.4462L37.2566 1" stroke="#022791" stroke-miterlimit="10"/>
<path d="M89.409 71.5725H54.2209C50.495 71.5725 47.4746 74.5929 47.4746 78.3187V78.3216C47.4746 82.0474 50.495 85.0678 54.2209 85.0678H89.409C93.1348 85.0678 96.1552 82.0474 96.1552 78.3216V78.3187C96.1552 74.5929 93.1348 71.5725 89.409 71.5725Z" fill="#4D75FE"/>
<path d="M148.301 91.7487H54.2209C50.495 91.7487 47.4746 94.7692 47.4746 98.495V98.4979C47.4746 102.224 50.495 105.244 54.2209 105.244H148.301C152.027 105.244 155.048 102.224 155.048 98.4979V98.495C155.048 94.7692 152.027 91.7487 148.301 91.7487Z" fill="#4D75FE"/>
<path d="M148.302 71.5725H113.113C109.388 71.5725 106.367 74.5929 106.367 78.3188V78.3216C106.367 82.0475 109.388 85.0679 113.113 85.0679H148.302C152.027 85.0679 155.048 82.0475 155.048 78.3216V78.3188C155.048 74.5929 152.027 71.5725 148.302 71.5725Z" fill="#4D75FE"/>
<path d="M16.8811 94.5485C25.8445 94.5485 33.1108 87.2822 33.1108 78.3188C33.1108 69.3554 25.8445 62.0891 16.8811 62.0891C7.91767 62.0891 0.651367 69.3554 0.651367 78.3188C0.651367 87.2822 7.91767 94.5485 16.8811 94.5485Z" fill="#FFD125"/>
<path d="M9.08789 75.6443L17.7861 83.7108L37.2566 54.2645" stroke="#022791" stroke-miterlimit="10"/>
</svg>
