<svg width="216" height="153" viewBox="0 0 216 153" fill="none" xmlns="http://www.w3.org/2000/svg">
<path d="M0.5 9.5H215.5V148C215.5 150.485 213.485 152.5 211 152.5H4.99999C2.51471 152.5 0.5 150.485 0.5 148V9.5Z" fill="white" stroke="#1D4FC6"/>
<path d="M3.56693 0H212.433C214.4 0 216 1.63706 216 3.65708V13H0V3.65708C0 1.63999 1.59671 0 3.56693 0Z" fill="#435ED8"/>
<path d="M99.3796 28.53H42.5899C41.4946 28.53 40.6067 29.4179 40.6067 30.5132V30.516C40.6067 31.6113 41.4946 32.4992 42.5899 32.4992H99.3796C100.475 32.4992 101.363 31.6113 101.363 30.516V30.5132C101.363 29.4179 100.475 28.53 99.3796 28.53Z" fill="#1D4FC6"/>
<path d="M99.3796 57.2279H42.5899C41.4946 57.2279 40.6067 58.1158 40.6067 59.2111V59.2139C40.6067 60.3092 41.4946 61.1971 42.5899 61.1971H99.3796C100.475 61.1971 101.363 60.3092 101.363 59.2139V59.2111C101.363 58.1158 100.475 57.2279 99.3796 57.2279Z" fill="#1D4FC6"/>
<path d="M94.4941 65.7752H37.7044C36.6091 65.7752 35.7212 66.6631 35.7212 67.7584V67.7613C35.7212 68.8566 36.6091 69.7444 37.7044 69.7444H94.4941C95.5894 69.7444 96.4773 68.8566 96.4773 67.7613V67.7584C96.4773 66.6631 95.5894 65.7752 94.4941 65.7752Z" fill="#1D4FC6"/>
<path d="M94.4941 108.213H37.7044C36.6091 108.213 35.7212 109.101 35.7212 110.196V110.199C35.7212 111.295 36.6091 112.182 37.7044 112.182H94.4941C95.5894 112.182 96.4773 111.295 96.4773 110.199V110.196C96.4773 109.101 95.5894 108.213 94.4941 108.213Z" fill="#1D4FC6"/>
<path d="M100.908 74.3254H44.1182C43.0229 74.3254 42.135 75.2133 42.135 76.3086V76.3115C42.135 77.4068 43.0229 78.2946 44.1182 78.2946H100.908C102.003 78.2946 102.891 77.4068 102.891 76.3115V76.3086C102.891 75.2133 102.003 74.3254 100.908 74.3254Z" fill="#1D4FC6"/>
<path d="M198.3 28.53H141.51C140.415 28.53 139.527 29.4179 139.527 30.5132V30.516C139.527 31.6113 140.415 32.4992 141.51 32.4992H198.3C199.395 32.4992 200.283 31.6113 200.283 30.516V30.5132C200.283 29.4179 199.395 28.53 198.3 28.53Z" fill="#1D4FC6"/>
<path d="M130.521 28.53H108.843C107.748 28.53 106.86 29.4179 106.86 30.5132V30.5161C106.86 31.6113 107.748 32.4993 108.843 32.4993H130.521C131.617 32.4993 132.505 31.6113 132.505 30.5161V30.5132C132.505 29.4179 131.617 28.53 130.521 28.53Z" fill="#1D4FC6"/>
<path d="M90.2203 38.9097H68.5418C67.4465 38.9097 66.5586 39.7977 66.5586 40.893V40.8958C66.5586 41.9911 67.4465 42.879 68.5418 42.879H90.2203C91.3156 42.879 92.2035 41.9911 92.2035 40.8958V40.893C92.2035 39.7977 91.3156 38.9097 90.2203 38.9097Z" fill="#1D4FC6"/>
<path d="M145.178 38.9097H99.9883C98.893 38.9097 98.0051 39.7977 98.0051 40.893V40.8958C98.0051 41.9911 98.893 42.879 99.9883 42.879H145.178C146.273 42.879 147.161 41.9911 147.161 40.8958V40.893C147.161 39.7977 146.273 38.9097 145.178 38.9097Z" fill="#1D4FC6"/>
<path d="M21.6992 28.5301H14.1819C13.0944 28.5301 12.2129 29.4116 12.2129 30.499C12.2129 31.5865 13.0944 32.468 14.1819 32.468H21.6992C22.7866 32.468 23.6682 31.5865 23.6682 30.499C23.6682 29.4116 22.7866 28.5301 21.6992 28.5301Z" fill="#FFD125"/>
<path d="M21.6992 48.2169H14.1819C13.0944 48.2169 12.2129 49.0984 12.2129 50.1858C12.2129 51.2732 13.0944 52.1548 14.1819 52.1548H21.6992C22.7866 52.1548 23.6682 51.2732 23.6682 50.1858C23.6682 49.0984 22.7866 48.2169 21.6992 48.2169Z" fill="#FFD125"/>
<path d="M21.6992 57.1653H14.1819C13.0944 57.1653 12.2129 58.0469 12.2129 59.1343C12.2129 60.2217 13.0944 61.1032 14.1819 61.1032H21.6992C22.7866 61.1032 23.6682 60.2217 23.6682 59.1343C23.6682 58.0469 22.7866 57.1653 21.6992 57.1653Z" fill="#FFD125"/>
<path d="M21.6992 66.114H14.1819C13.0944 66.114 12.2129 66.9955 12.2129 68.0829C12.2129 69.1704 13.0944 70.0519 14.1819 70.0519H21.6992C22.7866 70.0519 23.6682 69.1704 23.6682 68.0829C23.6682 66.9955 22.7866 66.114 21.6992 66.114Z" fill="#FFD125"/>
<path d="M21.6992 87.1807H14.1819C13.0944 87.1807 12.2129 88.0622 12.2129 89.1496C12.2129 90.2371 13.0944 91.1186 14.1819 91.1186H21.6992C22.7866 91.1186 23.6682 90.2371 23.6682 89.1496C23.6682 88.0622 22.7866 87.1807 21.6992 87.1807Z" fill="#FFD125"/>
<path d="M21.6992 108.245H14.1819C13.0944 108.245 12.2129 109.126 12.2129 110.214C12.2129 111.301 13.0944 112.183 14.1819 112.183H21.6992C22.7866 112.183 23.6682 111.301 23.6682 110.214C23.6682 109.126 22.7866 108.245 21.6992 108.245Z" fill="#FFD125"/>
</svg>
