<svg width="129" height="129" viewBox="0 0 129 129" fill="none" xmlns="http://www.w3.org/2000/svg">
<circle cx="64.5" cy="64.5" r="64.5" fill="#4D75FE"/>
<path d="M77.631 56.4564L43.9327 56.1589C43.6172 56.1549 43.3317 56.3406 43.2059 56.6281C43.0801 56.9156 43.136 57.2511 43.3517 57.4827L52.5565 67.3404L53.2254 80.8102C53.2413 81.1197 53.439 81.3932 53.7285 81.505C54.018 81.6168 54.3475 81.5489 54.5671 81.3293L78.1821 57.8022C78.4078 57.5785 78.4757 57.2411 78.3558 56.9476C78.236 56.6541 77.9505 56.4604 77.633 56.4584L77.631 56.4564Z" stroke="white" stroke-width="2" stroke-miterlimit="10" stroke-linecap="round"/>
<path d="M52.5525 67.3404L78.3519 56.9456" stroke="white" stroke-width="2" stroke-miterlimit="10" stroke-linecap="round"/>
<path d="M28.2147 35H98.7122C100.487 35 101.927 36.4396 101.927 38.2147V91.9819C101.927 92.7985 101.264 93.4614 100.447 93.4614H26.4796C25.6629 93.4614 25 92.7985 25 91.9819V38.2147C25 36.4396 26.4396 35 28.2147 35Z" stroke="white" stroke-width="2" stroke-miterlimit="10" stroke-linecap="round"/>
<path d="M25 40.4509H101.925" stroke="white" stroke-width="2" stroke-miterlimit="10" stroke-linecap="round"/>
</svg>
