<svg width="137" height="179" viewBox="0 0 137 179" fill="none" xmlns="http://www.w3.org/2000/svg">
<path d="M120.658 120.112L116.393 41.0747H20.9384L16.6733 120.112C16.268 127.627 18.921 134.985 24.0244 140.513L51.0155 169.762C53.5949 172.549 57.2152 174.14 61.0197 174.14H76.3116C80.1161 174.14 83.7364 172.549 86.3158 169.762L113.307 140.513C118.41 134.976 121.063 127.618 120.658 120.112V120.112Z" fill="white" stroke="#022791" stroke-miterlimit="10"/>
<path d="M119.948 108.514C119.211 114.971 116.733 120.324 113.795 124.582C108.314 132.52 97.1211 133.918 89.7423 127.7C84.8139 123.552 78.6326 121.207 72.2119 121.023V121.004H65.0173V121.023C58.5874 121.207 52.4061 123.552 47.4869 127.7C40.1081 133.918 28.9156 132.52 23.4345 124.582C20.4959 120.324 18.0271 114.971 17.2809 108.514C10.0311 126.468 12.7118 171.464 63.9948 178.068H73.2344C124.517 171.464 127.198 126.459 119.948 108.514V108.514Z" fill="#B2C3FF"/>
<path d="M64.6582 147.062C64.6582 147.062 81.3411 150.621 88.4712 136.926" stroke="#022791" stroke-miterlimit="10"/>
<path d="M17.2903 108.514L6.27282 101.689C4.06195 100.318 2.59725 98.028 2.27483 95.4617L1.05884 85.6568C0.377156 80.1933 5.73853 75.9439 10.9157 77.8478L18.7919 80.736L17.2903 108.514V108.514Z" fill="white" stroke="#022791" stroke-miterlimit="10" stroke-linecap="round"/>
<path d="M120.068 108.514L131.086 101.689C133.297 100.318 134.762 98.028 135.084 95.4617L136.3 85.6568C136.982 80.1933 131.62 75.9439 126.443 77.8478L118.567 80.736L120.068 108.514V108.514Z" fill="white" stroke="#022791" stroke-miterlimit="10" stroke-linecap="round"/>
<path d="M17.2903 108.514L32.6559 56.0214C33.1718 54.2554 35.2905 53.5379 36.7645 54.6325C41.1401 57.8517 50.3982 63.0026 64.8149 63.0026C78.4486 63.0026 92.5337 57.1343 100.723 53.0229C104.334 51.2109 108.692 53.3264 109.502 57.2815L120.059 108.514L130.063 51.0453C130.063 51.0453 134.199 31.6102 120.686 23.7L121.662 20.9131C126.047 8.36716 113.823 -3.59927 101.331 1.00886C79.9686 8.89144 55.4832 16.0014 44.9171 17.7214C28.6579 20.3704 8.43766 18.5768 9.88394 38.2327C11.3302 57.8885 17.2811 108.523 17.2811 108.523L17.2903 108.514Z" fill="#B2C3FF"/>
<path d="M70.2405 88.4897L64.7963 113.333C64.004 116.948 66.7584 120.36 70.4616 120.36H77.868" fill="white"/>
<path d="M70.2405 88.4897L64.7963 113.333C64.004 116.948 66.7584 120.36 70.4616 120.36H77.868" stroke="#022791" stroke-miterlimit="10" stroke-linecap="round"/>
<path d="M43.8946 107.87C46.8505 107.87 49.2468 105.477 49.2468 102.526C49.2468 99.5745 46.8505 97.1819 43.8946 97.1819C40.9387 97.1819 38.5425 99.5745 38.5425 102.526C38.5425 105.477 40.9387 107.87 43.8946 107.87Z" fill="#022791"/>
<path d="M94.0905 107.87C97.0464 107.87 99.4426 105.477 99.4426 102.526C99.4426 99.5745 97.0464 97.1819 94.0905 97.1819C91.1345 97.1819 88.7383 99.5745 88.7383 102.526C88.7383 105.477 91.1345 107.87 94.0905 107.87Z" fill="#022791"/>
</svg>
