<svg width="369" height="313" viewBox="0 0 369 313" fill="none" xmlns="http://www.w3.org/2000/svg">
<path d="M216.742 1.92358H152.617L130.665 106.209H238.694L216.742 1.92358Z" fill="white" stroke="#022791" stroke-miterlimit="10"/>
<path d="M220.058 20.3285L216.742 1.92357L153.336 0.424316L142.042 54.0663C142.042 54.0663 199.147 46.3493 220.067 20.3285H220.058Z" fill="#4D75FE"/>
<path d="M164.095 85.0999C171.068 87.5833 178.585 88.9354 186.415 88.9354C192.016 88.9354 197.46 88.2455 202.665 86.9394V204.332H155.675L164.095 85.0999Z" fill="#FFD125"/>
<path d="M366.767 262.15L321.969 108.959C317.658 94.2149 306.742 82.3129 292.408 76.7206L234.29 54.0662C234.29 54.0662 227.501 42.5413 226.128 36.9766C226.128 36.9766 227.215 54.2686 204.6 61.9948C197.783 64.469 193.877 66.0143 192.118 75.6076C190.533 84.2168 187.991 132.23 187.373 144.748L187.244 147.535L184.674 186.819L182.104 147.535L181.975 144.748C181.358 132.23 178.815 84.2077 177.231 75.6076C175.471 66.0235 171.556 64.469 164.749 61.9948C142.133 54.2594 143.22 36.9766 143.22 36.9766C141.857 42.5413 135.059 54.0662 135.059 54.0662L76.9402 76.7206C62.6156 82.3037 51.6902 94.2149 47.379 108.959L2.58122 262.15C-4.67782 286.984 13.9672 311.818 39.8805 311.818H329.468C355.372 311.818 374.026 286.984 366.767 262.15V262.15Z" fill="white" stroke="#022791" stroke-miterlimit="10" stroke-linecap="round"/>
<path d="M108.012 211.083C108.012 211.083 95.7418 237.702 126.602 267.705" stroke="#022791" stroke-miterlimit="10" stroke-linecap="round"/>
<path d="M126.593 245.483C128.811 245.483 130.609 243.688 130.609 241.473C130.609 239.258 128.811 237.463 126.593 237.463C124.374 237.463 122.576 239.258 122.576 241.473C122.576 243.688 124.374 245.483 126.593 245.483Z" fill="#FFD125"/>
<path d="M91.6608 171.919L101.214 142.771L110.37 209.814L72.2788 230.997L91.6608 171.919Z" fill="#1D4FC6"/>
<path d="M56.1025 311.809L139.692 243.543C140.484 242.899 140.613 241.74 139.996 240.93C125.165 221.504 125.155 201.839 125.155 201.839C125.155 201.839 72.592 230.068 72.2788 230.997C71.9655 231.926 108.012 121.845 108.012 121.845" stroke="#022791" stroke-miterlimit="10" stroke-linecap="round"/>
<path d="M220.776 131.853H172.109C169.647 131.853 167.65 133.846 167.65 136.305V233.011C167.65 235.47 169.647 237.463 172.109 237.463H220.776C223.238 237.463 225.234 235.47 225.234 233.011V136.305C225.234 133.846 223.238 131.853 220.776 131.853Z" fill="#022791"/>
<path d="M283.786 170.079L269.747 174.724C265.445 176.15 260.802 176.15 256.5 174.724L242.461 170.079C240.453 169.417 239.099 167.54 239.099 165.425V123.041H287.139V165.425C287.139 167.54 285.785 169.408 283.777 170.079H283.786Z" fill="white" stroke="#022791" stroke-miterlimit="10" stroke-linecap="round"/>
<path d="M239.108 134.097H292.279" stroke="#022791" stroke-miterlimit="10" stroke-linecap="round"/>
<path d="M149.337 95.475L179.165 96.5144C178.484 86.7922 177.793 78.6797 177.231 75.5984C175.471 66.0143 171.556 64.4598 164.749 61.9856C164.5 61.9028 164.26 61.8108 164.021 61.728L149.346 68.5897V95.4659L149.337 95.475Z" fill="#022791"/>
<path d="M219.578 95.475L189.75 96.5144C190.432 86.7922 191.123 78.6797 191.684 75.5984C193.444 66.0143 197.359 64.4598 204.167 61.9856C204.415 61.9028 204.655 61.8108 204.894 61.728L219.569 68.5897V95.4659L219.578 95.475Z" fill="#022791"/>
<path d="M196.779 65.5177C196.779 65.5177 200.74 62.6019 204.563 68.4702C208.607 74.6787 219.836 95.4751 219.836 95.4751L247.399 59.2079C247.399 59.2079 242.424 50.4239 237.302 43.084C232.18 35.7441 223.355 31.1084 223.355 31.1084C223.355 31.1084 227.013 44.5005 221.32 50.9022C215.516 57.4327 210.228 60.0633 205.291 61.8385C197.718 64.5519 196.779 65.5268 196.779 65.5268V65.5177Z" fill="#1D4FC6"/>
<path d="M172.395 65.5176C172.395 65.5176 168.434 62.6019 164.611 68.4701C160.567 74.6787 149.337 95.4751 149.337 95.4751L121.775 59.2079C121.775 59.2079 126.749 50.4239 131.871 43.084C136.901 35.8821 146.223 30.1702 146.223 30.1702C146.223 30.1702 142.17 44.5005 147.854 50.9022C153.658 57.4327 158.945 60.0633 163.883 61.8385C171.455 64.5518 172.395 65.5268 172.395 65.5268V65.5176Z" fill="#1D4FC6"/>
<path d="M226.045 36.9766C226.045 36.9766 227.132 54.2686 204.517 61.9948C197.7 64.469 193.794 66.0143 192.035 75.6076C190.275 85.1918 187.309 143.709 187.162 147.544" stroke="#022791" stroke-miterlimit="10" stroke-linecap="round"/>
<path d="M143.128 36.9766C143.128 36.9766 142.041 54.2686 164.657 61.9948C171.474 64.469 175.38 66.0143 177.139 75.6076C178.899 85.1918 181.865 143.709 182.012 147.544" stroke="#022791" stroke-miterlimit="10" stroke-linecap="round"/>
<path d="M77.6406 227.759C77.6406 227.759 60.2023 236.304 50.7969 247.847Z" fill="white"/>
<path d="M77.6406 227.759C77.6406 227.759 60.2023 236.304 50.7969 247.847" stroke="#022791" stroke-miterlimit="10" stroke-linecap="round"/>
<path d="M340.191 173.013L351.512 270.014L344.53 279.083L365.312 288.042C367.228 281.364 369.43 272.782 366.316 262.141L340.191 173.013V173.013Z" fill="#1D4FC6"/>
<path d="M308.004 311.809L264.579 232.707C275.799 228.007 308.004 213.199 308.004 213.199L365.303 288.051" fill="white"/>
<path d="M308.004 311.809L264.579 232.707C275.799 228.007 308.004 213.199 308.004 213.199L365.303 288.051" stroke="#022791" stroke-miterlimit="10" stroke-linecap="round"/>
<path d="M279.493 245.005C281.711 245.005 283.509 243.209 283.509 240.995C283.509 238.78 281.711 236.984 279.493 236.984C277.275 236.984 275.477 238.78 275.477 240.995C275.477 243.209 277.275 245.005 279.493 245.005Z" fill="#FFD125"/>
<path d="M267.711 258.967C267.711 258.967 307.028 244.821 321.629 230.997" stroke="#022791" stroke-miterlimit="10" stroke-linecap="round"/>
<path d="M56.1025 311.809L66.466 303.779L292.279 284.381L308.004 311.809H56.1025Z" fill="#1D4FC6"/>
<path d="M273.33 228.909L244.791 200.027L246.284 198.675C249.333 195.907 253.985 195.888 257.062 198.62L261.529 202.603C262.276 203.265 263.363 202.354 262.838 201.508L249.72 180.399L229.039 158.867C228.283 158.085 228.661 156.788 229.711 156.521L232.42 155.85C235.524 155.077 238.804 155.73 241.374 157.625L259.429 176.085L263.482 171.459C264.919 169.812 267.333 169.426 269.212 170.539L272.814 172.664L275.79 169.527C277.31 167.927 279.769 167.651 281.612 168.874L284.965 171.109L289.838 167.789C291.072 166.943 292.647 166.768 294.048 167.311C296.148 168.129 297.686 169.96 298.11 172.176L305.388 214.753L273.321 228.927L273.33 228.909Z" fill="white" stroke="#022791" stroke-miterlimit="10" stroke-linecap="round"/>
<path d="M274.371 171.027L270.299 175.515C269.176 176.748 268.89 178.532 269.553 180.059L278.351 195.346" stroke="#022791" stroke-miterlimit="10" stroke-linecap="round"/>
<path d="M284.974 171.1L281.04 174.568C280.082 175.405 279.751 176.757 280.202 177.943L283.509 186.691" stroke="#022791" stroke-miterlimit="10" stroke-linecap="round"/>
<path d="M259.438 176.076C258.508 177.024 258.333 178.468 259.005 179.608L270.548 199.154" stroke="#022791" stroke-miterlimit="10" stroke-linecap="round"/>
<path d="M125.156 201.839L153.63 179.553C155.804 177.851 158.494 176.922 161.257 176.922H197.709C198.815 176.922 199.634 177.925 199.432 179.01C198.888 181.898 196.576 186.755 187.152 186.755H170.635L164.647 189.22C163.625 189.643 163.846 191.151 164.951 191.253L196.336 194.279C200.279 194.656 202.352 199.135 200.086 202.382L188.35 219.205C186.535 221.808 183.569 223.353 180.391 223.353H160.88C157.526 223.353 154.293 224.577 151.778 226.793L137.269 237.003C137.269 237.003 123.543 220.244 125.156 201.849V201.839Z" fill="white" stroke="#022791" stroke-miterlimit="10"/>
<path d="M197.617 204.332L172.385 202.787" stroke="#022791" stroke-miterlimit="10" stroke-linecap="round"/>
<path d="M194.632 211.856L179.174 210.908" stroke="#022791" stroke-miterlimit="10" stroke-linecap="round"/>
</svg>
