<svg width="129" height="129" viewBox="0 0 129 129" fill="none" xmlns="http://www.w3.org/2000/svg">
<circle cx="64.5" cy="64.5" r="64" fill="#4D75FE" stroke="white"/>
<g clip-path="url(#clip0_785_1394)">
<path d="M47.1028 90.8449C40.9902 90.8441 35.067 88.724 30.3423 84.8457C25.6176 80.9674 22.3838 75.5709 21.1918 69.5757C19.9999 63.5805 20.9235 57.3574 23.8053 51.9668C26.6871 46.5762 31.3489 42.3515 36.9963 40.0127C42.6437 37.6738 48.9273 37.3653 54.7767 39.1399C60.626 40.9145 65.679 44.6623 69.0749 49.7448C72.4708 54.8273 73.9994 60.9299 73.4003 67.0131C72.8012 73.0962 70.1114 78.7835 65.7892 83.1058C63.3413 85.5677 60.4292 87.5194 57.2215 88.8479C54.0139 90.1763 50.5746 90.8551 47.1028 90.8449ZM47.1028 39.2293C41.2735 39.2292 35.6245 41.2503 31.1183 44.9482C26.6121 48.6462 23.5275 53.7922 22.3902 59.5095C21.2528 65.2267 22.133 71.1615 24.8809 76.3025C27.6287 81.4435 32.0741 85.4727 37.4596 87.7035C42.8452 89.9344 48.8376 90.2288 54.4159 88.5367C59.9942 86.8446 64.8132 83.2706 68.0518 78.4237C71.2904 73.5768 72.7482 67.7569 72.1768 61.9557C71.6054 56.1545 69.0402 50.7309 64.9182 46.609C62.5843 44.2615 59.8081 42.4002 56.75 41.1327C53.692 39.8653 50.413 39.217 47.1028 39.2253V39.2293Z" fill="white"/>
<path d="M47.1028 85.6576C35.3926 85.6576 25.8635 76.1306 25.8635 64.4184C25.8635 52.7061 35.3906 43.1791 47.1028 43.1791C58.815 43.1791 68.3421 52.7061 68.3421 64.4184C68.3421 76.1306 58.813 85.6576 47.1028 85.6576ZM47.1028 44.4044C36.0686 44.4044 27.0889 53.3811 27.0889 64.4184C27.0889 75.4556 36.0665 84.4323 47.1028 84.4323C58.1391 84.4323 67.1167 75.4546 67.1167 64.4184C67.1167 53.3821 58.138 44.4085 47.1028 44.4085V44.4044Z" fill="white"/>
<path d="M47.1031 80.4745C38.251 80.4745 31.0491 73.2726 31.0491 64.4205C31.0491 55.5684 38.251 48.3665 47.1031 48.3665C55.9552 48.3665 63.1582 55.5684 63.1582 64.4205C63.1582 73.2726 55.9562 80.4745 47.1031 80.4745ZM47.1031 49.5918C38.927 49.5918 32.2744 56.2434 32.2744 64.4205C32.2744 72.5976 38.927 79.2492 47.1031 79.2492C55.2792 79.2492 61.9328 72.5976 61.9328 64.4205C61.9328 56.2434 55.2802 49.5918 47.1031 49.5918Z" fill="white"/>
<path d="M47.1028 75.2923C44.9526 75.2923 42.8506 74.6547 41.0627 73.4601C39.2749 72.2654 37.8814 70.5675 37.0585 68.5809C36.2357 66.5944 36.0204 64.4084 36.4399 62.2995C36.8594 60.1905 37.8948 58.2533 39.4152 56.7329C40.9357 55.2124 42.8729 54.177 44.9818 53.7575C47.0907 53.338 49.2767 53.5533 51.2633 54.3762C53.2499 55.199 54.9478 56.5925 56.1424 58.3804C57.337 60.1682 57.9747 62.2702 57.9747 64.4204C57.9714 67.3028 56.825 70.0663 54.7868 72.1044C52.7486 74.1426 49.9852 75.289 47.1028 75.2923ZM47.1028 54.7739C45.1949 54.7739 43.3299 55.3397 41.7435 56.3997C40.1571 57.4596 38.9207 58.9662 38.1906 60.7289C37.4605 62.4916 37.2694 64.4311 37.6417 66.3024C38.0139 68.1736 38.9326 69.8925 40.2817 71.2416C41.6308 72.5906 43.3496 73.5094 45.2209 73.8816C47.0921 74.2538 49.0317 74.0628 50.7944 73.3327C52.557 72.6025 54.0636 71.3661 55.1236 69.7798C56.1836 68.1934 56.7493 66.3283 56.7493 64.4204C56.7466 61.8629 55.7294 59.4108 53.9209 57.6023C52.1125 55.7938 49.6604 54.7766 47.1028 54.7739Z" fill="white"/>
<path d="M83.1699 90.845C77.057 90.8443 71.1335 88.7241 66.4086 84.8457C61.6837 80.9673 58.4496 75.5707 57.2576 69.5752C56.0655 63.5797 56.9891 57.3563 59.871 51.9655C62.753 46.5746 67.4149 42.3498 73.0626 40.0108C78.7102 37.6718 84.9942 37.3633 90.8438 39.138C96.6933 40.9127 101.747 44.6607 105.143 49.7434C108.539 54.8262 110.067 60.9292 109.468 67.0126C108.869 73.096 106.179 78.7834 101.856 83.1059C99.4082 85.5675 96.496 87.5191 93.2885 88.8475C90.0809 90.1759 86.6416 90.8548 83.1699 90.845ZM83.1699 39.2294C77.3406 39.2293 71.6916 41.2503 67.1854 44.9483C62.6792 48.6463 59.5946 53.7923 58.4573 59.5095C57.3199 65.2268 58.2002 71.1616 60.948 76.3026C63.6958 81.4436 68.1413 85.4728 73.5268 87.7036C78.9123 89.9344 84.9048 90.2289 90.4831 88.5368C96.0613 86.8446 100.88 83.2707 104.119 78.4238C107.358 73.5769 108.815 67.757 108.244 61.9558C107.673 56.1546 105.107 50.731 100.985 46.6091C98.6516 44.2614 95.8753 42.3999 92.8173 41.1325C89.7592 39.8651 86.4802 39.2169 83.1699 39.2253V39.2294Z" fill="white"/>
</g>
<defs>
<clipPath id="clip0_785_1394">
<rect width="88.9068" height="52.8409" fill="white" transform="translate(20.6826 38)"/>
</clipPath>
</defs>
</svg>
