<svg width="46" height="46" viewBox="0 0 46 46" fill="none" xmlns="http://www.w3.org/2000/svg">
<path d="M23.0461 0.617188C11.0153 0.617188 1.20448 10.0818 0.670185 21.9563H0.642578V45.3648H23.0461C35.4178 45.3648 45.4496 35.3484 45.4496 22.9956C45.4496 10.6429 35.4178 0.626384 23.0461 0.626384V0.617188Z" fill="#4D75FE"/>
<path d="M10.9788 27.9716C12.3576 27.9716 13.4753 26.8556 13.4753 25.479C13.4753 24.1023 12.3576 22.9863 10.9788 22.9863C9.60008 22.9863 8.48242 24.1023 8.48242 25.479C8.48242 26.8556 9.60008 27.9716 10.9788 27.9716Z" fill="#1D4FC6"/>
<path d="M22.1801 27.9716C23.5588 27.9716 24.6765 26.8556 24.6765 25.479C24.6765 24.1023 23.5588 22.9863 22.1801 22.9863C20.8013 22.9863 19.6836 24.1023 19.6836 25.479C19.6836 26.8556 20.8013 27.9716 22.1801 27.9716Z" fill="#1D4FC6"/>
<path d="M33.391 27.9716C34.7697 27.9716 35.8875 26.8556 35.8875 25.479C35.8875 24.1023 34.7697 22.9863 33.391 22.9863C32.0122 22.9863 30.8945 24.1023 30.8945 25.479C30.8945 26.8556 32.0122 27.9716 33.391 27.9716Z" fill="#1D4FC6"/>
</svg>
