<svg width="90" height="82" viewBox="0 0 90 82" fill="none" xmlns="http://www.w3.org/2000/svg">
<path d="M80.6347 0.539551H10.1967C5.3176 0.539551 1.3623 4.50877 1.3623 9.40504V72.2816C1.3623 77.1778 5.3176 81.147 10.1967 81.147H80.6347C85.5138 81.147 89.4691 77.1778 89.4691 72.2816V9.40504C89.4691 4.50877 85.5138 0.539551 80.6347 0.539551Z" fill="white"/>
<path d="M80.644 1.06271C85.2224 1.06271 88.9476 4.80106 88.9476 9.39552V72.2815C88.9476 76.876 85.2224 80.6143 80.644 80.6143H10.1965C5.61822 80.6143 1.89298 76.876 1.89298 72.2815V9.40503C1.89298 4.81057 5.61822 1.07223 10.1965 1.07223H80.644M80.644 0.0258698H10.1965C5.03052 0.0258698 0.84082 4.23032 0.84082 9.41454V72.3006C0.84082 77.4848 5.03052 81.6892 10.1965 81.6892H80.644C85.8101 81.6892 89.9998 77.4848 89.9998 72.3006V9.40503C89.9998 4.22081 85.8101 0.0163574 80.644 0.0163574V0.0258698Z" fill="#022791"/>
<path d="M74.8339 48.8624C74.6064 50.8124 74.5116 52.9717 74.085 55.0739C73.0139 60.4103 67.2602 62.3509 63.1084 58.8123C60.8335 56.8813 58.6154 54.8837 56.4163 52.8671C54.8902 51.4592 53.2029 50.7363 51.0796 50.7934C47.2217 50.898 43.3638 50.8885 39.5058 50.7934C37.4773 50.7458 35.847 51.4212 34.3872 52.7624C32.3492 54.6268 30.2544 56.4342 28.2164 58.3081C26.0363 60.3152 23.5528 61.1333 20.7091 60.1535C17.818 59.1642 16.7469 56.7386 16.3393 53.942C15.581 48.6911 16.0739 43.5164 17.3251 38.3893C18.0929 35.2502 19.2304 32.2729 20.9555 29.5333C25.2685 22.6654 32.4914 20.5917 39.7997 24.1303C40.5106 24.4728 41.2405 24.7962 41.8945 25.2242C44.1885 26.7652 46.397 26.6796 48.7762 25.2623C50.4161 24.292 52.2266 23.4644 54.0655 22.9983C59.9519 21.4954 64.8999 23.1601 68.6536 27.9923C71.8101 32.0636 73.2414 36.8483 74.0471 41.8423C74.4073 44.0967 74.559 46.3797 74.8244 48.8624H74.8339ZM30.7189 33.9565C29.7425 33.9565 28.9652 33.9946 28.188 33.9565C27.0315 33.89 26.624 34.4607 26.624 35.5356C26.624 38.903 26.5481 38.7698 29.4961 38.6461C30.5388 38.6081 30.7568 39.0552 30.7189 39.9779C30.5956 42.9933 30.8136 42.822 33.6384 42.803C33.7711 42.803 33.9038 42.803 34.0365 42.803C34.956 42.822 35.4299 42.394 35.4109 41.4523C35.4109 41.0147 35.4583 40.5676 35.4109 40.1396C35.2782 38.9981 35.6953 38.6081 36.8707 38.6461C39.5248 38.7222 39.5248 38.6556 39.5153 35.9637C39.5153 35.8305 39.5153 35.6973 39.5153 35.5641C39.5817 34.3751 39.0224 33.9375 37.847 33.947C35.4678 33.9565 35.4962 33.9185 35.392 31.5214C35.373 31.0172 35.0887 30.1326 34.8327 30.0945C33.6858 29.9328 32.4914 29.9519 31.335 30.0755C31.098 30.1041 30.7947 30.808 30.7473 31.2265C30.6525 32.0446 30.7189 32.8721 30.7189 33.9661V33.9565ZM66.7578 36.7341C66.7578 34.9553 65.3644 33.5475 63.6013 33.5475C61.8382 33.5475 60.4543 34.9744 60.4733 36.7532C60.4922 38.4844 61.8382 39.8352 63.5539 39.8637C65.3265 39.8922 66.7388 38.4939 66.7483 36.7246L66.7578 36.7341ZM58.2836 41.2145C58.2836 39.4452 56.8713 38.0278 55.1082 38.0468C53.3925 38.0659 52.0275 39.4261 51.9896 41.1479C51.9612 42.9172 53.3546 44.3726 55.0987 44.3916C56.8428 44.4106 58.2741 42.9838 58.2836 41.2145ZM58.2836 32.2538C58.2836 30.4845 56.8523 29.0482 55.1177 29.0672C53.3641 29.0862 51.9706 30.5321 51.9991 32.3014C52.018 33.9946 53.4115 35.4024 55.0987 35.4405C56.8144 35.469 58.2931 34.0041 58.2931 32.2634L58.2836 32.2538Z" fill="#4D75FE"/>
</svg>
