<svg width="257" height="170" viewBox="0 0 257 170" fill="none" xmlns="http://www.w3.org/2000/svg">
<path d="M247.76 0.654297H9.93492C4.83202 0.654297 0.695312 4.78468 0.695312 9.87977V159.805C0.695312 164.9 4.83202 169.031 9.93492 169.031H247.76C252.863 169.031 257 164.9 257 159.805V9.87977C257 4.78468 252.863 0.654297 247.76 0.654297Z" fill="white"/>
<path d="M14.0527 35.7076C14.0527 35.7076 46.442 16.1253 63.1802 45.4482C76.2888 68.4245 87.4721 97.5173 111.23 97.5173C134.987 97.5173 160.901 52.7973 160.901 52.7973C160.901 52.7973 168.998 39.442 178.717 39.442C188.435 39.442 195.989 48.9985 200.31 56.0073C204.63 63.0161 210.572 72.1036 218.669 72.1036C226.766 72.1036 235.407 64.1382 239.728 51.4544" stroke="#022791" stroke-miterlimit="10" stroke-linecap="round"/>
<path d="M239.727 60.1003C235.407 72.7842 226.766 80.7496 218.669 80.7496C210.571 80.7496 203.736 75.0561 199.416 68.0473C195.095 61.0385 188.794 48.511 179.076 48.511C169.357 48.511 160.836 65.5271 160.836 65.5271C160.836 65.5271 134.996 106.154 111.239 106.154C87.4809 106.154 72.1614 75.7643 59.0528 52.788C42.3147 23.4652 14.0615 44.3444 14.0615 44.3444V144.022H239.736V60.0911L239.727 60.1003Z" fill="#FFD125"/>
</svg>
