<svg width="193" height="113" viewBox="0 0 193 113" fill="none" xmlns="http://www.w3.org/2000/svg">
<path d="M184.805 19.0781H58.3704C54.3613 19.0781 51.1113 22.3231 51.1113 26.326C51.1113 30.329 54.3613 33.574 58.3704 33.574H184.805C188.814 33.574 192.064 30.329 192.064 26.326C192.064 22.3231 188.814 19.0781 184.805 19.0781Z" fill="#4D75FE"/>
<path d="M18.2067 43.7562C27.8478 43.7562 35.6634 35.9525 35.6634 26.3262C35.6634 16.6999 27.8478 8.89624 18.2067 8.89624C8.56564 8.89624 0.75 16.6999 0.75 26.3262C0.75 35.9525 8.56564 43.7562 18.2067 43.7562Z" fill="#FFD125"/>
<path d="M9.82324 23.4472L19.1734 32.1116L40.1214 0.489258" stroke="#022791" stroke-miterlimit="10"/>
<path d="M96.2132 76.2798H58.3704C54.3613 76.2798 51.1113 79.5248 51.1113 83.5277C51.1113 87.5306 54.3613 90.7756 58.3704 90.7756H96.2132C100.222 90.7756 103.472 87.5306 103.472 83.5277C103.472 79.5248 100.222 76.2798 96.2132 76.2798Z" fill="#4D75FE"/>
<path d="M159.564 97.95H58.3704C54.3613 97.95 51.1113 101.195 51.1113 105.198C51.1113 109.201 54.3613 112.446 58.3704 112.446H159.564C163.573 112.446 166.823 109.201 166.823 105.198C166.823 101.195 163.573 97.95 159.564 97.95Z" fill="#4D75FE"/>
<path d="M159.565 76.2798H121.722C117.713 76.2798 114.463 79.5248 114.463 83.5277C114.463 87.5306 117.713 90.7756 121.722 90.7756H159.565C163.574 90.7756 166.824 87.5306 166.824 83.5277C166.824 79.5248 163.574 76.2798 159.565 76.2798Z" fill="#4D75FE"/>
<path d="M18.2067 100.958C27.8478 100.958 35.6634 93.1539 35.6634 83.5276C35.6634 73.9013 27.8478 66.0977 18.2067 66.0977C8.56564 66.0977 0.75 73.9013 0.75 83.5276C0.75 93.1539 8.56564 100.958 18.2067 100.958Z" fill="#FFD125"/>
<path d="M9.82324 80.6579L19.1734 89.3223L40.1214 57.7" stroke="#022791" stroke-miterlimit="10"/>
</svg>
