<svg width="288" height="457" viewBox="0 0 288 457" fill="none" xmlns="http://www.w3.org/2000/svg">
<path d="M266.244 0.876953H71.2244C59.7544 0.876953 50.4561 10.208 50.4561 21.7185V436.142C50.4561 447.653 59.7544 456.984 71.2244 456.984H266.244C277.714 456.984 287.013 447.653 287.013 436.142V21.7185C287.013 10.208 277.714 0.876953 266.244 0.876953Z" fill="#1D4FC6"/>
<path d="M286.709 31.1167H51.1006V409.146H286.709V31.1167Z" fill="white"/>
<path d="M286.236 31.5923V408.671H51.5748V31.5923H286.236ZM287.184 30.6411H50.627V409.622H287.184V30.6411Z" fill="#022791"/>
<path d="M196.66 14.2607H140.8C139.879 14.2607 139.132 15.0103 139.132 15.9349C139.132 16.8595 139.879 17.6091 140.8 17.6091H196.66C197.581 17.6091 198.328 16.8595 198.328 15.9349C198.328 15.0103 197.581 14.2607 196.66 14.2607Z" fill="#022791"/>
<path d="M3.20403 205.259C1.72531 205.259 0.521484 204.051 0.521484 202.567V95.5815H190.878V202.567C190.878 204.051 189.674 205.259 188.195 205.259H3.20403Z" fill="white"/>
<path d="M190.356 96.1142V202.567C190.356 203.765 189.389 204.736 188.195 204.736H3.20388C2.00954 204.736 1.04268 203.765 1.04268 202.567V96.1142H190.356ZM191.399 95.0679H0V202.576C0 204.355 1.43132 205.791 3.20388 205.791H188.204C189.977 205.791 191.408 204.355 191.408 202.576V95.0679H191.399Z" fill="#022791"/>
<path d="M8.00023 80.6282H183.408C187.825 80.6282 191.408 84.2238 191.408 88.6566V97.817H0V88.6566C0 84.2238 3.58304 80.6282 8.00023 80.6282Z" fill="#0A2F39"/>
<path d="M76.0781 111.391H24.0292C20.5322 111.391 17.6973 114.236 17.6973 117.745V169.978C17.6973 173.487 20.5322 176.332 24.0292 176.332H76.0781C79.5751 176.332 82.41 173.487 82.41 169.978V117.745C82.41 114.236 79.5751 111.391 76.0781 111.391Z" fill="#4D75FE"/>
<path d="M156.014 146.216H113.899C108.758 146.216 104.591 150.396 104.591 155.552C104.591 160.709 108.758 164.889 113.899 164.889H156.014C161.155 164.889 165.322 160.709 165.322 155.552C165.322 150.396 161.155 146.216 156.014 146.216Z" fill="#FFD125"/>
<path d="M168.858 118.544H101.055C99.2649 118.544 97.8135 119.999 97.8135 121.793C97.8135 123.587 99.2649 125.041 101.055 125.041H168.858C170.649 125.041 172.1 123.587 172.1 121.793C172.1 119.999 170.649 118.544 168.858 118.544Z" fill="#DAF0F9"/>
<path d="M168.858 131.957H101.055C99.2649 131.957 97.8135 133.411 97.8135 135.205C97.8135 136.999 99.2649 138.454 101.055 138.454H168.858C170.649 138.454 172.1 136.999 172.1 135.205C172.1 133.411 170.649 131.957 168.858 131.957Z" fill="#DAF0F9"/>
<path d="M8.00023 80.6282H183.408C187.825 80.6282 191.408 84.2238 191.408 88.6566V97.817H0V88.6566C0 84.2238 3.58304 80.6282 8.00023 80.6282Z" fill="#022791"/>
<path d="M63.8312 132.794C63.7459 131.871 62.9876 131.11 62.0682 131.11H58.542V134.316C58.542 135.752 57.3666 136.932 55.9353 136.932C54.504 136.932 53.3286 135.752 53.3286 134.316V131.11H46.6933V134.316C46.6933 135.752 45.5179 136.932 44.0866 136.932C42.6553 136.932 41.4799 135.752 41.4799 134.316V131.11H38.1243C37.2049 131.11 36.4466 131.871 36.2759 132.794L34.0958 159.438C34.0105 160.446 34.8541 161.378 35.9442 161.378H64.2578C65.3479 161.378 66.1915 160.456 66.0209 159.438L63.8407 132.794H63.8312Z" fill="white"/>
<path d="M50.0491 155.557C46.0964 155.557 42.8262 152.351 42.8262 148.308C42.8262 144.266 46.1059 141.146 50.0491 141.146C53.9924 141.146 57.2721 144.351 57.2721 148.394C57.2721 152.437 53.9924 155.557 50.0491 155.557Z" fill="#FFD125"/>
<path d="M44.1718 135.239C44.6742 135.239 45.0913 134.82 45.0913 134.316V127.905C45.0913 125.374 46.9397 123.101 49.3758 122.758C52.3996 122.34 55.0063 124.784 55.0063 127.733V134.306C55.0063 134.81 55.4234 135.229 55.9257 135.229C56.4281 135.229 56.8452 134.81 56.8452 134.306V127.733C56.8452 123.767 53.5655 120.647 49.6222 120.903C46.0108 121.16 43.3187 124.356 43.3187 127.99V134.401C43.2334 134.82 43.6505 135.248 44.1624 135.248L44.1718 135.239Z" fill="white"/>
<path d="M12.522 91.7386C13.4748 91.7386 14.2472 90.9635 14.2472 90.0074C14.2472 89.0512 13.4748 88.2761 12.522 88.2761C11.5693 88.2761 10.7969 89.0512 10.7969 90.0074C10.7969 90.9635 11.5693 91.7386 12.522 91.7386Z" fill="#FFFEFF"/>
<path d="M19.2144 91.7386C20.1672 91.7386 20.9396 90.9635 20.9396 90.0074C20.9396 89.0512 20.1672 88.2761 19.2144 88.2761C18.2616 88.2761 17.4893 89.0512 17.4893 90.0074C17.4893 90.9635 18.2616 91.7386 19.2144 91.7386Z" fill="#FFFEFF"/>
<path d="M25.9156 91.7386C26.8684 91.7386 27.6408 90.9635 27.6408 90.0074C27.6408 89.0512 26.8684 88.2761 25.9156 88.2761C24.9628 88.2761 24.1904 89.0512 24.1904 90.0074C24.1904 90.9635 24.9628 91.7386 25.9156 91.7386Z" fill="#FFFEFF"/>
<path d="M217.175 176.513H135.821C132.21 176.513 129.283 179.45 129.283 183.074V230.438C129.283 234.062 132.21 236.999 135.821 236.999H217.175C220.786 236.999 223.713 234.062 223.713 230.438V183.074C223.713 179.45 220.786 176.513 217.175 176.513Z" fill="#022791"/>
<path d="M152.505 189.724H137.073C136.668 189.724 136.34 190.054 136.34 190.46V198.48C136.34 198.886 136.668 199.215 137.073 199.215H152.505C152.909 199.215 153.237 198.886 153.237 198.48V190.46C153.237 190.054 152.909 189.724 152.505 189.724Z" fill="#FFD125"/>
<path d="M153 206.399H136.576C136.277 206.399 136.035 206.642 136.035 206.942V210.946C136.035 211.246 136.277 211.489 136.576 211.489H153C153.299 211.489 153.541 211.246 153.541 210.946V206.942C153.541 206.642 153.299 206.399 153 206.399Z" fill="#4D75FE"/>
<path d="M165.592 220.823H136.757C136.358 220.823 136.035 221.147 136.035 221.547V225.189C136.035 225.589 136.358 225.913 136.757 225.913H165.592C165.99 225.913 166.313 225.589 166.313 225.189V221.547C166.313 221.147 165.99 220.823 165.592 220.823Z" fill="#4D75FE"/>
<path d="M174.52 206.399H158.096C157.797 206.399 157.555 206.642 157.555 206.942V210.946C157.555 211.246 157.797 211.489 158.096 211.489H174.52C174.819 211.489 175.061 211.246 175.061 210.946V206.942C175.061 206.642 174.819 206.399 174.52 206.399Z" fill="#4D75FE"/>
<path d="M196.028 206.399H179.604C179.305 206.399 179.062 206.642 179.062 206.942V210.946C179.062 211.246 179.305 211.489 179.604 211.489H196.028C196.326 211.489 196.569 211.246 196.569 210.946V206.942C196.569 206.642 196.326 206.399 196.028 206.399Z" fill="#4D75FE"/>
<path d="M217.547 206.399H201.123C200.824 206.399 200.582 206.642 200.582 206.942V210.946C200.582 211.246 200.824 211.489 201.123 211.489H217.547C217.846 211.489 218.088 211.246 218.088 210.946V206.942C218.088 206.642 217.846 206.399 217.547 206.399Z" fill="#4D75FE"/>
<path d="M128.695 353.404C153.206 353.404 173.075 333.464 173.075 308.867C173.075 284.27 153.206 264.33 128.695 264.33C104.184 264.33 84.3145 284.27 84.3145 308.867C84.3145 333.464 104.184 353.404 128.695 353.404Z" fill="#4D75FE"/>
<g clip-path="url(#clip0_410_1180)">
<path d="M100.621 306.875C100.621 305.771 99.7307 304.872 98.6347 304.872C97.5388 304.872 96.6416 305.771 96.6416 306.875C96.6416 307.979 97.5362 308.87 98.6347 308.87C99.7332 308.87 100.621 307.975 100.621 306.875Z" fill="white"/>
<path d="M133.474 329.216C131.578 329.216 130.036 330.763 130.036 332.665C130.036 334.566 131.578 336.113 133.474 336.113C135.371 336.113 136.906 334.566 136.906 332.665C136.906 330.763 135.368 329.216 133.474 329.216ZM133.474 334.555C132.434 334.555 131.588 333.707 131.588 332.665C131.588 331.622 132.434 330.775 133.474 330.775C134.514 330.775 135.355 331.622 135.355 332.665C135.355 333.707 134.512 334.555 133.474 334.555Z" fill="white"/>
<path d="M129.765 280.561H137.177C137.605 280.561 137.953 280.211 137.953 279.781C137.953 279.35 137.605 279.001 137.177 279.001H129.765C129.337 279.001 128.989 279.35 128.989 279.781C128.989 280.211 129.337 280.561 129.765 280.561Z" fill="white"/>
<path d="M104.263 306.874C104.263 303.751 101.739 301.21 98.6343 301.21C95.5299 301.21 92.999 303.751 92.999 306.874C92.999 309.728 95.117 312.088 97.8556 312.471V324.66C97.8556 326.6 99.4282 328.18 101.36 328.18H113.719V336.191C113.719 338.842 115.865 340.998 118.502 340.998H148.44C151.078 340.998 153.223 338.841 153.223 336.19V293.556C153.651 293.556 153.999 293.206 153.999 292.776V291.576C153.999 291.146 153.651 290.796 153.223 290.796V288.66C153.651 288.66 153.999 288.311 153.999 287.88V286.682C153.999 286.251 153.651 285.902 153.223 285.902V279.805C153.223 277.155 151.077 274.999 148.44 274.999H118.502C115.864 274.999 113.718 277.155 113.718 279.805V283.834C113.289 283.834 112.943 284.183 112.943 284.614V287.088C112.943 287.518 113.289 287.866 113.718 287.868V326.619H101.359C100.282 326.619 99.4065 325.739 99.4065 324.658V312.469C102.145 312.089 104.262 309.728 104.262 306.873L104.263 306.874ZM115.27 279.807C115.27 278.017 116.72 276.56 118.502 276.56H148.44C150.222 276.56 151.672 278.017 151.672 279.807V336.191C151.672 337.982 150.222 339.439 148.44 339.439H118.502C116.72 339.439 115.27 337.982 115.27 336.191V328.179H116.529C118.461 328.179 120.033 326.6 120.033 324.658V317.354C120.033 316.272 120.909 315.392 121.986 315.392C123.063 315.392 123.937 316.272 123.937 317.354V324.658C123.937 326.598 125.508 328.179 127.441 328.179H128.477C130.409 328.179 131.982 326.6 131.982 324.658V314.389C132.363 314.266 132.717 314.064 133.003 313.776C133.474 313.301 133.744 312.644 133.744 311.971V310.377C137.058 309.556 141.611 306.275 139.303 303.574C139.805 302.433 140.083 301.19 140.083 299.934V291.702C140.083 290.48 139.095 289.488 137.88 289.488H136.779C136.454 288.509 135.544 287.797 134.463 287.797C133.108 287.797 132.007 288.905 132.007 290.267C132.007 291.63 133.11 292.735 134.463 292.735C135.542 292.735 136.451 292.024 136.777 291.047H137.88C138.239 291.047 138.531 291.342 138.531 291.703V299.935C138.531 300.903 138.333 301.862 137.971 302.753C136.943 302.5 136.002 302.867 135.388 303.59C135.295 303.699 135.202 303.807 135.105 303.905C133.966 305.048 132.385 305.628 130.758 305.531C129.316 305.431 127.98 304.738 127.002 303.577C126.4 302.865 125.444 302.497 124.418 302.755C124.007 301.78 123.781 300.734 123.781 299.684V291.702C123.781 291.347 124.085 291.046 124.443 291.046H125.512C125.841 292.04 126.763 292.763 127.861 292.763C129.228 292.763 130.34 291.643 130.34 290.266C130.34 288.89 129.228 287.768 127.861 287.768C126.762 287.768 125.838 288.493 125.511 289.488H124.443C123.223 289.488 122.229 290.481 122.229 291.702V299.684C122.229 301.022 122.536 302.354 123.092 303.581C122.293 304.526 122.261 305.94 123.084 306.917C124.573 308.68 126.514 309.874 128.662 310.396V311.971C128.662 313.105 129.406 314.056 130.426 314.389V324.657C130.426 325.738 129.55 326.618 128.474 326.618H127.437C126.361 326.618 125.485 325.738 125.485 324.657V317.352C125.485 315.411 123.914 313.831 121.982 313.831C120.05 313.831 118.477 315.41 118.477 317.352V324.657C118.477 325.738 117.602 326.618 116.525 326.618H115.266V279.807H115.27ZM124.389 304.471C124.825 304.102 125.465 304.163 125.822 304.589C128.632 307.918 133.401 307.827 136.206 305.007C136.369 304.843 137.146 303.728 138.017 304.472C140.227 306.378 130.305 313.057 124.272 305.911C123.909 305.482 123.961 304.836 124.389 304.471ZM130.217 310.659C130.282 310.664 130.344 310.677 130.411 310.682C130.658 310.698 130.905 310.707 131.151 310.707C131.501 310.707 131.849 310.689 132.193 310.656V311.975C132.193 312.236 132.088 312.492 131.904 312.677C131.721 312.861 131.466 312.968 131.206 312.968C130.662 312.968 130.218 312.522 130.218 311.975V310.659H130.217ZM135.364 290.27C135.364 290.771 134.96 291.179 134.463 291.179C133.966 291.179 133.558 290.771 133.558 290.27C133.558 289.769 133.965 289.36 134.463 289.36C134.961 289.36 135.364 289.767 135.364 290.27ZM126.928 290.27C126.928 289.751 127.347 289.33 127.862 289.33C128.377 289.33 128.791 289.751 128.791 290.27C128.791 290.789 128.374 291.209 127.862 291.209C127.347 291.209 126.928 290.787 126.928 290.27ZM94.5499 306.873C94.5499 304.609 96.3825 302.769 98.633 302.769C100.884 302.769 102.711 304.61 102.711 306.873C102.711 309.136 100.882 310.971 98.633 310.971C96.3837 310.971 94.5499 309.132 94.5499 306.873Z" fill="white"/>
</g>
<path d="M50.6266 283.498C63.5259 283.498 73.9827 273.004 73.9827 260.059C73.9827 247.115 63.5259 236.621 50.6266 236.621C37.7274 236.621 27.2705 247.115 27.2705 260.059C27.2705 273.004 37.7274 283.498 50.6266 283.498Z" fill="#4D75FE"/>
<path d="M63.7743 260.877C63.7743 260.83 63.7553 260.782 63.7363 260.735C63.7079 260.658 63.67 260.601 63.6036 260.554C63.6036 260.554 63.6036 260.544 63.5847 260.535C63.5657 260.525 63.5562 260.497 63.5373 260.487L57.1864 256.806V249.453C57.1864 249.453 57.1864 249.443 57.1864 249.434C57.1864 249.386 57.1674 249.339 57.1485 249.291C57.12 249.215 57.0821 249.158 57.0158 249.111C57.0158 249.111 57.0063 249.101 56.9968 249.091C56.9779 249.082 56.9684 249.053 56.9494 249.044L50.3616 245.229C50.2194 245.144 50.0393 245.144 49.8971 245.229L43.3092 249.044C43.3092 249.044 43.2808 249.072 43.2618 249.091C43.2618 249.091 43.2523 249.101 43.2429 249.111C43.186 249.158 43.1386 249.225 43.1102 249.291C43.0912 249.339 43.0722 249.386 43.0722 249.434C43.0722 249.434 43.0722 249.443 43.0722 249.453V256.806L36.7213 260.487C36.7213 260.487 36.6929 260.516 36.674 260.535C36.674 260.535 36.6645 260.544 36.655 260.554C36.5981 260.601 36.5507 260.668 36.5223 260.735C36.5033 260.782 36.4844 260.83 36.4844 260.877C36.4844 260.877 36.4844 260.887 36.4844 260.896V268.525C36.4844 268.687 36.5697 268.849 36.7119 268.925L43.2997 272.739C43.3756 272.777 43.4514 272.806 43.5272 272.806C43.6031 272.806 43.6884 272.787 43.7547 272.739L50.1056 269.058L56.4565 272.739C56.5323 272.777 56.6082 272.806 56.684 272.806C56.7598 272.806 56.8451 272.787 56.9115 272.739L63.4994 268.925C63.6415 268.839 63.7269 268.687 63.7269 268.525V260.896C63.7269 260.896 63.7269 260.887 63.7269 260.877H63.7743ZM56.7314 264.188L51.0725 260.906L56.7504 257.615L62.4093 260.896L56.7314 264.188ZM43.5557 264.188L37.8778 260.896L43.5367 257.615L49.2146 260.906L43.5557 264.188ZM49.6791 253.553V256.53C49.6791 256.787 49.8876 256.996 50.1435 256.996C50.3995 256.996 50.608 256.787 50.608 256.53V253.553L56.2669 250.271V256.806L50.1435 260.354L44.0201 256.806V250.271L49.6791 253.553ZM50.1435 246.171L55.8214 249.462L50.1435 252.754L44.4656 249.462L50.1435 246.171ZM43.5557 271.797L37.4323 268.249V261.705L43.0912 264.987V267.964C43.0912 268.221 43.2997 268.43 43.5557 268.43C43.8116 268.43 44.0201 268.221 44.0201 267.964V264.987L49.6791 261.705V268.249L43.5557 271.797ZM56.7314 271.797L50.608 268.249V261.705L56.2669 264.987V267.964C56.2669 268.221 56.4755 268.43 56.7314 268.43C56.9873 268.43 57.1959 268.221 57.1959 267.964V264.987L62.8548 261.705V268.249L56.7314 271.797Z" fill="white"/>
<defs>
<clipPath id="clip0_410_1180">
<rect width="61" height="66" fill="white" transform="translate(92.999 275)"/>
</clipPath>
</defs>
</svg>
