<svg width="222" height="59" viewBox="0 0 222 59" fill="none" xmlns="http://www.w3.org/2000/svg">
<g clip-path="url(#clip0_405_167)">
<path d="M47.1181 5.79739C52.3903 9.74229 56.31 15.4479 57.9892 21.8271C59.4386 27.2264 59.3213 33.0136 57.6421 38.3466C55.3964 45.5067 50.3539 51.6971 43.7751 55.3C39.4317 57.7547 34.4913 58.9693 29.5151 58.9949C29.4691 39.3316 29.4997 19.6632 29.4997 -0.00513975C35.7723 -0.102104 42.0959 2.03621 47.1181 5.78718V5.79739Z" fill="#022791"/>
<path d="M25.0443 10.0079C25.9323 13.9426 24.7432 18.2039 22.0381 21.1792C18.246 25.4149 11.6978 26.5836 6.70633 23.8023C2.17926 21.4803 -0.556377 16.2544 0.0969091 11.2123C0.510317 7.20104 2.93973 3.52662 6.47666 1.59755C8.90607 0.132881 11.6417 -0.163115 14.4182 0.0971568C19.6087 0.740181 24.0286 4.87901 25.0443 10.0079Z" fill="#FFD125"/>
<path d="M15.5562 38.954C21.6501 43.6848 25.4575 51.2123 25.2636 58.9643C16.8423 58.9541 8.42615 58.9745 0.00488281 58.9541C0.0201942 50.5336 0.0304018 42.1181 0.00488281 33.6976C5.55782 33.5598 11.1771 35.5756 15.5613 38.954H15.5562Z" fill="#022791"/>
<path d="M86.5756 25.2413C82.9723 25.2413 80.053 28.1604 80.053 31.7634C80.053 35.3663 82.9723 38.2855 86.5756 38.2855C90.1789 38.2855 93.0983 35.3663 93.0983 31.7634V23.251V18.1119V15.5092H97.2987V31.7634C97.2987 37.6833 92.496 42.4855 86.5756 42.4855C80.6552 42.4855 75.8525 37.6833 75.8525 31.7634C75.8525 25.8435 80.6552 21.0412 86.5756 21.0412V25.2413Z" fill="#022791"/>
<path d="M141.814 21.3832H137.695V42.0722H141.814V21.3832Z" fill="#022791"/>
<path d="M173.049 21.3832H168.931V42.0722H173.049V21.3832Z" fill="#022791"/>
<path d="M193.24 21.3832H189.121V42.0722H193.24V21.3832Z" fill="#022791"/>
<path d="M124.471 42.0722V24.6544C124.471 19.9848 128.253 16.2032 132.923 16.2032H134.898V20.3217H132.923C130.529 20.3217 128.59 22.2609 128.59 24.6544V29.7119H134.898V33.8303H128.59V42.0722H124.471Z" fill="#022791"/>
<path d="M161.612 42.0722V31.5439C161.612 28.0124 158.748 25.1494 155.216 25.1494C151.685 25.1494 148.821 28.0124 148.821 31.5439V42.0722H144.703V31.5439C144.703 25.7363 149.408 21.031 155.216 21.031C161.025 21.031 165.73 25.7363 165.73 31.5439V42.0722H161.612Z" fill="#022791"/>
<path d="M104.219 29.3393H117.392C116.596 26.4508 113.947 24.3278 110.803 24.3278C107.659 24.3278 105.011 26.4508 104.214 29.3393H104.219ZM117.244 33.4577H104.373C105.317 36.1012 107.843 37.9946 110.808 37.9946C113.069 37.9946 115.075 36.8974 116.321 35.203H120.996C119.388 39.25 115.433 42.113 110.814 42.113C104.766 42.113 99.8608 37.2087 99.8608 31.1612C99.8608 25.1137 104.766 20.2094 110.814 20.2094C116.862 20.2094 121.766 25.1137 121.766 31.1612C121.766 31.9522 121.685 32.7177 121.526 33.4577H117.255H117.244Z" fill="#022791"/>
<path d="M213.068 31.9879C213.068 28.4564 210.205 25.5934 206.673 25.5934C203.141 25.5934 200.278 28.4564 200.278 31.9879C200.278 35.5194 203.141 38.3824 206.673 38.3824C210.205 38.3824 213.068 35.5194 213.068 31.9879ZM217.187 31.9879C217.187 37.7955 212.481 42.5008 206.673 42.5008C200.865 42.5008 196.159 37.7955 196.159 31.9879C196.159 26.1803 200.865 21.4698 206.673 21.4698C212.481 21.4698 217.187 26.1751 217.187 31.9828V31.9879Z" fill="#022791"/>
<path d="M186.09 25.2158H179.781V33.6772C179.781 36.0706 181.721 38.0099 184.114 38.0099H186.09V42.1283H184.114C179.445 42.1283 175.663 38.3467 175.663 33.6772V15.6725H179.781V21.0974H186.09V25.2158Z" fill="#022791"/>
<path d="M219.53 25.3229C219.326 25.3229 219.121 25.2821 218.933 25.2004C218.749 25.1239 218.585 25.0116 218.448 24.8738C218.31 24.736 218.198 24.5676 218.121 24.389C218.039 24.2001 217.999 24.0011 217.999 23.7919C217.999 23.5826 218.039 23.3836 218.121 23.1948C218.198 23.0111 218.31 22.8478 218.448 22.71C218.585 22.5722 218.754 22.4599 218.933 22.3833C219.121 22.3017 219.32 22.2609 219.53 22.2609C220.091 22.2609 220.607 22.5671 220.872 23.0621L220.494 23.2662C220.3 22.909 219.933 22.6895 219.525 22.6895C219.229 22.6895 218.953 22.8018 218.749 23.0111C218.545 23.2203 218.427 23.4959 218.427 23.7868C218.427 24.0777 218.54 24.3583 218.749 24.5625C218.958 24.7717 219.234 24.884 219.525 24.884C219.928 24.884 220.3 24.6646 220.494 24.3073L220.872 24.5114C220.601 25.0065 220.091 25.3127 219.53 25.3127V25.3229Z" fill="#022791"/>
<path d="M219.525 26.2722C219.193 26.2722 218.866 26.2058 218.56 26.0782C218.264 25.9558 217.999 25.7771 217.774 25.5475C217.544 25.3178 217.366 25.0576 217.243 24.7616C217.116 24.4554 217.049 24.1339 217.049 23.797C217.049 23.4602 217.116 23.1387 217.243 22.8325C217.366 22.5365 217.544 22.2711 217.774 22.0466C218.004 21.822 218.264 21.6383 218.56 21.5158C218.866 21.3882 219.188 21.3219 219.525 21.3219C219.862 21.3219 220.183 21.3882 220.489 21.5158C220.785 21.6383 221.051 21.8169 221.275 22.0466C221.505 22.2762 221.684 22.5365 221.806 22.8325C221.934 23.1387 222 23.4602 222 23.797C222 24.1339 221.934 24.4554 221.806 24.7616C221.684 25.0576 221.505 25.3229 221.275 25.5475C221.046 25.7771 220.785 25.9558 220.489 26.0782C220.183 26.2058 219.862 26.2722 219.525 26.2722ZM219.525 21.7506C219.249 21.7506 218.979 21.8067 218.728 21.9139C218.483 22.016 218.264 22.164 218.075 22.3528C217.886 22.5416 217.738 22.761 217.636 23.006C217.529 23.2561 217.473 23.5266 217.473 23.8021C217.473 24.0777 217.529 24.3482 217.636 24.5983C217.738 24.8432 217.886 25.0627 218.075 25.2515C218.264 25.4403 218.483 25.5883 218.728 25.6904C218.979 25.7976 219.249 25.8537 219.525 25.8537C219.8 25.8537 220.071 25.7976 220.321 25.6904C220.566 25.5883 220.785 25.4403 220.974 25.2515C221.163 25.0627 221.311 24.8432 221.413 24.5983C221.52 24.3482 221.576 24.0777 221.576 23.8021C221.576 23.5266 221.52 23.2561 221.413 23.006C221.311 22.761 221.163 22.5416 220.974 22.3528C220.785 22.164 220.566 22.016 220.321 21.9139C220.071 21.8067 219.8 21.7506 219.525 21.7506Z" fill="#022791"/>
</g>
<defs>
<clipPath id="clip0_405_167">
<rect width="222" height="59" fill="white"/>
</clipPath>
</defs>
</svg>
