<svg width="641" height="717" viewBox="0 0 641 717" fill="none" xmlns="http://www.w3.org/2000/svg">
<g clip-path="url(#clip0_378_2709)">
<path d="M334.301 462.267H219.596C219.076 462.267 218.562 462.165 218.082 461.966C217.602 461.768 217.166 461.476 216.799 461.109C216.432 460.742 216.14 460.306 215.942 459.826C215.743 459.346 215.64 458.831 215.64 458.312V397.418C215.64 394.71 214.566 392.112 212.653 390.196C210.739 388.279 208.144 387.2 205.436 387.195H134.959C133.891 387.195 132.866 386.771 132.111 386.016C131.356 385.26 130.932 384.236 130.932 383.168V338.429H78.6924V429.197C78.6919 430.541 78.9566 431.873 79.4712 433.115C79.9859 434.356 80.7404 435.485 81.6916 436.434C82.6429 437.384 83.7721 438.137 85.0147 438.65C86.2573 439.163 87.5888 439.426 88.9331 439.424H159.241C159.792 439.423 160.338 439.531 160.847 439.742C161.357 439.953 161.819 440.262 162.209 440.652C162.599 441.041 162.908 441.504 163.119 442.013C163.33 442.523 163.438 443.069 163.437 443.62V504.269C163.437 505.612 163.701 506.942 164.214 508.183C164.728 509.423 165.481 510.551 166.43 511.5C167.379 512.45 168.507 513.203 169.747 513.717C170.988 514.231 172.317 514.496 173.66 514.496H194.131V556.983H243.475V514.496H334.301V462.267Z" fill="url(#paint0_linear_378_2709)" stroke="#022791" stroke-width="1.07873" stroke-miterlimit="10"/>
<path d="M202.405 224.02H24.3C21.1623 224.02 18.6187 226.563 18.6187 229.701V332.748C18.6187 335.886 21.1623 338.429 24.3 338.429H202.405C205.543 338.429 208.086 335.886 208.086 332.748V229.701C208.086 226.563 205.543 224.02 202.405 224.02Z" fill="url(#paint1_linear_378_2709)" stroke="#022791" stroke-width="1.07873" stroke-miterlimit="10"/>
<path d="M179.032 268.851H46.6036C44.574 268.851 42.9287 270.497 42.9287 272.526V312.939C42.9287 314.968 44.574 316.614 46.6036 316.614H179.032C181.061 316.614 182.707 314.968 182.707 312.939V272.526C182.707 270.497 181.061 268.851 179.032 268.851Z" fill="#25377E"/>
<path d="M171.449 279.484H55.9748C55.2857 279.484 54.7271 280.043 54.7271 280.732C54.7271 281.421 55.2857 281.98 55.9748 281.98H171.449C172.138 281.98 172.697 281.421 172.697 280.732C172.697 280.043 172.138 279.484 171.449 279.484Z" fill="white"/>
<path d="M73.2233 286.215C76.2518 286.215 78.7068 283.76 78.7068 280.732C78.7068 277.703 76.2518 275.248 73.2233 275.248C70.1948 275.248 67.7397 277.703 67.7397 280.732C67.7397 283.76 70.1948 286.215 73.2233 286.215Z" fill="#FFD126"/>
<path d="M171.449 291.487H55.9748C55.2857 291.487 54.7271 292.045 54.7271 292.734C54.7271 293.424 55.2857 293.982 55.9748 293.982H171.449C172.138 293.982 172.697 293.424 172.697 292.734C172.697 292.045 172.138 291.487 171.449 291.487Z" fill="white"/>
<path d="M156.339 298.218C159.368 298.218 161.823 295.763 161.823 292.734C161.823 289.706 159.368 287.251 156.339 287.251C153.311 287.251 150.856 289.706 150.856 292.734C150.856 295.763 153.311 298.218 156.339 298.218Z" fill="#FFD126"/>
<path d="M171.449 303.486H55.9748C55.2857 303.486 54.7271 304.044 54.7271 304.733C54.7271 305.423 55.2857 305.981 55.9748 305.981H171.449C172.138 305.981 172.697 305.423 172.697 304.733C172.697 304.044 172.138 303.486 171.449 303.486Z" fill="white"/>
<path d="M99.3214 310.217C102.35 310.217 104.805 307.762 104.805 304.733C104.805 301.705 102.35 299.25 99.3214 299.25C96.293 299.25 93.8379 301.705 93.8379 304.733C93.8379 307.762 96.293 310.217 99.3214 310.217Z" fill="#FFD126"/>
<path d="M93.8522 167.178H41.6274V224.019H93.8522V167.178Z" fill="url(#paint2_linear_378_2709)" stroke="#022791" stroke-width="1.07873" stroke-miterlimit="10"/>
<path d="M104.485 179.687H30.9987C26.2829 179.689 21.7011 178.119 17.977 175.226C14.253 172.333 11.5991 168.281 10.4345 163.711L1.49905 128.728C1.35262 128.157 1.33876 127.56 1.45856 126.983C1.57836 126.405 1.82863 125.863 2.19022 125.398C2.55181 124.932 3.01514 124.555 3.54476 124.296C4.07437 124.037 4.65624 123.902 5.24584 123.903H130.238C130.827 123.903 131.409 124.038 131.938 124.297C132.467 124.557 132.93 124.933 133.292 125.399C133.653 125.864 133.904 126.406 134.024 126.983C134.144 127.56 134.131 128.157 133.985 128.728L125.049 163.726C123.882 168.293 121.227 172.341 117.503 175.231C113.779 178.122 109.199 179.69 104.485 179.687Z" fill="url(#paint3_linear_378_2709)" stroke="#022791" stroke-width="1.07873" stroke-miterlimit="10"/>
<path d="M3.64502 137.117H51.1055" stroke="#022791" stroke-width="1.07873" stroke-miterlimit="10" stroke-linecap="round"/>
<path d="M37.0928 148.002H84.5532" stroke="#022791" stroke-width="1.07873" stroke-miterlimit="10" stroke-linecap="round"/>
<path d="M65.356 137.117H131.309" stroke="#022791" stroke-width="1.07873" stroke-miterlimit="10" stroke-linecap="round"/>
<path d="M192.056 556.879H245.554C246.568 556.879 247.553 557.217 248.354 557.84C249.155 558.462 249.726 559.334 249.976 560.316L256.496 585.893C256.578 586.218 256.586 586.557 256.517 586.885C256.449 587.214 256.306 587.522 256.101 587.786C255.895 588.051 255.631 588.265 255.33 588.413C255.029 588.56 254.698 588.637 254.363 588.637H183.236C182.9 588.637 182.569 588.561 182.268 588.414C181.966 588.267 181.702 588.053 181.496 587.788C181.291 587.523 181.148 587.215 181.08 586.886C181.012 586.558 181.02 586.218 181.103 585.893L187.63 560.316C187.882 559.334 188.453 558.463 189.255 557.84C190.056 557.218 191.041 556.88 192.056 556.879Z" fill="url(#paint4_linear_378_2709)" stroke="#022791" stroke-width="1.07873" stroke-miterlimit="10"/>
<path d="M255.284 581.204H228.272" stroke="#022791" stroke-width="1.07873" stroke-miterlimit="10" stroke-linecap="round"/>
<path d="M236.248 575.009H209.236" stroke="#022791" stroke-width="1.07873" stroke-miterlimit="10" stroke-linecap="round"/>
<path d="M220.16 581.204H182.624" stroke="#022791" stroke-width="1.07873" stroke-miterlimit="10" stroke-linecap="round"/>
<path d="M244.342 205.764H262.576V251.225H244.342" stroke="#022791" stroke-width="1.07873" stroke-miterlimit="10"/>
<path d="M240.193 195.599H153.19C150.898 195.599 149.04 197.456 149.04 199.748V253.81C149.04 256.102 150.898 257.96 153.19 257.96H240.193C242.484 257.96 244.342 256.102 244.342 253.81V199.748C244.342 197.456 242.484 195.599 240.193 195.599Z" fill="#E3E7F5"/>
<path d="M213.232 237.353H162.363C159.036 237.353 156.34 240.049 156.34 243.375C156.34 246.702 159.036 249.398 162.363 249.398H213.232C216.558 249.398 219.255 246.702 219.255 243.375C219.255 240.049 216.558 237.353 213.232 237.353Z" fill="url(#paint5_linear_378_2709)"/>
<path d="M213.232 221.488H162.363C159.036 221.488 156.34 224.185 156.34 227.511C156.34 230.837 159.036 233.534 162.363 233.534H213.232C216.558 233.534 219.255 230.837 219.255 227.511C219.255 224.185 216.558 221.488 213.232 221.488Z" fill="url(#paint6_linear_378_2709)"/>
<path d="M213.232 205.624H162.363C159.036 205.624 156.34 208.32 156.34 211.646C156.34 214.973 159.036 217.669 162.363 217.669H213.232C216.558 217.669 219.255 214.973 219.255 211.646C219.255 208.32 216.558 205.624 213.232 205.624Z" fill="url(#paint7_linear_378_2709)"/>
<path d="M233.364 208.648H226.234C225.241 208.648 224.436 209.453 224.436 210.445V210.449C224.436 211.442 225.241 212.247 226.234 212.247H233.364C234.357 212.247 235.162 211.442 235.162 210.449V210.445C235.162 209.453 234.357 208.648 233.364 208.648Z" fill="#FFD126"/>
<path d="M233.364 216.771H226.234C225.241 216.771 224.436 217.575 224.436 218.568V218.572C224.436 219.565 225.241 220.37 226.234 220.37H233.364C234.357 220.37 235.162 219.565 235.162 218.572V218.568C235.162 217.575 234.357 216.771 233.364 216.771Z" fill="#FFD126"/>
<path d="M233.364 224.893H226.234C225.241 224.893 224.436 225.698 224.436 226.691V226.695C224.436 227.688 225.241 228.493 226.234 228.493H233.364C234.357 228.493 235.162 227.688 235.162 226.695V226.691C235.162 225.698 234.357 224.893 233.364 224.893Z" fill="#FFD126"/>
<path d="M233.364 233.02H226.234C225.241 233.02 224.436 233.825 224.436 234.818V234.821C224.436 235.814 225.241 236.619 226.234 236.619H233.364C234.357 236.619 235.162 235.814 235.162 234.821V234.818C235.162 233.825 234.357 233.02 233.364 233.02Z" fill="#FFD126"/>
<path d="M233.364 241.142H226.234C225.241 241.142 224.436 241.947 224.436 242.94V242.944C224.436 243.937 225.241 244.742 226.234 244.742H233.364C234.357 244.742 235.162 243.937 235.162 242.944V242.94C235.162 241.947 234.357 241.142 233.364 241.142Z" fill="#FFD126"/>
<path d="M502.446 549.331H341.514C339.607 549.331 337.778 548.574 336.429 547.225C335.08 545.876 334.323 544.047 334.323 542.14V375.581C334.323 373.673 335.08 371.844 336.429 370.496C337.778 369.147 339.607 368.389 341.514 368.389H504.244C509.131 368.389 511.292 372.344 511.292 377.235V540.482C511.292 541.644 511.064 542.795 510.619 543.868C510.175 544.942 509.524 545.918 508.702 546.739C507.881 547.561 506.905 548.213 505.832 548.658C504.759 549.102 503.608 549.331 502.446 549.331Z" fill="url(#paint8_linear_378_2709)" stroke="#022791" stroke-width="1.07873" stroke-miterlimit="10"/>
<path d="M410.441 549.331H341.514C339.607 549.331 337.778 548.574 336.429 547.225C335.08 545.876 334.323 544.047 334.323 542.14V375.581C334.323 373.673 335.08 371.844 336.429 370.496C337.778 369.147 339.607 368.389 341.514 368.389H412.239C416.195 368.389 417.633 371.604 417.633 375.581V542.154C417.629 544.059 416.87 545.885 415.521 547.23C414.173 548.576 412.346 549.331 410.441 549.331Z" fill="url(#paint9_linear_378_2709)" stroke="#022791" stroke-width="1.07873" stroke-miterlimit="10"/>
<path d="M495.559 396.393H427.261C425.686 396.393 424.41 397.67 424.41 399.244V509.659C424.41 511.234 425.686 512.511 427.261 512.511H495.559C497.134 512.511 498.41 511.234 498.41 509.659V399.244C498.41 397.67 497.134 396.393 495.559 396.393Z" fill="#022791"/>
<path d="M575.306 496.068H628.372C630.816 496.068 633.159 497.038 634.886 498.766C636.614 500.493 637.585 502.837 637.585 505.28C637.585 507.723 636.614 510.066 634.886 511.794C633.159 513.522 630.816 514.492 628.372 514.492H575.306V496.064V496.068Z" fill="url(#paint10_linear_378_2709)" stroke="#022791" stroke-width="1.07873" stroke-miterlimit="10"/>
<path d="M424.418 496.068H578.921C581.364 496.068 583.707 497.038 585.435 498.766C587.162 500.493 588.133 502.837 588.133 505.28C588.133 507.723 587.162 510.066 585.435 511.794C583.707 513.522 581.364 514.492 578.921 514.492H424.418V496.064V496.068Z" fill="url(#paint11_linear_378_2709)" stroke="#022791" stroke-width="1.07873" stroke-miterlimit="10"/>
<path d="M438.042 509.228C440.222 509.228 441.99 507.46 441.99 505.28C441.99 503.099 440.222 501.332 438.042 501.332C435.861 501.332 434.094 503.099 434.094 505.28C434.094 507.46 435.861 509.228 438.042 509.228Z" fill="url(#paint12_linear_378_2709)"/>
<path d="M465.359 509.228C467.54 509.228 469.307 507.46 469.307 505.28C469.307 503.099 467.54 501.332 465.359 501.332C463.179 501.332 461.411 503.099 461.411 505.28C461.411 507.46 463.179 509.228 465.359 509.228Z" fill="url(#paint13_linear_378_2709)"/>
<path d="M492.676 509.228C494.856 509.228 496.624 507.46 496.624 505.28C496.624 503.099 494.856 501.332 492.676 501.332C490.495 501.332 488.728 503.099 488.728 505.28C488.728 507.46 490.495 509.228 492.676 509.228Z" fill="url(#paint14_linear_378_2709)"/>
<path d="M519.993 509.228C522.174 509.228 523.941 507.46 523.941 505.28C523.941 503.099 522.174 501.332 519.993 501.332C517.813 501.332 516.045 503.099 516.045 505.28C516.045 507.46 517.813 509.228 519.993 509.228Z" fill="url(#paint15_linear_378_2709)"/>
<path d="M547.309 509.228C549.49 509.228 551.258 507.46 551.258 505.28C551.258 503.099 549.49 501.332 547.309 501.332C545.129 501.332 543.361 503.099 543.361 505.28C543.361 507.46 545.129 509.228 547.309 509.228Z" fill="url(#paint16_linear_378_2709)"/>
<path d="M393.131 386.731H350.945C349.051 386.731 347.515 388.267 347.515 390.162V411.297C347.515 413.192 349.051 414.728 350.945 414.728H393.131C395.025 414.728 396.561 413.192 396.561 411.297V390.162C396.561 388.267 395.025 386.731 393.131 386.731Z" fill="white" stroke="#022791" stroke-width="1.07873" stroke-miterlimit="10"/>
<path d="M351.373 403.57L360.618 397.26C361.717 396.633 362.997 396.403 364.246 396.608C365.494 396.813 366.634 397.44 367.475 398.385L372.074 403.567C372.921 404.519 374.073 405.149 375.332 405.349C376.591 405.549 377.88 405.306 378.981 404.663L393.113 396.393" stroke="#FFD126" stroke-width="2.53141" stroke-miterlimit="10" stroke-linecap="round"/>
<path d="M381.247 484.762C381.247 488.958 379.58 492.983 376.613 495.95C373.646 498.917 369.622 500.584 365.426 500.584C356.681 500.584 351.402 493.493 351.402 484.762C351.402 476.032 356.695 468.941 365.426 468.941C369.622 468.941 373.646 470.608 376.613 473.575C379.58 476.542 381.247 480.566 381.247 484.762Z" stroke="#FFD126" stroke-width="1.74754" stroke-miterlimit="10" stroke-linecap="round"/>
<path d="M377.223 484.762C377.223 487.895 375.979 490.9 373.764 493.115C371.548 495.33 368.544 496.574 365.411 496.574C358.888 496.574 355.397 491.285 355.397 484.762C355.397 478.24 358.888 472.95 365.411 472.95C368.544 472.95 371.548 474.195 373.764 476.41C375.979 478.625 377.223 481.63 377.223 484.762Z" fill="#FFD125"/>
<path d="M393.113 479.128C395.017 479.128 396.561 477.584 396.561 475.68C396.561 473.775 395.017 472.231 393.113 472.231C391.208 472.231 389.665 473.775 389.665 475.68C389.665 477.584 391.208 479.128 393.113 479.128Z" fill="#FFD125"/>
<path d="M393.113 489.232C395.017 489.232 396.561 487.688 396.561 485.784C396.561 483.879 395.017 482.335 393.113 482.335C391.208 482.335 389.665 483.879 389.665 485.784C389.665 487.688 391.208 489.232 393.113 489.232Z" fill="#FFD125"/>
<path d="M393.113 499.332C395.017 499.332 396.561 497.788 396.561 495.884C396.561 493.98 395.017 492.436 393.113 492.436C391.208 492.436 389.665 493.98 389.665 495.884C389.665 497.788 391.208 499.332 393.113 499.332Z" fill="#FFD125"/>
<path d="M343.722 533.302H346.39C346.916 533.302 347.421 533.511 347.793 533.883C348.165 534.255 348.375 534.76 348.375 535.286V549.331H341.737V535.286C341.737 534.76 341.946 534.255 342.318 533.883C342.69 533.511 343.195 533.302 343.722 533.302Z" fill="white" stroke="#25377E" stroke-width="1.07873" stroke-miterlimit="10"/>
<path d="M354.599 533.302H355.473C355.999 533.302 356.504 533.511 356.876 533.883C357.249 534.255 357.458 534.76 357.458 535.286V549.331H352.614V535.286C352.614 535.026 352.666 534.768 352.765 534.527C352.865 534.286 353.011 534.067 353.196 533.883C353.38 533.699 353.599 533.552 353.84 533.453C354.08 533.353 354.338 533.302 354.599 533.302Z" fill="white" stroke="#25377E" stroke-width="1.07873" stroke-miterlimit="10"/>
<path d="M361.88 533.302H364.552C365.078 533.302 365.583 533.511 365.956 533.883C366.328 534.255 366.537 534.76 366.537 535.286V549.331H359.896V535.286C359.896 535.026 359.947 534.768 360.047 534.527C360.146 534.286 360.293 534.067 360.477 533.883C360.661 533.699 360.88 533.552 361.121 533.453C361.362 533.353 361.62 533.302 361.88 533.302Z" fill="white" stroke="#25377E" stroke-width="1.07873" stroke-miterlimit="10"/>
<path fill-rule="evenodd" clip-rule="evenodd" d="M241.663 486.524L236.489 480.394C236.455 480.352 236.414 480.318 236.366 480.293C236.319 480.267 236.267 480.252 236.214 480.247C236.16 480.243 236.107 480.249 236.056 480.265C236.005 480.282 235.958 480.308 235.917 480.343L226.094 488.614C226.011 488.683 225.96 488.782 225.95 488.889C225.941 488.996 225.974 489.103 226.043 489.185L236.917 502.087C236.989 502.166 237.088 502.214 237.195 502.224C237.301 502.233 237.407 502.202 237.492 502.137L247.316 493.867C247.397 493.797 247.447 493.698 247.456 493.591C247.465 493.484 247.431 493.378 247.363 493.295L242.188 487.154L243.267 486.233C243.626 486.519 244.073 486.672 244.532 486.665C244.991 486.659 245.433 486.493 245.784 486.197C246.169 485.847 246.404 485.361 246.438 484.841C246.473 484.322 246.305 483.809 245.969 483.41C245.634 483.012 245.157 482.759 244.639 482.705C244.121 482.651 243.602 482.799 243.192 483.119C242.836 483.416 242.596 483.827 242.511 484.282C242.426 484.737 242.503 485.207 242.728 485.611L241.663 486.524ZM234.332 491.138L236.403 493.594C236.568 493.841 236.636 494.141 236.593 494.436C236.551 494.73 236.401 494.999 236.173 495.19C235.945 495.381 235.655 495.481 235.357 495.471C235.06 495.461 234.777 495.342 234.562 495.136L232.491 492.68C232.284 492.435 232.183 492.118 232.211 491.799C232.238 491.48 232.391 491.184 232.636 490.978C232.881 490.771 233.198 490.671 233.518 490.698C233.837 490.725 234.132 490.878 234.339 491.123L234.332 491.138ZM236.737 487.902C236.47 488.127 236.141 488.268 235.794 488.306C235.446 488.345 235.095 488.28 234.784 488.119C234.474 487.958 234.218 487.709 234.049 487.402C233.88 487.096 233.806 486.747 233.835 486.398C233.865 486.05 233.997 485.718 234.215 485.444C234.433 485.171 234.728 484.969 235.061 484.862C235.394 484.756 235.751 484.751 236.088 484.848C236.424 484.945 236.724 485.139 236.949 485.406C237.102 485.584 237.217 485.791 237.289 486.014C237.361 486.237 237.388 486.472 237.368 486.705C237.348 486.939 237.282 487.166 237.174 487.374C237.066 487.582 236.917 487.766 236.737 487.916V487.902ZM242.253 494.442C241.985 494.669 241.656 494.811 241.307 494.85C240.959 494.889 240.607 494.824 240.295 494.663C239.983 494.502 239.727 494.252 239.557 493.945C239.387 493.638 239.313 493.288 239.343 492.938C239.372 492.589 239.505 492.256 239.724 491.982C239.943 491.708 240.238 491.505 240.572 491.399C240.907 491.293 241.265 491.288 241.602 491.386C241.939 491.483 242.239 491.678 242.465 491.947C242.617 492.125 242.731 492.332 242.803 492.555C242.874 492.778 242.901 493.013 242.881 493.246C242.861 493.479 242.796 493.706 242.688 493.914C242.58 494.122 242.432 494.306 242.253 494.457V494.442Z" fill="url(#paint17_linear_378_2709)"/>
<path fill-rule="evenodd" clip-rule="evenodd" d="M232.404 481.738L232.667 482.051L228.352 485.679L228.093 485.37C227.821 485.043 227.688 484.622 227.723 484.198C227.759 483.774 227.96 483.381 228.284 483.105L230.121 481.559C230.448 481.284 230.87 481.149 231.296 481.183C231.722 481.217 232.117 481.416 232.397 481.738H232.404Z" fill="#2F53A0"/>
<path fill-rule="evenodd" clip-rule="evenodd" d="M245.076 496.787L245.335 497.096C245.606 497.426 245.737 497.85 245.698 498.276C245.66 498.702 245.456 499.095 245.13 499.372L243.292 500.918C242.966 501.191 242.545 501.324 242.121 501.287C241.698 501.251 241.306 501.048 241.031 500.724L240.768 500.415L245.076 496.787Z" fill="#2F53A0"/>
<path fill-rule="evenodd" clip-rule="evenodd" d="M216.967 541.072L212.832 544.668C212.804 544.691 212.781 544.721 212.765 544.753C212.748 544.786 212.739 544.822 212.736 544.858C212.734 544.895 212.739 544.932 212.751 544.966C212.763 545.001 212.782 545.033 212.807 545.06L218.585 551.676C218.634 551.731 218.702 551.765 218.775 551.77C218.849 551.776 218.921 551.752 218.977 551.705L227.668 544.114C227.721 544.064 227.753 543.996 227.758 543.923C227.763 543.85 227.74 543.778 227.693 543.722L221.915 537.106C221.866 537.051 221.798 537.018 221.725 537.013C221.652 537.007 221.579 537.03 221.523 537.077L217.388 540.673L216.744 539.954C216.938 539.704 217.039 539.395 217.029 539.079C217.019 538.763 216.899 538.461 216.69 538.224C216.578 538.071 216.435 537.942 216.27 537.847C216.105 537.752 215.923 537.692 215.734 537.67C215.545 537.649 215.353 537.667 215.172 537.724C214.99 537.78 214.822 537.874 214.678 537.998C214.534 538.123 214.418 538.276 214.336 538.448C214.255 538.619 214.209 538.806 214.204 538.996C214.198 539.187 214.231 539.376 214.302 539.552C214.373 539.729 214.48 539.889 214.616 540.022C214.823 540.262 215.107 540.422 215.419 540.475C215.732 540.527 216.053 540.469 216.327 540.31L216.967 541.072ZM220.203 546.027L221.857 544.589C222.025 544.464 222.233 544.408 222.441 544.431C222.648 544.454 222.839 544.554 222.975 544.712C223.112 544.87 223.184 545.073 223.176 545.282C223.169 545.49 223.083 545.688 222.936 545.836L221.282 547.275C221.114 547.399 220.906 547.455 220.699 547.432C220.491 547.409 220.3 547.309 220.164 547.151C220.028 546.993 219.956 546.79 219.963 546.581C219.97 546.373 220.056 546.175 220.203 546.027ZM217.97 544.423C218.127 544.604 218.226 544.826 218.256 545.063C218.286 545.3 218.245 545.54 218.138 545.754C218.032 545.968 217.864 546.145 217.657 546.263C217.449 546.382 217.212 546.436 216.974 546.42C216.735 546.403 216.507 546.316 216.319 546.17C216.13 546.024 215.988 545.826 215.912 545.599C215.836 545.373 215.829 545.129 215.891 544.899C215.953 544.668 216.083 544.462 216.262 544.305C216.383 544.199 216.522 544.119 216.674 544.068C216.825 544.017 216.985 543.996 217.145 544.007C217.304 544.018 217.46 544.06 217.603 544.132C217.746 544.203 217.873 544.302 217.978 544.423H217.97ZM222.375 540.572C222.533 540.753 222.634 540.976 222.665 541.214C222.696 541.451 222.656 541.693 222.55 541.908C222.443 542.123 222.276 542.301 222.068 542.421C221.86 542.54 221.621 542.596 221.382 542.579C221.143 542.563 220.914 542.477 220.724 542.33C220.534 542.184 220.392 541.984 220.315 541.757C220.239 541.53 220.231 541.285 220.294 541.054C220.357 540.822 220.486 540.615 220.667 540.457C220.787 540.352 220.927 540.271 221.078 540.219C221.229 540.168 221.389 540.147 221.549 540.158C221.708 540.169 221.864 540.211 222.007 540.282C222.15 540.353 222.278 540.452 222.382 540.572H222.375Z" fill="url(#paint18_linear_378_2709)"/>
<path fill-rule="evenodd" clip-rule="evenodd" d="M213.807 547.469L214.016 547.285L216.533 550.187L216.324 550.367C216.216 550.462 216.089 550.535 215.953 550.581C215.816 550.627 215.672 550.646 215.528 550.636C215.384 550.627 215.243 550.589 215.114 550.525C214.985 550.46 214.869 550.371 214.774 550.263L213.696 549.026C213.505 548.805 213.408 548.519 213.426 548.227C213.445 547.936 213.576 547.664 213.793 547.469H213.807Z" fill="#2F53A0"/>
<path fill-rule="evenodd" clip-rule="evenodd" d="M223.943 538.616L224.152 538.433C224.375 538.244 224.663 538.15 224.954 538.172C225.245 538.193 225.516 538.328 225.709 538.548L226.788 539.785C226.977 540.005 227.073 540.291 227.052 540.582C227.032 540.872 226.898 541.142 226.68 541.334L226.471 541.518L223.943 538.616Z" fill="#2F53A0"/>
<path d="M78.9048 344.952H131.133" stroke="#022791" stroke-width="1.07873" stroke-miterlimit="10" stroke-linecap="round"/>
<path d="M78.9048 351.306H92.317" stroke="#022791" stroke-width="1.07873" stroke-miterlimit="10" stroke-linecap="round"/>
<path d="M101.087 351.306H126.894" stroke="#022791" stroke-width="1.07873" stroke-miterlimit="10" stroke-linecap="round"/>
<path d="M41.6274 186.376H93.8558" stroke="#25377E" stroke-width="1.07873" stroke-miterlimit="10" stroke-linecap="round"/>
<path d="M41.6274 192.729H55.0396" stroke="#25377E" stroke-width="1.07873" stroke-miterlimit="10" stroke-linecap="round"/>
<path d="M63.8062 192.729H89.6165" stroke="#25377E" stroke-width="1.07873" stroke-miterlimit="10" stroke-linecap="round"/>
<path d="M327.509 463.119V515.344" stroke="#022791" stroke-width="1.07873" stroke-miterlimit="10" stroke-linecap="round"/>
<path d="M321.155 463.119V476.532" stroke="#022791" stroke-width="1.07873" stroke-miterlimit="10" stroke-linecap="round"/>
<path d="M321.155 485.298V511.109" stroke="#022791" stroke-width="1.07873" stroke-miterlimit="10" stroke-linecap="round"/>
<path d="M86.4086 236.004H44.7338C43.7369 236.004 42.9287 236.812 42.9287 237.809V260.998C42.9287 261.995 43.7369 262.803 44.7338 262.803H86.4086C87.4056 262.803 88.2137 261.995 88.2137 260.998V237.809C88.2137 236.812 87.4056 236.004 86.4086 236.004Z" fill="white"/>
<path d="M49.4877 250.819C49.7814 250.819 50.0723 250.876 50.3436 250.989C50.615 251.101 50.8615 251.266 51.0692 251.474C51.2769 251.681 51.4416 251.928 51.554 252.199C51.6664 252.471 51.7243 252.761 51.7243 253.055V259.42H47.2476V253.055C47.2476 252.761 47.3055 252.47 47.4181 252.198C47.5308 251.927 47.6958 251.68 47.9039 251.472C48.112 251.265 48.3589 251.1 48.6307 250.988C48.9025 250.876 49.1937 250.818 49.4877 250.819Z" fill="#96D4EB"/>
<path d="M56.8591 244.803C57.4492 244.805 58.0146 245.04 58.4322 245.457C58.8497 245.874 59.0856 246.439 59.0885 247.029V259.405H54.6226V247.029C54.6226 246.436 54.8582 245.867 55.2776 245.447C55.6971 245.028 56.2659 244.792 56.8591 244.792V244.803Z" fill="#96D4EB"/>
<path d="M64.2346 249.186C64.8278 249.186 65.3967 249.422 65.8161 249.841C66.2355 250.261 66.4712 250.83 66.4712 251.423V259.402H61.998V251.441C61.998 250.848 62.2337 250.279 62.6531 249.859C63.0726 249.44 63.6414 249.204 64.2346 249.204V249.186Z" fill="#96D4EB"/>
<path d="M71.6093 246.389C72.2025 246.389 72.7714 246.624 73.1908 247.044C73.6102 247.463 73.8459 248.032 73.8459 248.625V259.413H69.3691V248.625C69.3691 248.331 69.4271 248.04 69.5397 247.769C69.6524 247.497 69.8174 247.25 70.0255 247.042C70.2336 246.835 70.4805 246.67 70.7523 246.558C71.0241 246.446 71.3153 246.388 71.6093 246.389Z" fill="#96D4EB"/>
<path d="M78.9802 241.635C79.5734 241.635 80.1423 241.871 80.5617 242.29C80.9811 242.71 81.2168 243.278 81.2168 243.872V259.412H76.7437V243.879C76.7427 243.584 76.7999 243.293 76.9118 243.021C77.0238 242.748 77.1884 242.501 77.3962 242.293C77.604 242.084 77.8508 241.919 78.1227 241.806C78.3945 241.693 78.6859 241.635 78.9802 241.635Z" fill="#96D4EB"/>
<path fill-rule="evenodd" clip-rule="evenodd" d="M176.195 652.271L166.961 647.596C166.9 647.564 166.834 647.545 166.765 647.539C166.697 647.533 166.628 647.541 166.562 647.563C166.497 647.584 166.436 647.619 166.384 647.664C166.333 647.709 166.29 647.764 166.26 647.826L158.799 662.587C158.738 662.711 158.728 662.853 158.771 662.984C158.814 663.115 158.907 663.224 159.029 663.288L178.414 673.087C178.538 673.143 178.679 673.15 178.809 673.108C178.939 673.065 179.048 672.975 179.115 672.856L186.576 658.114C186.609 658.052 186.629 657.983 186.635 657.913C186.642 657.843 186.634 657.773 186.612 657.706C186.591 657.639 186.556 657.577 186.511 657.523C186.465 657.47 186.409 657.426 186.346 657.395L177.119 652.72L177.95 651.077C178.522 651.239 179.133 651.195 179.677 650.955C180.221 650.715 180.665 650.293 180.931 649.761C181.241 649.148 181.295 648.437 181.081 647.785C180.867 647.133 180.402 646.592 179.789 646.282C179.177 645.972 178.466 645.918 177.813 646.132C177.161 646.346 176.62 646.811 176.31 647.424C176.04 647.955 175.964 648.563 176.095 649.145C176.227 649.726 176.557 650.243 177.03 650.606L176.195 652.271Z" fill="#C6CADB"/>
<path fill-rule="evenodd" clip-rule="evenodd" d="M162.797 651.26L163.265 651.494L159.996 657.966L159.529 657.729C159.041 657.48 158.671 657.049 158.5 656.529C158.329 656.009 158.371 655.443 158.615 654.953L160.011 652.195C160.259 651.704 160.691 651.331 161.213 651.157C161.734 650.983 162.304 651.021 162.797 651.264V651.26Z" fill="#C6CADB"/>
<path fill-rule="evenodd" clip-rule="evenodd" d="M185.404 662.699L185.871 662.936C186.359 663.191 186.726 663.627 186.895 664.15C187.064 664.673 187.02 665.242 186.774 665.733L185.379 668.491C185.13 668.979 184.699 669.349 184.179 669.52C183.659 669.691 183.092 669.649 182.603 669.405L182.135 669.167L185.404 662.699Z" fill="#C6CADB"/>
<path d="M181.57 661.206L181.099 659.739L178.766 660.491L178.014 658.161L176.543 658.632L177.298 660.965L174.965 661.717L175.439 663.184L177.77 662.432L178.525 664.766L179.992 664.291L179.237 661.958L181.57 661.206Z" fill="white"/>
<path d="M172.039 656.323L171.564 654.856L169.231 655.611L168.479 653.278L167.012 653.752L167.767 656.082L165.434 656.837L165.905 658.304L168.238 657.549L168.99 659.883L170.46 659.412L169.705 657.078L172.039 656.323Z" fill="white"/>
<path fill-rule="evenodd" clip-rule="evenodd" d="M236.835 690.954L227.425 700.231C227.361 700.292 227.311 700.366 227.276 700.447C227.242 700.528 227.224 700.616 227.224 700.704C227.224 700.792 227.242 700.879 227.276 700.961C227.311 701.042 227.361 701.115 227.425 701.177L242.264 716.232C242.391 716.356 242.56 716.425 242.737 716.425C242.914 716.425 243.084 716.356 243.21 716.232L262.987 696.743C263.105 696.614 263.171 696.446 263.171 696.27C263.171 696.095 263.105 695.926 262.987 695.798L248.143 680.738C248.018 680.615 247.848 680.546 247.672 680.546C247.496 680.546 247.327 680.615 247.201 680.738L237.798 690.026L236.148 688.351C236.577 687.723 236.774 686.965 236.704 686.207C236.635 685.45 236.303 684.74 235.767 684.201C235.465 683.878 235.101 683.619 234.697 683.439C234.293 683.259 233.857 683.161 233.415 683.152C232.973 683.143 232.533 683.223 232.122 683.387C231.711 683.55 231.337 683.795 231.022 684.105C230.708 684.416 230.458 684.786 230.289 685.195C230.119 685.604 230.033 686.042 230.036 686.484C230.039 686.927 230.13 687.364 230.305 687.77C230.48 688.177 230.734 688.544 231.053 688.85C231.584 689.394 232.289 689.735 233.045 689.815C233.801 689.895 234.561 689.709 235.195 689.289L236.835 690.954Z" fill="#C6CADB"/>
<path fill-rule="evenodd" clip-rule="evenodd" d="M230.167 706.783L230.642 706.312L237.146 712.91L236.672 713.381C236.172 713.87 235.498 714.142 234.798 714.137C234.098 714.131 233.429 713.849 232.936 713.352L230.16 710.54C229.667 710.039 229.391 709.364 229.391 708.661C229.391 707.958 229.667 707.284 230.16 706.783H230.167Z" fill="#C6CADB"/>
<path fill-rule="evenodd" clip-rule="evenodd" d="M253.231 684.047L253.706 683.579C254.213 683.093 254.891 682.826 255.594 682.835C256.297 682.843 256.968 683.128 257.463 683.626L260.236 686.441C260.726 686.941 260.999 687.614 260.995 688.315C260.99 689.015 260.708 689.685 260.21 690.177L259.736 690.645L253.231 684.047Z" fill="#C6CADB"/>
<path d="M249.876 688.088L247.905 688.067L247.866 691.199L244.734 691.159L244.708 693.129L247.84 693.169L247.801 696.301L249.771 696.326L249.811 693.194L252.946 693.234L252.972 691.263L249.836 691.224L249.876 688.088Z" fill="white"/>
<path d="M240.074 697.649L238.103 697.628L238.064 700.76L234.932 700.72L234.907 702.691L238.039 702.73L237.999 705.866L239.97 705.887L240.009 702.755L243.145 702.795L243.166 700.824L240.034 700.785L240.074 697.649Z" fill="white"/>
<path fill-rule="evenodd" clip-rule="evenodd" d="M242.933 628.438L238.237 635.414C238.205 635.46 238.183 635.512 238.171 635.567C238.16 635.622 238.159 635.678 238.17 635.733C238.181 635.788 238.202 635.84 238.234 635.887C238.265 635.933 238.305 635.973 238.352 636.004L249.516 643.515C249.563 643.546 249.615 643.568 249.669 643.579C249.724 643.591 249.78 643.591 249.835 643.58C249.89 643.569 249.942 643.548 249.989 643.517C250.035 643.486 250.075 643.446 250.106 643.4L259.973 628.74C260.031 628.645 260.051 628.532 260.03 628.423C260.008 628.314 259.947 628.217 259.858 628.151L248.693 620.628C248.599 620.566 248.485 620.543 248.375 620.565C248.264 620.586 248.167 620.65 248.103 620.743L243.407 627.719L242.167 626.885C242.355 626.438 242.381 625.94 242.242 625.476C242.102 625.012 241.804 624.611 241.401 624.343C240.937 624.031 240.368 623.916 239.819 624.024C239.271 624.131 238.787 624.452 238.476 624.916C238.164 625.38 238.049 625.949 238.157 626.498C238.264 627.046 238.585 627.529 239.049 627.841C239.45 628.114 239.933 628.237 240.416 628.191C240.898 628.145 241.35 627.933 241.692 627.59L242.933 628.438Z" fill="#C6CADB"/>
<path fill-rule="evenodd" clip-rule="evenodd" d="M240.779 639.154L241.016 638.794L245.91 642.084L245.673 642.444C245.423 642.813 245.037 643.068 244.6 643.153C244.163 643.239 243.709 643.148 243.339 642.9L241.254 641.498C240.882 641.248 240.625 640.862 240.536 640.423C240.447 639.984 240.534 639.528 240.779 639.154Z" fill="#C6CADB"/>
<path fill-rule="evenodd" clip-rule="evenodd" d="M252.286 622.066L252.523 621.707C252.778 621.339 253.168 621.086 253.608 621.003C254.047 620.92 254.502 621.012 254.875 621.261L256.96 622.663C257.329 622.914 257.583 623.3 257.669 623.738C257.754 624.176 257.664 624.629 257.417 625.001L257.179 625.36L252.286 622.066Z" fill="#C6CADB"/>
<path d="M250.706 624.997L249.473 625.234L249.843 627.19L247.887 627.564L248.121 628.798L250.081 628.424L250.451 630.384L251.684 630.15L251.31 628.19L253.27 627.816L253.036 626.586L251.077 626.957L250.706 624.997Z" fill="white"/>
<path d="M245.802 632.203L244.568 632.437L244.942 634.396L242.982 634.77L243.216 636L245.176 635.63L245.55 637.589L246.78 637.356L246.409 635.396L248.369 635.022L248.135 633.789L246.172 634.163L245.802 632.203Z" fill="white"/>
<path d="M195.497 618.471C193.509 622.786 190.769 626.993 186.997 630.268" stroke="#022791" stroke-width="1.07873" stroke-miterlimit="10" stroke-linecap="round"/>
<path d="M200.65 598.306C200.34 602.114 199.678 605.885 198.672 609.571" stroke="#022791" stroke-width="1.07873" stroke-miterlimit="10" stroke-linecap="round"/>
<path d="M238.366 598.306C238.366 598.306 238.118 609.262 243.206 614.282L238.366 598.306Z" fill="url(#paint19_linear_378_2709)"/>
<path d="M238.366 598.306C238.366 598.306 238.118 609.262 243.206 614.282" stroke="#022791" stroke-width="1.07873" stroke-miterlimit="10" stroke-linecap="round"/>
<path d="M227.672 662.404C230.745 667.439 234.743 671.847 239.455 675.395" stroke="#022791" stroke-width="1.07873" stroke-miterlimit="10" stroke-linecap="round"/>
<path d="M221.742 649.56C222.051 650.488 222.381 651.41 222.731 652.329" stroke="#022791" stroke-width="1.07873" stroke-miterlimit="10" stroke-linecap="round"/>
<path d="M218.38 602.29C218.38 602.29 214.54 625.206 220.93 646.978" stroke="#022791" stroke-width="1.07873" stroke-miterlimit="10" stroke-linecap="round"/>
<path d="M412.868 228.712C412.995 228.73 413.123 228.73 413.249 228.712C419.587 226.793 426.317 226.564 432.771 228.047C433.115 228.126 433.477 228.065 433.776 227.878C434.075 227.69 434.288 227.391 434.367 227.047C434.446 226.703 434.385 226.341 434.198 226.042C434.011 225.742 433.712 225.53 433.368 225.451C426.483 223.876 419.307 224.124 412.548 226.17C412.374 226.19 412.206 226.245 412.054 226.331C411.902 226.418 411.768 226.533 411.661 226.672C411.554 226.81 411.476 226.969 411.431 227.138C411.386 227.307 411.375 227.483 411.399 227.656C411.423 227.83 411.481 227.997 411.57 228.147C411.659 228.298 411.778 228.429 411.918 228.533C412.059 228.638 412.219 228.713 412.388 228.755C412.558 228.796 412.735 228.804 412.908 228.777L412.857 228.715L412.868 228.712Z" fill="#FDFDFD"/>
<path d="M389.118 247.575C389.422 247.736 389.778 247.77 390.107 247.669C390.436 247.569 390.713 247.343 390.876 247.04C393.995 241.185 398.589 236.246 404.202 232.71C404.389 232.649 404.56 232.546 404.703 232.41C404.845 232.274 404.955 232.107 405.025 231.923C405.095 231.738 405.121 231.54 405.101 231.344C405.082 231.147 405.018 230.958 404.914 230.79C404.812 230.621 404.673 230.478 404.507 230.371C404.341 230.264 404.153 230.196 403.958 230.172C403.762 230.149 403.563 230.17 403.377 230.235C403.19 230.3 403.021 230.406 402.882 230.546C396.886 234.309 391.973 239.57 388.628 245.81C388.463 246.108 388.42 246.459 388.51 246.787C388.6 247.116 388.816 247.396 389.11 247.568L389.118 247.575Z" fill="#FDFDFD"/>
<path d="M408.687 239.255H408.766C411.759 237.535 415.005 236.299 418.384 235.594C423.51 234.526 428.814 234.674 433.871 236.026C434.122 236.104 434.391 236.104 434.641 236.025C434.892 235.947 435.113 235.794 435.275 235.588C435.437 235.381 435.532 235.13 435.548 234.868C435.564 234.605 435.499 234.345 435.364 234.12C435.274 233.969 435.155 233.838 435.014 233.735C434.872 233.632 434.711 233.558 434.54 233.519C429.086 232.064 423.367 231.908 417.841 233.063C414.176 233.838 410.657 235.189 407.414 237.065H407.338C402.487 239.888 398.362 243.804 395.292 248.503C391.49 254.31 389.465 261.101 389.464 268.042C389.454 268.219 389.481 268.395 389.542 268.561C389.603 268.727 389.698 268.878 389.819 269.007C389.941 269.135 390.087 269.237 390.25 269.307C390.412 269.376 390.587 269.412 390.764 269.412C390.94 269.412 391.115 269.376 391.277 269.307C391.44 269.237 391.586 269.135 391.708 269.007C391.829 268.878 391.924 268.727 391.985 268.561C392.046 268.395 392.073 268.219 392.063 268.042C392.06 262.21 393.595 256.479 396.512 251.429C399.43 246.378 403.628 242.187 408.683 239.276L408.687 239.255Z" fill="#FDFDFD"/>
<path d="M73.9964 103.673C73.969 103.706 73.9324 103.73 73.8914 103.742C73.8503 103.754 73.8066 103.753 73.7659 103.74C73.7251 103.727 73.6891 103.703 73.6624 103.669C73.6357 103.636 73.6195 103.595 73.616 103.552C73.6124 103.51 73.6216 103.467 73.6424 103.43C73.6632 103.392 73.6946 103.362 73.7327 103.343C73.7708 103.323 73.8138 103.315 73.8563 103.32C73.8988 103.325 73.9388 103.343 73.9712 103.371C74.0143 103.408 74.0411 103.46 74.0458 103.517C74.0505 103.573 74.0327 103.629 73.9964 103.673Z" fill="#E3E7F5"/>
<path d="M163.006 417.666C162.998 417.688 162.986 417.709 162.97 417.727L157.335 423.987C157.316 424.009 157.293 424.027 157.266 424.04C157.239 424.052 157.21 424.059 157.181 424.059L151.043 424.142C150.987 424.141 150.933 424.119 150.892 424.081L144.265 417.637C144.235 417.611 144.215 417.575 144.207 417.536L142.611 410.812C142.597 410.77 142.597 410.725 142.611 410.683C142.626 410.648 142.65 410.617 142.679 410.593L146.735 407.497C146.763 407.472 146.799 407.457 146.836 407.454L152.816 406.691C152.841 406.688 152.866 406.688 152.891 406.691L160.417 408.478C160.447 408.487 160.475 408.5 160.5 408.518L163.88 411.154C163.91 411.177 163.933 411.208 163.948 411.243C163.962 411.279 163.967 411.317 163.962 411.355L163.006 417.615C163.008 417.632 163.008 417.649 163.006 417.666ZM160.349 415.12L163.355 411.452L160.349 415.12ZM148.519 408.079L150.316 408.799L148.519 408.079ZM151.219 418.507C151.172 418.482 151.136 418.441 151.118 418.391C151.1 418.341 151.101 418.286 151.122 418.237" fill="url(#paint20_linear_378_2709)"/>
<path d="M149.82 417.496C149.797 417.548 149.755 417.589 149.703 417.61C149.651 417.632 149.592 417.632 149.54 417.611C149.513 417.601 149.49 417.585 149.47 417.565C149.45 417.545 149.434 417.522 149.423 417.495C149.412 417.469 149.407 417.441 149.407 417.413C149.407 417.385 149.413 417.357 149.425 417.331C149.435 417.305 149.45 417.281 149.47 417.261C149.489 417.241 149.513 417.226 149.538 417.215C149.564 417.204 149.592 417.199 149.62 417.199C149.648 417.199 149.676 417.205 149.701 417.216C149.754 417.238 149.796 417.279 149.818 417.332C149.841 417.384 149.841 417.444 149.82 417.496Z" fill="#E3E7F5"/>
<path d="M163.027 417.737C163.019 417.76 163.005 417.781 162.988 417.799L157.357 424.062C157.337 424.084 157.312 424.101 157.285 424.113C157.258 424.125 157.228 424.131 157.199 424.131L151.064 424.213C151.036 424.214 151.009 424.208 150.983 424.198C150.957 424.187 150.933 424.172 150.913 424.152L144.286 417.712C144.257 417.683 144.236 417.647 144.225 417.608L142.632 410.888C142.618 410.844 142.618 410.798 142.632 410.754C142.645 410.719 142.669 410.689 142.701 410.668L146.753 407.569C146.782 407.543 146.819 407.528 146.857 407.525L152.833 406.763C152.86 406.76 152.886 406.76 152.913 406.763L160.428 408.529C160.458 408.535 160.486 408.549 160.51 408.568L163.894 411.204C163.924 411.228 163.947 411.259 163.961 411.294C163.975 411.329 163.979 411.368 163.973 411.405L163.031 417.684C163.032 417.702 163.031 417.72 163.027 417.737ZM157.195 423.599L162.531 417.669L160.392 415.62L156.828 415.731L153.258 419.226L157.195 423.599ZM162.679 417.216L163.445 412.114L160.766 415.386L162.679 417.216ZM156.789 415.31L160.385 415.199L163.387 411.535L150.421 409.302L149.292 411.287L156.789 415.31ZM148.54 408.158L150.338 408.878L162.118 410.898L162.283 410.521L160.284 408.96L152.851 407.216L148.58 407.759L148.54 408.158ZM151.147 423.793L156.72 423.717L152.83 419.402L151.255 418.582C151.207 418.558 151.17 418.516 151.152 418.465C151.133 418.415 151.134 418.359 151.154 418.309C151.167 418.285 151.184 418.263 151.205 418.245C151.226 418.227 151.25 418.213 151.276 418.205C151.33 418.183 151.389 418.183 151.442 418.205L152.913 418.971L156.368 415.587L148.943 411.632L145.746 412.437L146.501 415.641L148.022 416.436C148.07 416.461 148.107 416.502 148.126 416.553C148.144 416.603 148.143 416.659 148.123 416.709C148.095 416.758 148.051 416.795 147.997 416.813C147.944 416.833 147.885 416.833 147.832 416.813L146.357 416.044L144.739 417.586L151.147 423.793ZM145.527 412.031L148.842 411.193L149.986 409.18L146.929 407.989L143.229 410.805L145.527 412.031ZM144.556 417.151L146.106 415.67L145.333 412.38L143.175 411.233L144.556 417.151Z" fill="#022791" stroke="#022791" stroke-width="0.359576" stroke-miterlimit="10"/>
<path d="M149.842 417.568C149.819 417.62 149.777 417.66 149.725 417.682C149.673 417.703 149.614 417.704 149.562 417.683C149.515 417.657 149.48 417.615 149.463 417.565C149.446 417.515 149.447 417.461 149.468 417.412C149.488 417.363 149.526 417.323 149.574 417.3C149.622 417.278 149.676 417.273 149.727 417.288C149.753 417.298 149.777 417.314 149.797 417.334C149.817 417.354 149.833 417.378 149.843 417.404C149.854 417.43 149.86 417.458 149.859 417.486C149.859 417.514 149.853 417.542 149.842 417.568Z" fill="#022791" stroke="#022791" stroke-width="0.359576" stroke-miterlimit="10"/>
<path d="M300.591 501.429C300.561 501.434 300.53 501.434 300.501 501.429L290.386 499.782C290.35 499.777 290.316 499.764 290.286 499.745C290.255 499.726 290.229 499.7 290.21 499.67L286.085 493.443C286.048 493.385 286.036 493.315 286.049 493.248L288.282 482.224C288.291 482.175 288.313 482.13 288.347 482.094L294.179 476.039C294.217 476 294.266 475.973 294.32 475.964C294.364 475.953 294.411 475.953 294.456 475.964L300.296 478.074C300.339 478.089 300.377 478.115 300.407 478.15L305.121 483.77C305.141 483.793 305.157 483.82 305.168 483.849L308.311 492.709C308.318 492.746 308.318 492.784 308.311 492.82L307.84 498.016C307.837 498.062 307.821 498.106 307.794 498.144C307.768 498.181 307.731 498.211 307.689 498.228L300.637 501.396C300.624 501.41 300.608 501.421 300.591 501.429ZM301.446 497.035L307.178 497.696L301.446 497.035ZM300.867 480.289L301.338 482.609L300.867 480.289ZM291.99 489.926C291.982 489.861 292 489.795 292.04 489.743C292.079 489.691 292.137 489.656 292.202 489.645H292.227" fill="url(#paint21_linear_378_2709)"/>
<path d="M292.094 487.822C292.043 487.832 291.99 487.826 291.942 487.806C291.894 487.786 291.853 487.752 291.825 487.709C291.796 487.665 291.781 487.614 291.782 487.562C291.782 487.51 291.798 487.46 291.827 487.417C291.857 487.374 291.898 487.341 291.946 487.321C291.994 487.302 292.047 487.297 292.098 487.308C292.149 487.319 292.196 487.344 292.232 487.381C292.268 487.419 292.293 487.466 292.302 487.517C292.315 487.585 292.3 487.655 292.261 487.713C292.222 487.77 292.162 487.809 292.094 487.822Z" fill="#E3E7F5"/>
<path d="M300.529 501.501C300.501 501.508 300.471 501.508 300.443 501.501L290.324 499.857C290.289 499.852 290.255 499.839 290.225 499.82C290.194 499.801 290.168 499.775 290.148 499.746L286.027 493.518C286.008 493.49 285.994 493.458 285.987 493.425C285.981 493.392 285.981 493.357 285.988 493.324L288.221 482.299C288.232 482.251 288.255 482.206 288.289 482.17L294.118 476.115C294.156 476.074 294.207 476.048 294.262 476.039C294.305 476.027 294.351 476.027 294.395 476.039L300.234 478.15C300.278 478.164 300.317 478.19 300.346 478.225L305.063 483.845C305.082 483.87 305.098 483.896 305.11 483.925L308.249 492.784C308.258 492.82 308.258 492.857 308.249 492.892L307.778 498.092C307.774 498.138 307.757 498.182 307.73 498.219C307.703 498.256 307.666 498.286 307.624 498.304L300.576 501.472L300.529 501.501ZM290.695 499.39L300.277 500.947L300.961 497.409L298.505 493.834L292.579 492.482L290.695 499.39ZM300.835 500.803L306.563 498.228L301.442 497.653L300.835 500.803ZM298.925 493.514L301.392 497.11L307.124 497.772L300.867 483.029L298.091 483.184L298.925 493.514ZM300.817 480.361L301.284 482.68L306.969 496.064L307.469 495.985L307.746 492.914L304.639 484.155L301.27 480.142L300.817 480.361ZM286.527 493.306L290.274 498.962L292.137 492.13L291.939 489.973C291.933 489.907 291.952 489.842 291.992 489.791C292.032 489.739 292.09 489.704 292.155 489.692H292.176C292.245 489.686 292.313 489.706 292.367 489.75C292.42 489.794 292.453 489.857 292.46 489.926L292.644 491.939L298.397 493.248L297.573 483.033L294.643 480.293L291.86 483.169L292.05 485.251C292.055 485.316 292.036 485.381 291.996 485.433C291.956 485.484 291.899 485.52 291.835 485.532H291.813C291.744 485.536 291.676 485.514 291.622 485.471C291.596 485.449 291.574 485.422 291.558 485.392C291.542 485.362 291.532 485.329 291.529 485.295L291.346 483.281L288.699 482.637L286.527 493.306ZM294.869 479.811L297.908 482.652L300.72 482.497L299.929 478.585L294.607 476.665L294.869 479.811ZM288.98 482.191L291.497 482.795L294.352 479.836L294.107 476.877L288.98 482.191Z" fill="#022791" stroke="#022791" stroke-width="0.359576" stroke-miterlimit="10"/>
<path d="M292.026 487.89C291.958 487.902 291.888 487.887 291.832 487.847C291.776 487.808 291.738 487.748 291.726 487.68C291.714 487.612 291.729 487.543 291.769 487.487C291.808 487.43 291.868 487.392 291.936 487.38C291.969 487.374 292.004 487.375 292.037 487.382C292.07 487.39 292.102 487.403 292.129 487.423C292.157 487.443 292.181 487.467 292.199 487.496C292.218 487.525 292.23 487.557 292.236 487.59C292.242 487.624 292.241 487.658 292.234 487.691C292.226 487.725 292.213 487.756 292.193 487.784C292.173 487.812 292.149 487.835 292.12 487.854C292.091 487.872 292.059 487.884 292.026 487.89Z" fill="#022791" stroke="#022791" stroke-width="0.359576" stroke-miterlimit="10"/>
<path d="M118.61 386.372L115.848 381.51C115.83 381.478 115.805 381.449 115.775 381.426C115.746 381.403 115.712 381.387 115.676 381.377L108.998 379.623H108.948C108.929 379.621 108.91 379.621 108.89 379.623L97.4415 380.971C97.4029 380.976 97.3657 380.988 97.3323 381.008C97.2989 381.028 97.2699 381.054 97.2473 381.086L92.1701 387.983C92.1584 387.998 92.1488 388.015 92.1413 388.033L90.7462 391.528C90.7275 391.565 90.7178 391.607 90.7178 391.649C90.7178 391.69 90.7275 391.732 90.7462 391.769L95.3344 400.039V400.068V400.093L100.081 406.13C100.104 406.16 100.133 406.184 100.166 406.202C100.198 406.22 100.234 406.231 100.271 406.235L106.934 407.069H107.003C107.049 407.063 107.094 407.046 107.132 407.019L110.821 404.394C110.846 404.376 110.868 404.354 110.886 404.329L116.118 397.051C116.128 397.036 116.137 397.019 116.143 397.001V396.972L118.631 386.598C118.652 386.523 118.644 386.442 118.61 386.372ZM98.4015 390.453L92.8245 388.022L98.4015 390.453ZM95.7371 399.615L91.3035 391.614L95.7371 399.615ZM110.109 404.2L106.873 406.494L110.109 404.2ZM115.503 396.9L110.559 403.804L115.503 396.9ZM109.142 380.273L115.413 381.92L109.142 380.273Z" fill="#D6D6D6"/>
<path d="M118.616 386.368L115.855 381.51C115.816 381.445 115.755 381.397 115.682 381.377L109.005 379.622H108.9L97.4479 380.971C97.4095 380.976 97.3725 380.989 97.3392 381.009C97.3059 381.028 97.2768 381.055 97.2537 381.086L92.1693 387.982C92.1588 387.998 92.1503 388.015 92.1441 388.033L90.749 391.528C90.7313 391.566 90.7222 391.607 90.7222 391.648C90.7222 391.69 90.7313 391.731 90.749 391.769L95.3372 400.039L95.3551 400.071V400.093L100.066 406.127C100.088 406.156 100.116 406.18 100.148 406.198C100.18 406.216 100.216 406.227 100.253 406.231L106.916 407.065H106.984C107.032 407.059 107.077 407.042 107.117 407.015L110.803 404.39C110.828 404.372 110.849 404.35 110.867 404.325L116.099 397.047L116.121 397.001C116.12 396.99 116.12 396.979 116.121 396.968L118.609 386.594C118.626 386.559 118.635 386.521 118.636 386.482C118.638 386.443 118.631 386.404 118.616 386.368ZM97.6384 381.51L108.577 380.223L107.289 386.426L98.4115 390.435L92.8345 388.004L97.6384 381.51ZM91.3099 391.6L92.5504 388.5L98.1886 390.956L101.205 398.957L95.7651 399.615L91.3099 391.6ZM106.887 406.475L100.45 405.67L96.1354 400.125L101.554 399.485L110.13 404.16L106.887 406.475ZM110.565 403.775L101.824 398.996L98.7711 390.891L107.455 386.972L115.542 396.893L110.565 403.775ZM115.74 396.253L107.829 386.544L109.134 380.241L115.409 381.888L118.059 386.544L115.74 396.253Z" fill="#022791" stroke="#022791" stroke-width="0.467449" stroke-miterlimit="10"/>
<path d="M181.1 435.72L178.752 438.532C178.72 438.571 178.705 438.621 178.709 438.672L179.169 443.185C179.169 443.185 179.169 443.185 179.169 443.206C179.167 443.218 179.167 443.23 179.169 443.242L182.636 449.981C182.66 450.025 182.702 450.059 182.751 450.074L188.144 451.62H188.18L190.654 451.674C190.682 451.675 190.709 451.67 190.734 451.659C190.759 451.648 190.781 451.631 190.798 451.609L194.833 446.885L197.465 442.598C197.49 442.556 197.498 442.506 197.486 442.458L196.465 438.168C196.462 438.153 196.456 438.138 196.447 438.125C196.434 438.097 196.412 438.073 196.386 438.057L193.923 436.389L193.869 436.363L188.184 434.821H188.177L181.223 435.677C181.178 435.676 181.135 435.692 181.1 435.72ZM188.263 447.226L188.051 451.217L188.263 447.226ZM194.523 446.755L190.618 451.325L194.523 446.755ZM194.034 436.86L196.192 438.298L194.034 436.86ZM188.281 435.191L193.675 436.655L188.281 435.191ZM179.518 442.944L179.09 438.704L179.518 442.944Z" fill="#D6D6D6"/>
<path d="M181.096 435.712L178.748 438.528C178.717 438.566 178.701 438.615 178.705 438.665L179.162 443.181C179.16 443.188 179.16 443.195 179.162 443.202C179.16 443.214 179.16 443.226 179.162 443.238L182.628 449.973C182.639 449.996 182.656 450.017 182.675 450.033C182.695 450.049 182.718 450.06 182.743 450.067L188.137 451.617H188.173L190.647 451.67C190.674 451.672 190.701 451.666 190.726 451.655C190.751 451.644 190.773 451.627 190.791 451.606L194.825 446.877L197.453 442.591C197.479 442.549 197.488 442.499 197.479 442.451L196.454 438.158C196.456 438.145 196.456 438.131 196.454 438.118C196.44 438.09 196.419 438.065 196.393 438.046L193.93 436.381L193.876 436.356L188.191 434.81H188.176L181.222 435.666C181.176 435.667 181.132 435.683 181.096 435.712ZM182.945 449.736L179.633 443.3L183.746 442.667L188.259 447.208L188.047 451.196L182.945 449.736ZM190.607 451.307L188.417 451.261L188.629 447.223L192.851 443.53L194.505 446.741L190.607 451.307ZM196.177 438.298L197.166 442.444L194.749 446.399L193.11 443.21L194.02 436.852L196.177 438.298ZM193.66 436.655L192.732 443.127L188.446 446.87L184.034 442.429L188.274 435.184L193.66 436.655ZM187.835 435.216L183.685 442.307L179.503 442.954L179.076 438.715L181.327 436.015L187.835 435.216Z" fill="#022791" stroke="#022791" stroke-width="0.467449" stroke-miterlimit="10"/>
<path d="M199.302 484.263H217.532V529.724H199.302" stroke="#022791" stroke-width="1.07873" stroke-miterlimit="10"/>
<path d="M195.152 474.101H108.149C105.857 474.101 104 475.959 104 478.25V532.313C104 534.604 105.857 536.462 108.149 536.462H195.152C197.444 536.462 199.302 534.604 199.302 532.313V478.25C199.302 475.959 197.444 474.101 195.152 474.101Z" fill="#E3E7F5"/>
<path d="M168.191 515.855H117.322C113.996 515.855 111.299 518.551 111.299 521.878C111.299 525.204 113.996 527.901 117.322 527.901H168.191C171.518 527.901 174.214 525.204 174.214 521.878C174.214 518.551 171.518 515.855 168.191 515.855Z" fill="url(#paint22_linear_378_2709)"/>
<path d="M168.191 499.99H117.322C113.996 499.99 111.299 502.687 111.299 506.013C111.299 509.34 113.996 512.036 117.322 512.036H168.191C171.518 512.036 174.214 509.34 174.214 506.013C174.214 502.687 171.518 499.99 168.191 499.99Z" fill="url(#paint23_linear_378_2709)"/>
<path d="M168.191 484.122H117.322C113.996 484.122 111.299 486.819 111.299 490.145C111.299 493.472 113.996 496.168 117.322 496.168H168.191C171.518 496.168 174.214 493.472 174.214 490.145C174.214 486.819 171.518 484.122 168.191 484.122Z" fill="url(#paint24_linear_378_2709)"/>
<path d="M188.32 487.15H181.189C180.197 487.15 179.392 487.955 179.392 488.948V488.952C179.392 489.944 180.197 490.749 181.189 490.749H188.32C189.313 490.749 190.118 489.944 190.118 488.952V488.948C190.118 487.955 189.313 487.15 188.32 487.15Z" fill="#FFD126"/>
<path d="M188.32 495.273H181.189C180.197 495.273 179.392 496.078 179.392 497.071V497.074C179.392 498.067 180.197 498.872 181.189 498.872H188.32C189.313 498.872 190.118 498.067 190.118 497.074V497.071C190.118 496.078 189.313 495.273 188.32 495.273Z" fill="#FFD126"/>
<path d="M188.32 503.396H181.189C180.197 503.396 179.392 504.201 179.392 505.194V505.197C179.392 506.19 180.197 506.995 181.189 506.995H188.32C189.313 506.995 190.118 506.19 190.118 505.197V505.194C190.118 504.201 189.313 503.396 188.32 503.396Z" fill="#FFD126"/>
<path d="M188.32 511.518H181.189C180.197 511.518 179.392 512.323 179.392 513.316V513.32C179.392 514.313 180.197 515.118 181.189 515.118H188.32C189.313 515.118 190.118 514.313 190.118 513.32V513.316C190.118 512.323 189.313 511.518 188.32 511.518Z" fill="#FFD126"/>
<path d="M188.32 519.641H181.189C180.197 519.641 179.392 520.446 179.392 521.439V521.443C179.392 522.436 180.197 523.241 181.189 523.241H188.32C189.313 523.241 190.118 522.436 190.118 521.443V521.439C190.118 520.446 189.313 519.641 188.32 519.641Z" fill="#FFD126"/>
</g>
<defs>
<linearGradient id="paint0_linear_378_2709" x1="78.6924" y1="447.701" x2="334.301" y2="447.701" gradientUnits="userSpaceOnUse">
<stop stop-color="#F1F4FE"/>
<stop offset="0.58" stop-color="#F7F9FE"/>
<stop offset="1" stop-color="white"/>
</linearGradient>
<linearGradient id="paint1_linear_378_2709" x1="18.6187" y1="281.224" x2="208.086" y2="281.224" gradientUnits="userSpaceOnUse">
<stop stop-color="#4CD9ED"/>
<stop offset="0.54" stop-color="#47A6EC"/>
<stop offset="1" stop-color="#437FEC"/>
</linearGradient>
<linearGradient id="paint2_linear_378_2709" x1="41.6274" y1="195.598" x2="93.8558" y2="195.598" gradientUnits="userSpaceOnUse">
<stop stop-color="#F0F3FA"/>
<stop offset="0.58" stop-color="#F7F9FC"/>
<stop offset="1" stop-color="white"/>
</linearGradient>
<linearGradient id="paint3_linear_378_2709" x1="1.3768" y1="151.788" x2="134.107" y2="151.788" gradientUnits="userSpaceOnUse">
<stop offset="0.17" stop-color="#437FEC"/>
<stop offset="0.47" stop-color="#336CD5"/>
<stop offset="1" stop-color="#184EAE"/>
</linearGradient>
<linearGradient id="paint4_linear_378_2709" x1="256.575" y1="572.761" x2="181.031" y2="572.761" gradientUnits="userSpaceOnUse">
<stop offset="0.17" stop-color="#437FEC"/>
<stop offset="0.47" stop-color="#336CD5"/>
<stop offset="1" stop-color="#184EAE"/>
</linearGradient>
<linearGradient id="paint5_linear_378_2709" x1="156.34" y1="243.379" x2="219.255" y2="243.379" gradientUnits="userSpaceOnUse">
<stop stop-color="#4CD9ED"/>
<stop offset="0.54" stop-color="#47A6EC"/>
<stop offset="1" stop-color="#437FEC"/>
</linearGradient>
<linearGradient id="paint6_linear_378_2709" x1="156.34" y1="227.511" x2="219.255" y2="227.511" gradientUnits="userSpaceOnUse">
<stop stop-color="#4CD9ED"/>
<stop offset="0.54" stop-color="#47A6EC"/>
<stop offset="1" stop-color="#437FEC"/>
</linearGradient>
<linearGradient id="paint7_linear_378_2709" x1="156.34" y1="211.646" x2="219.255" y2="211.646" gradientUnits="userSpaceOnUse">
<stop stop-color="#4CD9ED"/>
<stop offset="0.54" stop-color="#47A6EC"/>
<stop offset="1" stop-color="#437FEC"/>
</linearGradient>
<linearGradient id="paint8_linear_378_2709" x1="334.337" y1="458.869" x2="511.281" y2="458.869" gradientUnits="userSpaceOnUse">
<stop offset="0.17" stop-color="#437FEC"/>
<stop offset="0.47" stop-color="#336CD5"/>
<stop offset="1" stop-color="#184EAE"/>
</linearGradient>
<linearGradient id="paint9_linear_378_2709" x1="334.334" y1="458.869" x2="417.619" y2="458.869" gradientUnits="userSpaceOnUse">
<stop offset="0.17" stop-color="#437FEC"/>
<stop offset="0.47" stop-color="#336CD5"/>
<stop offset="1" stop-color="#184EAE"/>
</linearGradient>
<linearGradient id="paint10_linear_378_2709" x1="575.306" y1="505.28" x2="637.585" y2="505.28" gradientUnits="userSpaceOnUse">
<stop stop-color="#F0F3FA"/>
<stop offset="0.58" stop-color="#F7F9FC"/>
<stop offset="1" stop-color="white"/>
</linearGradient>
<linearGradient id="paint11_linear_378_2709" x1="424.411" y1="505.28" x2="588.129" y2="505.28" gradientUnits="userSpaceOnUse">
<stop stop-color="#F0F3FA"/>
<stop offset="0.58" stop-color="#F7F9FC"/>
<stop offset="1" stop-color="white"/>
</linearGradient>
<linearGradient id="paint12_linear_378_2709" x1="434.094" y1="505.28" x2="441.994" y2="505.28" gradientUnits="userSpaceOnUse">
<stop stop-color="#68C5DD"/>
<stop offset="0.54" stop-color="#53A2D9"/>
<stop offset="1" stop-color="#4E76B9"/>
</linearGradient>
<linearGradient id="paint13_linear_378_2709" x1="461.411" y1="505.28" x2="469.311" y2="505.28" gradientUnits="userSpaceOnUse">
<stop stop-color="#68C5DD"/>
<stop offset="0.54" stop-color="#53A2D9"/>
<stop offset="1" stop-color="#4E76B9"/>
</linearGradient>
<linearGradient id="paint14_linear_378_2709" x1="488.728" y1="505.28" x2="496.627" y2="505.28" gradientUnits="userSpaceOnUse">
<stop stop-color="#68C5DD"/>
<stop offset="0.54" stop-color="#53A2D9"/>
<stop offset="1" stop-color="#4E76B9"/>
</linearGradient>
<linearGradient id="paint15_linear_378_2709" x1="516.045" y1="505.28" x2="523.945" y2="505.28" gradientUnits="userSpaceOnUse">
<stop stop-color="#68C5DD"/>
<stop offset="0.54" stop-color="#53A2D9"/>
<stop offset="1" stop-color="#4E76B9"/>
</linearGradient>
<linearGradient id="paint16_linear_378_2709" x1="543.361" y1="505.28" x2="551.261" y2="505.28" gradientUnits="userSpaceOnUse">
<stop stop-color="#68C5DD"/>
<stop offset="0.54" stop-color="#53A2D9"/>
<stop offset="1" stop-color="#4E76B9"/>
</linearGradient>
<linearGradient id="paint17_linear_378_2709" x1="227.031" y1="486.358" x2="246.871" y2="494.989" gradientUnits="userSpaceOnUse">
<stop offset="0.17" stop-color="#4E76B9"/>
<stop offset="0.47" stop-color="#3C67AE"/>
<stop offset="1" stop-color="#25519E"/>
</linearGradient>
<linearGradient id="paint18_linear_378_2709" x1="216.882" y1="551.081" x2="222.545" y2="537.415" gradientUnits="userSpaceOnUse">
<stop stop-color="#68C5DD"/>
<stop offset="0.54" stop-color="#53A2D9"/>
<stop offset="1" stop-color="#4E76B9"/>
</linearGradient>
<linearGradient id="paint19_linear_378_2709" x1="243.202" y1="606.292" x2="238.363" y2="606.292" gradientUnits="userSpaceOnUse">
<stop stop-color="#F1F4FE"/>
<stop offset="0.58" stop-color="#F7F9FE"/>
<stop offset="1" stop-color="white"/>
</linearGradient>
<linearGradient id="paint20_linear_378_2709" x1="144.455" y1="418.206" x2="164.205" y2="411.911" gradientUnits="userSpaceOnUse">
<stop stop-color="#B2852E"/>
<stop offset="0.03" stop-color="#BD8F32"/>
<stop offset="0.12" stop-color="#DCAC3D"/>
<stop offset="0.18" stop-color="#E8B741"/>
<stop offset="0.36" stop-color="#DEAF43"/>
<stop offset="0.4" stop-color="#E0B34B"/>
<stop offset="0.46" stop-color="#E6C05F"/>
<stop offset="0.53" stop-color="#EFD481"/>
<stop offset="0.55" stop-color="#F2DB8D"/>
<stop offset="0.59" stop-color="#F9EBA8"/>
<stop offset="0.61" stop-color="#FCF0B2"/>
<stop offset="0.64" stop-color="#FEF5BA"/>
<stop offset="0.65" stop-color="#FEF5BA"/>
<stop offset="0.68" stop-color="#FAEFB3"/>
<stop offset="0.81" stop-color="#DAB966"/>
<stop offset="0.9" stop-color="#C29847"/>
<stop offset="0.94" stop-color="#BA8D3C"/>
<stop offset="0.95" stop-color="#BB8F3E"/>
<stop offset="0.98" stop-color="#C09544"/>
<stop offset="1" stop-color="#A87A1D"/>
</linearGradient>
<linearGradient id="paint21_linear_378_2709" x1="291.073" y1="489.466" x2="310.499" y2="505.612" gradientUnits="userSpaceOnUse">
<stop stop-color="#B2852E"/>
<stop offset="0.03" stop-color="#BD8F32"/>
<stop offset="0.12" stop-color="#DCAC3D"/>
<stop offset="0.18" stop-color="#E8B741"/>
<stop offset="0.36" stop-color="#DEAF43"/>
<stop offset="0.4" stop-color="#E0B34B"/>
<stop offset="0.46" stop-color="#E6C05F"/>
<stop offset="0.53" stop-color="#EFD481"/>
<stop offset="0.55" stop-color="#F2DB8D"/>
<stop offset="0.59" stop-color="#F9EBA8"/>
<stop offset="0.61" stop-color="#FCF0B2"/>
<stop offset="0.64" stop-color="#FEF5BA"/>
<stop offset="0.65" stop-color="#FEF5BA"/>
<stop offset="0.68" stop-color="#FAEFB3"/>
<stop offset="0.81" stop-color="#DAB966"/>
<stop offset="0.9" stop-color="#C29847"/>
<stop offset="0.94" stop-color="#BA8D3C"/>
<stop offset="0.95" stop-color="#BB8F3E"/>
<stop offset="0.98" stop-color="#C09544"/>
<stop offset="1" stop-color="#A87A1D"/>
</linearGradient>
<linearGradient id="paint22_linear_378_2709" x1="111.299" y1="521.878" x2="174.211" y2="521.878" gradientUnits="userSpaceOnUse">
<stop stop-color="#4CD9ED"/>
<stop offset="0.54" stop-color="#47A6EC"/>
<stop offset="1" stop-color="#437FEC"/>
</linearGradient>
<linearGradient id="paint23_linear_378_2709" x1="111.299" y1="506.013" x2="174.211" y2="506.013" gradientUnits="userSpaceOnUse">
<stop stop-color="#4CD9ED"/>
<stop offset="0.54" stop-color="#47A6EC"/>
<stop offset="1" stop-color="#437FEC"/>
</linearGradient>
<linearGradient id="paint24_linear_378_2709" x1="111.299" y1="490.145" x2="174.211" y2="490.145" gradientUnits="userSpaceOnUse">
<stop stop-color="#4CD9ED"/>
<stop offset="0.54" stop-color="#47A6EC"/>
<stop offset="1" stop-color="#437FEC"/>
</linearGradient>
<clipPath id="clip0_378_2709">
<rect width="639.326" height="716.43" fill="white" transform="translate(0.836914)"/>
</clipPath>
</defs>
</svg>
