<?xml version="1.0" encoding="utf-8"?>
<!-- Generator: Adobe Illustrator 27.4.0, SVG Export Plug-In . SVG Version: 6.00 Build 0)  -->
<svg version="1.1" id="Capa_1" xmlns="http://www.w3.org/2000/svg" xmlns:xlink="http://www.w3.org/1999/xlink" x="0px" y="0px"
	 viewBox="0 0 96 183" style="enable-background:new 0 0 96 183;" xml:space="preserve">
<style type="text/css">
	.st0{fill:none;}
	.st1{fill:url(#SVGID_1_);}
	
		.st2{fill:url(#SVGID_00000123402762781184182110000018367529810812443283_);stroke:#022791;stroke-width:1.0813;stroke-miterlimit:10;}
	.st3{fill:#FFFFFF;stroke:#022791;stroke-width:1.0813;stroke-miterlimit:10;}
	.st4{fill:none;stroke:#FFD126;stroke-width:2.5373;stroke-linecap:round;stroke-miterlimit:10;}
	.st5{fill:none;stroke:#FFD126;stroke-width:1.7516;stroke-linecap:round;stroke-miterlimit:10;}
	.st6{fill:#FFD125;}
	.st7{fill:#FFFFFF;stroke:#25377E;stroke-width:1.0813;stroke-miterlimit:10;}
	.st8{fill:none;stroke:#022791;stroke-miterlimit:10;}
</style>
<g>
	<path class="st0" d="M2.5,180c-1.3-1.3-2.1-3.2-2.1-5.1V8.4c0-1.9,0.8-3.7,2.1-5.1c1.3-1.3,3.2-2.1,5.1-2.1h88.2V0H-0.1v183h95.9
		v-0.9H7.6C5.7,182.1,3.8,181.4,2.5,180z"/>
	
		<linearGradient id="SVGID_1_" gradientUnits="userSpaceOnUse" x1="0.3883" y1="92.3504" x2="175.5028" y2="92.3504" gradientTransform="matrix(1 0 0 -1 0 184)">
		<stop  offset="0.17" style="stop-color:#437FEC"/>
		<stop  offset="0.47" style="stop-color:#336CD5"/>
		<stop  offset="1" style="stop-color:#184EAE"/>
	</linearGradient>
	<path class="st1" d="M7.6,1.2c-1.9,0-3.7,0.8-5.1,2.1C1.1,4.6,0.4,6.5,0.4,8.4v166.6c0,1.9,0.8,3.7,2.1,5.1s3.2,2.1,5.1,2.1h87.2
		V1.2H7.6z"/>
</g>
<g>
	
		<linearGradient id="SVGID_00000114056030840578976300000011728841599868031633_" gradientUnits="userSpaceOnUse" x1="0.662" y1="92.4058" x2="83.9722" y2="92.4058" gradientTransform="matrix(1 0 0 -1 0 184)">
		<stop  offset="0.17" style="stop-color:#437FEC"/>
		<stop  offset="0.47" style="stop-color:#336CD5"/>
		<stop  offset="1" style="stop-color:#184EAE"/>
	</linearGradient>
	
		<path style="fill:url(#SVGID_00000114056030840578976300000011728841599868031633_);stroke:#022791;stroke-width:1.0813;stroke-miterlimit:10;" d="
		M76.8,182.5H7.9c-1.9,0-3.7-0.8-5.1-2.1c-1.3-1.4-2.1-3.2-2.1-5.1V7.9c0-1.9,0.8-3.8,2.1-5.1c1.3-1.4,3.2-2.1,5.1-2.1h70.7
		c4,0,5.4,3.2,5.4,7.2v167.4c0,1.9-0.8,3.7-2.1,5.1C80.5,181.7,78.7,182.5,76.8,182.5z"/>
	<path class="st3" d="M59.5,19.1H17.3c-1.9,0-3.4,1.5-3.4,3.4v21.2c0,1.9,1.5,3.4,3.4,3.4h42.2c1.9,0,3.4-1.5,3.4-3.4V22.6
		C62.9,20.7,61.4,19.1,59.5,19.1z"/>
	<path class="st4" d="M17.7,36l9.2-6.3c1.1-0.6,2.4-0.9,3.6-0.7c1.2,0.2,2.4,0.8,3.2,1.8l4.6,5.2c0.8,1,2,1.6,3.3,1.8s2.5,0,3.6-0.7
		l14.1-8.3"/>
	<path class="st5" d="M47.6,117.6c0,4.2-1.7,8.3-4.6,11.2c-3,3-7,4.7-11.2,4.7c-8.7,0-14-7.1-14-15.9c0-8.8,5.3-15.9,14-15.9
		c4.2,0,8.2,1.7,11.2,4.7C45.9,109.4,47.6,113.4,47.6,117.6z"/>
	<path class="st6" d="M43.6,117.6c0,3.1-1.2,6.2-3.5,8.4c-2.2,2.2-5.2,3.5-8.4,3.5c-6.5,0-10-5.3-10-11.9c0-6.6,3.5-11.9,10-11.9
		c3.1,0,6.1,1.3,8.4,3.5C42.3,111.5,43.6,114.5,43.6,117.6z"/>
	<path class="st6" d="M59.5,112c1.9,0,3.4-1.6,3.4-3.5c0-1.9-1.5-3.5-3.4-3.5s-3.4,1.6-3.4,3.5C56,110.4,57.5,112,59.5,112z"/>
	<path class="st6" d="M59.5,122.1c1.9,0,3.4-1.6,3.4-3.5c0-1.9-1.5-3.5-3.4-3.5s-3.4,1.6-3.4,3.5C56,120.6,57.5,122.1,59.5,122.1z"
		/>
	<path class="st6" d="M59.5,132.3c1.9,0,3.4-1.6,3.4-3.5c0-1.9-1.5-3.5-3.4-3.5s-3.4,1.6-3.4,3.5C56,130.7,57.5,132.3,59.5,132.3z"
		/>
	<path class="st7" d="M10.1,166.4h2.7c0.5,0,1,0.2,1.4,0.6c0.4,0.4,0.6,0.9,0.6,1.4v14.1H8.1v-14.1c0-0.5,0.2-1,0.6-1.4
		C9,166.6,9.5,166.4,10.1,166.4z"/>
	<path class="st7" d="M20.9,166.4h0.9c0.5,0,1,0.2,1.4,0.6c0.4,0.4,0.6,0.9,0.6,1.4v14.1H19v-14.1c0-0.3,0.1-0.5,0.2-0.8
		c0.1-0.2,0.2-0.5,0.4-0.6c0.2-0.2,0.4-0.3,0.6-0.4C20.4,166.4,20.7,166.4,20.9,166.4z"/>
	<path class="st7" d="M28.2,166.4h2.7c0.5,0,1,0.2,1.4,0.6c0.4,0.4,0.6,0.9,0.6,1.4v14.1h-6.6v-14.1c0-0.3,0.1-0.5,0.2-0.8
		c0.1-0.2,0.2-0.5,0.4-0.6c0.2-0.2,0.4-0.3,0.6-0.4C27.7,166.4,28,166.4,28.2,166.4z"/>
</g>
<line class="st8" x1="78.3" y1="182.6" x2="95.6" y2="182.6"/>
<line class="st8" x1="77.6" y1="0.8" x2="94.9" y2="0.8"/>
</svg>
