<?xml version="1.0" encoding="utf-8"?>
<!-- Generator: Adobe Illustrator 27.4.0, SVG Export Plug-In . SVG Version: 6.00 Build 0)  -->
<svg version="1.1" id="Capa_1" xmlns="http://www.w3.org/2000/svg" xmlns:xlink="http://www.w3.org/1999/xlink" x="0px" y="0px"
	 viewBox="0 0 641 717" style="enable-background:new 0 0 641 717;" xml:space="preserve">
<style type="text/css">
	.st0{clip-path:url(#SVGID_00000003075827724776484970000008874881164997255596_);}
	
		.st1{fill:url(#SVGID_00000019653807282483437580000005781964259865778817_);stroke:#022791;stroke-width:1.0787;stroke-miterlimit:10;}
	
		.st2{fill:url(#SVGID_00000175288679166942477680000007808058189578592912_);stroke:#022791;stroke-width:1.0787;stroke-miterlimit:10;}
	.st3{fill:#25377E;}
	.st4{fill:#FFFFFF;}
	.st5{fill:#FFD126;}
	
		.st6{fill:url(#SVGID_00000066473449307221317360000014077100977536253374_);stroke:#022791;stroke-width:1.0787;stroke-miterlimit:10;}
	
		.st7{fill:url(#SVGID_00000165207362007690651630000012715050243810218381_);stroke:#022791;stroke-width:1.0787;stroke-miterlimit:10;}
	.st8{fill:none;stroke:#022791;stroke-width:1.0787;stroke-linecap:round;stroke-miterlimit:10;}
	
		.st9{fill:url(#SVGID_00000174586249727542459780000007192940319469129141_);stroke:#022791;stroke-width:1.0787;stroke-miterlimit:10;}
	.st10{fill:none;stroke:#022791;stroke-width:1.0787;stroke-miterlimit:10;}
	.st11{fill:#E3E7F5;}
	.st12{fill:url(#SVGID_00000079468487056481765190000007520434726302903743_);}
	.st13{fill:url(#SVGID_00000083069220702483249790000006685527598285521298_);}
	.st14{fill:url(#SVGID_00000128454040858098772180000015984254441529678506_);}
	
		.st15{fill:url(#SVGID_00000022532948354858733890000004251009160993332379_);stroke:#022791;stroke-width:1.0787;stroke-miterlimit:10;}
	.st16{fill:#022791;}
	
		.st17{fill:url(#SVGID_00000097502060246246370260000001878550099134806959_);stroke:#022791;stroke-width:1.0787;stroke-miterlimit:10;}
	
		.st18{fill:url(#SVGID_00000122001666756307126410000009002820215505310878_);stroke:#022791;stroke-width:1.0787;stroke-miterlimit:10;}
	.st19{fill:url(#SVGID_00000178163822726124997580000007193884337609844134_);}
	.st20{fill:url(#SVGID_00000059306935791577742610000015912384263232804492_);}
	.st21{fill:url(#SVGID_00000162332303984841687940000011213848598797723305_);}
	.st22{fill:url(#SVGID_00000140725891477879485860000007599895505125750163_);}
	.st23{fill:url(#SVGID_00000144295672021092892680000017140062525019420059_);}
	.st24{fill-rule:evenodd;clip-rule:evenodd;fill:url(#SVGID_00000160869698849335087440000001359257645595457152_);}
	.st25{fill-rule:evenodd;clip-rule:evenodd;fill:#2F53A0;}
	.st26{fill-rule:evenodd;clip-rule:evenodd;fill:url(#SVGID_00000163794245934423252040000014600478505875900055_);}
	.st27{fill:none;stroke:#25377E;stroke-width:1.0787;stroke-linecap:round;stroke-miterlimit:10;}
	.st28{fill:#96D4EB;}
	.st29{fill-rule:evenodd;clip-rule:evenodd;fill:#C6CADB;}
	.st30{fill:url(#SVGID_00000024691464964764833530000012715765684300097960_);}
	.st31{fill:#FDFDFD;}
	.st32{fill:url(#SVGID_00000017480062450170423460000006134889250619455373_);}
	.st33{fill:#022791;stroke:#022791;stroke-width:0.3596;stroke-miterlimit:10;}
	.st34{fill:url(#SVGID_00000045582671967541156670000017003185018021561741_);}
	.st35{fill:#D6D6D6;}
	.st36{fill:#022791;stroke:#022791;stroke-width:0.4674;stroke-miterlimit:10;}
	.st37{fill:url(#SVGID_00000091017404056309133590000000654483772702678453_);}
	.st38{fill:url(#SVGID_00000103957605878290402720000006634273168784691384_);}
	.st39{fill:url(#SVGID_00000064318514811053114110000003299632341604945039_);}
</style>
<g>
	<defs>
		<rect id="SVGID_1_" x="0.8" width="639.3" height="716.4"/>
	</defs>
	<clipPath id="SVGID_00000095316340228303729850000014252410657776004274_">
		<use xlink:href="#SVGID_1_"  style="overflow:visible;"/>
	</clipPath>
	<g style="clip-path:url(#SVGID_00000095316340228303729850000014252410657776004274_);">
		
			<linearGradient id="SVGID_00000106826093719097050310000011822378409914208664_" gradientUnits="userSpaceOnUse" x1="78.6924" y1="270.294" x2="334.301" y2="270.294" gradientTransform="matrix(1 0 0 -1 0 718)">
			<stop  offset="0" style="stop-color:#F1F4FE"/>
			<stop  offset="0.58" style="stop-color:#F7F9FE"/>
			<stop  offset="1" style="stop-color:#FFFFFF"/>
		</linearGradient>
		
			<path style="fill:url(#SVGID_00000106826093719097050310000011822378409914208664_);stroke:#022791;stroke-width:1.0787;stroke-miterlimit:10;" d="
			M334.3,462.3H219.6c-0.5,0-1-0.1-1.5-0.3c-0.5-0.2-0.9-0.5-1.3-0.9c-0.4-0.4-0.7-0.8-0.9-1.3c-0.2-0.5-0.3-1-0.3-1.5v-60.9
			c0-2.7-1.1-5.3-3-7.2c-1.9-1.9-4.5-3-7.2-3H135c-1.1,0-2.1-0.4-2.8-1.2c-0.8-0.8-1.2-1.8-1.2-2.8v-44.7H78.7v90.8
			c0,1.3,0.3,2.7,0.8,3.9c0.5,1.2,1.3,2.4,2.2,3.3c1,1,2.1,1.7,3.3,2.2s2.6,0.8,3.9,0.8h70.3c0.6,0,1.1,0.1,1.6,0.3
			c0.5,0.2,1,0.5,1.4,0.9c0.4,0.4,0.7,0.9,0.9,1.4c0.2,0.5,0.3,1.1,0.3,1.6v60.6c0,1.3,0.3,2.7,0.8,3.9c0.5,1.2,1.3,2.4,2.2,3.3
			c0.9,1,2.1,1.7,3.3,2.2c1.2,0.5,2.6,0.8,3.9,0.8h20.5V557h49.3v-42.5h90.8V462.3z"/>
		
			<linearGradient id="SVGID_00000016765232448667529680000017062993159693881990_" gradientUnits="userSpaceOnUse" x1="18.6187" y1="436.7755" x2="208.086" y2="436.7755" gradientTransform="matrix(1 0 0 -1 0 718)">
			<stop  offset="0" style="stop-color:#4CD9ED"/>
			<stop  offset="0.54" style="stop-color:#47A6EC"/>
			<stop  offset="1" style="stop-color:#437FEC"/>
		</linearGradient>
		
			<path style="fill:url(#SVGID_00000016765232448667529680000017062993159693881990_);stroke:#022791;stroke-width:1.0787;stroke-miterlimit:10;" d="
			M202.4,224H24.3c-3.1,0-5.7,2.5-5.7,5.7v103c0,3.1,2.5,5.7,5.7,5.7h178.1c3.1,0,5.7-2.5,5.7-5.7v-103
			C208.1,226.6,205.5,224,202.4,224z"/>
		<path class="st3" d="M179,268.9H46.6c-2,0-3.7,1.6-3.7,3.7v40.4c0,2,1.6,3.7,3.7,3.7H179c2,0,3.7-1.6,3.7-3.7v-40.4
			C182.7,270.5,181.1,268.9,179,268.9z"/>
		<path class="st4" d="M171.4,279.5H56c-0.7,0-1.2,0.6-1.2,1.2s0.6,1.2,1.2,1.2h115.5c0.7,0,1.2-0.6,1.2-1.2
			S172.1,279.5,171.4,279.5z"/>
		<path class="st5" d="M73.2,286.2c3,0,5.5-2.5,5.5-5.5c0-3-2.5-5.5-5.5-5.5c-3,0-5.5,2.5-5.5,5.5C67.7,283.8,70.2,286.2,73.2,286.2
			z"/>
		<path class="st4" d="M171.4,291.5H56c-0.7,0-1.2,0.6-1.2,1.2c0,0.7,0.6,1.2,1.2,1.2h115.5c0.7,0,1.2-0.6,1.2-1.2
			C172.7,292,172.1,291.5,171.4,291.5z"/>
		<path class="st5" d="M156.3,298.2c3,0,5.5-2.5,5.5-5.5c0-3-2.5-5.5-5.5-5.5c-3,0-5.5,2.5-5.5,5.5
			C150.9,295.8,153.3,298.2,156.3,298.2z"/>
		<path class="st4" d="M171.4,303.5H56c-0.7,0-1.2,0.6-1.2,1.2c0,0.7,0.6,1.2,1.2,1.2h115.5c0.7,0,1.2-0.6,1.2-1.2
			C172.7,304,172.1,303.5,171.4,303.5z"/>
		<path class="st5" d="M99.3,310.2c3,0,5.5-2.5,5.5-5.5c0-3-2.5-5.5-5.5-5.5c-3,0-5.5,2.5-5.5,5.5C93.8,307.8,96.3,310.2,99.3,310.2
			z"/>
		
			<linearGradient id="SVGID_00000112632217522111404230000007492883523644301754_" gradientUnits="userSpaceOnUse" x1="41.6274" y1="522.4015" x2="93.8522" y2="522.4015" gradientTransform="matrix(1 0 0 -1 0 718)">
			<stop  offset="0" style="stop-color:#F0F3FA"/>
			<stop  offset="0.58" style="stop-color:#F7F9FC"/>
			<stop  offset="1" style="stop-color:#FFFFFF"/>
		</linearGradient>
		
			<path style="fill:url(#SVGID_00000112632217522111404230000007492883523644301754_);stroke:#022791;stroke-width:1.0787;stroke-miterlimit:10;" d="
			M93.9,167.2H41.6V224h52.2V167.2z"/>
		
			<linearGradient id="SVGID_00000117674712525871461400000000383344514587213454_" gradientUnits="userSpaceOnUse" x1="1.3779" y1="566.205" x2="134.1052" y2="566.205" gradientTransform="matrix(1 0 0 -1 0 718)">
			<stop  offset="0.17" style="stop-color:#437FEC"/>
			<stop  offset="0.47" style="stop-color:#336CD5"/>
			<stop  offset="1" style="stop-color:#184EAE"/>
		</linearGradient>
		
			<path style="fill:url(#SVGID_00000117674712525871461400000000383344514587213454_);stroke:#022791;stroke-width:1.0787;stroke-miterlimit:10;" d="
			M104.5,179.7H31c-4.7,0-9.3-1.6-13-4.5c-3.7-2.9-6.4-6.9-7.5-11.5l-8.9-35c-0.1-0.6-0.2-1.2,0-1.7c0.1-0.6,0.4-1.1,0.7-1.6
			c0.4-0.5,0.8-0.8,1.4-1.1c0.5-0.3,1.1-0.4,1.7-0.4h125c0.6,0,1.2,0.1,1.7,0.4c0.5,0.3,1,0.6,1.4,1.1c0.4,0.5,0.6,1,0.7,1.6
			c0.1,0.6,0.1,1.2,0,1.7l-8.9,35c-1.2,4.6-3.8,8.6-7.5,11.5C113.8,178.1,109.2,179.7,104.5,179.7z"/>
		<path class="st8" d="M3.6,137.1h47.5"/>
		<path class="st8" d="M37.1,148h47.5"/>
		<path class="st8" d="M65.4,137.1h66"/>
		
			<linearGradient id="SVGID_00000099641563638953939790000013395932533615900592_" gradientUnits="userSpaceOnUse" x1="256.5637" y1="145.242" x2="181.0343" y2="145.242" gradientTransform="matrix(1 0 0 -1 0 718)">
			<stop  offset="0.17" style="stop-color:#437FEC"/>
			<stop  offset="0.47" style="stop-color:#336CD5"/>
			<stop  offset="1" style="stop-color:#184EAE"/>
		</linearGradient>
		
			<path style="fill:url(#SVGID_00000099641563638953939790000013395932533615900592_);stroke:#022791;stroke-width:1.0787;stroke-miterlimit:10;" d="
			M192.1,556.9h53.5c1,0,2,0.3,2.8,1c0.8,0.6,1.4,1.5,1.6,2.5l6.5,25.6c0.1,0.3,0.1,0.7,0,1c-0.1,0.3-0.2,0.6-0.4,0.9
			c-0.2,0.3-0.5,0.5-0.8,0.6c-0.3,0.1-0.6,0.2-1,0.2h-71.1c-0.3,0-0.7-0.1-1-0.2c-0.3-0.1-0.6-0.4-0.8-0.6c-0.2-0.3-0.3-0.6-0.4-0.9
			c-0.1-0.3-0.1-0.7,0-1l6.5-25.6c0.3-1,0.8-1.9,1.6-2.5C190.1,557.2,191,556.9,192.1,556.9z"/>
		<path class="st8" d="M255.3,581.2h-27"/>
		<path class="st8" d="M236.2,575h-27"/>
		<path class="st8" d="M220.2,581.2h-37.5"/>
		<path class="st10" d="M244.3,205.8h18.2v45.5h-18.2"/>
		<path class="st11" d="M240.2,195.6h-87c-2.3,0-4.2,1.9-4.2,4.1v54.1c0,2.3,1.9,4.1,4.2,4.1h87c2.3,0,4.1-1.9,4.1-4.1v-54.1
			C244.3,197.5,242.5,195.6,240.2,195.6z"/>
		
			<linearGradient id="SVGID_00000115511020534691076960000010062576699108431537_" gradientUnits="userSpaceOnUse" x1="156.34" y1="474.6245" x2="219.255" y2="474.6245" gradientTransform="matrix(1 0 0 -1 0 718)">
			<stop  offset="0" style="stop-color:#4CD9ED"/>
			<stop  offset="0.54" style="stop-color:#47A6EC"/>
			<stop  offset="1" style="stop-color:#437FEC"/>
		</linearGradient>
		<path style="fill:url(#SVGID_00000115511020534691076960000010062576699108431537_);" d="M213.2,237.4h-50.9c-3.3,0-6,2.7-6,6
			c0,3.3,2.7,6,6,6h50.9c3.3,0,6-2.7,6-6C219.3,240,216.6,237.4,213.2,237.4z"/>
		
			<linearGradient id="SVGID_00000089532502313157879730000002345246420157252267_" gradientUnits="userSpaceOnUse" x1="156.34" y1="490.489" x2="219.255" y2="490.489" gradientTransform="matrix(1 0 0 -1 0 718)">
			<stop  offset="0" style="stop-color:#4CD9ED"/>
			<stop  offset="0.54" style="stop-color:#47A6EC"/>
			<stop  offset="1" style="stop-color:#437FEC"/>
		</linearGradient>
		<path style="fill:url(#SVGID_00000089532502313157879730000002345246420157252267_);" d="M213.2,221.5h-50.9c-3.3,0-6,2.7-6,6
			s2.7,6,6,6h50.9c3.3,0,6-2.7,6-6S216.6,221.5,213.2,221.5z"/>
		
			<linearGradient id="SVGID_00000110467064499054870050000010033965315341450113_" gradientUnits="userSpaceOnUse" x1="156.34" y1="506.3535" x2="219.255" y2="506.3535" gradientTransform="matrix(1 0 0 -1 0 718)">
			<stop  offset="0" style="stop-color:#4CD9ED"/>
			<stop  offset="0.54" style="stop-color:#47A6EC"/>
			<stop  offset="1" style="stop-color:#437FEC"/>
		</linearGradient>
		<path style="fill:url(#SVGID_00000110467064499054870050000010033965315341450113_);" d="M213.2,205.6h-50.9c-3.3,0-6,2.7-6,6
			c0,3.3,2.7,6,6,6h50.9c3.3,0,6-2.7,6-6C219.3,208.3,216.6,205.6,213.2,205.6z"/>
		<path class="st5" d="M233.4,208.6h-7.1c-1,0-1.8,0.8-1.8,1.8v0c0,1,0.8,1.8,1.8,1.8h7.1c1,0,1.8-0.8,1.8-1.8v0
			C235.2,209.5,234.4,208.6,233.4,208.6z"/>
		<path class="st5" d="M233.4,216.8h-7.1c-1,0-1.8,0.8-1.8,1.8v0c0,1,0.8,1.8,1.8,1.8h7.1c1,0,1.8-0.8,1.8-1.8v0
			C235.2,217.6,234.4,216.8,233.4,216.8z"/>
		<path class="st5" d="M233.4,224.9h-7.1c-1,0-1.8,0.8-1.8,1.8v0c0,1,0.8,1.8,1.8,1.8h7.1c1,0,1.8-0.8,1.8-1.8v0
			C235.2,225.7,234.4,224.9,233.4,224.9z"/>
		<path class="st5" d="M233.4,233h-7.1c-1,0-1.8,0.8-1.8,1.8v0c0,1,0.8,1.8,1.8,1.8h7.1c1,0,1.8-0.8,1.8-1.8v0
			C235.2,233.8,234.4,233,233.4,233z"/>
		<path class="st5" d="M233.4,241.1h-7.1c-1,0-1.8,0.8-1.8,1.8v0c0,1,0.8,1.8,1.8,1.8h7.1c1,0,1.8-0.8,1.8-1.8v0
			C235.2,241.9,234.4,241.1,233.4,241.1z"/>
		
			<linearGradient id="SVGID_00000075151679658458862750000000838516970685957775_" gradientUnits="userSpaceOnUse" x1="334.323" y1="259.14" x2="511.292" y2="259.14" gradientTransform="matrix(1 0 0 -1 0 718)">
			<stop  offset="0.17" style="stop-color:#437FEC"/>
			<stop  offset="0.47" style="stop-color:#336CD5"/>
			<stop  offset="1" style="stop-color:#184EAE"/>
		</linearGradient>
		
			<path style="fill:url(#SVGID_00000075151679658458862750000000838516970685957775_);stroke:#022791;stroke-width:1.0787;stroke-miterlimit:10;" d="
			M502.4,549.3H341.5c-1.9,0-3.7-0.8-5.1-2.1c-1.3-1.3-2.1-3.2-2.1-5.1V375.6c0-1.9,0.8-3.7,2.1-5.1c1.3-1.3,3.2-2.1,5.1-2.1h162.7
			c4.9,0,7,4,7,8.8v163.2c0,1.2-0.2,2.3-0.7,3.4c-0.4,1.1-1.1,2.1-1.9,2.9c-0.8,0.8-1.8,1.5-2.9,1.9
			C504.8,549.1,503.6,549.3,502.4,549.3z"/>
		<path class="st16" d="M495.6,396.4h-79.6c-1.6,0-2.9,1.3-2.9,2.9v110.4c0,1.6,1.3,2.9,2.9,2.9h79.6c1.6,0,2.9-1.3,2.9-2.9V399.2
			C498.4,397.7,497.1,396.4,495.6,396.4z"/>
		
			<linearGradient id="SVGID_00000165224441522148713320000018186833753561446301_" gradientUnits="userSpaceOnUse" x1="575.306" y1="212.722" x2="637.585" y2="212.722" gradientTransform="matrix(1 0 0 -1 0 718)">
			<stop  offset="0" style="stop-color:#F0F3FA"/>
			<stop  offset="0.58" style="stop-color:#F7F9FC"/>
			<stop  offset="1" style="stop-color:#FFFFFF"/>
		</linearGradient>
		
			<path style="fill:url(#SVGID_00000165224441522148713320000018186833753561446301_);stroke:#022791;stroke-width:1.0787;stroke-miterlimit:10;" d="
			M575.3,496.1h53.1c2.4,0,4.8,1,6.5,2.7c1.7,1.7,2.7,4.1,2.7,6.5s-1,4.8-2.7,6.5c-1.7,1.7-4.1,2.7-6.5,2.7h-53.1V496.1L575.3,496.1
			z"/>
		
			<linearGradient id="SVGID_00000164472224315229818020000017530584756424491709_" gradientUnits="userSpaceOnUse" x1="413.5948" y1="212.722" x2="588.133" y2="212.722" gradientTransform="matrix(1 0 0 -1 0 718)">
			<stop  offset="0" style="stop-color:#F0F3FA"/>
			<stop  offset="0.58" style="stop-color:#F7F9FC"/>
			<stop  offset="1" style="stop-color:#FFFFFF"/>
		</linearGradient>
		
			<path style="fill:url(#SVGID_00000164472224315229818020000017530584756424491709_);stroke:#022791;stroke-width:1.0787;stroke-miterlimit:10;" d="
			M413.6,496.1h165.3c2.4,0,4.8,1,6.5,2.7c1.7,1.7,2.7,4.1,2.7,6.5s-1,4.8-2.7,6.5c-1.7,1.7-4.1,2.7-6.5,2.7H413.6V496.1
			L413.6,496.1z"/>
		
			<linearGradient id="SVGID_00000037668331240514875950000004469877621332101779_" gradientUnits="userSpaceOnUse" x1="434.094" y1="212.72" x2="441.99" y2="212.72" gradientTransform="matrix(1 0 0 -1 0 718)">
			<stop  offset="0" style="stop-color:#68C5DD"/>
			<stop  offset="0.54" style="stop-color:#53A2D9"/>
			<stop  offset="1" style="stop-color:#4E76B9"/>
		</linearGradient>
		<path style="fill:url(#SVGID_00000037668331240514875950000004469877621332101779_);" d="M438,509.2c2.2,0,3.9-1.8,3.9-3.9
			c0-2.2-1.8-3.9-3.9-3.9c-2.2,0-3.9,1.8-3.9,3.9C434.1,507.5,435.9,509.2,438,509.2z"/>
		
			<linearGradient id="SVGID_00000164492699846195134120000014220173513192039818_" gradientUnits="userSpaceOnUse" x1="461.411" y1="212.72" x2="469.307" y2="212.72" gradientTransform="matrix(1 0 0 -1 0 718)">
			<stop  offset="0" style="stop-color:#68C5DD"/>
			<stop  offset="0.54" style="stop-color:#53A2D9"/>
			<stop  offset="1" style="stop-color:#4E76B9"/>
		</linearGradient>
		<path style="fill:url(#SVGID_00000164492699846195134120000014220173513192039818_);" d="M465.4,509.2c2.2,0,3.9-1.8,3.9-3.9
			c0-2.2-1.8-3.9-3.9-3.9c-2.2,0-3.9,1.8-3.9,3.9C461.4,507.5,463.2,509.2,465.4,509.2z"/>
		
			<linearGradient id="SVGID_00000089552259272355921350000016707922525693228985_" gradientUnits="userSpaceOnUse" x1="488.728" y1="212.72" x2="496.624" y2="212.72" gradientTransform="matrix(1 0 0 -1 0 718)">
			<stop  offset="0" style="stop-color:#68C5DD"/>
			<stop  offset="0.54" style="stop-color:#53A2D9"/>
			<stop  offset="1" style="stop-color:#4E76B9"/>
		</linearGradient>
		<path style="fill:url(#SVGID_00000089552259272355921350000016707922525693228985_);" d="M492.7,509.2c2.2,0,3.9-1.8,3.9-3.9
			c0-2.2-1.8-3.9-3.9-3.9c-2.2,0-3.9,1.8-3.9,3.9C488.7,507.5,490.5,509.2,492.7,509.2z"/>
		
			<linearGradient id="SVGID_00000163771115318924667530000011959734077346019501_" gradientUnits="userSpaceOnUse" x1="516.045" y1="212.72" x2="523.941" y2="212.72" gradientTransform="matrix(1 0 0 -1 0 718)">
			<stop  offset="0" style="stop-color:#68C5DD"/>
			<stop  offset="0.54" style="stop-color:#53A2D9"/>
			<stop  offset="1" style="stop-color:#4E76B9"/>
		</linearGradient>
		<path style="fill:url(#SVGID_00000163771115318924667530000011959734077346019501_);" d="M520,509.2c2.2,0,3.9-1.8,3.9-3.9
			c0-2.2-1.8-3.9-3.9-3.9c-2.2,0-3.9,1.8-3.9,3.9C516,507.5,517.8,509.2,520,509.2z"/>
		
			<linearGradient id="SVGID_00000052074745483148921340000012392349773689585286_" gradientUnits="userSpaceOnUse" x1="543.361" y1="212.72" x2="551.258" y2="212.72" gradientTransform="matrix(1 0 0 -1 0 718)">
			<stop  offset="0" style="stop-color:#68C5DD"/>
			<stop  offset="0.54" style="stop-color:#53A2D9"/>
			<stop  offset="1" style="stop-color:#4E76B9"/>
		</linearGradient>
		<path style="fill:url(#SVGID_00000052074745483148921340000012392349773689585286_);" d="M547.3,509.2c2.2,0,3.9-1.8,3.9-3.9
			c0-2.2-1.8-3.9-3.9-3.9c-2.2,0-3.9,1.8-3.9,3.9C543.4,507.5,545.1,509.2,547.3,509.2z"/>
		
			<linearGradient id="SVGID_00000107546162855782255880000017818964951767398551_" gradientUnits="userSpaceOnUse" x1="227.0192" y1="231.6205" x2="246.8618" y2="222.9884" gradientTransform="matrix(1 0 0 -1 0 718)">
			<stop  offset="0.17" style="stop-color:#4E76B9"/>
			<stop  offset="0.47" style="stop-color:#3C67AE"/>
			<stop  offset="1" style="stop-color:#25519E"/>
		</linearGradient>
		<path style="fill-rule:evenodd;clip-rule:evenodd;fill:url(#SVGID_00000107546162855782255880000017818964951767398551_);" d="
			M241.7,486.5l-5.2-6.1c0,0-0.1-0.1-0.1-0.1c0,0-0.1,0-0.2,0c-0.1,0-0.1,0-0.2,0c-0.1,0-0.1,0-0.1,0.1l-9.8,8.3
			c-0.1,0.1-0.1,0.2-0.1,0.3c0,0.1,0,0.2,0.1,0.3l10.9,12.9c0.1,0.1,0.2,0.1,0.3,0.1c0.1,0,0.2,0,0.3-0.1l9.8-8.3
			c0.1-0.1,0.1-0.2,0.1-0.3c0-0.1,0-0.2-0.1-0.3l-5.2-6.1l1.1-0.9c0.4,0.3,0.8,0.4,1.3,0.4c0.5,0,0.9-0.2,1.3-0.5
			c0.4-0.4,0.6-0.8,0.7-1.4c0-0.5-0.1-1-0.5-1.4c-0.3-0.4-0.8-0.7-1.3-0.7c-0.5-0.1-1,0.1-1.4,0.4c-0.4,0.3-0.6,0.7-0.7,1.2
			c-0.1,0.5,0,0.9,0.2,1.3L241.7,486.5z M234.3,491.1l2.1,2.5c0.2,0.2,0.2,0.5,0.2,0.8c0,0.3-0.2,0.6-0.4,0.8s-0.5,0.3-0.8,0.3
			c-0.3,0-0.6-0.1-0.8-0.3l-2.1-2.5c-0.2-0.2-0.3-0.6-0.3-0.9c0-0.3,0.2-0.6,0.4-0.8c0.2-0.2,0.6-0.3,0.9-0.3
			C233.8,490.7,234.1,490.9,234.3,491.1L234.3,491.1z M236.7,487.9c-0.3,0.2-0.6,0.4-0.9,0.4c-0.3,0-0.7,0-1-0.2
			c-0.3-0.2-0.6-0.4-0.7-0.7c-0.2-0.3-0.2-0.7-0.2-1c0-0.3,0.2-0.7,0.4-1c0.2-0.3,0.5-0.5,0.8-0.6c0.3-0.1,0.7-0.1,1,0
			c0.3,0.1,0.6,0.3,0.9,0.6c0.2,0.2,0.3,0.4,0.3,0.6c0.1,0.2,0.1,0.5,0.1,0.7c0,0.2-0.1,0.5-0.2,0.7S236.9,487.8,236.7,487.9
			L236.7,487.9z M242.3,494.4c-0.3,0.2-0.6,0.4-0.9,0.4c-0.3,0-0.7,0-1-0.2c-0.3-0.2-0.6-0.4-0.7-0.7c-0.2-0.3-0.2-0.7-0.2-1
			c0-0.3,0.2-0.7,0.4-1c0.2-0.3,0.5-0.5,0.8-0.6c0.3-0.1,0.7-0.1,1,0c0.3,0.1,0.6,0.3,0.9,0.6c0.2,0.2,0.3,0.4,0.3,0.6
			c0.1,0.2,0.1,0.5,0.1,0.7s-0.1,0.5-0.2,0.7S242.4,494.3,242.3,494.4L242.3,494.4z"/>
		<path class="st25" d="M232.4,481.7l0.3,0.3l-4.3,3.6l-0.3-0.3c-0.3-0.3-0.4-0.7-0.4-1.2c0-0.4,0.2-0.8,0.6-1.1l1.8-1.5
			c0.3-0.3,0.7-0.4,1.2-0.4C231.7,481.2,232.1,481.4,232.4,481.7L232.4,481.7z"/>
		<path class="st25" d="M245.1,496.8l0.3,0.3c0.3,0.3,0.4,0.8,0.4,1.2c0,0.4-0.2,0.8-0.6,1.1l-1.8,1.5c-0.3,0.3-0.7,0.4-1.2,0.4
			c-0.4,0-0.8-0.2-1.1-0.6l-0.3-0.3L245.1,496.8z"/>
		
			<linearGradient id="SVGID_00000082336018399624226750000006687290770642626688_" gradientUnits="userSpaceOnUse" x1="216.9433" y1="166.8936" x2="222.6056" y2="180.5581" gradientTransform="matrix(1 0 0 -1 0 718)">
			<stop  offset="0" style="stop-color:#68C5DD"/>
			<stop  offset="0.54" style="stop-color:#53A2D9"/>
			<stop  offset="1" style="stop-color:#4E76B9"/>
		</linearGradient>
		<path style="fill-rule:evenodd;clip-rule:evenodd;fill:url(#SVGID_00000082336018399624226750000006687290770642626688_);" d="
			M217,541.1l-4.1,3.6c0,0-0.1,0.1-0.1,0.1c0,0,0,0.1,0,0.1c0,0,0,0.1,0,0.1c0,0,0,0.1,0.1,0.1l5.8,6.6c0,0.1,0.1,0.1,0.2,0.1
			c0.1,0,0.1,0,0.2-0.1l8.7-7.6c0.1,0,0.1-0.1,0.1-0.2c0-0.1,0-0.1-0.1-0.2l-5.8-6.6c0-0.1-0.1-0.1-0.2-0.1c-0.1,0-0.1,0-0.2,0.1
			l-4.1,3.6l-0.6-0.7c0.2-0.2,0.3-0.6,0.3-0.9c0-0.3-0.1-0.6-0.3-0.9c-0.1-0.2-0.3-0.3-0.4-0.4c-0.2-0.1-0.3-0.2-0.5-0.2
			c-0.2,0-0.4,0-0.6,0.1c-0.2,0.1-0.3,0.2-0.5,0.3c-0.1,0.1-0.3,0.3-0.3,0.5c-0.1,0.2-0.1,0.4-0.1,0.5c0,0.2,0,0.4,0.1,0.6
			c0.1,0.2,0.2,0.3,0.3,0.5c0.2,0.2,0.5,0.4,0.8,0.5c0.3,0.1,0.6,0,0.9-0.2L217,541.1z M220.2,546l1.7-1.4c0.2-0.1,0.4-0.2,0.6-0.2
			c0.2,0,0.4,0.1,0.5,0.3c0.1,0.2,0.2,0.4,0.2,0.6c0,0.2-0.1,0.4-0.2,0.6l-1.7,1.4c-0.2,0.1-0.4,0.2-0.6,0.2c-0.2,0-0.4-0.1-0.5-0.3
			s-0.2-0.4-0.2-0.6C220,546.4,220.1,546.2,220.2,546z M218,544.4c0.2,0.2,0.3,0.4,0.3,0.6s0,0.5-0.1,0.7c-0.1,0.2-0.3,0.4-0.5,0.5
			c-0.2,0.1-0.4,0.2-0.7,0.2c-0.2,0-0.5-0.1-0.7-0.2c-0.2-0.1-0.3-0.3-0.4-0.6c-0.1-0.2-0.1-0.5,0-0.7c0.1-0.2,0.2-0.4,0.4-0.6
			c0.1-0.1,0.3-0.2,0.4-0.2c0.2-0.1,0.3-0.1,0.5-0.1c0.2,0,0.3,0.1,0.5,0.1C217.7,544.2,217.9,544.3,218,544.4L218,544.4z
			 M222.4,540.6c0.2,0.2,0.3,0.4,0.3,0.6c0,0.2,0,0.5-0.1,0.7c-0.1,0.2-0.3,0.4-0.5,0.5c-0.2,0.1-0.4,0.2-0.7,0.2
			c-0.2,0-0.5-0.1-0.7-0.2c-0.2-0.1-0.3-0.3-0.4-0.6c-0.1-0.2-0.1-0.5,0-0.7c0.1-0.2,0.2-0.4,0.4-0.6c0.1-0.1,0.3-0.2,0.4-0.2
			c0.2-0.1,0.3-0.1,0.5-0.1c0.2,0,0.3,0.1,0.5,0.1C222.1,540.4,222.3,540.5,222.4,540.6L222.4,540.6z"/>
		<path class="st25" d="M213.8,547.5l0.2-0.2l2.5,2.9l-0.2,0.2c-0.1,0.1-0.2,0.2-0.4,0.2c-0.1,0-0.3,0.1-0.4,0.1
			c-0.1,0-0.3,0-0.4-0.1c-0.1-0.1-0.2-0.2-0.3-0.3l-1.1-1.2c-0.2-0.2-0.3-0.5-0.3-0.8C213.4,547.9,213.6,547.7,213.8,547.5
			L213.8,547.5z"/>
		<path class="st25" d="M223.9,538.6l0.2-0.2c0.2-0.2,0.5-0.3,0.8-0.3c0.3,0,0.6,0.2,0.8,0.4l1.1,1.2c0.2,0.2,0.3,0.5,0.3,0.8
			c0,0.3-0.2,0.6-0.4,0.8l-0.2,0.2L223.9,538.6z"/>
		<path class="st8" d="M78.9,345h52.2"/>
		<path class="st8" d="M78.9,351.3h13.4"/>
		<path class="st8" d="M101.1,351.3h25.8"/>
		<path class="st27" d="M41.6,186.4h52.2"/>
		<path class="st27" d="M41.6,192.7H55"/>
		<path class="st27" d="M63.8,192.7h25.8"/>
		<path class="st8" d="M327.5,463.1v52.2"/>
		<path class="st8" d="M321.2,463.1v13.4"/>
		<path class="st8" d="M321.2,485.3v25.8"/>
		<path class="st4" d="M86.4,236H44.7c-1,0-1.8,0.8-1.8,1.8V261c0,1,0.8,1.8,1.8,1.8h41.7c1,0,1.8-0.8,1.8-1.8v-23.2
			C88.2,236.8,87.4,236,86.4,236z"/>
		<path class="st28" d="M49.5,250.8c0.3,0,0.6,0.1,0.9,0.2c0.3,0.1,0.5,0.3,0.7,0.5c0.2,0.2,0.4,0.5,0.5,0.7
			c0.1,0.3,0.2,0.6,0.2,0.9v6.4h-4.5v-6.4c0-0.3,0.1-0.6,0.2-0.9c0.1-0.3,0.3-0.5,0.5-0.7c0.2-0.2,0.5-0.4,0.7-0.5
			S49.2,250.8,49.5,250.8z"/>
		<path class="st28" d="M56.9,244.8c0.6,0,1.2,0.2,1.6,0.7c0.4,0.4,0.7,1,0.7,1.6v12.4h-4.5V247c0-0.6,0.2-1.2,0.7-1.6
			C55.7,245,56.3,244.8,56.9,244.8L56.9,244.8z"/>
		<path class="st28" d="M64.2,249.2c0.6,0,1.2,0.2,1.6,0.7c0.4,0.4,0.7,1,0.7,1.6v8H62v-8c0-0.6,0.2-1.2,0.7-1.6
			C63.1,249.4,63.6,249.2,64.2,249.2L64.2,249.2z"/>
		<path class="st28" d="M71.6,246.4c0.6,0,1.2,0.2,1.6,0.7c0.4,0.4,0.7,1,0.7,1.6v10.8h-4.5v-10.8c0-0.3,0.1-0.6,0.2-0.9
			c0.1-0.3,0.3-0.5,0.5-0.7c0.2-0.2,0.5-0.4,0.7-0.5C71,246.4,71.3,246.4,71.6,246.4z"/>
		<path class="st28" d="M79,241.6c0.6,0,1.2,0.2,1.6,0.7c0.4,0.4,0.7,1,0.7,1.6v15.5h-4.5v-15.5c0-0.3,0.1-0.6,0.2-0.9
			c0.1-0.3,0.3-0.5,0.5-0.7c0.2-0.2,0.5-0.4,0.7-0.5C78.4,241.7,78.7,241.6,79,241.6z"/>
		<path class="st29" d="M176.2,652.3l-9.2-4.7c-0.1,0-0.1-0.1-0.2-0.1c-0.1,0-0.1,0-0.2,0c-0.1,0-0.1,0.1-0.2,0.1
			c-0.1,0-0.1,0.1-0.1,0.2l-7.5,14.8c-0.1,0.1-0.1,0.3,0,0.4s0.1,0.2,0.3,0.3l19.4,9.8c0.1,0.1,0.3,0.1,0.4,0c0.1,0,0.2-0.1,0.3-0.3
			l7.5-14.7c0-0.1,0.1-0.1,0.1-0.2c0-0.1,0-0.1,0-0.2c0-0.1-0.1-0.1-0.1-0.2c0-0.1-0.1-0.1-0.2-0.1l-9.2-4.7l0.8-1.6
			c0.6,0.2,1.2,0.1,1.7-0.1c0.5-0.2,1-0.7,1.3-1.2c0.3-0.6,0.4-1.3,0.1-2c-0.2-0.7-0.7-1.2-1.3-1.5c-0.6-0.3-1.3-0.4-2-0.1
			c-0.7,0.2-1.2,0.7-1.5,1.3c-0.3,0.5-0.3,1.1-0.2,1.7c0.1,0.6,0.5,1.1,0.9,1.5L176.2,652.3z"/>
		<path class="st29" d="M162.8,651.3l0.5,0.2L160,658l-0.5-0.2c-0.5-0.2-0.9-0.7-1-1.2s-0.1-1.1,0.1-1.6l1.4-2.8
			c0.2-0.5,0.7-0.9,1.2-1C161.7,651,162.3,651,162.8,651.3L162.8,651.3z"/>
		<path class="st29" d="M185.4,662.7l0.5,0.2c0.5,0.3,0.9,0.7,1,1.2c0.2,0.5,0.1,1.1-0.1,1.6l-1.4,2.8c-0.2,0.5-0.7,0.9-1.2,1
			c-0.5,0.2-1.1,0.1-1.6-0.1l-0.5-0.2L185.4,662.7z"/>
		<path class="st4" d="M181.6,661.2l-0.5-1.5l-2.3,0.8l-0.8-2.3l-1.5,0.5l0.8,2.3l-2.3,0.8l0.5,1.5l2.3-0.8l0.8,2.3l1.5-0.5
			l-0.8-2.3L181.6,661.2z"/>
		<path class="st4" d="M172,656.3l-0.5-1.5l-2.3,0.8l-0.8-2.3l-1.5,0.5l0.8,2.3l-2.3,0.8l0.5,1.5l2.3-0.8l0.8,2.3l1.5-0.5l-0.8-2.3
			L172,656.3z"/>
		<path class="st29" d="M236.8,691l-9.4,9.3c-0.1,0.1-0.1,0.1-0.1,0.2c0,0.1-0.1,0.2-0.1,0.3c0,0.1,0,0.2,0.1,0.3
			c0,0.1,0.1,0.2,0.1,0.2l14.8,15.1c0.1,0.1,0.3,0.2,0.5,0.2s0.3-0.1,0.5-0.2l19.8-19.5c0.1-0.1,0.2-0.3,0.2-0.5
			c0-0.2-0.1-0.3-0.2-0.5l-14.8-15.1c-0.1-0.1-0.3-0.2-0.5-0.2c-0.2,0-0.3,0.1-0.5,0.2l-9.4,9.3l-1.7-1.7c0.4-0.6,0.6-1.4,0.6-2.1
			c-0.1-0.8-0.4-1.5-0.9-2c-0.3-0.3-0.7-0.6-1.1-0.8c-0.4-0.2-0.8-0.3-1.3-0.3c-0.4,0-0.9,0.1-1.3,0.2c-0.4,0.2-0.8,0.4-1.1,0.7
			c-0.3,0.3-0.6,0.7-0.7,1.1c-0.2,0.4-0.3,0.8-0.3,1.3c0,0.4,0.1,0.9,0.3,1.3c0.2,0.4,0.4,0.8,0.7,1.1c0.5,0.5,1.2,0.9,2,1
			s1.5-0.1,2.2-0.5L236.8,691z"/>
		<path class="st29" d="M230.2,706.8l0.5-0.5l6.5,6.6l-0.5,0.5c-0.5,0.5-1.2,0.8-1.9,0.8c-0.7,0-1.4-0.3-1.9-0.8l-2.8-2.8
			c-0.5-0.5-0.8-1.2-0.8-1.9S229.7,707.3,230.2,706.8L230.2,706.8z"/>
		<path class="st29" d="M253.2,684l0.5-0.5c0.5-0.5,1.2-0.8,1.9-0.7c0.7,0,1.4,0.3,1.9,0.8l2.8,2.8c0.5,0.5,0.8,1.2,0.8,1.9
			c0,0.7-0.3,1.4-0.8,1.9l-0.5,0.5L253.2,684z"/>
		<path class="st4" d="M249.9,688.1l-2,0l0,3.1l-3.1,0l0,2l3.1,0l0,3.1l2,0l0-3.1l3.1,0l0-2l-3.1,0L249.9,688.1z"/>
		<path class="st4" d="M240.1,697.6l-2,0l0,3.1l-3.1,0l0,2l3.1,0l0,3.1l2,0l0-3.1l3.1,0l0-2l-3.1,0L240.1,697.6z"/>
		<path class="st29" d="M242.9,628.4l-4.7,7c0,0-0.1,0.1-0.1,0.2c0,0.1,0,0.1,0,0.2c0,0.1,0,0.1,0.1,0.2c0,0,0.1,0.1,0.1,0.1
			l11.2,7.5c0,0,0.1,0.1,0.2,0.1c0.1,0,0.1,0,0.2,0c0.1,0,0.1,0,0.2-0.1c0,0,0.1-0.1,0.1-0.1l9.9-14.7c0.1-0.1,0.1-0.2,0.1-0.3
			c0-0.1-0.1-0.2-0.2-0.3l-11.2-7.5c-0.1-0.1-0.2-0.1-0.3-0.1c-0.1,0-0.2,0.1-0.3,0.2l-4.7,7l-1.2-0.8c0.2-0.4,0.2-0.9,0.1-1.4
			c-0.1-0.5-0.4-0.9-0.8-1.1c-0.5-0.3-1-0.4-1.6-0.3c-0.5,0.1-1,0.4-1.3,0.9c-0.3,0.5-0.4,1-0.3,1.6c0.1,0.5,0.4,1,0.9,1.3
			c0.4,0.3,0.9,0.4,1.4,0.3c0.5,0,0.9-0.3,1.3-0.6L242.9,628.4z"/>
		<path class="st29" d="M240.8,639.2l0.2-0.4l4.9,3.3l-0.2,0.4c-0.2,0.4-0.6,0.6-1.1,0.7c-0.4,0.1-0.9,0-1.3-0.3l-2.1-1.4
			c-0.4-0.2-0.6-0.6-0.7-1.1C240.4,640,240.5,639.5,240.8,639.2z"/>
		<path class="st29" d="M252.3,622.1l0.2-0.4c0.3-0.4,0.6-0.6,1.1-0.7c0.4-0.1,0.9,0,1.3,0.3l2.1,1.4c0.4,0.3,0.6,0.6,0.7,1.1
			c0.1,0.4,0,0.9-0.3,1.3l-0.2,0.4L252.3,622.1z"/>
		<path class="st4" d="M250.7,625l-1.2,0.2l0.4,2l-2,0.4l0.2,1.2l2-0.4l0.4,2l1.2-0.2l-0.4-2l2-0.4l-0.2-1.2l-2,0.4L250.7,625z"/>
		<path class="st4" d="M245.8,632.2l-1.2,0.2l0.4,2l-2,0.4l0.2,1.2l2-0.4l0.4,2l1.2-0.2l-0.4-2l2-0.4l-0.2-1.2l-2,0.4L245.8,632.2z"
			/>
		<path class="st8" d="M195.5,618.5c-2,4.3-4.7,8.5-8.5,11.8"/>
		<path class="st8" d="M200.6,598.3c-0.3,3.8-1,7.6-2,11.3"/>
		
			<linearGradient id="SVGID_00000131351323114881420010000013855343315542084513_" gradientUnits="userSpaceOnUse" x1="243.206" y1="111.706" x2="238.364" y2="111.706" gradientTransform="matrix(1 0 0 -1 0 718)">
			<stop  offset="0" style="stop-color:#F1F4FE"/>
			<stop  offset="0.58" style="stop-color:#F7F9FE"/>
			<stop  offset="1" style="stop-color:#FFFFFF"/>
		</linearGradient>
		<path style="fill:url(#SVGID_00000131351323114881420010000013855343315542084513_);" d="M238.4,598.3c0,0-0.2,11,4.8,16
			L238.4,598.3z"/>
		<path class="st8" d="M238.4,598.3c0,0-0.2,11,4.8,16"/>
		<path class="st8" d="M227.7,662.4c3.1,5,7.1,9.4,11.8,13"/>
		<path class="st8" d="M221.7,649.6c0.3,0.9,0.6,1.8,1,2.8"/>
		<path class="st8" d="M218.4,602.3c0,0-3.8,22.9,2.5,44.7"/>
		<path class="st31" d="M412.9,228.7c0.1,0,0.3,0,0.4,0c6.3-1.9,13.1-2.1,19.5-0.7c0.3,0.1,0.7,0,1-0.2c0.3-0.2,0.5-0.5,0.6-0.8
			c0.1-0.3,0-0.7-0.2-1c-0.2-0.3-0.5-0.5-0.8-0.6c-6.9-1.6-14.1-1.3-20.8,0.7c-0.2,0-0.3,0.1-0.5,0.2c-0.2,0.1-0.3,0.2-0.4,0.3
			c-0.1,0.1-0.2,0.3-0.2,0.5s-0.1,0.3,0,0.5c0,0.2,0.1,0.3,0.2,0.5c0.1,0.2,0.2,0.3,0.3,0.4c0.1,0.1,0.3,0.2,0.5,0.2
			C412.6,228.8,412.7,228.8,412.9,228.7L412.9,228.7L412.9,228.7z"/>
		<path class="st31" d="M389.1,247.6c0.3,0.2,0.7,0.2,1,0.1c0.3-0.1,0.6-0.3,0.8-0.6c3.1-5.9,7.7-10.8,13.3-14.3
			c0.2-0.1,0.4-0.2,0.5-0.3c0.1-0.1,0.3-0.3,0.3-0.5c0.1-0.2,0.1-0.4,0.1-0.6c0-0.2-0.1-0.4-0.2-0.6c-0.1-0.2-0.2-0.3-0.4-0.4
			c-0.2-0.1-0.4-0.2-0.5-0.2c-0.2,0-0.4,0-0.6,0.1c-0.2,0.1-0.4,0.2-0.5,0.3c-6,3.8-10.9,9-14.3,15.3c-0.2,0.3-0.2,0.6-0.1,1
			C388.6,247.1,388.8,247.4,389.1,247.6L389.1,247.6z"/>
		<path class="st31" d="M408.7,239.3L408.7,239.3c3.1-1.7,6.3-3,9.7-3.7c5.1-1.1,10.4-0.9,15.5,0.4c0.3,0.1,0.5,0.1,0.8,0
			c0.3-0.1,0.5-0.2,0.6-0.4c0.2-0.2,0.3-0.5,0.3-0.7c0-0.3,0-0.5-0.2-0.7c-0.1-0.2-0.2-0.3-0.4-0.4c-0.1-0.1-0.3-0.2-0.5-0.2
			c-5.5-1.5-11.2-1.6-16.7-0.5c-3.7,0.8-7.2,2.1-10.4,4h-0.1c-4.9,2.8-9,6.7-12,11.4c-3.8,5.8-5.8,12.6-5.8,19.5
			c0,0.2,0,0.4,0.1,0.5c0.1,0.2,0.2,0.3,0.3,0.4c0.1,0.1,0.3,0.2,0.4,0.3c0.2,0.1,0.3,0.1,0.5,0.1c0.2,0,0.4,0,0.5-0.1
			c0.2-0.1,0.3-0.2,0.4-0.3c0.1-0.1,0.2-0.3,0.3-0.4c0.1-0.2,0.1-0.3,0.1-0.5c0-5.8,1.5-11.6,4.4-16.6
			C399.4,246.4,403.6,242.2,408.7,239.3L408.7,239.3z"/>
		<path class="st11" d="M74,103.7c0,0-0.1,0.1-0.1,0.1c0,0-0.1,0-0.1,0c0,0-0.1,0-0.1-0.1c0,0,0-0.1,0-0.1c0,0,0-0.1,0-0.1
			c0,0,0.1-0.1,0.1-0.1c0,0,0.1,0,0.1,0s0.1,0,0.1,0.1c0,0,0.1,0.1,0.1,0.1C74.1,103.6,74,103.6,74,103.7z"/>
		
			<linearGradient id="SVGID_00000178189618642349034410000012993477710245141657_" gradientUnits="userSpaceOnUse" x1="144.4436" y1="299.8299" x2="164.1863" y2="306.1225" gradientTransform="matrix(1 0 0 -1 0 718)">
			<stop  offset="0" style="stop-color:#B2852E"/>
			<stop  offset="3.000000e-02" style="stop-color:#BD8F32"/>
			<stop  offset="0.12" style="stop-color:#DCAC3D"/>
			<stop  offset="0.18" style="stop-color:#E8B741"/>
			<stop  offset="0.36" style="stop-color:#DEAF43"/>
			<stop  offset="0.4" style="stop-color:#E0B34B"/>
			<stop  offset="0.46" style="stop-color:#E6C05F"/>
			<stop  offset="0.53" style="stop-color:#EFD481"/>
			<stop  offset="0.55" style="stop-color:#F2DB8D"/>
			<stop  offset="0.59" style="stop-color:#F9EBA8"/>
			<stop  offset="0.61" style="stop-color:#FCF0B2"/>
			<stop  offset="0.64" style="stop-color:#FEF5BA"/>
			<stop  offset="0.65" style="stop-color:#FEF5BA"/>
			<stop  offset="0.68" style="stop-color:#FAEFB3"/>
			<stop  offset="0.81" style="stop-color:#DAB966"/>
			<stop  offset="0.9" style="stop-color:#C29847"/>
			<stop  offset="0.94" style="stop-color:#BA8D3C"/>
			<stop  offset="0.95" style="stop-color:#BB8F3E"/>
			<stop  offset="0.98" style="stop-color:#C09544"/>
			<stop  offset="1" style="stop-color:#A87A1D"/>
		</linearGradient>
		<path style="fill:url(#SVGID_00000178189618642349034410000012993477710245141657_);" d="M163,417.7
			C163,417.7,163,417.7,163,417.7l-5.7,6.3c0,0,0,0-0.1,0.1c0,0-0.1,0-0.1,0l-6.1,0.1c-0.1,0-0.1,0-0.2-0.1l-6.6-6.4
			c0,0-0.1-0.1-0.1-0.1l-1.6-6.7c0,0,0-0.1,0-0.1c0,0,0-0.1,0.1-0.1l4.1-3.1c0,0,0.1,0,0.1,0l6-0.8c0,0,0.1,0,0.1,0l7.5,1.8
			c0,0,0.1,0,0.1,0l3.4,2.6c0,0,0.1,0.1,0.1,0.1c0,0,0,0.1,0,0.1L163,417.7C163,417.6,163,417.6,163,417.7z M160.3,415.1l3-3.7
			L160.3,415.1z M148.5,408.1l1.8,0.7L148.5,408.1z M151.2,418.5c0,0-0.1-0.1-0.1-0.1c0,0,0-0.1,0-0.2"/>
		<path class="st11" d="M149.8,417.5c0,0.1-0.1,0.1-0.1,0.1c-0.1,0-0.1,0-0.2,0c0,0,0,0-0.1,0s0,0,0-0.1c0,0,0-0.1,0-0.1
			c0,0,0-0.1,0-0.1c0,0,0,0,0-0.1c0,0,0,0,0.1,0c0,0,0.1,0,0.1,0s0.1,0,0.1,0c0.1,0,0.1,0.1,0.1,0.1
			C149.8,417.4,149.8,417.4,149.8,417.5z"/>
		<path class="st33" d="M163,417.7C163,417.8,163,417.8,163,417.7l-5.7,6.3c0,0,0,0-0.1,0.1c0,0-0.1,0-0.1,0l-6.1,0.1
			c0,0-0.1,0-0.1,0c0,0-0.1,0-0.1,0l-6.6-6.4c0,0-0.1-0.1-0.1-0.1l-1.6-6.7c0,0,0-0.1,0-0.1c0,0,0-0.1,0.1-0.1l4.1-3.1
			c0,0,0.1,0,0.1,0l6-0.8c0,0,0.1,0,0.1,0l7.5,1.8c0,0,0.1,0,0.1,0l3.4,2.6c0,0,0.1,0.1,0.1,0.1c0,0,0,0.1,0,0.1L163,417.7
			C163,417.7,163,417.7,163,417.7z M157.2,423.6l5.3-5.9l-2.1-2l-3.6,0.1l-3.6,3.5L157.2,423.6z M162.7,417.2l0.8-5.1l-2.7,3.3
			L162.7,417.2z M156.8,415.3l3.6-0.1l3-3.7l-13-2.2l-1.1,2L156.8,415.3z M148.5,408.2l1.8,0.7l11.8,2l0.2-0.4l-2-1.6l-7.4-1.7
			l-4.3,0.5L148.5,408.2z M151.1,423.8l5.6-0.1l-3.9-4.3l-1.6-0.8c0,0-0.1-0.1-0.1-0.1c0,0,0-0.1,0-0.2c0,0,0,0,0.1-0.1s0,0,0.1,0
			c0.1,0,0.1,0,0.2,0l1.5,0.8l3.5-3.4l-7.4-4l-3.2,0.8l0.8,3.2l1.5,0.8c0,0,0.1,0.1,0.1,0.1c0,0,0,0.1,0,0.2c0,0-0.1,0.1-0.1,0.1
			c-0.1,0-0.1,0-0.2,0l-1.5-0.8l-1.6,1.5L151.1,423.8z M145.5,412l3.3-0.8l1.1-2l-3.1-1.2l-3.7,2.8L145.5,412z M144.6,417.2l1.6-1.5
			l-0.8-3.3l-2.2-1.1L144.6,417.2z"/>
		<path class="st33" d="M149.8,417.6c0,0.1-0.1,0.1-0.1,0.1c-0.1,0-0.1,0-0.2,0c0,0-0.1-0.1-0.1-0.1s0-0.1,0-0.2
			c0,0,0.1-0.1,0.1-0.1c0,0,0.1,0,0.2,0c0,0,0,0,0.1,0c0,0,0,0,0,0.1C149.9,417.4,149.9,417.5,149.8,417.6
			C149.9,417.5,149.9,417.5,149.8,417.6z"/>
		
			<linearGradient id="SVGID_00000183930651858640511340000010060995656614588849_" gradientUnits="userSpaceOnUse" x1="293.0743" y1="230.9419" x2="312.5003" y2="214.7959" gradientTransform="matrix(1 0 0 -1 0 718)">
			<stop  offset="0" style="stop-color:#B2852E"/>
			<stop  offset="3.000000e-02" style="stop-color:#BD8F32"/>
			<stop  offset="0.12" style="stop-color:#DCAC3D"/>
			<stop  offset="0.18" style="stop-color:#E8B741"/>
			<stop  offset="0.36" style="stop-color:#DEAF43"/>
			<stop  offset="0.4" style="stop-color:#E0B34B"/>
			<stop  offset="0.46" style="stop-color:#E6C05F"/>
			<stop  offset="0.53" style="stop-color:#EFD481"/>
			<stop  offset="0.55" style="stop-color:#F2DB8D"/>
			<stop  offset="0.59" style="stop-color:#F9EBA8"/>
			<stop  offset="0.61" style="stop-color:#FCF0B2"/>
			<stop  offset="0.64" style="stop-color:#FEF5BA"/>
			<stop  offset="0.65" style="stop-color:#FEF5BA"/>
			<stop  offset="0.68" style="stop-color:#FAEFB3"/>
			<stop  offset="0.81" style="stop-color:#DAB966"/>
			<stop  offset="0.9" style="stop-color:#C29847"/>
			<stop  offset="0.94" style="stop-color:#BA8D3C"/>
			<stop  offset="0.95" style="stop-color:#BB8F3E"/>
			<stop  offset="0.98" style="stop-color:#C09544"/>
			<stop  offset="1" style="stop-color:#A87A1D"/>
		</linearGradient>
		<path style="fill:url(#SVGID_00000183930651858640511340000010060995656614588849_);" d="M300.6,501.4
			C300.6,501.4,300.5,501.4,300.6,501.4l-10.2-1.6c0,0-0.1,0-0.1,0c0,0-0.1,0-0.1-0.1l-4.1-6.2c0-0.1,0-0.1,0-0.2l2.2-11
			c0,0,0-0.1,0.1-0.1l5.8-6.1c0,0,0.1-0.1,0.1-0.1c0,0,0.1,0,0.1,0l5.8,2.1c0,0,0.1,0,0.1,0.1l4.7,5.6c0,0,0,0.1,0,0.1l3.1,8.9
			c0,0,0,0.1,0,0.1l-0.5,5.2c0,0,0,0.1,0,0.1c0,0-0.1,0.1-0.1,0.1L300.6,501.4C300.6,501.4,300.6,501.4,300.6,501.4z M301.4,497
			l5.7,0.7L301.4,497z M300.9,480.3l0.5,2.3L300.9,480.3z M292,489.9c0-0.1,0-0.1,0.1-0.2c0-0.1,0.1-0.1,0.2-0.1h0"/>
		<path class="st11" d="M292.1,487.8c-0.1,0-0.1,0-0.2,0c0,0-0.1-0.1-0.1-0.1c0,0,0-0.1,0-0.1c0-0.1,0-0.1,0-0.1
			c0,0,0.1-0.1,0.1-0.1c0,0,0.1,0,0.2,0c0.1,0,0.1,0,0.1,0.1c0,0,0.1,0.1,0.1,0.1c0,0.1,0,0.1,0,0.2
			C292.2,487.8,292.2,487.8,292.1,487.8z"/>
		<path class="st33" d="M300.5,501.5C300.5,501.5,300.5,501.5,300.5,501.5l-10.2-1.6c0,0-0.1,0-0.1,0c0,0-0.1,0-0.1-0.1l-4.1-6.2
			c0,0,0-0.1,0-0.1c0,0,0-0.1,0-0.1l2.2-11c0,0,0-0.1,0.1-0.1l5.8-6.1c0,0,0.1-0.1,0.1-0.1c0,0,0.1,0,0.1,0l5.8,2.1
			c0,0,0.1,0,0.1,0.1l4.7,5.6c0,0,0,0.1,0,0.1l3.1,8.9c0,0,0,0.1,0,0.1l-0.5,5.2c0,0,0,0.1,0,0.1c0,0-0.1,0.1-0.1,0.1L300.5,501.5
			L300.5,501.5z M290.7,499.4l9.6,1.6l0.7-3.5l-2.5-3.6l-5.9-1.4L290.7,499.4z M300.8,500.8l5.7-2.6l-5.1-0.6L300.8,500.8z
			 M298.9,493.5l2.5,3.6l5.7,0.7l-6.3-14.7l-2.8,0.2L298.9,493.5z M300.8,480.4l0.5,2.3l5.7,13.4l0.5-0.1l0.3-3.1l-3.1-8.8l-3.4-4
			L300.8,480.4z M286.5,493.3l3.7,5.7l1.9-6.8l-0.2-2.2c0-0.1,0-0.1,0.1-0.2c0-0.1,0.1-0.1,0.2-0.1h0c0.1,0,0.1,0,0.2,0.1
			c0.1,0,0.1,0.1,0.1,0.2l0.2,2l5.8,1.3l-0.8-10.2l-2.9-2.7l-2.8,2.9l0.2,2.1c0,0.1,0,0.1-0.1,0.2c0,0.1-0.1,0.1-0.2,0.1h0
			c-0.1,0-0.1,0-0.2-0.1c0,0,0,0-0.1-0.1c0,0,0-0.1,0-0.1l-0.2-2l-2.6-0.6L286.5,493.3z M294.9,479.8l3,2.8l2.8-0.2l-0.8-3.9
			l-5.3-1.9L294.9,479.8z M289,482.2l2.5,0.6l2.9-3l-0.2-3L289,482.2z"/>
		<path class="st33" d="M292,487.9c-0.1,0-0.1,0-0.2,0c-0.1,0-0.1-0.1-0.1-0.2c0-0.1,0-0.1,0-0.2c0-0.1,0.1-0.1,0.2-0.1
			c0,0,0.1,0,0.1,0c0,0,0.1,0,0.1,0c0,0,0.1,0,0.1,0.1c0,0,0,0.1,0,0.1c0,0,0,0.1,0,0.1c0,0,0,0.1,0,0.1
			C292.2,487.8,292.1,487.8,292,487.9C292.1,487.9,292.1,487.9,292,487.9z"/>
		<path class="st35" d="M118.6,386.4l-2.8-4.9c0,0,0-0.1-0.1-0.1c0,0-0.1,0-0.1,0l-6.7-1.8h-0.1c0,0,0,0-0.1,0L97.4,381
			c0,0-0.1,0-0.1,0c0,0-0.1,0-0.1,0.1l-5.1,6.9c0,0,0,0,0,0l-1.4,3.5c0,0,0,0.1,0,0.1c0,0,0,0.1,0,0.1l4.6,8.3v0v0l4.7,6
			c0,0,0.1,0.1,0.1,0.1c0,0,0.1,0,0.1,0l6.7,0.8h0.1c0,0,0.1,0,0.1,0l3.7-2.6c0,0,0,0,0.1-0.1l5.2-7.3c0,0,0,0,0,0v0l2.5-10.4
			C118.7,386.5,118.6,386.4,118.6,386.4z M98.4,390.5l-5.6-2.4L98.4,390.5z M95.7,399.6l-4.4-8L95.7,399.6z M110.1,404.2l-3.2,2.3
			L110.1,404.2z M115.5,396.9l-4.9,6.9L115.5,396.9z M109.1,380.3l6.3,1.6L109.1,380.3z"/>
		<path class="st36" d="M118.6,386.4l-2.8-4.9c0-0.1-0.1-0.1-0.2-0.1l-6.7-1.8h-0.1L97.4,381c0,0-0.1,0-0.1,0c0,0-0.1,0-0.1,0.1
			l-5.1,6.9c0,0,0,0,0,0.1l-1.4,3.5c0,0,0,0.1,0,0.1c0,0,0,0.1,0,0.1l4.6,8.3l0,0v0l4.7,6c0,0,0,0.1,0.1,0.1c0,0,0.1,0,0.1,0
			l6.7,0.8h0.1c0,0,0.1,0,0.1,0l3.7-2.6c0,0,0,0,0.1-0.1l5.2-7.3l0,0c0,0,0,0,0,0l2.5-10.4c0,0,0-0.1,0-0.1
			C118.6,386.4,118.6,386.4,118.6,386.4z M97.6,381.5l10.9-1.3l-1.3,6.2l-8.9,4l-5.6-2.4L97.6,381.5z M91.3,391.6l1.2-3.1l5.6,2.5
			l3,8l-5.4,0.7L91.3,391.6z M106.9,406.5l-6.4-0.8l-4.3-5.5l5.4-0.6l8.6,4.7L106.9,406.5z M110.6,403.8l-8.7-4.8l-3.1-8.1l8.7-3.9
			l8.1,9.9L110.6,403.8z M115.7,396.3l-7.9-9.7l1.3-6.3l6.3,1.6l2.7,4.7L115.7,396.3z"/>
		<path class="st35" d="M181.1,435.7l-2.3,2.8c0,0,0,0.1,0,0.1l0.5,4.5c0,0,0,0,0,0c0,0,0,0,0,0l3.5,6.7c0,0,0.1,0.1,0.1,0.1
			l5.4,1.5h0l2.5,0.1c0,0,0.1,0,0.1,0c0,0,0,0,0.1,0l4-4.7l2.6-4.3c0,0,0-0.1,0-0.1l-1-4.3c0,0,0,0,0,0c0,0,0-0.1-0.1-0.1l-2.5-1.7
			l-0.1,0l-5.7-1.5h0l-7,0.9C181.2,435.7,181.1,435.7,181.1,435.7z M188.3,447.2l-0.2,4L188.3,447.2z M194.5,446.8l-3.9,4.6
			L194.5,446.8z M194,436.9l2.2,1.4L194,436.9z M188.3,435.2l5.4,1.5L188.3,435.2z M179.5,442.9l-0.4-4.2L179.5,442.9z"/>
		<path class="st36" d="M181.1,435.7l-2.3,2.8c0,0,0,0.1,0,0.1l0.5,4.5c0,0,0,0,0,0c0,0,0,0,0,0l3.5,6.7c0,0,0,0,0,0.1
			c0,0,0,0,0.1,0l5.4,1.6h0l2.5,0.1c0,0,0.1,0,0.1,0c0,0,0,0,0.1,0l4-4.7l2.6-4.3c0,0,0-0.1,0-0.1l-1-4.3c0,0,0,0,0,0
			c0,0,0-0.1-0.1-0.1l-2.5-1.7l-0.1,0l-5.7-1.5h0l-7,0.9C181.2,435.7,181.1,435.7,181.1,435.7z M182.9,449.7l-3.3-6.4l4.1-0.6
			l4.5,4.5l-0.2,4L182.9,449.7z M190.6,451.3l-2.2,0l0.2-4l4.2-3.7l1.7,3.2L190.6,451.3z M196.2,438.3l1,4.1l-2.4,4l-1.6-3.2
			l0.9-6.4L196.2,438.3z M193.7,436.7l-0.9,6.5l-4.3,3.7l-4.4-4.4l4.2-7.2L193.7,436.7z M187.8,435.2l-4.2,7.1l-4.2,0.6l-0.4-4.2
			l2.3-2.7L187.8,435.2z"/>
		<path class="st10" d="M199.3,484.3h18.2v45.5h-18.2"/>
		<path class="st11" d="M195.2,474.1h-87c-2.3,0-4.1,1.9-4.1,4.1v54.1c0,2.3,1.9,4.1,4.1,4.1h87c2.3,0,4.2-1.9,4.2-4.1v-54.1
			C199.3,476,197.4,474.1,195.2,474.1z"/>
		
			<linearGradient id="SVGID_00000008151368154394410370000016767313718619768223_" gradientUnits="userSpaceOnUse" x1="111.299" y1="196.122" x2="174.214" y2="196.122" gradientTransform="matrix(1 0 0 -1 0 718)">
			<stop  offset="0" style="stop-color:#4CD9ED"/>
			<stop  offset="0.54" style="stop-color:#47A6EC"/>
			<stop  offset="1" style="stop-color:#437FEC"/>
		</linearGradient>
		<path style="fill:url(#SVGID_00000008151368154394410370000016767313718619768223_);" d="M168.2,515.9h-50.9c-3.3,0-6,2.7-6,6
			c0,3.3,2.7,6,6,6h50.9c3.3,0,6-2.7,6-6C174.2,518.6,171.5,515.9,168.2,515.9z"/>
		
			<linearGradient id="SVGID_00000024698944654352398810000003619091017496748935_" gradientUnits="userSpaceOnUse" x1="111.299" y1="211.987" x2="174.214" y2="211.987" gradientTransform="matrix(1 0 0 -1 0 718)">
			<stop  offset="0" style="stop-color:#4CD9ED"/>
			<stop  offset="0.54" style="stop-color:#47A6EC"/>
			<stop  offset="1" style="stop-color:#437FEC"/>
		</linearGradient>
		<path style="fill:url(#SVGID_00000024698944654352398810000003619091017496748935_);" d="M168.2,500h-50.9c-3.3,0-6,2.7-6,6
			c0,3.3,2.7,6,6,6h50.9c3.3,0,6-2.7,6-6C174.2,502.7,171.5,500,168.2,500z"/>
		
			<linearGradient id="SVGID_00000119800439465615011000000015002948691324018822_" gradientUnits="userSpaceOnUse" x1="111.299" y1="227.855" x2="174.214" y2="227.855" gradientTransform="matrix(1 0 0 -1 0 718)">
			<stop  offset="0" style="stop-color:#4CD9ED"/>
			<stop  offset="0.54" style="stop-color:#47A6EC"/>
			<stop  offset="1" style="stop-color:#437FEC"/>
		</linearGradient>
		<path style="fill:url(#SVGID_00000119800439465615011000000015002948691324018822_);" d="M168.2,484.1h-50.9c-3.3,0-6,2.7-6,6
			c0,3.3,2.7,6,6,6h50.9c3.3,0,6-2.7,6-6C174.2,486.8,171.5,484.1,168.2,484.1z"/>
		<path class="st5" d="M188.3,487.1h-7.1c-1,0-1.8,0.8-1.8,1.8v0c0,1,0.8,1.8,1.8,1.8h7.1c1,0,1.8-0.8,1.8-1.8v0
			C190.1,488,189.3,487.1,188.3,487.1z"/>
		<path class="st5" d="M188.3,495.3h-7.1c-1,0-1.8,0.8-1.8,1.8v0c0,1,0.8,1.8,1.8,1.8h7.1c1,0,1.8-0.8,1.8-1.8v0
			C190.1,496.1,189.3,495.3,188.3,495.3z"/>
		<path class="st5" d="M188.3,503.4h-7.1c-1,0-1.8,0.8-1.8,1.8v0c0,1,0.8,1.8,1.8,1.8h7.1c1,0,1.8-0.8,1.8-1.8v0
			C190.1,504.2,189.3,503.4,188.3,503.4z"/>
		<path class="st5" d="M188.3,511.5h-7.1c-1,0-1.8,0.8-1.8,1.8v0c0,1,0.8,1.8,1.8,1.8h7.1c1,0,1.8-0.8,1.8-1.8v0
			C190.1,512.3,189.3,511.5,188.3,511.5z"/>
		<path class="st5" d="M188.3,519.6h-7.1c-1,0-1.8,0.8-1.8,1.8v0c0,1,0.8,1.8,1.8,1.8h7.1c1,0,1.8-0.8,1.8-1.8v0
			C190.1,520.4,189.3,519.6,188.3,519.6z"/>
	</g>
</g>
</svg>
