<svg width="85" height="183" viewBox="0 0 85 183" fill="none" xmlns="http://www.w3.org/2000/svg">
<path d="M77.1186 181.942H8.19152C6.28421 181.942 4.45501 181.185 3.10634 179.836C1.75767 178.487 1 176.658 1 174.751V8.19152C1 6.28421 1.75767 4.45504 3.10634 3.10636C4.45501 1.75769 6.28421 1 8.19152 1H78.9165C82.8718 1 84.3102 4.21461 84.3102 8.19152V174.765C84.3063 176.67 83.547 178.495 82.1987 179.841C80.8505 181.187 79.0234 181.942 77.1186 181.942Z" fill="url(#paint0_linear_469_1046)" stroke="#022791" stroke-width="1.07873" stroke-miterlimit="10"/>
<path d="M59.8087 19.342H17.6232C15.7287 19.342 14.1929 20.8779 14.1929 22.7724V43.9083C14.1929 45.8028 15.7287 47.3386 17.6232 47.3386H59.8087C61.7032 47.3386 63.239 45.8028 63.239 43.9083V22.7724C63.239 20.8779 61.7032 19.342 59.8087 19.342Z" fill="white" stroke="#022791" stroke-width="1.07873" stroke-miterlimit="10"/>
<path d="M18.0508 36.181L27.2955 29.8705C28.3944 29.2439 29.6751 29.0138 30.9234 29.2187C32.1716 29.4236 33.3117 30.051 34.1526 30.996L38.7516 36.1774C39.5991 37.1299 40.7502 37.7596 42.0094 37.9595C43.2686 38.1594 44.5582 37.9173 45.659 37.2742L59.7903 29.0039" stroke="#FFD126" stroke-width="2.53141" stroke-miterlimit="10" stroke-linecap="round"/>
<path d="M47.9249 117.373C47.9249 121.569 46.258 125.594 43.2909 128.561C40.3239 131.528 36.2996 133.195 32.1035 133.195C23.3587 133.195 18.0801 126.104 18.0801 117.373C18.0801 108.643 23.373 101.552 32.1035 101.552C36.2996 101.552 40.3239 103.219 43.2909 106.186C46.258 109.153 47.9249 113.177 47.9249 117.373Z" stroke="#FFD126" stroke-width="1.74754" stroke-miterlimit="10" stroke-linecap="round"/>
<path d="M43.9005 117.373C43.9005 120.506 42.656 123.51 40.4408 125.726C38.2256 127.941 35.2212 129.185 32.0884 129.185C25.5657 129.185 22.0742 123.896 22.0742 117.373C22.0742 110.851 25.5657 105.561 32.0884 105.561C35.2212 105.561 38.2256 106.806 40.4408 109.021C42.656 111.236 43.9005 114.24 43.9005 117.373Z" fill="#FFD125"/>
<path d="M59.7906 111.739C61.6951 111.739 63.239 110.195 63.239 108.29C63.239 106.386 61.6951 104.842 59.7906 104.842C57.8861 104.842 56.3423 106.386 56.3423 108.29C56.3423 110.195 57.8861 111.739 59.7906 111.739Z" fill="#FFD125"/>
<path d="M59.7906 121.843C61.6951 121.843 63.239 120.299 63.239 118.394C63.239 116.49 61.6951 114.946 59.7906 114.946C57.8861 114.946 56.3423 116.49 56.3423 118.394C56.3423 120.299 57.8861 121.843 59.7906 121.843Z" fill="#FFD125"/>
<path d="M59.7906 131.943C61.6951 131.943 63.239 130.399 63.239 128.495C63.239 126.59 61.6951 125.047 59.7906 125.047C57.8861 125.047 56.3423 126.59 56.3423 128.495C56.3423 130.399 57.8861 131.943 59.7906 131.943Z" fill="#FFD125"/>
<path d="M10.3989 165.912H13.067C13.5934 165.912 14.0983 166.121 14.4705 166.494C14.8427 166.866 15.0518 167.371 15.0518 167.897V181.942H8.41406V167.897C8.41406 167.371 8.62318 166.866 8.99541 166.494C9.36764 166.121 9.87251 165.912 10.3989 165.912Z" fill="white" stroke="#25377E" stroke-width="1.07873" stroke-miterlimit="10"/>
<path d="M21.2764 165.912H22.1501C22.6766 165.912 23.1814 166.121 23.5536 166.494C23.9259 166.866 24.135 167.371 24.135 167.897V181.942H19.2915V167.897C19.2915 167.637 19.3428 167.378 19.4426 167.138C19.5423 166.897 19.6885 166.678 19.8729 166.494C20.0572 166.309 20.276 166.163 20.5168 166.063C20.7576 165.964 21.0157 165.912 21.2764 165.912Z" fill="white" stroke="#25377E" stroke-width="1.07873" stroke-miterlimit="10"/>
<path d="M28.5576 165.912H31.2293C31.7557 165.912 32.2605 166.121 32.6328 166.494C33.005 166.866 33.2141 167.371 33.2141 167.897V181.942H26.5728V167.897C26.5728 167.637 26.6241 167.378 26.7238 167.138C26.8236 166.897 26.9698 166.678 27.1541 166.494C27.3384 166.309 27.5572 166.163 27.798 166.063C28.0389 165.964 28.297 165.912 28.5576 165.912Z" fill="white" stroke="#25377E" stroke-width="1.07873" stroke-miterlimit="10"/>
<defs>
<linearGradient id="paint0_linear_469_1046" x1="1.01079" y1="91.4801" x2="84.2958" y2="91.4801" gradientUnits="userSpaceOnUse">
<stop offset="0.17" stop-color="#437FEC"/>
<stop offset="0.47" stop-color="#336CD5"/>
<stop offset="1" stop-color="#184EAE"/>
</linearGradient>
</defs>
</svg>
