<svg width="195" height="47" viewBox="0 0 195 47" fill="none" xmlns="http://www.w3.org/2000/svg">
<path d="M55.3919 23.6218L55.471 23.4348L55.5537 23.6218C56.3136 25.367 57.7063 26.7597 59.4515 27.5196L59.6385 27.6023L59.4515 27.685C57.7062 28.4459 56.3127 29.8381 55.5501 31.5828L55.471 31.7698L55.3884 31.5828C54.6299 29.8378 53.2384 28.445 51.4941 27.685L51.3071 27.6023L51.4941 27.5196C53.2394 26.7597 54.632 25.367 55.3919 23.6218Z" fill="url(#paint0_linear_426_1049)"/>
<path d="M15.2271 5.93418L15.7233 5.71845C17.7579 4.82995 19.3814 3.20513 20.2683 1.1698L20.4876 0.673584L20.707 1.1698C21.5939 3.20513 23.2174 4.82995 25.252 5.71845L25.7482 5.93418L25.252 6.15352C23.2179 7.04085 21.5943 8.66439 20.707 10.6986L20.4876 11.1948L20.2719 10.6986C19.3846 8.66439 17.761 7.04085 15.7269 6.15352L15.2271 5.93418Z" fill="url(#paint1_linear_426_1049)"/>
<path d="M15.5722 21.3421L18.2978 10.0766C18.5553 10.4542 18.7768 10.855 18.9594 11.274L19.4628 12.4211C19.5506 12.6202 19.6943 12.7895 19.8766 12.9083C20.0589 13.0272 20.2718 13.0904 20.4894 13.0904C20.707 13.0904 20.9199 13.0272 21.1022 12.9083C21.2845 12.7895 21.4282 12.6202 21.516 12.4211L22.0194 11.274C22.7621 9.56925 24.1225 8.20882 25.8273 7.46609L26.9744 6.96267C27.1735 6.87491 27.3428 6.73112 27.4616 6.54885C27.5805 6.36657 27.6438 6.15369 27.6438 5.93609C27.6438 5.71849 27.5805 5.50557 27.4616 5.32329C27.3428 5.14102 27.1735 4.99727 26.9744 4.90951L25.8273 4.40609C25.6547 4.33058 25.5001 4.22271 25.3347 4.13281H37.1144C38.1186 4.13503 39.093 4.47486 39.8808 5.09768C40.6686 5.7205 41.2241 6.59014 41.458 7.56678L44.8021 21.3349C44.8926 21.7117 44.896 22.1041 44.8119 22.4824C44.7277 22.8606 44.5584 23.2147 44.3167 23.5176C44.0804 23.8189 43.7784 24.0623 43.4339 24.2293C43.0893 24.3962 42.7111 24.4824 42.3282 24.4812H18.0461C17.6631 24.4824 17.285 24.3962 16.9404 24.2293C16.5958 24.0623 16.2939 23.8189 16.0576 23.5176C15.8166 23.2158 15.6475 22.863 15.5634 22.486C15.4793 22.109 15.4823 21.7178 15.5722 21.3421Z" fill="#FFD126"/>
<path d="M28.9233 45.3041C28.6862 45.6087 28.3823 45.8547 28.035 46.023C27.6877 46.1913 27.3064 46.2775 26.9205 46.275H2.65627C2.27035 46.2762 1.88919 46.1896 1.54173 46.0216C1.19427 45.8536 0.889624 45.6088 0.650866 45.3056C0.412109 45.0023 0.245483 44.6488 0.163692 44.2716C0.0819006 43.8944 0.0870831 43.5036 0.178791 43.1287L3.51567 29.3498C3.74954 28.3756 4.30521 27.5087 5.09281 26.8895C5.8804 26.2702 6.85385 25.9348 7.85573 25.9374H21.721C22.7227 25.9354 23.6958 26.2711 24.4833 26.8903C25.2708 27.5094 25.8266 28.3759 26.0611 29.3498L29.3979 43.1287C29.4881 43.5007 29.4922 43.8884 29.4099 44.2623C29.3277 44.6361 29.1612 44.9863 28.9233 45.2862V45.3041Z" fill="#FFD126"/>
<path d="M59.7136 45.3042C59.4772 45.6055 59.1753 45.8489 58.8307 46.0159C58.4861 46.1829 58.108 46.2691 57.7251 46.2679H33.4322C33.0493 46.2691 32.6711 46.1829 32.3265 46.0159C31.9819 45.8489 31.68 45.6055 31.4437 45.3042C31.2023 45.0019 31.0331 44.6484 30.949 44.2708C30.8649 43.8932 30.8681 43.5013 30.9583 43.1251L34.3024 29.3354C34.5386 28.3615 35.0953 27.4952 35.883 26.8757C36.6707 26.2562 37.6438 25.9194 38.646 25.9194H51.4505C51.2764 26.0288 51.0963 26.1284 50.9111 26.2179L49.9439 26.6386C49.7553 26.7208 49.5947 26.8563 49.482 27.0284C49.3693 27.2006 49.3092 27.4019 49.3092 27.6077C49.3092 27.8134 49.3693 28.0147 49.482 28.1868C49.5947 28.359 49.7553 28.4945 49.9439 28.5767L50.9075 29.001C52.324 29.6154 53.4539 30.7452 54.0682 32.1617L54.4925 33.1289C54.5739 33.3169 54.7085 33.477 54.8797 33.5895C55.051 33.7019 55.2513 33.7618 55.4562 33.7618C55.6615 33.7596 55.8619 33.6989 56.0338 33.5868C56.2058 33.4747 56.3422 33.3159 56.427 33.1289L56.8477 32.1617C56.9807 31.8679 57.137 31.5854 57.3152 31.3167L60.1918 43.118C60.2821 43.4951 60.2856 43.8878 60.2021 44.2665C60.1187 44.6451 59.9504 44.9999 59.71 45.3042H59.7136Z" fill="#FFD126"/>
<path d="M189.287 23.6218L189.367 23.4348L189.449 23.6218C190.209 25.367 191.602 26.7597 193.347 27.5196L193.53 27.6023L193.343 27.685C191.599 28.4466 190.207 29.8387 189.446 31.5828L189.367 31.7698L189.284 31.5828C188.525 29.8378 187.134 28.445 185.39 27.685L185.203 27.6023L185.39 27.5196C187.135 26.7597 188.528 25.367 189.287 23.6218Z" fill="#FFD126"/>
<path d="M161.021 45.3041C160.784 45.6087 160.48 45.8547 160.133 46.023C159.785 46.1913 159.404 46.2775 159.018 46.275H134.75C134.365 46.2757 133.984 46.1887 133.637 46.0204C133.29 45.8522 132.986 45.6073 132.747 45.3041C132.509 45.001 132.343 44.6476 132.261 44.2707C132.18 43.8938 132.185 43.5033 132.276 43.1287L135.613 29.3498C135.847 28.3756 136.403 27.5087 137.19 26.8895C137.978 26.2702 138.951 25.9348 139.953 25.9374H153.815C154.817 25.9348 155.79 26.2702 156.578 26.8895C157.366 27.5087 157.921 28.3756 158.155 29.3498L161.492 43.1287C161.583 43.5005 161.587 43.888 161.506 44.2619C161.424 44.6357 161.258 44.986 161.021 45.2862V45.3041Z" fill="#FFD126"/>
<path d="M175.817 22.3632C175.581 22.6684 175.277 22.915 174.929 23.084C174.582 23.253 174.201 23.3398 173.814 23.3377H149.55C149.164 23.3383 148.783 23.2512 148.436 23.0828C148.088 22.9144 147.783 22.6691 147.545 22.3657C147.306 22.0622 147.14 21.7084 147.058 21.3311C146.976 20.9538 146.981 20.5628 147.073 20.1878L150.41 6.41239C150.643 5.43818 151.199 4.57135 151.987 3.95211C152.774 3.33287 153.748 2.99742 154.75 3.00001H168.615C169.617 2.99806 170.59 3.33376 171.377 3.9529C172.165 4.57204 172.721 5.43849 172.955 6.41239L176.292 20.1878C176.382 20.5598 176.386 20.9475 176.304 21.3213C176.222 21.6952 176.055 22.0454 175.817 22.3452V22.3632Z" fill="#FFD126"/>
<path d="M193.609 45.3042C193.373 45.6055 193.071 45.8489 192.727 46.0159C192.382 46.1829 192.004 46.2691 191.621 46.2679H165.537C165.154 46.2691 164.776 46.1829 164.432 46.0159C164.087 45.8489 163.785 45.6055 163.549 45.3042C163.309 45.0012 163.141 44.6476 163.057 44.2701C162.974 43.8926 162.977 43.5011 163.067 43.1251L166.411 29.3354C166.647 28.3615 167.204 27.4952 167.992 26.8757C168.78 26.2562 169.753 25.9194 170.755 25.9194H185.357C185.183 26.028 185.003 26.1277 184.818 26.2179L183.851 26.6386C183.662 26.7208 183.501 26.8563 183.389 27.0284C183.276 27.2006 183.216 27.4019 183.216 27.6077C183.216 27.8134 183.276 28.0147 183.389 28.1868C183.501 28.359 183.662 28.4945 183.851 28.5767L184.814 29.001C186.231 29.6154 187.361 30.7452 187.975 32.1617L188.399 33.1289C188.481 33.3169 188.615 33.477 188.786 33.5895C188.958 33.7019 189.158 33.7618 189.363 33.7618C189.568 33.7596 189.769 33.6989 189.941 33.5868C190.112 33.4747 190.249 33.3159 190.334 33.1289L190.754 32.1617C190.887 31.8679 191.044 31.5854 191.222 31.3167L194.098 43.118C194.189 43.4953 194.192 43.8883 194.108 44.2672C194.024 44.646 193.855 45.0006 193.613 45.3042H193.609Z" fill="#FFD126"/>
<path d="M104.669 26.6313H80.9366C80.7166 26.6323 80.5058 26.7201 80.3503 26.8757C80.1947 27.0313 80.1069 27.242 80.106 27.462V31.6151C80.1069 31.8351 80.1947 32.0458 80.3503 32.2014C80.5058 32.357 80.7166 32.4448 80.9366 32.4457H104.669C104.888 32.4448 105.099 32.3568 105.254 32.2012C105.409 32.0455 105.496 31.8348 105.496 31.6151V27.462C105.496 27.2423 105.409 27.0316 105.254 26.8759C105.099 26.7203 104.888 26.6323 104.669 26.6313ZM83.3025 31.2699C83.2872 31.4022 83.2239 31.5243 83.1244 31.6129C83.025 31.7015 82.8964 31.7505 82.7632 31.7505C82.63 31.7505 82.5014 31.7015 82.402 31.6129C82.3025 31.5243 82.2391 31.4022 82.2238 31.2699V27.8072C82.2391 27.6749 82.3025 27.5528 82.402 27.4642C82.5014 27.3756 82.63 27.3266 82.7632 27.3266C82.8964 27.3266 83.025 27.3756 83.1244 27.4642C83.2239 27.5528 83.2872 27.6749 83.3025 27.8072V31.2699ZM87.3118 31.2699C87.2965 31.4022 87.2331 31.5243 87.1337 31.6129C87.0342 31.7015 86.9057 31.7505 86.7725 31.7505C86.6393 31.7505 86.5107 31.7015 86.4113 31.6129C86.3118 31.5243 86.2484 31.4022 86.2331 31.2699V27.8072C86.2484 27.6749 86.3118 27.5528 86.4113 27.4642C86.5107 27.3756 86.6393 27.3266 86.7725 27.3266C86.9057 27.3266 87.0342 27.3756 87.1337 27.4642C87.2331 27.5528 87.2965 27.6749 87.3118 27.8072V31.2699ZM91.3211 31.2699C91.3058 31.4022 91.2424 31.5243 91.1429 31.6129C91.0435 31.7015 90.9149 31.7505 90.7817 31.7505C90.6485 31.7505 90.52 31.7015 90.4205 31.6129C90.3211 31.5243 90.2577 31.4022 90.2424 31.2699V27.8072C90.2577 27.6749 90.3211 27.5528 90.4205 27.4642C90.52 27.3756 90.6485 27.3266 90.7817 27.3266C90.9149 27.3266 91.0435 27.3756 91.1429 27.4642C91.2424 27.5528 91.3058 27.6749 91.3211 27.8072V31.2699ZM95.3304 31.2699C95.3151 31.4022 95.2517 31.5243 95.1522 31.6129C95.0528 31.7015 94.9242 31.7505 94.791 31.7505C94.6578 31.7505 94.5293 31.7015 94.4298 31.6129C94.3304 31.5243 94.267 31.4022 94.2517 31.2699V27.8072C94.267 27.6749 94.3304 27.5528 94.4298 27.4642C94.5293 27.3756 94.6578 27.3266 94.791 27.3266C94.9242 27.3266 95.0528 27.3756 95.1522 27.4642C95.2517 27.5528 95.3151 27.6749 95.3304 27.8072V31.2699ZM99.3397 31.2699C99.3244 31.4022 99.261 31.5243 99.1615 31.6129C99.0621 31.7015 98.9335 31.7505 98.8003 31.7505C98.6671 31.7505 98.5386 31.7015 98.4391 31.6129C98.3397 31.5243 98.2762 31.4022 98.2609 31.2699V27.8072C98.2762 27.6749 98.3397 27.5528 98.4391 27.4642C98.5386 27.3756 98.6671 27.3266 98.8003 27.3266C98.9335 27.3266 99.0621 27.3756 99.1615 27.4642C99.261 27.5528 99.3244 27.6749 99.3397 27.8072V31.2699ZM103.349 31.2699C103.334 31.4022 103.27 31.5243 103.171 31.6129C103.071 31.7015 102.943 31.7505 102.81 31.7505C102.676 31.7505 102.548 31.7015 102.448 31.6129C102.349 31.5243 102.285 31.4022 102.27 31.2699V27.8072C102.285 27.6749 102.349 27.5528 102.448 27.4642C102.548 27.3756 102.676 27.3266 102.81 27.3266C102.943 27.3266 103.071 27.3756 103.171 27.4642C103.27 27.5528 103.334 27.6749 103.349 27.8072V31.2699Z" fill="#FFD126"/>
<path d="M104.669 40.4213H80.9366C80.7169 40.4213 80.5062 40.5083 80.3505 40.6632C80.1948 40.8182 80.1069 41.0286 80.106 41.2483V45.4014C80.106 45.6217 80.1934 45.833 80.3492 45.9887C80.505 46.1445 80.7163 46.232 80.9366 46.232H104.669C104.777 46.232 104.885 46.2105 104.986 46.1687C105.086 46.1269 105.178 46.0657 105.255 45.9885C105.331 45.9113 105.392 45.8197 105.434 45.719C105.475 45.6182 105.496 45.5103 105.496 45.4014V41.2483C105.496 41.0289 105.408 40.8186 105.253 40.6635C105.098 40.5084 104.888 40.4213 104.669 40.4213ZM83.3025 45.0562C83.3113 45.1323 83.304 45.2093 83.2809 45.2823C83.2578 45.3553 83.2195 45.4226 83.1686 45.4798C83.1176 45.5369 83.0552 45.5827 82.9853 45.614C82.9155 45.6453 82.8398 45.6615 82.7632 45.6615C82.6866 45.6615 82.6109 45.6453 82.5411 45.614C82.4712 45.5827 82.4088 45.5369 82.3578 45.4798C82.3069 45.4226 82.2686 45.3553 82.2455 45.2823C82.2224 45.2093 82.215 45.1323 82.2238 45.0562V41.597C82.215 41.521 82.2224 41.4439 82.2455 41.3709C82.2686 41.2979 82.3069 41.2306 82.3578 41.1735C82.4088 41.1163 82.4712 41.0706 82.5411 41.0392C82.6109 41.0079 82.6866 40.9917 82.7632 40.9917C82.8398 40.9917 82.9155 41.0079 82.9853 41.0392C83.0552 41.0706 83.1176 41.1163 83.1686 41.1735C83.2195 41.2306 83.2578 41.2979 83.2809 41.3709C83.304 41.4439 83.3113 41.521 83.3025 41.597V45.0562ZM87.3118 45.0562C87.2965 45.1885 87.2331 45.3106 87.1337 45.3992C87.0342 45.4878 86.9057 45.5368 86.7725 45.5368C86.6393 45.5368 86.5107 45.4878 86.4113 45.3992C86.3118 45.3106 86.2484 45.1885 86.2331 45.0562V41.597C86.2484 41.4647 86.3118 41.3427 86.4113 41.2541C86.5107 41.1654 86.6393 41.1165 86.7725 41.1165C86.9057 41.1165 87.0342 41.1654 87.1337 41.2541C87.2331 41.3427 87.2965 41.4647 87.3118 41.597V45.0562ZM91.3211 45.0562C91.3058 45.1885 91.2424 45.3106 91.1429 45.3992C91.0435 45.4878 90.9149 45.5368 90.7817 45.5368C90.6485 45.5368 90.52 45.4878 90.4205 45.3992C90.3211 45.3106 90.2577 45.1885 90.2424 45.0562V41.597C90.2577 41.4647 90.3211 41.3427 90.4205 41.2541C90.52 41.1654 90.6485 41.1165 90.7817 41.1165C90.9149 41.1165 91.0435 41.1654 91.1429 41.2541C91.2424 41.3427 91.3058 41.4647 91.3211 41.597V45.0562ZM95.3304 45.0562C95.3392 45.1323 95.3318 45.2093 95.3087 45.2823C95.2856 45.3553 95.2474 45.4226 95.1964 45.4798C95.1455 45.5369 95.083 45.5827 95.0132 45.614C94.9433 45.6453 94.8676 45.6615 94.791 45.6615C94.7145 45.6615 94.6387 45.6453 94.5689 45.614C94.499 45.5827 94.4366 45.5369 94.3856 45.4798C94.3347 45.4226 94.2964 45.3553 94.2733 45.2823C94.2503 45.2093 94.2429 45.1323 94.2517 45.0562V41.597C94.2429 41.521 94.2503 41.4439 94.2733 41.3709C94.2964 41.2979 94.3347 41.2306 94.3856 41.1735C94.4366 41.1163 94.499 41.0706 94.5689 41.0392C94.6387 41.0079 94.7145 40.9917 94.791 40.9917C94.8676 40.9917 94.9433 41.0079 95.0132 41.0392C95.083 41.0706 95.1455 41.1163 95.1964 41.1735C95.2474 41.2306 95.2856 41.2979 95.3087 41.3709C95.3318 41.4439 95.3392 41.521 95.3304 41.597V45.0562ZM99.3397 45.0562C99.3485 45.1323 99.3411 45.2093 99.318 45.2823C99.2949 45.3553 99.2566 45.4226 99.2057 45.4798C99.1547 45.5369 99.0923 45.5827 99.0224 45.614C98.9525 45.6453 98.8769 45.6615 98.8003 45.6615C98.7237 45.6615 98.648 45.6453 98.5782 45.614C98.5083 45.5827 98.4458 45.5369 98.3949 45.4798C98.344 45.4226 98.3057 45.3553 98.2826 45.2823C98.2595 45.2093 98.2521 45.1323 98.2609 45.0562V41.597C98.2521 41.521 98.2595 41.4439 98.2826 41.3709C98.3057 41.2979 98.344 41.2306 98.3949 41.1735C98.4458 41.1163 98.5083 41.0706 98.5782 41.0392C98.648 41.0079 98.7237 40.9917 98.8003 40.9917C98.8769 40.9917 98.9525 41.0079 99.0224 41.0392C99.0923 41.0706 99.1547 41.1163 99.2057 41.1735C99.2566 41.2306 99.2949 41.2979 99.318 41.3709C99.3411 41.4439 99.3485 41.521 99.3397 41.597V45.0562ZM103.349 45.0562C103.358 45.1323 103.35 45.2093 103.327 45.2823C103.304 45.3553 103.266 45.4226 103.215 45.4798C103.164 45.5369 103.102 45.5827 103.032 45.614C102.962 45.6453 102.886 45.6615 102.81 45.6615C102.733 45.6615 102.657 45.6453 102.587 45.614C102.518 45.5827 102.455 45.5369 102.404 45.4798C102.353 45.4226 102.315 45.3553 102.292 45.2823C102.269 45.2093 102.261 45.1323 102.27 45.0562V41.597C102.261 41.521 102.269 41.4439 102.292 41.3709C102.315 41.2979 102.353 41.2306 102.404 41.1735C102.455 41.1163 102.518 41.0706 102.587 41.0392C102.657 41.0079 102.733 40.9917 102.81 40.9917C102.886 40.9917 102.962 41.0079 103.032 41.0392C103.102 41.0706 103.164 41.1163 103.215 41.1735C103.266 41.2306 103.304 41.2979 103.327 41.3709C103.35 41.4439 103.358 41.521 103.349 41.597V45.0562Z" fill="#FFD126"/>
<path d="M107.599 33.5281H83.8668C83.7579 33.5276 83.6499 33.5487 83.5492 33.59C83.4484 33.6314 83.3568 33.6922 83.2797 33.7691C83.2025 33.8459 83.1412 33.9372 83.0994 34.0378C83.0576 34.1384 83.0361 34.2462 83.0361 34.3551V38.5082C83.0357 38.6174 83.0569 38.7257 83.0984 38.8267C83.14 38.9276 83.2012 39.0194 83.2784 39.0966C83.3556 39.1738 83.4473 39.235 83.5483 39.2766C83.6493 39.3181 83.7576 39.3393 83.8668 39.3388H107.599C107.708 39.3393 107.816 39.3181 107.917 39.2766C108.018 39.235 108.11 39.1738 108.187 39.0966C108.264 39.0194 108.326 38.9276 108.367 38.8267C108.409 38.7257 108.43 38.6174 108.429 38.5082V34.3551C108.429 34.2462 108.408 34.1384 108.366 34.0378C108.324 33.9372 108.263 33.8459 108.186 33.7691C108.109 33.6922 108.017 33.6314 107.916 33.59C107.816 33.5487 107.708 33.5276 107.599 33.5281ZM86.2364 38.163C86.2211 38.2953 86.1577 38.4174 86.0582 38.506C85.9588 38.5946 85.8302 38.6436 85.697 38.6436C85.5638 38.6436 85.4353 38.5946 85.3358 38.506C85.2364 38.4174 85.173 38.2953 85.1576 38.163V34.7039C85.1489 34.6278 85.1562 34.5508 85.1793 34.4778C85.2024 34.4048 85.2407 34.3375 85.2917 34.2803C85.3426 34.2232 85.405 34.1774 85.4749 34.1461C85.5447 34.1147 85.6204 34.0986 85.697 34.0986C85.7736 34.0986 85.8493 34.1147 85.9192 34.1461C85.989 34.1774 86.0515 34.2232 86.1024 34.2803C86.1533 34.3375 86.1916 34.4048 86.2147 34.4778C86.2378 34.5508 86.2452 34.6278 86.2364 34.7039V38.163ZM90.2457 38.163C90.2304 38.2953 90.1669 38.4174 90.0675 38.506C89.968 38.5946 89.8395 38.6436 89.7063 38.6436C89.5731 38.6436 89.4445 38.5946 89.3451 38.506C89.2456 38.4174 89.1822 38.2953 89.1669 38.163V34.7039C89.1581 34.6278 89.1655 34.5508 89.1886 34.4778C89.2117 34.4048 89.25 34.3375 89.3009 34.2803C89.3518 34.2232 89.4143 34.1774 89.4841 34.1461C89.554 34.1147 89.6297 34.0986 89.7063 34.0986C89.7829 34.0986 89.8586 34.1147 89.9284 34.1461C89.9983 34.1774 90.0608 34.2232 90.1117 34.2803C90.1626 34.3375 90.2009 34.4048 90.224 34.4778C90.2471 34.5508 90.2545 34.6278 90.2457 34.7039V38.163ZM94.2549 38.163C94.2396 38.2953 94.1762 38.4174 94.0768 38.506C93.9773 38.5946 93.8488 38.6436 93.7156 38.6436C93.5824 38.6436 93.4538 38.5946 93.3544 38.506C93.2549 38.4174 93.1915 38.2953 93.1762 38.163V34.7039C93.1674 34.6278 93.1748 34.5508 93.1979 34.4778C93.221 34.4048 93.2592 34.3375 93.3102 34.2803C93.3611 34.2232 93.4236 34.1774 93.4934 34.1461C93.5633 34.1147 93.639 34.0986 93.7156 34.0986C93.7921 34.0986 93.8679 34.1147 93.9377 34.1461C94.0076 34.1774 94.07 34.2232 94.1209 34.2803C94.1719 34.3375 94.2102 34.4048 94.2333 34.4778C94.2563 34.5508 94.2637 34.6278 94.2549 34.7039V38.163ZM98.2606 38.163C98.2453 38.2953 98.1819 38.4174 98.0825 38.506C97.983 38.5946 97.8545 38.6436 97.7213 38.6436C97.5881 38.6436 97.4595 38.5946 97.3601 38.506C97.2606 38.4174 97.1972 38.2953 97.1819 38.163V34.7039C97.1731 34.6278 97.1805 34.5508 97.2036 34.4778C97.2267 34.4048 97.2649 34.3375 97.3159 34.2803C97.3668 34.2232 97.4292 34.1774 97.4991 34.1461C97.569 34.1147 97.6447 34.0986 97.7213 34.0986C97.7978 34.0986 97.8735 34.1147 97.9434 34.1461C98.0132 34.1774 98.0757 34.2232 98.1266 34.2803C98.1775 34.3375 98.2158 34.4048 98.2389 34.4778C98.262 34.5508 98.2694 34.6278 98.2606 34.7039V38.163ZM102.27 38.163C102.255 38.2953 102.191 38.4174 102.092 38.506C101.992 38.5946 101.864 38.6436 101.73 38.6436C101.597 38.6436 101.469 38.5946 101.369 38.506C101.27 38.4174 101.206 38.2953 101.191 38.163V34.7039C101.182 34.6278 101.19 34.5508 101.213 34.4778C101.236 34.4048 101.274 34.3375 101.325 34.2803C101.376 34.2232 101.439 34.1774 101.508 34.1461C101.578 34.1147 101.654 34.0986 101.73 34.0986C101.807 34.0986 101.883 34.1147 101.953 34.1461C102.023 34.1774 102.085 34.2232 102.136 34.2803C102.187 34.3375 102.225 34.4048 102.248 34.4778C102.271 34.5508 102.279 34.6278 102.27 34.7039V38.163ZM106.279 38.163C106.264 38.2953 106.2 38.4174 106.101 38.506C106.002 38.5946 105.873 38.6436 105.74 38.6436C105.607 38.6436 105.478 38.5946 105.379 38.506C105.279 38.4174 105.216 38.2953 105.2 38.163V34.7039C105.192 34.6278 105.199 34.5508 105.222 34.4778C105.245 34.4048 105.283 34.3375 105.334 34.2803C105.385 34.2232 105.448 34.1774 105.518 34.1461C105.588 34.1147 105.663 34.0986 105.74 34.0986C105.816 34.0986 105.892 34.1147 105.962 34.1461C106.032 34.1774 106.094 34.2232 106.145 34.2803C106.196 34.3375 106.234 34.4048 106.257 34.4778C106.281 34.5508 106.288 34.6278 106.279 34.7039V38.163Z" fill="#FFD126"/>
<path d="M92.5825 0.551392C90.311 0.551392 88.0906 1.22495 86.2019 2.48692C84.3132 3.74889 82.8412 5.54258 81.9719 7.64116C81.1026 9.73975 80.8752 12.049 81.3183 14.2768C81.7615 16.5047 82.8553 18.551 84.4615 20.1572C86.0677 21.7634 88.1141 22.8573 90.3419 23.3004C92.5698 23.7436 94.879 23.5161 96.9776 22.6469C99.0762 21.7776 100.87 20.3055 102.132 18.4169C103.394 16.5282 104.067 14.3077 104.067 12.0362C104.062 8.992 102.85 6.07409 100.697 3.92149C98.5447 1.7689 95.6267 0.557094 92.5825 0.551392ZM95.434 17.135C94.8746 17.623 94.1937 17.951 93.4635 18.0843V19.0552C93.4491 19.2795 93.3499 19.4901 93.1859 19.6439C93.0219 19.7977 92.8056 19.8833 92.5807 19.8833C92.3559 19.8833 92.1395 19.7977 91.9755 19.6439C91.8115 19.4901 91.7123 19.2795 91.698 19.0552V18.2389C91.1706 18.2293 90.6459 18.1605 90.1338 18.034C89.8641 17.9657 89.6592 17.8973 89.3895 17.829C89.2777 17.7973 89.1736 17.7433 89.0833 17.6703C88.993 17.5972 88.9184 17.5066 88.8641 17.4039C88.8098 17.3012 88.7769 17.1886 88.7673 17.0729C88.7578 16.9571 88.7718 16.8406 88.8085 16.7304C88.8453 16.6202 88.904 16.5186 88.9811 16.4318C89.0581 16.3449 89.1521 16.2746 89.2571 16.225C89.3621 16.1754 89.4762 16.1477 89.5922 16.1434C89.7083 16.1391 89.824 16.1584 89.9324 16.2001C90.0691 16.2685 90.2704 16.2684 90.4754 16.3367C91.1662 16.4942 91.8744 16.5619 92.5825 16.5381C92.8923 16.559 93.203 16.5155 93.4952 16.4103C93.7873 16.3051 94.0544 16.1405 94.2797 15.9269C94.4416 15.7796 94.573 15.6018 94.6661 15.4038C94.7593 15.2057 94.8125 14.9912 94.8227 14.7726C94.8201 14.5426 94.7707 14.3155 94.6773 14.1053C94.5839 13.8951 94.4486 13.7061 94.2797 13.55C93.8045 13.1597 93.2479 12.8808 92.6508 12.7338L92.1726 12.5972H92.1043C91.0867 12.2592 88.9796 11.4429 88.7099 9.47245C88.6643 8.71266 88.8732 7.95934 89.3037 7.33158C89.7341 6.70383 90.3615 6.23743 91.0867 6.00613C91.2819 5.92834 91.4882 5.88221 91.698 5.86949V4.98855C91.6903 4.86788 91.7074 4.74693 91.7482 4.63314C91.7891 4.51935 91.8529 4.41512 91.9356 4.32694C92.0183 4.23876 92.1183 4.16851 92.2292 4.12046C92.3402 4.07242 92.4598 4.0476 92.5807 4.0476C92.7016 4.0476 92.8213 4.07242 92.9322 4.12046C93.0432 4.16851 93.1431 4.23876 93.2258 4.32694C93.3085 4.41512 93.3723 4.51935 93.4132 4.63314C93.4541 4.74693 93.4712 4.86788 93.4635 4.98855V5.80479C94.0672 5.90523 94.6597 6.06418 95.2326 6.27941C95.4263 6.36984 95.5784 6.53064 95.6579 6.72915C95.7373 6.92765 95.7383 7.14898 95.6604 7.34813C95.5826 7.54729 95.4319 7.70935 95.2389 7.80138C95.0459 7.8934 94.8251 7.90847 94.6213 7.84356C93.6001 7.43364 92.4459 7.29704 91.6296 7.57032C91.2801 7.66905 90.9749 7.8845 90.7648 8.18088C90.5548 8.47726 90.4527 8.83663 90.4754 9.19917C90.612 10.0154 91.698 10.5584 92.7839 10.9683L93.2621 11.1732C94.01 11.4429 94.891 11.7162 95.5023 12.3275C95.8498 12.6315 96.1264 13.008 96.3128 13.4304C96.4991 13.8528 96.5907 14.311 96.581 14.7726C96.5593 15.2234 96.4465 15.6652 96.2494 16.0713C96.0522 16.4773 95.7749 16.8392 95.434 17.135Z" fill="#FFD126"/>
<defs>
<linearGradient id="paint0_linear_426_1049" x1="51.3071" y1="27.6023" x2="59.6349" y2="27.6023" gradientUnits="userSpaceOnUse">
<stop stop-color="#F0F3FA"/>
<stop offset="0.58" stop-color="#F7F9FC"/>
<stop offset="1" stop-color="white"/>
</linearGradient>
<linearGradient id="paint1_linear_426_1049" x1="15.2271" y1="5.93418" x2="25.7482" y2="5.93418" gradientUnits="userSpaceOnUse">
<stop stop-color="#F0F3FA"/>
<stop offset="0.58" stop-color="#F7F9FC"/>
<stop offset="1" stop-color="white"/>
</linearGradient>
</defs>
</svg>
