<svg width="37" height="34" viewBox="0 0 37 34" fill="none" xmlns="http://www.w3.org/2000/svg">
<path fill-rule="evenodd" clip-rule="evenodd" d="M13.299 8.63895L1.50853 13.8276C1.42941 13.8612 1.3578 13.9103 1.29794 13.9719C1.23809 14.0336 1.19119 14.1067 1.16002 14.1868C1.12885 14.2669 1.11404 14.3524 1.11647 14.4383C1.11889 14.5242 1.1385 14.6088 1.17413 14.687L9.47674 33.5396C9.54824 33.6962 9.67827 33.8185 9.83892 33.8804C9.99958 33.9422 10.1781 33.9386 10.3361 33.8704L35.0929 22.9681C35.2459 22.8925 35.3648 22.7621 35.4261 22.6029C35.4874 22.4437 35.4865 22.2673 35.4237 22.1087L27.1211 3.2597C27.051 3.10272 26.9219 2.97964 26.7618 2.91706C26.6016 2.85448 26.4233 2.85744 26.2653 2.92529L14.482 8.10678L13.5579 6.01045C14.1644 5.5854 14.6039 4.96232 14.8008 4.24834C14.9977 3.53436 14.9396 2.77409 14.6367 2.09826C14.25 1.38301 13.6083 0.839499 12.8391 0.575855C12.07 0.31221 11.2298 0.347752 10.4857 0.675405C9.74154 1.00306 9.14801 1.59881 8.82315 2.34417C8.49828 3.08952 8.46589 3.92985 8.73241 4.698C9.02869 5.37792 9.55266 5.93332 10.2142 6.26867C10.8757 6.60402 11.6334 6.69836 12.3569 6.53544L13.299 8.63895ZM17.0782 22.0008L21.7922 19.9224C22.2628 19.7136 22.7972 19.7003 23.2776 19.8854C23.7581 20.0705 24.1453 20.4389 24.3542 20.9095C24.563 21.3801 24.5764 21.9144 24.3913 22.3949C24.2062 22.8754 23.8378 23.2626 23.3672 23.4715L18.6351 25.5462C18.1674 25.7393 17.6428 25.7419 17.1732 25.5533C16.7036 25.3648 16.3264 25.0001 16.1222 24.5371C15.918 24.0742 15.9029 23.5497 16.0802 23.0758C16.2574 22.6018 16.613 22.216 17.071 22.0008H17.0782ZM13.2019 16.8445C13.4307 17.3572 13.5021 17.9263 13.4073 18.4797C13.3124 19.0331 13.0555 19.5458 12.669 19.9531C12.2825 20.3604 11.7839 20.6438 11.2363 20.7676C10.6886 20.8913 10.1166 20.8498 9.59256 20.6482C9.06854 20.4467 8.61609 20.0942 8.29251 19.6354C7.96893 19.1765 7.78877 18.632 7.77483 18.0707C7.76089 17.5095 7.91379 16.9567 8.21419 16.4823C8.5146 16.008 8.94898 15.6335 9.46235 15.4062C10.149 15.1011 10.9287 15.0812 11.63 15.351C12.3313 15.6207 12.8967 16.1579 13.2019 16.8445ZM25.7547 11.3178C25.98 11.8314 26.048 12.4003 25.95 12.9526C25.8521 13.5048 25.5927 14.0156 25.2046 14.4205C24.8165 14.8254 24.3171 15.1061 23.7695 15.2273C23.2218 15.3485 22.6506 15.3046 22.1279 15.1013C21.6052 14.8979 21.1545 14.5442 20.8328 14.0848C20.511 13.6254 20.3327 13.081 20.3202 12.5202C20.3078 11.9595 20.4618 11.4077 20.7628 10.9345C21.0639 10.4612 21.4984 10.0879 22.0116 9.86151C22.7011 9.55841 23.4827 9.54154 24.1847 9.81463C24.8866 10.0877 25.4514 10.6284 25.7547 11.3178Z" fill="url(#paint0_linear_426_1048)"/>
<path fill-rule="evenodd" clip-rule="evenodd" d="M1.73796 20.7458L2.33485 20.4833L5.97376 28.7536L5.37687 29.0161C4.75154 29.2894 4.04342 29.304 3.40734 29.0567C2.77126 28.8095 2.25897 28.3204 1.98247 27.6964L0.432698 24.1762C0.157427 23.549 0.140037 22.8387 0.384286 22.1988C0.628535 21.5589 1.1148 21.0409 1.73796 20.7566V20.7458Z" fill="#2F53A0"/>
<path fill-rule="evenodd" clip-rule="evenodd" d="M30.6118 8.02761L31.2087 7.76512C31.8392 7.4978 32.5496 7.48897 33.1866 7.74054C33.8236 7.9921 34.3362 8.48391 34.6139 9.10993L36.1637 12.6302C36.4372 13.2551 36.4524 13.9628 36.2058 14.5988C35.9592 15.2348 35.4709 15.7474 34.8476 16.0246L34.2507 16.2871L30.6118 8.02761Z" fill="#2F53A0"/>
<defs>
<linearGradient id="paint0_linear_426_1048" x1="6.37355" y1="31.0617" x2="28.6058" y2="4.44394" gradientUnits="userSpaceOnUse">
<stop offset="0.17" stop-color="#4E76B9"/>
<stop offset="0.47" stop-color="#3C67AE"/>
<stop offset="1" stop-color="#25519E"/>
</linearGradient>
</defs>
</svg>
