<svg width="37" height="37" viewBox="0 0 37 37" fill="none" xmlns="http://www.w3.org/2000/svg">
<path d="M1.01918 20.4818L2.13386 27.5079C2.14136 27.5553 2.15826 27.6007 2.18358 27.6415C2.2089 27.6822 2.24213 27.7175 2.28129 27.7452L9.47281 32.8404L9.51236 32.8584L9.57708 32.8872L23.8522 36.4218C23.9003 36.434 23.9503 36.4361 23.9992 36.4281C24.048 36.42 24.0947 36.402 24.1363 36.375L33.3091 30.46C33.3302 30.4485 33.3486 30.4325 33.363 30.4133L36.5992 26.8679C36.6356 26.828 36.6626 26.7805 36.6782 26.7289C36.6937 26.6772 36.6975 26.6227 36.6891 26.5694L34.9308 14.6351C34.9325 14.6208 34.9325 14.6063 34.9308 14.5919V14.5632L32.0254 5.24296C32.011 5.19743 31.9877 5.15523 31.9569 5.1188C31.926 5.08238 31.8882 5.05247 31.8456 5.03081L24.2658 1.04311C24.2408 1.02922 24.2142 1.01836 24.1867 1.01075C24.1276 0.996416 24.0659 0.996416 24.0069 1.01075L18.4262 2.48501C18.3877 2.49568 18.3513 2.5127 18.3184 2.53535L8.8004 8.87108C8.8004 8.87108 8.8004 8.87108 8.78242 8.88906L8.73208 8.93581C8.72221 8.94748 8.71139 8.9583 8.69972 8.96817L1.07671 20.2193C1.02433 20.2961 1.00371 20.3901 1.01918 20.4818ZM26.9698 24.6924L32.536 30.0861L26.9698 24.6924ZM34.2692 14.9371L35.9664 26.4795L34.2692 14.9371ZM19.1742 3.01359L24.0608 1.72271L19.1742 3.01359ZM9.44044 9.29178L18.4586 3.29046L9.44044 9.29178ZM9.57708 32.0314L2.83144 27.2454L9.57708 32.0314Z" fill="#D6D6D6"/>
<path d="M1.00501 20.4818L2.1233 27.5079C2.13079 27.5553 2.1477 27.6007 2.17302 27.6415C2.19834 27.6822 2.23155 27.7175 2.27072 27.7452L9.46224 32.8404L9.50539 32.8584L9.57011 32.8872L23.8453 36.4218C23.8933 36.434 23.9433 36.4361 23.9922 36.4281C24.0411 36.42 24.0878 36.402 24.1293 36.375L33.3093 30.46C33.329 30.4465 33.3471 30.4309 33.3633 30.4133L36.5994 26.8679C36.6359 26.828 36.6628 26.7805 36.6784 26.7289C36.694 26.6772 36.6977 26.6227 36.6893 26.5694L34.931 14.6351C34.931 14.6351 34.931 14.6063 34.931 14.5919V14.5632L32.022 5.24296C32.0081 5.19774 31.9853 5.15573 31.9551 5.11932C31.9249 5.08292 31.8877 5.05284 31.8458 5.03081L24.266 1.04311C24.24 1.02866 24.2122 1.01777 24.1833 1.01075C24.1242 0.996416 24.0626 0.996416 24.0035 1.01075L18.4229 2.48501C18.3847 2.4966 18.3484 2.51355 18.315 2.53535L8.80062 8.87108C8.80062 8.87108 8.80062 8.87108 8.78264 8.88906C8.76418 8.90272 8.74729 8.9184 8.7323 8.93581L8.69994 8.96817L1.06255 20.2193C1.01017 20.2961 0.989549 20.3901 1.00501 20.4818ZM23.8705 35.6918L10.2353 32.3154L14.5502 25.4835L26.952 24.6852L32.5183 30.0789L23.8705 35.6918ZM35.9558 26.4939L33.0792 29.6366L27.4518 24.171V13.2651L34.255 14.9515L35.9558 26.4939ZM24.0502 1.73709L31.3748 5.59175L34.05 14.1425L27.2936 12.4704L19.1636 3.01718L24.0502 1.73709ZM18.448 3.30485L26.7183 12.9379V23.9841L14.6114 24.7607L9.42988 9.29898L18.448 3.30485ZM8.88692 9.96779L13.9533 25.0915L9.57731 32.0314L2.83166 27.2454L1.75293 20.507L8.88692 9.96779Z" fill="#022791" stroke="#022791" stroke-width="0.359576" stroke-miterlimit="10"/>
</svg>
