<svg width="60" height="60" viewBox="0 0 60 60" fill="none" xmlns="http://www.w3.org/2000/svg">
<g clip-path="url(#clip0_642_4161)">
<path d="M30 60C46.5685 60 60 46.5685 60 30C60 13.4315 46.5685 0 30 0C13.4315 0 0 13.4315 0 30C0 46.5685 13.4315 60 30 60Z" fill="#4D75FE"/>
<path d="M41.5244 17.8519H40.6521C40.4777 17.8519 40.3301 17.9928 40.3301 18.174C40.3301 18.3552 40.471 18.4961 40.6521 18.4961H41.5244C41.6989 18.4961 41.8465 18.3552 41.8465 18.174C41.8465 17.9928 41.7056 17.8519 41.5244 17.8519Z" fill="white"/>
<path d="M39.2161 17.8519H38.3438C38.1693 17.8519 38.0217 17.9928 38.0217 18.174C38.0217 18.3552 38.1626 18.4961 38.3438 18.4961H39.2161C39.3905 18.4961 39.5382 18.3552 39.5382 18.174C39.5382 17.9928 39.3973 17.8519 39.2161 17.8519Z" fill="white"/>
<path d="M36.9007 17.8519H36.0284C35.8539 17.8519 35.7063 17.9928 35.7063 18.174C35.7063 18.3552 35.8472 18.4961 36.0284 18.4961H36.9007C37.0751 18.4961 37.2227 18.3552 37.2227 18.174C37.2227 17.9928 37.0818 17.8519 36.9007 17.8519Z" fill="white"/>
<path d="M34.5928 17.8519H17.9456C17.7712 17.8519 17.6235 17.9928 17.6235 18.174C17.6235 18.3552 17.7644 18.4961 17.9456 18.4961H34.5928C34.7672 18.4961 34.9149 18.3552 34.9149 18.174C34.9149 17.9995 34.774 17.8519 34.5928 17.8519Z" fill="white"/>
<path d="M29.7349 24.0989C25.1789 24.0989 21.4751 27.8027 21.4751 32.3587C21.4751 36.9147 25.1789 40.6185 29.7349 40.6185C34.2909 40.6185 37.9948 36.9147 37.9948 32.3587C37.9948 27.8027 34.2909 24.0989 29.7349 24.0989ZM34.1635 32.0433C34.1433 31.0302 34.0293 30.0639 33.8414 29.1849C35.7671 29.8157 37.1225 30.8624 37.3305 32.0433H34.1702H34.1635ZM33.526 32.0433H30.0503V28.5676C31.144 28.5945 32.184 28.7354 33.1167 28.9769C33.3583 29.9096 33.4992 30.9496 33.526 32.0433ZM30.0503 27.9302V24.7699C31.2312 24.9779 32.278 26.3333 32.9087 28.259C32.0297 28.0644 31.0635 27.957 30.0503 27.9369V27.9302ZM29.4129 24.7699V27.9302C28.3997 27.9503 27.4335 28.0644 26.5545 28.2523C27.1852 26.3266 28.2319 24.9712 29.4129 24.7632V24.7699ZM29.4129 28.5676V32.0433H25.9372C25.964 30.9496 26.1049 29.9096 26.3465 28.9769C27.2791 28.7354 28.3192 28.5945 29.4129 28.5676ZM25.2997 32.0433H22.1394C22.3474 30.8624 23.7028 29.8157 25.6285 29.1849C25.4339 30.0639 25.3266 31.0302 25.3064 32.0433H25.2997ZM25.2997 32.6808C25.3199 33.694 25.4339 34.6602 25.6218 35.5392C23.6961 34.9085 22.3407 33.8617 22.1327 32.6808H25.293H25.2997ZM25.9372 32.6808H29.4129V36.1565C28.3192 36.1296 27.2791 35.9887 26.3465 35.7472C26.1049 34.8145 25.964 33.7745 25.9372 32.6808ZM29.4129 36.7939V39.9543C28.2319 39.7463 27.1852 38.3909 26.5545 36.4651C27.4335 36.6597 28.3997 36.7671 29.4129 36.7872V36.7939ZM30.0503 39.9543V36.7939C31.0635 36.7738 32.0297 36.6597 32.9087 36.4719C32.278 38.3976 31.2312 39.753 30.0503 39.961V39.9543ZM30.0503 36.1565V32.6808H33.526C33.4992 33.7745 33.3583 34.8145 33.1167 35.7472C32.1773 35.9887 31.144 36.1296 30.0503 36.1565ZM34.1635 32.6808H37.3238C37.1158 33.8617 35.7604 34.9085 33.8347 35.5392C34.0293 34.6602 34.1366 33.694 34.1567 32.6808H34.1635ZM37.0688 30.2921C36.3106 29.5003 35.1163 28.8562 33.6535 28.4402C33.2375 26.9774 32.5933 25.7898 31.8016 25.0248C34.3446 25.7428 36.3509 27.749 37.0688 30.2921ZM27.6616 25.0248C26.8698 25.7831 26.2257 26.9774 25.8097 28.4402C24.3469 28.8562 23.1593 29.5003 22.3943 30.2921C23.1123 27.749 25.1186 25.7428 27.6616 25.0248ZM22.3943 34.4253C23.1526 35.2171 24.3469 35.8613 25.8097 36.2773C26.2257 37.74 26.8698 38.9277 27.6616 39.6926C25.1186 38.9746 23.1123 36.9684 22.3943 34.4253ZM31.8016 39.6926C32.5933 38.9344 33.2375 37.74 33.6535 36.2773C35.1163 35.8613 36.3039 35.2171 37.0688 34.4253C36.3509 36.9684 34.3446 38.9746 31.8016 39.6926Z" fill="white"/>
<path d="M19.2405 23.817C19.415 23.817 19.5626 23.6761 19.5626 23.4949V22.3945C22.5217 25.3066 22.7297 25.8098 23.0786 25.4609C23.4946 25.0449 22.6961 24.7966 20.0122 21.9382H21.1126C21.287 21.9382 21.4347 21.7973 21.4347 21.6161C21.4347 21.435 21.2938 21.2941 21.1126 21.2941H19.2405C19.2003 21.2941 19.16 21.3008 19.1198 21.3209C19.0392 21.3545 18.9788 21.4148 18.9453 21.4954C18.9319 21.5356 18.9185 21.5759 18.9185 21.6161V23.4882C18.9185 23.6626 19.0594 23.8103 19.2405 23.8103V23.817Z" fill="white"/>
<path d="M19.5627 42.3228C19.4956 41.6787 19.7572 40.9003 19.2406 40.9003C18.6904 40.9003 19.0125 41.7122 18.9185 43.0945C18.9185 43.1347 18.9252 43.175 18.9454 43.2152C18.9789 43.2958 19.0393 43.3562 19.1198 43.3897C19.1601 43.4031 19.2003 43.4165 19.2406 43.4165H21.1126C21.2871 43.4165 21.4347 43.2756 21.4347 43.0945C21.4347 42.5778 20.6765 42.8395 20.0122 42.7724C22.7096 39.9073 23.4946 39.6657 23.0786 39.2497C22.6626 38.8337 22.4144 39.6322 19.556 42.3161L19.5627 42.3228Z" fill="white"/>
<path d="M40.3498 21.3276C40.3096 21.3142 40.2693 21.3008 40.2291 21.3008H38.357C38.1826 21.3008 38.0349 21.4417 38.0349 21.6229C38.0349 21.804 38.1759 21.9449 38.357 21.9449H39.4574L36.391 25.0113C36.2635 25.1388 36.2635 25.3401 36.391 25.4609C36.4514 25.5213 36.5319 25.5548 36.6192 25.5548C36.7064 25.5548 36.7802 25.5213 36.8473 25.4609L39.9137 22.3945V23.4949C39.9137 23.6694 40.0546 23.817 40.2358 23.817C40.4169 23.817 40.5579 23.6761 40.5579 23.4949V21.6229C40.5579 21.5826 40.5511 21.5423 40.531 21.5021C40.4975 21.4216 40.4371 21.3612 40.3566 21.3276H40.3498Z" fill="white"/>
<path d="M40.2288 40.9003C40.0543 40.9003 39.9067 41.0412 39.9067 41.2224V42.3228L36.8403 39.2564C36.7128 39.1289 36.5115 39.1289 36.3907 39.2564C36.2699 39.3839 36.2632 39.5852 36.3907 39.7059L39.4571 42.7723H38.3567C38.1823 42.7723 38.0346 42.9132 38.0346 43.0944C38.0346 43.2756 38.1755 43.4165 38.3567 43.4165H40.2288C40.269 43.4165 40.3093 43.4098 40.3495 43.3897C40.4301 43.3561 40.4905 43.2957 40.524 43.2152C40.5374 43.1749 40.5508 43.1347 40.5508 43.0944V41.2224C40.5508 41.0479 40.4099 40.9003 40.2288 40.9003Z" fill="white"/>
<path d="M47.154 29.876L48.4892 31.2112C48.5496 31.2716 48.6302 31.3052 48.7174 31.3052C48.8046 31.3052 48.8851 31.2716 48.9455 31.2112L50.3747 29.782C50.5022 29.6546 50.5022 29.4533 50.3747 29.3325L48.9455 27.9033C48.8247 27.7825 48.6167 27.7825 48.496 27.9033L47.1607 29.2385H43.4434V26.1721H48.3081C48.4825 26.1721 48.6301 26.0312 48.6301 25.8501V20.4285C49.4286 20.2809 50.0392 19.5764 50.0392 18.7309C50.0392 17.7781 49.2609 16.9998 48.3081 16.9998C47.3553 16.9998 46.5769 17.7781 46.5769 18.7309C46.5769 19.5764 47.1875 20.2809 47.986 20.4285V25.5347H43.4434V16.3221C43.4434 16.1476 43.3025 16 43.1213 16H16.349C16.1745 16 16.0269 16.1409 16.0269 16.3221V25.5347H11.4843V20.4285C12.2828 20.2809 12.8934 19.5764 12.8934 18.7309C12.8934 17.7781 12.1151 16.9998 11.1623 16.9998C10.2095 16.9998 9.43111 17.7781 9.43111 18.7309C9.43111 19.5764 10.0417 20.2809 10.8402 20.4285V25.8501C10.8402 26.0245 10.9811 26.1721 11.1623 26.1721H16.0269V29.2385H12.3096L10.9744 27.9033C10.8536 27.7825 10.6456 27.7825 10.5248 27.9033L9.09562 29.3325C8.96813 29.46 8.96813 29.6613 9.09562 29.782L10.5248 31.2112C10.5852 31.2716 10.6657 31.3052 10.753 31.3052C10.8402 31.3052 10.9207 31.2716 10.9811 31.2112L12.3164 29.876H16.0336V32.9424H11.169C10.9945 32.9424 10.8469 33.0833 10.8469 33.2645V38.686C10.0484 38.8336 9.43782 39.5382 9.43782 40.3836C9.43782 41.3364 10.2162 42.1148 11.169 42.1148C12.1218 42.1148 12.9001 41.3364 12.9001 40.3836C12.9001 39.5382 12.2895 38.8336 11.491 38.686V33.5798H16.0336V44.6779C16.0336 44.8524 16.1745 45 16.3557 45H43.1281C43.3025 45 43.4501 44.8591 43.4501 44.6779V33.5798H47.9927V38.686C47.1942 38.8336 46.5836 39.5382 46.5836 40.3836C46.5836 41.3364 47.362 42.1081 48.3148 42.1081C49.2676 42.1081 50.0459 41.3297 50.0459 40.3836C50.0459 39.5382 49.4353 38.8336 48.6369 38.686V33.2645C48.6369 33.09 48.496 32.9424 48.3148 32.9424H43.4501V29.876H47.1674H47.154ZM48.7174 28.581L49.697 29.5606L48.7174 30.5403L47.7377 29.5606L48.7174 28.581ZM47.2144 18.7309C47.2144 18.127 47.7042 17.6372 48.3014 17.6372C48.8985 17.6372 49.3884 18.127 49.3884 18.7309C49.3884 19.3348 48.8985 19.8179 48.3014 19.8179C47.7042 19.8179 47.2144 19.3281 47.2144 18.7309ZM10.082 18.7309C10.082 18.127 10.5718 17.6372 11.169 17.6372C11.7661 17.6372 12.256 18.127 12.256 18.7309C12.256 19.3348 11.7661 19.8179 11.169 19.8179C10.5718 19.8179 10.082 19.3281 10.082 18.7309ZM10.7597 30.5335L9.78002 29.5539L10.7597 28.5743L11.7393 29.5539L10.7597 30.5335ZM12.2627 40.3836C12.2627 40.9875 11.7729 41.4773 11.1757 41.4773C10.5718 41.4773 10.0887 40.9875 10.0887 40.3836C10.0887 39.7797 10.5785 39.2966 11.1757 39.2966C11.7729 39.2966 12.2627 39.7864 12.2627 40.3836ZM49.3951 40.3836C49.3951 40.9875 48.9053 41.4706 48.3081 41.4706C47.7109 41.4706 47.2211 40.9808 47.2211 40.3836C47.2211 39.7864 47.7109 39.2899 48.3081 39.2899C48.9053 39.2899 49.3951 39.7797 49.3951 40.3836ZM16.6711 16.6374H42.806V19.7106H16.6711V16.6374ZM42.806 44.3626H16.6711V20.348H42.806V44.3626Z" fill="white"/>
</g>
<defs>
<clipPath id="clip0_642_4161">
<rect width="60" height="60" fill="white"/>
</clipPath>
</defs>
</svg>
