<svg width="60" height="60" viewBox="0 0 60 60" fill="none" xmlns="http://www.w3.org/2000/svg">
<g clip-path="url(#clip0_642_4206)">
<path d="M30 60C46.5685 60 60 46.5685 60 30C60 13.4315 46.5685 0 30 0C13.4315 0 0 13.4315 0 30C0 46.5685 13.4315 60 30 60Z" fill="#4D75FE"/>
<path d="M51.5267 40.0185V35.1493C51.5267 34.9313 51.349 34.7537 51.131 34.7537H44.5257C44.9617 33.4859 45.2443 32.1454 45.3493 30.7565H47.8606C48.0383 31.4752 48.6843 32.0082 49.4595 32.0082C50.3639 32.0082 51.1068 31.2733 51.1068 30.3609C51.1068 29.4484 50.3719 28.7136 49.4595 28.7136C48.6924 28.7136 48.0383 29.2465 47.8606 29.9652H45.3897C45.3897 29.8199 45.3897 29.6745 45.3897 29.5292C45.3897 28.3421 45.2605 27.1874 45.0102 26.0731H48.1998C48.4178 26.0731 48.5955 25.8954 48.5955 25.6774V21.5672C49.3141 21.3896 49.8471 20.7436 49.8471 19.9684C49.8471 19.064 49.1042 18.3211 48.1998 18.3211C47.2954 18.3211 46.5525 19.0559 46.5525 19.9684C46.5525 20.7355 47.0854 21.3896 47.8041 21.5672V25.2817H44.8164C43.4113 20.1703 39.5192 16.0763 34.5369 14.3724V9.04297H39.0105C39.1881 9.76164 39.8341 10.2946 40.6093 10.2946C41.5137 10.2946 42.2566 9.55976 42.2566 8.64729C42.2566 7.73482 41.5137 7 40.6093 7C39.8422 7 39.1962 7.53295 39.0105 8.25162H34.1413C33.9232 8.25162 33.7456 8.42927 33.7456 8.64729V14.1302C32.4697 13.7668 31.1293 13.5649 29.7485 13.5326V11.9177C30.4671 11.74 31.0001 11.094 31.0001 10.3188C31.0001 9.41442 30.2572 8.67152 29.3528 8.67152C28.4484 8.67152 27.7055 9.40634 27.7055 10.3188C27.7055 11.0859 28.2385 11.74 28.9571 11.9177V13.5326C27.6167 13.5649 26.3085 13.7668 25.0731 14.114V11.5704C25.0731 11.3524 24.8954 11.1748 24.6774 11.1748H20.5753C20.3977 10.4561 19.7517 9.92314 18.9765 9.92314C18.0721 9.92314 17.3292 10.658 17.3292 11.5704C17.3292 12.4829 18.064 13.2177 18.9765 13.2177C19.7436 13.2177 20.3977 12.6848 20.5753 11.9661H24.2817V14.3644C19.2914 16.052 15.3912 20.1299 13.97 25.2414H8.04297V20.7678C8.76164 20.5902 9.29459 19.9442 9.29459 19.169C9.29459 18.2646 8.55977 17.5217 7.64729 17.5217C6.73482 17.5217 6 18.2565 6 19.169C6 19.9361 6.53295 20.5902 7.25162 20.7678V25.637C7.25162 25.855 7.42927 26.0327 7.64729 26.0327H13.7681C13.5178 27.1632 13.3805 28.3341 13.3805 29.5372C13.3805 29.6987 13.3805 29.8602 13.3886 30.0298H10.9096C10.7319 29.3111 10.0859 28.7782 9.31074 28.7782C8.40634 28.7782 7.66344 29.513 7.66344 30.4255C7.66344 31.3379 8.39827 32.0728 9.31074 32.0728C10.0859 32.0728 10.7319 31.5398 10.9096 30.8212H13.429C13.5339 32.1697 13.8085 33.4697 14.2365 34.7052H10.5704C10.3524 34.7052 10.1748 34.8829 10.1748 35.1009V39.211C9.45609 39.3887 8.92314 40.0347 8.92314 40.8099C8.92314 41.7143 9.65796 42.4572 10.5704 42.4572C11.4829 42.4572 12.2177 41.7143 12.2177 40.8099C12.2177 40.0347 11.6848 39.3887 10.9661 39.211V35.4966H14.5352C16.2714 39.8005 19.8243 43.1839 24.2333 44.6939V51.7353H19.7597C19.5821 51.0166 18.9361 50.4837 18.1609 50.4837C17.2565 50.4837 16.5136 51.2266 16.5136 52.131C16.5136 53.0354 17.2484 53.7783 18.1609 53.7783C18.928 53.7783 19.5821 53.2453 19.7597 52.5267H24.629C24.847 52.5267 25.0246 52.349 25.0246 52.131V44.9362C26.3005 45.2996 27.6409 45.5014 29.0217 45.5337V48.8606C28.3031 49.0383 27.7701 49.6843 27.7701 50.4595C27.7701 51.3639 28.5049 52.1068 29.4174 52.1068C30.3299 52.1068 31.0647 51.3719 31.0647 50.4595C31.0647 49.6923 30.5318 49.0383 29.8131 48.8606V45.5337C31.1535 45.5014 32.4617 45.2996 33.6971 44.9523V49.2078C33.6971 49.3047 33.7294 49.3855 33.786 49.4582C33.794 49.4663 33.8021 49.4824 33.8102 49.4905C33.8829 49.5632 33.9878 49.6035 34.0928 49.6035H38.1949C38.3725 50.3222 39.0185 50.8551 39.7937 50.8551C40.6981 50.8551 41.441 50.1122 41.441 49.2078C41.441 48.3035 40.7062 47.5606 39.7937 47.5606C39.0266 47.5606 38.3725 48.0935 38.1949 48.8122H34.4804V44.702C38.8974 43.2082 42.4666 39.8409 44.2107 35.5369H50.7192V40.0105C50.0005 40.1881 49.4675 40.8341 49.4675 41.6093C49.4675 42.5137 50.2104 43.2566 51.1148 43.2566C52.0192 43.2566 52.7621 42.5137 52.7621 41.6093C52.7621 40.8422 52.2292 40.1962 51.5105 40.0185H51.5267ZM49.4595 29.5049C49.9278 29.5049 50.3154 29.8845 50.3154 30.3609C50.3154 30.8373 49.9359 31.2168 49.4595 31.2168C48.9831 31.2168 48.6035 30.8373 48.6035 30.3609C48.6035 29.8925 48.9911 29.5049 49.4595 29.5049ZM47.3519 19.9845C47.3519 19.5162 47.7314 19.1286 48.2079 19.1286C48.6843 19.1286 49.0638 19.5081 49.0638 19.9845C49.0638 20.461 48.6843 20.8405 48.2079 20.8405C47.7314 20.8405 47.3519 20.461 47.3519 19.9845ZM18.9845 12.4345C18.5162 12.4345 18.1286 12.0469 18.1286 11.5785C18.1286 11.1102 18.5081 10.7226 18.9845 10.7226C19.461 10.7226 19.8405 11.1021 19.8405 11.5785C19.8405 12.0549 19.4529 12.4345 18.9845 12.4345ZM6.79942 19.169C6.79942 18.7006 7.17895 18.313 7.65537 18.313C8.13179 18.313 8.51132 18.6926 8.51132 19.169C8.51132 19.6454 8.13179 20.0249 7.65537 20.0249C7.17895 20.0249 6.79942 19.6454 6.79942 19.169ZM11.4345 40.8018C11.4345 41.2702 11.0549 41.6578 10.5785 41.6578C10.1021 41.6578 9.72256 41.2782 9.72256 40.8018C9.72256 40.3254 10.1021 39.9459 10.5785 39.9459C11.0549 39.9459 11.4345 40.3335 11.4345 40.8018ZM18.169 52.9869C17.7006 52.9869 17.313 52.6074 17.313 52.131C17.313 51.6546 17.6926 51.275 18.169 51.275C18.6454 51.275 19.0249 51.6626 19.0249 52.131C19.0249 52.5993 18.6454 52.9869 18.169 52.9869ZM40.6174 7.8075C41.0857 7.8075 41.4733 8.18702 41.4733 8.66344C41.4733 9.13987 41.0938 9.51939 40.6174 9.51939C40.141 9.51939 39.7614 9.13987 39.7614 8.66344C39.7614 8.18702 40.149 7.8075 40.6174 7.8075ZM28.513 10.335C28.513 9.86661 28.8925 9.47901 29.369 9.47901C29.8454 9.47901 30.2249 9.85854 30.2249 10.335C30.2249 10.8114 29.8454 11.1909 29.369 11.1909C28.9006 11.1909 28.513 10.8114 28.513 10.335ZM9.33496 31.2814C8.86661 31.2814 8.47901 30.9019 8.47901 30.4255C8.47901 29.9491 8.85854 29.5695 9.33496 29.5695C9.81139 29.5695 10.1909 29.9491 10.1909 30.4255C10.1909 30.9019 9.80331 31.2814 9.33496 31.2814ZM30.2814 50.4595C30.2814 50.9278 29.9019 51.3154 29.4255 51.3154C28.9491 51.3154 28.5695 50.9359 28.5695 50.4595C28.5695 49.983 28.9491 49.6035 29.4255 49.6035C29.8938 49.6035 30.2814 49.9911 30.2814 50.4595ZM39.8018 48.3519C40.2702 48.3519 40.6578 48.7314 40.6578 49.2078C40.6578 49.6843 40.2782 50.0638 39.8018 50.0638C39.3254 50.0638 38.9459 49.6843 38.9459 49.2078C38.9459 48.7314 39.3335 48.3519 39.8018 48.3519ZM29.3932 44.7505C21.0033 44.7505 14.1799 37.9271 14.1799 29.5372C14.1799 21.1473 21.0033 14.324 29.3932 14.324C37.7831 14.324 44.6064 21.1473 44.6064 29.5372C44.6064 37.9271 37.7831 44.7505 29.3932 44.7505ZM51.131 42.4733C50.6626 42.4733 50.275 42.0938 50.275 41.6174C50.275 41.141 50.6546 40.7614 51.131 40.7614C51.6074 40.7614 51.9869 41.141 51.9869 41.6174C51.9869 42.0857 51.6074 42.4733 51.131 42.4733Z" fill="white"/>
<path d="M36.1516 26.0811H35.869V25.1525C35.869 23.4164 35.1987 21.7853 33.9713 20.574C32.7439 19.3466 31.1209 18.6764 29.3848 18.6764C27.6486 18.6764 26.0336 19.3466 24.8063 20.574C23.5789 21.8014 22.9086 23.4245 22.9086 25.1525V26.0811H22.6341C21.6732 26.0811 20.8899 26.8644 20.8899 27.8253V31.879C20.8899 36.5705 24.7013 40.39 29.3928 40.39C34.0844 40.39 37.9039 36.5705 37.9039 31.879V27.8253C37.9039 26.8644 37.1206 26.0811 36.1516 26.0811ZM31.4116 35.5531C31.4439 35.6903 31.4116 35.8276 31.3066 35.9245C30.9755 36.2556 30.2326 36.4252 29.4817 36.4252C28.7307 36.4252 27.9878 36.2556 27.6567 35.9245C27.5598 35.8276 27.5194 35.6823 27.5517 35.545L28.0605 33.5263C27.4145 33.0741 27.0269 32.3312 27.0269 31.5237C27.0269 30.1751 28.1251 29.0689 29.4817 29.0689C30.8383 29.0689 31.9364 30.1671 31.9364 31.5237C31.9364 32.3312 31.5489 33.066 30.9029 33.5263L31.4035 35.545L31.4116 35.5531ZM32.7116 26.0811H26.0659V25.1525C26.0659 23.3195 27.5598 21.8337 29.3848 21.8337C31.2097 21.8337 32.7036 23.3276 32.7036 25.1525V26.0811H32.7116ZM35.0776 26.0811H33.503V25.1525C33.503 22.8834 31.6619 21.0424 29.3928 21.0424C27.1238 21.0424 25.2827 22.8834 25.2827 25.1525V26.0811H23.7V25.1525C23.7 23.6344 24.2895 22.2052 25.3634 21.1312C26.4455 20.0572 27.8747 19.4677 29.3848 19.4677C30.8948 19.4677 32.3402 20.0572 33.4142 21.1312C34.4881 22.1971 35.0776 23.6263 35.0776 25.1525V26.0811Z" fill="white"/>
</g>
<defs>
<clipPath id="clip0_642_4206">
<rect width="60" height="60" fill="white"/>
</clipPath>
</defs>
</svg>
