<svg width="60" height="60" viewBox="0 0 60 60" fill="none" xmlns="http://www.w3.org/2000/svg">
<g clip-path="url(#clip0_642_4128)">
<path d="M30 60C46.5685 60 60 46.5685 60 30C60 13.4315 46.5685 0 30 0C13.4315 0 0 13.4315 0 30C0 46.5685 13.4315 60 30 60Z" fill="#4D75FE"/>
<path d="M54.5768 28.1196C54.9529 28.1196 55.2523 28.4336 55.2384 28.8034C54.9111 35.1321 52.3135 41.1398 47.9053 45.7101C43.3439 50.4409 37.1738 53.2877 30.6137 53.6855L33.5385 56.6091C33.6639 56.7347 33.7335 56.9021 33.7335 57.0766C33.7335 57.251 33.6639 57.4185 33.5385 57.5441C33.4132 57.6696 33.2461 57.7394 33.072 57.7394C32.8979 57.7394 32.7307 57.6696 32.6054 57.5441L28.615 53.5459C28.5523 53.4831 28.5105 53.4133 28.4757 53.3296C28.413 53.1691 28.413 52.9947 28.4757 52.8342C28.5105 52.7505 28.5523 52.6807 28.615 52.6179L32.6054 48.6197C32.863 48.3616 33.2809 48.3616 33.5316 48.6197C33.7893 48.8779 33.7893 49.2966 33.5316 49.5478L30.7181 52.3667C36.9091 51.948 42.7171 49.2338 47.0139 44.7472C51.1644 40.4141 53.6158 34.7344 53.9222 28.7476C53.9431 28.3987 54.2216 28.1196 54.5698 28.1196H54.5768Z" fill="white"/>
<path d="M6.37884 32.2015C6.00279 32.2015 5.70334 31.8875 5.71726 31.5177C6.04457 25.189 8.64214 19.1813 13.0504 14.611C17.6118 9.8802 23.7819 7.03336 30.342 6.63563L27.4171 3.71203C27.2917 3.58644 27.2221 3.41897 27.2221 3.24453C27.2221 3.07009 27.2917 2.90263 27.4171 2.77704C27.5424 2.65144 27.7096 2.58167 27.8837 2.58167C28.0578 2.58167 28.2249 2.65144 28.3503 2.77704L32.3406 6.77519C32.4033 6.83798 32.4451 6.90776 32.4799 6.99149C32.5426 7.15197 32.5426 7.32641 32.4799 7.4869C32.4451 7.57063 32.4033 7.6404 32.3406 7.7032L28.3503 11.7014C28.0926 11.9595 27.6748 11.9595 27.4241 11.7014C27.1664 11.4432 27.1664 11.0245 27.4241 10.7733L30.2375 7.9544C24.0465 8.37305 18.2385 11.0873 13.9417 15.5739C9.7912 19.907 7.33988 25.5867 7.03346 31.5735C7.01257 31.9224 6.73401 32.2015 6.38581 32.2015H6.37884Z" fill="white"/>
<g clip-path="url(#clip1_642_4128)">
<path d="M23.66 22.55L23.37 24.69C22.92 24.84 22.48 25.02 22.06 25.23L21.08 24.55C20.68 24.27 20.2 24.15 19.72 24.19C19.24 24.23 18.79 24.44 18.45 24.79L17.46 25.78C17.12 26.12 16.91 26.58 16.87 27.06C16.83 27.54 16.96 28.02 17.24 28.42L17.92 29.4C17.7 29.83 17.52 30.27 17.38 30.71L16.2 30.94C15.72 31.02 15.29 31.27 14.97 31.64C14.66 32.01 14.49 32.48 14.49 32.97V34.37C14.49 34.85 14.66 35.33 14.97 35.7C15.28 36.07 15.72 36.32 16.19 36.4L17.36 36.61C17.51 37.06 17.69 37.5 17.9 37.92L17.22 38.9C16.94 39.3 16.82 39.78 16.86 40.26C16.9 40.74 17.11 41.2001 17.46 41.5401L18.45 42.53C18.79 42.87 19.24 43.08 19.72 43.13C20.2 43.17 20.68 43.0401 21.08 42.7701L22.06 42.09C22.48 42.31 22.92 42.49 23.37 42.63L23.58 43.8C23.66 44.28 23.91 44.71 24.28 45.03C24.65 45.34 25.12 45.51 25.6 45.51H27C27.49 45.51 27.95 45.34 28.33 45.03C28.7 44.72 28.95 44.28 29.03 43.8L29.24 42.63C29.69 42.48 30.13 42.3 30.55 42.09L31.53 42.7701C31.93 43.0501 32.41 43.17 32.89 43.13C33.37 43.09 33.82 42.88 34.16 42.53L35.15 41.5401C35.49 41.2001 35.7 40.74 35.75 40.26C35.79 39.78 35.66 39.3 35.39 38.9L34.71 37.92C34.93 37.49 35.11 37.05 35.25 36.61L36.42 36.4" stroke="white" stroke-width="0.8" stroke-miterlimit="10"/>
<path d="M44.3299 23.3799L43.4499 22.9699C43.3699 22.2899 43.1899 21.6299 42.9299 20.9999L43.4899 20.1999C43.7599 19.8199 43.8799 19.3499 43.8499 18.8899C43.8099 18.4199 43.6099 17.9899 43.2799 17.6499L42.3299 16.6999C41.9999 16.3699 41.5599 16.1599 41.0999 16.1299C40.6299 16.0899 40.1699 16.2099 39.7899 16.4899L38.9999 17.0599C38.3699 16.7899 37.7099 16.6199 37.0399 16.5399L36.6299 15.6499C36.4399 15.2199 36.0899 14.8799 35.6699 14.6899C35.2499 14.4899 34.7599 14.4499 34.3099 14.5699L33.0399 14.9099C32.5799 15.0299 32.1799 15.3099 31.9099 15.6899C31.6399 16.0699 31.5099 16.5499 31.5599 17.0199L31.6399 17.9699C31.0999 18.3799 30.6199 18.8699 30.2099 19.4099L29.2399 19.3299C28.7699 19.2899 28.3099 19.4099 27.9299 19.6799C27.5499 19.9499 27.2699 20.3399 27.1499 20.7999L26.8099 22.0699C26.6899 22.5199 26.7299 23.0099 26.9299 23.4299C27.1199 23.8599 27.4699 24.1999 27.8899 24.3899L28.7699 24.7999C28.8499 25.4799 29.0299 26.1399 29.2899 26.7699L28.7299 27.5699C28.4599 27.9499 28.3299 28.4199 28.3699 28.8799C28.4099 29.3499 28.6099 29.7799 28.9399 30.1199L29.8899 31.0699C30.2199 31.3999 30.6599 31.6099 31.1199 31.6399C31.5899 31.6799 32.0499 31.5599 32.4299 31.2799L33.2299 30.7199C33.8499 30.9899 34.4999 31.1699 35.1799 31.2599L35.5899 32.1499C35.7799 32.5799 36.1299 32.9099 36.5499 33.1099C36.9699 33.3099 37.4499 33.3499 37.8999 33.2199L39.1699 32.8799C39.6199 32.7599 40.0199 32.4799 40.2799 32.0999C40.5499 31.7199 40.6699 31.2499 40.6399 30.7799L40.5599 29.8099C40.8299 29.5999 41.0899 29.3799 41.3299 29.1399C41.5799 28.8999 41.8099 28.6399 42.0299 28.3699L42.9999 28.4499C43.4699 28.4899 43.9299 28.3699 44.3099 28.0999C44.6899 27.8299 44.9699 27.4399 45.0899 26.9799L45.4299 25.7099C45.5599 25.2599 45.5099 24.7699 45.3199 24.3399C45.1299 23.9099 44.7799 23.5699 44.3499 23.3699H44.3399L44.3299 23.3799Z" stroke="white" stroke-width="0.8" stroke-miterlimit="10"/>
<path d="M39.5799 21.66L35.8699 26.75L35.4899 26.46L33.6399 25.01" stroke="white" stroke-width="0.8" stroke-miterlimit="10"/>
<path d="M31.47 34.86C30.97 37.32 28.79 39.17 26.18 39.17C23.2 39.17 20.78 36.75 20.78 33.77C20.78 31.27 22.47 29.17 24.77 28.55" stroke="white" stroke-width="0.8" stroke-miterlimit="10"/>
</g>
</g>
<defs>
<clipPath id="clip0_642_4128">
<rect width="60" height="60" fill="white"/>
</clipPath>
<clipPath id="clip1_642_4128">
<rect width="31.99" height="32.01" fill="white" transform="translate(14 14)"/>
</clipPath>
</defs>
</svg>
