<svg width="110" height="110" viewBox="0 0 110 110" fill="none" xmlns="http://www.w3.org/2000/svg">
<g clip-path="url(#clip0_709_1370)">
<path d="M55 101.987C80.9503 101.987 101.987 80.9503 101.987 55C101.987 29.0496 80.9503 8.0127 55 8.0127C29.0496 8.0127 8.0127 29.0496 8.0127 55C8.0127 80.9503 29.0496 101.987 55 101.987Z" fill="#4D75FE"/>
<path d="M7.05273 30.3039C16.0145 12.9411 34.1214 1.07837 54.9998 1.07837" stroke="#4D75FE" stroke-width="2.66642" stroke-miterlimit="10" stroke-linecap="round"/>
<path d="M6.30852 78.197C2.9546 71.1657 1.07812 63.3039 1.07812 55C1.07812 49.6617 1.8546 44.5068 3.29969 39.6323" stroke="#4D75FE" stroke-width="2.66642" stroke-miterlimit="10" stroke-linecap="round"/>
<path d="M54.9995 108.922C40.1064 108.922 26.626 102.882 16.8662 93.1333" stroke="#4D75FE" stroke-width="2.66642" stroke-miterlimit="10" stroke-linecap="round"/>
<path d="M83.5026 9.22058C98.7624 18.7431 108.921 35.6853 108.921 55C108.921 75.9324 96.9938 94.0716 79.5771 103.012" stroke="#4D75FE" stroke-width="2.66642" stroke-miterlimit="10" stroke-linecap="round"/>
<path d="M85.379 70.551L79.4907 52.2393L69.9142 55.3128L75.8025 73.6246C77.3554 78.4451 74.6917 83.6216 69.8711 85.1746C65.0505 86.7275 59.8633 84.0638 58.3211 79.2432L52.4329 60.9314L42.8672 64.0049L48.7554 82.3167C52.0015 92.4108 62.8505 97.9863 72.9554 94.751C83.0495 91.505 88.625 80.6559 85.3897 70.551H85.379ZM78.1535 54.8491L80.7633 62.9697L75.1446 64.7706L72.5348 56.65L78.1535 54.8491ZM51.0956 63.5412L53.7054 71.6618L48.0868 73.4628L45.477 65.3422L51.0956 63.5412ZM72.3084 92.7775C63.3035 95.6677 53.6191 90.6961 50.7182 81.6912L48.7123 75.4579L54.3309 73.6569L56.3368 79.8902C58.2348 85.8 64.5868 89.0677 70.4966 87.1589C76.4064 85.25 79.6741 78.9089 77.776 72.9991L75.7701 66.7657L81.3888 64.9648L83.3946 71.1981C86.2848 80.203 81.3133 89.8873 72.3084 92.7883V92.7775Z" fill="white"/>
<path d="M43.7843 77.1402C43.7843 77.7333 43.299 78.2186 42.7059 78.2186H29.7431C26.3029 78.2186 23.499 75.0588 23.499 71.1765V67.9088C23.8873 57.2863 32.2235 49.3167 42.9 49.3167C49.6186 49.3167 55.8196 52.8863 59.3353 58.699C59.648 59.2167 59.4431 59.8961 58.9039 60.1872C58.3863 60.4568 57.7608 60.2627 57.4588 59.7667C54.3206 54.6225 48.8314 51.4735 42.9 51.4735C33.4206 51.4735 26.001 58.5588 25.6559 67.9519V71.1872C25.6559 73.8833 27.4892 76.0725 29.7431 76.0725H42.7059C43.299 76.0725 43.7843 76.5578 43.7843 77.151V77.1402Z" fill="white"/>
<path d="M42.8995 45.2725C37.0976 45.2725 32.374 40.549 32.374 34.7471C32.374 28.9451 37.0976 24.2216 42.8995 24.2216C48.7015 24.2216 53.425 28.9451 53.425 34.7471C53.425 40.549 48.7015 45.2725 42.8995 45.2725ZM42.8995 26.3784C38.2838 26.3784 34.5309 30.1314 34.5309 34.7471C34.5309 39.3627 38.2838 43.1157 42.8995 43.1157C47.5152 43.1157 51.2681 39.3627 51.2681 34.7471C51.2681 30.1314 47.5152 26.3784 42.8995 26.3784Z" fill="white"/>
</g>
<defs>
<clipPath id="clip0_709_1370">
<rect width="110" height="110" fill="white"/>
</clipPath>
</defs>
</svg>
