<svg width="110" height="110" viewBox="0 0 110 110" fill="none" xmlns="http://www.w3.org/2000/svg">
<g clip-path="url(#clip0_709_1381)">
<path d="M55 101.987C80.9503 101.987 101.987 80.9503 101.987 55C101.987 29.0496 80.9503 8.0127 55 8.0127C29.0496 8.0127 8.0127 29.0496 8.0127 55C8.0127 80.9503 29.0496 101.987 55 101.987Z" fill="#4D75FE"/>
<path d="M79.6953 7.05286C97.0581 16.0146 108.921 34.1215 108.921 54.9999" stroke="#4D75FE" stroke-width="2.66642" stroke-miterlimit="10" stroke-linecap="round"/>
<path d="M31.8027 6.30876C38.8341 2.95484 46.6959 1.07837 54.9998 1.07837C60.338 1.07837 65.4929 1.85484 70.3674 3.29994" stroke="#4D75FE" stroke-width="2.66642" stroke-miterlimit="10" stroke-linecap="round"/>
<path d="M1.07812 54.9999C1.07812 40.1068 7.11734 26.6264 16.8664 16.8666" stroke="#4D75FE" stroke-width="2.66642" stroke-miterlimit="10" stroke-linecap="round"/>
<path d="M100.779 83.5029C91.2569 98.7627 74.3148 108.922 55.0001 108.922C34.0677 108.922 15.9285 96.9941 6.98828 79.5774" stroke="#4D75FE" stroke-width="2.66642" stroke-miterlimit="10" stroke-linecap="round"/>
<path d="M65.7625 74.6382H44.2909C41.9723 74.6382 40.0742 72.4382 40.0742 69.7745V69.4941C40.3762 61.4274 46.7821 55.1941 55.0213 55.1941C63.2605 55.1941 69.9144 62.0206 69.9144 70.4431V69.8392C69.9144 72.5137 68.0703 74.649 65.7625 74.649V74.6382Z" stroke="white" stroke-width="3.33302" stroke-miterlimit="10"/>
<path d="M55.0323 48.4647C50.3519 48.4647 46.5234 44.6362 46.5234 39.9558C46.5234 35.2755 50.3519 31.447 55.0323 31.447C59.7127 31.447 63.5411 35.2755 63.5411 39.9558C63.5411 44.6362 59.7127 48.4647 55.0323 48.4647Z" stroke="white" stroke-width="3.33302" stroke-miterlimit="10"/>
<path d="M67.9738 90.3294C82.3169 85.0451 92.5512 71.2519 92.5512 55.0754C92.5512 34.3372 75.7385 17.5137 54.9895 17.5137C34.2404 17.5137 17.4385 34.3264 17.4385 55.0754C17.4385 69.7421 25.8502 82.446 38.112 88.6362" stroke="white" stroke-width="3.09305" stroke-miterlimit="10" stroke-linecap="round"/>
<path d="M69.074 83.3735L65.8818 91.5049L74.0563 94.1255" stroke="white" stroke-width="3.09305" stroke-miterlimit="10" stroke-linecap="round"/>
</g>
<defs>
<clipPath id="clip0_709_1381">
<rect width="110" height="110" fill="white"/>
</clipPath>
</defs>
</svg>
