<svg width="110" height="110" viewBox="0 0 110 110" fill="none" xmlns="http://www.w3.org/2000/svg">
<g clip-path="url(#clip0_709_1393)">
<path d="M55 101.987C80.9503 101.987 101.987 80.9503 101.987 55C101.987 29.0496 80.9503 8.0127 55 8.0127C29.0496 8.0127 8.0127 29.0496 8.0127 55C8.0127 80.9503 29.0496 101.987 55 101.987Z" fill="#4D75FE"/>
<path d="M7.05273 30.3039C16.0145 12.9411 34.1214 1.07837 54.9998 1.07837" stroke="#4D75FE" stroke-width="2.66642" stroke-miterlimit="10" stroke-linecap="round"/>
<path d="M6.30852 78.197C2.9546 71.1657 1.07812 63.3039 1.07812 55C1.07812 49.6617 1.8546 44.5068 3.29969 39.6323" stroke="#4D75FE" stroke-width="2.66642" stroke-miterlimit="10" stroke-linecap="round"/>
<path d="M54.9995 108.922C40.1064 108.922 26.626 102.882 16.8662 93.1333" stroke="#4D75FE" stroke-width="2.66642" stroke-miterlimit="10" stroke-linecap="round"/>
<path d="M83.5026 9.22058C98.7624 18.7431 108.921 35.6853 108.921 55C108.921 75.9324 96.9938 94.0716 79.5771 103.012" stroke="#4D75FE" stroke-width="2.66642" stroke-miterlimit="10" stroke-linecap="round"/>
<path d="M31.7925 67.801C32.5366 67.801 33.1513 67.1971 33.1513 66.4421V41.1529C35.5994 40.5382 37.4219 38.3274 37.4219 35.6961C37.4219 32.5902 34.8984 30.0667 31.7925 30.0667C28.6866 30.0667 26.1631 32.5902 26.1631 35.6961C26.1631 38.3274 27.9856 40.549 30.4337 41.1529V66.4421C30.4337 67.1863 31.0376 67.801 31.7925 67.801ZM28.8807 35.6961C28.8807 34.0892 30.1856 32.7843 31.7925 32.7843C33.3994 32.7843 34.7043 34.0892 34.7043 35.6961C34.7043 37.3029 33.3994 38.6078 31.7925 38.6078C30.1856 38.6078 28.8807 37.3029 28.8807 35.6961Z" fill="white"/>
<path d="M40.5918 59.7451V69.0843C40.5918 69.8284 41.1957 70.4431 41.9506 70.4431C42.7055 70.4431 43.3094 69.8392 43.3094 69.0843V59.7451C43.3094 59.0009 42.7055 58.3862 41.9506 58.3862C41.2065 58.3862 40.5918 58.9902 40.5918 59.7451Z" fill="white"/>
<path d="M50.751 53.5441V69.0843C50.751 69.8284 51.3549 70.4431 52.1098 70.4431C52.8647 70.4431 53.4686 69.8392 53.4686 69.0843V53.5441C53.4686 52.8 52.8647 52.1853 52.1098 52.1853C51.3549 52.1853 50.751 52.7892 50.751 53.5441Z" fill="white"/>
<path d="M60.9102 46.9225V69.0843C60.9102 69.8284 61.5141 70.4431 62.269 70.4431C63.0239 70.4431 63.6278 69.8392 63.6278 69.0843V46.9225C63.6278 46.1784 63.0239 45.5637 62.269 45.5637C61.5249 45.5637 60.9102 46.1676 60.9102 46.9225Z" fill="white"/>
<path d="M72.4272 39.9343C71.6831 39.9343 71.0684 40.5383 71.0684 41.2932V69.0843C71.0684 69.8284 71.6723 70.4432 72.4272 70.4432C73.1821 70.4432 73.786 69.8392 73.786 69.0843V41.2932C73.786 40.549 73.1821 39.9343 72.4272 39.9343Z" fill="white"/>
<path d="M86.7491 75.3284C86.7491 72.2226 84.2256 69.699 81.1197 69.699C78.4883 69.699 76.2668 71.5216 75.6629 73.9696H40.3334C39.5893 73.9696 38.9746 74.5735 38.9746 75.3284C38.9746 76.0834 39.5785 76.6873 40.3334 76.6873H75.6629C76.2776 79.1353 78.4883 80.9579 81.1197 80.9579C84.2256 80.9579 86.7491 78.4343 86.7491 75.3284ZM81.1197 78.2402C79.5129 78.2402 78.2079 76.9353 78.2079 75.3284C78.2079 73.7216 79.5129 72.4167 81.1197 72.4167C82.7266 72.4167 84.0315 73.7216 84.0315 75.3284C84.0315 76.9353 82.7266 78.2402 81.1197 78.2402Z" fill="white"/>
<path d="M31.7925 80.9578C34.8984 80.9578 37.4219 78.4343 37.4219 75.3284C37.4219 72.2225 34.8984 69.699 31.7925 69.699C28.6866 69.699 26.1631 72.2225 26.1631 75.3284C26.1631 78.4343 28.6866 80.9578 31.7925 80.9578ZM31.7925 72.4166C33.3994 72.4166 34.7043 73.7215 34.7043 75.3284C34.7043 76.9353 33.3994 78.2402 31.7925 78.2402C30.1856 78.2402 28.8807 76.9353 28.8807 75.3284C28.8807 73.7215 30.1856 72.4166 31.7925 72.4166Z" fill="white"/>
<path d="M40.1285 54.3314C40.3981 54.7089 40.8079 54.903 41.2393 54.903C41.5089 54.903 41.7893 54.8167 42.0265 54.6549L70.5834 34.402L70.2599 36.3971C70.1412 37.1412 70.6481 37.8314 71.3814 37.95C71.4569 37.9608 71.5216 37.9716 71.5971 37.9716C72.255 37.9716 72.8265 37.4971 72.9344 36.8285L73.7648 31.652V31.6412C73.7648 31.6304 73.7648 31.6196 73.7648 31.5981C73.7648 31.5657 73.7648 31.5442 73.7648 31.5118C73.7648 31.4902 73.7648 31.4687 73.7648 31.4579C73.7648 31.4363 73.7648 31.404 73.7648 31.3824C73.7648 31.3608 73.7648 31.3393 73.7648 31.3177C73.7648 31.2961 73.7648 31.2745 73.7648 31.253C73.7648 31.2314 73.7648 31.2098 73.7648 31.1883C73.7648 31.1667 73.7648 31.1451 73.754 31.1236C73.754 31.102 73.754 31.0804 73.7432 31.0589C73.7432 31.0373 73.7324 31.0157 73.7216 30.9942C73.7216 30.9726 73.7108 30.951 73.7 30.9402C73.7 30.9187 73.6785 30.8971 73.6785 30.8755C73.6785 30.854 73.6569 30.8324 73.6461 30.8216C73.6461 30.8 73.6246 30.7785 73.6138 30.7677C73.603 30.7461 73.5922 30.7245 73.5706 30.703C73.5706 30.6922 73.5599 30.6706 73.5491 30.6598C73.5383 30.6383 73.5167 30.6167 73.4952 30.5951C73.4952 30.5843 73.4736 30.5628 73.4628 30.552C73.452 30.5412 73.4304 30.5196 73.4197 30.5089C73.3765 30.4657 73.3442 30.4334 73.301 30.3902C73.301 30.3902 73.2902 30.3794 73.2795 30.3687C73.2579 30.3471 73.2363 30.3363 73.204 30.3147C73.1932 30.3147 73.1824 30.2932 73.1608 30.2932C73.1393 30.2824 73.1177 30.2716 73.0961 30.25C73.0746 30.25 73.0638 30.2285 73.0422 30.2177C73.0206 30.2069 72.9883 30.1961 72.9667 30.1853C72.9559 30.1853 72.9344 30.1745 72.9236 30.1638C72.8804 30.153 72.8373 30.1314 72.7942 30.1206C72.7942 30.1206 72.7726 30.1206 72.7618 30.1206C72.7295 30.1206 72.6971 30.1098 72.6648 30.0991C72.6648 30.0991 72.6432 30.0991 72.6324 30.0991L67.5422 29.0853C66.8089 28.9451 66.0971 29.4196 65.9461 30.153C65.7952 30.8863 66.2804 31.5981 67.0138 31.7491L69.0951 32.1589L40.4736 52.4442C39.8589 52.8755 39.7187 53.7275 40.15 54.3314H40.1285Z" fill="white"/>
</g>
<defs>
<clipPath id="clip0_709_1393">
<rect width="110" height="110" fill="white"/>
</clipPath>
</defs>
</svg>
