<svg width="110" height="110" viewBox="0 0 110 110" fill="none" xmlns="http://www.w3.org/2000/svg">
<g clip-path="url(#clip0_709_1409)">
<path d="M55 101.987C80.9503 101.987 101.987 80.9504 101.987 55C101.987 29.0497 80.9503 8.01276 55 8.01276C29.0496 8.01276 8.0127 29.0497 8.0127 55C8.0127 80.9504 29.0496 101.987 55 101.987Z" fill="#4D75FE"/>
<path d="M107.336 41.9725C112.038 60.9314 106.247 81.7882 90.5342 95.549" stroke="#4D75FE" stroke-width="2.66642" stroke-miterlimit="10" stroke-linecap="round"/>
<path d="M76.3311 5.46771C83.4811 8.54124 90.0811 13.2216 95.5595 19.4658C99.0752 23.4775 101.89 27.8667 104.014 32.4824" stroke="#4D75FE" stroke-width="2.66642" stroke-miterlimit="10" stroke-linecap="round"/>
<path d="M19.4658 14.451C30.6599 4.63726 44.7766 0.291185 58.5482 1.19707" stroke="#4D75FE" stroke-width="2.66642" stroke-miterlimit="10" stroke-linecap="round"/>
<path d="M63.7352 108.221C45.9842 111.122 27.1764 105.072 14.4509 90.5451C0.657772 74.8 -2.34027 53.2961 4.87444 35.0922" stroke="#4D75FE" stroke-width="2.66642" stroke-miterlimit="10" stroke-linecap="round"/>
<path d="M73.0852 47.5481C74.0881 46.4265 74.7136 44.9706 74.7136 43.353V38.1226C74.7136 37.5079 74.2175 37.0118 73.6028 37.0118H69.2675C65.2773 34.0461 60.543 32.4608 55.5499 32.4608C50.5567 32.4608 45.8224 34.0353 41.8214 37.0118H37.4861C36.8714 37.0118 36.3754 37.5079 36.3754 38.1226V43.353C36.3754 44.9706 37.0008 46.4265 38.0038 47.5481C35.0705 47.8932 32.7842 50.3736 32.7842 53.3932V61.3951C32.7842 62.0098 33.2803 62.5059 33.895 62.5059H51.5489C52.1636 62.5059 52.6597 62.0098 52.6597 61.3951V53.3932C52.6597 50.3736 50.3734 47.904 47.4401 47.5481C48.443 46.4265 49.0685 44.9706 49.0685 43.353V38.1226C49.0685 37.5079 48.5724 37.0118 47.9577 37.0118H45.9842C48.9175 35.4804 52.1744 34.6824 55.5607 34.6824C58.9469 34.6824 62.193 35.4912 65.1371 37.0118H63.1636C62.5489 37.0118 62.0528 37.5079 62.0528 38.1226V43.353C62.0528 44.9706 62.6783 46.4265 63.6812 47.5481C60.7479 47.8932 58.4616 50.3736 58.4616 53.3932V61.3951C58.4616 62.0098 58.9577 62.5059 59.5724 62.5059H77.2263C77.841 62.5059 78.3371 62.0098 78.3371 61.3951V53.3932C78.3371 50.3736 76.0508 47.904 73.1175 47.5481H73.0852ZM50.4273 53.3932V60.2843H34.9842V53.3932C34.9842 51.3549 36.645 49.6942 38.6832 49.6942H46.7283C48.7665 49.6942 50.4273 51.3549 50.4273 53.3932ZM46.8361 43.353C46.8361 45.6285 44.9812 47.4834 42.7057 47.4834C40.4303 47.4834 38.5754 45.6285 38.5754 43.353V39.2226H46.8254V43.353H46.8361ZM64.242 39.2226H72.492V43.353C72.492 45.6285 70.6371 47.4834 68.3616 47.4834C66.0861 47.4834 64.2312 45.6285 64.2312 43.353V39.2226H64.242ZM76.0832 60.2843H60.6401V53.3932C60.6401 51.3549 62.3008 49.6942 64.3391 49.6942H72.3842C74.4224 49.6942 76.0832 51.3549 76.0832 53.3932V60.2843Z" fill="#FDFDFD"/>
<path d="M65.5358 73.7754C65.0398 74.0451 64.5329 74.3039 64.026 74.5196C63.4652 74.7676 63.2172 75.4254 63.4652 75.9862C63.6486 76.396 64.0584 76.6441 64.479 76.6441C64.6299 76.6441 64.7809 76.6117 64.9319 76.547C65.4927 76.299 66.0535 76.0186 66.6035 75.7166C67.1427 75.4254 67.3368 74.746 67.0456 74.2068C66.7545 73.6676 66.075 73.4735 65.5358 73.7647V73.7754Z" fill="#FDFDFD"/>
<path d="M70.6158 69.8716C70.1305 70.3892 69.602 70.8745 69.0628 71.3382C68.5991 71.7373 68.5452 72.4382 68.9442 72.902C69.1599 73.1608 69.4726 73.2902 69.7854 73.2902C70.0442 73.2902 70.2922 73.2039 70.5079 73.0206C71.1011 72.5137 71.6834 71.9637 72.2226 71.3922C72.6432 70.95 72.6324 70.249 72.1903 69.8284C71.7481 69.4078 71.0471 69.4186 70.6266 69.8608L70.6158 69.8716Z" fill="#FDFDFD"/>
<path d="M75.5549 64.5549C75.0157 64.2745 74.347 64.4902 74.0666 65.0294C73.8078 65.5255 73.5274 66.0216 73.2362 66.4961C72.9127 67.0137 73.0745 67.7039 73.5921 68.0275C73.7755 68.1461 73.9804 68.2 74.1745 68.2C74.5411 68.2 74.9078 68.0167 75.1127 67.6823C75.4362 67.1647 75.749 66.6147 76.0294 66.0647C76.3098 65.5255 76.0941 64.8569 75.5549 64.5765V64.5549Z" fill="#FDFDFD"/>
<path d="M47.0522 74.5196C46.5453 74.2932 46.0384 74.0451 45.5423 73.7755C45.0031 73.4844 44.3345 73.6785 44.0325 74.2177C43.7414 74.7569 43.9355 75.4255 44.4747 75.7275C45.0247 76.0294 45.5855 76.3098 46.1463 76.5579C46.2973 76.6226 46.4482 76.6549 46.5992 76.6549C47.0198 76.6549 47.4296 76.4069 47.6129 75.9971C47.861 75.4363 47.6129 74.7785 47.0522 74.5304V74.5196Z" fill="#FDFDFD"/>
<path d="M40.4732 69.8716C40.0526 69.4294 39.3517 69.4186 38.9095 69.8392C38.4673 70.2598 38.4458 70.9608 38.8771 71.403C39.4164 71.9745 39.9987 72.5137 40.5918 73.0314C40.7967 73.2147 41.0556 73.301 41.3144 73.301C41.6271 73.301 41.9399 73.1716 42.1556 72.9128C42.5546 72.449 42.5007 71.7481 42.0369 71.349C41.4977 70.8853 40.9693 70.3892 40.484 69.8824L40.4732 69.8716Z" fill="#FDFDFD"/>
<path d="M37.0223 65.0294C36.742 64.4794 36.0733 64.2637 35.5341 64.5549C34.9949 64.8353 34.7792 65.5039 35.0596 66.0432C35.34 66.5932 35.6527 67.1324 35.9763 67.6608C36.1812 67.9951 36.5478 68.1785 36.9145 68.1785C37.1194 68.1785 37.3135 68.1245 37.4969 68.0059C38.0145 67.6824 38.1763 67.003 37.8527 66.4745C37.5508 66 37.2704 65.5039 37.0223 65.0079V65.0294Z" fill="#FDFDFD"/>
<path d="M85.5519 55.4961C85.5519 38.9422 72.0822 25.4833 55.5391 25.4833C38.996 25.4833 25.5264 38.9529 25.5264 55.4961C25.5264 68.3186 33.5715 79.5775 45.6068 83.8049V89.952C45.6068 90.5667 46.1028 91.0628 46.7175 91.0628H64.3715C64.9862 91.0628 65.4823 90.5667 65.4823 89.952V83.8049C77.5175 79.5882 85.5626 68.3294 85.5626 55.4961H85.5519ZM63.2607 88.8412H47.8175V81.95C47.8175 79.9118 49.4783 78.251 51.5166 78.251H59.5617C61.5999 78.251 63.2607 79.9118 63.2607 81.95V88.8412ZM59.6695 71.9098C59.6695 74.1853 57.8146 76.0402 55.5391 76.0402C53.2636 76.0402 51.4087 74.1853 51.4087 71.9098V67.7794H59.6587V71.9098H59.6695ZM65.4607 81.4755C65.4607 81.3461 65.4068 81.2167 65.396 81.0873C65.3744 80.9147 65.3421 80.7422 65.2989 80.5696C65.2558 80.3647 65.1803 80.1814 65.1156 79.9873C65.0617 79.8255 65.0077 79.6637 64.9323 79.502C64.846 79.3186 64.7489 79.1461 64.6411 78.9735C64.5548 78.8226 64.4685 78.6824 64.3715 78.5422C64.2528 78.3804 64.1234 78.2294 63.9832 78.0784C63.8754 77.949 63.7675 77.8196 63.6489 77.7118C63.4979 77.5716 63.3362 77.4422 63.1636 77.3128C63.0342 77.2157 62.9156 77.1079 62.7862 77.0216C62.6028 76.903 62.4087 76.8059 62.2038 76.7088C62.0636 76.6441 61.9342 76.5579 61.794 76.5039C61.5675 76.4069 61.3195 76.353 61.0823 76.2775C60.9528 76.2451 60.8342 76.1912 60.7156 76.1696C60.5646 76.1373 60.4028 76.1373 60.2519 76.1157C61.244 74.9941 61.8695 73.5383 61.8695 71.9206V66.6902C61.8695 66.0755 61.3734 65.5794 60.7587 65.5794H50.2872C49.6724 65.5794 49.1764 66.0755 49.1764 66.6902V71.9206C49.1764 73.5383 49.8019 74.9941 50.794 76.1157C50.643 76.1373 50.4813 76.1373 50.3303 76.1696C50.2009 76.1912 50.0823 76.2451 49.9636 76.2775C49.7264 76.3422 49.4783 76.4069 49.2519 76.5039C49.1117 76.5579 48.9823 76.6441 48.8421 76.7088C48.6479 76.8059 48.443 76.903 48.2597 77.0216C48.1195 77.1079 48.0009 77.2157 47.8823 77.3128C47.7205 77.4422 47.5479 77.5608 47.397 77.7118C47.2783 77.8304 47.1705 77.9598 47.0626 78.0784C46.9332 78.2294 46.793 78.3804 46.6744 78.5529C46.5773 78.6931 46.4911 78.8333 46.4048 78.9843C46.297 79.1569 46.1999 79.3294 46.1136 79.5128C46.0381 79.6745 45.9842 79.8363 45.9303 79.9981C45.8656 80.1922 45.8009 80.3863 45.747 80.5804C45.7038 80.753 45.6823 80.9255 45.6499 81.098C45.6283 81.2275 45.596 81.3461 45.5852 81.4755C34.8332 77.3775 27.7048 67.1324 27.7048 55.4961C27.7048 40.1716 40.1715 27.6941 55.5068 27.6941C70.8421 27.6941 83.3087 40.1608 83.3087 55.4961C83.3087 67.1216 76.1803 77.3775 65.4283 81.4755H65.4607Z" fill="#FDFDFD"/>
</g>
<defs>
<clipPath id="clip0_709_1409">
<rect width="110" height="110" fill="white"/>
</clipPath>
</defs>
</svg>
