<svg width="560" height="559" viewBox="0 0 560 559" fill="none" xmlns="http://www.w3.org/2000/svg">
<path d="M519 424.123C469.992 504.66 381.299 558.449 280.032 558.449C125.713 558.449 0.605469 433.542 0.605469 279.45C0.605469 125.358 125.704 0.459961 280.023 0.459961C289.668 0.459961 299.202 0.947448 308.589 1.90403" stroke="#022791" stroke-miterlimit="10" stroke-linecap="round"/>
<path d="M557.479 246.154C558.777 257.071 559.45 268.192 559.45 279.459" stroke="#022791" stroke-miterlimit="10" stroke-linecap="round"/>
<path d="M551.417 212.784C552.301 216.38 553.112 220.013 553.858 223.665" stroke="#022791" stroke-miterlimit="10" stroke-linecap="round"/>
<path d="M462.181 67.8896C493.372 94.6831 518.567 128.237 535.499 166.27" stroke="#022791" stroke-miterlimit="10" stroke-linecap="round"/>
<path d="M439.353 472.118C396.076 507.833 340.564 529.301 280.032 529.301C141.834 529.301 29.8076 417.446 29.8076 279.459C29.8076 161.754 111.324 63.0606 221.067 36.5891" stroke="#022791" stroke-miterlimit="10" stroke-linecap="round"/>
<path d="M473.115 438.38C469.605 442.62 465.966 446.75 462.189 450.751" stroke="#022791" stroke-miterlimit="10" stroke-linecap="round"/>
<path d="M527.475 242.116C529.299 254.294 530.247 266.766 530.247 279.459" stroke="#022791" stroke-miterlimit="10" stroke-linecap="round"/>
<path d="M490.802 144.747C495.426 151.949 499.701 159.408 503.579 167.098" stroke="#022791" stroke-miterlimit="10" stroke-linecap="round"/>
<path d="M422.946 74.3557C434.609 82.4774 445.543 91.5557 455.64 101.489" stroke="#022791" stroke-miterlimit="10" stroke-linecap="round"/>
<path d="M280.023 29.6172C296.384 29.6172 312.385 31.19 327.87 34.1793" stroke="#022791" stroke-miterlimit="10" stroke-linecap="round"/>
<path d="M451.292 465.716C453.694 465.716 455.64 463.772 455.64 461.375C455.64 458.977 453.694 457.033 451.292 457.033C448.891 457.033 446.944 458.977 446.944 461.375C446.944 463.772 448.891 465.716 451.292 465.716Z" fill="#1A282B"/>
<path d="M555.111 239.899C557.513 239.899 559.459 237.955 559.459 235.558C559.459 233.16 557.513 231.216 555.111 231.216C552.71 231.216 550.763 233.16 550.763 235.558C550.763 237.955 552.71 239.899 555.111 239.899Z" fill="#FFD125"/>
<path d="M246.87 36.2397C249.271 36.2397 251.218 34.296 251.218 31.8983C251.218 29.5006 249.271 27.5569 246.87 27.5569C244.468 27.5569 242.521 29.5006 242.521 31.8983C242.521 34.296 244.468 36.2397 246.87 36.2397Z" fill="#FFD125"/>
<path d="M446.539 60.6601C448.941 60.6601 450.888 58.7164 450.888 56.3187C450.888 53.921 448.941 51.9773 446.539 51.9773C444.138 51.9773 442.191 53.921 442.191 56.3187C442.191 58.7164 444.138 60.6601 446.539 60.6601Z" fill="#FFD125"/>
</svg>
