<svg width="346" height="349" viewBox="0 0 346 349" fill="none" xmlns="http://www.w3.org/2000/svg">
<path d="M62.1837 309.233C39.9729 291.36 22.2613 268.133 10.9946 241.513" stroke="#4D75FE" stroke-miterlimit="10"/>
<path d="M293.83 296.698C262.398 328.116 218.981 347.543 171.023 347.543C146.3 347.543 122.789 342.38 101.498 333.073" stroke="#4D75FE" stroke-miterlimit="10"/>
<path d="M341.794 142.158C343.703 152.463 344.697 163.086 344.697 173.941C344.697 190.768 342.302 207.035 337.834 222.424" stroke="#4D75FE" stroke-miterlimit="10"/>
<path d="M0.875 138.955C17.0692 59.846 87.0908 0.338501 171.023 0.338501C210.517 0.338501 246.929 13.5137 276.102 35.7101" stroke="#4D75FE" stroke-miterlimit="10"/>
<path d="M312.123 148.214C313.635 156.559 314.428 165.158 314.428 173.941C314.428 195.107 309.839 215.2 301.602 233.279" stroke="#4D75FE" stroke-miterlimit="10"/>
<path d="M171.022 30.5944C194.825 30.5944 217.273 36.3919 237.031 46.6498" stroke="#4D75FE" stroke-miterlimit="10"/>
<path d="M256.884 288.765C232.95 306.681 203.221 317.293 171.017 317.293C91.8176 317.293 27.6118 253.114 27.6118 173.946C27.6118 127.107 50.087 85.5094 84.8493 59.3546" stroke="#4D75FE" stroke-miterlimit="10"/>
<path d="M314.428 86.8411C318.499 86.8411 321.798 83.5428 321.798 79.474C321.798 75.4053 318.499 72.1069 314.428 72.1069C310.358 72.1069 307.058 75.4053 307.058 79.474C307.058 83.5428 310.358 86.8411 314.428 86.8411Z" fill="#4D75FE"/>
<path d="M80.4502 329.49C84.5206 329.49 87.8203 326.192 87.8203 322.123C87.8203 318.054 84.5206 314.756 80.4502 314.756C76.3798 314.756 73.0801 318.054 73.0801 322.123C73.0801 326.192 76.3798 329.49 80.4502 329.49Z" fill="#4D75FE"/>
<path d="M123.492 49.2763C127.563 49.2763 130.862 45.978 130.862 41.9092C130.862 37.8405 127.563 34.5421 123.492 34.5421C119.422 34.5421 116.122 37.8405 116.122 41.9092C116.122 45.978 119.422 49.2763 123.492 49.2763Z" fill="#4D75FE"/>
</svg>
