<svg width="556" height="569" viewBox="0 0 556 569" fill="none" xmlns="http://www.w3.org/2000/svg">
<path d="M72.2179 485.116C39.3203 452.244 14.6371 411.47 1 366.305" stroke="#022791" stroke-miterlimit="10"/>
<path d="M449.886 505.013C393.485 550.548 319.732 574.54 241.992 566.214C201.923 561.918 164.702 549.456 131.804 530.651" stroke="#022791" stroke-miterlimit="10"/>
<path d="M554.467 262.5C555.767 279.554 555.542 296.97 553.657 314.595C550.737 341.911 544.031 367.902 534.116 392.095" stroke="#022791" stroke-miterlimit="10"/>
<path d="M2.41162 198.079C42.3925 72.4827 166.234 -11.947 302.276 2.63444C366.29 9.49159 423.029 37.2093 466.467 78.304" stroke="#022791" stroke-miterlimit="10"/>
<path d="M505.325 267.181C506.328 280.992 506.119 295.083 504.595 309.344C500.921 343.694 489.995 375.514 473.502 403.433" stroke="#022791" stroke-miterlimit="10"/>
<path d="M297.022 51.7505C335.607 55.8857 370.983 69.1905 401.234 89.2802" stroke="#022791" stroke-miterlimit="10"/>
<path d="M391.383 485.719C349.469 510.642 299.444 522.694 247.246 517.106C118.865 503.343 25.9318 388.016 39.6813 259.521C47.8154 183.49 91.4702 119.881 152.356 83.459" stroke="#022791" stroke-miterlimit="10"/>
<path d="M494.528 473.128C501.16 473.128 506.536 467.747 506.536 461.108C506.536 454.47 501.16 449.088 494.528 449.088C487.896 449.088 482.519 454.47 482.519 461.108C482.519 467.747 487.896 473.128 494.528 473.128Z" fill="#022791"/>
<path d="M99.5883 521.233C106.221 521.233 111.597 515.851 111.597 509.213C111.597 502.574 106.221 497.193 99.5883 497.193C92.9561 497.193 87.5796 502.574 87.5796 509.213C87.5796 515.851 92.9561 521.233 99.5883 521.233Z" fill="#022791"/>
<path d="M218.015 73.88C224.647 73.88 230.024 68.4984 230.024 61.8599C230.024 55.2214 224.647 49.8398 218.015 49.8398C211.383 49.8398 206.006 55.2214 206.006 61.8599C206.006 68.4984 211.383 73.88 218.015 73.88Z" fill="#022791"/>
</svg>
