<svg width="59" height="60" viewBox="0 0 59 60" fill="none" xmlns="http://www.w3.org/2000/svg">
<path d="M47.1171 5.80569C52.3893 9.75059 56.309 15.4562 57.9882 21.8354C59.4377 27.2347 59.3203 33.0219 57.6411 38.355C55.3955 45.515 50.3529 51.7054 43.7741 55.3083C39.4308 57.7631 34.4903 58.9776 29.5141 59.0032C29.4681 39.3399 29.4988 19.6715 29.4988 0.00316103C35.7713 -0.0938029 42.0949 2.04451 47.1171 5.79548V5.80569Z" fill="#022791"/>
<path d="M25.0433 10.0162C25.9314 13.9509 24.7422 18.2122 22.0372 21.1875C18.245 25.4232 11.6969 26.5919 6.70535 23.8106C2.17828 21.4886 -0.557354 16.2627 0.0959326 11.2206C0.50934 7.20934 2.93875 3.53492 6.47568 1.60585C8.90509 0.141181 11.6407 -0.154814 14.4172 0.105458C19.6078 0.748482 24.0277 4.88731 25.0433 10.0162V10.0162Z" fill="#FFD125"/>
<path d="M15.5552 38.9623C21.6491 43.6931 25.4566 51.2206 25.2626 58.9726C16.8413 58.9624 8.42518 58.9828 0.00390625 58.9624C0.0192177 50.5419 0.0294253 42.1264 0.00390625 33.7059C5.55684 33.5681 11.1761 35.5839 15.5603 38.9623H15.5552Z" fill="#022791"/>
</svg>
