<svg width="299" height="160" viewBox="0 0 299 160" fill="none" xmlns="http://www.w3.org/2000/svg">
<path d="M18.5356 66.454C29.4953 55.6604 43.9461 49.6541 59.2272 49.5366H59.6808" stroke="#4D75FE" stroke-width="0.785723" stroke-miterlimit="10"/>
<path d="M67.2747 159.404H44.351C32.31 159.404 21.1439 154.05 13.72 144.71C5.21879 134.018 0.706962 120.584 1.01477 106.886C1.22538 97.4333 3.68786 88.3286 8.13489 80.2041" stroke="#4D75FE" stroke-width="0.785723" stroke-miterlimit="10"/>
<path d="M212.698 159.404H118.184" stroke="#4D75FE" stroke-width="0.785723" stroke-miterlimit="10"/>
<path d="M285.896 144.69C278.468 154.042 267.298 159.405 255.249 159.405H235.444" stroke="#4D75FE" stroke-width="0.785723" stroke-miterlimit="10"/>
<path d="M294.32 130.337C293.445 132.479 292.441 134.573 291.307 136.611C291.088 137.007 290.861 137.4 290.63 137.793" stroke="#4D75FE" stroke-width="0.785723" stroke-miterlimit="10"/>
<path d="M281.319 66.7334C292.445 77.8307 298.584 92.5367 298.605 108.138C298.609 111.572 298.325 114.958 297.758 118.267" stroke="#4D75FE" stroke-width="0.785723" stroke-miterlimit="10"/>
<path d="M200.402 20.5542C210.207 28.9055 218.089 39.6019 223.107 51.9791C228.368 50.4076 233.819 49.5855 239.368 49.5369C239.55 49.5369 239.729 49.5369 239.911 49.5369C247.618 49.5369 255.107 51.0314 262.057 53.8826" stroke="#4D75FE" stroke-width="0.785723" stroke-miterlimit="10"/>
<path d="M188.892 12.3447C191.735 14.0215 194.473 15.8683 197.093 17.8772" stroke="#4D75FE" stroke-width="0.785723" stroke-miterlimit="10"/>
<path d="M72.1631 50.8691C78.1046 36.8031 87.8128 24.758 100.392 15.8842C114.199 6.1477 130.456 1 147.406 1C159.289 1 170.747 3.58803 181.132 8.30642" stroke="#4D75FE" stroke-width="0.785723" stroke-miterlimit="10"/>
<path d="M236.796 54.0688C230.478 54.1255 224.423 55.2838 218.814 57.3575C208.421 27.9901 180.407 6.94971 147.479 6.94971C114.552 6.94971 87.3956 27.3502 76.6344 56.0169C71.9484 54.7128 67.0073 54.0323 61.9001 54.0688C33.1928 54.2875 9.62925 77.4866 8.98933 106.186C8.69772 119.191 13.0638 131.167 20.5362 140.563C27.0407 148.748 36.9716 153.455 47.429 153.455H252.183C262.644 153.455 272.579 148.736 279.088 140.547C286.333 131.426 290.655 119.883 290.639 107.324C290.598 77.8389 266.289 53.7974 236.804 54.0688H236.796Z" fill="#4D75FE"/>
<path d="M166.274 80.8809L160.167 82.9343" stroke="white" stroke-width="2.02506" stroke-linecap="round" stroke-linejoin="round"/>
<path d="M166.274 75.798V79.8927C166.274 82.4564 169.356 85.4656 171.92 85.4656C174.484 85.4656 177.566 82.4564 177.566 79.8927V73.2788" stroke="white" stroke-width="2.02506" stroke-linecap="round" stroke-linejoin="round"/>
<path d="M160.648 59.962V67.0538C160.648 72.3595 164.949 76.6566 170.251 76.6566C173.92 76.6566 177.108 74.5992 178.724 71.5737C179.266 70.5612 180.332 69.9375 181.478 69.9456C182.758 69.9456 183.794 68.7589 183.794 67.2968C183.794 65.8347 182.758 64.648 181.478 64.648C180.842 64.648 180.271 64.9396 179.85 65.4135V65.3932C179.85 64.3807 179.416 63.4208 178.671 62.7364C177.116 61.3067 174.722 58.4635 176.075 55.3813C176.075 55.3813 171.677 62.7971 160.644 59.962H160.648Z" stroke="white" stroke-width="2.02506" stroke-linecap="round" stroke-linejoin="round"/>
<path d="M160.648 59.962C160.648 59.962 157.995 59.3586 156.61 58.3946C156.61 58.3946 156.967 47.8967 167.939 44.5675C170.518 43.7858 173.35 44.28 175.427 46.0053C176.205 46.6493 176.881 47.4634 177.262 48.4759C177.262 48.4759 181.567 46.5197 185.103 51.1814C188.558 55.7377 190.477 70.6543 186.958 84.1858" stroke="white" stroke-width="2.02506" stroke-linecap="round" stroke-linejoin="round"/>
<path d="M127.93 82.622L124.155 81.4394L121.032 80.5889" stroke="white" stroke-width="2.02506" stroke-linecap="round" stroke-linejoin="round"/>
<path d="M127.93 58.1351V65.3888C127.93 70.8119 123.532 75.2104 118.109 75.2104C114.358 75.2104 111.098 73.1043 109.441 70.0141C108.887 68.9772 107.797 68.3414 106.623 68.3495C105.314 68.3495 104.257 67.1344 104.257 65.6399C104.257 64.1454 105.318 62.9304 106.623 62.9304C107.271 62.9304 107.858 63.2301 108.287 63.7121V63.6635C108.287 62.6347 108.737 61.6668 109.494 60.9701C111.086 59.5081 113.528 56.6001 112.151 53.4531C112.151 53.4531 116.651 61.0349 127.93 58.1391V58.1351Z" stroke="white" stroke-width="2.02506" stroke-linecap="round" stroke-linejoin="round"/>
<path d="M127.93 58.1351C127.93 58.1351 130.643 57.5194 132.061 56.5312C132.061 56.5312 131.696 45.7984 120.477 42.3923C117.841 41.5903 114.941 42.1006 112.823 43.8624C112.029 44.5226 111.332 45.3529 110.947 46.3897C110.874 46.3938 110.806 46.4019 110.733 46.41C106.812 46.8838 104.107 51.262 104.018 56.0979C103.973 58.6008 104.69 61.2699 105.731 63.1289" stroke="white" stroke-width="2.02506" stroke-linecap="round" stroke-linejoin="round"/>
<path d="M121.558 74.5825V78.26C121.558 81.2773 119.111 83.7236 116.094 83.7236C113.077 83.7236 110.63 81.2773 110.63 78.26V71.7515" stroke="white" stroke-width="2.02506" stroke-linecap="round" stroke-linejoin="round"/>
<path d="M143.962 72.5376H144.784C149.859 72.5376 153.978 76.6566 153.978 81.7314V86.5996C153.978 91.6744 149.859 95.7934 144.784 95.7934H143.962C138.888 95.7934 134.769 91.6744 134.769 86.5996V81.7314C134.769 76.6566 138.888 72.5376 143.962 72.5376Z" stroke="white" stroke-width="2.02506" stroke-linecap="round" stroke-linejoin="round"/>
<path d="M158.467 128.826C161.877 128.826 164.639 125.323 164.639 121.006V118.665C164.639 109.803 158.969 102.618 151.978 102.618H136.77C129.78 102.618 124.109 109.803 124.109 118.665V121.006C124.109 125.327 126.872 128.826 130.282 128.826" stroke="white" stroke-width="2.02506" stroke-linecap="round" stroke-linejoin="round"/>
<path d="M132.49 136.019V121.584" stroke="white" stroke-width="2.02506" stroke-linecap="round" stroke-linejoin="round"/>
<path d="M156.255 121.584V136.019" stroke="white" stroke-width="2.02506" stroke-linecap="round" stroke-linejoin="round"/>
<path d="M111.153 80.5894L108.034 81.4399L106.738 81.8935C104.729 82.5982 102.781 83.5054 101.068 84.765C94.9403 89.2688 92.5103 96.4699 92.5103 108.665V112.46C92.5103 116.153 93.2312 120.924 94.4422 124.736C95.6653 128.587 99.2335 131.204 103.271 131.204" stroke="white" stroke-width="2.02506" stroke-linecap="round" stroke-linejoin="round"/>
<path d="M103.268 98.4014V136.019" stroke="white" stroke-width="2.02506" stroke-linecap="round" stroke-linejoin="round"/>
<path d="M177.591 80.5894L180.71 81.4399L182.006 81.8935C184.015 82.5982 185.963 83.5054 187.676 84.765C193.804 89.2688 196.234 96.4699 196.234 108.665V112.46C196.234 116.153 195.513 120.924 194.302 124.736C193.079 128.587 189.511 131.204 185.473 131.204" stroke="white" stroke-width="2.02506" stroke-linecap="round" stroke-linejoin="round"/>
<path d="M185.477 98.4014V136.019" stroke="white" stroke-width="2.02506" stroke-linecap="round" stroke-linejoin="round"/>
</svg>
