<svg width="216" height="188" viewBox="0 0 216 188" fill="none" xmlns="http://www.w3.org/2000/svg">
<path d="M178.213 119.678L183.94 96.9483C184.56 94.4912 186.051 92.3419 188.142 90.9042L214.68 72.6611C214.68 72.6611 217.627 76.8396 213.502 80.7681C209.371 84.7014 203.813 88.9904 203.813 88.9904L205.775 109.955L189.811 126.631L178.223 119.682L178.213 119.678Z" fill="white" stroke="#022791" stroke-width="0.466414" stroke-miterlimit="10" stroke-linecap="round"/>
<path d="M203.808 88.9858L210.289 100.444C211.145 101.954 211.208 103.786 210.462 105.358L207.318 111.98C206.683 113.316 204.827 113.446 204.014 112.21L198.61 104.012C198.134 103.291 198.052 102.382 198.393 101.589L203.808 88.9907V88.9858Z" fill="white" stroke="#022791" stroke-width="0.466414" stroke-miterlimit="10" stroke-linecap="round"/>
<path d="M205.481 96.8281L200.466 106.83" stroke="#022791" stroke-width="0.466414" stroke-miterlimit="10" stroke-linecap="round"/>
<path d="M207.991 100.536L202.971 110.532" stroke="#022791" stroke-width="0.466414" stroke-miterlimit="10" stroke-linecap="round"/>
<path d="M191.459 110.215C191.459 110.215 196.383 103.733 192.306 96.828L199.624 89.8222C199.624 89.8222 203.077 86.7496 199.624 83.0039" fill="white"/>
<path d="M191.459 110.215C191.459 110.215 196.383 103.733 192.306 96.828L199.624 89.8222C199.624 89.8222 203.077 86.7496 199.624 83.0039" stroke="#022791" stroke-width="0.466414" stroke-miterlimit="10" stroke-linecap="round"/>
<path d="M45.8181 107.565C61.4118 107.565 74.053 94.9243 74.053 79.3306C74.053 63.7369 61.4118 51.0957 45.8181 51.0957C30.2244 51.0957 17.5833 63.7369 17.5833 79.3306C17.5833 94.9243 30.2244 107.565 45.8181 107.565Z" fill="#022791"/>
<path d="M102.471 10.811C102.471 10.811 123.734 23.0003 119.291 55.4377C117.56 67.2135 112.91 75.8253 109.52 80.7779C107.452 83.7976 103.726 85.2113 100.168 84.3602L92.3155 82.4801L96.2488 95.6936C96.5661 96.761 97.398 97.6025 98.4655 97.9343L106.438 100.877L108.818 120.563L57.724 116.966L55.8198 97.0784L62.4843 95.4916L67.8793 59.7797L63.2728 55.731C60.3397 53.1537 60.133 48.6579 62.8208 45.8257C65.1577 43.359 68.9467 42.9647 71.7404 44.9025L74.3658 46.7201L102.471 10.811Z" fill="white" stroke="#022791" stroke-width="0.53854" stroke-miterlimit="10" stroke-linecap="round"/>
<path d="M74.3602 46.7249C74.3602 46.7249 88.2756 50.7399 91.1415 42.2099C94.0024 33.6798 101.018 26.9528 108.889 25.6642C116.761 24.3755 120.482 15.932 116.188 7.19995C111.894 -1.53209 103.162 0.328763 97.2914 1.90592C91.4203 3.47826 81.9767 7.34421 75.2449 4.33896C68.518 1.33372 54.3476 2.76661 46.76 20.8029C39.1723 38.8392 54.6313 57.0197 54.6313 57.0197L66.8975 66.2182L67.8688 59.7942L63.0364 55.5964C60.7236 53.5865 60.1225 50.235 61.5939 47.5423C63.2384 44.5419 66.9216 43.3206 70.0326 44.7487L74.3602 46.7345V46.7249Z" fill="#022791"/>
<path d="M108.131 39.4785L111.203 55.5385C111.391 56.5194 110.641 57.4282 109.641 57.4282H104.438" stroke="#022791" stroke-width="0.53854" stroke-miterlimit="10" stroke-linecap="round"/>
<path d="M117.227 48.4509C118.704 48.4509 119.901 47.254 119.901 45.7775C119.901 44.301 118.704 43.104 117.227 43.104C115.751 43.104 114.554 44.301 114.554 45.7775C114.554 47.254 115.751 48.4509 117.227 48.4509Z" fill="#022791"/>
<path d="M98.6207 48.4509C100.097 48.4509 101.294 47.254 101.294 45.7775C101.294 44.301 100.097 43.104 98.6207 43.104C97.1442 43.104 95.9473 44.301 95.9473 45.7775C95.9473 47.254 97.1442 48.4509 98.6207 48.4509Z" fill="#022791"/>
<path d="M109.313 66.3962C109.313 66.3962 100.394 66.7905 98.3308 59.3567" stroke="#022791" stroke-width="0.53854" stroke-miterlimit="10" stroke-linecap="round"/>
<path d="M27.3157 104.878L55.8199 97.0833C55.8199 97.0833 74.1014 122.39 106.154 100.319L126.729 107.974C132.062 110.494 136.384 114.74 139.005 120.024L148.083 138.339C148.781 139.748 150.665 140.037 151.752 138.897L178.237 111.201C178.237 111.201 181.963 119.75 194.898 123.698L155.32 180.336C152.469 184.418 147.8 186.841 142.823 186.832L6.75985 186.524L0.148309 143.965C-1.44808 126.078 9.99109 109.614 27.3157 104.878Z" fill="#4D75FE"/>
<path d="M91.9645 82.1291L79.1117 78.3882C78.6309 78.2488 78.1596 78.6575 78.2462 79.1528C78.8088 82.3696 81.689 92.0777 96.1094 96.1264L91.9645 82.1291Z" fill="#96D5ED"/>
<path d="M137.712 186.385L125.985 154.813C125.177 152.644 121.999 153.019 121.725 155.318L117.998 186.385H137.712Z" fill="#022791"/>
<path d="M57.3967 108.349C54.1414 105.604 51.5978 102.257 49.6167 98.7808" stroke="#022791" stroke-width="0.53854" stroke-miterlimit="10" stroke-linecap="round"/>
<path d="M72.0049 114.739C71.2308 114.638 70.4759 114.508 69.7402 114.355C67.6678 113.922 65.7492 113.292 63.9797 112.499" stroke="#022791" stroke-width="0.53854" stroke-miterlimit="10" stroke-linecap="round"/>
<path d="M111.232 102.209C111.232 102.209 107.082 115.028 76.4526 115.028" stroke="#022791" stroke-width="0.53854" stroke-miterlimit="10" stroke-linecap="round"/>
<path d="M30.657 141.402L37.3743 186.827" stroke="#022791" stroke-width="0.53854" stroke-miterlimit="10" stroke-linecap="round"/>
</svg>
