<svg width="94" height="94" viewBox="0 0 94 94" fill="none" xmlns="http://www.w3.org/2000/svg">
<path d="M46.9361 93.8097C72.5813 93.8097 93.3708 73.0202 93.3708 47.3751C93.3708 21.7299 72.5813 0.94043 46.9361 0.94043C21.291 0.94043 0.501465 21.7299 0.501465 47.3751C0.501465 73.0202 21.291 93.8097 46.9361 93.8097Z" fill="#FFD125"/>
<path d="M46.6422 23.1121C40.2038 23.1121 34.9867 28.3292 34.9867 34.7676V41.1243H31.2794C29.5388 41.1243 28.1011 42.562 28.1011 44.3026V63.3775C28.1011 65.1182 29.5388 66.5559 31.2794 66.5559H62.0099C63.7505 66.5559 65.1882 65.1182 65.1882 63.3775V44.3026C65.1882 42.562 63.7505 41.1243 62.0099 41.1243H58.3026V34.7676C58.3026 28.3292 53.0855 23.1121 46.647 23.1121H46.6422ZM46.6422 25.2326C51.9459 25.2326 56.1773 29.4687 56.1773 34.7676V41.1243H37.1024V34.7676C37.1024 29.4639 41.3386 25.2326 46.6374 25.2326H46.6422ZM31.2794 43.2448H62.0099C62.6157 43.2448 63.0677 43.6968 63.0677 44.3026V63.3775C63.0677 63.9834 62.6157 64.4354 62.0099 64.4354H31.2794C30.6736 64.4354 30.2216 63.9834 30.2216 63.3775V44.3026C30.2216 43.6968 30.6736 43.2448 31.2794 43.2448ZM46.6422 47.481C44.315 47.481 42.406 49.3899 42.406 51.7172C42.406 52.7558 42.8388 53.6598 43.4639 54.4003V57.016C43.4639 58.7567 44.9016 60.1944 46.6422 60.1944C48.3829 60.1944 49.8206 58.7567 49.8206 57.016V54.4003C50.4457 53.6598 50.8784 52.7558 50.8784 51.7172C50.8784 49.3899 48.9695 47.481 46.6422 47.481ZM46.6422 49.6015C47.8251 49.6015 48.7627 50.5391 48.7627 51.722C48.7627 52.3567 48.4887 52.9049 48.0511 53.2943C47.8299 53.4963 47.7001 53.7896 47.7049 54.0877V57.016C47.7049 57.6219 47.2529 58.0739 46.647 58.0739C46.0412 58.0739 45.5892 57.6219 45.5892 57.016V54.0877C45.594 53.7896 45.4642 53.4915 45.243 53.2943C44.8054 52.9049 44.5313 52.3567 44.5313 51.722C44.5313 50.5391 45.469 49.6015 46.6519 49.6015H46.6422Z" fill="white"/>
</svg>
