<svg width="197" height="136" viewBox="0 0 197 136" fill="none" xmlns="http://www.w3.org/2000/svg">
<path d="M175.467 34.4619H58.4551C55.7039 34.4619 53.4736 36.6922 53.4736 39.4434V89.2199C53.4736 91.9711 55.7039 94.2014 58.4551 94.2014H175.467C178.219 94.2014 180.449 91.9711 180.449 89.2199V39.4434C180.449 36.6922 178.219 34.4619 175.467 34.4619Z" fill="white" stroke="#022791" stroke-width="0.50969" stroke-miterlimit="10"/>
<path d="M166.345 50.469H121.916C120.646 50.469 119.617 51.497 119.617 52.765C119.617 54.0331 120.646 55.061 121.916 55.061H166.345C167.615 55.061 168.644 54.0331 168.644 52.765C168.644 51.497 167.615 50.469 166.345 50.469Z" fill="#4D75FE"/>
<path d="M166.345 62.0332H121.916C120.646 62.0332 119.617 63.0612 119.617 64.3292C119.617 65.5973 120.646 66.6252 121.916 66.6252H166.345C167.615 66.6252 168.644 65.5973 168.644 64.3292C168.644 63.0612 167.615 62.0332 166.345 62.0332Z" fill="#4D75FE"/>
<path d="M166.345 73.6021H121.916C120.646 73.6021 119.617 74.63 119.617 75.8981C119.617 77.1661 120.646 78.1941 121.916 78.1941H166.345C167.615 78.1941 168.644 77.1661 168.644 75.8981C168.644 74.63 167.615 73.6021 166.345 73.6021Z" fill="#4D75FE"/>
<path d="M68.9464 81.6707C67.7394 81.6707 66.8066 80.6033 66.9797 79.4108C68.076 71.8231 74.6058 65.9954 82.4964 65.9954C90.387 65.9954 96.9168 71.8231 98.0131 79.4108C98.1862 80.6033 97.2534 81.6707 96.0464 81.6707H68.9415H68.9464Z" fill="#4D75FE"/>
<path d="M82.156 62.0189C86.697 62.0189 90.3783 58.3376 90.3783 53.7966C90.3783 49.2555 86.697 45.5742 82.156 45.5742C77.6149 45.5742 73.9336 49.2555 73.9336 53.7966C73.9336 58.3376 77.6149 62.0189 82.156 62.0189Z" fill="#4D75FE"/>
<path d="M196.408 14.0697V132.467C196.408 134.159 195.033 135.535 193.341 135.535H3.41876C1.72621 135.535 0.351003 134.159 0.351003 132.467V14.0697H196.404M196.759 13.7139H0V132.462C0 134.352 1.52906 135.881 3.41876 135.881H193.341C195.23 135.881 196.759 134.352 196.759 132.462V13.7139Z" fill="#022791"/>
<path d="M6.88276 0H189.89C193.684 0 196.766 3.08217 196.766 6.876V13.9299H0.00195312V6.876C0.00195312 3.08217 3.08413 0 6.87795 0H6.88276Z" fill="#022791"/>
<path d="M11.0576 9.3946C11.9458 8.50641 11.9458 7.06635 11.0576 6.17815C10.1694 5.28995 8.72933 5.28995 7.84114 6.17815C6.95294 7.06635 6.95293 8.5064 7.84113 9.39459C8.72932 10.2828 10.1694 10.2828 11.0576 9.3946Z" fill="#96D5ED"/>
<path d="M30.5527 9.40121C31.4409 8.51301 31.4409 7.07294 30.5527 6.18474C29.6645 5.29655 28.2244 5.29656 27.3362 6.18475C26.448 7.07295 26.448 8.51299 27.3362 9.40118C28.2244 10.2894 29.6645 10.2894 30.5527 9.40121Z" fill="#96D5ED"/>
<path d="M21.058 8.29986C21.3465 7.07735 20.5893 5.85239 19.3668 5.56385C18.1443 5.27531 16.9194 6.03245 16.6308 7.25496C16.3423 8.47747 17.0994 9.70241 18.3219 9.99095C19.5445 10.2795 20.7694 9.52237 21.058 8.29986Z" fill="#96D5ED"/>
</svg>
