<svg width="172" height="172" viewBox="0 0 172 172" fill="none" xmlns="http://www.w3.org/2000/svg">
<path d="M86.0607 154.187C123.684 154.187 154.184 123.688 154.184 86.0644C154.184 48.4411 123.684 17.9414 86.0607 17.9414C48.4374 17.9414 17.9377 48.4411 17.9377 86.0644C17.9377 123.688 48.4374 154.187 86.0607 154.187Z" fill="#4D75FE"/>
<path d="M16.552 50.2658C29.5407 25.1024 55.7896 7.89746 86.0602 7.89746" stroke="#4D75FE" stroke-width="0.781673" stroke-miterlimit="10"/>
<path d="M15.4754 119.693C10.6152 109.507 7.89355 98.1015 7.89355 86.0646C7.89355 78.3248 9.01948 70.8523 11.1134 63.793" stroke="#4D75FE" stroke-width="0.781673" stroke-miterlimit="10"/>
<path d="M86.0605 164.232C64.4734 164.232 44.9316 155.483 30.7886 141.336" stroke="#4D75FE" stroke-width="0.781673" stroke-miterlimit="10"/>
<path d="M127.384 19.6992C149.509 33.5061 164.228 58.066 164.228 86.0645C164.228 116.404 146.942 142.705 121.685 155.662" stroke="#4D75FE" stroke-width="0.781673" stroke-miterlimit="10"/>
<path d="M35.7014 154.621C14.657 139.137 1 114.192 1 86.0644C1 59.7872 12.9154 36.2925 31.6391 20.6914" stroke="#4D75FE" stroke-width="0.850525" stroke-miterlimit="10"/>
<path d="M168.61 65.478C170.251 72.0676 171.117 78.9649 171.117 86.0648C171.117 133.042 133.034 171.125 86.0568 171.125C73.8295 171.125 62.2056 168.545 51.6956 163.9" stroke="#4D75FE" stroke-width="0.850525" stroke-miterlimit="10"/>
<path d="M122.317 9.09619C139.121 17.0263 152.908 30.2945 161.49 46.7178" stroke="#4D75FE" stroke-width="0.850525" stroke-miterlimit="10"/>
<path d="M68.7825 2.75775C74.3635 1.60752 80.139 1 86.0603 1C91.9815 1 97.6639 1.59537 103.204 2.7294" stroke="#4D75FE" stroke-width="0.850525" stroke-miterlimit="10"/>
<path d="M38.8801 15.2766C44.8986 11.2589 51.4557 7.98639 58.422 5.59277" stroke="#4D75FE" stroke-width="0.850525" stroke-miterlimit="10"/>
<path d="M86.0613 122.232C86.3367 122.232 86.6081 122.175 86.8551 122.062C87.1386 122.005 116 108.239 116 78.5069V68.5031C116 67.8348 115.647 67.2192 115.072 66.879L87.0252 50.1398C86.442 49.8037 85.7211 49.8037 85.1338 50.1398L57.0503 66.879C56.4752 67.2192 56.1228 67.8388 56.1228 68.5031V78.5069C56.1228 108.332 84.9799 122.005 85.2675 122.139C85.5226 122.228 85.794 122.26 86.0613 122.232ZM59.9056 78.5069V69.5601L86.0613 53.9186L112.217 69.4832V78.5028C112.217 103.087 90.5245 115.853 86.0613 118.218C81.598 115.853 59.9056 103.087 59.9056 78.5028V78.5069Z" fill="#FDFDFD"/>
<path d="M99.451 79.0581C98.7139 78.325 97.5232 78.325 96.7861 79.0581L83.773 92.0711L76.4139 84.7323C75.6647 84.0884 74.5428 84.1329 73.8462 84.8295C73.1496 85.5261 73.105 86.648 73.749 87.3973L82.4284 96.0767C83.1655 96.8098 84.3562 96.8098 85.0974 96.0767L99.451 81.7231C100.184 80.986 100.184 79.7952 99.451 79.0581Z" fill="#FDFDFD"/>
</svg>
