<svg width="514" height="298" viewBox="0 0 514 298" fill="none" xmlns="http://www.w3.org/2000/svg">
<path d="M316.029 287.966H478.983L512.876 196.502C515.144 190.372 510.617 183.861 504.079 183.861H361.137C357.213 183.861 353.705 186.306 352.341 189.982L316.029 287.966Z" fill="#FFD125"/>
<path d="M415.521 250.282C422.013 250.282 427.276 245.019 427.276 238.527C427.276 232.034 422.013 226.771 415.521 226.771C409.029 226.771 403.766 232.034 403.766 238.527C403.766 245.019 409.029 250.282 415.521 250.282Z" fill="white"/>
<path d="M301.529 184.321C301.529 184.321 298.836 174.134 309.324 167.144C319.813 160.155 337.016 147.514 337.016 147.514C337.016 147.514 341.321 152.085 337.016 156.656C332.711 161.227 326.262 168.482 326.262 168.482C326.262 168.482 338.425 168.004 348.151 162.786C348.151 162.786 349.312 153.228 355.823 153.228C355.823 153.228 354.857 144.75 363.725 144.75L363.415 152.182C365.922 150.18 367.401 148.86 367.401 148.86C367.401 148.86 373.044 144.289 377.084 147.514L362.874 165.142L362.609 171.503C362.582 172.149 362.316 172.761 361.873 173.23L344.254 191.585L321.319 195.377L319.007 206.999L296.949 194.03L301.52 184.321H301.529Z" fill="white" stroke="#022791" stroke-width="0.742863" stroke-miterlimit="10" stroke-linecap="round"/>
<path d="M355.823 153.228V179.555" stroke="#022791" stroke-width="0.742863" stroke-miterlimit="10" stroke-linecap="round"/>
<path d="M321.708 180.592C321.708 180.592 332.693 179.821 338.282 183.48L342.331 178.59V171.91C342.331 171.91 342.526 166.445 348.115 165.904L349.852 179.431L344.262 191.576" fill="white"/>
<path d="M321.708 180.592C321.708 180.592 332.693 179.821 338.282 183.48L342.331 178.59V171.91C342.331 171.91 342.526 166.445 348.115 165.904L349.852 179.431L344.262 191.576" stroke="#022791" stroke-width="0.742863" stroke-miterlimit="10" stroke-linecap="round"/>
<path d="M348.283 162.006L348.221 166.737" stroke="#022791" stroke-width="0.742863" stroke-miterlimit="10" stroke-linecap="round"/>
<path d="M195.987 10.5698C180.697 37.6947 172.893 67.0076 171.892 96.1168" stroke="#4D75FE" stroke-width="0.685085" stroke-miterlimit="10"/>
<path d="M167.294 279.524C172.147 279.524 176.081 275.59 176.081 270.736C176.081 265.883 172.147 261.949 167.294 261.949C162.44 261.949 158.506 265.883 158.506 270.736C158.506 275.59 162.44 279.524 167.294 279.524Z" fill="#4D75FE"/>
<path d="M85.9535 165.089C109.584 165.089 128.74 145.933 128.74 122.302C128.74 98.6719 109.584 79.5156 85.9535 79.5156C62.3229 79.5156 43.1665 98.6719 43.1665 122.302C43.1665 145.933 62.3229 165.089 85.9535 165.089Z" fill="#022791"/>
<path d="M180.59 20.0396C180.59 20.0396 214.111 39.2537 207.104 90.3853C204.376 108.953 197.05 122.524 191.699 130.337C188.439 135.103 182.566 137.327 176.95 135.98L164.574 133.013L170.775 153.839C171.28 155.522 172.591 156.851 174.265 157.365L186.836 162.007L190.592 193.038L110.049 187.369L107.046 156.018L117.553 153.52L126.057 97.2329L118.793 90.8548C114.169 86.7887 113.85 79.7019 118.075 75.2371C121.76 71.3482 127.731 70.7281 132.134 73.7843L136.271 76.6545L180.573 20.0484L180.59 20.0396Z" fill="white" stroke="#022791" stroke-width="0.792387" stroke-miterlimit="10" stroke-linecap="round"/>
<path d="M201.763 12.5186C211.436 21.7493 212.437 44.0905 190.716 43.4438C178.146 43.0718 167.25 56.0761 162.741 69.5234C158.232 82.9707 136.289 76.6457 136.289 76.6457L129.468 73.5186C124.569 71.2685 118.758 73.1908 116.171 77.9213C113.85 82.1645 114.798 87.4442 118.448 90.6156L126.066 97.2329L124.534 107.358L105.195 92.8568C105.195 92.8568 91.0038 76.1673 89.5952 55.6243C89.1612 49.2462 89.9496 42.5048 92.7843 35.7723C104.743 7.34526 136.395 4.52824 152.403 1.40117C152.403 1.40117 182.548 -5.81854 201.763 12.5186Z" fill="#022791"/>
<path d="M189.52 65.2271L194.357 90.5448C194.649 92.095 193.471 93.5212 191.894 93.5212H183.691" stroke="#022791" stroke-width="0.792387" stroke-miterlimit="10" stroke-linecap="round"/>
<path d="M203.854 79.3743C206.183 79.3743 208.071 77.4864 208.071 75.1576C208.071 72.8288 206.183 70.9409 203.854 70.9409C201.525 70.9409 199.637 72.8288 199.637 75.1576C199.637 77.4864 201.525 79.3743 203.854 79.3743Z" fill="#022791"/>
<path d="M174.523 79.3743C176.852 79.3743 178.74 77.4864 178.74 75.1576C178.74 72.8288 176.852 70.9409 174.523 70.9409C172.194 70.9409 170.306 72.8288 170.306 75.1576C170.306 77.4864 172.194 79.3743 174.523 79.3743Z" fill="#022791"/>
<path d="M191.371 107.659C191.371 107.659 177.304 108.288 174.062 96.5684" stroke="#022791" stroke-width="0.792387" stroke-miterlimit="10" stroke-linecap="round"/>
<path d="M61.7261 169.776L107.047 156.027C107.047 156.027 135.864 195.926 186.393 161.13L218.833 173.195C227.24 177.173 234.052 183.861 238.189 192.188L252.496 221.058C253.594 223.273 256.562 223.733 258.28 221.944L300.031 178.28C300.031 178.28 305.904 191.754 326.297 197.973L263.915 287.258C259.423 293.689 252.062 297.516 244.213 297.498L8.96436 297.011L16.6536 224.309C19.3643 198.726 37.1169 177.244 61.7438 169.776H61.7261Z" fill="#4D75FE"/>
<path d="M164.034 132.463L143.774 126.564C143.013 126.342 142.277 126.989 142.41 127.768C143.296 132.835 147.832 148.143 170.572 154.53L164.034 132.463Z" fill="#96D5ED"/>
<path d="M236.143 296.798L217.655 247.031C216.388 243.612 211.374 244.205 210.94 247.828L205.067 296.798H236.143Z" fill="#022791"/>
<path d="M109.545 173.788C104.415 169.465 100.402 164.186 97.2754 158.702" stroke="#022791" stroke-width="0.792387" stroke-miterlimit="10" stroke-linecap="round"/>
<path d="M132.569 183.87C131.346 183.71 130.159 183.506 128.999 183.267C125.73 182.585 122.709 181.584 119.918 180.335" stroke="#022791" stroke-width="0.792387" stroke-miterlimit="10" stroke-linecap="round"/>
<path d="M194.401 164.106C194.401 164.106 187.854 184.313 139.575 184.313" stroke="#022791" stroke-width="0.792387" stroke-miterlimit="10" stroke-linecap="round"/>
<path d="M58.8462 296.798L65.9065 240.883C66.2608 238.057 70.2738 237.854 70.9205 240.626L84.0223 296.807H58.8462V296.798Z" fill="#022791"/>
<path d="M1 296.798H335.784" stroke="#022791" stroke-width="0.792387" stroke-miterlimit="10" stroke-linecap="round"/>
<path d="M478.983 297.206H281.286C280.019 297.206 278.991 296.178 278.991 294.912V290.27C278.991 289.003 280.019 287.975 281.286 287.975H478.983V297.215V297.206Z" fill="#EFB600"/>
</svg>
