<svg width="172" height="95" viewBox="0 0 172 95" fill="none" xmlns="http://www.w3.org/2000/svg">
<path d="M164.882 0.345703H124.833C121.418 0.345703 118.649 3.11405 118.649 6.52898V88.3376C118.649 91.7526 121.418 94.5209 124.833 94.5209H164.882C168.297 94.5209 171.066 91.7526 171.066 88.3376V6.52898C171.066 3.11405 168.297 0.345703 164.882 0.345703Z" fill="white"/>
<path d="M164.882 0.682112C168.107 0.682112 170.72 3.30424 170.72 6.51989V88.3286C170.72 91.5531 168.098 94.1663 164.882 94.1663H124.832C121.608 94.1663 118.995 91.5442 118.995 88.3286V6.51989C118.995 3.29538 121.617 0.682112 124.832 0.682112H164.882ZM164.882 0H124.832C121.227 0 118.304 2.92333 118.304 6.52876V88.3374C118.304 91.9428 121.227 94.8662 124.832 94.8662H164.882C168.488 94.8662 171.411 91.9428 171.411 88.3374V6.52876C171.411 2.92333 168.488 0 164.882 0Z" fill="#022791"/>
<path d="M171.401 14.5723H118.303V2.56012C118.303 1.15161 119.446 0 120.863 0H168.85C170.258 0 171.41 1.14275 171.41 2.56012V14.5723H171.401Z" fill="#022791"/>
<path d="M118.303 85.3608H171.401V92.7932C171.401 93.9359 170.48 94.8572 169.337 94.8572H120.367C119.224 94.8572 118.303 93.9359 118.303 92.7932V85.3608Z" fill="#022791"/>
<path d="M161.16 46.4097H127.702C125.994 46.4097 124.61 47.7938 124.61 49.5013C124.61 51.2088 125.994 52.5929 127.702 52.5929H161.16C162.868 52.5929 164.252 51.2088 164.252 49.5013C164.252 47.7938 162.868 46.4097 161.16 46.4097Z" fill="#96D5ED"/>
<path d="M144.427 41.6174C150.019 41.6174 154.552 37.2904 154.552 31.9528C154.552 26.6151 150.019 22.2881 144.427 22.2881C138.835 22.2881 134.302 26.6151 134.302 31.9528C134.302 37.2904 138.835 41.6174 144.427 41.6174Z" fill="#4D75FE"/>
<path d="M124.61 74.6333C124.61 64.1891 133.486 55.7114 144.435 55.7114C155.385 55.7114 164.261 64.1802 164.261 74.6333" fill="#FFD125"/>
<path d="M9.52799 55.7116C14.3813 55.7116 18.3157 51.7772 18.3157 46.9239C18.3157 42.0706 14.3813 38.1362 9.52799 38.1362C4.67467 38.1362 0.740234 42.0706 0.740234 46.9239C0.740234 51.7772 4.67467 55.7116 9.52799 55.7116Z" stroke="#022791" stroke-width="0.742863" stroke-miterlimit="10" stroke-linecap="round"/>
<path d="M18.3159 46.9238H118.303" stroke="#022791" stroke-width="0.742863" stroke-miterlimit="10" stroke-linecap="round"/>
</svg>
