<svg width="54" height="95" viewBox="0 0 54 95" fill="none" xmlns="http://www.w3.org/2000/svg">
<path d="M46.5786 0.345703H6.52898C3.11404 0.345703 0.345703 3.11405 0.345703 6.52898V88.3376C0.345703 91.7526 3.11404 94.5209 6.52898 94.5209H46.5786C49.9936 94.5209 52.762 91.7526 52.762 88.3376V6.52898C52.762 3.11405 49.9936 0.345703 46.5786 0.345703Z" fill="white"/>
<path d="M46.5784 0.682112C49.8029 0.682112 52.4163 3.30424 52.4163 6.51989V88.3286C52.4163 91.5531 49.7941 94.1663 46.5784 94.1663H6.52878C3.30425 94.1663 0.690942 91.5442 0.690942 88.3286V6.51989C0.690942 3.29538 3.31311 0.682112 6.52878 0.682112H46.5784ZM46.5784 0H6.52878C2.92333 0 0 2.92333 0 6.52876V88.3374C0 91.9428 2.92333 94.8662 6.52878 94.8662H46.5784C50.1839 94.8662 53.1072 91.9428 53.1072 88.3374V6.52876C53.1072 2.92333 50.1839 0 46.5784 0Z" fill="#022791"/>
<path d="M53.0984 14.5723H0V2.56012C0 1.15161 1.14277 0 2.56015 0H50.5471C51.9556 0 53.1072 1.14275 53.1072 2.56012V14.5723H53.0984Z" fill="#022791"/>
<path d="M0 85.3608H53.0984V92.7932C53.0984 93.9359 52.1771 94.8572 51.0343 94.8572H2.06401C0.921254 94.8572 0 93.9359 0 92.7932V85.3608Z" fill="#022791"/>
<path d="M26.1427 26.1328H14.0064C10.841 26.1328 8.2749 28.6989 8.2749 31.8643V32.0503C8.2749 35.2157 10.841 37.7818 14.0064 37.7818H26.1427C29.3081 37.7818 31.8742 35.2157 31.8742 32.0503V31.8643C31.8742 28.6989 29.3081 26.1328 26.1427 26.1328Z" fill="white"/>
<path d="M26.1425 26.487C29.1102 26.487 31.5196 28.8965 31.5196 31.8641V32.0413C31.5196 35.0089 29.1013 37.4184 26.1425 37.4184H14.0151C11.0475 37.4184 8.63795 35.0089 8.63795 32.0413V31.8641C8.63795 28.8965 11.0564 26.487 14.0151 26.487H26.1425ZM26.1425 25.7783H14.0151C10.6489 25.7783 7.92041 28.5068 7.92041 31.873V32.0502C7.92041 35.4164 10.6489 38.1448 14.0151 38.1448H26.1425C29.5088 38.1448 32.2372 35.4164 32.2372 32.0502V31.873C32.2372 28.5068 29.5088 25.7783 26.1425 25.7783Z" fill="#022791"/>
<path d="M29.18 68.459H10.9668C9.28378 68.459 7.91943 69.8233 7.91943 71.5063V71.5949C7.91943 73.2779 9.28378 74.6423 10.9668 74.6423H29.18C30.8631 74.6423 32.2274 73.2779 32.2274 71.5949V71.5063C32.2274 69.8233 30.8631 68.459 29.18 68.459Z" fill="#96D5ED"/>
<path d="M27.0717 41.1836H13.0751C10.2277 41.1836 7.91943 43.4919 7.91943 46.3393V59.1487C7.91943 61.9961 10.2277 64.3044 13.0751 64.3044H27.0717C29.9191 64.3044 32.2274 61.9961 32.2274 59.1487V46.3393C32.2274 43.4919 29.9191 41.1836 27.0717 41.1836Z" fill="#FFD125"/>
<path d="M41.0515 25.7783H40.8567C38.5719 25.7783 36.7197 27.6305 36.7197 29.9153V70.5051C36.7197 72.7899 38.5719 74.6421 40.8567 74.6421H41.0515C43.3363 74.6421 45.1885 72.7899 45.1885 70.5051V29.9153C45.1885 27.6305 43.3363 25.7783 41.0515 25.7783Z" fill="#4D75FE"/>
</svg>
