<svg width="215" height="140" viewBox="0 0 215 140" fill="none" xmlns="http://www.w3.org/2000/svg">
<path d="M3.58802 138.981C1.93147 138.981 0.584961 137.635 0.584961 135.978V16.6714H213.616V135.978C213.616 137.635 212.27 138.981 210.613 138.981H3.58802Z" fill="white"/>
<path d="M213.031 17.2651V135.987C213.031 137.316 211.951 138.406 210.613 138.406H3.58773C2.25894 138.406 1.16933 137.325 1.16933 135.987V17.2651H213.031ZM214.201 16.0958H0V135.987C0 137.972 1.6034 139.575 3.58773 139.575H210.622C212.606 139.575 214.21 137.972 214.21 135.987V16.0869L214.201 16.0958Z" fill="#022791"/>
<path d="M8.94718 0H205.254C210.197 0 214.201 4.01292 214.201 8.94713V19.1699H0V8.94713C0 4.00406 4.01294 0 8.94718 0Z" fill="#0A2F39"/>
<path d="M85.1412 34.3003H26.896C22.982 34.3003 19.8091 37.4732 19.8091 41.3871V99.6321C19.8091 103.546 22.982 106.719 26.896 106.719H85.1412C89.0551 106.719 92.228 103.546 92.228 99.6321V41.3871C92.228 37.4732 89.0551 34.3003 85.1412 34.3003Z" fill="#4D75FE"/>
<path d="M174.603 73.1362H127.458C121.709 73.1362 117.049 77.7964 117.049 83.545V83.5539C117.049 89.3025 121.709 93.9627 127.458 93.9627H174.603C180.352 93.9627 185.012 89.3025 185.012 83.5539V83.545C185.012 77.7964 180.352 73.1362 174.603 73.1362Z" fill="#FFD125"/>
<path d="M188.973 42.2729H113.09C111.089 42.2729 109.467 43.8951 109.467 45.8961C109.467 47.8971 111.089 49.5192 113.09 49.5192H188.973C190.974 49.5192 192.596 47.8971 192.596 45.8961C192.596 43.8951 190.974 42.2729 188.973 42.2729Z" fill="#DAF0F9"/>
<path d="M188.973 57.2261H113.09C111.089 57.2261 109.467 58.8482 109.467 60.8492C109.467 62.8502 111.089 64.4724 113.09 64.4724H188.973C190.974 64.4724 192.596 62.8502 192.596 60.8492C192.596 58.8482 190.974 57.2261 188.973 57.2261Z" fill="#DAF0F9"/>
<path d="M8.94718 0H205.254C210.197 0 214.201 4.01292 214.201 8.94713V19.1699H0V8.94713C0 4.00406 4.01294 0 8.94718 0Z" fill="#022791"/>
<path d="M71.4278 58.1651C71.3303 57.1287 70.4888 56.2871 69.4523 56.2871H65.5014V59.8571C65.5014 61.4516 64.1814 62.7716 62.5869 62.7716C60.9924 62.7716 59.6724 61.4516 59.6724 59.8571V56.2871H52.2489V59.8571C52.2489 61.4516 50.929 62.7716 49.3344 62.7716C47.7399 62.7716 46.42 61.4516 46.42 59.8571V56.2871H42.6639C41.6275 56.2871 40.7859 57.1375 40.591 58.1651L38.1461 87.8767C38.0486 89.0017 38.9965 90.0382 40.219 90.0382H71.9061C73.1286 90.0382 74.0676 89.0017 73.8816 87.8767L71.4366 58.1651H71.4278Z" fill="white"/>
<path d="M56.0127 83.5538C51.5923 83.5538 47.9248 79.9838 47.9248 75.466C47.9248 70.9481 51.5923 67.4756 56.0127 67.4756C60.4331 67.4756 64.1006 71.0456 64.1006 75.5634C64.1006 80.0813 60.4331 83.5538 56.0127 83.5538Z" fill="#FFD125"/>
<path d="M49.4314 60.8935C49.9983 60.8935 50.4678 60.424 50.4678 59.8571V52.7082C50.4678 49.8912 52.5407 47.3488 55.2603 46.9768C58.6443 46.5073 61.5588 49.2357 61.5588 52.5222V59.8571C61.5588 60.424 62.0283 60.8935 62.5952 60.8935C63.1622 60.8935 63.6317 60.424 63.6317 59.8571V52.5222C63.6317 48.1018 59.9642 44.6204 55.5438 44.9039C51.5043 45.1873 48.4924 48.7573 48.4924 52.8057V59.9545C48.3949 60.424 48.8644 60.8935 49.4314 60.8935Z" fill="white"/>
<path d="M14.0147 12.3843C15.0812 12.3843 15.9458 11.5197 15.9458 10.4531C15.9458 9.38658 15.0812 8.52197 14.0147 8.52197C12.9481 8.52197 12.0835 9.38658 12.0835 10.4531C12.0835 11.5197 12.9481 12.3843 14.0147 12.3843Z" fill="#FFFEFF"/>
<path d="M21.5083 12.3843C22.5749 12.3843 23.4395 11.5197 23.4395 10.4531C23.4395 9.38658 22.5749 8.52197 21.5083 8.52197C20.4418 8.52197 19.5771 9.38658 19.5771 10.4531C19.5771 11.5197 20.4418 12.3843 21.5083 12.3843Z" fill="#FFFEFF"/>
<path d="M28.9942 12.3843C30.0607 12.3843 30.9253 11.5197 30.9253 10.4531C30.9253 9.38658 30.0607 8.52197 28.9942 8.52197C27.9276 8.52197 27.063 9.38658 27.063 10.4531C27.063 11.5197 27.9276 12.3843 28.9942 12.3843Z" fill="#FFFEFF"/>
</svg>
