<svg width="113" height="113" viewBox="0 0 113 113" fill="none" xmlns="http://www.w3.org/2000/svg">
<path d="M56.3938 112.787C87.5392 112.787 112.788 87.5388 112.788 56.3935C112.788 25.2482 87.5392 0 56.3938 0C25.2484 0 0 25.2482 0 56.3935C0 87.5388 25.2484 112.787 56.3938 112.787Z" fill="#FFD125"/>
<path d="M69.5206 96.1417C63.3639 98.002 56.8262 98.2235 50.5455 96.7884C49.8634 96.6289 49.1813 97.0542 49.0218 97.7274C48.8623 98.4095 49.2876 99.0916 49.9608 99.2511C56.6491 100.784 63.6296 100.544 70.1938 98.5513C70.8228 98.3209 71.1594 97.6388 70.9645 97.001C70.7696 96.3632 70.1141 95.9823 69.4674 96.1417H69.5206Z" fill="#FDFDFD"/>
<path d="M92.9707 77.7779C92.3594 77.4501 91.5887 77.6804 91.2609 78.3005C88.2313 83.9877 83.7666 88.7802 78.3097 92.2084C78.0262 92.3856 77.8225 92.6691 77.7427 92.9968C77.663 93.3246 77.725 93.6701 77.9022 93.9536C78.2743 94.5471 79.0538 94.7242 79.6473 94.361C85.4586 90.6847 90.2068 85.5557 93.4313 79.4876C93.7679 78.8852 93.5553 78.1233 92.9618 77.7779H92.9707Z" fill="#FDFDFD"/>
<path d="M86.0335 78.1412C89.7187 72.4983 91.6676 65.9075 91.6587 59.1662C91.6587 58.4664 91.0917 57.8994 90.3919 57.8994C89.6921 57.8994 89.1251 58.4664 89.1251 59.1662C89.134 65.4115 87.3268 71.515 83.9163 76.7415C81.1347 81.0025 77.3875 84.5548 72.9759 87.0972H72.8962C69.9906 88.7626 66.8369 89.9585 63.5592 90.6495C58.5807 91.6859 53.425 91.5442 48.5085 90.2331C47.8441 90.0825 47.1797 90.4811 47.0025 91.1367C46.8254 91.7922 47.1974 92.4743 47.853 92.6781C53.1504 94.0954 58.7136 94.246 64.0819 93.121C67.6342 92.368 71.0536 91.0569 74.1984 89.2409H74.2781C79.0086 86.5037 83.0304 82.7033 86.0246 78.1412H86.0335Z" fill="#FDFDFD"/>
<path d="M56.9433 83.35C57.1293 83.35 57.3065 83.3145 57.4748 83.2348C57.6608 83.1994 76.9637 73.9865 76.9637 54.1079V47.4197C76.9637 46.9768 76.7245 46.5604 76.3436 46.3301L57.5899 35.1329C57.2002 34.9114 56.7129 34.9114 56.3232 35.1329L37.543 46.3301C37.162 46.5604 36.9229 46.9679 36.9229 47.4197V54.1079C36.9229 74.0573 56.2257 83.1994 56.4117 83.2879C56.5801 83.35 56.7661 83.3677 56.9433 83.35ZM39.4564 54.1079V48.1284L56.9433 37.6664L74.4301 48.0752V54.1079C74.4301 70.5494 59.9197 79.089 56.9433 80.6658C53.9579 79.089 39.4564 70.5494 39.4564 54.1079Z" fill="#FDFDFD"/>
<path d="M65.8985 54.4802C65.4025 53.9929 64.6052 53.9929 64.118 54.4802L55.4188 63.1793L50.5023 58.2716C49.9974 57.8375 49.2533 57.873 48.7837 58.3336C48.3142 58.8031 48.2877 59.5473 48.7217 60.0522L54.5241 65.8545C55.0202 66.3418 55.8175 66.3418 56.3047 65.8545L65.9074 56.2519C66.3946 55.7558 66.3946 54.9585 65.9074 54.4713L65.8985 54.4802Z" fill="#FDFDFD"/>
<path d="M44.9386 20.9946C45.0626 21.0123 45.1866 21.0123 45.3018 20.9946C51.4585 19.1343 57.9961 18.9128 64.2769 20.3479C64.9678 20.5074 65.6677 20.0733 65.8271 19.3823C65.9866 18.6914 65.5525 17.9915 64.8615 17.8321C58.1733 16.2996 51.1927 16.5387 44.6285 18.5319C43.9287 18.6294 43.4415 19.2849 43.5478 19.9759C43.6452 20.6757 44.3008 21.1629 44.9917 21.0566L44.9386 20.9946Z" fill="#FDFDFD"/>
<path d="M21.8541 39.3054C22.4653 39.6332 23.236 39.4029 23.5638 38.7828C26.5934 33.0956 31.0582 28.3031 36.515 24.8749C36.8871 24.7597 37.1794 24.4762 37.3123 24.113C37.4452 23.7498 37.4098 23.3423 37.206 23.0146C37.0023 22.6868 36.6656 22.4653 36.2759 22.4122C35.8861 22.3679 35.5052 22.5008 35.2305 22.7754C29.4016 26.4251 24.6268 31.5365 21.3846 37.5957C21.0479 38.1981 21.2605 38.9599 21.8541 39.3054Z" fill="#FDFDFD"/>
<path d="M40.8638 31.2263H40.9436C43.8492 29.5608 47.0117 28.3561 50.2894 27.674C55.2679 26.6375 60.4236 26.7793 65.3401 28.0903C65.6679 28.1878 66.0222 28.1523 66.3234 27.984C66.6246 27.8157 66.8461 27.5411 66.9347 27.2045C67.0233 26.8767 66.979 26.5224 66.8018 26.23C66.6246 25.9377 66.3412 25.7251 66.0045 25.6454C60.7071 24.228 55.1439 24.0774 49.7756 25.2024C46.2233 25.9554 42.8039 27.2665 39.6591 29.0825H39.5794C34.8577 31.8198 30.8448 35.6201 27.8594 40.1822C24.1654 45.8163 22.1988 52.4159 22.1899 59.1573C22.1899 59.8571 22.7569 60.424 23.4567 60.424C24.1565 60.424 24.7235 59.8571 24.7235 59.1573C24.7235 52.912 26.5218 46.8084 29.9324 41.5819C32.7139 37.3209 36.4611 33.7687 40.8727 31.2263H40.8638Z" fill="#FDFDFD"/>
</svg>
