<svg width="64" height="64" viewBox="0 0 64 64" fill="none" xmlns="http://www.w3.org/2000/svg">
<path d="M31.836 63.672C49.4185 63.672 63.672 49.4185 63.672 31.836C63.672 14.2535 49.4185 0 31.836 0C14.2534 0 0 14.2535 0 31.836C0 49.4185 14.2534 63.672 31.836 63.672Z" fill="#4D75FE"/>
<path d="M43.8147 21.5363C43.7398 20.7343 43.0801 20.0746 42.278 20.0746H39.2046V22.8557C39.2046 24.1 38.1776 25.1195 36.9407 25.1195C35.7039 25.1195 34.677 24.0925 34.677 22.8557V20.0746H28.9049V22.8557C28.9049 24.1 27.878 25.1195 26.6411 25.1195C25.4042 25.1195 24.3773 24.0925 24.3773 22.8557V20.0746H21.4538C20.6517 20.0746 19.9921 20.7343 19.8421 21.5363L17.9381 44.6394C17.8632 45.5164 18.5978 46.3185 19.5498 46.3185H44.1895C45.1415 46.3185 45.8686 45.5164 45.7262 44.6394L43.8222 21.5363H43.8147Z" fill="white"/>
<path d="M31.8285 41.2736C28.3953 41.2736 25.5393 38.4926 25.5393 34.9844C25.5393 31.4763 28.3878 28.7701 31.8285 28.7701C35.2692 28.7701 38.1178 31.5512 38.1178 35.0594C38.1178 38.5676 35.2692 41.2736 31.8285 41.2736Z" fill="#FFD125"/>
<path d="M26.7087 23.6574C27.151 23.6574 27.5108 23.2902 27.5108 22.8554V17.3007C27.5108 15.1044 29.1224 13.1329 31.2363 12.8406C33.8675 12.4732 36.1313 14.5946 36.1313 17.1508V22.8554C36.1313 23.2977 36.4986 23.6574 36.9333 23.6574C37.3681 23.6574 37.7354 23.2902 37.7354 22.8554V17.1508C37.7354 13.7176 34.8869 11.0115 31.4462 11.2289C28.3054 11.4463 25.9666 14.2274 25.9666 17.3682V22.9228C25.8916 23.2901 26.2589 23.6574 26.7012 23.6574H26.7087Z" fill="white"/>
</svg>
