<svg width="264" height="301" viewBox="0 0 264 301" fill="none" xmlns="http://www.w3.org/2000/svg">
<path d="M18.4666 213.535L34.7406 288.931L99.0572 289.448L18.4666 213.535Z" fill="#4D75FE"/>
<path d="M65.3319 142.622L131.83 148.267L132.639 167.599L62.2285 164.353L65.3319 142.622Z" fill="#022791"/>
<path d="M75.2423 114.167H70.8271C70.8271 114.167 70.5572 102.285 61.6219 90.1043C52.6865 77.9231 42.4019 69.8048 43.2114 51.1245C44.021 32.4442 60.8048 31.3648 69.2005 28.1115C77.5886 24.8656 87.6109 14.5735 90.0471 11.0578C92.4834 7.54212 98.2404 3.20937 104.432 5.64561C110.624 8.08184 114.14 12.9543 114.14 12.9543C114.14 12.9543 118.742 8.5541 122.528 4.93348C126.321 1.31286 132.543 -1.39324 138.225 0.773134C143.907 2.93951 149.596 8.21678 146.343 21.4174C143.097 34.6106 139.162 44.1381 139.162 44.1381L87.3335 114.167H75.2348H75.2423Z" fill="#4D75FE"/>
<path d="M146.021 74.43C142.977 42.2417 128.36 21.9572 126.531 21.4175L65.9621 41.6495L71.067 69.8049C65.8497 69.8274 61.6294 74.0552 61.6294 79.28C61.6294 84.5048 65.8722 88.755 71.1045 88.755C72.2064 88.755 73.2634 88.5601 74.2454 88.2078L75.1973 101.708C75.7146 109.017 75.3773 116.356 74.1929 123.589L67.4464 164.796L132.925 171.61L129.574 158.701L119.065 123.844C119.065 123.844 125.916 124.272 136.268 121.131C146.62 117.99 149.057 106.611 146.013 74.4225L146.021 74.43Z" fill="white" stroke="#022791" stroke-width="0.719627" stroke-miterlimit="10" stroke-linecap="round"/>
<path d="M66.7713 66.5515L71.0665 69.8048L75.7066 78.4628H78.6826C78.6826 78.4628 75.9765 60.3297 81.1188 52.2039C86.2611 44.0856 96.2759 41.9192 102.775 42.7288C109.274 43.5384 129.844 43.8083 136.882 30.8175C143.921 17.8267 130.113 15.3905 130.113 15.3905L56.2092 40.5624L58.6455 61.4091L66.7638 66.5515H66.7713Z" fill="#4D75FE"/>
<path d="M110.624 67.1737C112.93 67.1737 114.799 65.3043 114.799 62.9983C114.799 60.6924 112.93 58.823 110.624 58.823C108.318 58.823 106.448 60.6924 106.448 62.9983C106.448 65.3043 108.318 67.1737 110.624 67.1737Z" fill="#022791"/>
<path d="M138.877 62.9908C141.183 62.9908 143.052 61.1214 143.052 58.8155C143.052 56.5095 141.183 54.6401 138.877 54.6401C136.571 54.6401 134.701 56.5095 134.701 58.8155C134.701 61.1214 136.571 62.9908 138.877 62.9908Z" fill="#022791"/>
<path d="M126.658 57.3988L136.418 74.7223C137.834 77.241 136.56 80.4269 133.802 81.2739L128.269 82.968" stroke="#022791" stroke-width="0.719627" stroke-miterlimit="10" stroke-linecap="round"/>
<path d="M114.799 86.3187C114.799 86.3187 116.426 95.5239 131.83 95.5239" stroke="#022791" stroke-width="0.719627" stroke-miterlimit="10" stroke-linecap="round"/>
<path d="M118.472 123.469C118.472 123.469 108.764 123.732 101.148 120.089C100.061 119.564 98.9818 120.838 99.649 121.843L121.358 154.503L127.302 152.007L118.479 123.469H118.472Z" fill="#96D5ED"/>
<path d="M65.3324 142.622C65.3324 142.622 100.969 171.122 131.83 148.267L158.884 152.779C158.884 152.779 180.473 154.473 194.865 173.521C201.642 182.494 229.924 218.228 257.952 253.519C274.699 274.606 252.443 304.171 227.541 293.908L202.481 283.579L124.312 299.92C117.43 301.36 110.272 299.448 105.017 294.763L27.6719 225.799C8.81171 208.985 10.9256 178.888 31.9522 164.87L65.3324 142.615V142.622Z" fill="#4D75FE"/>
<path d="M202.481 283.586L157.19 253.527L165.233 226.863L249.474 242.838" stroke="#022791" stroke-width="0.719627" stroke-miterlimit="10" stroke-linecap="round"/>
<path d="M162.917 234.547L118.097 232.785L131.83 246.758L157.19 253.527L162.917 234.547Z" fill="white" stroke="#022791" stroke-width="0.719627" stroke-miterlimit="10" stroke-linecap="round"/>
<path d="M131.83 246.758L70.4143 184.743" stroke="#022791" stroke-width="0.719627" stroke-miterlimit="10" stroke-linecap="round"/>
<path d="M138.412 233.588L118.098 232.793L68.1585 183.011C67.5063 182.359 68.3908 181.332 69.133 181.887L138.412 233.588Z" fill="#022791"/>
<path d="M196.469 232.785L179.962 215.881C178.778 214.675 176.844 216.151 177.706 217.606L185.435 230.694L196.469 232.785Z" fill="#022791"/>
<path d="M137.145 187.269V214.39L153.022 222.486L168.899 214.39V187.269H137.145Z" stroke="#022791" stroke-width="0.719627" stroke-miterlimit="10" stroke-linecap="round"/>
<path d="M137.145 196.242H174.543" stroke="#022791" stroke-width="0.719627" stroke-miterlimit="10" stroke-linecap="round"/>
<path d="M98.3672 288.834L27.6714 225.799" stroke="#022791" stroke-width="0.719627" stroke-miterlimit="10" stroke-linecap="round"/>
<path d="M1 288.834H97.43" stroke="#022791" stroke-width="0.622177" stroke-miterlimit="10" stroke-linecap="round"/>
</svg>
