<svg width="331" height="269" viewBox="0 0 331 269" fill="none" xmlns="http://www.w3.org/2000/svg">
<path d="M59.9925 168.733C59.9925 168.733 62.0989 160.749 53.8831 155.262C45.6599 149.782 32.1744 139.873 32.1744 139.873C32.1744 139.873 28.8012 143.456 32.1744 147.039C35.5477 150.622 40.6075 156.312 40.6075 156.312C40.6075 156.312 31.0725 155.937 23.4489 151.844C23.4489 151.844 22.5419 144.348 17.4371 144.348C17.4371 144.348 18.1942 137.699 11.2453 137.699L11.4851 143.531C9.52116 141.957 8.35928 140.922 8.35928 140.922C8.35928 140.922 3.92906 137.339 0.773193 139.865L11.9124 153.688L12.1223 158.673C12.1448 159.175 12.3472 159.662 12.6995 160.022L26.5074 174.415L44.4905 177.391L46.3046 186.506L63.5906 176.334L60.0075 168.725L59.9925 168.733Z" fill="white" stroke="#022791" stroke-width="0.622177" stroke-miterlimit="10" stroke-linecap="round"/>
<path d="M17.4294 144.355V165" stroke="#022791" stroke-width="0.622177" stroke-miterlimit="10" stroke-linecap="round"/>
<path d="M44.1756 165.809C44.1756 165.809 35.5625 165.202 31.1773 168.073L28.0065 164.242V159.01C28.0065 159.01 27.8565 154.73 23.4713 154.303L22.1145 164.91L26.4997 174.43" fill="white"/>
<path d="M44.1756 165.809C44.1756 165.809 35.5625 165.202 31.1773 168.073L28.0065 164.242V159.01C28.0065 159.01 27.8565 154.73 23.4713 154.303L22.1145 164.91L26.4997 174.43" stroke="#022791" stroke-width="0.622177" stroke-miterlimit="10" stroke-linecap="round"/>
<path d="M23.3433 151.237L23.3882 154.947" stroke="#022791" stroke-width="0.622177" stroke-miterlimit="10" stroke-linecap="round"/>
<path d="M176.625 253.026C180.731 253.026 184.061 249.697 184.061 245.59C184.061 241.483 180.731 238.154 176.625 238.154C172.518 238.154 169.188 241.483 169.188 245.59C169.188 249.697 172.518 253.026 176.625 253.026Z" fill="#4D75FE"/>
<path d="M235.873 53.5473C250.579 53.5473 262.499 41.6263 262.499 26.9211C262.499 12.2159 250.579 0.294922 235.873 0.294922C221.168 0.294922 209.247 12.2159 209.247 26.9211C209.247 41.6263 221.168 53.5473 235.873 53.5473Z" fill="#022791"/>
<path d="M165.373 33.4576C165.373 33.4576 137.007 49.7167 142.937 92.9843C145.245 108.696 151.445 120.18 155.972 126.792C158.731 130.825 163.701 132.706 168.453 131.567L178.926 129.056L173.678 146.679C173.251 148.103 172.142 149.228 170.725 149.662L160.088 153.59L156.909 179.849L225.064 175.052L227.605 148.523L218.715 146.409L211.519 98.7788L217.665 93.3816C221.578 89.9408 221.848 83.9439 218.273 80.1659C215.154 76.8751 210.102 76.3504 206.376 78.9365L202.876 81.3653L165.388 33.4651L165.373 33.4576Z" fill="white" stroke="#022791" stroke-width="0.719627" stroke-miterlimit="10" stroke-linecap="round"/>
<path d="M202.861 81.3578C202.861 81.3578 184.301 86.7101 180.478 75.331C176.662 63.9519 167.3 54.979 156.805 53.2624C146.303 51.5458 141.341 40.2791 147.068 28.6302C152.795 16.9812 164.444 19.4624 172.269 21.5689C180.095 23.6678 192.696 28.8251 201.677 24.8147C210.65 20.8043 229.555 22.7158 239.674 46.7708C242.073 52.4678 242.74 58.1724 242.373 63.5696C241.181 80.953 229.172 95.0757 229.172 95.0757L212.808 107.347L211.512 98.7788L217.958 93.1792C221.047 90.4956 221.849 86.0279 219.885 82.4373C217.696 78.4343 212.778 76.8077 208.633 78.7117L202.861 81.3578Z" fill="#022791"/>
<path d="M157.817 71.6879L153.724 93.1118C153.477 94.4236 154.474 95.6304 155.808 95.6304H162.75" stroke="#022791" stroke-width="0.719627" stroke-miterlimit="10" stroke-linecap="round"/>
<path d="M145.688 83.6668C147.659 83.6668 149.256 82.0693 149.256 80.0987C149.256 78.128 147.659 76.5305 145.688 76.5305C143.718 76.5305 142.12 78.128 142.12 80.0987C142.12 82.0693 143.718 83.6668 145.688 83.6668Z" fill="#022791"/>
<path d="M170.508 83.6668C172.478 83.6668 174.076 82.0693 174.076 80.0987C174.076 78.128 172.478 76.5305 170.508 76.5305C168.537 76.5305 166.939 78.128 166.939 80.0987C166.939 82.0693 168.537 83.6668 170.508 83.6668Z" fill="#022791"/>
<path d="M156.242 107.594C156.242 107.594 168.146 108.127 170.89 98.2092" stroke="#022791" stroke-width="0.719627" stroke-miterlimit="10" stroke-linecap="round"/>
<path d="M262.251 159.532L227.529 149C227.529 149 203.144 182.762 160.386 153.318L132.935 163.527C125.822 166.893 120.057 172.553 116.556 179.599L104.45 204.029C103.521 205.903 101.009 206.293 99.5552 204.779L64.226 167.83C64.226 167.83 59.256 179.232 42 184.494L94.7876 260.047C98.5882 265.49 104.817 268.728 111.459 268.713L276.793 268.301L290.923 209.674C296.148 187.995 283.562 166.009 262.228 159.532H262.251Z" fill="#98AFED"/>
<path d="M179.383 128.583L196.527 123.591C197.171 123.403 197.794 123.951 197.681 124.61C196.932 128.898 193.094 141.851 173.851 147.256L179.383 128.583Z" fill="#96D5ED"/>
<path d="M14.3413 267.644H329.965" stroke="#022791" stroke-width="0.622177" stroke-miterlimit="10" stroke-linecap="round"/>
<path d="M118.357 267.644L134.001 225.531C135.073 222.637 139.316 223.139 139.683 226.205L144.653 267.644H118.357Z" fill="#022791"/>
<path d="M226.826 267.644L250.379 228.874C251.308 227.345 253.655 228.334 253.205 230.066L243.557 267.644H226.826Z" fill="#022791"/>
<path d="M225.491 163.56C229.831 159.902 233.227 155.435 235.873 150.794" stroke="#022791" stroke-width="0.719627" stroke-miterlimit="10" stroke-linecap="round"/>
<path d="M206.009 172.083C207.044 171.949 208.048 171.776 209.03 171.574C211.796 170.997 214.352 170.149 216.714 169.093" stroke="#022791" stroke-width="0.719627" stroke-miterlimit="10" stroke-linecap="round"/>
<path d="M153.687 155.367C153.687 155.367 159.226 172.466 200.08 172.466" stroke="#022791" stroke-width="0.719627" stroke-miterlimit="10" stroke-linecap="round"/>
<path d="M216.714 148.021L254.225 156.604C254.225 156.604 258.587 123.793 257.223 113.561C254.839 95.6379 242.111 85.4582 242.373 63.5696L217.958 93.1792L211.512 98.7788L214.368 121.844C214.518 123.029 214.585 124.228 214.585 125.42L216.714 148.021Z" fill="#022791"/>
</svg>
