<svg width="65" height="124" viewBox="0 0 65 124" fill="none" xmlns="http://www.w3.org/2000/svg">
<path d="M56.2585 123.911H7.99852C3.58331 123.911 0.000173271 120.327 0.000173271 115.912L0.000173271 8.63533C0.000173271 3.8678 3.86817 -0.000179862 8.6357 -0.000179862H55.6213C60.3888 0.00731625 64.2568 3.87531 64.2568 8.64283L64.2568 115.92C64.2568 120.327 60.6737 123.911 56.2585 123.911Z" fill="#022791"/>
<path d="M55.5316 116.377H8.7259C5.86988 116.377 3.54609 114.053 3.54609 111.197L3.54609 11.6338C3.54609 7.16612 7.17421 3.54549 11.6344 3.54549H52.6231C57.0908 3.54549 60.7114 7.17361 60.7114 11.6338L60.7114 111.197C60.7114 114.053 58.3876 116.377 55.5316 116.377Z" fill="#F9F9FB"/>
<path d="M46.2134 49.0994C49.8115 51.7905 52.4801 55.681 53.6271 60.0288C54.6165 63.7093 54.5341 67.6598 53.3872 71.2954C51.858 76.1754 48.4173 80.3957 43.9346 82.8544C40.9736 84.526 37.6079 85.3581 34.2121 85.3731C34.1821 71.9626 34.2046 58.5595 34.2046 45.149C38.4849 45.0815 42.7952 46.5432 46.2134 49.0994Z" fill="#FFD125"/>
<path d="M27.7428 54.8266C28.35 57.5102 27.5404 60.4112 25.6963 62.4426C23.1102 65.3286 18.6425 66.1307 15.2467 64.2267C12.1584 62.645 10.2918 59.0843 10.7416 55.6436C11.0189 52.9075 12.6831 50.4038 15.0968 49.0845C16.7535 48.0875 18.62 47.8851 20.509 48.065C24.0472 48.5073 27.0606 51.3259 27.7503 54.8266H27.7428Z" fill="#96D5ED"/>
<path d="M27.7428 27.5857C28.35 30.2693 27.5404 33.1703 25.6963 35.2018C23.1102 38.0878 18.6425 38.8898 15.2467 36.9858C12.1584 35.4041 10.2918 31.8435 10.7416 28.4028C11.0189 25.6667 12.6831 23.163 15.0968 21.8437C16.7535 20.8467 18.62 20.6443 20.509 20.8242C24.0472 21.2665 27.0606 24.085 27.7503 27.5857H27.7428Z" fill="#1D4FC6"/>
<path d="M25.7114 88.7015C31.9407 93.5365 35.8237 101.22 35.6288 109.143C27.0307 109.136 18.4252 109.158 9.82715 109.136C9.84214 100.538 9.84964 91.9324 9.82715 83.3343C15.4942 83.1919 21.2437 85.2533 25.7189 88.7015H25.7114Z" fill="#022791"/>
<path d="M19.3025 1.61145H47.0756V4.58741C47.0756 6.37148 45.6288 7.81823 43.8448 7.81823H22.2335C20.6143 7.81823 19.3025 6.50641 19.3025 4.88725V1.61145Z" fill="#022791"/>
</svg>
