<svg width="143" height="103" viewBox="0 0 143 103" fill="none" xmlns="http://www.w3.org/2000/svg">
<path d="M3.89078 0.29248H138.431C140.417 0.29248 142.037 1.90414 142.037 3.89811V98.7464C142.037 100.733 140.417 102.352 138.431 102.352H3.89078C1.90431 102.352 0.285156 100.74 0.285156 98.7464V3.89811C0.285156 1.90414 1.90431 0.29248 3.89078 0.29248Z" fill="white"/>
<path d="M138.431 0.577147C140.26 0.577147 141.751 2.06887 141.751 3.89792V98.7462C141.751 100.575 140.26 102.067 138.431 102.067H3.89048C2.06143 102.067 0.569712 100.575 0.569712 98.7462V3.89792C0.569712 2.06887 2.06143 0.577147 3.89048 0.577147H138.431ZM138.431 0.00744629H3.89048C1.7391 0.00744629 0 1.74654 0 3.89792V98.7462C0 100.898 1.7391 102.637 3.89048 102.637H138.431C140.582 102.637 142.321 100.898 142.321 98.7462V3.89792C142.321 1.74654 140.582 0.00744629 138.431 0.00744629Z" fill="#022791"/>
<path d="M142.321 13.1557H0V1.39428C0 0.622178 0.622212 0 1.39431 0H140.927C141.699 0 142.321 0.622178 142.321 1.39428V13.1557Z" fill="#022791"/>
<path d="M126.887 23.4327H12.1893C10.8397 23.4327 9.74561 24.5252 9.74561 25.8727C9.74561 27.2203 10.8397 28.3127 12.1893 28.3127H126.887C128.237 28.3127 129.331 27.2203 129.331 25.8727C129.331 24.5252 128.237 23.4327 126.887 23.4327Z" fill="#FFD125"/>
<path d="M37.811 38.5901H12.1893C10.8397 38.5901 9.74561 39.6825 9.74561 41.0301C9.74561 42.3776 10.8397 43.4701 12.1893 43.4701H37.811C39.1607 43.4701 40.2548 42.3776 40.2548 41.0301C40.2548 39.6825 39.1607 38.5901 37.811 38.5901Z" fill="#FFD125"/>
<path d="M73.1929 38.5901H47.5712C46.2215 38.5901 45.1274 39.6825 45.1274 41.0301C45.1274 42.3776 46.2215 43.4701 47.5712 43.4701H73.1929C74.5425 43.4701 75.6366 42.3776 75.6366 41.0301C75.6366 39.6825 74.5425 38.5901 73.1929 38.5901Z" fill="#FFD125"/>
<path d="M108.582 38.5901H82.9599C81.6102 38.5901 80.5161 39.6825 80.5161 41.0301C80.5161 42.3776 81.6102 43.4701 82.9599 43.4701H108.582C109.931 43.4701 111.025 42.3776 111.025 41.0301C111.025 39.6825 109.931 38.5901 108.582 38.5901Z" fill="#FFD125"/>
<path d="M62.5707 53.7395H12.1893C10.8397 53.7395 9.74561 54.8319 9.74561 56.1795C9.74561 57.5271 10.8397 58.6195 12.1893 58.6195H62.5707C63.9204 58.6195 65.0145 57.5271 65.0145 56.1795C65.0145 54.8319 63.9204 53.7395 62.5707 53.7395Z" fill="#FFD125"/>
<path d="M124.683 53.7395H70.5766C69.2269 53.7395 68.1328 54.8319 68.1328 56.1795C68.1328 57.5271 69.2269 58.6195 70.5766 58.6195H124.683C126.033 58.6195 127.127 57.5271 127.127 56.1795C127.127 54.8319 126.033 53.7395 124.683 53.7395Z" fill="#FFD125"/>
<path d="M126.887 68.8969H12.1893C10.8397 68.8969 9.74561 69.9893 9.74561 71.3368C9.74561 72.6844 10.8397 73.7768 12.1893 73.7768H126.887C128.237 73.7768 129.331 72.6844 129.331 71.3368C129.331 69.9893 128.237 68.8969 126.887 68.8969Z" fill="#FFD125"/>
<path d="M40.2473 84.0542H12.1893C10.8397 84.0542 9.74561 85.1466 9.74561 86.4942C9.74561 87.8417 10.8397 88.9342 12.1893 88.9342H40.2473C41.5969 88.9342 42.691 87.8417 42.691 86.4942C42.691 85.1466 41.5969 84.0542 40.2473 84.0542Z" fill="#FFD125"/>
<path d="M125.905 84.0542H50.9813C49.6317 84.0542 48.5376 85.1466 48.5376 86.4942C48.5376 87.8417 49.6317 88.9342 50.9813 88.9342H125.905C127.255 88.9342 128.349 87.8417 128.349 86.4942C128.349 85.1466 127.255 84.0542 125.905 84.0542Z" fill="#FFD125"/>
<path d="M10.4425 8.90513C11.5727 8.90513 12.4889 7.98891 12.4889 6.8587C12.4889 5.72848 11.5727 4.81226 10.4425 4.81226C9.31225 4.81226 8.396 5.72848 8.396 6.8587C8.396 7.98891 9.31225 8.90513 10.4425 8.90513Z" fill="#96D5ED"/>
<path d="M19.7149 8.90513C20.8451 8.90513 21.7614 7.98891 21.7614 6.8587C21.7614 5.72848 20.8451 4.81226 19.7149 4.81226C18.5847 4.81226 17.6685 5.72848 17.6685 6.8587C17.6685 7.98891 18.5847 8.90513 19.7149 8.90513Z" fill="#96D5ED"/>
<path d="M28.9884 8.90513C30.1186 8.90513 31.0348 7.98891 31.0348 6.8587C31.0348 5.72848 30.1186 4.81226 28.9884 4.81226C27.8581 4.81226 26.9419 5.72848 26.9419 6.8587C26.9419 7.98891 27.8581 8.90513 28.9884 8.90513Z" fill="#96D5ED"/>
</svg>
