<svg width="480" height="477" viewBox="0 0 480 477" fill="none" xmlns="http://www.w3.org/2000/svg">
<path d="M362.073 375.154C362.073 375.154 362.811 391.96 344.874 391.96C326.937 391.96 346.759 365.462 346.759 365.462L362.073 375.146V375.154Z" fill="#022791" stroke="#022791" stroke-width="0.999989" stroke-miterlimit="10"/>
<path d="M224.586 163.979L298.452 167.031L301.901 198.883L220.134 194.796L224.586 163.979Z" fill="#022791"/>
<path d="M235.328 127.847H230.402C230.402 127.847 230.097 114.574 220.134 100.972C210.171 87.3703 198.692 78.297 199.598 57.4445C200.505 36.592 219.228 35.3796 228.589 31.7503C237.951 28.121 249.125 16.6388 251.845 12.7044C254.564 8.76996 260.981 3.93624 267.888 6.65822C274.795 9.38021 278.718 14.8161 278.718 14.8161C278.718 14.8161 283.852 9.90212 288.079 5.8633C292.307 1.82449 299.254 -1.20262 305.599 1.21425C311.944 3.63111 318.281 9.53277 314.656 24.2668C311.03 39.0009 306.642 49.6399 306.642 49.6399L248.82 127.839H235.328V127.847Z" fill="#4D75FE"/>
<path d="M314.279 83.476C310.878 47.5281 294.577 24.8771 292.532 24.2748L224.956 46.8697L230.651 78.3131C224.835 78.3372 220.126 83.0585 220.126 88.8879C220.126 94.7173 224.859 99.4707 230.699 99.4707C231.935 99.4707 233.106 99.2459 234.205 98.8605L235.264 113.94C235.841 122.098 235.464 130.304 234.141 138.373L226.616 184.39L299.663 192.002L295.925 177.581L284.205 138.662C284.205 138.662 291.85 139.144 303.401 135.635C314.953 132.126 317.672 119.416 314.271 83.476H314.279Z" fill="white" stroke="#022791" stroke-width="1.33332" stroke-miterlimit="10" stroke-linecap="round"/>
<path d="M225.87 74.6757L230.659 78.3051L235.833 87.9725H239.154C239.154 87.9725 236.138 67.7222 241.873 58.6489C247.609 49.5757 258.783 47.1588 266.035 48.0661C273.287 48.9735 296.237 49.2786 304.091 34.7694C311.944 20.2601 296.542 17.5381 296.542 17.5381L214.094 45.6493L216.813 68.9267L225.87 74.6677V74.6757Z" fill="#4D75FE"/>
<path d="M274.795 75.3743C277.369 75.3743 279.456 73.2857 279.456 70.7092C279.456 68.1327 277.369 66.0441 274.795 66.0441C272.221 66.0441 270.134 68.1327 270.134 70.7092C270.134 73.2857 272.221 75.3743 274.795 75.3743Z" fill="#022791"/>
<path d="M306.321 70.7092C308.895 70.7092 310.982 68.6206 310.982 66.0441C310.982 63.4676 308.895 61.379 306.321 61.379C303.747 61.379 301.66 63.4676 301.66 66.0441C301.66 68.6206 303.747 70.7092 306.321 70.7092Z" fill="#022791"/>
<path d="M292.684 64.4543L303.569 83.7972C305.15 86.6075 303.73 90.1646 300.649 91.112L294.48 93.007" stroke="#022791" stroke-width="1.33332" stroke-miterlimit="10" stroke-linecap="round"/>
<path d="M279.456 96.7487C279.456 96.7487 281.268 107.026 298.451 107.026" stroke="#022791" stroke-width="1.33332" stroke-miterlimit="10" stroke-linecap="round"/>
<path d="M224.587 163.979C224.587 163.979 264.279 189.473 298.452 167.023H336.026C336.026 167.023 360.485 167.753 372.036 188.132C383.587 208.511 421.659 290.491 421.659 290.491L373.247 319.831L350.481 269.567L362.073 375.154H173.455C171.177 375.154 169.597 372.882 170.383 370.746L189.002 319.992L134.975 306.599L164.118 198.763C164.118 198.763 168.161 183.692 182.239 178.36C192.283 174.554 224.595 163.979 224.595 163.979H224.587Z" fill="#4D75FE"/>
<path d="M477.94 136.47L477.347 135.941C476.448 135.138 475.277 134.857 474.178 135.041L476.569 131.332C476.617 131.259 476.649 131.187 476.689 131.107C477.94 129.348 477.796 126.883 476.224 125.31C474.756 123.84 472.51 123.623 470.785 124.619C471.699 123.142 471.723 121.206 470.681 119.689C469.277 117.649 466.469 117.127 464.432 118.533L462.234 120.042L453.273 124.972C452.503 125.398 451.757 124.378 452.399 123.776C456.225 120.155 461.889 114.743 466.381 110.254C473.881 102.747 467.857 98.5794 467.857 98.5794L440.663 118.372C437.262 120.845 434.911 124.515 434.085 128.642L425.566 170.989L405.415 258.55L398.46 243.776C389.604 261.513 352.206 273.381 352.206 273.381L373.247 319.823C391.104 356.638 446.126 346.055 449.078 305.234L458.624 173.205L468.202 149.968C468.202 149.968 468.258 149.92 468.362 149.831C469.702 150.169 471.178 149.791 472.157 148.691L478.253 141.858C479.649 140.292 479.513 137.86 477.948 136.462L477.94 136.47Z" fill="white" stroke="#022791" stroke-width="1.33332" stroke-miterlimit="10" stroke-linecap="round"/>
<path d="M431.895 139.49L455.912 130.143C455.912 130.143 460.958 136.96 452.759 140.871C444.561 144.781 443.558 145.158 443.558 145.158C443.558 145.158 449.992 153.613 441.545 163.201" fill="white"/>
<path d="M431.895 139.49L455.912 130.143C455.912 130.143 460.958 136.96 452.759 140.871C444.561 144.781 443.558 145.158 443.558 145.158C443.558 145.158 449.992 153.613 441.545 163.201" stroke="#022791" stroke-width="1.33332" stroke-miterlimit="10" stroke-linecap="round"/>
<path d="M467.432 150.112C467.432 150.112 464.608 148.812 465.137 146.772L467.432 150.112Z" fill="white"/>
<path d="M467.432 150.112C467.432 150.112 464.608 148.812 465.137 146.772" stroke="#022791" stroke-width="1.02666" stroke-miterlimit="10" stroke-linecap="round"/>
<path d="M407.773 248.289L405.415 258.558L398.46 243.776L394.722 305.547L407.773 248.289Z" fill="#022791" stroke="#022791" stroke-width="1.33332" stroke-miterlimit="10" stroke-linecap="round"/>
<path d="M350.473 269.567L341.914 245.663C341.504 244.515 339.804 244.828 339.828 246.048L342.178 375.154H362.064L350.473 269.567Z" fill="#1D4FC6"/>
<path d="M296.743 180.689C301.171 177.902 303.93 174.723 305.623 172.065" stroke="white" stroke-width="1.33332" stroke-miterlimit="10" stroke-linecap="round"/>
<path d="M286.764 185.097C288.208 184.671 289.547 184.198 290.807 183.692" stroke="white" stroke-width="1.33332" stroke-miterlimit="10" stroke-linecap="round"/>
<path d="M237.766 181.716C245.467 185.017 255.43 187.53 267.888 187.53C273.824 187.53 278.894 186.96 283.226 186.004" stroke="white" stroke-width="1.33332" stroke-miterlimit="10" stroke-linecap="round"/>
<path d="M229.985 177.734C231.284 178.521 232.696 179.3 234.196 180.062" stroke="white" stroke-width="1.33332" stroke-miterlimit="10" stroke-linecap="round"/>
<path d="M226.439 175.421C226.913 175.759 227.41 176.096 227.923 176.433" stroke="white" stroke-width="1.33332" stroke-miterlimit="10" stroke-linecap="round"/>
<path d="M216.621 166.332C216.621 166.332 218.738 169.303 223.279 173.021" stroke="white" stroke-width="1.33332" stroke-miterlimit="10" stroke-linecap="round"/>
<path d="M185.295 318H32.8243L1.10591 232.342C-1.01987 226.601 3.22369 220.499 9.33633 220.499H143.084C146.758 220.499 150.039 222.787 151.315 226.232L185.287 318H185.295Z" fill="#FFD125"/>
<path d="M32.8164 318H217.8C218.987 318 219.95 318.964 219.95 320.152V324.504C219.95 325.693 218.987 326.656 217.8 326.656H32.8164V318.008V318Z" fill="#EFB600"/>
<path d="M88.9531 336.139C87.421 335.874 86.1214 334.878 85.4556 333.473L78.0836 318.924C78.0836 318.924 74.9149 313.673 79.3831 309.883C80.2976 309.104 81.6934 309.329 82.3592 310.324L88.7045 319.871C88.4558 317.824 89.5869 315.728 91.6966 314.949C93.8064 314.17 96.3734 315.23 97.4563 317.318L98.0499 318.458C98.3307 316.957 99.3334 315.6 100.898 314.989C103.128 314.106 105.671 315.206 106.778 317.334L107.291 318.33C107.612 316.86 108.631 315.551 110.187 314.965C112.401 314.13 114.888 315.222 115.987 317.326L117.992 321.188C123.599 323.332 130.274 326.648 130.274 326.648H187.1L185.303 334.806L183.314 340.989C181.581 346.368 176.199 349.693 170.616 348.826L88.9612 336.147L88.9531 336.139Z" fill="white" stroke="#022791" stroke-width="1.33332" stroke-miterlimit="10" stroke-linecap="round"/>
<path d="M185.295 318L199.542 252.135L197.97 318H185.295Z" fill="#022791"/>
<path d="M158.607 474.117L173.175 375.154H346.92L373.111 476.59L250.096 475.169L158.607 474.117Z" fill="white" stroke="#022791" stroke-width="1.33332" stroke-miterlimit="10" stroke-linecap="round"/>
<path d="M263.588 418.794L250.096 475.169L275.204 475.554L268.337 418.746C267.696 416.281 264.182 416.321 263.596 418.794H263.588Z" fill="#1D4FC6"/>
<path d="M168.762 403.875H180.426C190.148 403.875 199.037 398.399 203.409 389.711L210.74 375.154H172.99L168.762 403.875Z" stroke="#022791" stroke-width="1.15999" stroke-miterlimit="10"/>
<path d="M213.34 382.894L217.238 375.154" stroke="#022791" stroke-width="1.15999" stroke-miterlimit="10"/>
<path d="M182.231 408.324C193.454 408.324 203.721 401.997 208.775 391.96" stroke="#022791" stroke-width="1.15999" stroke-miterlimit="10"/>
<path d="M168.762 408.324H175.46" stroke="#022791" stroke-width="1.15999" stroke-miterlimit="10"/>
<path d="M354.372 403.875H339.9C330.178 403.875 321.29 398.399 316.918 389.711L309.586 375.154H347.337L354.372 403.875Z" stroke="#022791" stroke-width="1.15999" stroke-miterlimit="10"/>
<path d="M306.986 382.894L303.088 375.154" stroke="#022791" stroke-width="1.15999" stroke-miterlimit="10"/>
<path d="M338.096 408.324C326.873 408.324 316.605 401.997 311.551 391.96" stroke="#022791" stroke-width="1.15999" stroke-miterlimit="10"/>
<path d="M355.487 408.324H344.866" stroke="#022791" stroke-width="1.15999" stroke-miterlimit="10"/>
<path d="M283.555 138.237C283.555 138.237 272.725 138.534 264.222 134.455C263.003 133.869 261.799 135.29 262.546 136.414L286.763 172.884L293.39 170.098L283.547 138.237H283.555Z" fill="#96D5ED"/>
</svg>
