<svg width="339" height="233" viewBox="0 0 339 233" fill="none" xmlns="http://www.w3.org/2000/svg">
<path d="M338.43 8.21628V206.52C338.43 209.563 334.917 212.028 330.593 212.028H35.2207C30.8969 212.028 27.3994 209.555 27.3994 206.52V8.22432C27.3994 4.33806 31.8756 1.19051 37.3866 1.19051H328.427C333.954 1.19051 338.43 4.33805 338.43 8.21628Z" fill="#FDFDFD"/>
<path d="M183.938 40.1414C183.986 40.7597 184.499 41.2334 185.117 41.2334H233.721C234.411 41.2334 234.956 40.6473 234.9 39.9567C234.852 39.3385 234.339 38.8567 233.721 38.8567H185.117C184.427 38.8567 183.881 39.4428 183.938 40.1334V40.1414Z" fill="#1D4FC6"/>
<path d="M184.387 54.4338C184.435 55.0521 184.948 55.5258 185.566 55.5258H225.234C225.924 55.5258 226.469 54.9397 226.413 54.2492C226.365 53.6309 225.852 53.1491 225.234 53.1491H185.566C184.876 53.1491 184.331 53.7353 184.387 54.4258V54.4338Z" fill="#1D4FC6"/>
<path d="M239.882 66.8955C239.93 67.5138 240.443 67.9876 241.061 67.9876H254.843C255.532 67.9876 256.078 67.4014 256.022 66.7109C255.974 66.0926 255.46 65.6108 254.843 65.6108H241.061C240.371 65.6108 239.826 66.197 239.882 66.8875V66.8955Z" fill="#1D4FC6"/>
<path d="M296.853 74.1381C296.901 74.7564 297.415 75.2301 298.032 75.2301H324.143C324.833 75.2301 325.379 74.644 325.323 73.9534C325.275 73.3352 324.761 72.8534 324.143 72.8534H298.032C297.342 72.8534 296.797 73.4396 296.853 74.1301V74.1381Z" fill="#1D4FC6"/>
<path d="M184.387 66.8955C184.435 67.5138 184.948 67.9876 185.566 67.9876H233.248C233.938 67.9876 234.483 67.4014 234.427 66.7109C234.379 66.0926 233.865 65.6108 233.248 65.6108H185.566C184.876 65.6108 184.331 66.197 184.387 66.8875V66.8955Z" fill="#1D4FC6"/>
<path d="M208.974 74.0418C209.022 74.6601 209.535 75.1338 210.153 75.1338H290.219C290.909 75.1338 291.454 74.5476 291.398 73.8571C291.35 73.2388 290.837 72.7571 290.219 72.7571H210.153C209.463 72.7571 208.918 73.3432 208.974 74.0337V74.0418Z" fill="#1D4FC6"/>
<path d="M183.898 74.0418C183.946 74.6601 184.459 75.1338 185.077 75.1338H203.511C204.201 75.1338 204.746 74.5476 204.69 73.8571C204.642 73.2388 204.129 72.7571 203.511 72.7571H185.077C184.387 72.7571 183.841 73.3432 183.898 74.0337V74.0418Z" fill="#1D4FC6"/>
<path d="M183.898 81.188C183.946 81.8062 184.459 82.28 185.077 82.28H225.082C225.772 82.28 226.317 81.6938 226.261 81.0033C226.213 80.385 225.699 79.9033 225.082 79.9033H185.077C184.387 79.9033 183.841 80.4894 183.898 81.18V81.188Z" fill="#1D4FC6"/>
<path d="M209.824 89.089C209.872 89.7072 210.386 90.181 211.004 90.181H291.374C292.064 90.181 292.61 89.5948 292.554 88.9043C292.505 88.286 291.992 87.8043 291.374 87.8043H211.004C210.314 87.8043 209.768 88.3904 209.824 89.0809V89.089Z" fill="#1D4FC6"/>
<path d="M184.579 89.089C184.627 89.7072 185.141 90.181 185.758 90.181H204.505C205.195 90.181 205.741 89.5948 205.685 88.9043C205.637 88.286 205.123 87.8043 204.505 87.8043H185.758C185.068 87.8043 184.523 88.3904 184.579 89.0809V89.089Z" fill="#1D4FC6"/>
<path d="M184.579 96.2352C184.627 96.8535 185.141 97.3272 185.758 97.3272H226.076C226.766 97.3272 227.312 96.741 227.255 96.0505C227.207 95.4322 226.694 94.9505 226.076 94.9505H185.758C185.068 94.9505 184.523 95.5366 184.579 96.2272V96.2352Z" fill="#1D4FC6"/>
<path d="M275.515 96.2352C275.563 96.8535 276.076 97.3272 276.694 97.3272H299.444C300.134 97.3272 300.679 96.741 300.623 96.0505C300.575 95.4322 300.062 94.9505 299.444 94.9505H276.694C276.004 94.9505 275.459 95.5366 275.515 96.2272V96.2352Z" fill="#1D4FC6"/>
<path d="M229.004 81.188C229.053 81.8062 229.566 82.28 230.184 82.28H270.189C270.878 82.28 271.424 81.6938 271.368 81.0033C271.32 80.385 270.806 79.9033 270.189 79.9033H230.184C229.494 79.9033 228.948 80.4894 229.004 81.18V81.188Z" fill="#1D4FC6"/>
<path d="M274.681 54.4338C274.729 55.0521 275.242 55.5258 275.86 55.5258H300.118C300.808 55.5258 301.353 54.9397 301.297 54.2492C301.249 53.6309 300.736 53.1491 300.118 53.1491H275.86C275.17 53.1491 274.625 53.7353 274.681 54.4258V54.4338Z" fill="#1D4FC6"/>
<path d="M264.421 40.1414C264.469 40.7597 264.983 41.2334 265.6 41.2334H304.955C305.645 41.2334 306.191 40.6473 306.135 39.9567C306.086 39.3385 305.573 38.8567 304.955 38.8567H265.6C264.91 38.8567 264.365 39.4428 264.421 40.1334V40.1414Z" fill="#1D4FC6"/>
<path d="M208.958 47.2876C209.006 47.9059 209.519 48.3796 210.137 48.3796H320.918C321.608 48.3796 322.154 47.7935 322.098 47.1029C322.05 46.4847 321.536 46.0029 320.918 46.0029H210.137C209.447 46.0029 208.901 46.5891 208.958 47.2796V47.2876Z" fill="#1D4FC6"/>
<path d="M151.008 40.0611C151.008 40.7115 151.545 41.2334 152.195 41.2334H166.971C167.621 41.2334 168.151 40.7115 168.159 40.0531C168.159 39.3947 167.629 38.8567 166.971 38.8567H152.195C151.537 38.8567 151 39.3947 151.008 40.0611Z" fill="#FFD125"/>
<path d="M125.041 47.2073C125.041 47.8577 125.579 48.3796 126.228 48.3796H166.297C166.947 48.3796 167.477 47.8577 167.485 47.1993C167.485 46.5409 166.955 46.0029 166.297 46.0029H126.228C125.571 46.0029 125.033 46.5409 125.041 47.2073Z" fill="#FFD125"/>
<path d="M130.697 40.037C130.697 40.6954 131.226 41.2334 131.884 41.2334H146.355C147.013 41.2334 147.551 40.6954 147.543 40.029C147.543 39.3786 147.005 38.8567 146.355 38.8567H131.884C131.234 38.8567 130.705 39.3866 130.697 40.037Z" fill="#FFD125"/>
<path d="M121.006 88.9846C121.006 89.643 121.536 90.181 122.194 90.181H153.559C154.209 90.181 154.738 89.651 154.746 89.0006C154.746 88.3422 154.217 87.8043 153.559 87.8043H122.194C121.544 87.8043 121.014 88.3342 121.006 88.9846Z" fill="#FFD125"/>
<path d="M158.604 88.9926C158.604 89.651 159.134 90.189 159.792 90.189H166.001C166.65 90.189 167.18 89.6671 167.188 89.0087C167.188 88.3503 166.658 87.8123 166.001 87.8123H159.792C159.142 87.8123 158.613 88.3422 158.604 88.9926Z" fill="#FFD125"/>
<path d="M150.752 66.8153C150.752 67.4656 151.289 67.9876 151.939 67.9876H166.715C167.365 67.9876 167.894 67.4656 167.902 66.8072C167.902 66.1488 167.373 65.6108 166.715 65.6108H151.939C151.281 65.6108 150.744 66.1488 150.752 66.8153Z" fill="#FFD125"/>
<path d="M161.131 73.9615C161.131 74.6119 161.669 75.1338 162.319 75.1338H166.715C167.364 75.1338 167.894 74.6119 167.902 73.9535C167.902 73.295 167.372 72.7571 166.715 72.7571H162.319C161.661 72.7571 161.123 73.295 161.131 73.9615Z" fill="#FFD125"/>
<path d="M126.413 73.9615C126.413 74.6119 126.951 75.1338 127.6 75.1338H156.599C157.249 75.1338 157.779 74.6119 157.787 73.9535C157.787 73.295 157.257 72.7571 156.599 72.7571H127.6C126.943 72.7571 126.405 73.295 126.413 73.9615Z" fill="#FFD125"/>
<path d="M142.593 81.1077C142.593 81.7581 143.13 82.28 143.78 82.28H166.715C167.364 82.28 167.894 81.7581 167.902 81.0997C167.902 80.4412 167.372 79.9033 166.715 79.9033H143.78C143.122 79.9033 142.585 80.4412 142.593 81.1077Z" fill="#FFD125"/>
<path d="M142.593 96.1549C142.593 96.8053 143.13 97.3272 143.78 97.3272H166.715C167.364 97.3272 167.894 96.8053 167.902 96.1469C167.902 95.4884 167.372 94.9505 166.715 94.9505H143.78C143.122 94.9505 142.585 95.4884 142.593 96.1549Z" fill="#FFD125"/>
<path d="M130.44 66.7912C130.44 67.4496 130.969 67.9876 131.627 67.9876H146.099C146.756 67.9876 147.294 67.4496 147.286 66.7831C147.286 66.1327 146.748 65.6108 146.099 65.6108H131.627C130.977 65.6108 130.448 66.1408 130.44 66.7912Z" fill="#FFD125"/>
<path d="M184.066 47.2876C184.114 47.9059 184.627 48.3796 185.245 48.3796H203.96C204.658 48.3796 205.204 47.7854 205.139 47.0949C205.091 46.4766 204.578 46.0109 203.96 46.0109H185.245C184.555 46.0109 184.01 46.5971 184.066 47.2876Z" fill="#5C6CFF"/>
<path d="M228.932 54.49C229.004 55.0842 229.51 55.5258 230.111 55.5258H269.13C269.819 55.5258 270.365 54.9397 270.309 54.2492C270.261 53.6309 269.747 53.1491 269.13 53.1491H230.111C229.397 53.1491 228.844 53.7754 228.932 54.49Z" fill="#5C6CFF"/>
<path d="M240.163 40.1414C240.211 40.7597 240.724 41.2334 241.342 41.2334H254.434C255.123 41.2334 255.669 40.6473 255.613 39.9567C255.565 39.3385 255.051 38.8647 254.434 38.8647H241.342C240.652 38.8647 240.107 39.4509 240.163 40.1414Z" fill="#5C6CFF"/>
<path d="M274.801 81.188C274.849 81.8063 275.362 82.288 275.98 82.288H298.706C299.396 82.288 299.941 81.7019 299.885 81.0113C299.837 80.3931 299.324 79.9113 298.706 79.9113H275.98C275.29 79.9113 274.745 80.4975 274.801 81.188Z" fill="#5C6CFF"/>
<path d="M229.365 96.2914C229.437 96.8856 229.943 97.3272 230.544 97.3272H269.563C270.253 97.3272 270.798 96.741 270.742 96.0505C270.694 95.4322 270.18 94.9505 269.563 94.9505H230.544C229.831 94.9505 229.277 95.5768 229.365 96.2914Z" fill="#5C6CFF"/>
<path d="M297.639 89.089C297.687 89.7072 298.201 90.189 298.818 90.189H321.199C321.889 90.189 322.435 89.6029 322.379 88.9123C322.33 88.2941 321.817 87.8203 321.199 87.8203H298.818C298.129 87.8203 297.583 88.4065 297.639 89.097V89.089Z" fill="#5C6CFF"/>
<path d="M262.423 66.9839C262.511 67.562 263.009 67.9876 263.594 67.9876H304.923C305.653 67.9876 306.206 67.3372 306.094 66.6225C306.006 66.0444 305.508 65.6189 304.923 65.6189H263.594C262.864 65.6189 262.311 66.2692 262.423 66.9839Z" fill="#5C6CFF"/>
<path d="M146.796 54.3535C146.804 55.0039 147.454 55.5258 148.256 55.5258H166.442C167.244 55.5258 167.894 55.0039 167.902 54.3455C167.902 53.6871 167.252 53.1491 166.442 53.1491H148.256C147.446 53.1491 146.788 53.6871 146.796 54.3535Z" fill="#FFD125"/>
<path d="M94.454 40.5268H8.83693C4.23823 40.5268 0.510254 44.2583 0.510254 48.8614V101.406C0.510254 106.009 4.23823 109.741 8.83693 109.741H94.454C99.0527 109.741 102.781 106.009 102.781 101.406V48.8614C102.781 44.2583 99.0527 40.5268 94.454 40.5268Z" fill="#FDFDFD"/>
<path d="M94.366 57.2763H64.2761C63.4033 57.2763 62.6958 57.9845 62.6958 58.8581C62.6958 59.7317 63.4033 60.4399 64.2761 60.4399H94.366C95.2388 60.4399 95.9463 59.7317 95.9463 58.8581C95.9463 57.9845 95.2388 57.2763 94.366 57.2763Z" fill="#96D5ED"/>
<path d="M82.5655 65.8598H61.7248C60.852 65.8598 60.1445 66.568 60.1445 67.4416C60.1445 68.3152 60.852 69.0234 61.7248 69.0234H82.5655C83.4383 69.0234 84.1459 68.3152 84.1459 67.4416C84.1459 66.568 83.4383 65.8598 82.5655 65.8598Z" fill="#96D5ED"/>
<path d="M94.2216 65.8598H87.2346C86.3618 65.8598 85.6543 66.568 85.6543 67.4416C85.6543 68.3152 86.3618 69.0234 87.2346 69.0234H94.2216C95.0944 69.0234 95.8019 68.3152 95.8019 67.4416C95.8019 66.568 95.0944 65.8598 94.2216 65.8598Z" fill="#96D5ED"/>
<path d="M94.2134 74.4513H80.0388C79.166 74.4513 78.4585 75.1595 78.4585 76.0331C78.4585 76.9067 79.166 77.6149 80.0388 77.6149H94.2134C95.0862 77.6149 95.7937 76.9067 95.7937 76.0331C95.7937 75.1595 95.0862 74.4513 94.2134 74.4513Z" fill="#96D5ED"/>
<path d="M94.2216 83.9501H90.1545C89.2817 83.9501 88.5742 84.6583 88.5742 85.5319C88.5742 86.4055 89.2817 87.1137 90.1545 87.1137H94.2216C95.0944 87.1137 95.8019 86.4055 95.8019 85.5319C95.8019 84.6583 95.0944 83.9501 94.2216 83.9501Z" fill="#96D5ED"/>
<path d="M84.6434 83.9501H59.2302C58.3575 83.9501 57.6499 84.6583 57.6499 85.5319C57.6499 86.4055 58.3575 87.1137 59.2302 87.1137H84.6434C85.5162 87.1137 86.2237 86.4055 86.2237 85.5319C86.2237 84.6583 85.5162 83.9501 84.6434 83.9501Z" fill="#96D5ED"/>
<path d="M93.6118 92.5336H71.4474C70.6278 92.5336 69.9634 93.1987 69.9634 94.0191V94.2118C69.9634 95.0322 70.6278 95.6972 71.4474 95.6972H93.6118C94.4314 95.6972 95.0958 95.0322 95.0958 94.2118V94.0191C95.0958 93.1987 94.4314 92.5336 93.6118 92.5336Z" fill="#96D5ED"/>
<path d="M143.419 151.96C143.435 152.827 142.738 153.541 141.871 153.541H95.0397C94.1894 153.541 93.4995 152.859 93.4915 152.016C93.4754 151.149 94.1733 150.434 95.0397 150.434H141.871C142.722 150.434 143.411 151.117 143.419 151.968V151.96Z" fill="#4D75FE"/>
<path d="M204.105 142.613C204.113 143.481 203.415 144.187 202.556 144.187H124.448C123.597 144.187 122.908 143.505 122.899 142.645C122.891 141.778 123.589 141.08 124.448 141.08H202.556C203.407 141.08 204.097 141.762 204.105 142.613Z" fill="#4D75FE"/>
<path d="M113.586 142.613C113.594 143.481 112.896 144.179 112.038 144.179H94.486C93.6357 144.179 92.9458 143.497 92.9378 142.653C92.9217 141.786 93.6196 141.08 94.486 141.08H112.038C112.888 141.08 113.578 141.762 113.586 142.621V142.613Z" fill="#4D75FE"/>
<path d="M144.213 171.648C144.229 172.515 143.523 173.222 142.665 173.222H95.8336C94.9833 173.222 94.2934 172.539 94.2854 171.696C94.2694 170.829 94.9673 170.114 95.8336 170.114H142.665C143.515 170.114 144.205 170.797 144.213 171.648Z" fill="#4D75FE"/>
<path d="M204.899 162.302C204.915 163.169 204.209 163.875 203.351 163.875H125.242C124.392 163.875 123.702 163.193 123.694 162.334C123.686 161.466 124.384 160.768 125.242 160.768H203.351C204.201 160.768 204.891 161.45 204.899 162.302Z" fill="#4D75FE"/>
<path d="M114.38 162.31C114.388 163.177 113.691 163.875 112.832 163.875H95.2804C94.4301 163.875 93.7402 163.193 93.7322 162.35C93.7162 161.483 94.4141 160.776 95.2804 160.776H112.832C113.683 160.776 114.372 161.458 114.38 162.318V162.31Z" fill="#4D75FE"/>
<path d="M133.288 133.315C133.272 134.159 132.582 134.833 131.74 134.833H93.5636C92.7133 134.833 92.0234 134.151 92.0154 133.307C91.9994 132.44 92.6973 131.734 93.5636 131.734H131.74C132.614 131.734 133.312 132.448 133.288 133.323V133.315Z" fill="#4D75FE"/>
<path d="M182.197 133.259C182.213 134.126 181.507 134.833 180.649 134.833H143.195C142.32 134.833 141.623 134.118 141.647 133.243C141.663 132.4 142.353 131.725 143.195 131.725H180.649C181.499 131.725 182.189 132.408 182.197 133.259Z" fill="#4D75FE"/>
<path d="M184.684 195.246H262.359C272.732 195.246 281.146 203.669 281.146 214.051C281.146 224.433 272.732 232.856 262.359 232.856H162.896V217.054C162.896 205.018 172.659 195.246 184.684 195.246Z" fill="#4D75FE"/>
<path d="M260.554 206.977H181.267V209.491H260.554V206.977Z" fill="white"/>
<path d="M230.978 217.4H181.267V219.913H230.978V217.4Z" fill="white"/>
<path d="M339 25.0621H27.2793V7.87102C27.2793 3.98476 31.7635 0.837219 37.2986 0.837219H328.981C334.516 0.837219 339 3.98476 339 7.87102V25.0621Z" fill="#1D4FC6"/>
<path d="M65.9927 12.9537C65.9927 10.8981 67.6532 9.23602 69.7068 9.23602C71.7604 9.23602 73.4209 10.8981 73.4209 12.9537C73.4209 15.0092 71.7604 16.6713 69.7068 16.6713C67.6532 16.6713 65.9927 15.0092 65.9927 12.9537Z" fill="#96D5ED"/>
<path d="M51.6895 12.9537C51.6895 10.8981 53.35 9.23602 55.4036 9.23602C57.4572 9.23602 59.1177 10.8981 59.1177 12.9537C59.1177 15.0092 57.4572 16.6713 55.4036 16.6713C53.35 16.6713 51.6895 15.0092 51.6895 12.9537Z" fill="#96D5ED"/>
<path d="M37.3867 12.9537C37.3867 10.8981 39.0472 9.23602 41.1008 9.23602C43.1544 9.23602 44.8149 10.8981 44.8149 12.9537C44.8149 15.0092 43.1544 16.6713 41.1008 16.6713C39.0472 16.6713 37.3867 15.0092 37.3867 12.9537Z" fill="#96D5ED"/>
<path d="M51.0638 75.3104C51.0638 63.1859 41.213 53.3177 29.0919 53.3177C23.0435 53.3177 17.5565 55.7828 13.5777 59.7493C9.59083 63.7319 7.12012 69.2321 7.12012 75.3024C7.12012 86.2546 15.158 95.36 25.6426 97.0221C26.7576 97.1987 27.9127 97.2951 29.0839 97.2951C39.8332 97.2951 48.7936 89.5386 50.6867 79.3171C50.9274 78.0163 51.0558 76.6754 51.0558 75.3104H51.0638ZM42.5205 75.3104C42.5205 76.1455 42.4403 76.9645 42.2959 77.7594C41.1408 84.0063 35.6618 88.7437 29.1 88.7437C28.386 88.7437 27.6801 88.6875 26.9902 88.5831C20.5808 87.5634 15.6714 81.999 15.6714 75.3104C15.6714 71.6008 17.1795 68.2365 19.6182 65.8035C22.0488 63.3786 25.3939 61.8691 29.1 61.8691C36.5041 61.8691 42.5285 67.8992 42.5285 75.3104H42.5205Z" fill="#FFD125"/>
<path d="M15.6873 75.736C15.575 72.0264 16.9788 68.6219 19.3453 66.1167L13.1284 60.2472C9.26184 64.3502 6.9596 69.9227 7.1441 75.9849C7.473 86.9371 15.7756 95.7936 26.3083 97.1425L27.3912 88.6634C20.9577 87.8364 15.8799 82.4245 15.6794 75.736H15.6873Z" fill="#4D75FE"/>
<path d="M25.8834 98.2024L27.4075 88.0291C27.4958 87.4429 27.961 86.9933 28.5466 86.921C31.0173 86.6159 37.4509 85.2188 39.721 78.8032C39.9457 78.1769 40.5874 77.7995 41.2291 77.9441L51.4008 80.1602C52.1388 80.3208 52.5801 81.0595 52.3795 81.7902C51.1041 86.383 45.5609 101.117 27.0786 99.6959C26.3165 99.6397 25.763 98.9491 25.8753 98.1944L25.8834 98.2024Z" fill="#022791"/>
</svg>
