<svg width="145" height="145" viewBox="0 0 145 145" fill="none" xmlns="http://www.w3.org/2000/svg">
<path d="M72.349 144.835C112.306 144.835 144.698 112.413 144.698 72.4177C144.698 32.4225 112.306 0 72.349 0C32.3917 0 0 32.4225 0 72.4177C0 112.413 32.3917 144.835 72.349 144.835Z" fill="#4D75FE"/>
<path d="M89.1784 123.453C81.2769 125.846 72.8861 126.135 64.8402 124.28C63.9658 124.071 63.0914 124.617 62.8828 125.492C62.6743 126.368 63.2198 127.243 64.0941 127.452C72.6775 129.419 81.6219 129.106 90.0528 126.56C90.855 126.263 91.2882 125.388 91.0395 124.569C90.7908 123.75 89.9485 123.26 89.1143 123.461H89.1784V123.453Z" fill="#FDFDFD"/>
<path d="M119.261 99.8704C118.474 99.4528 117.496 99.7499 117.071 100.537C113.18 107.836 107.452 113.994 100.457 118.402C100.088 118.627 99.8317 118.997 99.7355 119.414C99.6392 119.832 99.7114 120.273 99.936 120.643C100.409 121.405 101.412 121.638 102.174 121.164C109.626 116.443 115.723 109.867 119.862 102.07C120.295 101.3 120.023 100.32 119.261 99.8784V99.8704Z" fill="#FDFDFD"/>
<path d="M110.364 100.336C115.089 93.0935 117.592 84.6225 117.584 75.9747C117.584 75.0754 116.854 74.3528 115.964 74.3528C115.073 74.3528 114.343 75.0835 114.343 75.9747C114.359 83.9881 112.033 91.8329 107.661 98.5455C104.091 104.022 99.2781 108.574 93.6227 111.842H93.5265C89.7963 113.978 85.7614 115.52 81.5499 116.403C75.1645 117.736 68.5465 117.551 62.2413 115.865C61.391 115.664 60.5327 116.178 60.308 117.021C60.0834 117.864 60.5647 118.74 61.399 118.997C68.1935 120.811 75.3249 121.012 82.2157 119.567C86.7801 118.595 91.16 116.917 95.195 114.58H95.2913C101.356 111.063 106.522 106.182 110.364 100.32V100.336Z" fill="#FDFDFD"/>
<path d="M73.0468 107.033C73.2794 107.033 73.512 106.984 73.7286 106.888C73.9693 106.84 98.7327 95.0206 98.7327 69.4869V60.8954C98.7327 60.3253 98.4279 59.7873 97.9385 59.4983L73.873 45.1255C73.3676 44.8365 72.75 44.8365 72.2526 45.1255L48.155 59.4983C47.6657 59.7873 47.3608 60.3253 47.3608 60.8954V69.4869C47.3608 95.1009 72.1162 106.84 72.3649 106.952C72.5815 107.025 72.8141 107.057 73.0468 107.033ZM50.6097 69.4869V61.8027L73.0468 48.3695L95.4839 61.7385V69.4869C95.4839 90.5964 76.8732 101.557 73.0468 103.588C69.2204 101.557 50.6097 90.5964 50.6097 69.4869Z" fill="#FDFDFD"/>
<path d="M84.534 69.9526C83.9003 69.3263 82.8815 69.3263 82.2478 69.9526L71.0894 81.1216L64.7762 74.8185C64.1345 74.2644 63.1718 74.3046 62.5702 74.9068C61.9686 75.509 61.9365 76.4645 62.482 77.1149L69.9262 84.5662C70.56 85.1925 71.5787 85.1925 72.2124 84.5662L84.526 72.241C85.1517 71.6067 85.1517 70.587 84.526 69.9526H84.534Z" fill="#FDFDFD"/>
<path d="M57.6446 26.9629C57.797 26.987 57.9575 26.987 58.1179 26.9629C66.0194 24.5701 74.4103 24.2891 82.4562 26.1359C83.3466 26.3447 84.237 25.7826 84.4456 24.8913C84.6541 24 84.0926 23.1088 83.2022 22.9C74.6188 20.9328 65.6745 21.2459 57.2435 23.7913C56.3451 23.9198 55.7274 24.7548 55.8557 25.6541C55.9841 26.5534 56.8184 27.1717 57.7168 27.0432L57.6526 26.9629H57.6446Z" fill="#FDFDFD"/>
<path d="M28.036 50.4812C28.8221 50.8987 29.8008 50.6016 30.2259 49.8147C34.1165 42.516 39.8441 36.3574 46.8392 31.9492C47.3125 31.7966 47.6895 31.4353 47.866 30.9696C48.0424 30.5039 47.9943 29.982 47.7296 29.5564C47.4729 29.1309 47.0317 28.8498 46.5343 28.7856C46.037 28.7294 45.5477 28.898 45.1947 29.2513C37.7183 33.9405 31.5977 40.5006 27.4263 48.2811C26.9931 49.0519 27.2659 50.0315 28.028 50.4732L28.036 50.4812Z" fill="#FDFDFD"/>
<path d="M52.4307 40.1071H52.5269C56.2571 37.9633 60.3081 36.4296 64.5196 35.5464C70.905 34.2135 77.523 34.3982 83.8282 36.0844C84.2453 36.2128 84.7025 36.1647 85.0876 35.9559C85.4726 35.7391 85.7534 35.3858 85.8657 34.9603C85.978 34.5347 85.9138 34.085 85.6892 33.7077C85.4646 33.3303 85.0956 33.0573 84.6624 32.9609C77.8679 31.1463 70.7365 30.9455 63.8458 32.3908C59.2813 33.3624 54.9014 35.0405 50.8664 37.3771H50.7702C44.7137 40.894 39.5637 45.7759 35.7292 51.6374C30.9883 58.88 28.4614 67.3431 28.4614 75.9988C28.4614 76.8981 29.1914 77.6207 30.0818 77.6207C30.9723 77.6207 31.7022 76.8901 31.7022 75.9988C31.6942 67.9854 34.0125 60.1406 38.3844 53.428C41.9542 47.9599 46.7673 43.3992 52.4227 40.1312L52.4307 40.1071Z" fill="#FDFDFD"/>
</svg>
