<svg width="767" height="180" viewBox="0 0 767 180" fill="none" xmlns="http://www.w3.org/2000/svg">
<path d="M29.7289 60.2968C46.1478 60.2968 59.4579 46.974 59.4579 30.5396C59.4579 14.1052 46.1478 0.78244 29.7289 0.78244C13.3101 0.78244 0 14.1052 0 30.5396C0 46.974 13.3101 60.2968 29.7289 60.2968Z" fill="#4D75FE"/>
<path d="M730.052 179.229C750.028 179.229 766.222 163.02 766.222 143.024C766.222 123.029 750.028 106.819 730.052 106.819C710.075 106.819 693.881 123.029 693.881 143.024C693.881 163.02 710.075 179.229 730.052 179.229Z" fill="#4D75FE"/>
<path d="M60.8619 99.7776H67.1591C69.325 99.7776 71.0818 101.536 71.0818 103.704V118.566H56.9473V103.704C56.9473 101.536 58.704 99.7776 60.8699 99.7776H60.8619Z" fill="#4D75FE"/>
<path d="M82.3844 91.1058H88.6815C90.8474 91.1058 92.6042 92.8642 92.6042 95.0322V118.567H78.4697V95.0322C78.4697 92.8642 80.2265 91.1058 82.3924 91.1058H82.3844Z" fill="#4D75FE"/>
<path d="M103.915 79.8084H110.212C112.378 79.8084 114.135 81.5668 114.135 83.7348V118.567H100V83.7348C100 81.5668 101.757 79.8084 103.923 79.8084H103.915Z" fill="#4D75FE"/>
<path d="M125.445 70.1489H131.743C133.908 70.1489 135.665 71.9074 135.665 74.0753V118.567H121.531V74.0753C121.531 71.9074 123.288 70.1489 125.453 70.1489H125.445Z" fill="#4D75FE"/>
<path d="M146.968 54.6521H153.266C155.431 54.6521 157.188 56.4105 157.188 58.5785V118.575H143.054V58.5785C143.054 56.4105 144.81 54.6521 146.976 54.6521H146.968Z" fill="#4D75FE"/>
<path d="M36.7319 33.5747C36.7319 33.3901 36.6597 33.2134 36.5313 33.085L33.6515 30.2024C33.3787 29.9294 32.9456 29.9294 32.6728 30.2024C32.4001 30.4754 32.4001 30.909 32.6728 31.182L35.0633 33.5747L34.3093 34.3295C34.1168 34.5222 34.0526 34.8033 34.1488 35.0602C34.2371 35.3171 34.4697 35.4938 34.7344 35.5179L41.1599 36.088C41.1599 36.088 41.2 36.088 41.2241 36.088C41.4086 36.088 41.5851 36.0157 41.7134 35.8872C41.8578 35.7427 41.93 35.542 41.914 35.3332L41.3444 28.9016C41.3204 28.6366 41.1439 28.4038 40.8872 28.3155C40.6385 28.2191 40.3497 28.2833 40.1572 28.476L39.4031 29.2308L37.7426 27.5687C37.4699 27.2957 37.0367 27.2957 36.764 27.5687C36.4912 27.8417 36.4912 28.2753 36.764 28.5483L38.9138 30.7002C39.1866 30.9732 39.6197 30.9732 39.8925 30.7002L40.085 30.5075L40.454 34.6346L36.3308 34.2653L36.5233 34.0726C36.6517 33.9441 36.7238 33.7675 36.7238 33.5828L36.7319 33.5747Z" fill="#FDFDFD"/>
<path d="M50.3609 35.8792H47.2885V35.0602C48.3955 34.7551 49.2138 33.7434 49.2138 32.5389C49.2138 31.0936 48.0346 29.9133 46.5906 29.9133C45.1467 29.9133 43.9675 31.0936 43.9675 32.5389C43.9675 33.7434 44.7857 34.7471 45.8927 35.0602V35.8792H42.8204C42.4353 35.8792 42.1305 36.1924 42.1305 36.5697V39.645H41.3123C41.0074 38.537 39.9967 37.718 38.7934 37.718C37.5901 37.718 36.5874 38.537 36.2745 39.645H30.7475V28.9979H34.5338C34.9188 28.9979 35.2237 28.6848 35.2237 28.3074V24.2445C35.2237 22.751 34.1728 21.5065 32.777 21.1933C33.1621 20.6634 33.4027 20.021 33.4027 19.3144V16.4881C33.4027 16.1027 33.0899 15.7975 32.7128 15.7975H27.4024C27.0173 15.7975 26.7125 16.1107 26.7125 16.4881V19.3144C26.7125 20.021 26.9532 20.6634 27.3382 21.1933C25.9424 21.5065 24.8915 22.751 24.8915 24.2445V28.3074C24.8915 28.6928 25.2044 28.9979 25.5814 28.9979H29.3677V39.645H23.8407C23.5359 38.537 22.5251 37.718 21.3218 37.718C20.1186 37.718 19.1158 38.537 18.803 39.645H17.9847V36.5697C17.9847 36.1843 17.6719 35.8792 17.2949 35.8792H14.2225V35.0602C15.3295 34.7551 16.1477 33.7434 16.1477 32.5389C16.1477 31.0936 14.9685 29.9133 13.5246 29.9133C12.0807 29.9133 10.9015 31.0936 10.9015 32.5389C10.9015 33.7434 11.7197 34.7471 12.8267 35.0602V35.8792H9.75433C9.36928 35.8792 9.06445 36.1924 9.06445 36.5697V44.1094C9.06445 44.4948 9.3773 44.7999 9.75433 44.7999H17.2868C17.6719 44.7999 17.9767 44.4868 17.9767 44.1094V41.0341H18.7949C19.0998 42.1422 20.1105 42.9612 21.3138 42.9612C22.5171 42.9612 23.5198 42.1422 23.8327 41.0341H36.2665C36.5713 42.1422 37.5821 42.9612 38.7854 42.9612C39.9886 42.9612 40.9914 42.1422 41.3042 41.0341H42.1225V44.1094C42.1225 44.4948 42.4353 44.7999 42.8123 44.7999H50.3448C50.7299 44.7999 51.0347 44.4868 51.0347 44.1094V36.5697C51.0347 36.1843 50.7219 35.8792 50.3448 35.8792H50.3609ZM45.3633 32.5389C45.3633 31.8564 45.9168 31.3024 46.5986 31.3024C47.2805 31.3024 47.834 31.8564 47.834 32.5389C47.834 33.2214 47.2805 33.7755 46.5986 33.7755C45.9168 33.7755 45.3633 33.2214 45.3633 32.5389ZM28.1083 17.1706H32.039V19.3064C32.039 20.294 31.2368 21.105 30.2421 21.105H29.9052C28.9185 21.105 28.1083 20.3021 28.1083 19.3064V17.1706ZM26.2873 24.2365C26.2873 23.273 27.0735 22.4861 28.0361 22.4861H32.1192C33.0818 22.4861 33.868 23.273 33.868 24.2365V27.6089H26.2873V24.2365ZM12.3133 32.5309C12.3133 31.8484 12.8668 31.2944 13.5487 31.2944C14.2305 31.2944 14.784 31.8484 14.784 32.5309C14.784 33.2134 14.2305 33.7674 13.5487 33.7674C12.8668 33.7674 12.3133 33.2134 12.3133 32.5309ZM16.621 43.4108H10.4763V37.2603H16.621V43.4108ZM21.3459 41.5721C20.664 41.5721 20.1105 41.0181 20.1105 40.3356C20.1105 39.6531 20.664 39.099 21.3459 39.099C22.0277 39.099 22.5813 39.6531 22.5813 40.3356C22.5813 41.0181 22.0277 41.5721 21.3459 41.5721ZM38.8094 41.5721C38.1276 41.5721 37.5741 41.0181 37.5741 40.3356C37.5741 39.6531 38.1276 39.099 38.8094 39.099C39.4913 39.099 40.0448 39.6531 40.0448 40.3356C40.0448 41.0181 39.4913 41.5721 38.8094 41.5721ZM49.671 43.4108H43.5263V37.2603H49.671V43.4108Z" fill="#FDFDFD"/>
<path d="M18.9074 36.0799C18.9074 36.0799 18.9475 36.0799 18.9716 36.0799L25.3971 35.5098C25.6618 35.4857 25.8944 35.3091 25.9827 35.0521C26.0709 34.7952 26.0148 34.5142 25.8222 34.3214L25.0682 33.5667L27.4587 31.1739C27.7314 30.9009 27.7314 30.4673 27.4587 30.1943C27.186 29.9213 26.7528 29.9213 26.48 30.1943L23.6002 33.0769C23.4718 33.2054 23.3996 33.382 23.3996 33.5667C23.3996 33.7514 23.4718 33.928 23.6002 34.0565L23.7927 34.2492L19.6695 34.6185L20.0385 30.4914L20.231 30.6841C20.5038 30.9571 20.9369 30.9571 21.2097 30.6841L23.3595 28.5322C23.6323 28.2592 23.6323 27.8256 23.3595 27.5526C23.0868 27.2796 22.6536 27.2796 22.3809 27.5526L20.7203 29.2147L19.9663 28.46C19.7738 28.2672 19.493 28.203 19.2443 28.2994C18.9876 28.3877 18.8111 28.6205 18.7871 28.8855L18.2175 35.3171C18.2015 35.5259 18.2737 35.7266 18.4181 35.8712C18.5464 35.9996 18.7229 36.0719 18.9074 36.0719V36.0799Z" fill="#FDFDFD"/>
<path d="M743.055 137.082C743.801 136.247 744.267 135.163 744.267 133.959V130.065C744.267 129.607 743.898 129.238 743.44 129.238H740.216C737.247 127.03 733.726 125.849 730.012 125.849C726.298 125.849 722.776 127.022 719.8 129.238H716.575C716.118 129.238 715.749 129.607 715.749 130.065V133.959C715.749 135.163 716.214 136.247 716.96 137.082C714.778 137.339 713.078 139.186 713.078 141.434V147.392C713.078 147.85 713.447 148.219 713.904 148.219H727.036C727.493 148.219 727.862 147.85 727.862 147.392V141.434C727.862 139.186 726.161 137.347 723.979 137.082C724.725 136.247 725.191 135.163 725.191 133.959V130.065C725.191 129.607 724.822 129.238 724.364 129.238H722.896C725.078 128.098 727.501 127.503 730.02 127.503C732.539 127.503 734.953 128.106 737.143 129.238H735.675C735.218 129.238 734.849 129.607 734.849 130.065V133.959C734.849 135.163 735.314 136.247 736.06 137.082C733.878 137.339 732.178 139.186 732.178 141.434V147.392C732.178 147.85 732.547 148.219 733.004 148.219H746.136C746.593 148.219 746.962 147.85 746.962 147.392V141.434C746.962 139.186 745.261 137.347 743.079 137.082H743.055ZM726.201 141.434V146.565H714.714V141.434C714.714 139.917 715.949 138.68 717.466 138.68H723.45C724.966 138.68 726.201 139.917 726.201 141.434ZM723.53 133.959C723.53 135.653 722.15 137.034 720.458 137.034C718.765 137.034 717.385 135.653 717.385 133.959V130.884H723.522V133.959H723.53ZM736.477 130.884H742.614V133.959C742.614 135.653 741.234 137.034 739.542 137.034C737.849 137.034 736.469 135.653 736.469 133.959V130.884H736.477ZM745.285 146.565H733.798V141.434C733.798 139.917 735.033 138.68 736.55 138.68H742.534C744.05 138.68 745.285 139.917 745.285 141.434V146.565Z" fill="#FDFDFD"/>
<path d="M737.44 156.61C737.071 156.811 736.694 157.004 736.317 157.164C735.9 157.349 735.715 157.839 735.9 158.256C736.036 158.561 736.341 158.746 736.654 158.746C736.766 158.746 736.878 158.722 736.991 158.674C737.408 158.489 737.825 158.28 738.234 158.055C738.635 157.839 738.779 157.333 738.563 156.931C738.346 156.53 737.841 156.385 737.44 156.602V156.61Z" fill="#FDFDFD"/>
<path d="M741.21 153.711C740.849 154.097 740.456 154.458 740.055 154.803C739.71 155.101 739.67 155.622 739.967 155.968C740.127 156.16 740.36 156.257 740.592 156.257C740.785 156.257 740.969 156.193 741.13 156.056C741.571 155.679 742.004 155.269 742.405 154.844C742.718 154.514 742.71 153.992 742.381 153.679C742.052 153.366 741.531 153.374 741.218 153.703L741.21 153.711Z" fill="#FDFDFD"/>
<path d="M744.884 149.745C744.483 149.536 743.986 149.697 743.777 150.098C743.584 150.468 743.376 150.837 743.159 151.19C742.919 151.576 743.039 152.09 743.424 152.33C743.56 152.419 743.713 152.459 743.857 152.459C744.13 152.459 744.403 152.322 744.555 152.073C744.796 151.688 745.028 151.279 745.237 150.869C745.446 150.468 745.285 149.97 744.884 149.761V149.745Z" fill="#FDFDFD"/>
<path d="M723.683 157.164C723.306 156.996 722.928 156.811 722.559 156.61C722.158 156.393 721.661 156.538 721.436 156.939C721.22 157.341 721.364 157.839 721.765 158.063C722.174 158.288 722.592 158.497 723.009 158.682C723.121 158.73 723.233 158.754 723.346 158.754C723.658 158.754 723.963 158.569 724.1 158.264C724.284 157.847 724.1 157.357 723.683 157.172V157.164Z" fill="#FDFDFD"/>
<path d="M718.789 153.703C718.476 153.374 717.955 153.366 717.626 153.679C717.297 153.992 717.281 154.514 717.602 154.844C718.003 155.269 718.436 155.671 718.877 156.056C719.03 156.193 719.222 156.257 719.415 156.257C719.648 156.257 719.88 156.16 720.041 155.968C720.337 155.622 720.297 155.101 719.952 154.803C719.551 154.458 719.158 154.089 718.797 153.711L718.789 153.703Z" fill="#FDFDFD"/>
<path d="M716.222 150.106C716.013 149.697 715.516 149.536 715.115 149.753C714.714 149.962 714.553 150.46 714.762 150.861C714.971 151.271 715.203 151.672 715.444 152.065C715.596 152.314 715.869 152.451 716.142 152.451C716.294 152.451 716.439 152.411 716.575 152.322C716.96 152.082 717.08 151.576 716.84 151.182C716.615 150.829 716.406 150.46 716.222 150.09V150.106Z" fill="#FDFDFD"/>
<path d="M752.328 143.008C752.328 130.683 742.309 120.662 730.004 120.662C717.698 120.662 707.679 130.691 707.679 143.008C707.679 152.555 713.663 160.938 722.615 164.085V168.662C722.615 169.12 722.984 169.489 723.442 169.489H736.573C737.031 169.489 737.4 169.12 737.4 168.662V164.085C746.352 160.946 752.336 152.563 752.336 143.008H752.328ZM735.747 167.835H724.26V162.704C724.26 161.187 725.495 159.95 727.011 159.95H732.996C734.512 159.95 735.747 161.187 735.747 162.704V167.835ZM733.076 155.229C733.076 156.923 731.696 158.304 730.004 158.304C728.311 158.304 726.931 156.923 726.931 155.229V152.154H733.068V155.229H733.076ZM737.384 162.351C737.384 162.255 737.343 162.158 737.335 162.062C737.319 161.934 737.295 161.805 737.263 161.677C737.231 161.524 737.175 161.388 737.127 161.243C737.087 161.123 737.047 161.002 736.99 160.882C736.926 160.745 736.854 160.617 736.774 160.488C736.71 160.376 736.646 160.272 736.573 160.167C736.485 160.047 736.389 159.934 736.285 159.822C736.204 159.726 736.124 159.629 736.036 159.549C735.924 159.444 735.803 159.348 735.675 159.252C735.579 159.18 735.49 159.099 735.394 159.035C735.258 158.947 735.113 158.874 734.961 158.802C734.857 158.754 734.76 158.69 734.656 158.65C734.488 158.577 734.303 158.537 734.127 158.481C734.03 158.457 733.942 158.417 733.854 158.401C733.742 158.377 733.621 158.377 733.509 158.36C734.247 157.525 734.712 156.441 734.712 155.237V151.343C734.712 150.885 734.343 150.516 733.886 150.516H726.097C725.64 150.516 725.271 150.885 725.271 151.343V155.237C725.271 156.441 725.736 157.525 726.474 158.36C726.362 158.377 726.241 158.377 726.129 158.401C726.033 158.417 725.944 158.457 725.856 158.481C725.68 158.529 725.495 158.577 725.327 158.65C725.222 158.69 725.126 158.754 725.022 158.802C724.878 158.874 724.725 158.947 724.589 159.035C724.484 159.099 724.396 159.18 724.308 159.252C724.188 159.348 724.059 159.436 723.947 159.549C723.859 159.637 723.779 159.734 723.698 159.822C723.602 159.934 723.498 160.047 723.41 160.175C723.337 160.28 723.273 160.384 723.209 160.496C723.129 160.625 723.057 160.753 722.992 160.89C722.936 161.01 722.896 161.131 722.856 161.251C722.808 161.396 722.76 161.54 722.72 161.685C722.688 161.813 722.672 161.942 722.647 162.07C722.631 162.167 722.607 162.255 722.599 162.351C714.602 159.3 709.299 151.672 709.299 143.008C709.299 131.598 718.572 122.308 729.979 122.308C741.386 122.308 750.66 131.59 750.66 143.008C750.66 151.664 745.357 159.3 737.36 162.351H737.384Z" fill="#FDFDFD"/>
</svg>
