<svg width="395" height="467" viewBox="0 0 395 467" fill="none" xmlns="http://www.w3.org/2000/svg">
<path d="M72.6883 378.43L49.3566 461.613C48.315 465.323 53.4805 467.416 55.3151 464.023L101.656 378.424H72.6883V378.43Z" stroke="#022791" stroke-miterlimit="10"/>
<path d="M236.095 378.43L259.426 461.613C260.468 465.323 255.302 467.416 253.468 464.023L207.127 378.424H236.095V378.43Z" stroke="#022791" stroke-miterlimit="10"/>
<path d="M74.3484 378.43H235.138C246.357 378.43 254.42 367.633 251.221 356.878L196.421 172.558C195.379 169.049 192.149 166.644 188.485 166.644H8.79972C3.23776 166.644 -0.743386 172.019 0.885022 177.335L58.9579 367.046C61.0304 373.811 67.2744 378.424 74.3484 378.424V378.43Z" fill="#96D5ED"/>
<path d="M247.589 409.927C247.589 409.927 246.166 419.625 259.633 421.966C273.099 424.308 290.942 423.029 290.942 423.029C290.942 423.029 298.45 423.953 300.142 413.807C301.834 403.66 269.112 399.479 269.112 399.479L247.599 409.922L247.589 409.927Z" fill="#022791"/>
<path d="M258.036 412.617L244.041 454.098H282.52L294.162 411.122L258.036 412.617Z" fill="white" stroke="#022791" stroke-miterlimit="10" stroke-linecap="round"/>
<path d="M252.215 431.315C252.215 431.315 284.503 428.562 293.216 414.62L259.691 408.437L252.215 431.315Z" fill="#96D5ED"/>
<path d="M252.215 429.873C252.215 429.873 267.293 434.999 263.111 447.831L279.232 449.622L277.191 446.53C275.272 443.624 277.355 439.745 280.844 439.745H288.188L317.499 450.584C322.316 452.365 324.156 458.205 321.237 462.422L318.943 465.736H238.331L252.215 429.873Z" fill="#4D75FE" stroke="#022791" stroke-miterlimit="10"/>
<path d="M306.962 234.449H338.23C359.775 234.449 374.324 256.444 365.886 276.263L300.131 413.812C300.131 413.812 256.244 420.08 247.584 409.933L291.73 303.823L238.326 311.285L86.3183 301.434C86.3183 301.434 66.9095 292.778 71.9851 267.712C77.0607 242.646 78.5516 239.956 78.5516 239.956C78.5516 239.956 139.458 229.539 140.352 229.819C141.245 230.099 306.952 234.449 306.952 234.449H306.962Z" fill="white" stroke="#022791" stroke-miterlimit="10" stroke-linecap="round"/>
<path d="M391.164 144.881C388.436 144.062 385.565 145.605 384.745 148.332L363.861 217.78L257.634 233.593L258.692 240.706C258.945 242.408 260.532 243.581 262.229 243.327L371.216 227.103L371.771 227.267L394.616 151.297C395.436 148.57 393.892 145.7 391.164 144.881Z" fill="#FFD125"/>
<path d="M278.994 73.7626L275.954 58.4312C275.695 57.1311 275.626 55.8046 275.668 54.4781C276.197 37.8149 259.902 21.0249 259.902 21.0249L235.709 23.7202L195.739 90.5473C202.21 105.905 227.012 107.792 227.012 107.792L236.449 88.6606C236.449 88.6606 245.886 92.1645 258.554 93.7816C266.321 94.7699 270.238 86.9588 272.538 76.7908L275.716 77.2347C277.714 77.5095 279.385 75.7391 278.994 73.7626Z" fill="white" stroke="#022791" stroke-miterlimit="10" stroke-linecap="round"/>
<path d="M236.444 88.666C236.444 88.666 230.031 85.9601 227.646 81.7798L227.012 107.797L236.449 88.666H236.444Z" fill="#96D5ED"/>
<path d="M249.741 70.8401C249.741 70.8401 250.137 79.9935 261.288 81.785Z" fill="white"/>
<path d="M249.741 70.8401C249.741 70.8401 250.137 79.9935 261.288 81.785" stroke="#022791" stroke-width="1.33334" stroke-miterlimit="10" stroke-linecap="round"/>
<path d="M264.967 62.6803C266.562 62.6803 267.854 61.3883 267.854 59.7947C267.854 58.2011 266.562 56.9092 264.967 56.9092C263.373 56.9092 262.081 58.2011 262.081 59.7947C262.081 61.3883 263.373 62.6803 264.967 62.6803Z" fill="#022791"/>
<path d="M257.253 51.487C257.253 51.487 263.82 47.3067 270.836 52.3802Z" fill="white"/>
<path d="M257.253 51.487C257.253 51.487 263.82 47.3067 270.836 52.3802" stroke="#022791" stroke-width="1.33334" stroke-miterlimit="10" stroke-linecap="round"/>
<path d="M227.012 107.802C227.012 107.802 231.252 115.207 227.012 138.788C222.771 162.369 212.62 208.923 212.62 208.923C212.62 208.923 194.856 237.916 191.721 244.733C191.541 245.13 78.5674 239.956 78.5674 239.956L140.072 121.178L188.739 84.771L195.744 90.5579C195.744 90.5579 204.98 103.68 227.017 107.802H227.012Z" fill="#4D75FE"/>
<path d="M276.81 18.911C273.823 9.56207 254.52 -3.36998 240.583 2.20026C226.652 7.77051 218.885 14.5351 208.539 13.7424C198.187 12.9444 188.834 16.9239 184.557 26.2781C180.279 35.627 173.311 45.3776 160.173 44.5849C147.251 43.8027 127.229 53.2415 116.719 70.2112C116.576 70.4437 116.428 70.6709 116.29 70.9088C116.259 70.9563 116.227 71.0039 116.2 71.0568C116.142 71.1572 116.089 71.2576 116.036 71.3527C112.912 76.7538 111.114 83.0164 111.114 89.7017C111.114 109.974 127.557 126.41 147.838 126.41C161.531 126.41 173.464 118.916 179.777 107.813H179.788C179.788 107.813 179.819 107.75 179.877 107.644C180.084 107.279 180.279 106.909 180.475 106.534C182.188 103.427 186.782 95.6578 190.436 94.8016C195.014 93.7288 219.493 91.9372 225.864 79.206C228.19 74.5606 229.798 69.6774 231.31 65.1166C227.699 64.9739 224.812 62.0091 224.812 58.3678C224.812 54.7265 227.841 51.6032 231.579 51.6032C233.271 51.6032 234.82 52.2321 236.005 53.2573C237.474 50.6307 239.24 48.5168 241.593 47.1744C249.952 42.3969 266.495 41.0704 271.671 38.0845C276.847 35.0985 279.808 28.2705 276.826 18.9216L276.81 18.911Z" fill="#98AFED"/>
<path d="M174.982 204.685L185.842 137.25C186.037 136.029 184.34 135.522 183.832 136.647L153.728 203.247L174.982 204.685Z" fill="#022791"/>
<path d="M264.143 213.769L308.469 207.549C312.693 206.957 316.981 208.009 320.45 210.498L340.456 224.836C342.296 226.152 341.793 229.011 339.615 229.624L324.378 233.915C320.629 234.972 316.611 234.322 313.391 232.14L305.456 228.979C304.102 228.065 270.968 234.454 270.968 234.454L264.143 213.78V213.769Z" fill="white" stroke="#022791" stroke-width="1.33334" stroke-miterlimit="10" stroke-linecap="round"/>
<path d="M337.558 230.2L326.144 221.734" stroke="#022791" stroke-width="1.33334" stroke-miterlimit="10" stroke-linecap="round"/>
<path d="M330.548 232.118L319.128 223.652" stroke="#022791" stroke-width="1.33334" stroke-miterlimit="10" stroke-linecap="round"/>
<path d="M323.674 234.053L312.26 225.586" stroke="#022791" stroke-width="1.33334" stroke-miterlimit="10" stroke-linecap="round"/>
<path d="M184.557 135.796L153.733 203.242L281.59 211.898C289.949 218.462 287.263 231.896 287.263 231.896L142.102 254.954C115.571 259.166 94.4233 233.112 104.009 208.03L136.191 137.889" fill="#4D75FE"/>
<path d="M184.557 135.796L153.733 203.242L281.59 211.898C289.949 218.462 287.263 231.896 287.263 231.896L142.102 254.954C115.571 259.166 94.4233 233.112 104.009 208.03L136.191 137.889" stroke="#022791" stroke-width="1.33334" stroke-miterlimit="10"/>
<path d="M92.2979 269.799H333.096C337.114 269.799 339.826 273.9 338.256 277.6L273.564 412.617" stroke="#022791" stroke-miterlimit="10" stroke-linecap="round"/>
<path d="M68.2577 378.43H246.69C252.236 378.43 256.302 373.203 254.927 367.834L237.464 299.347C234.625 288.207 224.532 280.443 213.027 280.559L33.5747 282.356L60.7712 372.86C61.7652 376.163 64.8052 378.424 68.2577 378.424V378.43Z" fill="#96D5ED"/>
<path d="M68.2577 378.43H246.69C252.236 378.43 256.302 373.203 254.927 367.834L237.464 299.347C234.625 288.207 224.532 280.443 213.027 280.559L33.5747 282.356L60.7712 372.86C61.7652 376.163 64.8052 378.424 68.2577 378.424V378.43Z" stroke="#022791" stroke-miterlimit="10"/>
<path d="M19.5693 170.354L54.67 282.145" stroke="#022791" stroke-miterlimit="10"/>
</svg>
