<svg width="100" height="64" viewBox="0 0 100 64" fill="none" xmlns="http://www.w3.org/2000/svg">
<path d="M90.2241 1H9.90866C4.98854 1 1 4.98691 1 9.905V54.2926C1 59.2107 4.98854 63.1976 9.90866 63.1976H90.2241C95.1442 63.1976 99.1327 59.2107 99.1327 54.2926V9.905C99.1327 4.98691 95.1442 1 90.2241 1Z" fill="white" stroke="#4D75FE" stroke-miterlimit="10"/>
<path d="M11.685 12.7958H21.4766C23.1579 12.7958 24.5272 14.1593 24.5272 15.8451V54.5779H8.63965V15.8451C8.63965 14.1645 10.0037 12.7958 11.6903 12.7958H11.685Z" fill="#FFD125"/>
<path d="M34.3188 24.079H44.1104C45.7916 24.079 47.161 25.4425 47.161 27.1283V54.5726H31.2734V27.1283C31.2734 25.4478 32.6375 24.079 34.3241 24.079H34.3188Z" fill="#FFD125"/>
<path d="M56.9579 32.0961H66.7495C68.4308 32.0961 69.8002 33.4596 69.8002 35.1454V54.5726H53.9126V35.1454C53.9126 33.4649 55.2767 32.0961 56.9632 32.0961H56.9579Z" fill="#FFD125"/>
<path d="M79.5971 38.6917H89.3887C91.07 38.6917 92.4393 40.0551 92.4393 41.741V54.5727H76.5518V41.741C76.5518 40.0604 77.9158 38.6917 79.6024 38.6917H79.5971Z" fill="#FFD125"/>
</svg>
