<svg width="150" height="135" viewBox="0 0 150 135" fill="none" xmlns="http://www.w3.org/2000/svg">
<path d="M148.974 117.732C142.831 104.388 139.616 98.9124 139.616 92.2693C139.616 85.3937 139.304 75.0883 138.051 67.589C136.798 60.0898 134.615 51.967 133.986 50.408C133.362 48.8436 127.424 40.1976 124.992 37.1641C122.999 34.6749 119.605 28.8457 116.792 38.8447C113.98 48.8436 122.73 54.7785 122.73 57.2783C122.73 59.778 121.165 62.2778 121.165 62.2778L114.286 53.8431L78.9688 87.587C78.9688 87.587 98.7106 100.662 111.516 133.75" fill="white"/>
<path d="M148.974 117.732C142.831 104.388 139.616 98.9124 139.616 92.2693C139.616 85.3937 139.304 75.0883 138.051 67.589C136.798 60.0898 134.615 51.967 133.986 50.408C133.362 48.8436 127.424 40.1976 124.992 37.1641C122.999 34.6749 119.605 28.8457 116.792 38.8447C113.98 48.8436 122.73 54.7785 122.73 57.2783C122.73 59.778 121.165 62.2778 121.165 62.2778L114.286 53.8431L78.9688 87.587C78.9688 87.587 98.7106 100.662 111.516 133.75" stroke="#022791" stroke-miterlimit="10" stroke-linecap="round"/>
<path d="M116.184 80.6902C116.507 74.5914 118.072 68.9049 121.244 62.2566L121.175 62.2249C117.998 68.8838 116.433 74.5756 116.11 80.6849H116.184V80.6902Z" fill="white" stroke="#022791" stroke-miterlimit="10" stroke-linecap="round"/>
<path d="M126.457 102.004C128.165 102.004 129.841 101.687 131.379 101.069C133.378 100.265 135.191 98.9335 136.624 97.2159C138.057 95.4983 139.046 93.4795 139.479 91.3708L139.405 91.355C138.971 93.4531 137.988 95.4613 136.566 97.1683C135.138 98.8753 133.336 100.202 131.348 100.995C129.36 101.793 127.139 102.083 124.929 101.84C122.719 101.597 120.615 100.825 118.854 99.6099L118.812 99.6733C120.583 100.894 122.698 101.671 124.924 101.919C125.437 101.978 125.944 102.004 126.457 102.004Z" fill="white" stroke="#022791" stroke-miterlimit="10" stroke-linecap="round"/>
<path d="M73.042 41.3814C73.042 41.3814 65.8516 34.5058 62.727 38.258C59.6023 42.005 63.9747 46.3809 65.2277 47.9452C66.4755 49.5095 72.73 56.3798 72.73 56.3798L73.042 41.3814Z" fill="white" stroke="#022791" stroke-miterlimit="10" stroke-linecap="round"/>
<path d="M113.097 87.5977H79.0586C75.9445 87.5977 73.4173 85.0715 73.4173 81.9587V6.32703C73.4173 2.96586 76.1454 0.238875 79.508 0.238875H112.647C116.01 0.238875 118.738 2.96586 118.738 6.32703L118.738 81.9587C118.738 85.0715 116.211 87.5977 113.097 87.5977Z" fill="#022791"/>
<path d="M112.584 82.2862H79.5717C77.5573 82.2862 75.9183 80.6479 75.9183 78.6344V8.44083C75.9183 5.29105 78.4773 2.73846 81.6231 2.73846H110.533C113.684 2.73846 116.237 5.29634 116.237 8.44083L116.237 78.6397C116.237 80.6532 114.598 82.2915 112.584 82.2915V82.2862Z" fill="#F9F9FB"/>
<path d="M73.4702 36.0015C73.4702 36.0015 68.0986 37.3015 66.8509 41.6721C65.6031 46.048 66.5389 50.4186 67.1628 51.6711C67.8607 53.0663 72.4763 52.2947 74.0412 49.4832C75.6062 46.6716 73.4174 41.6721 73.4174 41.3603C73.4174 41.0485 73.4755 36.0015 73.4755 36.0015H73.4702Z" fill="white" stroke="#022791" stroke-miterlimit="10" stroke-linecap="round"/>
<path d="M73.4172 40.9217C73.2057 40.1871 72.7246 39.5318 72.0902 39.1143L72.0479 39.1777C72.751 39.6427 73.2586 40.3985 73.4172 41.2229V40.9217Z" fill="white" stroke="#022791" stroke-miterlimit="10" stroke-linecap="round"/>
<path d="M73.3486 56.047C73.3486 56.047 66.7874 59.794 66.1583 62.6055C65.5344 65.4171 67.7232 72.6045 67.7232 72.6045C67.7232 72.6045 65.5344 76.6686 67.0994 81.0391C68.6643 85.415 72.4128 86.6622 73.6606 86.0386C74.9083 85.415 75.5586 83.1214 74.9083 81.6628C73.6606 78.8512 72.7195 74.4754 72.7195 74.4754C72.7195 74.4754 75.8441 74.1635 76.1561 71.0402C76.468 67.9168 73.3433 60.1058 73.3433 60.1058V56.0417L73.3486 56.047Z" fill="white" stroke="#022791" stroke-miterlimit="10" stroke-linecap="round"/>
<path d="M71.6411 74.7291C71.9901 74.7291 72.3284 74.671 72.6509 74.5283L72.6192 74.4596C71.7469 74.8559 70.7106 74.5811 69.8171 74.264C68.8178 73.91 68.1199 73.5294 67.7181 72.7156L67.6494 72.7473C68.0671 73.5823 68.7755 73.9734 69.7907 74.3327C70.3775 74.5389 71.0173 74.7291 71.6411 74.7291Z" fill="white" stroke="#022791" stroke-miterlimit="10" stroke-linecap="round"/>
<path d="M73.3539 60.1745L73.4279 60.1533C73.2481 59.5297 72.7829 59.0065 72.1802 58.7476L72.1484 58.8163C72.7247 59.0646 73.1741 59.572 73.3539 60.1745Z" fill="white" stroke="#022791" stroke-miterlimit="10" stroke-linecap="round"/>
<path d="M106.012 34.8546C108.549 36.7518 110.432 39.4947 111.241 42.5599C111.938 45.1548 111.88 47.9399 111.071 50.503C109.993 53.9435 107.566 56.9189 104.404 58.6523C102.316 59.8308 99.9422 60.4175 97.5471 60.428C97.526 50.9734 97.5418 41.5241 97.5418 32.0694C100.561 32.0219 103.601 33.0524 106.012 34.8546Z" fill="#FFD125"/>
<path d="M92.9847 38.892C93.413 40.784 92.842 42.8292 91.5414 44.2614C89.7173 46.2961 86.5663 46.8616 84.1712 45.5192C81.993 44.4041 80.6765 41.8938 80.9937 39.4681C81.1893 37.5391 82.363 35.7739 84.0655 34.8438C85.2339 34.1409 86.5504 33.9982 87.8827 34.1251C90.3782 34.4369 92.5036 36.424 92.99 38.892H92.9847Z" fill="#96D5ED"/>
<path d="M92.9847 19.6869C93.413 21.5789 92.842 23.6241 91.5414 25.0563C89.7173 27.091 86.5663 27.6565 84.1712 26.3141C81.993 25.199 80.6765 22.6887 80.9937 20.263C81.1893 18.334 82.363 16.5689 84.0655 15.6387C85.2339 14.9358 86.5504 14.7931 87.8827 14.92C90.3782 15.2318 92.5036 17.2189 92.99 19.6869H92.9847Z" fill="#1D4FC6"/>
<path d="M91.5465 62.7744C95.94 66.1832 98.6787 71.6002 98.5413 77.1863C92.477 77.181 86.4075 77.1968 80.3433 77.181C80.3538 71.1192 80.3591 65.0522 80.3433 58.9905C84.3403 58.8901 88.3954 60.3434 91.5518 62.7744H91.5465Z" fill="#022791"/>
<path d="M87.0312 1.375H106.62V3.47309C106.62 4.73089 105.599 5.75087 104.341 5.75087H89.0985C87.9565 5.75087 87.0312 4.82602 87.0312 3.68449V1.375Z" fill="#022791"/>
<path d="M56.3348 48.6958H1.10107" stroke="#022791" stroke-width="1.33334" stroke-miterlimit="10" stroke-linecap="round"/>
</svg>
