<svg width="69" height="69" viewBox="0 0 69 69" fill="none" xmlns="http://www.w3.org/2000/svg">
<path d="M34.4556 68.8829C53.485 68.8829 68.9113 53.4629 68.9113 34.4415C68.9113 15.42 53.485 0 34.4556 0C15.4263 0 0 15.42 0 34.4415C0 53.4629 15.4263 68.8829 34.4556 68.8829Z" fill="#4D75FE"/>
<path d="M46.8327 28.7865C47.5412 27.9938 47.9853 26.9579 47.9853 25.8164V22.1117C47.9853 21.6784 47.6364 21.3296 47.2028 21.3296H44.1258C41.2972 19.2262 37.9452 18.1111 34.4029 18.1111C30.8606 18.1111 27.5086 19.2262 24.68 21.3296H21.6083C21.1747 21.3296 20.8258 21.6784 20.8258 22.1117V25.8164C20.8258 26.9579 21.2699 27.9938 21.9784 28.7865C19.9005 29.0349 18.2827 30.7842 18.2827 32.9246V38.5899C18.2827 39.0233 18.6317 39.3721 19.0652 39.3721H31.5743C32.0079 39.3721 32.3568 39.0233 32.3568 38.5899V32.9246C32.3568 30.7842 30.7337 29.0349 28.6612 28.7865C29.3696 27.9938 29.8137 26.9579 29.8137 25.8164V22.1117C29.8137 21.6784 29.4648 21.3296 29.0313 21.3296H27.6302C29.708 20.2462 32.0132 19.6807 34.4135 19.6807C36.8138 19.6807 39.1136 20.2515 41.1967 21.3296H39.7957C39.3621 21.3296 39.0132 21.6784 39.0132 22.1117V25.8164C39.0132 26.9579 39.4573 27.9938 40.1658 28.7865C38.088 29.0349 36.4701 30.7842 36.4701 32.9246V38.5899C36.4701 39.0233 36.8191 39.3721 37.2526 39.3721H49.7617C50.1953 39.3721 50.5442 39.0233 50.5442 38.5899V32.9246C50.5442 30.7842 48.9211 29.0349 46.8486 28.7865H46.8327ZM30.7813 32.9246V37.8078H19.8424V32.9246C19.8424 31.4818 21.0161 30.3033 22.4648 30.3033H28.1642C29.6076 30.3033 30.7866 31.4765 30.7866 32.9246H30.7813ZM28.2329 25.8164C28.2329 27.4283 26.9217 28.7389 25.3092 28.7389C23.6966 28.7389 22.3855 27.4283 22.3855 25.8164V22.8939H28.2329V25.8164ZM40.5623 22.8939H46.4098V25.8164C46.4098 27.4283 45.0986 28.7389 43.486 28.7389C41.8735 28.7389 40.5623 27.4283 40.5623 25.8164V22.8939ZM48.9528 37.8078H38.0139V32.9246C38.0139 31.4818 39.1877 30.3033 40.6363 30.3033H46.3357C47.7791 30.3033 48.9581 31.4765 48.9581 32.9246V37.8078H48.9528Z" fill="#FDFDFD"/>
<path d="M41.4818 47.3629C41.1275 47.5584 40.768 47.7328 40.4138 47.8914C40.0173 48.0658 39.8428 48.5309 40.0173 48.9272C40.1494 49.2179 40.4349 49.3923 40.7363 49.3923C40.842 49.3923 40.9531 49.3712 41.0535 49.3236C41.4501 49.1492 41.8466 48.9484 42.2378 48.737C42.6185 48.5309 42.756 48.0499 42.5498 47.6694C42.3436 47.2889 41.8624 47.1515 41.4818 47.3576V47.3629Z" fill="#FDFDFD"/>
<path d="M45.0771 44.599C44.7281 44.9637 44.358 45.3125 43.9774 45.6401C43.6496 45.9202 43.6073 46.417 43.8928 46.7447C44.0461 46.9243 44.2682 47.0195 44.4902 47.0195C44.67 47.0195 44.8497 46.9561 44.9978 46.8292C45.4207 46.4646 45.8331 46.0788 46.2138 45.6771C46.5152 45.3653 46.4993 44.8685 46.1874 44.5673C45.8754 44.2661 45.3784 44.2819 45.0771 44.5937V44.599Z" fill="#FDFDFD"/>
<path d="M48.5772 40.8361C48.1912 40.6406 47.7207 40.7885 47.5198 41.1743C47.34 41.5284 47.1391 41.8772 46.9329 42.2102C46.7056 42.5801 46.8166 43.061 47.1814 43.2936C47.3136 43.3728 47.4563 43.4151 47.5938 43.4151C47.8582 43.4151 48.1119 43.283 48.26 43.0452C48.4926 42.6752 48.7094 42.2894 48.9103 41.8984C49.1112 41.5126 48.9579 41.0369 48.5719 40.8414L48.5772 40.8361Z" fill="#FDFDFD"/>
<path d="M28.3806 47.8915C28.0264 47.7329 27.6668 47.5532 27.3126 47.363C26.9319 47.1569 26.4561 47.2943 26.2446 47.6748C26.0384 48.0553 26.1759 48.5309 26.5566 48.7423C26.9478 48.9537 27.3443 49.1546 27.7409 49.329C27.8466 49.3765 27.9523 49.3977 28.0581 49.3977C28.3594 49.3977 28.6449 49.2233 28.7771 48.9326C28.9516 48.5362 28.7771 48.0712 28.3806 47.8968V47.8915Z" fill="#FDFDFD"/>
<path d="M23.7228 44.599C23.4214 44.2872 22.9245 44.2766 22.6125 44.5726C22.3006 44.8738 22.29 45.3706 22.5861 45.6824C22.972 46.084 23.3791 46.4698 23.8021 46.8345C23.9501 46.9613 24.1299 47.0247 24.3097 47.0247C24.5317 47.0247 24.7538 46.9296 24.9071 46.7499C25.1873 46.4223 25.1503 45.9255 24.8225 45.6454C24.4418 45.3177 24.0665 44.9689 23.7228 44.6043V44.599Z" fill="#FDFDFD"/>
<path d="M21.2801 41.1742C21.0845 40.7884 20.6087 40.6352 20.2227 40.836C19.8368 41.0315 19.6834 41.5072 19.8844 41.893C20.08 42.2787 20.302 42.6645 20.5347 43.0398C20.6827 43.2776 20.9418 43.4097 21.2008 43.4097C21.3436 43.4097 21.4863 43.3727 21.6132 43.2882C21.9833 43.0609 22.0943 42.5747 21.8617 42.2048C21.6502 41.8665 21.4546 41.5177 21.2748 41.1689L21.2801 41.1742Z" fill="#FDFDFD"/>
<path d="M55.6671 34.4203C55.6671 22.6984 46.1293 13.1646 34.4027 13.1646C22.676 13.1646 13.1382 22.6984 13.1382 34.4203C13.1382 43.5049 18.8323 51.4798 27.3656 54.4658V58.8205C27.3656 59.2538 27.7146 59.6026 28.1481 59.6026H40.6572C41.0908 59.6026 41.4397 59.2538 41.4397 58.8205V54.4658C49.9677 51.4798 55.6671 43.5049 55.6671 34.4203ZM39.8695 58.033H28.9306V53.1498C28.9306 51.7071 30.1043 50.5285 31.5529 50.5285H37.2524C38.6957 50.5285 39.8747 51.7018 39.8747 53.1498V58.033H39.8695ZM37.3211 46.0417C37.3211 47.6536 36.0099 48.9642 34.3974 48.9642C32.7848 48.9642 31.4736 47.6536 31.4736 46.0417V43.1192H37.3211V46.0417ZM41.4238 52.8169C41.4186 52.7217 41.3868 52.6372 41.3763 52.5473C41.3604 52.4205 41.3393 52.299 41.3128 52.1774C41.2811 52.0347 41.2335 51.8973 41.1859 51.7599C41.1436 51.6436 41.1066 51.5274 41.0538 51.4164C40.9956 51.2843 40.9216 51.1627 40.8476 51.0412C40.7841 50.9355 40.7312 50.8351 40.6572 50.7346C40.5726 50.6184 40.4775 50.5127 40.3823 50.4017C40.303 50.3119 40.229 50.222 40.1444 50.1375C40.0386 50.037 39.9223 49.9472 39.806 49.8574C39.7161 49.7887 39.6315 49.7094 39.5364 49.646C39.4042 49.5614 39.2667 49.4927 39.124 49.424C39.0288 49.3764 38.9389 49.3183 38.8332 49.276C38.6693 49.2073 38.5001 49.165 38.3309 49.1175C38.241 49.091 38.1565 49.0593 38.0666 49.0382C37.9608 49.0171 37.8498 49.0171 37.7388 49.0012C38.4472 48.2085 38.8861 47.1726 38.8861 46.0311V42.3264C38.8861 41.8931 38.5371 41.5443 38.1036 41.5443H30.6859C30.2523 41.5443 29.9034 41.8931 29.9034 42.3264V46.0311C29.9034 47.1726 30.3475 48.2085 31.0507 49.0012C30.9396 49.0118 30.8286 49.0171 30.7229 49.0382C30.633 49.0541 30.5484 49.091 30.4585 49.1175C30.2893 49.165 30.1149 49.2073 29.951 49.276C29.8505 49.3183 29.7606 49.3764 29.6655 49.424C29.528 49.4927 29.3853 49.5614 29.2531 49.646C29.1579 49.7094 29.0733 49.7834 28.9834 49.8521C28.8671 49.9419 28.7508 50.0318 28.6451 50.1322C28.5605 50.2114 28.4865 50.3066 28.4124 50.3911C28.3173 50.5021 28.2221 50.6078 28.1375 50.7241C28.0688 50.8192 28.0106 50.9249 27.9525 51.0306C27.8784 51.1521 27.8097 51.279 27.7463 51.4058C27.6934 51.5168 27.6564 51.6331 27.6141 51.7493C27.5665 51.8867 27.5189 52.0241 27.4872 52.1668C27.4608 52.2884 27.4396 52.4099 27.4238 52.5368C27.4079 52.6266 27.3815 52.7165 27.3762 52.8063C19.7576 49.9049 14.7084 42.6435 14.7084 34.4097C14.7084 23.5546 23.5431 14.7236 34.4027 14.7236C45.2622 14.7236 54.0969 23.5546 54.0969 34.4097C54.0969 42.6435 49.0478 49.9049 41.4291 52.8063L41.4238 52.8169Z" fill="#FDFDFD"/>
</svg>
