<svg width="292" height="183" viewBox="0 0 292 183" fill="none" xmlns="http://www.w3.org/2000/svg">
<path d="M217.486 0.649292H6.69216C3.32546 0.649292 0.596191 3.37742 0.596191 6.74274V155.29C0.596191 158.655 3.32546 161.383 6.69216 161.383H217.486C220.853 161.383 223.582 158.655 223.582 155.29V6.74274C223.582 3.37742 220.853 0.649292 217.486 0.649292Z" stroke="#022791" stroke-miterlimit="10"/>
<path d="M2.77982 0.649292H221.404C222.61 0.649292 223.588 1.62699 223.588 2.83194V21.2444H0.601562V2.83194C0.601562 1.62699 1.57967 0.649292 2.78511 0.649292H2.77982Z" fill="#022791"/>
<path d="M199.394 37.3369H19.677C17.5659 37.3369 15.8545 39.0476 15.8545 41.1579C15.8545 43.2681 17.5659 44.9788 19.677 44.9788H199.394C201.505 44.9788 203.217 43.2681 203.217 41.1579C203.217 39.0476 201.505 37.3369 199.394 37.3369Z" fill="#4D75FE"/>
<path d="M186.853 76.244H138.001C136.605 76.244 135.474 77.3738 135.474 78.7675C135.474 80.1612 136.605 81.2911 138.001 81.2911H186.853C188.249 81.2911 189.38 80.1612 189.38 78.7675C189.38 77.3738 188.249 76.244 186.853 76.244Z" fill="#4D75FE"/>
<path d="M186.853 88.9541H138.001C136.605 88.9541 135.474 90.0839 135.474 91.4776C135.474 92.8713 136.605 94.0012 138.001 94.0012H186.853C188.249 94.0012 189.38 92.8713 189.38 91.4776C189.38 90.0839 188.249 88.9541 186.853 88.9541Z" fill="#4D75FE"/>
<path d="M186.853 101.669H138.001C136.605 101.669 135.474 102.799 135.474 104.193C135.474 105.587 136.605 106.716 138.001 106.716H186.853C188.249 106.716 189.38 105.587 189.38 104.193C189.38 102.799 188.249 101.669 186.853 101.669Z" fill="#4D75FE"/>
<path d="M196.507 58.6506H81.8209C78.9594 58.6506 76.6396 60.9694 76.6396 63.8298V119.131C76.6396 121.991 78.9594 124.31 81.8209 124.31H196.507C199.369 124.31 201.689 121.991 201.689 119.131V63.8298C201.689 60.9694 199.369 58.6506 196.507 58.6506Z" stroke="#022791" stroke-miterlimit="10"/>
<path d="M107.357 109.597C117.367 109.597 125.481 101.486 125.481 91.4803C125.481 81.4748 117.367 73.3638 107.357 73.3638C97.3478 73.3638 89.2334 81.4748 89.2334 91.4803C89.2334 101.486 97.3478 109.597 107.357 109.597Z" fill="#FFD125"/>
<path d="M269.643 137.237H202.794C190.46 137.237 180.461 147.231 180.461 159.56V160.442C180.461 172.771 190.46 182.766 202.794 182.766H269.643C281.977 182.766 291.976 172.771 291.976 160.442V159.56C291.976 147.231 281.977 137.237 269.643 137.237Z" fill="#FFD125"/>
<path d="M210.47 177.333C200.912 177.333 193.134 169.559 193.134 160.004C193.134 150.449 200.912 142.675 210.47 142.675C220.029 142.675 227.807 150.449 227.807 160.004C227.807 169.559 220.029 177.333 210.47 177.333Z" fill="white"/>
</svg>
