<svg width="104" height="105" viewBox="0 0 104 105" fill="none" xmlns="http://www.w3.org/2000/svg">
<path d="M52.4272 93.7606C75.125 93.7606 93.5252 75.3691 93.5252 52.6822C93.5252 29.9952 75.125 11.6038 52.4272 11.6038C29.7294 11.6038 11.3291 29.9952 11.3291 52.6822C11.3291 75.3691 29.7294 93.7606 52.4272 93.7606Z" fill="#4D75FE"/>
<g clip-path="url(#clip0_437_1266)">
<path d="M71.6121 30.0022H32.3953C30.5269 30.0022 29.0015 31.5286 29.0015 33.3963V72.6152C29.0015 74.4837 30.5199 76.0013 32.3953 76.0013H71.6121C73.4806 76.0013 74.9981 74.4828 74.9981 72.6143V33.3963C74.9981 31.5277 73.4797 30.0022 71.6112 30.0022H71.6121ZM32.3953 31.1189H71.6121C72.8621 31.1189 73.8823 32.1383 73.8823 33.3971V40.0361H30.1181V33.3963C30.1181 32.1462 31.1453 31.1189 32.3953 31.1189ZM71.6121 74.8855H32.3953C31.1453 74.8855 30.1181 73.8661 30.1181 72.6152V69.3702H37.3901C37.569 69.3702 37.7401 69.2808 37.8445 69.1395L40.0699 66.0727L43.9322 71.9897C44.0366 72.1458 44.2147 72.2432 44.4006 72.2432H44.4603C44.6691 72.2213 44.8471 72.0792 44.9217 71.8862L47.6235 64.6138L49.3875 69.0202C49.4691 69.229 49.6778 69.3702 49.9085 69.3702H53.541C53.8015 70.308 54.6498 71.0081 55.677 71.0081C56.8972 71.0081 57.8954 70.0106 57.8954 68.7895C57.8954 67.5684 56.9051 66.571 55.677 66.571C54.6349 66.571 53.7717 67.2929 53.5261 68.2605H50.2884L48.1226 62.8558C48.041 62.647 47.8322 62.5058 47.6015 62.5058H47.5936C47.3629 62.5058 47.162 62.6549 47.0796 62.8707L44.2585 70.4633L40.5594 64.791C40.4629 64.6349 40.2919 64.5454 40.105 64.5375C39.9261 64.5296 39.748 64.6191 39.6366 64.7682L37.0989 68.2588H30.1181V41.1511H73.8823V72.6143C73.8823 73.8644 72.863 74.8846 71.6121 74.8846V74.8855ZM54.5682 68.7895C54.5682 68.1789 55.0665 67.6877 55.67 67.6877C56.2735 67.6877 56.7717 68.186 56.7717 68.7895C56.7717 69.393 56.2805 69.8913 55.67 69.8913C55.0665 69.8913 54.5682 69.3922 54.5682 68.7895Z" fill="white"/>
<path d="M35.0608 37.5569C36.2441 37.5569 37.2047 36.5972 37.2047 35.413C37.2047 34.2287 36.2441 33.262 35.0608 33.262C33.8775 33.262 32.9099 34.2296 32.9099 35.413C32.9099 36.5964 33.8696 37.5569 35.0608 37.5569ZM35.0608 34.3787C35.6266 34.3787 36.088 34.8471 36.088 35.413C36.088 35.9788 35.6266 36.4402 35.0608 36.4402C34.495 36.4402 34.0266 35.9788 34.0266 35.413C34.0266 34.8392 34.488 34.3787 35.0608 34.3787Z" fill="white"/>
<path d="M41.4319 37.5569C42.6153 37.5569 43.5758 36.5972 43.5758 35.413C43.5758 34.2287 42.6153 33.262 41.4319 33.262C40.2486 33.262 39.2811 34.2296 39.2811 35.413C39.2732 36.5964 40.2407 37.5569 41.4319 37.5569ZM41.4319 34.3787C41.9977 34.3787 42.4591 34.8471 42.4591 35.413C42.4591 35.9788 41.9977 36.4402 41.4319 36.4402C40.8661 36.4402 40.3977 35.9788 40.3977 35.413C40.3898 34.8392 40.8591 34.3787 41.4319 34.3787Z" fill="white"/>
<path d="M47.8023 37.5569C48.9856 37.5569 49.9462 36.5972 49.9462 35.413C49.9462 34.2287 48.9856 33.262 47.8023 33.262C46.619 33.262 45.6514 34.2296 45.6514 35.413C45.6435 36.5964 46.6119 37.5569 47.8023 37.5569ZM47.8023 34.3787C48.3681 34.3787 48.8295 34.8471 48.8295 35.413C48.8295 35.9788 48.3681 36.4402 47.8023 36.4402C47.2365 36.4402 46.7681 35.9788 46.7681 35.413C46.7602 34.8392 47.2295 34.3787 47.8023 34.3787Z" fill="white"/>
<path d="M48.9268 49.3393H44.3267V44.7391C44.3267 44.4338 44.0732 44.1812 43.7688 44.1812H39.6232C39.318 44.1812 39.0653 44.4347 39.0653 44.7391V49.3393H34.4583C34.153 49.3393 33.9004 49.5929 33.9004 49.8973V54.0431C33.9004 54.3484 34.1539 54.601 34.4583 54.601H39.0583V59.2013C39.0583 59.5066 39.3118 59.7592 39.6162 59.7592H43.7618C44.0671 59.7592 44.3197 59.5057 44.3197 59.2013V54.601H48.9197C49.225 54.601 49.4776 54.3475 49.4776 54.0431V49.8973C49.4846 49.592 49.232 49.3393 48.9268 49.3393ZM48.3689 53.4931H43.7688C43.4636 53.4931 43.2109 53.7466 43.2109 54.051V58.6513H40.1811V54.051C40.1811 53.7457 39.9276 53.4931 39.6232 53.4931H35.0232V50.4631H39.6232C39.9285 50.4631 40.1811 50.2096 40.1811 49.9052V45.3049H43.2109V49.9052C43.2109 50.2104 43.4645 50.4631 43.7688 50.4631H48.3689V53.4931Z" fill="white"/>
<path d="M68.8137 65.1569L61.1181 62.4033C60.9172 62.3287 60.6865 62.3813 60.5374 62.5375C60.3882 62.6936 60.3365 62.9173 60.4031 63.1182L63.1567 70.8143C63.2382 71.038 63.447 71.1862 63.6847 71.1862H63.7067C63.9523 71.1783 64.1611 71.0073 64.2207 70.7766L65.1883 67.1965L68.7681 66.2289C69.0058 66.1623 69.1698 65.9535 69.1777 65.7149C69.1927 65.4622 69.0435 65.2385 68.8128 65.1569H68.8137ZM64.5935 66.1991C64.3997 66.2509 64.2514 66.4 64.1988 66.5939L63.6111 68.7677L61.8549 63.8551L66.7672 65.6114L64.5935 66.1991Z" fill="white"/>
<path d="M69.5505 44.2258H54.054C53.7487 44.2258 53.4961 44.4794 53.4961 44.7838C53.4961 45.0882 53.7496 45.3417 54.054 45.3417H69.5505C69.8558 45.3417 70.1084 45.0882 70.1084 44.7838C70.1084 44.4794 69.8549 44.2258 69.5505 44.2258Z" fill="white"/>
<path d="M69.5505 48.3428H54.054C53.7487 48.3428 53.4961 48.5963 53.4961 48.9007C53.4961 49.2051 53.7496 49.4586 54.054 49.4586H69.5505C69.8558 49.4586 70.1084 49.2051 70.1084 48.9007C70.1084 48.5963 69.8549 48.3428 69.5505 48.3428Z" fill="white"/>
<path d="M69.5505 52.4658H54.054C53.7487 52.4658 53.4961 52.7193 53.4961 53.0237C53.4961 53.3281 53.7496 53.5817 54.054 53.5817H69.5505C69.8558 53.5817 70.1084 53.3281 70.1084 53.0237C70.1084 52.7193 69.8549 52.4658 69.5505 52.4658Z" fill="white"/>
<path d="M69.5505 56.5896H54.054C53.7487 56.5896 53.4961 56.8431 53.4961 57.1475C53.4961 57.4519 53.7496 57.7055 54.054 57.7055H69.5505C69.8558 57.7055 70.1084 57.4519 70.1084 57.1475C70.1084 56.8431 69.8549 56.5896 69.5505 56.5896Z" fill="white"/>
<path d="M56.7417 35.9718H70.8084C71.1137 35.9718 71.3663 35.7183 71.3663 35.4139C71.3663 35.1095 71.1128 34.856 70.8084 34.856H56.7417C56.4365 34.856 56.1838 35.1095 56.1838 35.4139C56.1838 35.7183 56.4373 35.9718 56.7417 35.9718Z" fill="white"/>
</g>
<path d="M10.4973 31.0937C18.3338 15.9214 34.1664 5.54541 52.4274 5.54541" stroke="#4D75FE" stroke-width="1.29333" stroke-miterlimit="10"/>
<path d="M9.84905 72.9601C6.91763 66.8196 5.27295 59.9442 5.27295 52.682C5.27295 48.0162 5.95012 43.51 7.21267 39.2551" stroke="#4D75FE" stroke-width="1.29333" stroke-miterlimit="10"/>
<path d="M52.4273 99.8186C39.4052 99.8186 27.6166 94.5436 19.0835 86.0146" stroke="#4D75FE" stroke-width="1.29333" stroke-miterlimit="10"/>
<path d="M77.3588 12.6675C90.705 20.9934 99.5864 35.8031 99.5864 52.6822C99.5864 70.9779 89.157 86.8368 73.9194 94.6454" stroke="#4D75FE" stroke-width="1.29333" stroke-miterlimit="10"/>
<path d="M22.0488 94.0217C9.35079 84.6852 1.11279 69.6435 1.11279 52.6822C1.11279 36.8378 8.30112 22.6712 19.5963 13.2622" stroke="#4D75FE" stroke-width="1.41333" stroke-miterlimit="10"/>
<path d="M102.233 40.2705C103.219 44.2449 103.747 48.403 103.747 52.682C103.747 81.0105 80.7741 103.972 52.4321 103.972C45.0552 103.972 38.041 102.415 31.7041 99.6156" stroke="#4D75FE" stroke-width="1.41333" stroke-miterlimit="10"/>
<path d="M74.3018 6.27051C84.4408 11.0524 92.7562 19.0543 97.9321 28.9565" stroke="#4D75FE" stroke-width="1.41333" stroke-miterlimit="10"/>
<path d="M42.0076 2.45096C45.3744 1.75472 48.8573 1.39209 52.4321 1.39209C56.0068 1.39209 59.4317 1.74988 62.7743 2.43646" stroke="#4D75FE" stroke-width="1.41333" stroke-miterlimit="10"/>
<path d="M23.9692 9.99848C27.5972 7.57613 31.5542 5.60344 35.7578 4.1626" stroke="#4D75FE" stroke-width="1.41333" stroke-miterlimit="10"/>
<defs>
<clipPath id="clip0_437_1266">
<rect width="46" height="46" fill="white" transform="translate(29 30.0022)"/>
</clipPath>
</defs>
</svg>
