<svg width="252" height="167" viewBox="0 0 252 167" fill="none" xmlns="http://www.w3.org/2000/svg">
<path d="M1 7.23804H251.284V161.529C251.284 164.101 249.194 166.19 246.621 166.19H5.66804C3.09457 166.19 1.00483 164.101 1.00483 161.529V7.23804H1Z" fill="white" stroke="#022791" stroke-width="1.33333" stroke-miterlimit="10"/>
<path d="M5.13593 0H247.501C249.784 0 251.637 1.85182 251.637 4.13395V14.7033H1V4.13395C1 1.85182 2.8527 0 5.13593 0Z" fill="#435ED8"/>
<path d="M116.56 33.1538H50.5252C49.2508 33.1538 48.2178 34.1864 48.2178 35.4601C48.2178 36.7339 49.2508 37.7664 50.5252 37.7664H116.56C117.834 37.7664 118.867 36.7339 118.867 35.4601C118.867 34.1864 117.834 33.1538 116.56 33.1538Z" fill="#1D4FC6"/>
<path d="M116.56 66.5107H50.5252C49.2508 66.5107 48.2178 67.5433 48.2178 68.8171C48.2178 70.0908 49.2508 71.1234 50.5252 71.1234H116.56C117.834 71.1234 118.867 70.0908 118.867 68.8171C118.867 67.5433 117.834 66.5107 116.56 66.5107Z" fill="#1D4FC6"/>
<path d="M110.88 76.4465H44.846C43.5716 76.4465 42.5386 77.4791 42.5386 78.7528C42.5386 80.0266 43.5716 81.0591 44.846 81.0591H110.88C112.155 81.0591 113.188 80.0266 113.188 78.7528C113.188 77.4791 112.155 76.4465 110.88 76.4465Z" fill="#1D4FC6"/>
<path d="M110.88 125.769H44.846C43.5716 125.769 42.5386 126.801 42.5386 128.075C42.5386 129.349 43.5716 130.381 44.846 130.381H110.88C112.155 130.381 113.188 129.349 113.188 128.075C113.188 126.801 112.155 125.769 110.88 125.769Z" fill="#1D4FC6"/>
<path d="M118.335 86.3826H52.3001C51.0257 86.3826 49.9927 87.4151 49.9927 88.6889C49.9927 89.9626 51.0257 90.9952 52.3001 90.9952H118.335C119.609 90.9952 120.642 89.9626 120.642 88.6889C120.642 87.4151 119.609 86.3826 118.335 86.3826Z" fill="#1D4FC6"/>
<path d="M231.582 33.1538H165.547C164.273 33.1538 163.24 34.1864 163.24 35.4601C163.24 36.7339 164.273 37.7664 165.547 37.7664H231.582C232.856 37.7664 233.889 36.7339 233.889 35.4601C233.889 34.1864 232.856 33.1538 231.582 33.1538Z" fill="#1D4FC6"/>
<path d="M152.772 33.1538H127.564C126.29 33.1538 125.257 34.1864 125.257 35.4601C125.257 36.7339 126.29 37.7664 127.564 37.7664H152.772C154.046 37.7664 155.079 36.7339 155.079 35.4601C155.079 34.1864 154.046 33.1538 152.772 33.1538Z" fill="#1D4FC6"/>
<path d="M105.908 45.2173H80.7005C79.4261 45.2173 78.3931 46.2499 78.3931 47.5236C78.3931 48.7973 79.4261 49.8299 80.7005 49.8299H105.908C107.182 49.8299 108.215 48.7973 108.215 47.5236C108.215 46.2499 107.182 45.2173 105.908 45.2173Z" fill="#1D4FC6"/>
<path d="M169.809 45.2173H117.266C115.992 45.2173 114.958 46.2499 114.958 47.5236C114.958 48.7973 115.992 49.8299 117.266 49.8299H169.809C171.083 49.8299 172.116 48.7973 172.116 47.5236C172.116 46.2499 171.083 45.2173 169.809 45.2173Z" fill="#1D4FC6"/>
<path d="M26.2318 33.1538H17.4907C16.227 33.1538 15.2026 34.1777 15.2026 35.4408C15.2026 36.7038 16.227 37.7277 17.4907 37.7277H26.2318C27.4954 37.7277 28.5198 36.7038 28.5198 35.4408C28.5198 34.1777 27.4954 33.1538 26.2318 33.1538Z" fill="#FFD125"/>
<path d="M26.2318 56.0381H17.4907C16.227 56.0381 15.2026 57.062 15.2026 58.3251C15.2026 59.5881 16.227 60.612 17.4907 60.612H26.2318C27.4954 60.612 28.5198 59.5881 28.5198 58.3251C28.5198 57.062 27.4954 56.0381 26.2318 56.0381Z" fill="#FFD125"/>
<path d="M26.2318 66.4382H17.4907C16.227 66.4382 15.2026 67.4621 15.2026 68.7252C15.2026 69.9883 16.227 71.0122 17.4907 71.0122H26.2318C27.4954 71.0122 28.5198 69.9883 28.5198 68.7252C28.5198 67.4621 27.4954 66.4382 26.2318 66.4382Z" fill="#FFD125"/>
<path d="M26.2318 76.8384H17.4907C16.227 76.8384 15.2026 77.8623 15.2026 79.1253C15.2026 80.3884 16.227 81.4123 17.4907 81.4123H26.2318C27.4954 81.4123 28.5198 80.3884 28.5198 79.1253C28.5198 77.8623 27.4954 76.8384 26.2318 76.8384Z" fill="#FFD125"/>
<path d="M26.2318 101.323H17.4907C16.227 101.323 15.2026 102.347 15.2026 103.61C15.2026 104.873 16.227 105.897 17.4907 105.897H26.2318C27.4954 105.897 28.5198 104.873 28.5198 103.61C28.5198 102.347 27.4954 101.323 26.2318 101.323Z" fill="#FFD125"/>
<path d="M26.2318 125.807H17.4907C16.227 125.807 15.2026 126.831 15.2026 128.094C15.2026 129.357 16.227 130.381 17.4907 130.381H26.2318C27.4954 130.381 28.5198 129.357 28.5198 128.094C28.5198 126.831 27.4954 125.807 26.2318 125.807Z" fill="#FFD125"/>
</svg>
