<svg width="128" height="97" viewBox="0 0 128 97" fill="none" xmlns="http://www.w3.org/2000/svg">
<path d="M0.91748 6.53882H126.949V90.7553C126.949 93.3227 124.865 95.4018 122.301 95.4018H5.571C3.00237 95.4018 0.922323 93.3179 0.922323 90.7553V6.53882H0.91748Z" fill="white" stroke="#022791" stroke-width="1.33333" stroke-miterlimit="10"/>
<path d="M5.83225 0.272705H121.672C124.584 0.272705 126.945 2.6322 126.945 5.54288V11.1564H0.55957V5.54288C0.55957 2.6322 2.92017 0.272705 5.83225 0.272705Z" fill="#022791"/>
<path d="M59.3378 23.2197H34.3578C33.3186 23.2197 32.4761 24.0618 32.4761 25.1005C32.4761 26.1393 33.3186 26.9814 34.3578 26.9814H59.3378C60.377 26.9814 61.2195 26.1393 61.2195 25.1005C61.2195 24.0618 60.377 23.2197 59.3378 23.2197Z" fill="#FFD125"/>
<path d="M78.8421 32.4546H43.2538C42.2146 32.4546 41.3721 33.2967 41.3721 34.3354C41.3721 35.3742 42.2146 36.2162 43.2538 36.2162H78.8421C79.8814 36.2162 80.7239 35.3742 80.7239 34.3354C80.7239 33.2967 79.8814 32.4546 78.8421 32.4546Z" fill="#FFD125"/>
<path d="M114.769 32.4546H85.682C84.6428 32.4546 83.8003 33.2967 83.8003 34.3354C83.8003 35.3742 84.6428 36.2162 85.682 36.2162H114.769C115.808 36.2162 116.651 35.3742 116.651 34.3354C116.651 33.2967 115.808 32.4546 114.769 32.4546Z" fill="#FFD125"/>
<path d="M74.0483 41.3462H43.2538C42.2146 41.3462 41.3721 42.1883 41.3721 43.227C41.3721 44.2658 42.2146 45.1078 43.2538 45.1078H74.0483C75.0876 45.1078 75.93 44.2658 75.93 43.227C75.93 42.1883 75.0876 41.3462 74.0483 41.3462Z" fill="#FFD125"/>
<path d="M114.769 41.3462H84.6566C83.6174 41.3462 82.7749 42.1883 82.7749 43.227C82.7749 44.2658 83.6174 45.1078 84.6566 45.1078H114.769C115.808 45.1078 116.651 44.2658 116.651 43.227C116.651 42.1883 115.808 41.3462 114.769 41.3462Z" fill="#FFD125"/>
<path d="M78.842 50.2378H34.3578C33.3186 50.2378 32.4761 51.0799 32.4761 52.1186C32.4761 53.1574 33.3186 53.9994 34.3578 53.9994H78.842C79.8812 53.9994 80.7237 53.1574 80.7237 52.1186C80.7237 51.0799 79.8812 50.2378 78.842 50.2378Z" fill="#FFD125"/>
<path d="M114.769 50.2378H91.8446C90.8054 50.2378 89.9629 51.0799 89.9629 52.1186C89.9629 53.1574 90.8054 53.9994 91.8446 53.9994H114.769C115.808 53.9994 116.651 53.1574 116.651 52.1186C116.651 51.0799 115.808 50.2378 114.769 50.2378Z" fill="#FFD125"/>
<path d="M83.6408 59.1294H49.7553C48.716 59.1294 47.8735 59.9715 47.8735 61.0102C47.8735 62.049 48.716 62.891 49.7553 62.891H83.6408C84.68 62.891 85.5225 62.049 85.5225 61.0102C85.5225 59.9715 84.68 59.1294 83.6408 59.1294Z" fill="#FFD125"/>
<path d="M114.769 59.1294H103.478C102.439 59.1294 101.597 59.9715 101.597 61.0102C101.597 62.049 102.439 62.891 103.478 62.891H114.769C115.808 62.891 116.651 62.049 116.651 61.0102C116.651 59.9715 115.808 59.1294 114.769 59.1294Z" fill="#FFD125"/>
<path d="M85.8076 68.021H54.5438C53.5046 68.021 52.6621 68.8631 52.6621 69.9018C52.6621 70.9406 53.5046 71.7826 54.5438 71.7826H85.8076C86.8468 71.7826 87.6892 70.9406 87.6892 69.9018C87.6892 68.8631 86.8468 68.021 85.8076 68.021Z" fill="#FFD125"/>
<path d="M114.769 68.021H104.523C103.484 68.021 102.642 68.8631 102.642 69.9018C102.642 70.9406 103.484 71.7826 104.523 71.7826H114.769C115.808 71.7826 116.651 70.9406 116.651 69.9018C116.651 68.8631 115.808 68.021 114.769 68.021Z" fill="#FFD125"/>
<path d="M92.8703 23.2197H75.0785C74.0393 23.2197 73.1968 24.0618 73.1968 25.1005C73.1968 26.1393 74.0393 26.9814 75.0785 26.9814H92.8703C93.9095 26.9814 94.752 26.1393 94.752 25.1005C94.752 24.0618 93.9095 23.2197 92.8703 23.2197Z" fill="#FFD125"/>
<path d="M59.3378 76.9126H34.3578C33.3186 76.9126 32.4761 77.7547 32.4761 78.7934C32.4761 79.8322 33.3186 80.6742 34.3578 80.6742H59.3378C60.377 80.6742 61.2195 79.8322 61.2195 78.7934C61.2195 77.7547 60.377 76.9126 59.3378 76.9126Z" fill="#FFD125"/>
<path d="M92.8703 76.9126H75.0785C74.0393 76.9126 73.1968 77.7547 73.1968 78.7934C73.1968 79.8322 74.0393 80.6742 75.0785 80.6742H92.8703C93.9095 80.6742 94.752 79.8322 94.752 78.7934C94.752 77.7547 93.9095 76.9126 92.8703 76.9126Z" fill="#FFD125"/>
<path d="M21.7033 23.2197H14.515C13.4758 23.2197 12.6333 24.0618 12.6333 25.1005C12.6333 26.1393 13.4758 26.9814 14.515 26.9814H21.7033C22.7426 26.9814 23.585 26.1393 23.585 25.1005C23.585 24.0618 22.7426 23.2197 21.7033 23.2197Z" fill="#4D75FE"/>
<path d="M21.7033 42.0281H14.515C13.4758 42.0281 12.6333 42.8701 12.6333 43.9089C12.6333 44.9476 13.4758 45.7897 14.515 45.7897H21.7033C22.7426 45.7897 23.585 44.9476 23.585 43.9089C23.585 42.8701 22.7426 42.0281 21.7033 42.0281Z" fill="#4D75FE"/>
<path d="M21.7033 50.5811H14.515C13.4758 50.5811 12.6333 51.4231 12.6333 52.4619C12.6333 53.5006 13.4758 54.3427 14.515 54.3427H21.7033C22.7426 54.3427 23.585 53.5006 23.585 52.4619C23.585 51.4231 22.7426 50.5811 21.7033 50.5811Z" fill="#4D75FE"/>
<path d="M21.7033 59.1294H14.515C13.4758 59.1294 12.6333 59.9715 12.6333 61.0102C12.6333 62.049 13.4758 62.891 14.515 62.891H21.7033C22.7426 62.891 23.585 62.049 23.585 61.0102C23.585 59.9715 22.7426 59.1294 21.7033 59.1294Z" fill="#4D75FE"/>
</svg>
