<svg width="139" height="104" viewBox="0 0 139 104" fill="none" xmlns="http://www.w3.org/2000/svg">
<path d="M0.952148 5.6084H137.631V95.0419C137.631 99.1468 134.298 102.478 130.191 102.478H8.39198C4.28508 102.478 0.952148 99.1468 0.952148 95.0419V5.6084Z" fill="white" stroke="#022791" stroke-width="1.33333" stroke-miterlimit="10"/>
<path d="M6.32164 0.773438H132.267C135.227 0.773438 137.636 3.17643 137.636 6.14031V11.6426H0.957031V6.14031C0.957031 3.18127 3.36118 0.773438 6.32646 0.773438H6.32164Z" fill="#022791"/>
<path d="M8.32412 8.62558C9.3046 8.62558 10.0994 7.83114 10.0994 6.85114C10.0994 5.87113 9.3046 5.07666 8.32412 5.07666C7.34365 5.07666 6.54883 5.87113 6.54883 6.85114C6.54883 7.83114 7.34365 8.62558 8.32412 8.62558Z" fill="#96D5ED"/>
<path d="M23.5424 8.62558C24.5229 8.62558 25.3177 7.83114 25.3177 6.85114C25.3177 5.87113 24.5229 5.07666 23.5424 5.07666C22.5619 5.07666 21.7671 5.87113 21.7671 6.85114C21.7671 7.83114 22.5619 8.62558 23.5424 8.62558Z" fill="#96D5ED"/>
<path d="M17.3864 7.24104C17.6117 6.28725 17.0207 5.33156 16.0664 5.10644C15.1122 4.88132 14.156 5.47202 13.9308 6.42582C13.7055 7.37962 14.2965 8.33533 15.2508 8.56045C16.2051 8.78556 17.1612 8.19484 17.3864 7.24104Z" fill="#96D5ED"/>
<path d="M11.9956 35.4165L15.8268 25.4612H16.7604L12.9147 35.4165H11.9956Z" fill="#4D75FE"/>
<path d="M16.707 35.4165L20.5382 25.4612H21.4718L17.6261 35.4165H16.707Z" fill="#4D75FE"/>
<path d="M25.24 30.707V31.6015H21.8442V30.707H25.24Z" fill="#4D75FE"/>
<path d="M26.5562 30.8426L32.9318 27.5596V28.5072L27.5575 31.2004V31.2294L32.9318 33.9225V34.8701L26.5562 31.5872V30.8474V30.8426Z" fill="#4D75FE"/>
<path d="M37.6482 30.707V31.6015H34.2524V30.707H37.6482Z" fill="#4D75FE"/>
<path d="M45.3395 31.6017L38.9639 34.8701V33.9225L44.3768 31.2294V31.2004L38.9639 28.5072V27.5596L45.3395 30.8281V31.5968V31.6017Z" fill="#4D75FE"/>
<path d="M52.9681 30.707V31.6015H49.5723V30.707H52.9681Z" fill="#4D75FE"/>
<path d="M57.1426 35.4165L53.4033 25.4612H54.3369L58.0762 35.4165H57.1426Z" fill="#4D75FE"/>
<path d="M61.8301 35.4165L58.0908 25.4612H59.0244L62.7637 35.4165H61.8301Z" fill="#4D75FE"/>
<path d="M69.4681 30.707V31.6015H66.0723V30.707H69.4681Z" fill="#4D75FE"/>
<path d="M73.6863 30.707V31.6015H70.2905V30.707H73.6863Z" fill="#4D75FE"/>
<path d="M80.6373 25.3354C79.6359 26.6796 78.9055 28.4685 78.9055 30.9537C78.9055 33.439 79.6601 35.1554 80.6373 36.5286H79.6891C78.8233 35.3875 77.8896 33.6324 77.8896 30.9537C77.9042 28.2461 78.8233 26.491 79.6891 25.3354H80.6373Z" fill="#4D75FE"/>
<path d="M84.72 30.707V31.6015H81.3242V30.707H84.72Z" fill="#4D75FE"/>
<path d="M85.1167 35.4165L88.9479 25.4612H89.8815L86.0358 35.4165H85.1167Z" fill="#4D75FE"/>
<path d="M89.833 35.4165L93.6642 25.4612H94.5978L90.7521 35.4165H89.833Z" fill="#4D75FE"/>
<path d="M98.3616 30.707V31.6015H94.9658V30.707H98.3616Z" fill="#4D75FE"/>
<path d="M99.0483 36.5286C100.025 35.1699 100.78 33.3858 100.78 30.9102C100.78 28.4347 100.04 26.6941 99.0483 25.3354H99.9819C100.862 26.462 101.781 28.2171 101.781 30.9247C101.781 33.6324 100.862 35.3585 99.9819 36.5286H99.0483Z" fill="#4D75FE"/>
<path d="M106.498 30.8426L112.874 27.5596V28.5072L107.499 31.2004V31.2294L112.874 33.9225V34.8701L106.498 31.5872V30.8474V30.8426Z" fill="#4D75FE"/>
<path d="M117.585 30.707V31.6015H114.189V30.707H117.585Z" fill="#4D75FE"/>
<path d="M125.281 31.6017L118.906 34.8701V33.9225L124.319 31.2294V31.2004L118.906 28.5072V27.5596L125.281 30.8281V31.5968V31.6017Z" fill="#4D75FE"/>
<path d="M15.6334 47.9683C14.632 49.3124 13.9016 51.1014 13.9016 53.5866C13.9016 56.0718 14.6562 57.7882 15.6334 59.1614H14.6852C13.8193 58.0203 12.8857 56.2652 12.8857 53.5866C12.9003 50.8789 13.8193 49.1238 14.6852 47.9683H15.6334Z" fill="#4D75FE"/>
<path d="M19.7161 53.3352V54.2297H16.3203V53.3352H19.7161Z" fill="#4D75FE"/>
<path d="M23.9344 53.3352V54.2297H20.5386V53.3352H23.9344Z" fill="#4D75FE"/>
<path d="M24.6211 59.1614C25.5982 57.8027 26.3529 56.0186 26.3529 53.5431C26.3529 51.0675 25.6127 49.3269 24.6211 47.9683H25.5547C26.4351 49.0948 27.3542 50.8499 27.3542 53.5576C27.3542 56.2652 26.4351 57.9913 25.5547 59.1614H24.6211Z" fill="#4D75FE"/>
<path d="M34.9681 53.3352V54.2297H31.5723V53.3352H34.9681Z" fill="#4D75FE"/>
<path d="M39.1426 58.0493L35.4033 48.094H36.3369L40.0762 58.0493H39.1426Z" fill="#4D75FE"/>
<path d="M43.8301 58.0493L40.0908 48.094H41.0244L44.7637 58.0493H43.8301Z" fill="#4D75FE"/>
<path d="M54.1194 53.5962V54.4182H48.0728V53.5962H54.1194Z" fill="#4D75FE"/>
<path d="M58.3521 53.4754L64.7277 50.1924V51.1401L59.3534 53.8332V53.8622L64.7277 56.5553V57.5029L58.3521 54.22V53.4802V53.4754Z" fill="#4D75FE"/>
<path d="M69.4393 53.3352V54.2297H66.0435V53.3352H69.4393Z" fill="#4D75FE"/>
<path d="M69.8403 58.0493L73.6715 48.094H74.6051L70.7594 58.0493H69.8403Z" fill="#4D75FE"/>
<path d="M74.5522 58.0493L78.3834 48.094H79.317L75.4713 58.0493H74.5522Z" fill="#4D75FE"/>
<path d="M83.0853 53.3352V54.2297H79.6895V53.3352H83.0853Z" fill="#4D75FE"/>
<path d="M90.7814 54.2296L84.4058 57.4981V56.5504L89.8187 53.8573V53.8283L84.4058 51.1351V50.1875L90.7814 53.456V54.2247V54.2296Z" fill="#4D75FE"/>
<path d="M98.4051 53.3352V54.2297H95.0093V53.3352H98.4051Z" fill="#4D75FE"/>
<path d="M101.719 58.0493L105.55 48.094H106.484L102.638 58.0493H101.719Z" fill="#4D75FE"/>
<path d="M107.349 53.4754L113.725 50.1924V51.1401L108.35 53.8332V53.8622L113.725 56.5553V57.5029L107.349 54.22V53.4802V53.4754Z" fill="#4D75FE"/>
<path d="M118.436 53.3352V54.2297H115.041V53.3352H118.436Z" fill="#4D75FE"/>
<path d="M122.655 53.3352V54.2297H119.259V53.3352H122.655Z" fill="#4D75FE"/>
<path d="M11.9956 80.6773L15.8268 70.7219H16.7604L12.9147 80.6773H11.9956Z" fill="#4D75FE"/>
<path d="M20.3497 70.5962C19.3483 71.9403 18.6179 73.7293 18.6179 76.2145C18.6179 78.6997 19.3725 80.4161 20.3497 81.7893H19.4015C18.5357 80.6482 17.6021 78.8931 17.6021 76.2145C17.6166 73.5069 18.5357 71.7518 19.4015 70.5962H20.3497Z" fill="#4D75FE"/>
<path d="M27.0784 76.229V77.051H21.0317V76.229H27.0784Z" fill="#4D75FE"/>
<path d="M27.7651 81.7893C28.7423 80.4307 29.4969 78.6465 29.4969 76.171C29.4969 73.6955 28.7568 71.9548 27.7651 70.5962H28.6987C29.5791 71.7228 30.4982 73.4779 30.4982 76.1855C30.4982 78.8931 29.5791 80.6192 28.6987 81.7893H27.7651Z" fill="#4D75FE"/>
<path d="M38.1126 75.9678V76.8623H34.7168V75.9678H38.1126Z" fill="#4D75FE"/>
<path d="M42.292 80.6773L38.5527 70.7219H39.4864L43.2256 80.6773H42.292Z" fill="#4D75FE"/>
<path d="M46.9746 80.6773L43.2354 70.7219H44.169L47.9082 80.6773H46.9746Z" fill="#4D75FE"/>
<path d="M54.6175 75.9678V76.8623H51.2217V75.9678H54.6175Z" fill="#4D75FE"/>
<path d="M58.8358 75.9678V76.8623H55.4399V75.9678H58.8358Z" fill="#4D75FE"/>
<path d="M65.7867 70.5962C64.7853 71.9403 64.0549 73.7293 64.0549 76.2145C64.0549 78.6997 64.8095 80.4161 65.7867 81.7893H64.8386C63.9727 80.6482 63.0391 78.8931 63.0391 76.2145C63.0536 73.5069 63.9727 71.7518 64.8386 70.5962H65.7867Z" fill="#4D75FE"/>
<path d="M69.8646 75.9678V76.8623H66.4688V75.9678H69.8646Z" fill="#4D75FE"/>
<path d="M70.2661 80.6773L74.0973 70.7219H75.0309L71.1852 80.6773H70.2661Z" fill="#4D75FE"/>
<path d="M74.9775 80.6773L78.8087 70.7219H79.7423L75.8966 80.6773H74.9775Z" fill="#4D75FE"/>
<path d="M83.511 75.9678V76.8623H80.1152V75.9678H83.511Z" fill="#4D75FE"/>
<path d="M84.1978 81.7893C85.1749 80.4307 85.9295 78.6465 85.9295 76.171C85.9295 73.6955 85.1894 71.9548 84.1978 70.5962H85.1314C86.0118 71.7228 86.9308 73.4779 86.9308 76.1855C86.9308 78.8931 86.0118 80.6192 85.1314 81.7893H84.1978Z" fill="#4D75FE"/>
<path d="M97.1956 76.229V77.051H91.1489V76.229H97.1956Z" fill="#4D75FE"/>
<path d="M101.428 76.1033L107.804 72.8203V73.768L102.43 76.4611V76.4901L107.804 79.1832V80.1309L101.428 76.8479V76.1081V76.1033Z" fill="#4D75FE"/>
<path d="M115.166 76.229V77.051H109.12V76.229H115.166Z" fill="#4D75FE"/>
<path d="M122.862 76.8575L116.487 80.126V79.1783L121.9 76.4852V76.4562L116.487 73.7631V72.8154L122.862 76.0839V76.8527V76.8575Z" fill="#4D75FE"/>
<path d="M123.757 80.6773L127.588 70.7219H128.522L124.676 80.6773H123.757Z" fill="#4D75FE"/>
</svg>
