<svg width="78" height="79" viewBox="0 0 78 79" fill="none" xmlns="http://www.w3.org/2000/svg">
<path d="M77.3335 39.2571C77.3335 17.718 60.0965 0.25708 38.8335 0.25708C17.5705 0.25708 0.333496 17.718 0.333496 39.2571C0.333496 60.7962 17.5705 78.2571 38.8335 78.2571C60.0965 78.2571 77.3335 60.7962 77.3335 39.2571Z" fill="#FFD125"/>
<path d="M64.3335 45.7993C64.1286 47.5361 64.0433 49.4594 63.6591 51.3318C62.6946 56.0848 57.5132 57.8131 53.7744 54.6614C51.7257 52.9415 49.7283 51.1623 47.7479 49.3662C46.3736 48.1123 44.8542 47.4684 42.9421 47.5192C39.468 47.6124 35.9938 47.6039 32.5196 47.5192C30.6929 47.4768 29.2247 48.0784 27.9102 49.273C26.0749 50.9336 24.1884 52.5433 22.3532 54.2124C20.3899 56 18.1535 56.7287 15.5926 55.856C12.9891 54.9749 12.0246 52.8144 11.6575 50.3236C10.9746 45.6468 11.4185 41.0378 12.5453 36.4712C13.2367 33.6753 14.261 31.0235 15.8146 28.5834C19.6985 22.4664 26.2029 20.6194 32.7842 23.7711C33.4244 24.0761 34.0817 24.3642 34.6707 24.7454C36.7364 26.118 38.7253 26.0417 40.8679 24.7793C42.3446 23.9152 43.975 23.1781 45.631 22.7629C50.9319 21.4243 55.3877 22.9069 58.768 27.2109C61.6105 30.8371 62.8994 35.0987 63.625 39.5467C63.9494 41.5546 64.0859 43.588 64.325 45.7993H64.3335ZM24.6067 32.5231C23.7275 32.5231 23.0275 32.557 22.3276 32.5231C21.2862 32.4638 20.9191 32.9721 20.9191 33.9295C20.9191 36.9287 20.8508 36.8101 23.5056 36.7C24.4445 36.6661 24.6409 37.0643 24.6067 37.8861C24.4957 40.5718 24.6921 40.4193 27.2358 40.4024C27.3553 40.4024 27.4748 40.4024 27.5943 40.4024C28.4223 40.4193 28.8491 40.0381 28.832 39.1993C28.832 38.8096 28.8747 38.4114 28.832 38.0301C28.7125 37.0134 29.0881 36.6661 30.1466 36.7C32.5367 36.7677 32.5367 36.7084 32.5282 34.3108C32.5282 34.1921 32.5282 34.0735 32.5282 33.9549C32.5879 32.8959 32.0843 32.5061 31.0258 32.5146C28.8833 32.5231 28.9089 32.4892 28.815 30.3542C28.7979 29.9051 28.5418 29.1172 28.3113 29.0833C27.2785 28.9393 26.2029 28.9562 25.1615 29.0664C24.9481 29.0918 24.675 29.7187 24.6323 30.0915C24.547 30.8201 24.6067 31.5572 24.6067 32.5316V32.5231ZM57.0608 34.997C57.0608 33.4127 55.806 32.1588 54.2183 32.1588C52.6306 32.1588 51.3843 33.4296 51.4014 35.014C51.4184 36.5559 52.6306 37.759 54.1756 37.7844C55.7718 37.8099 57.0437 36.5644 57.0522 34.9886L57.0608 34.997ZM49.4295 38.9875C49.4295 37.4117 48.1577 36.1493 46.57 36.1662C45.0249 36.1832 43.7958 37.3947 43.7616 38.9282C43.736 40.5041 44.9908 41.8003 46.5614 41.8173C48.1321 41.8342 49.421 40.5634 49.4295 38.9875ZM49.4295 31.0065C49.4295 29.4307 48.1406 28.1513 46.5785 28.1683C44.9993 28.1852 43.7445 29.473 43.7701 31.0489C43.7872 32.557 45.042 33.8109 46.5614 33.8448C48.1065 33.8702 49.4381 32.5655 49.4381 31.015L49.4295 31.0065Z" fill="white"/>
</svg>
