<svg width="222" height="87" viewBox="0 0 222 87" fill="none" xmlns="http://www.w3.org/2000/svg">
<path d="M42.788 0.710205H6.2468C3.13173 0.710205 0.606445 3.23428 0.606445 6.34786V80.9572C0.606445 84.0708 3.13173 86.5948 6.2468 86.5948H42.788C45.9031 86.5948 48.4284 84.0708 48.4284 80.9572V6.34786C48.4284 3.23428 45.9031 0.710205 42.788 0.710205Z" fill="white"/>
<path d="M42.788 1.0197C45.7291 1.0197 48.1188 3.40822 48.1188 6.34791V80.9572C48.1188 83.8969 45.7291 86.2854 42.788 86.2854H6.24675C3.30565 86.2854 0.915998 83.8969 0.915998 80.9572V6.34791C0.915998 3.40822 3.30565 1.0197 6.24675 1.0197H42.788ZM42.788 0.395996H6.24675C2.95736 0.395996 0.291992 3.0601 0.291992 6.34791V80.9572C0.291992 84.2451 2.95736 86.9091 6.24675 86.9091H42.788C46.0774 86.9091 48.7428 84.2451 48.7428 80.9572V6.34791C48.7428 3.0601 46.0774 0.395996 42.788 0.395996Z" fill="#022791"/>
<path d="M48.7428 13.6826H0.296875V2.72648C0.296875 1.44037 1.34174 0.395996 2.62848 0.395996H46.4112C47.698 0.395996 48.7428 1.44037 48.7428 2.72648V13.6826Z" fill="#022791"/>
<path d="M0.291992 78.2476H48.7379V85.0262C48.7379 86.0658 47.8962 86.9071 46.8562 86.9071H2.17369C1.13367 86.9071 0.291992 86.0658 0.291992 85.0262V78.2476Z" fill="#022791"/>
<path d="M38.3328 23.9038H10.7019C8.94137 23.9038 7.51416 25.3303 7.51416 27.0901V27.5929C7.51416 29.3527 8.94137 30.7792 10.7019 30.7792H38.3328C40.0934 30.7792 41.5206 29.3527 41.5206 27.5929V27.0901C41.5206 25.3303 40.0934 23.9038 38.3328 23.9038Z" fill="#96D5ED"/>
<path d="M38.3328 63.1882H10.7019C9.14173 63.1882 7.87695 64.4524 7.87695 66.0119V66.5147C7.87695 68.0742 9.14173 69.3384 10.7019 69.3384H38.3328C39.893 69.3384 41.1578 68.0742 41.1578 66.5147V66.0119C41.1578 64.4524 39.893 63.1882 38.3328 63.1882Z" fill="white"/>
<path d="M38.3328 63.5509C39.6921 63.5509 40.795 64.6533 40.795 66.012V66.5148C40.795 67.8735 39.6921 68.9758 38.3328 68.9758H10.7019C9.34266 68.9758 8.23976 67.8735 8.23976 66.5148V66.012C8.23976 64.6533 9.34266 63.5509 10.7019 63.5509H38.3328ZM38.3328 62.8257H10.7019C8.94116 62.8257 7.51416 64.252 7.51416 66.012V66.5148C7.51416 68.2748 8.94116 69.7011 10.7019 69.7011H38.3328C40.0936 69.7011 41.5206 68.2748 41.5206 66.5148V66.012C41.5206 64.252 40.0936 62.8257 38.3328 62.8257Z" fill="#022791"/>
<path d="M39.31 36.2593H9.72483C8.50391 36.2593 7.51416 37.2486 7.51416 38.4689V55.1352C7.51416 56.3556 8.50391 57.3448 9.72483 57.3448H39.31C40.5309 57.3448 41.5206 56.3556 41.5206 55.1352V38.4689C41.5206 37.2486 40.5309 36.2593 39.31 36.2593Z" fill="#FFD125"/>
<path d="M178.959 0.710205H215.5C218.616 0.710205 221.141 3.23894 221.141 6.34786V80.9572C221.141 84.0709 218.611 86.5948 215.5 86.5948H178.959C175.844 86.5948 173.319 84.0661 173.319 80.9572V6.34786C173.319 3.23411 175.849 0.710205 178.959 0.710205Z" fill="white"/>
<path d="M215.5 1.0197C218.442 1.0197 220.831 3.40822 220.831 6.34791V80.9572C220.831 83.8969 218.442 86.2854 215.5 86.2854H178.959C176.018 86.2854 173.628 83.8969 173.628 80.9572V6.34791C173.628 3.40822 176.018 1.0197 178.959 1.0197H215.5ZM215.5 0.395996H178.959C175.67 0.395996 173.004 3.0601 173.004 6.34791V80.9572C173.004 84.2451 175.67 86.9091 178.959 86.9091H215.5C218.79 86.9091 221.455 84.2451 221.455 80.9572V6.34791C221.455 3.0601 218.79 0.395996 215.5 0.395996Z" fill="#022791"/>
<path d="M221.455 13.6826H173.009V2.72648C173.009 1.44037 174.054 0.395996 175.341 0.395996H219.124C220.41 0.395996 221.455 1.44037 221.455 2.72648V13.6826Z" fill="#022791"/>
<path d="M173.009 78.2476H221.455V85.0262C221.455 86.0658 220.614 86.9071 219.573 86.9071H174.891C173.851 86.9071 173.009 86.0658 173.009 85.0262V78.2476Z" fill="#022791"/>
<path d="M184.837 32.7567C182.495 32.7567 180.589 30.8516 180.589 28.5115C180.589 26.1713 182.495 24.2664 184.837 24.2664H209.623C211.964 24.2664 213.87 26.1713 213.87 28.5115C213.87 30.8516 211.964 32.7567 209.623 32.7567H184.837Z" fill="white"/>
<path d="M209.623 24.6291C211.766 24.6291 213.507 26.3697 213.507 28.5116C213.507 30.6535 211.766 32.3941 209.623 32.3941H184.837C182.694 32.3941 180.952 30.6535 180.952 28.5116C180.952 26.3697 182.694 24.6291 184.837 24.6291H209.623ZM209.623 23.9038H184.837C182.292 23.9038 180.227 25.9684 180.227 28.5116C180.227 31.0548 182.292 33.1194 184.837 33.1194H209.623C212.168 33.1194 214.233 31.0548 214.233 28.5116C214.233 25.9684 212.168 23.9038 209.623 23.9038Z" fill="#022791"/>
<path d="M211.374 62.8257H202.624C201.448 62.8257 200.495 63.7781 200.495 64.9531V66.3359C200.495 67.5109 201.448 68.4633 202.624 68.4633H211.374C212.55 68.4633 213.503 67.5109 213.503 66.3359V64.9531C213.503 63.7781 212.55 62.8257 211.374 62.8257Z" fill="#96D5ED"/>
<path d="M212.032 39.9077H201.966C201.153 39.9077 200.495 40.5658 200.495 41.3776V58.3678C200.495 59.1796 201.153 59.8377 201.966 59.8377H212.032C212.844 59.8377 213.503 59.1796 213.503 58.3678V41.3776C213.503 40.5658 212.844 39.9077 212.032 39.9077Z" fill="#4D75FE"/>
<path d="M180.594 37.9624C189.553 37.9624 196.814 44.891 196.814 53.4345C196.814 61.978 189.553 68.9066 180.594 68.9066" fill="#FFD125"/>
<path d="M48.7427 39.9077H173.009" stroke="#022791" stroke-width="1.85333" stroke-miterlimit="10"/>
</svg>
