<svg width="307" height="230" viewBox="0 0 307 230" fill="none" xmlns="http://www.w3.org/2000/svg">
<path d="M306.044 15.0562H0V229.736H306.044V15.0562Z" fill="#4D75FE"/>
<path d="M6.73836 0H299.33C303.035 0 306.044 3.00739 306.044 6.71102V15.0563H0.0192871V6.71102C0.0192871 3.00739 3.02811 0 6.73351 0H6.73836Z" fill="#022791"/>
<path d="M12.9438 10.7107C14.3013 10.1487 14.9459 8.5931 14.3836 7.23622C13.8213 5.87935 12.265 5.235 10.9075 5.79704C9.54995 6.35908 8.9053 7.91466 9.46761 9.27154C10.0299 10.6284 11.5862 11.2728 12.9438 10.7107Z" fill="#96D5ED"/>
<path d="M25.5109 8.85915C25.8484 7.42975 24.9627 5.99751 23.5326 5.66014C22.1026 5.32277 20.6696 6.20803 20.3321 7.63743C19.9946 9.06683 20.8803 10.4991 22.3103 10.8364C23.7404 11.1738 25.1734 10.2885 25.5109 8.85915Z" fill="#96D5ED"/>
<path d="M37.1029 8.85476C37.4405 7.42536 36.5548 5.99311 35.1247 5.65574C33.6946 5.31837 32.2617 6.20364 31.9241 7.63304C31.5866 9.06244 32.4723 10.4947 33.9024 10.8321C35.3325 11.1694 36.7654 10.2842 37.1029 8.85476Z" fill="#96D5ED"/>
<path d="M250.526 148.754V131.068C250.526 130.275 249.882 129.637 249.089 129.637H225.091C226.682 125.039 227.713 120.175 228.095 115.141H237.223C237.871 117.743 240.222 119.677 243.018 119.677C246.312 119.677 248.992 116.998 248.992 113.705C248.992 110.413 246.312 107.729 243.018 107.729C240.217 107.729 237.866 109.668 237.223 112.269H228.245C228.259 111.747 228.269 111.225 228.269 110.698C228.269 106.395 227.795 102.193 226.9 98.151H238.481C239.274 98.151 239.917 97.508 239.917 96.715V81.8086C242.52 81.1656 244.46 78.8157 244.46 76.0163C244.46 72.7236 241.775 70.045 238.481 70.045C235.186 70.045 232.502 72.7236 232.502 76.0163C232.502 78.8157 234.442 81.1656 237.044 81.8086V95.279H226.189C221.071 76.7222 206.961 61.8593 188.859 55.6898V36.3304H205.118C205.766 38.9316 208.117 40.8704 210.913 40.8704C214.212 40.8704 216.892 38.1918 216.892 34.8944C216.892 31.5969 214.207 28.9231 210.913 28.9231C208.117 28.9231 205.766 30.8571 205.118 33.4584H187.423C186.629 33.4584 185.986 34.1014 185.986 34.8944V54.7953C181.357 53.485 176.495 52.7356 171.479 52.6196V46.7547C174.081 46.1116 176.021 43.7618 176.021 40.9623C176.021 37.6697 173.336 34.9911 170.042 34.9911C166.748 34.9911 164.063 37.6697 164.063 40.9623C164.063 43.7618 166.003 46.1116 168.605 46.7547V52.6244C163.724 52.7501 158.994 53.485 154.485 54.747V45.5024C154.485 44.7095 153.842 44.0664 153.048 44.0664H138.14C137.496 41.4652 135.145 39.5263 132.345 39.5263C129.05 39.5263 126.366 42.2049 126.366 45.5024C126.366 48.7999 129.046 51.4785 132.345 51.4785C135.145 51.4785 137.496 49.5397 138.14 46.9384H151.612V55.6318C133.477 61.7433 119.323 76.5723 114.156 95.105H92.6398V78.8544C95.2423 78.2114 97.182 75.8616 97.182 73.0621C97.182 69.7694 94.5022 67.0908 91.2031 67.0908C87.904 67.0908 85.229 69.7694 85.229 73.0621C85.229 75.8616 87.1688 78.2065 89.7713 78.8544V96.5361C89.7713 97.3291 90.4146 97.9721 91.2079 97.9721H113.44C112.521 102.067 112.033 106.322 112.033 110.693C112.033 111.288 112.042 111.878 112.062 112.468H103.074C102.426 109.866 100.08 107.932 97.2788 107.932C93.9846 107.932 91.3047 110.611 91.3047 113.904C91.3047 117.196 93.9846 119.88 97.2788 119.88C100.08 119.88 102.431 117.946 103.074 115.34H112.217C112.608 120.237 113.61 124.966 115.143 129.448H101.821C101.028 129.448 100.384 130.091 100.384 130.884V145.791C97.7819 146.434 95.8421 148.783 95.8421 151.583C95.8421 154.876 98.522 157.559 101.821 157.559C105.12 157.559 107.795 154.876 107.795 151.583C107.795 148.783 105.855 146.434 103.253 145.791V132.32H116.212C122.506 147.947 135.407 160.228 151.442 165.696V191.269H135.184C134.541 188.663 132.19 186.729 129.389 186.729C126.095 186.729 123.415 189.412 123.415 192.705C123.415 195.997 126.095 198.681 129.389 198.681C132.185 198.681 134.536 196.747 135.184 194.146H152.874C153.668 194.146 154.311 193.498 154.311 192.705V166.596C158.936 167.906 163.797 168.66 168.813 168.771V180.849C166.211 181.492 164.271 183.847 164.271 186.642C164.271 189.934 166.951 192.613 170.25 192.613C173.549 192.613 176.229 189.934 176.229 186.642C176.229 183.842 174.289 181.492 171.687 180.849V168.767C176.563 168.641 181.294 167.906 185.802 166.644V182.102C185.802 182.44 185.928 182.75 186.131 183.001C186.165 183.04 186.189 183.083 186.228 183.117C186.499 183.388 186.861 183.538 187.244 183.538H202.152C202.8 186.139 205.147 188.073 207.947 188.073C211.242 188.073 213.922 185.389 213.922 182.097C213.922 178.804 211.242 176.121 207.947 176.121C205.147 176.121 202.796 178.06 202.152 180.661H188.675V165.75C204.731 160.339 217.666 148.092 224.007 132.494H247.647V148.745C245.04 149.388 243.105 151.738 243.105 154.537C243.105 157.835 245.79 160.513 249.084 160.513C252.378 160.513 255.058 157.83 255.058 154.537C255.058 151.742 253.128 149.397 250.521 148.75L250.526 148.754ZM243.018 110.596C244.731 110.596 246.124 111.989 246.124 113.7C246.124 115.412 244.731 116.805 243.018 116.805C241.306 116.805 239.917 115.417 239.913 113.71C239.913 113.71 239.913 113.705 239.913 113.7V113.691C239.917 111.979 241.306 110.596 243.018 110.596ZM235.37 76.0211C235.37 74.3095 236.763 72.917 238.476 72.917C240.188 72.917 241.581 74.3095 241.581 76.0211C241.581 77.7327 240.188 79.1252 238.476 79.1252C236.763 79.1252 235.37 77.7327 235.37 76.0211ZM132.345 48.6113C130.632 48.6113 129.239 47.2188 129.239 45.5072C129.239 43.7956 130.632 42.3983 132.345 42.3983C134.057 42.3983 135.455 43.7908 135.455 45.5072C135.455 47.2237 134.062 48.6113 132.345 48.6113ZM88.0975 73.0621C88.0975 71.3505 89.4907 69.958 91.2031 69.958C92.9155 69.958 94.3135 71.3505 94.3135 73.0621C94.3135 74.7737 92.9204 76.1662 91.2031 76.1662C89.4858 76.1662 88.0975 74.7737 88.0975 73.0621ZM104.922 151.583C104.922 153.295 103.529 154.687 101.816 154.687C100.104 154.687 98.7107 153.295 98.7107 151.583C98.7107 149.871 100.104 148.474 101.816 148.474C103.529 148.474 104.922 149.866 104.922 151.583ZM129.384 195.804C127.672 195.804 126.279 194.412 126.279 192.7C126.279 190.988 127.672 189.591 129.384 189.591C131.097 189.591 132.49 190.984 132.49 192.7C132.49 194.412 131.097 195.804 129.384 195.804ZM210.903 31.7903C212.615 31.7903 214.009 33.1828 214.009 34.8944C214.009 36.606 212.615 37.9984 210.903 37.9984C209.191 37.9984 207.797 36.606 207.797 34.8944C207.797 33.1828 209.191 31.7903 210.903 31.7903ZM166.936 40.9623C166.936 39.2507 168.33 37.8582 170.047 37.8582C171.764 37.8582 173.152 39.2507 173.152 40.9623C173.152 42.6739 171.759 44.0664 170.047 44.0664C168.33 44.0664 166.936 42.6739 166.936 40.9623ZM97.274 117.012C95.5615 117.012 94.1684 115.62 94.1684 113.904C94.1684 112.187 95.5615 110.799 97.274 110.799C98.9864 110.799 100.384 112.192 100.384 113.904C100.384 115.615 98.9912 117.012 97.274 117.012ZM173.36 186.642C173.36 188.353 171.967 189.746 170.25 189.746C168.533 189.746 167.144 188.353 167.144 186.642C167.144 184.93 168.533 183.542 170.245 183.538H170.26C171.972 183.538 173.36 184.93 173.36 186.642ZM207.947 178.998C209.66 178.998 211.053 180.39 211.053 182.102C211.053 183.813 209.66 185.206 207.947 185.206C206.235 185.206 204.842 183.813 204.842 182.102C204.842 180.39 206.235 178.998 207.947 178.998ZM170.148 165.919C139.683 165.919 114.896 141.144 114.896 110.693C114.896 80.2421 139.683 55.4722 170.148 55.4722C200.614 55.4722 225.396 80.2421 225.396 110.693C225.396 141.144 200.614 165.919 170.148 165.919ZM249.089 157.646C247.377 157.646 245.983 156.254 245.983 154.542C245.983 152.83 247.377 151.443 249.089 151.443C250.801 151.443 252.195 152.835 252.195 154.542C252.195 156.254 250.801 157.646 249.089 157.646Z" fill="white"/>
<path d="M194.688 98.1703H193.663V94.8002C193.663 88.4954 191.22 82.5918 186.784 78.1677C182.339 73.7244 176.427 71.2778 170.129 71.2778C163.831 71.2778 157.949 73.7244 153.489 78.1677C149.043 82.6111 146.595 88.5195 146.595 94.8002V98.1703H145.584C142.087 98.1703 139.243 101.013 139.243 104.509V119.236C139.243 136.27 153.097 150.132 170.124 150.132C187.152 150.132 201.035 136.27 201.035 119.236V104.509C201.035 101.013 198.186 98.1703 194.683 98.1703H194.688ZM177.482 132.562C177.608 133.05 177.458 133.572 177.105 133.925C175.9 135.129 173.191 135.734 170.482 135.734C167.773 135.734 165.069 135.129 163.86 133.925C163.502 133.567 163.362 133.05 163.483 132.562L165.33 125.222C162.989 123.573 161.572 120.885 161.572 117.96C161.572 113.052 165.567 109.059 170.477 109.059C175.387 109.059 179.402 113.052 179.402 117.96C179.402 120.876 177.995 123.564 175.658 125.217L177.487 132.557L177.482 132.562ZM182.213 98.1703H158.084V94.8002C158.084 88.1472 163.497 82.7417 170.148 82.7417C176.8 82.7417 182.213 88.1521 182.213 94.8002V98.1703ZM190.799 98.1703H185.086V94.8002C185.086 86.571 178.386 79.8745 170.153 79.8745C161.92 79.8745 155.22 86.571 155.22 94.8002V98.1703H149.478V94.8002C149.478 89.2883 151.631 84.1052 155.53 80.1984C159.448 76.2966 164.634 74.145 170.144 74.145C175.653 74.145 180.863 76.2917 184.767 80.1984C188.661 84.0761 190.804 89.2641 190.804 94.8002V98.1703H190.799Z" fill="white"/>
</svg>
