<svg width="507" height="314" viewBox="0 0 507 314" fill="none" xmlns="http://www.w3.org/2000/svg">
<path d="M431.824 253.139H401.344C401.146 253.139 400.991 252.979 400.991 252.786C400.991 252.593 401.151 252.433 401.344 252.433H431.824C432.023 252.433 432.177 252.593 432.177 252.786C432.177 252.979 432.018 253.139 431.824 253.139Z" fill="#231F20"/>
<path d="M431.166 188.044H399.216C399.017 188.044 398.863 187.884 398.863 187.691C398.863 187.497 399.022 187.338 399.216 187.338H430.455V168.177C430.455 167.978 430.615 167.824 430.808 167.824C431.002 167.824 431.161 167.983 431.161 168.177V188.049L431.166 188.044Z" fill="#231F20"/>
<path d="M40.1211 7.23804H290.405V161.529C290.405 164.101 288.315 166.19 285.742 166.19H44.7891C42.2157 166.19 40.1259 164.101 40.1259 161.529V7.23804H40.1211Z" fill="white" stroke="#022791" stroke-width="1.33333" stroke-miterlimit="10"/>
<path d="M44.257 0H286.622C288.905 0 290.758 1.85182 290.758 4.13395V14.7033H40.1211V4.13395C40.1211 1.85182 41.9738 0 44.257 0Z" fill="#435ED8"/>
<path d="M155.68 33.1538H89.6455C88.3712 33.1538 87.3381 34.1864 87.3381 35.4601C87.3381 36.7339 88.3712 37.7664 89.6455 37.7664H155.68C156.954 37.7664 157.987 36.7339 157.987 35.4601C157.987 34.1864 156.954 33.1538 155.68 33.1538Z" fill="#1D4FC6"/>
<path d="M155.68 66.5107H89.6455C88.3712 66.5107 87.3381 67.5433 87.3381 68.8171C87.3381 70.0908 88.3712 71.1234 89.6455 71.1234H155.68C156.954 71.1234 157.987 70.0908 157.987 68.8171C157.987 67.5433 156.954 66.5107 155.68 66.5107Z" fill="#1D4FC6"/>
<path d="M150.001 76.4465H83.9666C82.6922 76.4465 81.6592 77.4791 81.6592 78.7528C81.6592 80.0266 82.6922 81.0591 83.9666 81.0591H150.001C151.275 81.0591 152.308 80.0266 152.308 78.7528C152.308 77.4791 151.275 76.4465 150.001 76.4465Z" fill="#1D4FC6"/>
<path d="M150.001 125.769H83.9666C82.6922 125.769 81.6592 126.801 81.6592 128.075C81.6592 129.349 82.6922 130.381 83.9666 130.381H150.001C151.275 130.381 152.308 129.349 152.308 128.075C152.308 126.801 151.275 125.769 150.001 125.769Z" fill="#1D4FC6"/>
<path d="M157.455 86.3826H91.4209C90.1466 86.3826 89.1135 87.4151 89.1135 88.6889C89.1135 89.9626 90.1466 90.9952 91.4209 90.9952H157.455C158.73 90.9952 159.763 89.9626 159.763 88.6889C159.763 87.4151 158.73 86.3826 157.455 86.3826Z" fill="#1D4FC6"/>
<path d="M270.702 33.1538H204.668C203.393 33.1538 202.36 34.1864 202.36 35.4601C202.36 36.7339 203.393 37.7664 204.668 37.7664H270.702C271.977 37.7664 273.01 36.7339 273.01 35.4601C273.01 34.1864 271.977 33.1538 270.702 33.1538Z" fill="#1D4FC6"/>
<path d="M191.892 33.1538H166.685C165.411 33.1538 164.378 34.1864 164.378 35.4601C164.378 36.7339 165.411 37.7664 166.685 37.7664H191.892C193.167 37.7664 194.2 36.7339 194.2 35.4601C194.2 34.1864 193.167 33.1538 191.892 33.1538Z" fill="#1D4FC6"/>
<path d="M145.028 45.2173H119.821C118.546 45.2173 117.513 46.2499 117.513 47.5236C117.513 48.7973 118.546 49.8299 119.821 49.8299H145.028C146.303 49.8299 147.336 48.7973 147.336 47.5236C147.336 46.2499 146.303 45.2173 145.028 45.2173Z" fill="#1D4FC6"/>
<path d="M208.929 45.2173H156.386C155.112 45.2173 154.079 46.2499 154.079 47.5236C154.079 48.7973 155.112 49.8299 156.386 49.8299H208.929C210.204 49.8299 211.237 48.7973 211.237 47.5236C211.237 46.2499 210.204 45.2173 208.929 45.2173Z" fill="#1D4FC6"/>
<path d="M65.3526 33.1538H56.6116C55.3479 33.1538 54.3235 34.1777 54.3235 35.4408C54.3235 36.7038 55.3479 37.7277 56.6116 37.7277H65.3526C66.6163 37.7277 67.6407 36.7038 67.6407 35.4408C67.6407 34.1777 66.6163 33.1538 65.3526 33.1538Z" fill="#FFD125"/>
<path d="M65.3526 56.0381H56.6116C55.3479 56.0381 54.3235 57.062 54.3235 58.3251C54.3235 59.5881 55.3479 60.612 56.6116 60.612H65.3526C66.6163 60.612 67.6407 59.5881 67.6407 58.3251C67.6407 57.062 66.6163 56.0381 65.3526 56.0381Z" fill="#FFD125"/>
<path d="M65.3526 66.4382H56.6116C55.3479 66.4382 54.3235 67.4621 54.3235 68.7252C54.3235 69.9883 55.3479 71.0122 56.6116 71.0122H65.3526C66.6163 71.0122 67.6407 69.9883 67.6407 68.7252C67.6407 67.4621 66.6163 66.4382 65.3526 66.4382Z" fill="#FFD125"/>
<path d="M65.3526 76.8384H56.6116C55.3479 76.8384 54.3235 77.8623 54.3235 79.1253C54.3235 80.3884 55.3479 81.4123 56.6116 81.4123H65.3526C66.6163 81.4123 67.6407 80.3884 67.6407 79.1253C67.6407 77.8623 66.6163 76.8384 65.3526 76.8384Z" fill="#FFD125"/>
<path d="M65.3526 101.323H56.6116C55.3479 101.323 54.3235 102.347 54.3235 103.61C54.3235 104.873 55.3479 105.897 56.6116 105.897H65.3526C66.6163 105.897 67.6407 104.873 67.6407 103.61C67.6407 102.347 66.6163 101.323 65.3526 101.323Z" fill="#FFD125"/>
<path d="M65.3526 125.807H56.6116C55.3479 125.807 54.3235 126.831 54.3235 128.094C54.3235 129.357 55.3479 130.381 56.6116 130.381H65.3526C66.6163 130.381 67.6407 129.357 67.6407 128.094C67.6407 126.831 66.6163 125.807 65.3526 125.807Z" fill="#FFD125"/>
<path d="M60.3555 215.545H197.034V304.979C197.034 309.084 193.702 312.415 189.595 312.415H67.7953C63.6884 312.415 60.3555 309.084 60.3555 304.979V215.545Z" fill="white" stroke="#022791" stroke-width="1.33333" stroke-miterlimit="10"/>
<path d="M65.725 210.71H191.67C194.63 210.71 197.039 213.113 197.039 216.077V221.58H60.3604V216.077C60.3604 213.118 62.7645 210.71 65.7298 210.71H65.725Z" fill="#022791"/>
<path d="M67.7277 218.563C68.7082 218.563 69.503 217.768 69.503 216.788C69.503 215.808 68.7082 215.014 67.7277 215.014C66.7472 215.014 65.9524 215.808 65.9524 216.788C65.9524 217.768 66.7472 218.563 67.7277 218.563Z" fill="#96D5ED"/>
<path d="M82.9459 218.563C83.9264 218.563 84.7213 217.768 84.7213 216.788C84.7213 215.808 83.9264 215.014 82.9459 215.014C81.9655 215.014 81.1707 215.808 81.1707 216.788C81.1707 217.768 81.9655 218.563 82.9459 218.563Z" fill="#96D5ED"/>
<path d="M76.79 217.178C77.0152 216.224 76.4242 215.269 75.47 215.043C74.5157 214.818 73.5595 215.409 73.3343 216.363C73.1091 217.317 73.7001 218.272 74.6544 218.497C75.6086 218.723 76.5648 218.132 76.79 217.178Z" fill="#96D5ED"/>
<path d="M71.3992 245.353L75.2303 235.398H76.164L72.3183 245.353H71.3992Z" fill="#4D75FE"/>
<path d="M76.1108 245.353L79.942 235.398H80.8756L77.0299 245.353H76.1108Z" fill="#4D75FE"/>
<path d="M84.6439 240.644V241.539H81.248V240.644H84.6439Z" fill="#4D75FE"/>
<path d="M85.9595 240.78L92.3351 237.497V238.444L86.9608 241.137V241.166L92.3351 243.859V244.807L85.9595 241.524V240.784V240.78Z" fill="#4D75FE"/>
<path d="M97.0516 240.644V241.539H93.6558V240.644H97.0516Z" fill="#4D75FE"/>
<path d="M104.743 241.539L98.3674 244.807V243.859L103.78 241.166V241.137L98.3674 238.444V237.497L104.743 240.765V241.534V241.539Z" fill="#4D75FE"/>
<path d="M112.371 240.644V241.539H108.976V240.644H112.371Z" fill="#4D75FE"/>
<path d="M116.546 245.353L112.807 235.398H113.74L117.48 245.353H116.546Z" fill="#4D75FE"/>
<path d="M121.233 245.353L117.494 235.398H118.428L122.167 245.353H121.233Z" fill="#4D75FE"/>
<path d="M128.872 240.644V241.539H125.476V240.644H128.872Z" fill="#4D75FE"/>
<path d="M133.09 240.644V241.539H129.694V240.644H133.09Z" fill="#4D75FE"/>
<path d="M140.041 235.272C139.04 236.617 138.309 238.406 138.309 240.891C138.309 243.376 139.064 245.092 140.041 246.466H139.093C138.227 245.324 137.293 243.569 137.293 240.891C137.308 238.183 138.227 236.428 139.093 235.272H140.041Z" fill="#4D75FE"/>
<path d="M144.124 240.644V241.539H140.728V240.644H144.124Z" fill="#4D75FE"/>
<path d="M144.52 245.353L148.351 235.398H149.285L145.439 245.353H144.52Z" fill="#4D75FE"/>
<path d="M149.237 245.353L153.068 235.398H154.002L150.156 245.353H149.237Z" fill="#4D75FE"/>
<path d="M157.765 240.644V241.539H154.369V240.644H157.765Z" fill="#4D75FE"/>
<path d="M158.452 246.466C159.429 245.107 160.184 243.323 160.184 240.847C160.184 238.372 159.444 236.631 158.452 235.272H159.386C160.266 236.399 161.185 238.154 161.185 240.862C161.185 243.569 160.266 245.295 159.386 246.466H158.452Z" fill="#4D75FE"/>
<path d="M165.901 240.78L172.277 237.497V238.444L166.903 241.137V241.166L172.277 243.859V244.807L165.901 241.524V240.784V240.78Z" fill="#4D75FE"/>
<path d="M176.989 240.644V241.539H173.593V240.644H176.989Z" fill="#4D75FE"/>
<path d="M184.685 241.539L178.309 244.807V243.859L183.722 241.166V241.137L178.309 238.444V237.497L184.685 240.765V241.534V241.539Z" fill="#4D75FE"/>
<path d="M75.0369 257.905C74.0356 259.249 73.3052 261.038 73.3052 263.524C73.3052 266.009 74.0598 267.725 75.0369 269.098H74.0888C73.2229 267.957 72.2893 266.202 72.2893 263.524C72.3038 260.816 73.2229 259.061 74.0888 257.905H75.0369Z" fill="#4D75FE"/>
<path d="M79.1197 263.272V264.167H75.7239V263.272H79.1197Z" fill="#4D75FE"/>
<path d="M83.3377 263.272V264.167H79.9419V263.272H83.3377Z" fill="#4D75FE"/>
<path d="M84.0247 269.098C85.0018 267.74 85.7564 265.956 85.7564 263.48C85.7564 261.005 85.0163 259.264 84.0247 257.905H84.9583C85.8387 259.032 86.7578 260.787 86.7578 263.495C86.7578 266.202 85.8387 267.928 84.9583 269.098H84.0247Z" fill="#4D75FE"/>
<path d="M94.3717 263.272V264.167H90.9758V263.272H94.3717Z" fill="#4D75FE"/>
<path d="M98.5464 267.986L94.8071 258.031H95.7407L99.48 267.986H98.5464Z" fill="#4D75FE"/>
<path d="M103.234 267.986L99.4946 258.031H100.428L104.167 267.986H103.234Z" fill="#4D75FE"/>
<path d="M113.523 263.533V264.355H107.476V263.533H113.523Z" fill="#4D75FE"/>
<path d="M117.755 263.412L124.131 260.129V261.077L118.757 263.77V263.799L124.131 266.492V267.44L117.755 264.157V263.417V263.412Z" fill="#4D75FE"/>
<path d="M128.843 263.272V264.167H125.447V263.272H128.843Z" fill="#4D75FE"/>
<path d="M129.244 267.986L133.075 258.031H134.009L130.163 267.986H129.244Z" fill="#4D75FE"/>
<path d="M133.956 267.986L137.787 258.031H138.721L134.875 267.986H133.956Z" fill="#4D75FE"/>
<path d="M142.489 263.272V264.167H139.093V263.272H142.489Z" fill="#4D75FE"/>
<path d="M150.185 264.167L143.809 267.435V266.487L149.222 263.794V263.765L143.809 261.072V260.125L150.185 263.393V264.162V264.167Z" fill="#4D75FE"/>
<path d="M157.809 263.272V264.167H154.413V263.272H157.809Z" fill="#4D75FE"/>
<path d="M161.122 267.986L164.953 258.031H165.887L162.041 267.986H161.122Z" fill="#4D75FE"/>
<path d="M166.753 263.412L173.129 260.129V261.077L167.754 263.77V263.799L173.129 266.492V267.44L166.753 264.157V263.417V263.412Z" fill="#4D75FE"/>
<path d="M177.84 263.272V264.167H174.444V263.272H177.84Z" fill="#4D75FE"/>
<path d="M182.058 263.272V264.167H178.662V263.272H182.058Z" fill="#4D75FE"/>
<path d="M71.3992 290.614L75.2303 280.659H76.164L72.3183 290.614H71.3992Z" fill="#4D75FE"/>
<path d="M79.7532 280.533C78.7519 281.877 78.0215 283.666 78.0215 286.152C78.0215 288.637 78.7761 290.353 79.7532 291.726H78.8051C77.9392 290.585 77.0056 288.83 77.0056 286.152C77.0201 283.444 77.9392 281.689 78.8051 280.533H79.7532Z" fill="#4D75FE"/>
<path d="M86.482 286.166V286.988H80.4353V286.166H86.482Z" fill="#4D75FE"/>
<path d="M87.1689 291.726C88.1461 290.368 88.9007 288.584 88.9007 286.108C88.9007 283.632 88.1606 281.892 87.1689 280.533H88.1025C88.9829 281.66 89.902 283.415 89.902 286.122C89.902 288.83 88.9829 290.556 88.1025 291.726H87.1689Z" fill="#4D75FE"/>
<path d="M97.5159 285.905V286.799H94.1201V285.905H97.5159Z" fill="#4D75FE"/>
<path d="M101.695 290.614L97.9561 280.659H98.8897L102.629 290.614H101.695Z" fill="#4D75FE"/>
<path d="M106.378 290.614L102.639 280.659H103.572L107.312 290.614H106.378Z" fill="#4D75FE"/>
<path d="M114.021 285.905V286.799H110.625V285.905H114.021Z" fill="#4D75FE"/>
<path d="M118.239 285.905V286.799H114.843V285.905H118.239Z" fill="#4D75FE"/>
<path d="M125.19 280.533C124.189 281.877 123.459 283.666 123.459 286.152C123.459 288.637 124.213 290.353 125.19 291.726H124.242C123.376 290.585 122.443 288.83 122.443 286.152C122.457 283.444 123.376 281.689 124.242 280.533H125.19Z" fill="#4D75FE"/>
<path d="M129.268 285.905V286.799H125.872V285.905H129.268Z" fill="#4D75FE"/>
<path d="M129.67 290.614L133.501 280.659H134.434L130.589 290.614H129.67Z" fill="#4D75FE"/>
<path d="M134.381 290.614L138.213 280.659H139.146L135.3 290.614H134.381Z" fill="#4D75FE"/>
<path d="M142.914 285.905V286.799H139.519V285.905H142.914Z" fill="#4D75FE"/>
<path d="M143.601 291.726C144.578 290.368 145.333 288.584 145.333 286.108C145.333 283.632 144.593 281.892 143.601 280.533H144.535C145.415 281.66 146.334 283.415 146.334 286.122C146.334 288.83 145.415 290.556 144.535 291.726H143.601Z" fill="#4D75FE"/>
<path d="M156.599 286.166V286.988H150.552V286.166H156.599Z" fill="#4D75FE"/>
<path d="M160.832 286.04L167.207 282.757V283.705L161.833 286.398V286.427L167.207 289.12V290.068L160.832 286.785V286.045V286.04Z" fill="#4D75FE"/>
<path d="M174.57 286.166V286.988H168.523V286.166H174.57Z" fill="#4D75FE"/>
<path d="M182.266 286.795L175.89 290.063V289.115L181.303 286.422V286.393L175.89 283.7V282.752L182.266 286.021V286.79V286.795Z" fill="#4D75FE"/>
<path d="M183.161 290.614L186.992 280.659H187.926L184.08 290.614H183.161Z" fill="#4D75FE"/>
<path d="M376.321 82.4758H502.353V166.692C502.353 169.26 500.268 171.339 497.704 171.339H380.974C378.405 171.339 376.325 169.255 376.325 166.692V82.4758H376.321Z" fill="white" stroke="#022791" stroke-width="1.33333" stroke-miterlimit="10"/>
<path d="M381.235 76.2097H497.075C499.987 76.2097 502.348 78.5692 502.348 81.4799V87.0934H375.963V81.4799C375.963 78.5692 378.323 76.2097 381.235 76.2097Z" fill="#022791"/>
<path d="M434.741 99.1567H409.761C408.722 99.1567 407.879 99.9988 407.879 101.038C407.879 102.076 408.722 102.918 409.761 102.918H434.741C435.78 102.918 436.623 102.076 436.623 101.038C436.623 99.9988 435.78 99.1567 434.741 99.1567Z" fill="#FFD125"/>
<path d="M454.245 108.392H418.657C417.618 108.392 416.775 109.234 416.775 110.272C416.775 111.311 417.618 112.153 418.657 112.153H454.245C455.284 112.153 456.127 111.311 456.127 110.272C456.127 109.234 455.284 108.392 454.245 108.392Z" fill="#FFD125"/>
<path d="M490.172 108.392H461.085C460.046 108.392 459.204 109.234 459.204 110.272C459.204 111.311 460.046 112.153 461.085 112.153H490.172C491.212 112.153 492.054 111.311 492.054 110.272C492.054 109.234 491.212 108.392 490.172 108.392Z" fill="#FFD125"/>
<path d="M449.451 117.283H418.657C417.618 117.283 416.775 118.125 416.775 119.164C416.775 120.203 417.618 121.045 418.657 121.045H449.451C450.491 121.045 451.333 120.203 451.333 119.164C451.333 118.125 450.491 117.283 449.451 117.283Z" fill="#FFD125"/>
<path d="M490.172 117.283H460.06C459.02 117.283 458.178 118.125 458.178 119.164C458.178 120.203 459.02 121.045 460.06 121.045H490.172C491.211 121.045 492.054 120.203 492.054 119.164C492.054 118.125 491.211 117.283 490.172 117.283Z" fill="#FFD125"/>
<path d="M454.245 126.175H409.761C408.722 126.175 407.879 127.017 407.879 128.056C407.879 129.094 408.722 129.936 409.761 129.936H454.245C455.285 129.936 456.127 129.094 456.127 128.056C456.127 127.017 455.285 126.175 454.245 126.175Z" fill="#FFD125"/>
<path d="M490.172 126.175H467.248C466.209 126.175 465.366 127.017 465.366 128.056C465.366 129.094 466.209 129.936 467.248 129.936H490.172C491.212 129.936 492.054 129.094 492.054 128.056C492.054 127.017 491.212 126.175 490.172 126.175Z" fill="#FFD125"/>
<path d="M459.044 135.066H425.158C424.119 135.066 423.277 135.908 423.277 136.947C423.277 137.986 424.119 138.828 425.158 138.828H459.044C460.083 138.828 460.926 137.986 460.926 136.947C460.926 135.908 460.083 135.066 459.044 135.066Z" fill="#FFD125"/>
<path d="M490.172 135.066H478.882C477.842 135.066 477 135.908 477 136.947C477 137.986 477.842 138.828 478.882 138.828H490.172C491.211 138.828 492.054 137.986 492.054 136.947C492.054 135.908 491.211 135.066 490.172 135.066Z" fill="#FFD125"/>
<path d="M461.211 143.958H429.947C428.908 143.958 428.066 144.8 428.066 145.839C428.066 146.878 428.908 147.72 429.947 147.72H461.211C462.25 147.72 463.093 146.878 463.093 145.839C463.093 144.8 462.25 143.958 461.211 143.958Z" fill="#FFD125"/>
<path d="M490.172 143.958H479.927C478.887 143.958 478.045 144.8 478.045 145.839C478.045 146.878 478.887 147.72 479.927 147.72H490.172C491.211 147.72 492.054 146.878 492.054 145.839C492.054 144.8 491.211 143.958 490.172 143.958Z" fill="#FFD125"/>
<path d="M468.274 99.1567H450.482C449.443 99.1567 448.6 99.9988 448.6 101.038C448.6 102.076 449.443 102.918 450.482 102.918H468.274C469.313 102.918 470.155 102.076 470.155 101.038C470.155 99.9988 469.313 99.1567 468.274 99.1567Z" fill="#FFD125"/>
<path d="M434.741 152.85H409.761C408.722 152.85 407.879 153.692 407.879 154.73C407.879 155.769 408.722 156.611 409.761 156.611H434.741C435.78 156.611 436.623 155.769 436.623 154.73C436.623 153.692 435.78 152.85 434.741 152.85Z" fill="#FFD125"/>
<path d="M468.274 152.85H450.482C449.443 152.85 448.6 153.692 448.6 154.73C448.6 155.769 449.443 156.611 450.482 156.611H468.274C469.313 156.611 470.155 155.769 470.155 154.73C470.155 153.692 469.313 152.85 468.274 152.85Z" fill="#FFD125"/>
<path d="M397.107 99.1567H389.918C388.879 99.1567 388.037 99.9988 388.037 101.038C388.037 102.076 388.879 102.918 389.918 102.918H397.107C398.146 102.918 398.988 102.076 398.988 101.038C398.988 99.9988 398.146 99.1567 397.107 99.1567Z" fill="#4D75FE"/>
<path d="M397.107 117.965H389.918C388.879 117.965 388.037 118.807 388.037 119.846C388.037 120.885 388.879 121.727 389.918 121.727H397.107C398.146 121.727 398.988 120.885 398.988 119.846C398.988 118.807 398.146 117.965 397.107 117.965Z" fill="#4D75FE"/>
<path d="M397.107 126.518H389.918C388.879 126.518 388.037 127.36 388.037 128.399C388.037 129.438 388.879 130.28 389.918 130.28H397.107C398.146 130.28 398.988 129.438 398.988 128.399C398.988 127.36 398.146 126.518 397.107 126.518Z" fill="#4D75FE"/>
<path d="M397.107 135.066H389.918C388.879 135.066 388.037 135.908 388.037 136.947C388.037 137.986 388.879 138.828 389.918 138.828H397.107C398.146 138.828 398.988 137.986 398.988 136.947C398.988 135.908 398.146 135.066 397.107 135.066Z" fill="#4D75FE"/>
<path d="M506.403 253.938C506.403 232.398 489.166 214.938 467.903 214.938C446.64 214.938 429.403 232.398 429.403 253.938C429.403 275.477 446.64 292.938 467.903 292.938C489.166 292.938 506.403 275.477 506.403 253.938Z" fill="#FFD125"/>
<path d="M493.403 260.48C493.198 262.217 493.113 264.14 492.729 266.012C491.764 270.765 486.583 272.494 482.844 269.342C480.796 267.622 478.798 265.843 476.818 264.047C475.443 262.793 473.924 262.149 472.012 262.2C468.538 262.293 465.064 262.284 461.589 262.2C459.763 262.157 458.295 262.759 456.98 263.953C455.145 265.614 453.258 267.224 451.423 268.893C449.46 270.68 447.223 271.409 444.662 270.536C442.059 269.655 441.094 267.495 440.727 265.004C440.044 260.327 440.488 255.718 441.615 251.152C442.307 248.356 443.331 245.704 444.884 243.264C448.768 237.147 455.273 235.3 461.854 238.452C462.494 238.757 463.152 239.045 463.741 239.426C465.806 240.798 467.795 240.722 469.938 239.46C471.414 238.596 473.045 237.858 474.701 237.443C480.002 236.105 484.458 237.587 487.838 241.891C490.68 245.518 491.969 249.779 492.695 254.227C493.019 256.235 493.156 258.268 493.395 260.48H493.403ZM453.677 247.204C452.797 247.204 452.097 247.237 451.397 247.204C450.356 247.144 449.989 247.653 449.989 248.61C449.989 251.609 449.921 251.491 452.575 251.38C453.514 251.347 453.711 251.745 453.677 252.567C453.566 255.252 453.762 255.1 456.306 255.083C456.425 255.083 456.545 255.083 456.664 255.083C457.492 255.1 457.919 254.719 457.902 253.88C457.902 253.49 457.945 253.092 457.902 252.711C457.782 251.694 458.158 251.347 459.216 251.38C461.607 251.448 461.607 251.389 461.598 248.991C461.598 248.873 461.598 248.754 461.598 248.635C461.658 247.576 461.154 247.187 460.096 247.195C457.953 247.204 457.979 247.17 457.885 245.035C457.868 244.586 457.612 243.798 457.381 243.764C456.348 243.62 455.273 243.637 454.231 243.747C454.018 243.772 453.745 244.399 453.702 244.772C453.617 245.501 453.677 246.238 453.677 247.212V247.204ZM486.131 249.677C486.131 248.093 484.876 246.839 483.288 246.839C481.7 246.839 480.454 248.11 480.471 249.694C480.488 251.236 481.7 252.439 483.245 252.465C484.842 252.49 486.114 251.245 486.122 249.669L486.131 249.677ZM478.499 253.668C478.499 252.092 477.227 250.83 475.64 250.847C474.095 250.864 472.866 252.075 472.831 253.609C472.806 255.184 474.061 256.481 475.631 256.498C477.202 256.515 478.491 255.244 478.499 253.668ZM478.499 245.687C478.499 244.111 477.21 242.832 475.648 242.849C474.069 242.866 472.814 244.153 472.84 245.729C472.857 247.237 474.112 248.491 475.631 248.525C477.176 248.551 478.508 247.246 478.508 245.695L478.499 245.687Z" fill="white"/>
<path d="M33.0293 201.529C33.0293 192.412 25.6355 185.022 16.5147 185.022C7.39387 185.022 0 192.412 0 201.529C0 210.645 7.39387 218.036 16.5147 218.036C25.6355 218.036 33.0293 210.645 33.0293 201.529Z" fill="#FFD125"/>
<path d="M81.127 211.794C80.9287 211.794 80.7739 211.634 80.7739 211.441V201.887H107.045V184.147H67.9937V166.277C67.9937 166.079 68.1533 165.924 68.3468 165.924C68.5403 165.924 68.6999 166.083 68.6999 166.277V183.436H107.752V202.598H81.4801V211.441C81.4801 211.639 81.3205 211.794 81.127 211.794Z" fill="#022791"/>
</svg>
