<svg width="96" height="95" viewBox="0 0 96 95" fill="none" xmlns="http://www.w3.org/2000/svg">
<path d="M48.3306 85.4797C69.0969 85.4797 85.9312 68.7616 85.9312 48.1388C85.9312 27.5159 69.0969 10.7979 48.3306 10.7979C27.5644 10.7979 10.73 27.5159 10.73 48.1388C10.73 68.7616 27.5644 85.4797 48.3306 85.4797Z" fill="#FFD125"/>
<path d="M49.0949 58.7131C48.9691 58.7131 48.8385 58.6793 48.7224 58.6116L38.7575 52.8628C38.5301 52.7322 38.385 52.4856 38.385 52.2197V40.722C38.385 40.4561 38.5253 40.2143 38.7575 40.0789L48.7224 34.3301C48.9498 34.1995 49.2352 34.1995 49.4625 34.3301L59.4274 40.0789C59.6548 40.2095 59.7999 40.4561 59.7999 40.722V52.2197C59.7999 52.4856 59.6596 52.7274 59.4274 52.8628L49.4625 58.6116C49.3464 58.6793 49.2206 58.7131 49.09 58.7131H49.0949ZM39.8701 51.7942L49.0949 57.1176L58.3197 51.7942V41.1475L49.0949 35.8241L39.8701 41.1475V51.7942Z" fill="white"/>
<path d="M49.0948 47.2346C48.969 47.2346 48.8384 47.2008 48.7223 47.1379L38.7574 41.3891C38.4043 41.186 38.2833 40.7315 38.4865 40.3785C38.6897 40.0256 39.1444 39.9047 39.4975 40.1078L49.0899 45.6439L58.6824 40.1078C59.0355 39.9047 59.4902 40.0256 59.6934 40.3785C59.8965 40.7315 59.7756 41.186 59.4225 41.3891L49.4576 47.1379C49.3415 47.2056 49.2157 47.2346 49.0851 47.2346H49.0948Z" fill="white"/>
<path d="M49.0948 53.554C48.6837 53.554 48.3547 53.2204 48.3547 52.8143V46.4949C48.3547 46.0839 48.6885 45.7551 49.0948 45.7551C49.5012 45.7551 49.835 46.0888 49.835 46.4949V52.8143C49.835 53.2253 49.5012 53.554 49.0948 53.554Z" fill="white"/>
<path d="M57.7586 63.026C57.4973 63.026 57.2458 62.8857 57.1104 62.644C56.912 62.2862 57.0426 61.8366 57.4054 61.6383C57.7392 61.4546 58.0633 61.2612 58.3826 61.0581C58.726 60.8405 59.1856 60.9372 59.4033 61.2853C59.6209 61.6286 59.5242 62.088 59.1759 62.3056C58.8325 62.5231 58.4745 62.7359 58.1165 62.9341C58.0053 62.997 57.8795 63.026 57.7586 63.026Z" fill="white"/>
<path d="M62.3347 59.448C62.1557 59.448 61.9719 59.3803 61.8316 59.2498C61.5317 58.9742 61.5123 58.5052 61.7929 58.2054C62.2959 57.6639 62.77 57.0837 63.2005 56.4745C63.4376 56.1408 63.902 56.0635 64.2357 56.3004C64.5695 56.5373 64.6469 57.0015 64.4099 57.3351C63.9406 57.9926 63.4279 58.6212 62.8813 59.2111C62.7361 59.3706 62.5378 59.448 62.3395 59.448H62.3347ZM65.9772 53.5541C65.8901 53.5541 65.803 53.5396 65.716 53.5057C65.3338 53.3607 65.1403 52.9352 65.2854 52.5532C65.5466 51.857 65.7643 51.1414 65.9336 50.421C66.0255 50.0245 66.427 49.7779 66.8237 49.8698C67.2204 49.9617 67.4671 50.363 67.3752 50.7595C67.1913 51.5427 66.9543 52.3212 66.6738 53.0706C66.5625 53.3655 66.2819 53.5492 65.982 53.5492L65.9772 53.5541ZM67.1188 46.7222C66.7173 46.7222 66.3883 46.4031 66.3787 46.0018C66.3593 45.262 66.2916 44.5126 66.1755 43.7825C66.1126 43.3764 66.3883 42.9992 66.7947 42.9364C67.1962 42.8735 67.5783 43.1491 67.6412 43.5553C67.7622 44.3482 67.8395 45.1556 67.8589 45.9631C67.8686 46.3741 67.5493 46.7125 67.1381 46.7222C67.1333 46.7222 67.1236 46.7222 67.1188 46.7222ZM65.6095 39.9628C65.3241 39.9628 65.0532 39.7984 64.9323 39.518C64.6324 38.8411 64.2889 38.1739 63.9068 37.5405C63.694 37.1924 63.81 36.7379 64.1583 36.5251C64.5066 36.3124 64.9613 36.4236 65.1742 36.7765C65.5902 37.4631 65.9675 38.1884 66.2868 38.9233C66.4512 39.2956 66.2819 39.7356 65.9094 39.9C65.8127 39.9435 65.7111 39.9628 65.6095 39.9628Z" fill="white"/>
<path d="M61.6429 34.2624C61.459 34.2624 61.2704 34.1947 61.1301 34.0544C60.8592 33.7885 60.5787 33.5371 60.2884 33.2905C59.9788 33.0246 59.9401 32.5604 60.2062 32.2461C60.4722 31.9367 60.9366 31.898 61.251 32.1591C61.5606 32.4202 61.8654 32.7006 62.1653 32.9859C62.4604 33.2712 62.4652 33.7402 62.1847 34.0303C62.0395 34.1802 61.846 34.2575 61.6525 34.2575L61.6429 34.2624Z" fill="white"/>
<path d="M49.0948 65.2355C38.7428 65.2355 30.321 56.8178 30.321 46.4708C30.321 36.1238 38.7428 27.7061 49.0948 27.7061C49.5059 27.7061 49.8349 28.0397 49.8349 28.4458C49.8349 28.8519 49.5011 29.1856 49.0948 29.1856C39.5604 29.1856 31.8013 36.941 31.8013 46.4708C31.8013 56.0006 39.5604 63.756 49.0948 63.756C51.9972 63.756 54.8705 63.0211 57.4005 61.6334C57.7584 61.4352 58.2083 61.5657 58.4066 61.9284C58.605 62.2862 58.4695 62.7358 58.1115 62.9341C55.3639 64.4426 52.2439 65.2355 49.0899 65.2355H49.0948Z" fill="white"/>
<path d="M49.0948 69.2486C43.8076 69.2486 38.6558 67.3968 34.5876 64.0364C34.2732 63.7753 34.2297 63.3112 34.486 62.9921C34.7473 62.6778 35.2116 62.6294 35.5309 62.8905C39.3331 66.0333 44.151 67.7594 49.0948 67.7594C60.8447 67.7594 70.4033 58.2054 70.4033 46.4611C70.4033 34.7168 60.8447 25.1628 49.0948 25.1628C45.8103 25.1628 42.6563 25.8881 39.7297 27.3241C39.3621 27.503 38.917 27.3531 38.7381 26.9856C38.5591 26.6181 38.709 26.1733 39.0767 25.9944C42.2113 24.4617 45.5829 23.6785 49.0948 23.6785C61.6622 23.6785 71.8835 33.8949 71.8835 46.4563C71.8835 59.0177 61.6622 69.2341 49.0948 69.2341V69.2486Z" fill="white"/>
<path d="M32.4012 32.8167C32.2319 32.8167 32.0578 32.7587 31.9175 32.6378C31.6079 32.3719 31.574 31.9029 31.8401 31.5935C32.1061 31.284 32.3818 30.9842 32.6624 30.6893C32.9478 30.3944 33.4122 30.3847 33.7073 30.6699C34.0024 30.9552 34.012 31.4194 33.7266 31.7143C33.4606 31.9899 33.2042 32.2704 32.9527 32.5605C32.8075 32.7297 32.5995 32.8167 32.3915 32.8167H32.4012Z" fill="white"/>
<path d="M30.979 59.7719C30.7468 59.7719 30.5146 59.6607 30.3695 59.4528C29.8954 58.7711 29.4504 58.0506 29.0537 57.3254C28.8602 56.9676 28.9908 56.5179 29.3488 56.3197C29.7067 56.1263 30.1566 56.2568 30.3549 56.6146C30.7226 57.2964 31.1386 57.9636 31.5836 58.6067C31.8158 58.9403 31.7336 59.4044 31.3998 59.6365C31.2692 59.7284 31.1241 59.7671 30.979 59.7671V59.7719ZM27.8831 53.235C27.559 53.235 27.2639 53.0222 27.172 52.6982C26.9446 51.9005 26.7608 51.0785 26.6254 50.2566C26.5576 49.8553 26.8285 49.4733 27.2349 49.4056C27.6315 49.3379 28.0185 49.6087 28.0862 50.0148C28.2168 50.7836 28.3862 51.5524 28.599 52.297C28.7103 52.6886 28.4829 53.0996 28.0911 53.2108C28.0234 53.2301 27.9556 53.2398 27.8879 53.2398L27.8831 53.235ZM27.0801 46.0453C26.635 46.0211 26.3206 45.6729 26.34 45.2668C26.3835 44.4352 26.4706 43.5987 26.606 42.7816C26.6737 42.3755 27.0559 42.1047 27.4574 42.1676C27.8589 42.2353 28.1346 42.6124 28.0669 43.0185C27.9411 43.7873 27.8589 44.5657 27.8202 45.3442C27.8008 45.7407 27.4719 46.0453 27.0801 46.0453ZM28.6377 38.9861C28.5458 38.9861 28.4539 38.9668 28.362 38.9329C27.9847 38.7782 27.8008 38.3479 27.9508 37.9708C28.2604 37.202 28.6183 36.4381 29.0102 35.7031C29.2037 35.3405 29.6535 35.2051 30.0115 35.4034C30.3743 35.5968 30.5049 36.0464 30.3114 36.4042C29.9438 37.0908 29.61 37.8015 29.3198 38.522C29.2037 38.8121 28.9279 38.9861 28.6329 38.9861H28.6377Z" fill="white"/>
<path d="M35.0567 64.2104C34.8923 64.2104 34.7229 64.1572 34.5875 64.0412C34.2731 63.7801 33.9635 63.5142 33.6636 63.2386C33.3637 62.963 33.3443 62.494 33.62 62.1942C33.9006 61.8944 34.365 61.8751 34.6649 62.1507C34.9455 62.407 35.2357 62.6584 35.5259 62.905C35.8404 63.1661 35.8839 63.6302 35.6227 63.9493C35.4776 64.1282 35.2647 64.2201 35.0519 64.2201L35.0567 64.2104Z" fill="white"/>
<path d="M9.96582 28.5134C17.1348 14.719 31.6226 5.28589 48.3307 5.28589" stroke="#FFD125" stroke-width="1.18666" stroke-miterlimit="10"/>
<path d="M9.37082 66.5748C6.6861 60.9904 5.18652 54.7387 5.18652 48.1389C5.18652 43.8985 5.8057 39.7984 6.96183 35.9304" stroke="#4D75FE" stroke-width="1.18666" stroke-miterlimit="10"/>
<path d="M48.3306 90.9868C36.4163 90.9868 25.629 86.1904 17.8215 78.4351" stroke="#FFD125" stroke-width="1.18666" stroke-miterlimit="10"/>
<path d="M71.1387 11.76C83.3481 19.3268 91.4748 32.7924 91.4748 48.1388C91.4748 64.7712 81.9356 79.1893 67.9944 86.2871" stroke="#4D75FE" stroke-width="1.18666" stroke-miterlimit="10"/>
<path d="M20.5353 85.7214C8.92085 77.2311 1.38428 63.5625 1.38428 48.1387C1.38428 33.7352 7.96306 20.8547 18.2956 12.3015" stroke="#FFD125" stroke-width="1.29333" stroke-miterlimit="10"/>
<path d="M93.8934 36.854C94.798 40.4658 95.2769 44.2467 95.2769 48.1389C95.2769 73.8903 74.2587 94.768 48.3305 94.768C41.5824 94.768 35.1633 93.3513 29.3682 90.8081" stroke="#4D75FE" stroke-width="1.29333" stroke-miterlimit="10"/>
<path d="M68.3428 5.94849C77.616 10.2952 85.2251 17.567 89.9657 26.5699" stroke="#FFD125" stroke-width="1.29333" stroke-miterlimit="10"/>
<path d="M38.7961 2.47196C41.8775 1.83857 45.0653 1.50977 48.3305 1.50977C51.5957 1.50977 54.7352 1.83372 57.7924 2.45744" stroke="#4D75FE" stroke-width="1.29333" stroke-miterlimit="10"/>
<path d="M22.2913 9.33766C25.6145 7.13289 29.2328 5.34394 33.0785 4.02881" stroke="#4D75FE" stroke-width="1.29333" stroke-miterlimit="10"/>
</svg>
